<svg xmlns="http://www.w3.org/2000/svg" width="500" height="385.766" viewBox="0 0 500 385.766">
  <g id="cloud_developments" transform="translate(-2375 -1730)">
    <path id="Path_7421" data-name="Path 7421" d="M116.8,209.931a35.731,35.731,0,0,1,54.087-26.816,33.418,33.418,0,0,1,52.306,22.468,35.5,35.5,0,0,1-8.036,70.087H129.687a34.131,34.131,0,0,1-12.886-65.74Z" transform="translate(2338.496 1620.579)" fill="#5cbdff"/>
    <path id="Path_7422" data-name="Path 7422" d="M194.24,232.38a30.2,30.2,0,0,0,.633-6.165,29.887,29.887,0,0,0-.64-6.175l-4.826-.683a25.213,25.213,0,0,0-2.351-5.677l2.922-3.907a30.054,30.054,0,0,0-8.735-8.734l-3.9,2.928a24.782,24.782,0,0,0-5.677-2.362l-.683-4.821a30.212,30.212,0,0,0-12.356,0l-.683,4.821a25.054,25.054,0,0,0-5.688,2.362l-3.9-2.922a30.178,30.178,0,0,0-8.721,8.722l2.922,3.914a25.156,25.156,0,0,0-2.351,5.677l-4.827.683a29.884,29.884,0,0,0-.637,6.175,30.2,30.2,0,0,0,.631,6.165l4.833.694a24.66,24.66,0,0,0,2.368,5.666l-2.939,3.925a30.193,30.193,0,0,0,8.721,8.722l3.914-2.933a24.761,24.761,0,0,0,5.678,2.351l.688,4.843a30.158,30.158,0,0,0,12.345,0l.689-4.843a24.751,24.751,0,0,0,5.677-2.351l3.907,2.939a30.256,30.256,0,0,0,8.728-8.728l-2.939-3.914a25.009,25.009,0,0,0,2.368-5.677ZM164.8,240.71a14.5,14.5,0,1,1,14.5-14.5A14.485,14.485,0,0,1,164.8,240.71Z" transform="translate(2348.074 1625.253)" fill="#fff" opacity="0.6"/>
    <path id="Path_7423" data-name="Path 7423" d="M273.244,182.917A35.729,35.729,0,0,1,327.331,156.1a33.419,33.419,0,0,1,52.307,22.468,35.5,35.5,0,0,1-8.038,70.086H286.13a34.131,34.131,0,0,1-12.886-65.738Z" transform="translate(2376.731 1613.976)" fill="#5cbdff"/>
    <path id="Path_7424" data-name="Path 7424" d="M302.056,202.227c0-4.791,2.563-7.521,6.009-7.521,3.423,0,5.987,2.73,5.987,7.521s-2.564,7.52-5.987,7.52C304.619,209.747,302.056,207.017,302.056,202.227Zm9.9,0c0-3.762-1.6-5.652-3.886-5.652-2.311,0-3.909,1.89-3.909,5.652s1.6,5.65,3.909,5.65C310.354,207.877,311.952,205.987,311.952,202.227Z" transform="translate(2388.967 1624.902)" fill="#fff"/>
    <path id="Path_7425" data-name="Path 7425" d="M313.322,202.227c0-4.791,2.563-7.521,6.009-7.521,3.423,0,5.987,2.73,5.987,7.521s-2.563,7.52-5.987,7.52C315.885,209.747,313.322,207.017,313.322,202.227Zm9.9,0c0-3.762-1.6-5.652-3.886-5.652-2.311,0-3.909,1.89-3.909,5.652s1.6,5.65,3.909,5.65C321.62,207.877,323.218,205.987,323.218,202.227Z" transform="translate(2391.721 1624.902)" fill="#fff"/>
    <path id="Path_7426" data-name="Path 7426" d="M329.261,194.841v14.705h-2.081V196.669h-3.319v-1.828Z" transform="translate(2394.297 1624.935)" fill="#fff"/>
    <path id="Path_7427" data-name="Path 7427" d="M330.788,202.227c0-4.791,2.562-7.521,6.008-7.521,3.425,0,5.987,2.73,5.987,7.521s-2.562,7.52-5.987,7.52C333.35,209.747,330.788,207.017,330.788,202.227Zm9.894,0c0-3.762-1.6-5.652-3.886-5.652-2.311,0-3.907,1.89-3.907,5.652s1.6,5.65,3.907,5.65C339.086,207.877,340.682,205.987,340.682,202.227Z" transform="translate(2395.99 1624.902)" fill="#fff"/>
    <path id="Path_7428" data-name="Path 7428" d="M346.727,194.841v14.705h-2.079V196.669h-3.32v-1.828Z" transform="translate(2398.565 1624.935)" fill="#fff"/>
    <path id="Path_7429" data-name="Path 7429" d="M348.252,202.227c0-4.791,2.563-7.521,6.008-7.521,3.425,0,5.987,2.73,5.987,7.521s-2.562,7.52-5.987,7.52C350.815,209.747,348.252,207.017,348.252,202.227Zm9.894,0c0-3.762-1.6-5.652-3.886-5.652-2.311,0-3.907,1.89-3.907,5.652s1.6,5.65,3.907,5.65C356.55,207.877,358.146,205.987,358.146,202.227Z" transform="translate(2400.258 1624.902)" fill="#fff"/>
    <path id="Path_7430" data-name="Path 7430" d="M364.191,194.841v14.705h-2.079V196.669h-3.32v-1.828Z" transform="translate(2402.834 1624.935)" fill="#fff"/>
    <g id="Group_6080" data-name="Group 6080" transform="translate(2375 1920.53)">
      <g id="Group_6074" data-name="Group 6074">
        <path id="Path_7431" data-name="Path 7431" d="M211.851,343.29a37.977,37.977,0,0,0-26.544-36.212,35.781,35.781,0,0,0-55.331-25.269,35.779,35.779,0,0,0-55.33,25.269,37.967,37.967,0,0,0,11.419,74.175h88.664l-.015-.02A37.958,37.958,0,0,0,211.851,343.29Z" transform="translate(-48.101 -275.807)" fill="#5cbdff"/>
        <path id="Path_7432" data-name="Path 7432" d="M129.659,281.606a35.773,35.773,0,0,0-55.014,25.472,37.967,37.967,0,0,0,11.419,74.175h26.673Z" transform="translate(-48.101 -275.807)" fill="#63baf5"/>
      </g>
      <g id="Group_6079" data-name="Group 6079" transform="translate(67.724 21.913)">
        <g id="Group_6075" data-name="Group 6075" transform="translate(9.744 30.06)">
          <rect id="Rectangle_389" data-name="Rectangle 389" width="96.848" height="7.208" transform="translate(0 34.924)" fill="#3d4959"/>
          <rect id="Rectangle_390" data-name="Rectangle 390" width="96.848" height="7.208" fill="#3d4959"/>
        </g>
        <path id="Rectangle_391" data-name="Rectangle 391" d="M4.006,0H111.913a4.005,4.005,0,0,1,4.005,4.005V28.392a4.005,4.005,0,0,1-4.005,4.005H4.005A4.005,4.005,0,0,1,0,28.392V4.006A4.006,4.006,0,0,1,4.006,0Z" transform="translate(0.001 70.408)" fill="#d6e0ea"/>
        <path id="Path_7433" data-name="Path 7433" d="M150.628,350l-5.279,32.393H107.512a4.982,4.982,0,0,1-4.988-4.98V354.977a4.982,4.982,0,0,1,4.988-4.98Z" transform="translate(-102.524 -279.587)" fill="#ededed"/>
        <rect id="Rectangle_392" data-name="Rectangle 392" width="18.131" height="101.652" transform="translate(108.787 77.541) rotate(90)" fill="#3d4959"/>
        <g id="Group_6076" data-name="Group 6076" transform="translate(42.801 83.486)">
          <path id="Path_7434" data-name="Path 7434" d="M184.721,363.626a3.121,3.121,0,1,1-3.121-3.121A3.12,3.12,0,0,1,184.721,363.626Z" transform="translate(-126.761 -360.505)" fill="#24a7ff"/>
          <path id="Path_7435" data-name="Path 7435" d="M173.709,363.538a2.675,2.675,0,1,1-2.675-2.675A2.675,2.675,0,0,1,173.709,363.538Z" transform="translate(-129.235 -360.418)" fill="#24a7ff"/>
          <path id="Path_7436" data-name="Path 7436" d="M163.229,363.538a2.675,2.675,0,1,1-2.675-2.675A2.675,2.675,0,0,1,163.229,363.538Z" transform="translate(-131.796 -360.418)" fill="#fff"/>
          <path id="Path_7437" data-name="Path 7437" d="M152.75,363.538a2.676,2.676,0,1,1-2.675-2.675A2.675,2.675,0,0,1,152.75,363.538Z" transform="translate(-134.358 -360.418)" fill="#24a7ff"/>
          <path id="Path_7438" data-name="Path 7438" d="M142.27,363.538a2.675,2.675,0,1,1-2.675-2.675A2.675,2.675,0,0,1,142.27,363.538Z" transform="translate(-136.919 -360.418)" fill="#fff"/>
        </g>
        <path id="Rectangle_393" data-name="Rectangle 393" d="M4.005,0H111.913a4.005,4.005,0,0,1,4.005,4.005V28.392a4.006,4.006,0,0,1-4.006,4.006H4.005A4.005,4.005,0,0,1,0,28.392V4.005A4.005,4.005,0,0,1,4.005,0Z" transform="translate(0.001 34.927)" fill="#d6e0ea"/>
        <path id="Path_7439" data-name="Path 7439" d="M156.4,321.485l-5.271,32.392h-43.62a4.982,4.982,0,0,1-4.988-4.979V326.465a4.982,4.982,0,0,1,4.988-4.98Z" transform="translate(-102.524 -286.556)" fill="#ededed"/>
        <rect id="Rectangle_394" data-name="Rectangle 394" width="18.132" height="101.652" transform="translate(108.787 42.06) rotate(90)" fill="#3d4959"/>
        <path id="Rectangle_395" data-name="Rectangle 395" d="M4.006,0H111.913a4.005,4.005,0,0,1,4.005,4.005V28.392a4.005,4.005,0,0,1-4.005,4.005H4.005A4.005,4.005,0,0,1,0,28.392V4.006A4.006,4.006,0,0,1,4.006,0Z" transform="translate(0.001 0.003)" fill="#d6e0ea"/>
        <path id="Path_7440" data-name="Path 7440" d="M162.1,293.416l-5.279,32.4h-49.31a4.984,4.984,0,0,1-4.988-4.989V298.4a4.988,4.988,0,0,1,4.988-4.988Z" transform="translate(-102.524 -293.416)" fill="#ededed"/>
        <rect id="Rectangle_396" data-name="Rectangle 396" width="18.131" height="101.652" transform="translate(108.787 7.136) rotate(90)" fill="#3d4959"/>
        <g id="Group_6077" data-name="Group 6077" transform="translate(42.801 48.005)">
          <circle id="Ellipse_72" data-name="Ellipse 72" cx="3.121" cy="3.121" r="3.121" transform="translate(51.718)" fill="#24a7ff"/>
          <path id="Path_7441" data-name="Path 7441" d="M173.709,335.025a2.675,2.675,0,1,1-2.675-2.675A2.675,2.675,0,0,1,173.709,335.025Z" transform="translate(-129.235 -331.905)" fill="#24a7ff"/>
          <path id="Path_7442" data-name="Path 7442" d="M163.229,335.025a2.675,2.675,0,1,1-2.675-2.675A2.675,2.675,0,0,1,163.229,335.025Z" transform="translate(-131.796 -331.905)" fill="#fff"/>
          <path id="Path_7443" data-name="Path 7443" d="M152.75,335.025a2.676,2.676,0,1,1-2.675-2.675A2.675,2.675,0,0,1,152.75,335.025Z" transform="translate(-134.358 -331.905)" fill="#24a7ff"/>
          <path id="Path_7444" data-name="Path 7444" d="M142.27,335.025a2.675,2.675,0,1,1-2.675-2.675A2.675,2.675,0,0,1,142.27,335.025Z" transform="translate(-136.919 -331.905)" fill="#fff"/>
        </g>
        <g id="Group_6078" data-name="Group 6078" transform="translate(42.801 13.08)">
          <path id="Path_7445" data-name="Path 7445" d="M184.721,307.048a3.121,3.121,0,1,1-3.121-3.121A3.12,3.12,0,0,1,184.721,307.048Z" transform="translate(-126.761 -303.927)" fill="#24a7ff"/>
          <path id="Path_7446" data-name="Path 7446" d="M173.709,306.961a2.675,2.675,0,1,1-2.675-2.675A2.676,2.676,0,0,1,173.709,306.961Z" transform="translate(-129.235 -303.84)" fill="#fff"/>
          <path id="Path_7447" data-name="Path 7447" d="M163.229,306.961a2.675,2.675,0,1,1-2.675-2.675A2.676,2.676,0,0,1,163.229,306.961Z" transform="translate(-131.796 -303.84)" fill="#fff"/>
          <path id="Path_7448" data-name="Path 7448" d="M152.75,306.961a2.676,2.676,0,1,1-2.675-2.675A2.676,2.676,0,0,1,152.75,306.961Z" transform="translate(-134.358 -303.84)" fill="#24a7ff"/>
          <path id="Path_7449" data-name="Path 7449" d="M142.27,306.961a2.675,2.675,0,1,1-2.675-2.675A2.676,2.676,0,0,1,142.27,306.961Z" transform="translate(-136.919 -303.84)" fill="#24a7ff"/>
        </g>
      </g>
    </g>
    <g id="Group_6088" data-name="Group 6088" transform="translate(2563.98 1942.712)">
      <g id="Group_6082" data-name="Group 6082">
        <path id="Path_7450" data-name="Path 7450" d="M329.256,346.914a29.984,29.984,0,0,0-20.96-28.591,28.25,28.25,0,0,0-43.686-19.952,28.251,28.251,0,0,0-43.687,19.952,29.978,29.978,0,0,0,9.016,58.567h70.007l-.012-.017A29.968,29.968,0,0,0,329.256,346.914Z" transform="translate(-199.965 -293.632)" fill="#5cbdff"/>
        <path id="Path_7451" data-name="Path 7451" d="M264.361,298.21a28.245,28.245,0,0,0-43.437,20.112,29.978,29.978,0,0,0,9.016,58.567H251Z" transform="translate(-199.965 -293.632)" fill="#63baf5"/>
      </g>
      <g id="Group_6087" data-name="Group 6087" transform="translate(6.685 51.418)">
        <g id="Group_6083" data-name="Group 6083" transform="translate(9.744 30.06)">
          <rect id="Rectangle_397" data-name="Rectangle 397" width="96.848" height="7.208" transform="translate(0 34.924)" fill="#3d4959"/>
          <rect id="Rectangle_398" data-name="Rectangle 398" width="96.848" height="7.208" fill="#3d4959"/>
        </g>
        <path id="Rectangle_399" data-name="Rectangle 399" d="M4.006,0H111.913a4.006,4.006,0,0,1,4.006,4.006V28.392a4.005,4.005,0,0,1-4.005,4.005H4.006A4.006,4.006,0,0,1,0,28.392V4.006A4.006,4.006,0,0,1,4.006,0Z" transform="translate(0.001 70.409)" fill="#d6e0ea"/>
        <path id="Path_7452" data-name="Path 7452" d="M253.441,391.533l-5.279,32.392H210.325a4.982,4.982,0,0,1-4.988-4.98V396.512a4.982,4.982,0,0,1,4.988-4.979Z" transform="translate(-205.337 -321.122)" fill="#ededed"/>
        <rect id="Rectangle_400" data-name="Rectangle 400" width="18.131" height="101.652" transform="translate(108.787 77.542) rotate(90)" fill="#3d4959"/>
        <g id="Group_6084" data-name="Group 6084" transform="translate(42.801 83.487)">
          <path id="Path_7453" data-name="Path 7453" d="M287.534,405.161a3.12,3.12,0,1,1-3.12-3.12A3.119,3.119,0,0,1,287.534,405.161Z" transform="translate(-229.574 -402.041)" fill="#24a7ff"/>
          <path id="Path_7454" data-name="Path 7454" d="M276.522,405.073a2.675,2.675,0,1,1-2.675-2.675A2.676,2.676,0,0,1,276.522,405.073Z" transform="translate(-232.048 -401.954)" fill="#24a7ff"/>
          <path id="Path_7455" data-name="Path 7455" d="M266.043,405.073a2.676,2.676,0,1,1-2.677-2.675A2.677,2.677,0,0,1,266.043,405.073Z" transform="translate(-234.609 -401.954)" fill="#fff"/>
          <path id="Path_7456" data-name="Path 7456" d="M255.563,405.073a2.675,2.675,0,1,1-2.675-2.675A2.676,2.676,0,0,1,255.563,405.073Z" transform="translate(-237.171 -401.954)" fill="#24a7ff"/>
          <path id="Path_7457" data-name="Path 7457" d="M245.083,405.073a2.675,2.675,0,1,1-2.675-2.675A2.676,2.676,0,0,1,245.083,405.073Z" transform="translate(-239.732 -401.954)" fill="#fff"/>
        </g>
        <rect id="Rectangle_401" data-name="Rectangle 401" width="115.919" height="32.398" rx="4.006" transform="translate(0.001 34.927)" fill="#d6e0ea"/>
        <path id="Path_7458" data-name="Path 7458" d="M259.217,363.02l-5.271,32.393H210.325a4.982,4.982,0,0,1-4.988-4.98V368a4.982,4.982,0,0,1,4.988-4.98Z" transform="translate(-205.337 -328.091)" fill="#ededed"/>
        <rect id="Rectangle_402" data-name="Rectangle 402" width="18.132" height="101.652" transform="translate(108.787 42.06) rotate(90)" fill="#3d4959"/>
        <path id="Rectangle_403" data-name="Rectangle 403" d="M4.006,0H111.913a4.006,4.006,0,0,1,4.006,4.006V28.392a4.005,4.005,0,0,1-4.005,4.005H4.006A4.006,4.006,0,0,1,0,28.392V4.006A4.006,4.006,0,0,1,4.006,0Z" transform="translate(0.001 0.003)" fill="#d6e0ea"/>
        <path id="Path_7459" data-name="Path 7459" d="M264.913,334.951l-5.279,32.4h-49.31a4.984,4.984,0,0,1-4.988-4.988V339.939a4.988,4.988,0,0,1,4.988-4.988Z" transform="translate(-205.337 -334.951)" fill="#ededed"/>
        <rect id="Rectangle_404" data-name="Rectangle 404" width="18.131" height="101.652" transform="translate(108.787 7.136) rotate(90)" fill="#3d4959"/>
        <g id="Group_6085" data-name="Group 6085" transform="translate(42.801 48.006)">
          <path id="Path_7460" data-name="Path 7460" d="M287.534,376.649a3.12,3.12,0,1,1-3.12-3.121A3.119,3.119,0,0,1,287.534,376.649Z" transform="translate(-229.574 -373.528)" fill="#24a7ff"/>
          <path id="Path_7461" data-name="Path 7461" d="M276.522,376.562a2.675,2.675,0,1,1-2.675-2.677A2.676,2.676,0,0,1,276.522,376.562Z" transform="translate(-232.048 -373.441)" fill="#24a7ff"/>
          <path id="Path_7462" data-name="Path 7462" d="M266.043,376.562a2.676,2.676,0,1,1-2.677-2.677A2.676,2.676,0,0,1,266.043,376.562Z" transform="translate(-234.609 -373.441)" fill="#fff"/>
          <path id="Path_7463" data-name="Path 7463" d="M255.563,376.562a2.675,2.675,0,1,1-2.675-2.677A2.676,2.676,0,0,1,255.563,376.562Z" transform="translate(-237.171 -373.441)" fill="#24a7ff"/>
          <path id="Path_7464" data-name="Path 7464" d="M245.083,376.562a2.675,2.675,0,1,1-2.675-2.677A2.675,2.675,0,0,1,245.083,376.562Z" transform="translate(-239.732 -373.441)" fill="#fff"/>
        </g>
        <g id="Group_6086" data-name="Group 6086" transform="translate(42.801 13.081)">
          <path id="Path_7465" data-name="Path 7465" d="M287.534,348.584a3.12,3.12,0,1,1-3.12-3.121A3.12,3.12,0,0,1,287.534,348.584Z" transform="translate(-229.574 -345.463)" fill="#24a7ff"/>
          <path id="Path_7466" data-name="Path 7466" d="M276.522,348.5a2.675,2.675,0,1,1-2.675-2.677A2.676,2.676,0,0,1,276.522,348.5Z" transform="translate(-232.048 -345.376)" fill="#fff"/>
          <path id="Path_7467" data-name="Path 7467" d="M266.043,348.5a2.676,2.676,0,1,1-2.677-2.677A2.676,2.676,0,0,1,266.043,348.5Z" transform="translate(-234.609 -345.376)" fill="#fff"/>
          <path id="Path_7468" data-name="Path 7468" d="M255.563,348.5a2.675,2.675,0,1,1-2.675-2.677A2.676,2.676,0,0,1,255.563,348.5Z" transform="translate(-237.171 -345.376)" fill="#24a7ff"/>
          <path id="Path_7469" data-name="Path 7469" d="M245.083,348.5a2.675,2.675,0,1,1-2.675-2.677A2.675,2.675,0,0,1,245.083,348.5Z" transform="translate(-239.732 -345.376)" fill="#24a7ff"/>
        </g>
      </g>
    </g>
    <g id="Group_6096" data-name="Group 6096" transform="translate(2698.606 1920.53)">
      <g id="Group_6090" data-name="Group 6090" transform="translate(12.643)">
        <path id="Path_7470" data-name="Path 7470" d="M482.06,343.29a37.977,37.977,0,0,0-26.544-36.212,35.779,35.779,0,0,0-55.33-25.269,35.781,35.781,0,0,0-55.331,25.269,37.967,37.967,0,0,0,11.42,74.175h88.663l-.014-.02A37.956,37.956,0,0,0,482.06,343.29Z" transform="translate(-318.31 -275.807)" fill="#5cbdff"/>
        <path id="Path_7471" data-name="Path 7471" d="M399.868,281.606a35.773,35.773,0,0,0-55.014,25.472,37.967,37.967,0,0,0,11.42,74.175h26.673Z" transform="translate(-318.31 -275.807)" fill="#63baf5"/>
      </g>
      <g id="Group_6095" data-name="Group 6095" transform="translate(0 21.913)">
        <g id="Group_6091" data-name="Group 6091" transform="translate(9.743 30.06)">
          <rect id="Rectangle_405" data-name="Rectangle 405" width="96.848" height="7.208" transform="translate(0 34.924)" fill="#3d4959"/>
          <rect id="Rectangle_406" data-name="Rectangle 406" width="96.848" height="7.208" fill="#3d4959"/>
        </g>
        <path id="Rectangle_407" data-name="Rectangle 407" d="M4.006,0H111.913a4.006,4.006,0,0,1,4.006,4.006V28.392a4.005,4.005,0,0,1-4.005,4.005H4.005A4.005,4.005,0,0,1,0,28.392V4.006A4.006,4.006,0,0,1,4.006,0Z" transform="translate(0 70.408)" fill="#d6e0ea"/>
        <path id="Path_7472" data-name="Path 7472" d="M356.253,350l-5.279,32.393H313.138a4.981,4.981,0,0,1-4.988-4.98V354.977a4.981,4.981,0,0,1,4.988-4.98Z" transform="translate(-308.15 -279.587)" fill="#ededed"/>
        <rect id="Rectangle_408" data-name="Rectangle 408" width="18.131" height="101.652" transform="translate(108.786 77.542) rotate(90)" fill="#3d4959"/>
        <g id="Group_6092" data-name="Group 6092" transform="translate(42.8 83.486)">
          <path id="Path_7473" data-name="Path 7473" d="M390.347,363.626a3.121,3.121,0,1,1-3.121-3.121A3.121,3.121,0,0,1,390.347,363.626Z" transform="translate(-332.386 -360.505)" fill="#24a7ff"/>
          <circle id="Ellipse_73" data-name="Ellipse 73" cx="2.676" cy="2.676" r="2.676" transform="translate(39.123 0.445)" fill="#24a7ff"/>
          <path id="Path_7474" data-name="Path 7474" d="M368.855,363.538a2.676,2.676,0,1,1-2.675-2.675A2.675,2.675,0,0,1,368.855,363.538Z" transform="translate(-337.421 -360.418)" fill="#fff"/>
          <path id="Path_7475" data-name="Path 7475" d="M358.375,363.538a2.675,2.675,0,1,1-2.675-2.675A2.675,2.675,0,0,1,358.375,363.538Z" transform="translate(-339.983 -360.418)" fill="#24a7ff"/>
          <path id="Path_7476" data-name="Path 7476" d="M347.9,363.538a2.676,2.676,0,1,1-2.677-2.675A2.676,2.676,0,0,1,347.9,363.538Z" transform="translate(-342.544 -360.418)" fill="#fff"/>
        </g>
        <path id="Rectangle_409" data-name="Rectangle 409" d="M4.005,0H111.913a4.006,4.006,0,0,1,4.006,4.006V28.392a4.006,4.006,0,0,1-4.006,4.006H4.005A4.005,4.005,0,0,1,0,28.392V4.005A4.005,4.005,0,0,1,4.005,0Z" transform="translate(0 34.927)" fill="#d6e0ea"/>
        <path id="Path_7477" data-name="Path 7477" d="M362.029,321.485l-5.271,32.392h-43.62a4.981,4.981,0,0,1-4.988-4.979V326.465a4.981,4.981,0,0,1,4.988-4.98Z" transform="translate(-308.15 -286.556)" fill="#ededed"/>
        <rect id="Rectangle_410" data-name="Rectangle 410" width="18.132" height="101.652" transform="translate(108.786 42.06) rotate(90)" fill="#3d4959"/>
        <path id="Rectangle_411" data-name="Rectangle 411" d="M4.006,0H111.913a4.006,4.006,0,0,1,4.006,4.006V28.392a4.006,4.006,0,0,1-4.006,4.006H4.005A4.005,4.005,0,0,1,0,28.392V4.006A4.006,4.006,0,0,1,4.006,0Z" transform="translate(0 0.003)" fill="#d6e0ea"/>
        <path id="Path_7478" data-name="Path 7478" d="M367.726,293.416l-5.28,32.4H313.138a4.983,4.983,0,0,1-4.988-4.989V298.4a4.988,4.988,0,0,1,4.988-4.988Z" transform="translate(-308.15 -293.416)" fill="#ededed"/>
        <rect id="Rectangle_412" data-name="Rectangle 412" width="18.131" height="101.652" transform="translate(108.786 7.136) rotate(90)" fill="#3d4959"/>
        <g id="Group_6093" data-name="Group 6093" transform="translate(42.8 48.004)">
          <path id="Path_7479" data-name="Path 7479" d="M390.347,335.113a3.121,3.121,0,1,1-3.121-3.121A3.12,3.12,0,0,1,390.347,335.113Z" transform="translate(-332.386 -331.992)" fill="#24a7ff"/>
          <path id="Path_7480" data-name="Path 7480" d="M379.334,335.025a2.675,2.675,0,1,1-2.675-2.675A2.675,2.675,0,0,1,379.334,335.025Z" transform="translate(-334.86 -331.905)" fill="#24a7ff"/>
          <path id="Path_7481" data-name="Path 7481" d="M368.855,335.025a2.676,2.676,0,1,1-2.675-2.675A2.675,2.675,0,0,1,368.855,335.025Z" transform="translate(-337.421 -331.905)" fill="#fff"/>
          <path id="Path_7482" data-name="Path 7482" d="M358.375,335.025a2.675,2.675,0,1,1-2.675-2.675A2.675,2.675,0,0,1,358.375,335.025Z" transform="translate(-339.983 -331.905)" fill="#24a7ff"/>
          <path id="Path_7483" data-name="Path 7483" d="M347.9,335.025a2.676,2.676,0,1,1-2.677-2.675A2.676,2.676,0,0,1,347.9,335.025Z" transform="translate(-342.544 -331.905)" fill="#fff"/>
        </g>
        <g id="Group_6094" data-name="Group 6094" transform="translate(42.8 13.08)">
          <path id="Path_7484" data-name="Path 7484" d="M390.347,307.048a3.121,3.121,0,1,1-3.121-3.121A3.121,3.121,0,0,1,390.347,307.048Z" transform="translate(-332.386 -303.927)" fill="#24a7ff"/>
          <path id="Path_7485" data-name="Path 7485" d="M379.334,306.961a2.675,2.675,0,1,1-2.675-2.675A2.676,2.676,0,0,1,379.334,306.961Z" transform="translate(-334.86 -303.84)" fill="#fff"/>
          <path id="Path_7486" data-name="Path 7486" d="M368.855,306.961a2.676,2.676,0,1,1-2.675-2.675A2.676,2.676,0,0,1,368.855,306.961Z" transform="translate(-337.421 -303.84)" fill="#fff"/>
          <path id="Path_7487" data-name="Path 7487" d="M358.375,306.961a2.675,2.675,0,1,1-2.675-2.675A2.676,2.676,0,0,1,358.375,306.961Z" transform="translate(-339.983 -303.84)" fill="#24a7ff"/>
          <path id="Path_7488" data-name="Path 7488" d="M347.9,306.961a2.676,2.676,0,1,1-2.677-2.675A2.677,2.677,0,0,1,347.9,306.961Z" transform="translate(-342.544 -303.84)" fill="#24a7ff"/>
        </g>
      </g>
    </g>
    <path id="Rectangle_413" data-name="Rectangle 413" d="M8.808,0H182.245a8.808,8.808,0,0,1,8.808,8.808V114.845a10.5,10.5,0,0,1-10.5,10.5H10.5A10.5,10.5,0,0,1,0,114.845V8.808A8.808,8.808,0,0,1,8.808,0Z" transform="translate(2533.1 1730)" fill="#3bb0ff"/>
    <path id="Path_7489" data-name="Path 7489" d="M269,122.7H186.11a10.961,10.961,0,0,0-10.961,10.959v101.32a13.063,13.063,0,0,0,13.063,13.063h55.566Z" transform="translate(2357.95 1607.302)" fill="#fff" opacity="0.2"/>
    <path id="Rectangle_414" data-name="Rectangle 414" d="M0,0H191.052a0,0,0,0,1,0,0V116.534a8.808,8.808,0,0,1-8.808,8.808H8.808A8.808,8.808,0,0,1,0,116.534V0A0,0,0,0,1,0,0Z" transform="translate(2533.1 1750.635)" fill="#d6e0ea"/>
    <path id="Rectangle_415" data-name="Rectangle 415" d="M0,0H115.521a4.662,4.662,0,0,1,4.662,4.662v171.41a4.662,4.662,0,0,1-4.662,4.662H0a0,0,0,0,1,0,0V0A0,0,0,0,1,0,0Z" transform="translate(2718.993 1750.635) rotate(90)" fill="#f3f9ff"/>
    <g id="Group_6098" data-name="Group 6098" transform="translate(2594.695 1795.345)">
      <path id="Path_7490" data-name="Path 7490" d="M292.508,214.739V203.5l-7.72-1.1a24.036,24.036,0,0,0-2.924-7.082l4.664-6.192-7.928-7.974-6.237,4.665a24.213,24.213,0,0,0-7.083-2.926l-1.1-7.678H252.936l-1.1,7.678a24.213,24.213,0,0,0-7.083,2.926l-6.188-4.665-7.977,7.974,4.664,6.192a23.17,23.17,0,0,0-2.924,7.082l-7.679,1.1v11.24l7.679,1.1a23.848,23.848,0,0,0,2.924,7.125l-4.664,6.192,7.977,7.932,6.188-4.665a23.237,23.237,0,0,0,7.083,2.968l1.1,7.678h11.242l1.1-7.678a23.237,23.237,0,0,0,7.083-2.968l6.237,4.665,7.928-7.932-4.664-6.234a25,25,0,0,0,2.924-7.083Zm-33.93,11.366a16.986,16.986,0,1,1,16.965-16.965A16.937,16.937,0,0,1,258.578,226.105Z" transform="translate(-224.647 -175.209)" fill="#425160"/>
      <path id="Path_7491" data-name="Path 7491" d="M258.526,226.1a16.984,16.984,0,0,1,0-33.967V175.209h-5.59l-1.1,7.678a24.247,24.247,0,0,0-7.083,2.926l-6.187-4.665-7.978,7.974,4.664,6.192a23.17,23.17,0,0,0-2.924,7.082l-7.679,1.1v11.24l7.679,1.1a23.848,23.848,0,0,0,2.924,7.125l-4.664,6.192,7.978,7.932,6.187-4.665a23.238,23.238,0,0,0,7.083,2.968l1.1,7.678h5.59Z" transform="translate(-224.647 -175.209)" fill="#3d4959"/>
    </g>
    <path id="Path_7492" data-name="Path 7492" d="M322.207,176.1v-8.011l-5.5-.786a17.126,17.126,0,0,0-2.084-5.049l3.325-4.414-5.652-5.684-4.446,3.326A17.283,17.283,0,0,0,302.8,153.4l-.785-5.473H294l-.785,5.473a17.283,17.283,0,0,0-5.049,2.086l-4.411-3.326-5.686,5.684,3.324,4.414a16.549,16.549,0,0,0-2.084,5.049l-5.473.786V176.1l5.473.786a17.033,17.033,0,0,0,2.084,5.078l-3.324,4.414,5.686,5.653,4.411-3.325a16.51,16.51,0,0,0,5.049,2.115L294,196.3h8.013l.785-5.473a16.51,16.51,0,0,0,5.049-2.115l4.446,3.325,5.652-5.653-3.325-4.444a17.813,17.813,0,0,0,2.084-5.049Zm-24.186,8.1a12.108,12.108,0,1,1,12.093-12.093A12.073,12.073,0,0,1,298.02,184.206Z" transform="translate(2382.07 1613.469)" fill="#41566d"/>
    <rect id="Rectangle_416" data-name="Rectangle 416" width="60.33" height="5.016" transform="translate(2544.742 1756.941)" fill="#d6e0ea"/>
    <rect id="Rectangle_417" data-name="Rectangle 417" width="60.33" height="5.016" transform="translate(2544.742 1768.789)" fill="#d6e0ea"/>
    <rect id="Rectangle_418" data-name="Rectangle 418" width="60.33" height="5.016" transform="translate(2544.742 1780.637)" fill="#d6e0ea"/>
    <rect id="Rectangle_419" data-name="Rectangle 419" width="47.29" height="5.016" transform="translate(2544.742 1792.486)" fill="#d6e0ea"/>
    <rect id="Rectangle_420" data-name="Rectangle 420" width="47.29" height="5.016" transform="translate(2544.742 1804.334)" fill="#d6e0ea"/>
    <g id="Group_6099" data-name="Group 6099" transform="translate(2670.513 1736.302)">
      <path id="Path_7493" data-name="Path 7493" d="M293.987,131.968a4.207,4.207,0,1,1-4.206-4.206A4.206,4.206,0,0,1,293.987,131.968Z" transform="translate(-285.574 -127.762)" fill="#fff"/>
      <path id="Path_7494" data-name="Path 7494" d="M307.8,131.968a4.207,4.207,0,1,1-4.207-4.206A4.207,4.207,0,0,1,307.8,131.968Z" transform="translate(-282.197 -127.762)" fill="#fff"/>
      <path id="Path_7495" data-name="Path 7495" d="M321.62,131.968a4.207,4.207,0,1,1-4.207-4.206A4.207,4.207,0,0,1,321.62,131.968Z" transform="translate(-278.82 -127.762)" fill="#fff"/>
    </g>
    <g id="Group_6100" data-name="Group 6100" transform="translate(2544.239 1853.174)">
      <path id="Path_7496" data-name="Path 7496" d="M286.023,226.155a3.362,3.362,0,1,1-3.362-3.362A3.363,3.363,0,0,1,286.023,226.155Z" transform="translate(-160.834 -221.408)" fill="#24a7ff"/>
      <path id="Path_7497" data-name="Path 7497" d="M297.7,226.155a3.363,3.363,0,1,1-3.362-3.362A3.363,3.363,0,0,1,297.7,226.155Z" transform="translate(-157.981 -221.408)" fill="#24a7ff"/>
      <path id="Path_7498" data-name="Path 7498" d="M311.029,226.427a4.747,4.747,0,1,1-4.747-4.747A4.747,4.747,0,0,1,311.029,226.427Z" transform="translate(-155.399 -221.68)" fill="#24a7ff"/>
      <path id="Path_7499" data-name="Path 7499" d="M321.047,226.155a3.363,3.363,0,1,1-3.362-3.362A3.363,3.363,0,0,1,321.047,226.155Z" transform="translate(-152.274 -221.408)" fill="#24a7ff"/>
      <path id="Path_7500" data-name="Path 7500" d="M190.827,226.155a3.363,3.363,0,1,1-3.362-3.362A3.363,3.363,0,0,1,190.827,226.155Z" transform="translate(-184.101 -221.408)" fill="#24a7ff"/>
      <path id="Path_7501" data-name="Path 7501" d="M202.5,226.155a3.362,3.362,0,1,1-3.362-3.362A3.363,3.363,0,0,1,202.5,226.155Z" transform="translate(-181.248 -221.408)" fill="#24a7ff"/>
      <path id="Path_7502" data-name="Path 7502" d="M214.176,226.155a3.363,3.363,0,1,1-3.362-3.362A3.363,3.363,0,0,1,214.176,226.155Z" transform="translate(-178.394 -221.408)" fill="#24a7ff"/>
      <path id="Path_7503" data-name="Path 7503" d="M225.85,226.155a3.362,3.362,0,1,1-3.362-3.362A3.363,3.363,0,0,1,225.85,226.155Z" transform="translate(-175.541 -221.408)" fill="#24a7ff"/>
    </g>
    <path id="Path_7504" data-name="Path 7504" d="M176.357,155.237v-9.22l-6.334-.9a19.709,19.709,0,0,0-2.4-5.81l3.825-5.08-6.5-6.541-5.117,3.828a19.876,19.876,0,0,0-5.809-2.4l-.9-6.3H143.9l-.9,6.3a19.883,19.883,0,0,0-5.81,2.4l-5.076-3.828-6.543,6.541,3.825,5.08a19.006,19.006,0,0,0-2.4,5.81l-6.3.9v9.22l6.3.9a19.57,19.57,0,0,0,2.4,5.845l-3.825,5.08,6.543,6.506,5.076-3.827a19.051,19.051,0,0,0,5.81,2.435l.9,6.3h9.221l.9-6.3a19.045,19.045,0,0,0,5.809-2.435l5.117,3.827,6.5-6.506-3.825-5.115a20.512,20.512,0,0,0,2.4-5.81Zm-27.834,6.939a11.549,11.549,0,1,1,11.534-11.534A11.516,11.516,0,0,1,148.524,162.175Z" transform="translate(2344.64 1607.33)" fill="#e4eff7"/>
    <path id="Path_7505" data-name="Path 7505" d="M405.532,256.751v-7.985l-5.484-.783a17.063,17.063,0,0,0-2.078-5.031l3.314-4.4-5.632-5.666L391.22,236.2a17.214,17.214,0,0,0-5.031-2.079l-.783-5.453h-7.985l-.783,5.453a17.236,17.236,0,0,0-5.032,2.079l-4.4-3.315-5.667,5.666,3.313,4.4a16.452,16.452,0,0,0-2.077,5.031l-5.456.783v7.985l5.456.783a16.956,16.956,0,0,0,2.077,5.062l-3.313,4.4,5.667,5.635,4.4-3.315a16.493,16.493,0,0,0,5.032,2.109l.783,5.454h7.985l.783-5.454a16.473,16.473,0,0,0,5.031-2.109l4.431,3.315L401.284,267l-3.314-4.429a17.774,17.774,0,0,0,2.078-5.032Zm-24.1,6.009a10,10,0,1,1,9.989-9.989A9.973,9.973,0,0,1,381.428,262.761Z" transform="translate(2402.475 1633.203)" fill="#dde9f2"/>
    <path id="Path_7506" data-name="Path 7506" d="M346.56,401.9v-5.284l-3.63-.518a11.314,11.314,0,0,0-1.374-3.33l2.193-2.911-3.727-3.748L337.09,388.3a11.386,11.386,0,0,0-3.33-1.375l-.518-3.609h-5.285l-.518,3.609a11.393,11.393,0,0,0-3.329,1.375l-2.909-2.193-3.749,3.748,2.193,2.911a10.87,10.87,0,0,0-1.375,3.33l-3.61.518V401.9l3.61.519a11.184,11.184,0,0,0,1.375,3.349l-2.193,2.911,3.749,3.729,2.909-2.194a10.951,10.951,0,0,0,3.329,1.4l.518,3.609h5.285l.518-3.609a10.945,10.945,0,0,0,3.33-1.4l2.932,2.194,3.727-3.729-2.193-2.931a11.767,11.767,0,0,0,1.374-3.329Zm-15.95,3.976a6.618,6.618,0,1,1,6.609-6.609A6.6,6.6,0,0,1,330.611,405.878Z" transform="translate(2392.048 1671)" fill="#e4eff7"/>
    <path id="Path_7507" data-name="Path 7507" d="M214.994,429.219c0-3.65,1.952-5.73,4.577-5.73s4.562,2.081,4.562,5.73-1.952,5.729-4.562,5.729S214.994,432.868,214.994,429.219Zm7.539,0c0-2.866-1.217-4.306-2.962-4.306s-2.977,1.44-2.977,4.306,1.217,4.3,2.977,4.3S222.533,432.084,222.533,429.219Z" transform="translate(2367.688 1680.818)" fill="#dde9f2"/>
    <path id="Path_7508" data-name="Path 7508" d="M223.577,429.219c0-3.65,1.952-5.73,4.578-5.73,2.608,0,4.561,2.081,4.561,5.73s-1.952,5.729-4.561,5.729C225.529,434.949,223.577,432.868,223.577,429.219Zm7.539,0c0-2.866-1.217-4.306-2.96-4.306-1.761,0-2.978,1.44-2.978,4.306s1.217,4.3,2.978,4.3C229.9,433.524,231.116,432.084,231.116,429.219Z" transform="translate(2369.786 1680.818)" fill="#dde9f2"/>
    <path id="Path_7509" data-name="Path 7509" d="M235.72,423.592v11.2h-1.584v-9.81h-2.529v-1.394Z" transform="translate(2371.749 1680.843)" fill="#dde9f2"/>
    <path id="Path_7510" data-name="Path 7510" d="M236.883,429.219c0-3.65,1.954-5.73,4.578-5.73,2.608,0,4.561,2.081,4.561,5.73s-1.952,5.729-4.561,5.729C238.837,434.949,236.883,432.868,236.883,429.219Zm7.539,0c0-2.866-1.217-4.306-2.96-4.306-1.761,0-2.978,1.44-2.978,4.306s1.217,4.3,2.978,4.3C243.2,433.524,244.422,432.084,244.422,429.219Z" transform="translate(2373.038 1680.818)" fill="#dde9f2"/>
    <path id="Path_7511" data-name="Path 7511" d="M249.026,423.592v11.2h-1.584v-9.81h-2.529v-1.394Z" transform="translate(2375.001 1680.843)" fill="#dde9f2"/>
    <path id="Path_7512" data-name="Path 7512" d="M250.189,429.219c0-3.65,1.952-5.73,4.577-5.73s4.562,2.081,4.562,5.73-1.952,5.729-4.562,5.729S250.189,432.868,250.189,429.219Zm7.539,0c0-2.866-1.217-4.306-2.962-4.306-1.761,0-2.977,1.44-2.977,4.306s1.216,4.3,2.977,4.3C256.511,433.524,257.728,432.084,257.728,429.219Z" transform="translate(2376.291 1680.818)" fill="#dde9f2"/>
    <path id="Path_7513" data-name="Path 7513" d="M262.333,423.592v11.2h-1.585v-9.81h-2.529v-1.394Z" transform="translate(2378.253 1680.843)" fill="#dde9f2"/>
    <path id="Path_7514" data-name="Path 7514" d="M77.979,268.213c0-4.586,2.453-7.2,5.75-7.2,3.279,0,5.732,2.613,5.732,7.2s-2.453,7.2-5.732,7.2C80.432,275.412,77.979,272.8,77.979,268.213Zm9.471,0c0-3.6-1.528-5.409-3.721-5.409-2.211,0-3.741,1.809-3.741,5.409s1.529,5.409,3.741,5.409C85.922,273.622,87.45,271.813,87.45,268.213Z" transform="translate(2334.201 1641.108)" fill="#dde9f2"/>
    <path id="Path_7515" data-name="Path 7515" d="M88.763,268.213c0-4.586,2.454-7.2,5.752-7.2,3.278,0,5.73,2.613,5.73,7.2s-2.453,7.2-5.73,7.2C91.217,275.412,88.763,272.8,88.763,268.213Zm9.472,0c0-3.6-1.529-5.409-3.721-5.409-2.213,0-3.741,1.809-3.741,5.409s1.528,5.409,3.741,5.409C96.706,273.622,98.235,271.813,98.235,268.213Z" transform="translate(2336.837 1641.108)" fill="#dde9f2"/>
    <path id="Path_7516" data-name="Path 7516" d="M104.021,261.143V275.22H102.03V262.893H98.852v-1.75Z" transform="translate(2339.303 1641.139)" fill="#dde9f2"/>
    <path id="Path_7517" data-name="Path 7517" d="M105.482,268.213c0-4.586,2.454-7.2,5.752-7.2,3.278,0,5.73,2.613,5.73,7.2s-2.453,7.2-5.73,7.2C107.936,275.412,105.482,272.8,105.482,268.213Zm9.472,0c0-3.6-1.529-5.409-3.721-5.409-2.213,0-3.741,1.809-3.741,5.409s1.528,5.409,3.741,5.409C113.425,273.622,114.954,271.813,114.954,268.213Z" transform="translate(2340.923 1641.108)" fill="#dde9f2"/>
    <path id="Path_7518" data-name="Path 7518" d="M120.74,261.143V275.22h-1.991V262.893h-3.178v-1.75Z" transform="translate(2343.389 1641.139)" fill="#dde9f2"/>
    <path id="Path_7519" data-name="Path 7519" d="M126.722,261.143V275.22h-1.991V262.893h-3.177v-1.75Z" transform="translate(2344.851 1641.139)" fill="#dde9f2"/>
    <path id="Path_7520" data-name="Path 7520" d="M128.183,268.213c0-4.586,2.454-7.2,5.752-7.2,3.278,0,5.73,2.613,5.73,7.2s-2.453,7.2-5.73,7.2C130.637,275.412,128.183,272.8,128.183,268.213Zm9.471,0c0-3.6-1.528-5.409-3.72-5.409-2.213,0-3.741,1.809-3.741,5.409s1.528,5.409,3.741,5.409C136.126,273.622,137.654,271.813,137.654,268.213Z" transform="translate(2346.472 1641.108)" fill="#dde9f2"/>
    <path id="Path_7521" data-name="Path 7521" d="M138.968,268.213c0-4.586,2.453-7.2,5.75-7.2,3.279,0,5.732,2.613,5.732,7.2s-2.453,7.2-5.732,7.2C141.421,275.412,138.968,272.8,138.968,268.213Zm9.471,0c0-3.6-1.528-5.409-3.721-5.409-2.211,0-3.741,1.809-3.741,5.409s1.529,5.409,3.741,5.409C146.911,273.622,148.439,271.813,148.439,268.213Z" transform="translate(2349.107 1641.108)" fill="#dde9f2"/>
    <path id="Path_7522" data-name="Path 7522" d="M149.752,268.213c0-4.586,2.454-7.2,5.752-7.2,3.278,0,5.732,2.613,5.732,7.2s-2.454,7.2-5.732,7.2C152.206,275.412,149.752,272.8,149.752,268.213Zm9.472,0c0-3.6-1.529-5.409-3.721-5.409-2.213,0-3.741,1.809-3.741,5.409s1.528,5.409,3.741,5.409C157.7,273.622,159.224,271.813,159.224,268.213Z" transform="translate(2351.743 1641.108)" fill="#dde9f2"/>
    <path id="Path_7523" data-name="Path 7523" d="M165.01,261.143V275.22h-1.991V262.893h-3.178v-1.75Z" transform="translate(2354.209 1641.139)" fill="#dde9f2"/>
    <path id="Path_7524" data-name="Path 7524" d="M166.471,268.213c0-4.586,2.454-7.2,5.752-7.2,3.278,0,5.732,2.613,5.732,7.2s-2.454,7.2-5.732,7.2C168.925,275.412,166.471,272.8,166.471,268.213Zm9.472,0c0-3.6-1.529-5.409-3.721-5.409-2.213,0-3.741,1.809-3.741,5.409s1.528,5.409,3.741,5.409C174.414,273.622,175.943,271.813,175.943,268.213Z" transform="translate(2355.829 1641.108)" fill="#dde9f2"/>
    <path id="Path_7525" data-name="Path 7525" d="M181.729,261.143V275.22h-1.991V262.893H176.56v-1.75Z" transform="translate(2358.295 1641.139)" fill="#dde9f2"/>
    <path id="Path_7526" data-name="Path 7526" d="M256.3,281.512c0-4.586,2.454-7.2,5.752-7.2,3.278,0,5.73,2.613,5.73,7.2s-2.453,7.2-5.73,7.2C258.753,288.711,256.3,286.1,256.3,281.512Zm9.471,0c0-3.6-1.528-5.409-3.72-5.409-2.213,0-3.741,1.809-3.741,5.409s1.528,5.409,3.741,5.409C264.242,286.921,265.77,285.112,265.77,281.512Z" transform="translate(2377.784 1644.358)" fill="#dde9f2"/>
    <path id="Path_7527" data-name="Path 7527" d="M271.557,274.442v14.077h-1.991V276.192h-3.178v-1.75Z" transform="translate(2380.25 1644.39)" fill="#dde9f2"/>
    <path id="Path_7528" data-name="Path 7528" d="M277.539,274.442v14.077h-1.991V276.192h-3.177v-1.75Z" transform="translate(2381.712 1644.39)" fill="#dde9f2"/>
    <path id="Path_7529" data-name="Path 7529" d="M279,281.512c0-4.586,2.454-7.2,5.752-7.2,3.278,0,5.73,2.613,5.73,7.2s-2.453,7.2-5.73,7.2C281.454,288.711,279,286.1,279,281.512Zm9.471,0c0-3.6-1.528-5.409-3.72-5.409-2.213,0-3.741,1.809-3.741,5.409s1.528,5.409,3.741,5.409C286.943,286.921,288.471,285.112,288.471,281.512Z" transform="translate(2383.332 1644.358)" fill="#dde9f2"/>
    <path id="Path_7530" data-name="Path 7530" d="M289.784,281.512c0-4.586,2.454-7.2,5.752-7.2,3.279,0,5.732,2.613,5.732,7.2s-2.453,7.2-5.732,7.2C292.238,288.711,289.784,286.1,289.784,281.512Zm9.472,0c0-3.6-1.528-5.409-3.721-5.409-2.211,0-3.741,1.809-3.741,5.409s1.529,5.409,3.741,5.409C297.728,286.921,299.256,285.112,299.256,281.512Z" transform="translate(2385.968 1644.358)" fill="#dde9f2"/>
    <path id="Path_7531" data-name="Path 7531" d="M300.569,281.512c0-4.586,2.454-7.2,5.752-7.2,3.278,0,5.73,2.613,5.73,7.2s-2.453,7.2-5.73,7.2C303.023,288.711,300.569,286.1,300.569,281.512Zm9.472,0c0-3.6-1.529-5.409-3.721-5.409-2.213,0-3.741,1.809-3.741,5.409s1.528,5.409,3.741,5.409C308.512,286.921,310.041,285.112,310.041,281.512Z" transform="translate(2388.604 1644.358)" fill="#dde9f2"/>
    <path id="Path_7532" data-name="Path 7532" d="M341.125,145.007a3.362,3.362,0,1,1-3.362-3.362A3.361,3.361,0,0,1,341.125,145.007Z" transform="translate(2396.873 1611.933)" fill="#dde9f2"/>
    <path id="Path_7533" data-name="Path 7533" d="M352.8,145.007a3.362,3.362,0,1,1-3.362-3.362A3.362,3.362,0,0,1,352.8,145.007Z" transform="translate(2399.726 1611.933)" fill="#dde9f2"/>
    <path id="Path_7534" data-name="Path 7534" d="M366.131,145.279a4.747,4.747,0,1,1-4.747-4.746A4.747,4.747,0,0,1,366.131,145.279Z" transform="translate(2402.307 1611.661)" fill="#dde9f2"/>
    <path id="Path_7535" data-name="Path 7535" d="M376.149,145.007a3.362,3.362,0,1,1-3.362-3.362A3.362,3.362,0,0,1,376.149,145.007Z" transform="translate(2405.433 1611.933)" fill="#dde9f2"/>
    <path id="Path_7536" data-name="Path 7536" d="M178.8,387.832a3.363,3.363,0,1,1,3.364,3.362A3.363,3.363,0,0,1,178.8,387.832Z" transform="translate(2358.844 1671.281)" fill="#dde9f2"/>
    <path id="Path_7537" data-name="Path 7537" d="M167.13,387.832a3.362,3.362,0,1,1,3.362,3.362A3.363,3.363,0,0,1,167.13,387.832Z" transform="translate(2355.99 1671.281)" fill="#dde9f2"/>
    <path id="Path_7538" data-name="Path 7538" d="M154.343,388.1a4.747,4.747,0,1,1,4.747,4.746A4.747,4.747,0,0,1,154.343,388.1Z" transform="translate(2352.865 1671.009)" fill="#dde9f2"/>
    <path id="Path_7539" data-name="Path 7539" d="M143.781,387.832a3.362,3.362,0,1,1,3.362,3.362A3.363,3.363,0,0,1,143.781,387.832Z" transform="translate(2350.284 1671.281)" fill="#dde9f2"/>
    <g id="Group_6109" data-name="Group 6109" transform="translate(2705.74 1878.915)">
      <g id="Group_6108" data-name="Group 6108">
        <rect id="Rectangle_421" data-name="Rectangle 421" width="5.711" height="3.37" transform="translate(0 57.009)" fill="#55738e"/>
        <rect id="Rectangle_422" data-name="Rectangle 422" width="5.711" height="3.37" transform="translate(0 50.675)" fill="#55738e"/>
        <rect id="Rectangle_423" data-name="Rectangle 423" width="5.711" height="3.37" transform="translate(0 44.34)" fill="#55738e"/>
        <rect id="Rectangle_424" data-name="Rectangle 424" width="5.711" height="3.37" transform="translate(0 38.006)" fill="#55738e"/>
        <rect id="Rectangle_425" data-name="Rectangle 425" width="5.711" height="3.37" transform="translate(0 31.672)" fill="#55738e"/>
        <rect id="Rectangle_426" data-name="Rectangle 426" width="5.711" height="3.37" transform="translate(0 25.337)" fill="#55738e"/>
        <rect id="Rectangle_427" data-name="Rectangle 427" width="5.711" height="3.37" transform="translate(0 19.003)" fill="#55738e"/>
        <rect id="Rectangle_428" data-name="Rectangle 428" width="5.711" height="3.37" transform="translate(0 12.669)" fill="#55738e"/>
        <rect id="Rectangle_429" data-name="Rectangle 429" width="5.711" height="3.37" transform="translate(0 6.334)" fill="#55738e"/>
        <rect id="Rectangle_430" data-name="Rectangle 430" width="5.711" height="3.37" fill="#55738e"/>
      </g>
    </g>
    <g id="Group_6112" data-name="Group 6112" transform="translate(2625.771 1878.915)">
      <g id="Group_6111" data-name="Group 6111">
        <rect id="Rectangle_431" data-name="Rectangle 431" width="5.71" height="3.37" transform="translate(0 57.009)" fill="#55738e"/>
        <rect id="Rectangle_432" data-name="Rectangle 432" width="5.71" height="3.37" transform="translate(0 50.675)" fill="#55738e"/>
        <rect id="Rectangle_433" data-name="Rectangle 433" width="5.71" height="3.37" transform="translate(0 44.34)" fill="#55738e"/>
        <rect id="Rectangle_434" data-name="Rectangle 434" width="5.71" height="3.37" transform="translate(0 38.006)" fill="#55738e"/>
        <rect id="Rectangle_435" data-name="Rectangle 435" width="5.71" height="3.37" transform="translate(0 31.672)" fill="#55738e"/>
        <rect id="Rectangle_436" data-name="Rectangle 436" width="5.71" height="3.37" transform="translate(0 25.337)" fill="#55738e"/>
        <rect id="Rectangle_437" data-name="Rectangle 437" width="5.71" height="3.37" transform="translate(0 19.003)" fill="#55738e"/>
        <rect id="Rectangle_438" data-name="Rectangle 438" width="5.71" height="3.37" transform="translate(0 12.669)" fill="#55738e"/>
        <rect id="Rectangle_439" data-name="Rectangle 439" width="5.71" height="3.37" transform="translate(0 6.334)" fill="#55738e"/>
        <rect id="Rectangle_440" data-name="Rectangle 440" width="5.71" height="3.37" fill="#55738e"/>
      </g>
    </g>
    <g id="Group_6115" data-name="Group 6115" transform="translate(2545.8 1878.915)">
      <g id="Group_6114" data-name="Group 6114">
        <rect id="Rectangle_441" data-name="Rectangle 441" width="5.71" height="3.37" transform="translate(0 57.009)" fill="#55738e"/>
        <rect id="Rectangle_442" data-name="Rectangle 442" width="5.71" height="3.37" transform="translate(0 50.675)" fill="#55738e"/>
        <rect id="Rectangle_443" data-name="Rectangle 443" width="5.71" height="3.37" transform="translate(0 44.34)" fill="#55738e"/>
        <rect id="Rectangle_444" data-name="Rectangle 444" width="5.71" height="3.37" transform="translate(0 38.006)" fill="#55738e"/>
        <rect id="Rectangle_445" data-name="Rectangle 445" width="5.71" height="3.37" transform="translate(0 31.672)" fill="#55738e"/>
        <rect id="Rectangle_446" data-name="Rectangle 446" width="5.71" height="3.37" transform="translate(0 25.337)" fill="#55738e"/>
        <rect id="Rectangle_447" data-name="Rectangle 447" width="5.71" height="3.37" transform="translate(0 19.003)" fill="#55738e"/>
        <rect id="Rectangle_448" data-name="Rectangle 448" width="5.71" height="3.37" transform="translate(0 12.669)" fill="#55738e"/>
        <rect id="Rectangle_449" data-name="Rectangle 449" width="5.71" height="3.37" transform="translate(0 6.334)" fill="#55738e"/>
        <rect id="Rectangle_450" data-name="Rectangle 450" width="5.71" height="3.37" fill="#55738e"/>
      </g>
    </g>
  </g>
</svg>
