<svg xmlns="http://www.w3.org/2000/svg" xmlns:xlink="http://www.w3.org/1999/xlink" width="461.073" height="285.38" viewBox="0 0 461.073 285.38">
  <defs>
    <radialGradient id="radial-gradient" cx="0.5" cy="0.5" r="0.903" gradientTransform="translate(0.223 0.79) scale(0.554 0.553)" gradientUnits="objectBoundingBox">
      <stop offset="0.182" stop-color="#4d5a96"/>
      <stop offset="0.248" stop-color="#6a75a7"/>
      <stop offset="0.364" stop-color="#979ec1"/>
      <stop offset="0.481" stop-color="#bcc1d7"/>
      <stop offset="0.597" stop-color="#d9dce9"/>
      <stop offset="0.712" stop-color="#eeeff5"/>
      <stop offset="0.825" stop-color="#fafbfc"/>
      <stop offset="0.934" stop-color="#fff"/>
    </radialGradient>
    <radialGradient id="radial-gradient-2" cx="0.5" cy="0.5" r="0.903" gradientTransform="translate(0.223 0.797) scale(0.554 0.553)" gradientUnits="objectBoundingBox">
      <stop offset="0.182" stop-color="#55629b"/>
      <stop offset="0.218" stop-color="#6d78a9"/>
      <stop offset="0.259" stop-color="#828bb5"/>
      <stop offset="0.299" stop-color="#8e97bc"/>
      <stop offset="0.338" stop-color="#939bbf"/>
      <stop offset="0.483" stop-color="#969dc0"/>
      <stop offset="0.595" stop-color="#9fa6c6"/>
      <stop offset="0.697" stop-color="#b0b6d0"/>
      <stop offset="0.791" stop-color="#c7ccde"/>
      <stop offset="0.881" stop-color="#e5e7f0"/>
      <stop offset="0.934" stop-color="#fbfcfd"/>
      <stop offset="1" stop-color="#fafbfd"/>
    </radialGradient>
    <radialGradient id="radial-gradient-3" cx="0.5" cy="0.5" r="0.903" gradientTransform="translate(0.223 0.804) scale(0.554 0.553)" gradientUnits="objectBoundingBox">
      <stop offset="0.182" stop-color="#5e6aa0"/>
      <stop offset="0.215" stop-color="#737eac"/>
      <stop offset="0.257" stop-color="#8890b8"/>
      <stop offset="0.298" stop-color="#949cbf"/>
      <stop offset="0.338" stop-color="#99a0c2"/>
      <stop offset="0.489" stop-color="#9ca2c3"/>
      <stop offset="0.606" stop-color="#a5acc9"/>
      <stop offset="0.712" stop-color="#b6bbd4"/>
      <stop offset="0.81" stop-color="#cdd1e2"/>
      <stop offset="0.903" stop-color="#ebedf4"/>
      <stop offset="0.934" stop-color="#f7f8fc"/>
      <stop offset="1" stop-color="#f5f6fb"/>
    </radialGradient>
    <radialGradient id="radial-gradient-4" cx="0.5" cy="0.5" r="0.903" gradientTransform="translate(0.223 0.811) scale(0.554 0.553)" gradientUnits="objectBoundingBox">
      <stop offset="0.182" stop-color="#6672a5"/>
      <stop offset="0.212" stop-color="#7883b0"/>
      <stop offset="0.255" stop-color="#8d95bc"/>
      <stop offset="0.297" stop-color="#99a1c3"/>
      <stop offset="0.338" stop-color="#9ea5c6"/>
      <stop offset="0.495" stop-color="#a1a7c7"/>
      <stop offset="0.616" stop-color="#aab0cd"/>
      <stop offset="0.725" stop-color="#bbc0d7"/>
      <stop offset="0.827" stop-color="#d2d5e5"/>
      <stop offset="0.924" stop-color="#f0f1f7"/>
      <stop offset="0.934" stop-color="#f4f5fa"/>
      <stop offset="1" stop-color="#f0f2f8"/>
    </radialGradient>
    <radialGradient id="radial-gradient-5" cx="0.5" cy="0.5" r="0.903" gradientTransform="translate(0.223 0.819) scale(0.554 0.553)" gradientUnits="objectBoundingBox">
      <stop offset="0.182" stop-color="#6f79aa"/>
      <stop offset="0.208" stop-color="#7e87b3"/>
      <stop offset="0.252" stop-color="#939abf"/>
      <stop offset="0.296" stop-color="#9fa6c6"/>
      <stop offset="0.338" stop-color="#a4aac9"/>
      <stop offset="0.503" stop-color="#a7acca"/>
      <stop offset="0.63" stop-color="#b0b6d0"/>
      <stop offset="0.745" stop-color="#c1c5db"/>
      <stop offset="0.852" stop-color="#d8dae9"/>
      <stop offset="0.934" stop-color="#f0f1f8"/>
      <stop offset="1" stop-color="#ebedf6"/>
    </radialGradient>
    <radialGradient id="radial-gradient-6" cx="0.5" cy="0.5" r="0.903" gradientTransform="translate(0.223 0.827) scale(0.554 0.553)" gradientUnits="objectBoundingBox">
      <stop offset="0.182" stop-color="#7781af"/>
      <stop offset="0.204" stop-color="#838cb6"/>
      <stop offset="0.25" stop-color="#989fc2"/>
      <stop offset="0.295" stop-color="#a4abc9"/>
      <stop offset="0.338" stop-color="#a9afcc"/>
      <stop offset="0.511" stop-color="#acb1cd"/>
      <stop offset="0.645" stop-color="#b5bbd4"/>
      <stop offset="0.766" stop-color="#c6cade"/>
      <stop offset="0.878" stop-color="#dde0ec"/>
      <stop offset="0.934" stop-color="#eceef6"/>
      <stop offset="1" stop-color="#e6e9f4"/>
    </radialGradient>
    <radialGradient id="radial-gradient-7" cx="0.5" cy="0.5" r="0.903" gradientTransform="translate(0.223 0.835) scale(0.554 0.553)" gradientUnits="objectBoundingBox">
      <stop offset="0.182" stop-color="#8089b4"/>
      <stop offset="0.198" stop-color="#8891b9"/>
      <stop offset="0.246" stop-color="#9da4c5"/>
      <stop offset="0.293" stop-color="#a9b0cc"/>
      <stop offset="0.338" stop-color="#aeb4cf"/>
      <stop offset="0.522" stop-color="#b1b6d1"/>
      <stop offset="0.663" stop-color="#babfd7"/>
      <stop offset="0.791" stop-color="#cbcfe2"/>
      <stop offset="0.91" stop-color="#e2e4f1"/>
      <stop offset="0.934" stop-color="#e8eaf5"/>
      <stop offset="1" stop-color="#e2e4f2"/>
    </radialGradient>
    <radialGradient id="radial-gradient-8" cx="0.5" cy="0.5" r="0.903" gradientTransform="translate(0.223 0.843) scale(0.554 0.553)" gradientUnits="objectBoundingBox">
      <stop offset="0.182" stop-color="#8891b9"/>
      <stop offset="0.195" stop-color="#8e97bc"/>
      <stop offset="0.244" stop-color="#a3a9c8"/>
      <stop offset="0.292" stop-color="#afb5cf"/>
      <stop offset="0.338" stop-color="#b4b9d2"/>
      <stop offset="0.534" stop-color="#b7bbd4"/>
      <stop offset="0.686" stop-color="#c0c5da"/>
      <stop offset="0.823" stop-color="#d1d4e5"/>
      <stop offset="0.934" stop-color="#e5e7f3"/>
      <stop offset="1" stop-color="#dde0ef"/>
    </radialGradient>
    <radialGradient id="radial-gradient-9" cx="0.5" cy="0.5" r="0.903" gradientTransform="translate(0.223 0.851) scale(0.554 0.553)" gradientUnits="objectBoundingBox">
      <stop offset="0.182" stop-color="#9199be"/>
      <stop offset="0.188" stop-color="#939bbf"/>
      <stop offset="0.239" stop-color="#a8aecc"/>
      <stop offset="0.289" stop-color="#b4bad3"/>
      <stop offset="0.338" stop-color="#b9bed6"/>
      <stop offset="0.551" stop-color="#bcc0d8"/>
      <stop offset="0.716" stop-color="#c5cade"/>
      <stop offset="0.864" stop-color="#d6d9e9"/>
      <stop offset="0.934" stop-color="#e1e4f1"/>
      <stop offset="1" stop-color="#d8dced"/>
    </radialGradient>
    <radialGradient id="radial-gradient-10" cx="0.5" cy="0.5" r="0.903" gradientTransform="translate(0.223 0.86) scale(0.554 0.553)" gradientUnits="objectBoundingBox">
      <stop offset="0.182" stop-color="#99a1c3"/>
      <stop offset="0.235" stop-color="#adb3cf"/>
      <stop offset="0.287" stop-color="#b9bfd6"/>
      <stop offset="0.338" stop-color="#bec3d9"/>
      <stop offset="0.574" stop-color="#c1c5db"/>
      <stop offset="0.756" stop-color="#cacee2"/>
      <stop offset="0.92" stop-color="#dbdeee"/>
      <stop offset="0.934" stop-color="#dde0f0"/>
      <stop offset="1" stop-color="#d3d7eb"/>
    </radialGradient>
    <radialGradient id="radial-gradient-11" cx="0.5" cy="0.5" r="0.903" gradientTransform="translate(0.223 0.869) scale(0.554 0.553)" gradientUnits="objectBoundingBox">
      <stop offset="0.182" stop-color="#a2a9c8"/>
      <stop offset="0.23" stop-color="#b3b8d2"/>
      <stop offset="0.285" stop-color="#bfc4d9"/>
      <stop offset="0.338" stop-color="#c4c8dc"/>
      <stop offset="0.614" stop-color="#c7cbde"/>
      <stop offset="0.827" stop-color="#d0d4e6"/>
      <stop offset="0.934" stop-color="#d9ddee"/>
      <stop offset="1" stop-color="#ced3e9"/>
    </radialGradient>
    <radialGradient id="radial-gradient-12" cx="0.5" cy="0.5" r="0.903" gradientTransform="translate(0.223 0.878) scale(0.554 0.553)" gradientUnits="objectBoundingBox">
      <stop offset="0.182" stop-color="#aab0cd"/>
      <stop offset="0.225" stop-color="#b8bdd5"/>
      <stop offset="0.283" stop-color="#c4c9dc"/>
      <stop offset="0.338" stop-color="#c9cddf"/>
      <stop offset="0.673" stop-color="#cccfe2"/>
      <stop offset="0.931" stop-color="#d5d8eb"/>
      <stop offset="0.934" stop-color="#d6d9ec"/>
      <stop offset="1" stop-color="#c9cee6"/>
    </radialGradient>
    <radialGradient id="radial-gradient-13" cx="0.5" cy="0.5" r="0.903" gradientTransform="translate(0.223 0.888) scale(0.554 0.553)" gradientUnits="objectBoundingBox">
      <stop offset="0.182" stop-color="#b3b8d2"/>
      <stop offset="0.219" stop-color="#bec2d8"/>
      <stop offset="0.28" stop-color="#cacedf"/>
      <stop offset="0.338" stop-color="#cfd2e2"/>
      <stop offset="0.745" stop-color="#d0d3e5"/>
      <stop offset="0.934" stop-color="#d2d6ea"/>
      <stop offset="1" stop-color="#c4cae4"/>
    </radialGradient>
    <radialGradient id="radial-gradient-14" cx="0.5" cy="0.5" r="0.903" gradientTransform="translate(0.223 0.898) scale(0.554 0.553)" gradientUnits="objectBoundingBox">
      <stop offset="0.182" stop-color="#bbc0d7"/>
      <stop offset="0.212" stop-color="#c3c7db"/>
      <stop offset="0.276" stop-color="#cfd3e2"/>
      <stop offset="0.338" stop-color="#d4d7e5"/>
      <stop offset="0.795" stop-color="#d0d4e7"/>
      <stop offset="0.934" stop-color="#ced2e9"/>
      <stop offset="1" stop-color="#bfc5e2"/>
    </radialGradient>
    <radialGradient id="radial-gradient-15" cx="0.5" cy="0.5" r="0.903" gradientTransform="translate(0.223 0.908) scale(0.554 0.553)" gradientUnits="objectBoundingBox">
      <stop offset="0.182" stop-color="#c4c8dc"/>
      <stop offset="0.2" stop-color="#c8ccde"/>
      <stop offset="0.27" stop-color="#d4d8e6"/>
      <stop offset="0.338" stop-color="#d9dce9"/>
      <stop offset="0.654" stop-color="#d5d9e8"/>
      <stop offset="0.898" stop-color="#ccd0e7"/>
      <stop offset="0.934" stop-color="#cacfe7"/>
      <stop offset="1" stop-color="#bac1e0"/>
    </radialGradient>
    <radialGradient id="radial-gradient-16" cx="0.5" cy="0.5" r="0.903" gradientTransform="translate(0.223 0.918) scale(0.554 0.553)" gradientUnits="objectBoundingBox">
      <stop offset="0.182" stop-color="#ccd0e1"/>
      <stop offset="0.193" stop-color="#ced2e2"/>
      <stop offset="0.267" stop-color="#dadde9"/>
      <stop offset="0.338" stop-color="#dfe1ec"/>
      <stop offset="0.6" stop-color="#dbdeeb"/>
      <stop offset="0.802" stop-color="#d2d5e8"/>
      <stop offset="0.934" stop-color="#c7cce5"/>
      <stop offset="1" stop-color="#b5bddd"/>
    </radialGradient>
    <radialGradient id="radial-gradient-17" cx="0.5" cy="0.5" r="0.903" gradientTransform="translate(0.223 0.929) scale(0.554 0.553)" gradientUnits="objectBoundingBox">
      <stop offset="0.182" stop-color="#d5d8e6"/>
      <stop offset="0.257" stop-color="#dfe2ec"/>
      <stop offset="0.338" stop-color="#e4e6ef"/>
      <stop offset="0.568" stop-color="#e0e3ed"/>
      <stop offset="0.746" stop-color="#d7daea"/>
      <stop offset="0.906" stop-color="#c6cbe5"/>
      <stop offset="0.934" stop-color="#c3c8e4"/>
      <stop offset="1" stop-color="#b1b8db"/>
    </radialGradient>
    <radialGradient id="radial-gradient-18" cx="0.5" cy="0.5" r="0.903" gradientTransform="translate(0.223 0.94) scale(0.554 0.553)" gradientUnits="objectBoundingBox">
      <stop offset="0.182" stop-color="#dde0eb"/>
      <stop offset="0.248" stop-color="#e4e7ef"/>
      <stop offset="0.338" stop-color="#e9ebf2"/>
      <stop offset="0.547" stop-color="#e5e8f0"/>
      <stop offset="0.708" stop-color="#dcdfed"/>
      <stop offset="0.854" stop-color="#cbd0e6"/>
      <stop offset="0.934" stop-color="#bfc5e2"/>
      <stop offset="1" stop-color="#acb4d9"/>
    </radialGradient>
    <radialGradient id="radial-gradient-19" cx="0.5" cy="0.5" r="0.903" gradientTransform="translate(0.223 0.951) scale(0.554 0.553)" gradientUnits="objectBoundingBox">
      <stop offset="0.182" stop-color="#e6e7f0"/>
      <stop offset="0.233" stop-color="#eaebf2"/>
      <stop offset="0.338" stop-color="#eff0f5"/>
      <stop offset="0.53" stop-color="#ebedf3"/>
      <stop offset="0.678" stop-color="#e2e4ef"/>
      <stop offset="0.811" stop-color="#d1d5e9"/>
      <stop offset="0.934" stop-color="#bbc1e0"/>
      <stop offset="1" stop-color="#a7afd7"/>
    </radialGradient>
    <radialGradient id="radial-gradient-20" cx="0.5" cy="0.5" r="0.903" gradientTransform="translate(0.223 0.963) scale(0.554 0.553)" gradientUnits="objectBoundingBox">
      <stop offset="0.182" stop-color="#eeeff5"/>
      <stop offset="0.209" stop-color="#eff0f6"/>
      <stop offset="0.338" stop-color="#f4f5f9"/>
      <stop offset="0.519" stop-color="#f0f2f7"/>
      <stop offset="0.659" stop-color="#e7e9f3"/>
      <stop offset="0.785" stop-color="#d6daeb"/>
      <stop offset="0.903" stop-color="#bfc4e1"/>
      <stop offset="0.934" stop-color="#b8bede"/>
      <stop offset="1" stop-color="#a2abd4"/>
    </radialGradient>
    <radialGradient id="radial-gradient-21" cx="0.5" cy="0.5" r="0.903" gradientTransform="translate(0.223 0.976) scale(0.554 0.553)" gradientUnits="objectBoundingBox">
      <stop offset="0.182" stop-color="#f7f7fa"/>
      <stop offset="0.338" stop-color="#fafafc"/>
      <stop offset="0.508" stop-color="#f6f7fa"/>
      <stop offset="0.64" stop-color="#edeef6"/>
      <stop offset="0.758" stop-color="#dcdfef"/>
      <stop offset="0.869" stop-color="#c5cae4"/>
      <stop offset="0.934" stop-color="#b4badd"/>
      <stop offset="1" stop-color="#9da6d2"/>
    </radialGradient>
    <radialGradient id="radial-gradient-22" cx="0.5" cy="0.5" r="0.903" gradientTransform="translate(0.223 0.988) scale(0.554 0.553)" gradientUnits="objectBoundingBox">
      <stop offset="0.338" stop-color="#fff"/>
      <stop offset="0.5" stop-color="#fbfcfd"/>
      <stop offset="0.625" stop-color="#f2f3f9"/>
      <stop offset="0.738" stop-color="#e1e4f1"/>
      <stop offset="0.843" stop-color="#cacfe7"/>
      <stop offset="0.943" stop-color="#acb4d9"/>
      <stop offset="1" stop-color="#98a2d0"/>
    </radialGradient>
    <radialGradient id="radial-gradient-23" cx="0.5" cy="0.5" r="0.903" gradientTransform="translate(0.223 0.543) scale(0.554 0.553)" xlink:href="#radial-gradient"/>
    <radialGradient id="radial-gradient-24" cx="0.5" cy="0.5" r="0.903" gradientTransform="translate(0.223 0.547) scale(0.554 0.553)" xlink:href="#radial-gradient-2"/>
    <radialGradient id="radial-gradient-25" cx="0.5" cy="0.5" r="0.903" gradientTransform="translate(0.223 0.551) scale(0.554 0.553)" xlink:href="#radial-gradient-3"/>
    <radialGradient id="radial-gradient-26" cx="0.5" cy="0.5" r="0.903" gradientTransform="translate(0.223 0.555) scale(0.554 0.553)" xlink:href="#radial-gradient-4"/>
    <radialGradient id="radial-gradient-27" cx="0.5" cy="0.5" r="0.903" gradientTransform="translate(0.223 0.559) scale(0.554 0.553)" xlink:href="#radial-gradient-5"/>
    <radialGradient id="radial-gradient-28" cx="0.5" r="0.903" gradientTransform="translate(0.223 0.563) scale(0.554 0.553)" xlink:href="#radial-gradient-6"/>
    <radialGradient id="radial-gradient-29" cx="0.5" cy="0.5" r="0.903" gradientTransform="translate(0.223 0.568) scale(0.554 0.553)" xlink:href="#radial-gradient-7"/>
    <radialGradient id="radial-gradient-30" cx="0.5" cy="0.5" r="0.903" gradientTransform="translate(0.223 0.572) scale(0.554 0.553)" xlink:href="#radial-gradient-8"/>
    <radialGradient id="radial-gradient-31" cx="0.5" cy="0.5" r="0.903" gradientTransform="translate(0.223 0.577) scale(0.554 0.553)" xlink:href="#radial-gradient-9"/>
    <radialGradient id="radial-gradient-32" cy="0.5" r="0.903" gradientTransform="translate(0.223 0.582) scale(0.554 0.553)" xlink:href="#radial-gradient-10"/>
    <radialGradient id="radial-gradient-33" cy="0.5" r="0.903" gradientTransform="translate(0.223 0.586) scale(0.554 0.553)" xlink:href="#radial-gradient-11"/>
    <radialGradient id="radial-gradient-34" cx="0.5" cy="0.5" r="0.903" gradientTransform="translate(0.223 0.592) scale(0.554 0.553)" xlink:href="#radial-gradient-12"/>
    <radialGradient id="radial-gradient-35" cx="0.5" cy="0.5" r="0.903" gradientTransform="translate(0.223 0.597) scale(0.554 0.553)" xlink:href="#radial-gradient-13"/>
    <radialGradient id="radial-gradient-36" cx="0.5" cy="0.5" r="0.903" gradientTransform="translate(0.223 0.602) scale(0.554 0.553)" xlink:href="#radial-gradient-14"/>
    <radialGradient id="radial-gradient-37" r="0.903" gradientTransform="translate(0.223 0.608) scale(0.554 0.553)" xlink:href="#radial-gradient-15"/>
    <radialGradient id="radial-gradient-38" cx="0.5" cy="0.5" r="0.903" gradientTransform="translate(0.223 0.613) scale(0.554 0.553)" xlink:href="#radial-gradient-16"/>
    <radialGradient id="radial-gradient-39" cx="0.5" cy="0.5" r="0.903" gradientTransform="translate(0.223 0.619) scale(0.554 0.553)" xlink:href="#radial-gradient-17"/>
    <radialGradient id="radial-gradient-40" cx="0.5" cy="0.5" r="0.903" gradientTransform="translate(0.223 0.625) scale(0.554 0.553)" xlink:href="#radial-gradient-18"/>
    <radialGradient id="radial-gradient-41" cx="0.5" cy="0.5" r="0.903" gradientTransform="translate(0.223 0.631) scale(0.554 0.553)" xlink:href="#radial-gradient-19"/>
    <radialGradient id="radial-gradient-42" cx="0.5" cy="0.5" r="0.903" gradientTransform="translate(0.223 0.638) scale(0.554 0.553)" xlink:href="#radial-gradient-20"/>
    <radialGradient id="radial-gradient-43" cx="0.5" cy="0.5" r="0.903" gradientTransform="translate(0.223 0.645) scale(0.554 0.553)" xlink:href="#radial-gradient-21"/>
    <radialGradient id="radial-gradient-44" cx="0.5" r="0.903" gradientTransform="translate(0.223 0.651) scale(0.554 0.553)" xlink:href="#radial-gradient-22"/>
    <linearGradient id="linear-gradient" x1="1.228" y1="0.5" x2="0.085" y2="0.5" gradientUnits="objectBoundingBox">
      <stop offset="0" stop-color="#b9bfea"/>
      <stop offset="0.247" stop-color="#e5e9ff"/>
      <stop offset="0.702" stop-color="#afb6e5"/>
      <stop offset="0.946" stop-color="#b9c0ea"/>
      <stop offset="1" stop-color="#bdc3ec"/>
    </linearGradient>
    <linearGradient id="linear-gradient-2" x1="0.1" y1="-1.079" x2="0.941" y2="2.24" gradientUnits="objectBoundingBox">
      <stop offset="0" stop-color="#afb6e5"/>
      <stop offset="0.145" stop-color="#b5bce8"/>
      <stop offset="0.349" stop-color="#c7cdf0"/>
      <stop offset="0.581" stop-color="#e5e9ff"/>
      <stop offset="0.855" stop-color="#f4f6ff"/>
      <stop offset="1" stop-color="#fff"/>
    </linearGradient>
    <linearGradient id="linear-gradient-3" x1="-2.57" y1="-3.282" x2="6.596" y2="8.011" xlink:href="#linear-gradient-2"/>
    <linearGradient id="linear-gradient-4" x1="-0.074" y1="0.015" x2="1.806" y2="1.605" xlink:href="#linear-gradient-2"/>
    <linearGradient id="linear-gradient-5" x1="-2.568" y1="0.5" x2="1.028" y2="0.5" xlink:href="#linear-gradient"/>
    <linearGradient id="linear-gradient-6" x1="-0.607" y1="-1.506" x2="1.005" y2="1.418" xlink:href="#linear-gradient-2"/>
    <linearGradient id="linear-gradient-7" x1="5.994" y1="0.5" x2="-0.228" y2="0.5" xlink:href="#linear-gradient"/>
    <linearGradient id="linear-gradient-8" x1="-0.104" y1="0.5" x2="2.925" y2="0.5" xlink:href="#linear-gradient"/>
    <linearGradient id="linear-gradient-9" x1="-0.065" y1="-0.295" x2="1.655" y2="2.125" xlink:href="#linear-gradient-2"/>
    <linearGradient id="linear-gradient-10" x1="1.236" y1="0.5" x2="-6.771" y2="0.5" xlink:href="#linear-gradient"/>
    <linearGradient id="linear-gradient-11" x1="-0.039" y1="0.5" x2="5.515" y2="0.5" xlink:href="#linear-gradient"/>
    <linearGradient id="linear-gradient-12" x1="-0.324" y1="0.5" x2="1.209" y2="0.5" xlink:href="#linear-gradient"/>
    <linearGradient id="linear-gradient-13" x1="4.009" y1="0.563" x2="55.499" y2="1.494" xlink:href="#linear-gradient-2"/>
    <linearGradient id="linear-gradient-14" x1="-0.265" y1="0.5" x2="1.231" y2="0.5" xlink:href="#linear-gradient"/>
    <linearGradient id="linear-gradient-15" x1="1.379" y1="-1.78" x2="-0.119" y2="1.948" xlink:href="#linear-gradient-2"/>
    <linearGradient id="linear-gradient-16" x1="0.005" y1="0.203" x2="1.109" y2="1.128" gradientUnits="objectBoundingBox">
      <stop offset="0" stop-color="#ffe585"/>
      <stop offset="0.5" stop-color="#b4f759"/>
      <stop offset="0.567" stop-color="#abf65d"/>
      <stop offset="0.676" stop-color="#93f36a"/>
      <stop offset="0.813" stop-color="#6bef80"/>
      <stop offset="0.971" stop-color="#35ea9d"/>
      <stop offset="1" stop-color="#2be9a3"/>
    </linearGradient>
    <linearGradient id="linear-gradient-17" x1="3.293" y1="-0.988" x2="0.323" y2="0.698" xlink:href="#linear-gradient-2"/>
    <linearGradient id="linear-gradient-18" x1="0.881" y1="1.184" x2="0.24" y2="-0.075" gradientUnits="objectBoundingBox">
      <stop offset="0.005" stop-color="#ff4572"/>
      <stop offset="0.229" stop-color="#ff6870"/>
      <stop offset="0.525" stop-color="#ff9e6e"/>
      <stop offset="0.628" stop-color="#ffa670"/>
      <stop offset="0.795" stop-color="#ffbe78"/>
      <stop offset="1" stop-color="#ffe585"/>
    </linearGradient>
    <linearGradient id="linear-gradient-20" x1="1.919" y1="-2.287" x2="0.268" y2="1.21" xlink:href="#linear-gradient-2"/>
    <linearGradient id="linear-gradient-21" x1="2.624" y1="1.43" x2="0.141" y2="0.342" gradientUnits="objectBoundingBox">
      <stop offset="0.005" stop-color="#bb6df3"/>
      <stop offset="0.348" stop-color="#de6ddf"/>
      <stop offset="0.525" stop-color="#f36dd4"/>
      <stop offset="0.607" stop-color="#f469cb"/>
      <stop offset="0.738" stop-color="#f75fb3"/>
      <stop offset="0.904" stop-color="#fb4f8c"/>
      <stop offset="1" stop-color="#ff4572"/>
    </linearGradient>
    <radialGradient id="radial-gradient-45" cx="1.17" cy="0.763" r="1.692" gradientTransform="translate(0.27) scale(0.46 1)" gradientUnits="objectBoundingBox">
      <stop offset="0" stop-color="#f36dd4"/>
      <stop offset="0.114" stop-color="#bc54a4"/>
      <stop offset="0.235" stop-color="#8b3e79"/>
      <stop offset="0.358" stop-color="#602b54"/>
      <stop offset="0.482" stop-color="#3d1b35"/>
      <stop offset="0.608" stop-color="#220f1e"/>
      <stop offset="0.735" stop-color="#0f060d"/>
      <stop offset="0.864" stop-color="#030103"/>
      <stop offset="1"/>
    </radialGradient>
    <linearGradient id="linear-gradient-22" x1="-1.148" y1="-3.201" x2="1.227" y2="2.295" xlink:href="#linear-gradient-2"/>
    <linearGradient id="linear-gradient-23" x1="1.04" y1="0.741" x2="-1.46" y2="-0.369" xlink:href="#linear-gradient-21"/>
    <linearGradient id="linear-gradient-24" x1="0.912" y1="0.5" x2="-0.17" y2="0.5" xlink:href="#linear-gradient"/>
    <linearGradient id="linear-gradient-25" x1="-0.221" y1="-0.498" x2="1.725" y2="2.201" xlink:href="#linear-gradient-2"/>
    <linearGradient id="linear-gradient-26" x1="-3.344" y1="-1.676" x2="0.856" y2="0.817" xlink:href="#linear-gradient-2"/>
    <linearGradient id="linear-gradient-27" x1="0.599" y1="1.044" x2="0.273" y2="-0.037" gradientUnits="objectBoundingBox">
      <stop offset="0.005" stop-color="#5277f7"/>
      <stop offset="0.393" stop-color="#756ff4"/>
      <stop offset="0.525" stop-color="#836df3"/>
      <stop offset="0.648" stop-color="#8b6df3"/>
      <stop offset="0.846" stop-color="#a36df3"/>
      <stop offset="1" stop-color="#bb6df3"/>
    </linearGradient>
    <radialGradient id="radial-gradient-46" cx="1.05" cy="-0.043" r="1.123" gradientTransform="translate(0.188) scale(0.624 1)" gradientUnits="objectBoundingBox">
      <stop offset="0" stop-color="#bb6df3"/>
      <stop offset="0.114" stop-color="#9154bc"/>
      <stop offset="0.235" stop-color="#6b3e8b"/>
      <stop offset="0.358" stop-color="#4a2b60"/>
      <stop offset="0.482" stop-color="#2f1b3d"/>
      <stop offset="0.608" stop-color="#1a0f22"/>
      <stop offset="0.735" stop-color="#0b060f"/>
      <stop offset="0.864" stop-color="#020103"/>
      <stop offset="1"/>
    </radialGradient>
    <linearGradient id="linear-gradient-28" x1="1.348" y1="0.5" x2="-7.454" y2="0.5" gradientUnits="objectBoundingBox">
      <stop offset="0.01" stop-color="#e5e9ff"/>
      <stop offset="0.113" stop-color="#eff1ff"/>
      <stop offset="0.222" stop-color="#fff"/>
      <stop offset="0.287" stop-color="#f5f6ff"/>
      <stop offset="0.359" stop-color="#e5e9ff"/>
      <stop offset="0.388" stop-color="#dadffa"/>
      <stop offset="0.471" stop-color="#c2c8ee"/>
      <stop offset="0.547" stop-color="#b4bae7"/>
      <stop offset="0.611" stop-color="#afb6e5"/>
      <stop offset="0.723" stop-color="#b9c0ea"/>
      <stop offset="0.918" stop-color="#d6dbf8"/>
      <stop offset="1" stop-color="#e5e9ff"/>
    </linearGradient>
    <linearGradient id="linear-gradient-29" x1="1.785" y1="0.041" x2="-0.731" y2="0.82" xlink:href="#linear-gradient-2"/>
    <linearGradient id="linear-gradient-30" x1="0.028" y1="0.013" x2="1.018" y2="0.967" gradientUnits="objectBoundingBox">
      <stop offset="0.005" stop-color="#2be9a3"/>
      <stop offset="0.443" stop-color="#07ccbf"/>
      <stop offset="0.525" stop-color="#00c7c5"/>
      <stop offset="0.604" stop-color="#08c7ca"/>
      <stop offset="0.732" stop-color="#20c8d7"/>
      <stop offset="0.893" stop-color="#47caed"/>
      <stop offset="1" stop-color="#6cf"/>
    </linearGradient>
    <radialGradient id="radial-gradient-47" cx="-0.207" cy="0.102" r="0.476" gradientTransform="translate(-0.56) scale(2.121 1)" gradientUnits="objectBoundingBox">
      <stop offset="0" stop-color="#00c7c5"/>
      <stop offset="0.025" stop-color="#00bcba"/>
      <stop offset="0.158" stop-color="#008b89"/>
      <stop offset="0.294" stop-color="#00605f"/>
      <stop offset="0.43" stop-color="#003d3c"/>
      <stop offset="0.568" stop-color="#022"/>
      <stop offset="0.708" stop-color="#000f0f"/>
      <stop offset="0.85" stop-color="#000303"/>
      <stop offset="1"/>
    </radialGradient>
    <linearGradient id="linear-gradient-31" x1="-1.151" y1="-3.55" x2="0.835" y2="1.459" xlink:href="#linear-gradient-2"/>
    <linearGradient id="linear-gradient-32" x1="-0.312" y1="-1.21" x2="0.883" y2="1.424" gradientUnits="objectBoundingBox">
      <stop offset="0.005" stop-color="#00c7c5"/>
      <stop offset="0.203" stop-color="#23c8d9"/>
      <stop offset="0.525" stop-color="#6cf"/>
      <stop offset="0.615" stop-color="#63c3fe"/>
      <stop offset="0.762" stop-color="#5eabfb"/>
      <stop offset="0.945" stop-color="#5584f8"/>
      <stop offset="1" stop-color="#5277f7"/>
    </linearGradient>
    <linearGradient id="linear-gradient-33" x1="-15.267" y1="0.48" x2="20.81" y2="0.526" xlink:href="#linear-gradient-16"/>
    <linearGradient id="linear-gradient-34" x1="0.015" y1="-0.035" x2="1.119" y2="1.845" xlink:href="#linear-gradient-16"/>
    <linearGradient id="linear-gradient-35" x1="0.535" y1="0.861" x2="0.296" y2="0.002" xlink:href="#linear-gradient-18"/>
    <linearGradient id="linear-gradient-36" x1="1.407" y1="1.1" x2="-0.159" y2="-0.124" xlink:href="#linear-gradient-18"/>
    <linearGradient id="linear-gradient-37" x1="2.626" y1="2.782" x2="0.131" y2="0.297" xlink:href="#linear-gradient-21"/>
    <linearGradient id="linear-gradient-38" x1="2.585" y1="1.649" x2="0.144" y2="0.25" xlink:href="#linear-gradient-21"/>
    <linearGradient id="linear-gradient-40" x1="0.716" y1="1.088" x2="0.292" y2="-0.133" xlink:href="#linear-gradient-27"/>
    <linearGradient id="linear-gradient-41" x1="0.551" y1="1.313" x2="0.488" y2="0.11" xlink:href="#linear-gradient-27"/>
    <linearGradient id="linear-gradient-42" x1="0.748" y1="0.968" x2="0.233" y2="-0.001" xlink:href="#linear-gradient-27"/>
    <linearGradient id="linear-gradient-43" x1="0.077" y1="0.001" x2="0.814" y2="1.083" xlink:href="#linear-gradient-30"/>
    <linearGradient id="linear-gradient-44" x1="0.332" y1="-0.197" x2="0.707" y2="1.243" xlink:href="#linear-gradient-30"/>
    <linearGradient id="linear-gradient-45" x1="-4.998" y1="0.093" x2="6.489" y2="0.944" xlink:href="#linear-gradient-30"/>
    <linearGradient id="linear-gradient-46" x1="-27.34" y1="0.087" x2="30.888" y2="0.95" xlink:href="#linear-gradient-30"/>
    <linearGradient id="linear-gradient-47" x1="-0.286" y1="-2.127" x2="0.909" y2="1.913" xlink:href="#linear-gradient-32"/>
    <radialGradient id="radial-gradient-48" cx="-0.07" cy="-0.09" r="1.199" gradientTransform="translate(0.266) scale(0.467 1)" xlink:href="#radial-gradient-46"/>
    <radialGradient id="radial-gradient-49" cx="0.96" cy="-0.746" r="1.77" gradientTransform="translate(0.331) scale(0.339 1)" xlink:href="#radial-gradient-47"/>
    <radialGradient id="radial-gradient-50" cx="0.5" cy="0.5" r="0.455" gradientTransform="translate(-0.117) scale(1.234 1)" gradientUnits="objectBoundingBox">
      <stop offset="0" stop-color="#fff"/>
      <stop offset="1"/>
    </radialGradient>
    <radialGradient id="radial-gradient-51" cx="0.5" cy="0.5" r="5.392" gradientTransform="translate(0.467) scale(0.066 1)" xlink:href="#radial-gradient-50"/>
    <radialGradient id="radial-gradient-52" cx="0.5" cy="0.5" r="0.354" gradientTransform="translate(-86.842) scale(174.683 1)" xlink:href="#radial-gradient-50"/>
    <radialGradient id="radial-gradient-53" cx="0.5" cy="0.5" r="0.431" gradientTransform="translate(-0.216) scale(1.433 1)" xlink:href="#radial-gradient-50"/>
    <radialGradient id="radial-gradient-54" cx="0.5" cy="0.5" r="0.377" gradientTransform="translate(-0.842) scale(2.685 1)" xlink:href="#radial-gradient-50"/>
    <radialGradient id="radial-gradient-55" cx="0.502" cy="0.5" r="0.354" gradientTransform="translate(-86.848) scale(174.697 1)" xlink:href="#radial-gradient-50"/>
    <radialGradient id="radial-gradient-56" cx="0.5" cy="0.5" r="5.104" gradientTransform="translate(0.465) scale(0.069 1)" xlink:href="#radial-gradient-50"/>
    <radialGradient id="radial-gradient-57" cx="0.5" cy="0.5" r="1.492" gradientTransform="translate(0.378) scale(0.244 1)" xlink:href="#radial-gradient-50"/>
    <radialGradient id="radial-gradient-58" cx="0.5" cy="0.5" r="1.537" gradientTransform="translate(0.382) scale(0.236 1)" xlink:href="#radial-gradient-50"/>
    <radialGradient id="radial-gradient-59" cx="0.5" cy="0.5" r="0.647" gradientTransform="translate(0.174) scale(0.652 1)" xlink:href="#radial-gradient-50"/>
    <radialGradient id="radial-gradient-60" cx="0.5" cy="0.5" r="4.635" gradientTransform="translate(0.462) scale(0.077 1)" xlink:href="#radial-gradient-50"/>
    <radialGradient id="radial-gradient-61" cx="0.5" cy="0.5" r="0.666" gradientTransform="translate(0.187) scale(0.627 1)" xlink:href="#radial-gradient-50"/>
    <radialGradient id="radial-gradient-62" cx="0.5" cy="0.5" r="0.458" gradientTransform="translate(-0.107) scale(1.214 1)" xlink:href="#radial-gradient-50"/>
    <radialGradient id="radial-gradient-63" cx="0.5" cy="0.5" r="1.503" gradientTransform="translate(0.379) scale(0.242 1)" xlink:href="#radial-gradient-50"/>
    <radialGradient id="radial-gradient-64" cx="0.5" cy="0.5" r="0.509" gradientTransform="translate(-15.293 -8.807) scale(0.981 0.982)" gradientUnits="objectBoundingBox">
      <stop offset="0" stop-color="#742a97"/>
      <stop offset="0.041" stop-color="#6a268a"/>
      <stop offset="0.194" stop-color="#491a60"/>
      <stop offset="0.35" stop-color="#2f113d"/>
      <stop offset="0.507" stop-color="#1a0922"/>
      <stop offset="0.667" stop-color="#0b040f"/>
      <stop offset="0.829" stop-color="#020103"/>
      <stop offset="1"/>
    </radialGradient>
    <radialGradient id="radial-gradient-65" cx="-0.09" cy="0.387" r="1.03" gradientTransform="translate(0.01) scale(0.98 1)" xlink:href="#radial-gradient-45"/>
    <radialGradient id="radial-gradient-66" cx="0.5" cy="0.5" r="0.287" gradientTransform="translate(17.649 2.589) scale(1.745 1.745)" xlink:href="#radial-gradient-45"/>
    <radialGradient id="radial-gradient-67" cx="0.5" cy="0.5" r="0.302" gradientTransform="translate(-4.006 0.313) scale(1.655 1.655)" gradientUnits="objectBoundingBox">
      <stop offset="0" stop-color="#b4f759"/>
      <stop offset="0.002" stop-color="#b3f658"/>
      <stop offset="0.12" stop-color="#89bd44"/>
      <stop offset="0.241" stop-color="#658b32"/>
      <stop offset="0.363" stop-color="#466022"/>
      <stop offset="0.486" stop-color="#2c3d16"/>
      <stop offset="0.611" stop-color="#19220c"/>
      <stop offset="0.737" stop-color="#0b0f05"/>
      <stop offset="0.865" stop-color="#020301"/>
      <stop offset="1"/>
    </radialGradient>
    <radialGradient id="radial-gradient-68" cx="0.5" cy="0.5" r="0.302" gradientTransform="translate(-3.864 1.18) scale(1.655 1.655)" xlink:href="#radial-gradient-47"/>
  </defs>
  <g id="devops2" transform="translate(-260.392 -92.038)">
    <g id="Group_10205" data-name="Group 10205" transform="translate(443.495 223.554)" opacity="0.5">
      <g id="Group_10204" data-name="Group 10204">
        <ellipse id="Ellipse_538" data-name="Ellipse 538" cx="138.985" cy="76.932" rx="138.985" ry="76.932" opacity="0.5" fill="url(#radial-gradient)" style="mix-blend-mode: multiply;isolation: isolate"/>
        <ellipse id="Ellipse_539" data-name="Ellipse 539" cx="137.214" cy="75.952" rx="137.214" ry="75.952" transform="translate(1.343 0.851)" opacity="0.524" fill="url(#radial-gradient-2)"/>
        <ellipse id="Ellipse_540" data-name="Ellipse 540" cx="135.443" cy="74.972" rx="135.443" ry="74.972" transform="translate(2.685 1.703)" opacity="0.548" fill="url(#radial-gradient-3)"/>
        <ellipse id="Ellipse_541" data-name="Ellipse 541" cx="133.671" cy="73.991" rx="133.671" ry="73.991" transform="translate(4.028 2.554)" opacity="0.571" fill="url(#radial-gradient-4)"/>
        <ellipse id="Ellipse_542" data-name="Ellipse 542" cx="131.9" cy="73.011" rx="131.9" ry="73.011" transform="translate(5.37 3.406)" opacity="0.595" fill="url(#radial-gradient-5)"/>
        <ellipse id="Ellipse_543" data-name="Ellipse 543" cx="130.129" cy="72.03" rx="130.129" ry="72.03" transform="translate(6.713 4.257)" opacity="0.619" fill="url(#radial-gradient-6)"/>
        <ellipse id="Ellipse_544" data-name="Ellipse 544" cx="128.358" cy="71.05" rx="128.358" ry="71.05" transform="translate(8.055 5.109)" opacity="0.643" fill="url(#radial-gradient-7)"/>
        <ellipse id="Ellipse_545" data-name="Ellipse 545" cx="126.587" cy="70.07" rx="126.587" ry="70.07" transform="translate(9.398 5.96)" opacity="0.667" fill="url(#radial-gradient-8)"/>
        <ellipse id="Ellipse_546" data-name="Ellipse 546" cx="124.815" cy="69.089" rx="124.815" ry="69.089" transform="translate(10.74 6.811)" opacity="0.69" fill="url(#radial-gradient-9)"/>
        <ellipse id="Ellipse_547" data-name="Ellipse 547" cx="123.044" cy="68.109" rx="123.044" ry="68.109" transform="translate(12.083 7.663)" opacity="0.714" fill="url(#radial-gradient-10)"/>
        <ellipse id="Ellipse_548" data-name="Ellipse 548" cx="121.273" cy="67.128" rx="121.273" ry="67.128" transform="translate(13.425 8.514)" opacity="0.738" fill="url(#radial-gradient-11)"/>
        <ellipse id="Ellipse_549" data-name="Ellipse 549" cx="119.502" cy="66.148" rx="119.502" ry="66.148" transform="translate(14.768 9.366)" opacity="0.762" fill="url(#radial-gradient-12)"/>
        <ellipse id="Ellipse_550" data-name="Ellipse 550" cx="117.731" cy="65.167" rx="117.731" ry="65.167" transform="translate(16.11 10.217)" opacity="0.786" fill="url(#radial-gradient-13)"/>
        <ellipse id="Ellipse_551" data-name="Ellipse 551" cx="115.96" cy="64.187" rx="115.96" ry="64.187" transform="translate(17.453 11.068)" opacity="0.81" fill="url(#radial-gradient-14)"/>
        <ellipse id="Ellipse_552" data-name="Ellipse 552" cx="114.188" cy="63.207" rx="114.188" ry="63.207" transform="translate(18.795 11.92)" opacity="0.833" fill="url(#radial-gradient-15)"/>
        <ellipse id="Ellipse_553" data-name="Ellipse 553" cx="112.417" cy="62.226" rx="112.417" ry="62.226" transform="translate(20.138 12.771)" opacity="0.857" fill="url(#radial-gradient-16)"/>
        <ellipse id="Ellipse_554" data-name="Ellipse 554" cx="110.646" cy="61.246" rx="110.646" ry="61.246" transform="translate(21.48 13.623)" opacity="0.881" fill="url(#radial-gradient-17)"/>
        <ellipse id="Ellipse_555" data-name="Ellipse 555" cx="108.875" cy="60.265" rx="108.875" ry="60.265" transform="translate(22.823 14.474)" opacity="0.905" fill="url(#radial-gradient-18)"/>
        <ellipse id="Ellipse_556" data-name="Ellipse 556" cx="107.104" cy="59.285" rx="107.104" ry="59.285" transform="translate(24.165 15.326)" opacity="0.929" fill="url(#radial-gradient-19)"/>
        <ellipse id="Ellipse_557" data-name="Ellipse 557" cx="105.332" cy="58.305" rx="105.332" ry="58.305" transform="translate(25.508 16.177)" opacity="0.952" fill="url(#radial-gradient-20)"/>
        <ellipse id="Ellipse_558" data-name="Ellipse 558" cx="103.561" cy="57.324" rx="103.561" ry="57.324" transform="translate(26.85 17.028)" opacity="0.976" fill="url(#radial-gradient-21)"/>
        <ellipse id="Ellipse_559" data-name="Ellipse 559" cx="101.79" cy="56.344" rx="101.79" ry="56.344" transform="translate(28.193 17.88)" fill="url(#radial-gradient-22)"/>
      </g>
    </g>
    <g id="Group_10207" data-name="Group 10207" transform="translate(260.392 118.207)" opacity="0.5">
      <g id="Group_10206" data-name="Group 10206">
        <ellipse id="Ellipse_560" data-name="Ellipse 560" cx="138.985" cy="76.932" rx="138.985" ry="76.932" opacity="0.5" fill="url(#radial-gradient-23)" style="mix-blend-mode: multiply;isolation: isolate"/>
        <ellipse id="Ellipse_561" data-name="Ellipse 561" cx="137.214" cy="75.952" rx="137.214" ry="75.952" transform="translate(1.343 0.851)" opacity="0.524" fill="url(#radial-gradient-24)"/>
        <ellipse id="Ellipse_562" data-name="Ellipse 562" cx="135.443" cy="74.972" rx="135.443" ry="74.972" transform="translate(2.685 1.703)" opacity="0.548" fill="url(#radial-gradient-25)"/>
        <ellipse id="Ellipse_563" data-name="Ellipse 563" cx="133.671" cy="73.991" rx="133.671" ry="73.991" transform="translate(4.028 2.554)" opacity="0.571" fill="url(#radial-gradient-26)"/>
        <ellipse id="Ellipse_564" data-name="Ellipse 564" cx="131.9" cy="73.011" rx="131.9" ry="73.011" transform="translate(5.37 3.406)" opacity="0.595" fill="url(#radial-gradient-27)"/>
        <ellipse id="Ellipse_565" data-name="Ellipse 565" cx="130.129" cy="72.03" rx="130.129" ry="72.03" transform="translate(6.713 4.257)" opacity="0.619" fill="url(#radial-gradient-28)"/>
        <ellipse id="Ellipse_566" data-name="Ellipse 566" cx="128.358" cy="71.05" rx="128.358" ry="71.05" transform="translate(8.055 5.109)" opacity="0.643" fill="url(#radial-gradient-29)"/>
        <ellipse id="Ellipse_567" data-name="Ellipse 567" cx="126.587" cy="70.07" rx="126.587" ry="70.07" transform="translate(9.398 5.96)" opacity="0.667" fill="url(#radial-gradient-30)"/>
        <ellipse id="Ellipse_568" data-name="Ellipse 568" cx="124.815" cy="69.089" rx="124.815" ry="69.089" transform="translate(10.74 6.811)" opacity="0.69" fill="url(#radial-gradient-31)"/>
        <ellipse id="Ellipse_569" data-name="Ellipse 569" cx="123.044" cy="68.109" rx="123.044" ry="68.109" transform="translate(12.083 7.663)" opacity="0.714" fill="url(#radial-gradient-32)"/>
        <ellipse id="Ellipse_570" data-name="Ellipse 570" cx="121.273" cy="67.128" rx="121.273" ry="67.128" transform="translate(13.425 8.514)" opacity="0.738" fill="url(#radial-gradient-33)"/>
        <ellipse id="Ellipse_571" data-name="Ellipse 571" cx="119.502" cy="66.148" rx="119.502" ry="66.148" transform="translate(14.768 9.366)" opacity="0.762" fill="url(#radial-gradient-34)"/>
        <ellipse id="Ellipse_572" data-name="Ellipse 572" cx="117.731" cy="65.167" rx="117.731" ry="65.167" transform="translate(16.11 10.217)" opacity="0.786" fill="url(#radial-gradient-35)"/>
        <ellipse id="Ellipse_573" data-name="Ellipse 573" cx="115.96" cy="64.187" rx="115.96" ry="64.187" transform="translate(17.453 11.068)" opacity="0.81" fill="url(#radial-gradient-36)"/>
        <ellipse id="Ellipse_574" data-name="Ellipse 574" cx="114.188" cy="63.207" rx="114.188" ry="63.207" transform="translate(18.795 11.92)" opacity="0.833" fill="url(#radial-gradient-37)"/>
        <ellipse id="Ellipse_575" data-name="Ellipse 575" cx="112.417" cy="62.226" rx="112.417" ry="62.226" transform="translate(20.138 12.771)" opacity="0.857" fill="url(#radial-gradient-38)"/>
        <ellipse id="Ellipse_576" data-name="Ellipse 576" cx="110.646" cy="61.246" rx="110.646" ry="61.246" transform="translate(21.48 13.623)" opacity="0.881" fill="url(#radial-gradient-39)"/>
        <ellipse id="Ellipse_577" data-name="Ellipse 577" cx="108.875" cy="60.265" rx="108.875" ry="60.265" transform="translate(22.823 14.474)" opacity="0.905" fill="url(#radial-gradient-40)"/>
        <ellipse id="Ellipse_578" data-name="Ellipse 578" cx="107.104" cy="59.285" rx="107.104" ry="59.285" transform="translate(24.165 15.326)" opacity="0.929" fill="url(#radial-gradient-41)"/>
        <ellipse id="Ellipse_579" data-name="Ellipse 579" cx="105.332" cy="58.305" rx="105.332" ry="58.305" transform="translate(25.508 16.177)" opacity="0.952" fill="url(#radial-gradient-42)"/>
        <ellipse id="Ellipse_580" data-name="Ellipse 580" cx="103.561" cy="57.324" rx="103.561" ry="57.324" transform="translate(26.85 17.028)" opacity="0.976" fill="url(#radial-gradient-43)"/>
        <ellipse id="Ellipse_581" data-name="Ellipse 581" cx="101.79" cy="56.344" rx="101.79" ry="56.344" transform="translate(28.193 17.88)" fill="url(#radial-gradient-44)"/>
      </g>
    </g>
    <g id="Group_10208" data-name="Group 10208" transform="translate(318.065 112.103)">
      <path id="Path_14203" data-name="Path 14203" d="M352.066,125.334l-45.687-.083V144.69l45.687.083c22.86-7.88,52.734-6.648,73.988,3.617l-.107-19.487C404.7,118.684,374.889,117.467,352.066,125.334Z" transform="translate(-306.379 -104.942)" fill="url(#linear-gradient)"/>
      <path id="Path_14204" data-name="Path 14204" d="M352.066,124.313l-45.686-.083V143.67l45.686.083Z" transform="translate(-306.379 -103.922)" fill="url(#linear-gradient-2)"/>
      <path id="Path_14205" data-name="Path 14205" d="M404.76,108.037a4.406,4.406,0,0,0-2.162.514,1.516,1.516,0,0,0-.89,1.248l.1,19.005a1.8,1.8,0,0,1,.786-.814,4.406,4.406,0,0,1,2.162-.514l42.235.076V108.113Z" transform="translate(-282.153 -108.037)" fill="url(#linear-gradient-3)"/>
    </g>
    <path id="Path_14206" data-name="Path 14206" d="M456.94,257.331a4.42,4.42,0,0,0-2.162.513,1.518,1.518,0,0,0-.89,1.249l.1,19.005a1.81,1.81,0,0,1,.786-.815,4.42,4.42,0,0,1,2.162-.513l35.849.065V257.4h0Z" transform="translate(49.172 42.005)" fill="url(#linear-gradient-4)"/>
    <path id="Path_14207" data-name="Path 14207" d="M630.745,237.952c-1.208,14.791-10.225,29.384-27.109,41.5l-43.049-.078-.036-6.662c-.036.034-.069.069-.105.1l.142,26,43.049.078c19.551-14.029,28.575-31.376,27.109-48.511Z" transform="translate(76.252 37.081)" fill="url(#linear-gradient-5)"/>
    <path id="Path_14208" data-name="Path 14208" d="M560.558,270.981V290.42h43.049V271.059Z" transform="translate(76.28 45.474)" fill="url(#linear-gradient-6)"/>
    <g id="Group_10209" data-name="Group 10209" transform="translate(271.971 136.015)">
      <path id="Path_14209" data-name="Path 14209" d="M340.5,127.1c-1.25.616-2.478,1.254-3.66,1.936-16.508,9.53-21.829,23.136-16.067,35.449,2.773-5.882,8.115-11.42,16.067-16.01,1.181-.682,2.409-1.321,3.66-1.936V127.1Z" transform="translate(-257.198 -127.104)" fill="url(#linear-gradient-7)"/>
      <path id="Path_14210" data-name="Path 14210" d="M342.954,194.151h-.105l-46.546-.084c-18.332-13.626-27.161-30.124-26.5-46.458l-.177-.076v22.731l.168-.054c.532,15.288,9.361,30.549,26.51,43.3l46.651.084V194.151Z" transform="translate(-269.625 -121.912)" fill="url(#linear-gradient-8)"/>
      <path id="Path_14211" data-name="Path 14211" d="M337.549,184.722h-.106l-46.546-.084v19.439l46.651.084V184.722Z" transform="translate(-264.219 -112.483)" fill="url(#linear-gradient-9)"/>
    </g>
    <g id="Group_10210" data-name="Group 10210" transform="translate(443.882 139.483)">
      <path id="Path_14212" data-name="Path 14212" d="M423.775,152.412c-1.092-8.123-6.782-16.114-17.074-22.543v19.439c9.2,5.745,14.708,12.739,16.558,19.959Z" transform="translate(-406.701 -129.869)" opacity="0.9" fill="url(#linear-gradient-10)"/>
      <path id="Path_14213" data-name="Path 14213" d="M454.367,284.546c-21.827-12.6-33.89-28.708-36.286-45.169l-.451,14.764c.615,18.061,12.846,36.051,36.737,49.844,2.854,1.648,5.823,3.192,8.873,4.648l-.107-19.492C460.121,287.7,457.188,286.175,454.367,284.546Z" transform="translate(-403.924 -102.04)" opacity="0.9" fill="url(#linear-gradient-11)"/>
    </g>
    <path id="Path_14214" data-name="Path 14214" d="M620.484,276.1c-43.832,25.306-112.682,27.635-161.591,7.082v19.439c48.908,20.553,117.759,18.224,161.591-7.082,1.273-.736,2.495-1.49,3.7-2.25V273.854C622.978,274.614,621.757,275.368,620.484,276.1Z" transform="translate(50.445 46.204)" fill="url(#linear-gradient-12)"/>
    <path id="Path_14215" data-name="Path 14215" d="M414.513,197.81V178.371l-1.2,35.387V233.2Z" transform="translate(38.861 21.94)" fill="url(#linear-gradient-13)"/>
    <path id="Path_14216" data-name="Path 14216" d="M443.392,211.448l-40.668.46c-36.392,2.145-74.282-4.874-102.3-21.049-1.91-1.1-3.72-2.241-5.483-3.395h0V206.9c1.763,1.154,3.573,2.291,5.483,3.395,28.017,16.176,65.907,23.194,102.3,21.049l40.668-.46Z" transform="translate(8.78 24.25)" fill="url(#linear-gradient-14)"/>
    <path id="Path_14217" data-name="Path 14217" d="M306.406,132.412l45.687.083c22.86-7.88,52.734-6.648,73.988,3.617l-.122-22.247a1.516,1.516,0,0,1,.89-1.248,4.406,4.406,0,0,1,2.162-.514l42.235.076c-46.031-25.273-116.893-26.8-164.974-4.374Z" transform="translate(11.66 0)" fill="url(#linear-gradient-15)"/>
    <path id="Path_14218" data-name="Path 14218" d="M421.521,129.594a109.227,109.227,0,0,0-70.813-1.625l-41.325-.075-.1-18.436c20.963-9.311,47.131-14.42,74.011-14.42,25.377,0,49.731,4.41,70.259,12.586l-25.3-.046a8.2,8.2,0,0,0-4.053,1.02,5.23,5.23,0,0,0-2.769,4.525Z" transform="translate(12.425 0.762)" opacity="0.95" fill="url(#linear-gradient-16)"/>
    <path id="Path_14219" data-name="Path 14219" d="M342.93,204.44l-.124-23.021c-17.721-14.485-15.649-34.531,6.436-47.282,1.181-.682,2.409-1.321,3.66-1.936l-40.249-.073a4.443,4.443,0,0,1-2.168-.522,1.546,1.546,0,0,1-.9-1.252l-.127-23.307c-1.233.657-2.462,1.316-3.657,2.007-44.756,25.84-47.811,66.839-9.519,95.3Z" transform="translate(2.37 3.814)" fill="url(#linear-gradient-17)"/>
    <path id="Path_14220" data-name="Path 14220" d="M296.779,199.294c-16.376-12.514-24.888-27.822-24-43.215.948-16.386,12.354-31.919,32.183-43.913l.093,16.908a5.266,5.266,0,0,0,2.785,4.49,8.116,8.116,0,0,0,4.043,1.026l27.34.049c-7.638,6.257-12.09,13.814-12.741,21.851-.734,9.055,3.448,18.011,11.806,25.379l.094,17.5Z" transform="translate(3.132 5.115)" opacity="0.95" fill="url(#linear-gradient-18)"/>
    <path id="Path_14221" data-name="Path 14221" d="M296.779,199.294c-16.376-12.514-24.888-27.822-24-43.215.948-16.386,12.354-31.919,32.183-43.913l.093,16.908a5.266,5.266,0,0,0,2.785,4.49,8.116,8.116,0,0,0,4.043,1.026l27.34.049c-7.638,6.257-12.09,13.814-12.741,21.851-.734,9.055,3.448,18.011,11.806,25.379l.094,17.5Z" transform="translate(3.132 5.115)" opacity="0.95" fill="url(#linear-gradient-18)"/>
    <path id="Path_14222" data-name="Path 14222" d="M444.593,180.553l-59.89.678-.087.1c-14.9-.656-29.562-4.288-41.02-10.9-.362-.209-.7-.426-1.053-.64l.11,20.49c.005.977-1.361,1.766-3.053,1.763l-44.66-.082c1.763,1.154,3.573,2.293,5.483,3.395,28.017,16.176,65.906,23.194,102.3,21.049l40.669-.46Z" transform="translate(8.78 19.758)" fill="url(#linear-gradient-20)"/>
    <path id="Path_14223" data-name="Path 14223" d="M387.026,211.732c-30,0-58.345-6.1-80.783-17.271l30.482.054a7.487,7.487,0,0,0,5.323-1.989,5,5,0,0,0,1.5-3.554l-.075-14.135c10.812,5.2,24.131,8.35,38.11,8.966l1.776.079.171-.191,54.3-.615-.947,27.858-37.251.426c-4.167.246-8.405.371-12.6.371Z" transform="translate(11.652 21.041)" opacity="0.95" fill="url(#linear-gradient-21)"/>
    <path id="Path_14224" data-name="Path 14224" d="M343.544,200.378l-.074-13.669a5.036,5.036,0,0,1-1.423,2.8,7.487,7.487,0,0,1-5.323,1.989l-30.482-.054a158.291,158.291,0,0,0,35.848,12.433A4.984,4.984,0,0,0,343.544,200.378Z" transform="translate(11.652 24.058)" fill="url(#radial-gradient-45)" style="mix-blend-mode: screen;isolation: isolate"/>
    <path id="Path_14225" data-name="Path 14225" d="M610.169,195.2c-22.76-11.438-50.963-17.358-79.319-17.755l-57.692.329-1.2,35.386,59.359-.371c13.289.375,26.432,3.137,37.322,8.277l41.672.075Z" transform="translate(53.764 21.704)" fill="url(#linear-gradient-22)"/>
    <path id="Path_14226" data-name="Path 14226" d="M568.685,216.542c-10.965-5.024-24.1-7.883-38.053-8.275l-55.57.345.946-27.859,54.074-.307c27.645.386,54.388,6.177,75.549,16.341l.108,19.823Z" transform="translate(54.554 22.467)" opacity="0.95" fill="url(#linear-gradient-23)"/>
    <path id="Path_14227" data-name="Path 14227" d="M568.643,213.905c-10.888-5.141-24.033-7.9-37.322-8.277L471.938,206l.024,19.443,59.359-.371c13.289.375,26.433,3.137,37.322,8.277l41.672.075-.105-19.439Z" transform="translate(53.76 28.866)" fill="url(#linear-gradient-24)"/>
    <path id="Path_14228" data-name="Path 14228" d="M549.047,231.667l41.672.076-.105-19.439-41.567-.076Z" transform="translate(73.355 30.543)" fill="url(#linear-gradient-25)"/>
    <path id="Path_14229" data-name="Path 14229" d="M595.532,218.66a1.516,1.516,0,0,1-.891,1.248,4.4,4.4,0,0,1-2.162.514l-38.232-.07c19.687,12.278,22.295,30.414,7.773,44.14l.142,26,43.049.078c39.318-28.214,36.1-69.849-9.514-96.187-.1-.056-.2-.108-.3-.163Z" transform="translate(74.677 25.966)" fill="url(#linear-gradient-26)"/>
    <path id="Path_14230" data-name="Path 14230" d="M563.689,285.367l-.112-20.673c6.693-6.855,9.916-15.018,9.1-23.144-.672-6.718-4.048-13.165-9.723-18.782l27.3.05a8.2,8.2,0,0,0,4.051-1.018,5.236,5.236,0,0,0,2.772-4.526l-.1-17.683c18.308,12.02,28.7,27.043,29.476,42.8.766,15.486-7.99,30.736-24.685,43.049Z" transform="translate(76.89 27.332)" opacity="0.95" fill="url(#linear-gradient-27)"/>
    <path id="Path_14231" data-name="Path 14231" d="M590.258,235.677a8.2,8.2,0,0,0,4.051-1.018,5.236,5.236,0,0,0,2.772-4.526L597,214.384a5.357,5.357,0,0,1-2.686,3.657,8.2,8.2,0,0,1-4.051,1.018l-27.3-.05c5.067,5.017,8.286,10.694,9.4,16.635Z" transform="translate(76.89 31.091)" fill="url(#radial-gradient-46)" style="mix-blend-mode: screen;isolation: isolate"/>
    <path id="Path_14232" data-name="Path 14232" d="M569,249.851c.029-.064.065-.129.1-.193,5.487-11.845.53-25.011-14.848-34.6h0v19.439C561.462,238.995,566.373,244.282,569,249.851Z" transform="translate(74.677 31.262)" fill="url(#linear-gradient-28)"/>
    <path id="Path_14233" data-name="Path 14233" d="M466.044,321.853l-.139-25.538a1.518,1.518,0,0,1,.89-1.249,4.42,4.42,0,0,1,2.162-.513l35.849.065c-1.534-.734-3.026-1.51-4.462-2.339-11.7-6.753-17.921-15.481-18.669-24.319,0,0,3.745-109.228,3.091-113.731-2.27-15.614-13.251-30.931-32.928-43.287l-45.24-.082.13,23.838c10.289,6.429,15.98,14.42,17.072,22.543l-3.367,110.119c.615,18.061,12.846,36.051,36.737,49.844C460.025,318.853,462.994,320.4,466.044,321.853Z" transform="translate(37.155 4.783)" fill="url(#linear-gradient-29)"/>
    <path id="Path_14234" data-name="Path 14234" d="M461.481,314.958q-1.652-.882-3.2-1.775c-21.834-12.606-34.208-29.15-34.853-46.6l3.372-110.3-.04-.306c-1.206-8.967-7.236-17.462-17.051-24.091l-.1-18.019,40.359.071c17.421,11.189,28.17,25.389,30.3,40.069.405,4.124-1.648,69.881-3.127,113.061l-.008.223.018.222c.7,8.3,5.448,16.112,13.571,22.553l-22.533-.04a8.224,8.224,0,0,0-4.046,1.013,5.246,5.246,0,0,0-2.777,4.531Z" transform="translate(37.922 5.547)" opacity="0.95" fill="url(#linear-gradient-30)"/>
    <path id="Path_14235" data-name="Path 14235" d="M441.8,140.261c16.612,10.67,27.138,24.078,29.93,38.03.347-13.429.517-22.82.372-24.3-2.132-14.681-12.881-28.88-30.3-40.069Z" transform="translate(46.1 5.562)" fill="url(#radial-gradient-47)" style="mix-blend-mode: screen;isolation: isolate"/>
    <path id="Path_14236" data-name="Path 14236" d="M583.381,278.8a4.425,4.425,0,0,1-2.168-.522,1.545,1.545,0,0,1-.9-1.252l-.124-22.937c-1,.663-2.023,1.319-3.115,1.95-20.691,11.946-52.318,13.838-76.676,5.728l-41.614-.075.144,26.512c48.908,20.553,117.759,18.224,161.591-7.082,1.273-.736,2.495-1.49,3.7-2.25Z" transform="translate(50.415 41.183)" fill="url(#linear-gradient-31)"/>
    <path id="Path_14237" data-name="Path 14237" d="M531.973,296.95c-25.311,0-49.477-4.353-70.069-12.6l-.109-20.215,37.224.068a106.586,106.586,0,0,0,32.568,4.93c16.437,0,31.965-3.464,44.1-9.792l.089,16.38a5.267,5.267,0,0,0,2.787,4.49,8.1,8.1,0,0,0,4.043,1.026l26.17.046c-21.527,10.15-48.373,15.67-76.8,15.67Z" transform="translate(51.182 42.515)" opacity="0.95" fill="url(#linear-gradient-32)"/>
    <g id="Group_10211" data-name="Group 10211" transform="translate(321.709 95.8)" style="mix-blend-mode: multiply;isolation: isolate">
      <path id="Path_14238" data-name="Path 14238" d="M398.707,111.565l.075,13.874.014.005-.077-14.076C398.717,111.434,398.707,111.5,398.707,111.565Z" transform="translate(-286.559 -90.888)" opacity="0.95" fill="url(#linear-gradient-33)"/>
      <path id="Path_14239" data-name="Path 14239" d="M383.3,97.63c22.525,0,44.237,3.483,63.189,9.982l7.07.013c-20.528-8.177-44.882-12.586-70.259-12.586-26.88,0-53.048,5.109-74.011,14.42l.014,2.587C330.258,102.738,356.422,97.63,383.3,97.63Z" transform="translate(-309.284 -95.038)" opacity="0.95" fill="url(#linear-gradient-34)"/>
    </g>
    <g id="Group_10212" data-name="Group 10212" transform="translate(275.862 117.281)" style="mix-blend-mode: multiply;isolation: isolate">
      <path id="Path_14240" data-name="Path 14240" d="M272.778,158.673c.948-16.386,12.354-31.919,32.183-43.913l.093,16.908a5.267,5.267,0,0,0,2.785,4.49,8.116,8.116,0,0,0,4.043,1.025l24.444.044c.909-.884,1.871-1.748,2.9-2.587l-27.34-.049a8.116,8.116,0,0,1-4.043-1.026,5.266,5.266,0,0,1-2.785-4.49l-.093-16.908c-19.829,11.994-31.235,27.527-32.183,43.913-.068,1.189-.061,2.377-.019,3.563C272.77,159.319,272.76,159,272.778,158.673Z" transform="translate(-272.727 -112.166)" opacity="0.95" fill="url(#linear-gradient-35)"/>
      <path id="Path_14241" data-name="Path 14241" d="M315.563,150.261c-.41,8.76,3.754,17.385,11.848,24.519l.08,14.908h.014l-.094-17.5C320.115,165.757,316.005,158.119,315.563,150.261Z" transform="translate(-261.849 -102.485)" opacity="0.95" fill="url(#linear-gradient-36)"/>
    </g>
    <g id="Group_10213" data-name="Group 10213" transform="translate(317.895 195.878)" style="mix-blend-mode: multiply;isolation: isolate">
      <path id="Path_14242" data-name="Path 14242" d="M374.036,186.4l1.776.078.171-.189,54.213-.613.089-2.595-54.3.615-.171.191-1.776-.079c-13.98-.616-27.3-3.769-38.11-8.966l.014,2.6C346.749,182.63,360.062,185.781,374.036,186.4Z" transform="translate(-298.7 -174.837)" opacity="0.95" fill="url(#linear-gradient-37)"/>
      <path id="Path_14243" data-name="Path 14243" d="M336.725,194.217a7.487,7.487,0,0,0,5.323-1.989,5,5,0,0,0,1.5-3.554l-.013-2.458a5,5,0,0,1-1.485,3.419,7.487,7.487,0,0,1-5.323,1.989l-30.482-.054c1.818.905,3.688,1.765,5.582,2.6Z" transform="translate(-306.243 -171.945)" opacity="0.95" fill="url(#linear-gradient-38)"/>
    </g>
    <path id="Path_14244" data-name="Path 14244" d="M476.008,183.347l54.074-.307c27.645.385,54.388,6.177,75.549,16.341l.093,17.229h.015l-.108-19.823c-21.161-10.165-47.9-15.955-75.549-16.341l-54.074.307-.946,27.859h.089Z" transform="translate(54.554 22.467)" opacity="0.95" fill="url(#linear-gradient-23)" style="mix-blend-mode: multiply;isolation: isolate"/>
    <g id="Group_10214" data-name="Group 10214" transform="translate(639.847 226.923)" style="mix-blend-mode: multiply;isolation: isolate">
      <path id="Path_14245" data-name="Path 14245" d="M619.566,244.979c.013.229,0,.458.009.686.04-1.091.046-2.185-.009-3.278-.779-15.753-11.168-30.776-29.476-42.8l.014,2.6C608.4,214.212,618.788,229.231,619.566,244.979Z" transform="translate(-556.062 -199.591)" opacity="0.95" fill="url(#linear-gradient-40)"/>
      <path id="Path_14246" data-name="Path 14246" d="M590.258,221.789a8.2,8.2,0,0,0,4.051-1.018,5.236,5.236,0,0,0,2.772-4.526l-.014-2.4a5.253,5.253,0,0,1-2.758,4.329,8.2,8.2,0,0,1-4.051,1.018l-27.3-.05c.854.845,1.638,1.716,2.388,2.6Z" transform="translate(-562.957 -195.968)" opacity="0.95" fill="url(#linear-gradient-41)"/>
      <path id="Path_14247" data-name="Path 14247" d="M572.633,236.034c-.35,6.86-3.518,13.6-9.181,19.4l.014,2.578C569.833,251.484,573.047,243.771,572.633,236.034Z" transform="translate(-562.831 -190.33)" opacity="0.95" fill="url(#linear-gradient-42)"/>
    </g>
    <g id="Group_10215" data-name="Group 10215" transform="translate(447.537 119.414)" style="mix-blend-mode: multiply;isolation: isolate">
      <path id="Path_14248" data-name="Path 14248" d="M463.467,238.444l-.008.223.018.221c.61,7.211,4.278,14.058,10.56,19.956l3.011.005c-7.986-6.332-12.7-13.995-13.522-22.135C463.505,237.292,463.485,237.872,463.467,238.444Z" transform="translate(-395.932 -82.648)" opacity="0.95" fill="url(#linear-gradient-43)"/>
      <path id="Path_14249" data-name="Path 14249" d="M449.974,116.531c17.421,11.191,28.17,25.389,30.3,40.069.023.236.038.681.045,1.3.015-2.058,0-3.407-.045-3.893-2.132-14.681-12.881-28.88-30.3-40.069l-40.359-.071.014,2.594Z" transform="translate(-409.615 -113.867)" opacity="0.95" fill="url(#linear-gradient-44)"/>
      <path id="Path_14250" data-name="Path 14250" d="M423.964,149.542c-.008-.05-.019-.1-.025-.148l-3.307,108.165c.009.242.043.482.056.722L424,149.848Z" transform="translate(-406.815 -104.839)" opacity="0.95" fill="url(#linear-gradient-45)"/>
      <path id="Path_14251" data-name="Path 14251" d="M450.887,260.859l.092,16.785.014.009-.092-16.991C450.9,260.728,450.887,260.792,450.887,260.859Z" transform="translate(-399.127 -76.562)" opacity="0.95" fill="url(#linear-gradient-46)"/>
    </g>
    <path id="Path_14252" data-name="Path 14252" d="M499.019,266.792a106.586,106.586,0,0,0,32.568,4.931c16.437,0,31.965-3.464,44.1-9.794l.089,16.381a5.269,5.269,0,0,0,2.787,4.49,8.112,8.112,0,0,0,4.043,1.025l20.292.036c2-.828,3.964-1.681,5.878-2.582l-26.17-.046a8.1,8.1,0,0,1-4.043-1.026,5.267,5.267,0,0,1-2.787-4.49l-.089-16.38c-12.137,6.328-27.666,9.791-44.1,9.792a106.586,106.586,0,0,1-32.568-4.93l-37.224-.068.014,2.594Z" transform="translate(51.182 42.515)" opacity="0.95" fill="url(#linear-gradient-47)" style="mix-blend-mode: multiply;isolation: isolate"/>
    <g id="Group_10216" data-name="Group 10216" transform="translate(512.977 306.647)">
      <path id="Path_14253" data-name="Path 14253" d="M552.767,273.011l-.135.184.063,11.588a5.051,5.051,0,0,0,1.689,3.678A155.746,155.746,0,0,0,585.695,277.8l-26.17-.046a8.1,8.1,0,0,1-4.043-1.026A5.389,5.389,0,0,1,552.767,273.011Z" transform="translate(-438.71 -260.656)" fill="url(#radial-gradient-48)" style="mix-blend-mode: screen;isolation: isolate"/>
      <path id="Path_14254" data-name="Path 14254" d="M499.019,263.227l-37.224-.067.068,12.541,37.157.067Z" transform="translate(-461.795 -263.16)" fill="url(#radial-gradient-49)" style="mix-blend-mode: screen;isolation: isolate"/>
    </g>
    <g id="Group_10217" data-name="Group 10217" transform="translate(272.099 108.053)" opacity="0.9" style="mix-blend-mode: color-dodge;isolation: isolate">
      <path id="Path_14255" data-name="Path 14255" d="M318.542,154.405c.226-9.168,6.3-18.241,18.3-25.164,1.181-.682,2.409-1.321,3.66-1.936l-2.362-.005c-.43.232-.879.445-1.3.687C324.3,135.226,318.22,144.815,318.542,154.405Z" transform="translate(-257.324 -99.092)" opacity="0.95" fill="url(#radial-gradient-50)"/>
      <path id="Path_14256" data-name="Path 14256" d="M402.6,109.005a4.406,4.406,0,0,1,2.162-.514l42.235.076c-.786-.433-1.6-.84-2.4-1.259l-39.835-.071a4.406,4.406,0,0,0-2.162.514,1.516,1.516,0,0,0-.89,1.248l.008,1.214A1.529,1.529,0,0,1,402.6,109.005Z" transform="translate(-236.187 -104.191)" opacity="0.95" fill="url(#radial-gradient-51)"/>
      <path id="Path_14257" data-name="Path 14257" d="M333,189.26c0-.013.006-.025.006-.039l-.1-19.231-.006-.005Z" transform="translate(-253.673 -88.245)" opacity="0.95" fill="url(#radial-gradient-52)"/>
      <path id="Path_14258" data-name="Path 14258" d="M571.243,239.617c.217-8.648-4.807-17.347-15.073-24.358l-1.923,0C565.283,222.139,570.949,230.862,571.243,239.617Z" transform="translate(-197.422 -76.74)" opacity="0.95" fill="url(#radial-gradient-53)"/>
      <path id="Path_14259" data-name="Path 14259" d="M406.727,134.9c10.21,6.377,15.886,14.295,17.042,22.351l.031-1.062c-1.092-8.123-6.782-16.114-17.074-22.543l-.123-22.584H406.6Z" transform="translate(-234.944 -103.219)" opacity="0.95" fill="url(#radial-gradient-54)"/>
      <path id="Path_14260" data-name="Path 14260" d="M587.193,217.6l-.125-23.185-.008,0,.127,23.228C587.187,217.631,587.193,217.618,587.193,217.6Z" transform="translate(-189.084 -82.036)" opacity="0.95" fill="url(#radial-gradient-55)"/>
      <path id="Path_14261" data-name="Path 14261" d="M568.638,214.359l41.672.075-.006-1.254-41.666-.075c-10.888-5.141-24.033-7.9-37.322-8.277L472,205.2l-.043,1.254,59.359-.371C544.6,206.457,557.749,209.219,568.638,214.359Z" transform="translate(-218.334 -79.39)" opacity="0.95" fill="url(#radial-gradient-56)"/>
      <path id="Path_14262" data-name="Path 14262" d="M620.513,278.531c-43.832,25.306-112.682,27.635-161.591,7.082l-.138-25.259h-.006l.144,26.513c48.908,20.553,117.759,18.224,161.591-7.082,1.273-.736,2.495-1.49,3.7-2.249l-2.023,0C621.639,277.868,621.082,278.2,620.513,278.531Z" transform="translate(-221.684 -65.279)" opacity="0.95" fill="url(#radial-gradient-57)"/>
      <path id="Path_14263" data-name="Path 14263" d="M352.093,129.5c22.86-7.88,52.734-6.648,73.988,3.617l-.006-1.258c-21.255-10.261-51.125-11.492-73.982-3.613l-45.687-.083-.127-23.356-.006,0,.133,24.607Z" transform="translate(-260.439 -104.808)" opacity="0.95" fill="url(#radial-gradient-58)"/>
      <path id="Path_14264" data-name="Path 14264" d="M603.636,279.3l-43.049-.078-.134-24.75-.008.006.142,26,43.049.078c18.574-13.329,27.644-29.651,27.247-45.943C630.8,250.482,621.733,266.312,603.636,279.3Z" transform="translate(-195.847 -71.822)" opacity="0.95" fill="url(#radial-gradient-59)"/>
      <path id="Path_14265" data-name="Path 14265" d="M490.293,256.591l-33.353-.06a4.42,4.42,0,0,0-2.162.513,1.518,1.518,0,0,0-.89,1.249l.006,1.214a1.538,1.538,0,0,1,.884-1.209,4.42,4.42,0,0,1,2.162-.513l35.849.065Q491.519,257.243,490.293,256.591Z" transform="translate(-222.926 -66.251)" opacity="0.95" fill="url(#radial-gradient-60)"/>
      <path id="Path_14266" data-name="Path 14266" d="M342.922,192.948l-46.645-.084c-17.615-13.093-26.456-28.84-26.537-44.544-.4,16.118,8.453,32.355,26.537,45.8l46.651.084Z" transform="translate(-269.727 -93.75)" opacity="0.95" fill="url(#radial-gradient-61)"/>
      <path id="Path_14267" data-name="Path 14267" d="M454.367,284.619c-23.729-13.7-35.945-31.541-36.711-49.478l-.026.888c.615,18.061,12.846,36.05,36.737,49.844,2.854,1.648,5.823,3.192,8.873,4.648l-.008-1.258C460.185,287.808,457.219,286.266,454.367,284.619Z" transform="translate(-232.14 -71.687)" opacity="0.95" fill="url(#radial-gradient-62)"/>
      <path id="Path_14268" data-name="Path 14268" d="M443.392,212.7l-40.668.46c-36.392,2.145-74.282-4.874-102.3-21.049-1.21-.7-2.372-1.415-3.514-2.137l-1.969,0c1.763,1.154,3.573,2.291,5.483,3.395,28.017,16.176,65.907,23.194,102.3,21.049l40.668-.46,1.2-35.388h-.043Z" transform="translate(-263.319 -86.063)" opacity="0.95" fill="url(#radial-gradient-63)"/>
    </g>
    <path id="Path_14269" data-name="Path 14269" d="M294.855,121.789a7.364,7.364,0,1,1-7.363-7.226A7.294,7.294,0,0,1,294.855,121.789Z" transform="translate(5.016 5.724)" opacity="0.5" fill="url(#radial-gradient-64)" style="mix-blend-mode: color-dodge;isolation: isolate"/>
    <path id="Path_14270" data-name="Path 14270" d="M298.029,134.087c.171-.105.331-.214.5-.319l.093,16.908a5.266,5.266,0,0,0,2.785,4.49,8.116,8.116,0,0,0,4.043,1.026l14.53.025c-.008-.754.008-1.51.069-2.267.651-8.036,5.1-15.594,12.741-21.851l-27.34-.049a8.116,8.116,0,0,1-4.043-1.026,5.266,5.266,0,0,1-2.785-4.49l-.024-4.377h-.572Z" transform="translate(9.564 7.654)" fill="url(#radial-gradient-65)" style="mix-blend-mode: screen;isolation: isolate"/>
    <g id="Group_10225" data-name="Group 10225" transform="translate(296.044 106.546)">
      <g id="Group_10221" data-name="Group 10221">
        <g id="Group_10218" data-name="Group 10218" transform="translate(74.658)">
          <path id="Path_14271" data-name="Path 14271" d="M348.35,105.545a9.939,9.939,0,0,1,1.173-.293c.426-.082.848-.15,1.269-.209a11.057,11.057,0,0,1,1.462-.105,5.653,5.653,0,0,1,1.413.166,3.486,3.486,0,0,1,1.205.554,2.409,2.409,0,0,1,.813,1.058,1.6,1.6,0,0,1-.448,2.015,3.393,3.393,0,0,1-1.087.589,7.4,7.4,0,0,1-1.416.334c-.046.008-.125.018-.233.033s-.226.03-.347.043-.238.025-.357.035-.2.011-.251.011l1.146,2.753-1.352.187Zm2.812.2c-.243.033-.47.07-.689.112a4.6,4.6,0,0,0-.512.12l1.283,3.083a.986.986,0,0,0,.238-.006l.32-.031.319-.039.226-.033a5.712,5.712,0,0,0,.943-.208,2.02,2.02,0,0,0,.72-.38,1.142,1.142,0,0,0,.37-.6,1.382,1.382,0,0,0-.118-.855,1.732,1.732,0,0,0-.512-.695,2.264,2.264,0,0,0-.735-.39,3.179,3.179,0,0,0-.887-.139A6.14,6.14,0,0,0,351.162,105.747Z" transform="translate(-348.35 -103.268)" fill="#fff"/>
          <path id="Path_14272" data-name="Path 14272" d="M363.6,111.294l-6.18.538-1.923-7.367,1.375-.119,1.732,6.639,4.808-.418Z" transform="translate(-346.534 -103.418)" fill="#fff"/>
          <path id="Path_14273" data-name="Path 14273" d="M367.9,109.135l-3.655.128-.816,2.118-1.37.049,3.117-7.689.759-.028,4.7,7.417-1.465.05Zm-3.359-.576,2.953-.1-1.366-2.269-.462-1.111h-.036l-.24,1.156Z" transform="translate(-344.865 -103.579)" fill="#fff"/>
          <path id="Path_14274" data-name="Path 14274" d="M372.014,106.49,371.3,105.3h-.056l.122,1.174-.327,4.722-1.336-.033.529-7.559.833.02,4.463,4.937.683,1.134h.073l-.124-1.12.327-4.711,1.333.03-.527,7.561-.853-.02Z" transform="translate(-342.924 -103.606)" fill="#fff"/>
        </g>
        <g id="Group_10219" data-name="Group 10219" transform="translate(0 46.045)">
          <path id="Path_14275" data-name="Path 14275" d="M292.38,157.459a7.661,7.661,0,0,1,.963-.03,5.663,5.663,0,0,1,.949.113,4.179,4.179,0,0,1,.844.267,1.858,1.858,0,0,1,.635.446l.072-.008a1.208,1.208,0,0,1,.161-.508,1.455,1.455,0,0,1,.464-.464,3.148,3.148,0,0,1,.826-.369,6.406,6.406,0,0,1,1.252-.231,7.675,7.675,0,0,1,1.748.013,4.421,4.421,0,0,1,1.317.372,2.765,2.765,0,0,1,.879.643,2.157,2.157,0,0,1,.465.829c.028.1.061.211.1.337a3.252,3.252,0,0,1,.094.415c.025.149.041.3.054.44a1.457,1.457,0,0,1-.023.4l-12.522,1.218a5.532,5.532,0,0,1-.4-.717,6.277,6.277,0,0,1-.336-.907,2.183,2.183,0,0,1-.089-.72,1.155,1.155,0,0,1,.26-.678,1.929,1.929,0,0,1,.786-.544A5.325,5.325,0,0,1,292.38,157.459Zm3.465,2.14c-.028-.1-.066-.207-.114-.33a2.119,2.119,0,0,0-.147-.309,2.765,2.765,0,0,0-1.074-.576,4,4,0,0,0-1.58-.133,4.191,4.191,0,0,0-.982.194,1.52,1.52,0,0,0-.572.319.725.725,0,0,0-.224.411,1.061,1.061,0,0,0,.034.47,4.448,4.448,0,0,0,.169.487,2.387,2.387,0,0,0,.161.326l4.455-.431Zm5.838-1.006a1.153,1.153,0,0,0-.307-.507,1.83,1.83,0,0,0-.586-.378,3.293,3.293,0,0,0-.839-.213,4.871,4.871,0,0,0-1.076,0,4.279,4.279,0,0,0-1.17.247,1.576,1.576,0,0,0-.618.409.85.85,0,0,0-.208.509,1.752,1.752,0,0,0,.069.557l.2.7,4.654-.453a.47.47,0,0,0,.006-.167c-.005-.065-.015-.14-.026-.222s-.025-.164-.044-.248S301.7,158.663,301.683,158.593Z" transform="translate(-288.563 -136.175)" fill="#fff"/>
          <path id="Path_14276" data-name="Path 14276" d="M288.9,153.1l-.078-.759,8.628-.3a8.226,8.226,0,0,1,3.43.406,1.77,1.77,0,0,1,1.194,1.447,1.582,1.582,0,0,1-.843,1.665,6.933,6.933,0,0,1-3.056.62l-8.922.309-.083-.79,8.2-.285a16.177,16.177,0,0,0,1.667-.132,4.088,4.088,0,0,0,1.079-.282,1.212,1.212,0,0,0,.564-.444.969.969,0,0,0,.118-.63c-.049-.463-.362-.776-.946-.936a10.074,10.074,0,0,0-2.752-.173Z" transform="translate(-288.82 -137.344)" fill="#fff"/>
          <path id="Path_14277" data-name="Path 14277" d="M288.852,150.443l.033-.793,12.9.176-.034.793Z" transform="translate(-288.812 -137.95)" fill="#fff"/>
          <path id="Path_14278" data-name="Path 14278" d="M302.464,145.462l-.6,3.547-12.841-.719.132-.789,11.577.646.464-2.758Z" transform="translate(-288.767 -139.033)" fill="#fff"/>
          <path id="Path_14279" data-name="Path 14279" d="M289.894,144.088a2.156,2.156,0,0,1,.048-.377c.03-.137.065-.275.107-.414s.084-.277.125-.411.083-.262.123-.38a2.561,2.561,0,0,1,.9-1.233,4.34,4.34,0,0,1,1.594-.71,9.465,9.465,0,0,1,2.181-.242,21.852,21.852,0,0,1,2.669.161,20.346,20.346,0,0,1,2.446.43,7.724,7.724,0,0,1,1.931.717,2.873,2.873,0,0,1,1.139,1.043,1.65,1.65,0,0,1,.065,1.426c-.031.09-.074.2-.129.341s-.115.28-.188.425-.13.283-.188.41a1.618,1.618,0,0,1-.157.29Zm1.663-1.48c-.021.071-.05.144-.076.224a1.408,1.408,0,0,0-.063.235c-.016.078-.029.149-.039.217s-.018.122-.02.164l10.3,1.2a.678.678,0,0,0,.079-.147c.033-.071.064-.147.1-.226s.065-.154.1-.226a1.607,1.607,0,0,0,.063-.161,1.063,1.063,0,0,0-.1-1,2.322,2.322,0,0,0-.954-.742,7.583,7.583,0,0,0-1.586-.514q-.935-.205-2.019-.332c-.638-.073-1.274-.12-1.908-.135a9.267,9.267,0,0,0-1.74.1,4.225,4.225,0,0,0-1.361.445A1.631,1.631,0,0,0,291.557,142.609Z" transform="translate(-288.547 -140.321)" fill="#fff"/>
        </g>
        <g id="Group_10220" data-name="Group 10220" transform="translate(250.111 158.445)">
          <path id="Path_14280" data-name="Path 14280" d="M600.18,229.945a2.268,2.268,0,0,1,.128.378c.034.137.064.28.085.421s.044.282.066.421.041.27.054.389a1.869,1.869,0,0,1-.306,1.343,2.935,2.935,0,0,1-1.213.938,7.96,7.96,0,0,1-1.994.571,21.754,21.754,0,0,1-2.65.252,22,22,0,0,1-2.555-.049,9.647,9.647,0,0,1-2.19-.4,4.384,4.384,0,0,1-1.575-.845,2.089,2.089,0,0,1-.712-1.383c-.01-.094-.02-.211-.033-.354s-.015-.291-.015-.445,0-.3,0-.429a1.352,1.352,0,0,1,.02-.306Zm-.931,1.7c-.008-.071-.016-.147-.026-.228a1.328,1.328,0,0,0-.046-.24c-.02-.079-.043-.152-.059-.218a1.741,1.741,0,0,0-.059-.164l-10.482.4a.569.569,0,0,0-.009.157c0,.074.005.154.009.236s.005.162.007.234.005.133.01.167a1.392,1.392,0,0,0,.556.968,3.455,3.455,0,0,0,1.257.578,9.26,9.26,0,0,0,1.77.26q.991.058,2.1.016c.65-.026,1.284-.078,1.9-.159a8.258,8.258,0,0,0,1.629-.37,2.971,2.971,0,0,0,1.11-.643A1.137,1.137,0,0,0,599.25,231.646Z" transform="translate(-463.087 -229.945)" fill="#fff"/>
          <path id="Path_14281" data-name="Path 14281" d="M600.623,235.146l-.2,3.328-1.273-.025.152-2.525-4.368-.085-.137,2.321-1.272-.026.14-2.323-4.715-.093L588.8,238.3l-1.272-.024.2-3.382Z" transform="translate(-463.021 -228.688)" fill="#fff"/>
          <path id="Path_14282" data-name="Path 14282" d="M600.085,239.573a2.146,2.146,0,0,1,.059.737,5.032,5.032,0,0,1-.113.759,2.484,2.484,0,0,1-.35.828,2.228,2.228,0,0,1-.769.7,4.136,4.136,0,0,1-1.326.453,9.567,9.567,0,0,1-3.919-.28,3.707,3.707,0,0,1-1.19-.617,1.754,1.754,0,0,1-.566-.8,1.729,1.729,0,0,1-.038-.883c.01-.029.017-.075.033-.139a1.866,1.866,0,0,1,.054-.2c.021-.069.046-.137.073-.2a.733.733,0,0,1,.069-.142l-4.862-.36.177-.8Zm-1.324,1.445a3.166,3.166,0,0,0,.065-.411,1.193,1.193,0,0,0-.011-.319l-5.45-.4a.321.321,0,0,0-.076.129c-.019.059-.039.123-.058.184s-.038.124-.052.186-.023.105-.03.133a1.346,1.346,0,0,0,0,.583.98.98,0,0,0,.36.524,2.577,2.577,0,0,0,.838.411,6.122,6.122,0,0,0,1.421.24,5.875,5.875,0,0,0,1.311-.026,3.171,3.171,0,0,0,.892-.258,1.377,1.377,0,0,0,.792-.972Z" transform="translate(-463.094 -227.737)" fill="#fff"/>
          <path id="Path_14283" data-name="Path 14283" d="M585.318,246.054l1.365-3.523,12.593,1.627-.3.784-11.351-1.465-1.058,2.739Z" transform="translate(-463.582 -226.747)" fill="#fff"/>
          <path id="Path_14284" data-name="Path 14284" d="M591.8,246.411a12.277,12.277,0,0,1,4.412,1.46,1.44,1.44,0,0,1,.627,2.074,2.486,2.486,0,0,1-1.056,1.007,4.959,4.959,0,0,1-1.675.493,11.437,11.437,0,0,1-2.231.041,23.5,23.5,0,0,1-2.705-.355,12.176,12.176,0,0,1-4.413-1.465,1.447,1.447,0,0,1-.625-2.079,2.474,2.474,0,0,1,1.051-1,5.019,5.019,0,0,1,1.679-.5,10.905,10.905,0,0,1,2.232-.039A24.026,24.026,0,0,1,591.8,246.411Zm-.45.806c-.689-.13-1.362-.221-2.014-.28a11.485,11.485,0,0,0-1.781-.031,4.854,4.854,0,0,0-1.391.27,1.477,1.477,0,0,0-.818.636q-.427.764.615,1.4a11.8,11.8,0,0,0,3.657,1.117c.678.125,1.344.218,2,.275a11.614,11.614,0,0,0,1.79.034,4.887,4.887,0,0,0,1.4-.267,1.5,1.5,0,0,0,.825-.646c.278-.5.073-.966-.622-1.387A11.806,11.806,0,0,0,591.354,247.217Z" transform="translate(-463.939 -225.862)" fill="#fff"/>
          <path id="Path_14285" data-name="Path 14285" d="M586.794,252.006l8.5-.01-.64.845-6.086-.061-1.127-.135-.015.02.968.4,4.213,2.489-.6.794-5.746-3.6-4.716-1.188.558-.735Z" transform="translate(-464.542 -224.64)" fill="#fff"/>
          <path id="Path_14286" data-name="Path 14286" d="M540.178,277.4a3.293,3.293,0,0,1,.146,2.937,3.509,3.509,0,0,1-2.739,1.388,6.685,6.685,0,0,1-2.038.008,4.615,4.615,0,0,1-1.6-.571,4.431,4.431,0,0,1-1.225-1.077,6.349,6.349,0,0,1-.884-1.519,3.269,3.269,0,0,1-.134-2.937,3.525,3.525,0,0,1,2.748-1.391,6.642,6.642,0,0,1,2.02,0,4.732,4.732,0,0,1,1.614.568,4.318,4.318,0,0,1,1.223,1.077A6.456,6.456,0,0,1,540.178,277.4Zm-1.422.2a5.761,5.761,0,0,0-.637-1.136,4.155,4.155,0,0,0-.884-.894,3.372,3.372,0,0,0-1.125-.543,3.255,3.255,0,0,0-1.365-.071A2.052,2.052,0,0,0,533,275.987a3.047,3.047,0,0,0,.255,2.384,5.5,5.5,0,0,0,.635,1.126,4.238,4.238,0,0,0,.884.9,3.283,3.283,0,0,0,2.511.62,2.04,2.04,0,0,0,1.724-1.028A3.058,3.058,0,0,0,538.756,277.6Z" transform="translate(-477.281 -218.708)" fill="#fff"/>
          <path id="Path_14287" data-name="Path 14287" d="M531.625,282.252a10.619,10.619,0,0,1-1.22.22c-.439.056-.872.1-1.3.133a12.038,12.038,0,0,1-1.475.018,5.517,5.517,0,0,1-1.375-.251,3.013,3.013,0,0,1-1.1-.625,2.061,2.061,0,0,1-.617-1.1,1.736,1.736,0,0,1,.084-1.156,2.047,2.047,0,0,1,.727-.823,3.96,3.96,0,0,1,1.19-.519,7.8,7.8,0,0,1,1.47-.245c.046-.005.127-.01.24-.02s.226-.015.351-.021.242-.01.36-.01a2.474,2.474,0,0,1,.252,0l-.64-2.808,1.377-.1Zm-2.76-.37c.247-.02.479-.043.7-.069a5.178,5.178,0,0,0,.532-.09l-.72-3.143a1.042,1.042,0,0,0-.236-.01l-.324.015c-.11.005-.219.009-.323.019s-.178.013-.229.018a6.371,6.371,0,0,0-.977.149,2.307,2.307,0,0,0-.784.334,1.348,1.348,0,0,0-.478.573,1.386,1.386,0,0,0-.037.857,1.479,1.479,0,0,0,.38.721,2.02,2.02,0,0,0,.662.433,2.969,2.969,0,0,0,.857.194A6.639,6.639,0,0,0,528.865,281.882Z" transform="translate(-479.042 -218.511)" fill="#fff"/>
          <path id="Path_14288" data-name="Path 14288" d="M523.753,282.838l-5.764.128-.046-.735,4.372-.1-.164-2.521-4.025.088-.046-.732,4.022-.088-.178-2.724-4.466.1-.049-.732,5.857-.129Z" transform="translate(-480.84 -218.395)" fill="#fff"/>
          <path id="Path_14289" data-name="Path 14289" d="M516.3,282.9c-.414.045-.865.069-1.354.079s-.941.005-1.347-.01a8.532,8.532,0,0,1-1.359-.147,3.643,3.643,0,0,1-1.095-.378,1.864,1.864,0,0,1-.706-.652,1.508,1.508,0,0,1-.188-.982,1.885,1.885,0,0,1,.781-1.391,3.783,3.783,0,0,1,1.766-.656l-.663-.418-2.256-3.049,1.609.054,2.452,3.333,1.372.206.342-3.4,1.392.046Zm-1.043-3.478-1.11-.036a3.311,3.311,0,0,0-1.7.315,1.345,1.345,0,0,0-.725,1.117,1.081,1.081,0,0,0,.411.982,2.356,2.356,0,0,0,1.47.434c.247.008.5.013.769.01a5.827,5.827,0,0,0,.609-.028Z" transform="translate(-482.753 -218.419)" fill="#fff"/>
          <path id="Path_14290" data-name="Path 14290" d="M504.767,276.969l3.618.324,1.578-1.97,1.354.123-5.874,7.131-.75-.069-1.861-7.822,1.447.128Zm3.071.974-2.925-.262.5,2.387.039,1.141.039,0,.658-1.1Z" transform="translate(-484.544 -218.575)" fill="#fff"/>
          <path id="Path_14291" data-name="Path 14291" d="M495.036,280.3l3.1.439,2.763-6.523,1.353.191-2.767,6.523,3.1.436-.3.712-7.55-1.065Z" transform="translate(-486.602 -218.694)" fill="#fff"/>
          <path id="Path_14292" data-name="Path 14292" d="M493.7,280.9l-5.453-1.087.414-.694,4.137.825,1.428-2.383-3.8-.76.414-.692,3.808.756,1.54-2.575-4.225-.842.414-.693,5.541,1.1Z" transform="translate(-488.25 -219.066)" fill="#fff"/>
        </g>
      </g>
      <g id="Group_10224" data-name="Group 10224" transform="translate(63.967 45.611)">
        <g id="Group_10222" data-name="Group 10222" transform="translate(123.746)">
          <path id="Path_14293" data-name="Path 14293" d="M440.337,145.053a2.284,2.284,0,0,1-.82-.578,2.984,2.984,0,0,1-.517-.809,1.522,1.522,0,0,1-.084-1.069,1.932,1.932,0,0,1,.789-.969,6.525,6.525,0,0,1,1.786-.814,22.017,22.017,0,0,1,6-.835,9.984,9.984,0,0,1,2.246.278,4.063,4.063,0,0,1,1.46.656,2.311,2.311,0,0,1,.752.9,2.45,2.45,0,0,1,.229.845,1.928,1.928,0,0,1-.059.61l-1.3-.013a1.12,1.12,0,0,0,.094-.533,1.857,1.857,0,0,0-.169-.66,1.536,1.536,0,0,0-.573-.645,3.323,3.323,0,0,0-1.141-.443,8.362,8.362,0,0,0-1.788-.162,17.674,17.674,0,0,0-2.513.206,9.723,9.723,0,0,0-3.7,1.084q-1.091.709-.72,1.571a1.711,1.711,0,0,0,.445.611,2.924,2.924,0,0,0,.607.42Z" transform="translate(-438.405 -139.975)" fill="#fff"/>
          <path id="Path_14294" data-name="Path 14294" d="M446.366,144.778a16.22,16.22,0,0,1,5.073.218q1.821.474,2.113,1.714a1.393,1.393,0,0,1-.2,1.174,2.748,2.748,0,0,1-1.144.862,9.156,9.156,0,0,1-1.982.593,24,24,0,0,1-2.706.352,16.058,16.058,0,0,1-5.075-.222q-1.827-.48-2.117-1.721a1.375,1.375,0,0,1,.2-1.16,2.787,2.787,0,0,1,1.145-.869,8.654,8.654,0,0,1,1.982-.593A25.08,25.08,0,0,1,446.366,144.778Zm.2.839q-1.08.085-2.025.251a9.833,9.833,0,0,0-1.632.414,3.058,3.058,0,0,0-1.053.591.769.769,0,0,0-.265.778c.128.531.66.9,1.6,1.106a15.135,15.135,0,0,0,4.134.1q1.059-.085,2.007-.25a10.133,10.133,0,0,0,1.642-.415,3,3,0,0,0,1.06-.592.775.775,0,0,0,.262-.788q-.183-.784-1.6-1.1A15.183,15.183,0,0,0,446.564,145.617Z" transform="translate(-438.042 -138.776)" fill="#fff"/>
          <path id="Path_14295" data-name="Path 14295" d="M449.328,151.883l2.038-.443,0-.034-2.03.1-8.183-.068.019-.773,13.1.11-.01.482-8.439,2.7-1.945.424,0,.043,1.94-.1,8.162.068-.018.771-13.1-.11.013-.492Z" transform="translate(-437.894 -137.257)" fill="#fff"/>
          <path id="Path_14296" data-name="Path 14296" d="M452.484,160.251l.056-1.842-11.628-.119.025-.8,11.627.119.059-1.841,1.272.014-.14,4.485Z" transform="translate(-437.882 -135.962)" fill="#fff"/>
          <path id="Path_14297" data-name="Path 14297" d="M453.722,161.02l-.028.8-12.9-.138.026-.8Z" transform="translate(-437.912 -134.661)" fill="#fff"/>
          <path id="Path_14298" data-name="Path 14298" d="M448.944,164.842l2.04-.438,0-.033-2.034.1-8.181-.088.025-.771,13.1.142-.015.483-8.458,2.683-1.95.416v.044l1.938-.1,8.164.089-.025.769-13.1-.142.015-.493Z" transform="translate(-437.999 -133.969)" fill="#fff"/>
          <path id="Path_14299" data-name="Path 14299" d="M453.383,172.635l-.026.773-8.645-.1a7.834,7.834,0,0,1-3.364-.569,1.6,1.6,0,0,1-.99-1.516,1.776,1.776,0,0,1,1.069-1.642,7.166,7.166,0,0,1,3.13-.485l8.938.1-.028.8-8.217-.09a15.035,15.035,0,0,0-1.681.056,4.328,4.328,0,0,0-1.115.232,1.408,1.408,0,0,0-.622.423,1.1,1.1,0,0,0-.206.628c-.015.472.257.8.815.99a9.728,9.728,0,0,0,2.719.3Z" transform="translate(-438.023 -132.573)" fill="#fff"/>
          <path id="Path_14300" data-name="Path 14300" d="M446.89,174.248a15.429,15.429,0,0,1,4.956.667q1.674.63,1.63,1.882a1.586,1.586,0,0,1-.509,1.14,3.5,3.5,0,0,1-1.362.751,10.3,10.3,0,0,1-2.113.41,25.164,25.164,0,0,1-2.768.108,15.26,15.26,0,0,1-4.956-.671q-1.674-.636-1.633-1.886a1.582,1.582,0,0,1,.509-1.131,3.548,3.548,0,0,1,1.362-.755,9.669,9.669,0,0,1,2.113-.41A26.575,26.575,0,0,1,446.89,174.248Zm-.029.847c-.725-.008-1.413.016-2.067.068a10.748,10.748,0,0,0-1.722.266,3.77,3.77,0,0,0-1.2.49.919.919,0,0,0-.465.744q-.028.8,1.287,1.237a14.618,14.618,0,0,0,4.058.463q1.065.011,2.048-.069a11.282,11.282,0,0,0,1.732-.265,3.745,3.745,0,0,0,1.205-.489.932.932,0,0,0,.468-.755q.024-.794-1.287-1.225A14.523,14.523,0,0,0,446.861,175.095Z" transform="translate(-438.08 -131.265)" fill="#fff"/>
          <path id="Path_14301" data-name="Path 14301" d="M453.02,183.48l-.028.77-8.641-.1a7.811,7.811,0,0,1-3.366-.568,1.6,1.6,0,0,1-.99-1.515,1.78,1.78,0,0,1,1.071-1.642,7.177,7.177,0,0,1,3.13-.485l8.938.1-.028.8-8.218-.094a16.332,16.332,0,0,0-1.679.056,4.167,4.167,0,0,0-1.115.236,1.344,1.344,0,0,0-.622.42,1.056,1.056,0,0,0-.206.63c-.018.472.255.8.813.99a9.712,9.712,0,0,0,2.719.3Z" transform="translate(-438.115 -129.818)" fill="#fff"/>
          <path id="Path_14302" data-name="Path 14302" d="M441.775,185.237a2.215,2.215,0,0,0-.47.568,1.646,1.646,0,0,0-.24.838,1.124,1.124,0,0,0,.473.981,2.641,2.641,0,0,0,1.579.391,3.393,3.393,0,0,0,1.262-.2,4.923,4.923,0,0,0,1-.524c.309-.211.612-.439.907-.681a7.915,7.915,0,0,1,.984-.68,5.256,5.256,0,0,1,2.873-.716,3.843,3.843,0,0,1,2.272.566,1.621,1.621,0,0,1,.7,1.416,2.622,2.622,0,0,1-.2.951,2,2,0,0,1-.449.671l-1.208-.271a1.879,1.879,0,0,0,.39-.548,2.027,2.027,0,0,0,.193-.828.9.9,0,0,0-.46-.862,2.4,2.4,0,0,0-1.215-.292,2.889,2.889,0,0,0-1.149.2,5.035,5.035,0,0,0-.957.524c-.3.211-.611.439-.919.681a7.807,7.807,0,0,1-1.028.678,5.978,5.978,0,0,1-1.272.522,5.753,5.753,0,0,1-1.665.2,4.839,4.839,0,0,1-2.523-.587,1.7,1.7,0,0,1-.867-1.584,2.408,2.408,0,0,1,.237-1.053,2.364,2.364,0,0,1,.483-.652Z" transform="translate(-438.167 -128.546)" fill="#fff"/>
          <path id="Path_14303" data-name="Path 14303" d="M452.666,192.525l-.113,3.33-1.274-.015.089-2.527-4.551-.05-.081,2.353-1.27-.013.08-2.355-5.805-.066.028-.8Z" transform="translate(-438.18 -126.658)" fill="#fff"/>
          <path id="Path_14304" data-name="Path 14304" d="M452.536,196.907l-.112,3.332-1.274-.016.085-2.527-4.364-.049-.082,2.323-1.27-.015.078-2.321-4.716-.054-.09,2.578-1.272-.014.118-3.384Z" transform="translate(-438.236 -125.544)" fill="#fff"/>
          <path id="Path_14305" data-name="Path 14305" d="M452.38,201.438l-.113,3.332-1.273-.015.088-2.526-4.367-.051-.082,2.323-1.272-.013.079-2.325-4.718-.054-.085,2.58-1.274-.015.118-3.382Z" transform="translate(-438.276 -124.392)" fill="#fff"/>
          <path id="Path_14306" data-name="Path 14306" d="M452.247,205.946a2.37,2.37,0,0,1,.069.38c.011.139.019.278.021.424s0,.283,0,.424,0,.268,0,.389a2.05,2.05,0,0,1-.507,1.323,3.428,3.428,0,0,1-1.347.874,8.554,8.554,0,0,1-2.076.468,22.009,22.009,0,0,1-2.676.12,21.438,21.438,0,0,1-2.536-.174,9.16,9.16,0,0,1-2.121-.512,3.845,3.845,0,0,1-1.444-.923,1.873,1.873,0,0,1-.5-1.413c0-.094.01-.211.02-.354s.029-.291.053-.443.045-.3.061-.429a1.482,1.482,0,0,1,.064-.3Zm-1.184,1.645c0-.07.005-.149.01-.23a2.173,2.173,0,0,0-.011-.242c-.01-.079-.02-.153-.03-.218a1.678,1.678,0,0,0-.031-.169l-10.5-.12a.586.586,0,0,0-.033.154c-.01.076-.016.154-.026.238s-.02.159-.028.235-.011.13-.014.164a1.231,1.231,0,0,0,.406.99,3.048,3.048,0,0,0,1.166.642,8.628,8.628,0,0,0,1.724.345,20.462,20.462,0,0,0,2.087.12c.651.008,1.29-.013,1.92-.064a8.667,8.667,0,0,0,1.678-.283,3.438,3.438,0,0,0,1.2-.586A1.257,1.257,0,0,0,451.063,207.592Z" transform="translate(-438.336 -123.247)" fill="#fff"/>
          <path id="Path_14307" data-name="Path 14307" d="M449,214.966a6.976,6.976,0,0,1-.956-.077,5.012,5.012,0,0,1-.9-.213,3.287,3.287,0,0,1-.742-.357,1.383,1.383,0,0,1-.482-.512l-.074,0a1.539,1.539,0,0,1-.321.489,1.933,1.933,0,0,1-.6.409,3.826,3.826,0,0,1-.933.28,6.76,6.76,0,0,1-1.3.093,7.015,7.015,0,0,1-1.721-.2,3.564,3.564,0,0,1-1.17-.512,2.046,2.046,0,0,1-.657-.735,1.782,1.782,0,0,1-.188-.874c0-.1.005-.218.013-.347a2.894,2.894,0,0,1,.041-.424c.023-.149.054-.3.088-.444a1.608,1.608,0,0,1,.152-.4l12.7.147a4.7,4.7,0,0,1,.157.756,5.492,5.492,0,0,1,.043.936,2.289,2.289,0,0,1-.145.729,1.539,1.539,0,0,1-.473.648,2.554,2.554,0,0,1-.947.454A5.8,5.8,0,0,1,449,214.966Zm-8.774-2.137a.954.954,0,0,0,.137.537,1.324,1.324,0,0,0,.453.439,2.682,2.682,0,0,0,.757.3,4.569,4.569,0,0,0,1.056.12,4.73,4.73,0,0,0,1.229-.12,2.044,2.044,0,0,0,.74-.339,1.144,1.144,0,0,0,.367-.484,1.756,1.756,0,0,0,.11-.562l.026-.717-4.719-.054a.586.586,0,0,0-.059.167c-.015.066-.03.142-.046.223s-.028.166-.035.252S440.227,212.759,440.225,212.829Zm6.06-.37a3.238,3.238,0,0,0,.005.344,1.74,1.74,0,0,0,.044.324,2.1,2.1,0,0,0,.869.689,3.623,3.623,0,0,0,1.511.3,4.607,4.607,0,0,0,1.027-.084,1.97,1.97,0,0,0,.663-.255.968.968,0,0,0,.352-.386,1.123,1.123,0,0,0,.118-.47,4.139,4.139,0,0,0-.008-.505,2.115,2.115,0,0,0-.054-.342l-4.515-.051Z" transform="translate(-438.38 -121.89)" fill="#fff"/>
          <path id="Path_14308" data-name="Path 14308" d="M442.49,219.071l.074-2.113-3.592-.64.025-.791,13.027,2.41-.015.439-13.181,2.106.028-.844Zm1.264-1.885-.059,1.707,4.027-.606,1.953-.173v-.023l-1.977-.232Z" transform="translate(-438.412 -120.775)" fill="#fff"/>
          <path id="Path_14309" data-name="Path 14309" d="M439.207,224.7a1.448,1.448,0,0,1-.529-.684,2.19,2.19,0,0,1-.134-.857,1.717,1.717,0,0,1,.4-1.046,2.982,2.982,0,0,1,1.2-.816,8.808,8.808,0,0,1,2.092-.517,21.194,21.194,0,0,1,3.068-.157,18.877,18.877,0,0,1,3.105.255,8.266,8.266,0,0,1,2.045.611,2.74,2.74,0,0,1,1.112.852,1.614,1.614,0,0,1,.316.984,2.277,2.277,0,0,1-.493,1.428l-1.247-.206a1.564,1.564,0,0,0,.331-.5,1.926,1.926,0,0,0,.134-.665,1.035,1.035,0,0,0-.262-.71,2.308,2.308,0,0,0-.9-.6,7.258,7.258,0,0,0-1.653-.425,17.7,17.7,0,0,0-2.521-.179,11.619,11.619,0,0,0-4.063.488q-1.371.517-1.4,1.408a1.192,1.192,0,0,0,.152.653,1.976,1.976,0,0,0,.4.5Z" transform="translate(-438.484 -119.481)" fill="#fff"/>
          <path id="Path_14310" data-name="Path 14310" d="M444.576,226.771l.014-.385-5.968-.072.026-.8,12.9.152-.029.8-6.009-.069.245.378,5.682,2.015-.031.921-5.5-2.023-.578-.383-.751.429-6.085,2.1.036-1.017Z" transform="translate(-438.496 -118.237)" fill="#fff"/>
        </g>
        <g id="Group_10223" data-name="Group 10223" transform="translate(0 58.962)">
          <path id="Path_14311" data-name="Path 14311" d="M345.184,194.495a4.636,4.636,0,0,1-1.277.065,10.168,10.168,0,0,1-1.428-.208,5.387,5.387,0,0,1-1.553-.563,2.187,2.187,0,0,1-.918-.919,2.059,2.059,0,0,1-.138-1.309,4.853,4.853,0,0,1,.768-1.721,6.259,6.259,0,0,1,1.445-1.608,6.007,6.007,0,0,1,1.658-.914,5.742,5.742,0,0,1,1.747-.326,7.152,7.152,0,0,1,1.692.15,9.773,9.773,0,0,1,1.318.364,6.567,6.567,0,0,1,.825.372l-.749.611a3.391,3.391,0,0,0-.7-.344,7.1,7.1,0,0,0-1.023-.288,4.389,4.389,0,0,0-1.233-.092,4.054,4.054,0,0,0-1.267.295,4.617,4.617,0,0,0-1.239.759,5.947,5.947,0,0,0-1.124,1.313,2.633,2.633,0,0,0-.564,2.374,2.3,2.3,0,0,0,1.806,1.227,5.635,5.635,0,0,0,1.107.133,6.211,6.211,0,0,0,.936-.055Z" transform="translate(-339.825 -186.989)" fill="#fff"/>
          <path id="Path_14312" data-name="Path 14312" d="M346.325,191.146a5.6,5.6,0,0,1,2.351-2.6,5.474,5.474,0,0,1,3.527-.444,5.061,5.061,0,0,1,1.76.566,2.152,2.152,0,0,1,.9.948,2.311,2.311,0,0,1,.145,1.284,5.49,5.49,0,0,1-.519,1.574,5.092,5.092,0,0,1-5.9,3.044,4.967,4.967,0,0,1-1.741-.564,2.038,2.038,0,0,1-1.056-2.232A5.637,5.637,0,0,1,346.325,191.146Zm1.393.227a4.916,4.916,0,0,0-.409,1.171,2.264,2.264,0,0,0,0,1.027,1.486,1.486,0,0,0,.509.791,2.285,2.285,0,0,0,1.115.446,3.419,3.419,0,0,0,2.372-.411,5.706,5.706,0,0,0,2.195-3.315,2.424,2.424,0,0,0,0-1.033,1.51,1.51,0,0,0-.508-.8,2.319,2.319,0,0,0-1.131-.449,3.385,3.385,0,0,0-2.351.414A4.911,4.911,0,0,0,347.719,191.373Z" transform="translate(-338.316 -186.732)" fill="#fff"/>
          <path id="Path_14313" data-name="Path 14313" d="M356.422,191.689l-.444-1.23-.054,0-.134,1.173-1.352,4.662-1.3-.128L355.3,188.7l.814.079,3.3,5.217.419,1.173.073.008.123-1.121,1.344-4.649,1.3.124-2.16,7.465-.834-.082Z" transform="translate(-336.442 -186.554)" fill="#fff"/>
          <path id="Path_14314" data-name="Path 14314" d="M368.69,190.382l-3.145-.108-.681,6.7-1.375-.046.686-6.7-3.148-.105.077-.734,7.661.26Z" transform="translate(-334.437 -186.379)" fill="#fff"/>
          <path id="Path_14315" data-name="Path 14315" d="M367.912,189.553l1.375-.013.213,7.45-1.375.011Z" transform="translate(-332.687 -186.341)" fill="#fff"/>
          <path id="Path_14316" data-name="Path 14316" d="M372.846,192.248l-.791-1.169H372l.208,1.17.025,4.724-1.321,0-.036-7.566h.82l4.772,4.823.756,1.116h.074l-.208-1.117-.025-4.714,1.321,0,.038,7.566h-.843Z" transform="translate(-331.934 -186.374)" fill="#fff"/>
          <path id="Path_14317" data-name="Path 14317" d="M384.257,189.489h1.318l.013,4.991a2.163,2.163,0,0,1-.9,1.954,4.631,4.631,0,0,1-2.57.6,5.3,5.3,0,0,1-2.831-.583,2.011,2.011,0,0,1-.894-1.8l-.01-5.161h1.375l.009,4.746a3.161,3.161,0,0,0,.13.968,1.379,1.379,0,0,0,.421.64,1.783,1.783,0,0,0,.735.35,4.633,4.633,0,0,0,1.08.105,2.275,2.275,0,0,0,1.676-.49,2.219,2.219,0,0,0,.463-1.576Z" transform="translate(-330.027 -186.354)" fill="#fff"/>
          <path id="Path_14318" data-name="Path 14318" d="M385.334,193.239a3.751,3.751,0,0,1,1.038-2.873,4.51,4.51,0,0,1,3.187-.979,6.129,6.129,0,0,1,1.96.27,3.316,3.316,0,0,1,1.309.771,3.008,3.008,0,0,1,.745,1.213,4.989,4.989,0,0,1,.241,1.6,3.743,3.743,0,0,1-1.048,2.874,4.558,4.558,0,0,1-3.2.979,6.182,6.182,0,0,1-1.943-.27,3.433,3.433,0,0,1-1.321-.771,2.934,2.934,0,0,1-.741-1.213A5.119,5.119,0,0,1,385.334,193.239Zm1.447,0a4.479,4.479,0,0,0,.154,1.19,2.775,2.775,0,0,0,.49.99,2.324,2.324,0,0,0,.859.681,2.924,2.924,0,0,0,1.284.255,2.714,2.714,0,0,0,2.087-.766,3.367,3.367,0,0,0,.712-2.351,4.567,4.567,0,0,0-.159-1.181,2.923,2.923,0,0,0-.484-1,2.4,2.4,0,0,0-.863-.686,2.992,2.992,0,0,0-1.3-.253,2.684,2.684,0,0,0-2.067.766A3.342,3.342,0,0,0,386.781,193.239Z" transform="translate(-328.26 -186.38)" fill="#fff"/>
          <path id="Path_14319" data-name="Path 14319" d="M399.173,189.483h1.321l.005,4.991a2.172,2.172,0,0,1-.9,1.953,4.648,4.648,0,0,1-2.573.6,5.288,5.288,0,0,1-2.832-.586,2,2,0,0,1-.889-1.8l-.005-5.162h1.374l0,4.747a3.166,3.166,0,0,0,.13.968,1.344,1.344,0,0,0,.421.638,1.752,1.752,0,0,0,.732.351,4.7,4.7,0,0,0,1.08.107,2.276,2.276,0,0,0,1.676-.49,2.216,2.216,0,0,0,.465-1.574Z" transform="translate(-326.237 -186.355)" fill="#fff"/>
          <path id="Path_14320" data-name="Path 14320" d="M400.608,195.968a5.931,5.931,0,0,0,.982.261,7.59,7.59,0,0,0,1.437.122,4.021,4.021,0,0,0,1.665-.293.959.959,0,0,0,.64-.921.916.916,0,0,0-.367-.722,4.127,4.127,0,0,0-.915-.571c-.365-.173-.76-.344-1.181-.51a10.15,10.15,0,0,1-1.18-.553,3.637,3.637,0,0,1-.918-.7,1.325,1.325,0,0,1-.365-.948,1.4,1.4,0,0,1,.923-1.324,5.731,5.731,0,0,1,2.408-.431,12.394,12.394,0,0,1,1.632.1,6.437,6.437,0,0,1,1.154.243l-.441.7a5.431,5.431,0,0,0-.941-.212,9.465,9.465,0,0,0-1.421-.1,2.968,2.968,0,0,0-1.465.282.819.819,0,0,0-.475.709.832.832,0,0,0,.365.658,4.782,4.782,0,0,0,.917.543c.367.171.761.341,1.183.515a9.949,9.949,0,0,1,1.181.581,3.871,3.871,0,0,1,.918.722,1.4,1.4,0,0,1,.367.958,1.63,1.63,0,0,1-.956,1.47,5.567,5.567,0,0,1-2.689.532,11.439,11.439,0,0,1-1.806-.117,6.736,6.736,0,0,1-1.126-.266Z" transform="translate(-324.499 -186.381)" fill="#fff"/>
          <path id="Path_14321" data-name="Path 14321" d="M488.632,189.483h1.374l-.005,7.45h-1.372Z" transform="translate(-302.01 -186.355)" fill="#fff"/>
          <path id="Path_14322" data-name="Path 14322" d="M493.416,192.231l-.786-1.17h-.056l.2,1.17v4.726h-1.321l0-7.566h.823l4.743,4.832.751,1.117h.074l-.2-1.117,0-4.716h1.317l0,7.567h-.843Z" transform="translate(-301.292 -186.379)" fill="#fff"/>
          <path id="Path_14323" data-name="Path 14323" d="M505.952,190.22H502.8l0,6.716h-1.375l0-6.716h-3.15v-.735l7.677,0Z" transform="translate(-299.558 -186.355)" fill="#fff"/>
          <path id="Path_14324" data-name="Path 14324" d="M505.171,189.485h5.695v.734h-4.323l0,2.522h3.978l0,.734h-3.973l0,2.724,4.413,0v.734h-5.788Z" transform="translate(-297.807 -186.355)" fill="#fff"/>
          <path id="Path_14325" data-name="Path 14325" d="M514.664,193.249H518.2v3.277a4.436,4.436,0,0,1-1.319.421,9.361,9.361,0,0,1-1.632.143,7.219,7.219,0,0,1-1.859-.223,3.778,3.778,0,0,1-1.418-.7,3.123,3.123,0,0,1-.907-1.2,4.266,4.266,0,0,1-.321-1.734,3.743,3.743,0,0,1,.388-1.771,3.356,3.356,0,0,1,1.036-1.191,4.393,4.393,0,0,1,1.484-.675,6.843,6.843,0,0,1,1.713-.213,13.075,13.075,0,0,1,1.475.069,6.47,6.47,0,0,1,1.013.187l-.329.724a4.942,4.942,0,0,0-.869-.181,9.1,9.1,0,0,0-1.164-.064,4.619,4.619,0,0,0-1.226.159,2.883,2.883,0,0,0-1.054.527,2.584,2.584,0,0,0-.742.962,3.5,3.5,0,0,0-.277,1.469,2.959,2.959,0,0,0,.87,2.358,3.5,3.5,0,0,0,2.388.76,4.032,4.032,0,0,0,1.578-.263v-2.15l-2.362-.211Z" transform="translate(-296.39 -186.38)" fill="#fff"/>
          <path id="Path_14326" data-name="Path 14326" d="M517.941,189.6c.4-.054.848-.093,1.331-.114s.926-.03,1.327-.028a8.572,8.572,0,0,1,1.352.109,3.792,3.792,0,0,1,1.112.347,2.051,2.051,0,0,1,.747.633,1.605,1.605,0,0,1,.267.974,1.782,1.782,0,0,1-.662,1.411,3.494,3.494,0,0,1-1.687.7l.685.4,2.469,2.985-1.592-.01-2.685-3.263-1.37-.168-.065,3.4-1.375-.009Zm1.306,3.445,1.1.008A3.158,3.158,0,0,0,522,192.7a1.26,1.26,0,0,0,.625-1.134,1.154,1.154,0,0,0-.482-.973,2.442,2.442,0,0,0-1.487-.393c-.242,0-.5,0-.759.011a5.97,5.97,0,0,0-.6.044Z" transform="translate(-294.597 -186.361)" fill="#fff"/>
          <path id="Path_14327" data-name="Path 14327" d="M529.282,194.983l-3.616-.041-1.092,2.072L523.217,197l4.127-7.52.751.006,3.6,7.611-1.447-.018Zm-3.227-.73,2.922.035-1.033-2.326-.3-1.127h-.039l-.4,1.141Z" transform="translate(-293.22 -186.356)" fill="#fff"/>
          <path id="Path_14328" data-name="Path 14328" d="M537.258,190.644l-3.143-.13-.835,6.7-1.37-.056.833-6.7-3.14-.13.092-.732,7.654.317Z" transform="translate(-291.597 -186.327)" fill="#fff"/>
          <path id="Path_14329" data-name="Path 14329" d="M537.735,190l1.36.118-1.9,7.368-1.359-.118Z" transform="translate(-290.013 -186.224)" fill="#fff"/>
          <path id="Path_14330" data-name="Path 14330" d="M539.466,193.779a4.991,4.991,0,0,1,5.8-3.1,5.092,5.092,0,0,1,1.773.552,2.219,2.219,0,0,1,.927.939,2.371,2.371,0,0,1,.178,1.283,6.111,6.111,0,0,1-2.771,4.2,5.484,5.484,0,0,1-3.524.474,5.124,5.124,0,0,1-1.76-.549,2.277,2.277,0,0,1-.931-.941,2.2,2.2,0,0,1-.178-1.283A5.575,5.575,0,0,1,539.466,193.779Zm1.4.214a4.777,4.777,0,0,0-.379,1.174,2.278,2.278,0,0,0,.031,1.028,1.526,1.526,0,0,0,.529.785,2.306,2.306,0,0,0,1.126.436,3.37,3.37,0,0,0,2.359-.431,4.789,4.789,0,0,0,1.732-2.167,4.691,4.691,0,0,0,.375-1.166,2.318,2.318,0,0,0-.03-1.032,1.508,1.508,0,0,0-.526-.791,2.383,2.383,0,0,0-1.145-.44,3.369,3.369,0,0,0-2.341.436A4.78,4.78,0,0,0,540.867,193.994Z" transform="translate(-289.22 -186.074)" fill="#fff"/>
          <path id="Path_14331" data-name="Path 14331" d="M550.486,194.73l.1-1.254-.049-.013-.635,1.117-3.3,4.323-1.208-.307,5.292-6.922.755.191.958,5.526-.094,1.2.069.016.6-1.068,3.3-4.313,1.205.306-5.292,6.923-.773-.2Z" transform="translate(-287.585 -185.798)" fill="#fff"/>
        </g>
      </g>
    </g>
    <ellipse id="Ellipse_582" data-name="Ellipse 582" cx="13.478" cy="23.515" rx="13.478" ry="23.515" transform="translate(616.622 215.093)" fill="url(#radial-gradient-66)" style="mix-blend-mode: screen;isolation: isolate"/>
    <ellipse id="Ellipse_583" data-name="Ellipse 583" cx="16.315" cy="26.993" rx="16.315" ry="26.993" transform="translate(329.541 97.381)" fill="url(#radial-gradient-67)" style="mix-blend-mode: screen;isolation: isolate"/>
    <ellipse id="Ellipse_584" data-name="Ellipse 584" cx="16.315" cy="26.993" rx="16.315" ry="26.993" transform="translate(459.343 264.18)" fill="url(#radial-gradient-68)" style="mix-blend-mode: screen;isolation: isolate"/>
  </g>
</svg>
