<svg xmlns="http://www.w3.org/2000/svg" width="549" height="525" viewBox="0 0 549 525">
  <g id="drupal_developement" transform="translate(-3992 -2726)">
    <g id="drupal-logo" transform="translate(4214.997 2897.011)">
      <path id="Drupal" d="M97.266,26.977c-7.428-4.619-14.452-6.43-21.461-11.049C71.459,13,65.434,6.012,60.378,0c-2.205,9.517-3.923,13.565-7.288,16.36-7.14,5.58-11.634,7.251-17.808,10.612C30.092,29.632,1.908,46.4,1.908,82.457s30.44,62.6,64.217,62.6c33.8,0,63.122-24.456,63.122-61.483S101.755,29.767,97.266,26.977Zm26.879,65.573c0,4.341-1.4,12.158-4.763,17.047-3.361,4.907-5.459,6.717-9.4,6.439-5.051-.427-15.143-16.076-21.587-16.355-8.124-.279-25.8,16.926-39.678,16.926-8.426,0-10.942-1.258-13.741-3.083-4.215-2.934-6.318-7.414-6.179-13.56.149-10.909,10.371-21.09,23.286-21.225,16.4-.144,27.761,16.192,36.029,16.062,7.019-.13,20.482-13.839,27.065-13.839C122.181,80.953,124.145,88.2,124.145,92.549Z" transform="translate(-1.908)" fill="#5cbdff"/>
    </g>
    <g id="Group_8586" data-name="Group 8586">
      <text id="Theme_Development" data-name="Theme Development" transform="translate(4085 3168)" fill="#5cbdff" font-size="20" font-family="Roboto-Medium, Roboto" font-weight="500"><tspan x="-92.461" y="0">Theme Development</tspan></text>
      <g id="Group_8579" data-name="Group 8579">
        <g id="Group_8575" data-name="Group 8575" transform="translate(4029 3010.226)">
          <g id="drupal-logo-2" data-name="drupal-logo" transform="translate(0 0)">
            <path id="Drupal-2" data-name="Drupal" d="M85.55,23.662c-6.515-4.052-12.676-5.64-18.825-9.691C62.914,11.4,57.629,5.273,53.194,0,51.26,8.348,49.754,11.9,46.8,14.35c-6.263,4.895-10.2,6.36-15.62,9.309C26.629,25.991,1.908,40.7,1.908,72.326s26.7,54.906,56.328,54.906c29.648,0,55.367-21.451,55.367-53.929S89.488,26.109,85.55,23.662Z" transform="translate(-1.908)" fill="#57b3f1"/>
          </g>
          <g id="drupal-logo-3" data-name="drupal-logo" transform="translate(6.794 7.927)">
            <path id="Drupal-3" data-name="Drupal" d="M75.347,20.776c-5.72-3.557-11.13-4.952-16.528-8.509C55.472,10.011,50.832,4.63,46.938,0c-1.7,7.329-3.021,10.447-5.613,12.6-5.5,4.3-8.96,5.585-13.715,8.173-4,2.049-25.7,14.959-25.7,42.731s23.443,48.209,49.456,48.209c26.031,0,48.613-18.834,48.613-47.351S78.8,22.925,75.347,20.776Z" transform="translate(-1.908)" fill="#5cbdff"/>
          </g>
        </g>
        <g id="computer_template" data-name="computer template" transform="translate(4053 3048)">
          <path id="Path_10712" data-name="Path 10712" d="M59.086,14.018H54.258a.969.969,0,0,0-.26-.851L46.917,6.086a1.01,1.01,0,0,0-1.422,0l-7.441,7.451V3a1,1,0,0,0-1-1H27.038a1,1,0,0,0-1,1V13.537L18.595,6.086a1.01,1.01,0,0,0-1.422,0l-7.081,7.081a.969.969,0,0,0-.26.851H5a3.014,3.014,0,0,0-3,3V49.071a3.014,3.014,0,0,0,3,3h19.85l-.671,4.006H21.029a1.016,1.016,0,0,0-.8.4l-3,4.006a1,1,0,0,0-.09,1.052.978.978,0,0,0,.891.551H46.066a.978.978,0,0,0,.891-.551,1,1,0,0,0-.09-1.052l-3-4.006a1.015,1.015,0,0,0-.8-.4H39.907l-.671-4.006h19.85a3.014,3.014,0,0,0,3-3V17.023a3.014,3.014,0,0,0-3-3ZM46.206,8.209l5.668,5.668L49.752,16l-5.668-5.668Zm-3.535,3.545,5.658,5.658-2.123,2.123-5.658-5.658Zm-4.617,4.607,1.072-1.072,5.668,5.668-2.123,2.123-4.617-4.617Zm8.012,7.671v8.012h-3v-6.53l1.482-1.482Zm-9.014,0a1,1,0,0,0,1-1V21.289l3.2,3.2-2.133,2.133-2.594-2.594Zm4.006,3.485v4.527h-3V28.38l.361.371a1.016,1.016,0,0,0,1.422,0ZM28.039,4h8.012v3H28.039Zm0,5.008h8.012v3H28.039Zm0,5.007h8.012v3h-6.53L28.039,15.54Zm4.717,6.229-1.232-1.222h4.527v3H32.386l.371-.361A1.01,1.01,0,0,0,32.756,20.247ZM27.038,22.03H25.295l3.2-3.2,2.133,2.133-2.594,2.594v-.521A1,1,0,0,0,27.038,22.03Zm-1,2v8.012h-3V24.033Zm1.052-6.62L22.471,22.03h-2.1L19.3,20.958l5.668-5.668Zm-6.059,6.62v8.012h-3V24.033Zm2.514-10.155-5.658,5.658-2.123-2.123,5.658-5.658ZM17.884,8.209l2.123,2.123L14.338,16l-2.123-2.123ZM42.561,58.084l1.5,2H20.027l1.5-2Zm-16.344-2,.671-4.006H37.2l.671,4.006Zm33.871-7.011a1,1,0,0,1-1,1H5a1,1,0,0,1-1-1v-3H60.087Zm0-5.008H4V17.023a1,1,0,0,1,1-1h6.53l6.009,6.009H7.008a1,1,0,0,0-1,1V33.047a1,1,0,0,0,1,1h20.03a1,1,0,0,0,1-1v-6.67l2.344-2.344h3.325l2.344,2.344v6.67a1,1,0,0,0,1,1h20.03a1,1,0,0,0,1-1V23.032a1,1,0,0,0-1-1H46.547l6.009-6.009h6.53a1,1,0,0,1,1,1ZM16.021,24.033v8.012h-3V24.033Zm-5.008,0v8.012h-3V24.033Zm37.056,8.012V24.033h3v8.012Zm5.008,0V24.033h3v8.012Z" transform="translate(0)" fill="#fff" stroke="#fff" stroke-width="1"/>
          <path id="Path_10713" data-name="Path 10713" d="M7,42.009h4.006a1,1,0,0,0,1-1V37a1,1,0,0,0-1-1H7a1,1,0,0,0-1,1v4.006A1,1,0,0,0,7,42.009ZM8,38h2v2H8Z" transform="translate(0.006 0.051)" fill="#fff" stroke="#fff" stroke-width="1"/>
          <path id="Path_10714" data-name="Path 10714" d="M15,42.009h4.006a1,1,0,0,0,1-1V37a1,1,0,0,0-1-1H15a1,1,0,0,0-1,1v4.006A1,1,0,0,0,15,42.009ZM16,38h2v2H16Z" transform="translate(0.018 0.051)" fill="#fff" stroke="#fff" stroke-width="1"/>
          <path id="Path_10715" data-name="Path 10715" d="M23,42.009h4.006a1,1,0,0,0,1-1V37a1,1,0,0,0-1-1H23a1,1,0,0,0-1,1v4.006A1,1,0,0,0,23,42.009ZM24,38h2v2H24Z" transform="translate(0.03 0.051)" fill="#fff" stroke="#fff" stroke-width="1"/>
          <path id="Path_10716" data-name="Path 10716" d="M37,42.009h4.006a1,1,0,0,0,1-1V37a1,1,0,0,0-1-1H37a1,1,0,0,0-1,1v4.006A1,1,0,0,0,37,42.009ZM38,38h2v2H38Z" transform="translate(0.051 0.051)" fill="#fff" stroke="#fff" stroke-width="1"/>
          <path id="Path_10717" data-name="Path 10717" d="M45,42.009h4.006a1,1,0,0,0,1-1V37a1,1,0,0,0-1-1H45a1,1,0,0,0-1,1v4.006A1,1,0,0,0,45,42.009ZM46,38h2v2H46Z" transform="translate(0.063 0.051)" fill="#fff" stroke="#fff" stroke-width="1"/>
          <path id="Path_10718" data-name="Path 10718" d="M53,42.009h4.006a1,1,0,0,0,1-1V37a1,1,0,0,0-1-1H53a1,1,0,0,0-1,1v4.006A1,1,0,0,0,53,42.009ZM54,38h2v2H54Z" transform="translate(0.075 0.051)" fill="#fff" stroke="#fff" stroke-width="1"/>
          <rect id="Rectangle_470" data-name="Rectangle 470" width="6" height="4" transform="translate(29 37)" fill="#fff" stroke="#fff" stroke-width="1"/>
        </g>
      </g>
    </g>
    <g id="Group_8582" data-name="Group 8582">
      <text id="Modifying" transform="translate(4279 2879)" fill="#5cbdff" font-size="20" font-family="Roboto-Medium, Roboto" font-weight="500"><tspan x="-44.844" y="0">Modifying</tspan></text>
      <g id="Group_8578" data-name="Group 8578">
        <g id="Group_8570" data-name="Group 8570" transform="translate(4223.202 2726)">
          <g id="drupal-logo-4" data-name="drupal-logo" transform="translate(0)">
            <path id="Drupal-4" data-name="Drupal" d="M85.55,23.662c-6.515-4.052-12.676-5.64-18.825-9.691C62.914,11.4,57.629,5.273,53.194,0,51.26,8.348,49.754,11.9,46.8,14.35c-6.263,4.895-10.2,6.36-15.62,9.309C26.629,25.991,1.908,40.7,1.908,72.326s26.7,54.906,56.328,54.906c29.648,0,55.367-21.451,55.367-53.929S89.488,26.109,85.55,23.662Z" transform="translate(-1.908)" fill="#57b3f1"/>
          </g>
          <g id="drupal-logo-5" data-name="drupal-logo" transform="translate(6.794 7.927)">
            <path id="Drupal-5" data-name="Drupal" d="M75.347,20.776c-5.72-3.557-11.13-4.952-16.528-8.509C55.472,10.011,50.832,4.63,46.938,0c-1.7,7.329-3.021,10.447-5.613,12.6-5.5,4.3-8.96,5.585-13.715,8.173-4,2.049-25.7,14.959-25.7,42.731s23.443,48.209,49.456,48.209c26.031,0,48.613-18.834,48.613-47.351S78.8,22.925,75.347,20.776Z" transform="translate(-1.908)" fill="#5cbdff"/>
          </g>
        </g>
        <g id="add-anchor-point" transform="translate(4217.948 2765)">
          <path id="Path_10769" data-name="Path 10769" d="M58.881,81.7a3.591,3.591,0,0,0-3.036-1.745.283.283,0,0,0-.036-.008.159.159,0,0,0-.026.006A3.577,3.577,0,0,0,52.747,81.7l-12.83,21.7a6.269,6.269,0,0,0,.211,6.688l4.28,6.271a1.992,1.992,0,0,0-1.437,2.028l.415,10.945a2.079,2.079,0,0,0,2.076,2l20.695,0a2.078,2.078,0,0,0,2.076-2l.417-10.943a1.99,1.99,0,0,0-1.439-2.028l4.273-6.26a6.238,6.238,0,0,0,.217-6.69Zm5.274,45.471-16.693,0-.257-6.788H64.417Zm3.9-19.421-5.168,7.571a2.049,2.049,0,0,1-1.711.894h0l-10.728.006a2.071,2.071,0,0,1-1.719-.908l-5.16-7.559a2.1,2.1,0,0,1-.076-2.237L53.731,88.2l0,12.5a4.451,4.451,0,1,0,4.157,0l0-12.507,10.236,17.331A2.072,2.072,0,0,1,68.054,107.75Z" transform="translate(0 -69.776)" fill="#fff"/>
          <path id="Path_10770" data-name="Path 10770" d="M285.667,8.25h-5.134V3.118a3.117,3.117,0,1,0-6.234,0V8.25h-5.132a3.117,3.117,0,1,0,0,6.234H274.3v5.134a3.117,3.117,0,1,0,6.234,0V14.485h5.134a3.117,3.117,0,1,0,0-6.234Z" transform="translate(-198.117)" fill="#fff"/>
        </g>
      </g>
    </g>
    <g id="Group_8585" data-name="Group 8585">
      <g id="Group_8571" data-name="Group 8571" transform="translate(4223.202 3084.963)">
        <g id="drupal-logo-6" data-name="drupal-logo" transform="translate(0 0)">
          <path id="Drupal-6" data-name="Drupal" d="M85.55,23.662c-6.515-4.052-12.676-5.64-18.825-9.691C62.914,11.4,57.629,5.273,53.194,0,51.26,8.348,49.754,11.9,46.8,14.35c-6.263,4.895-10.2,6.36-15.62,9.309C26.629,25.991,1.908,40.7,1.908,72.326s26.7,54.906,56.328,54.906c29.648,0,55.367-21.451,55.367-53.929S89.488,26.109,85.55,23.662Z" transform="translate(-1.908)" fill="#57b3f1"/>
        </g>
        <g id="drupal-logo-7" data-name="drupal-logo" transform="translate(6.794 7.927)">
          <path id="Drupal-7" data-name="Drupal" d="M75.347,20.776c-5.72-3.557-11.13-4.952-16.528-8.509C55.472,10.011,50.832,4.63,46.938,0c-1.7,7.329-3.021,10.447-5.613,12.6-5.5,4.3-8.96,5.585-13.715,8.173-4,2.049-25.7,14.959-25.7,42.731s23.443,48.209,49.456,48.209c26.031,0,48.613-18.834,48.613-47.351S78.8,22.925,75.347,20.776Z" transform="translate(-1.908)" fill="#5cbdff"/>
        </g>
      </g>
      <text id="Skills" transform="translate(4279 3246)" fill="#5cbdff" font-size="20" font-family="Roboto-Medium, Roboto" font-weight="500"><tspan x="-24.077" y="0">Skills</tspan></text>
      <g id="Edit-Edit_Tools-Hand-Setting-Gear" data-name="Edit-Edit Tools-Hand-Setting-Gear" transform="translate(4246 3128.001)">
        <path id="Path_10771" data-name="Path 10771" d="M21,52H20V45a1,1,0,0,0-.134-.5l-7-12.124A3.979,3.979,0,0,0,10,30.44V22a4,4,0,0,0-8,0V46a1,1,0,0,0,.219.625L6,51.351V52H5a1,1,0,0,0-1,1v8a1,1,0,0,0,1,1H21a1,1,0,0,0,1-1V53A1,1,0,0,0,21,52ZM7.781,50.375,4,45.649V22a2,2,0,0,1,4,0v8.642a3.941,3.941,0,0,0-.6.269,4.008,4.008,0,0,0-1.463,5.465l7,12.124,1.732-1-7-12.124a2,2,0,1,1,3.464-2L18,45.268V52H8V51A1,1,0,0,0,7.781,50.375ZM20,60H6V54H20Z" fill="#fff"/>
        <rect id="Rectangle_477" data-name="Rectangle 477" width="2" height="2" transform="translate(16 56)" fill="#fff"/>
        <rect id="Rectangle_478" data-name="Rectangle 478" width="2" height="2" transform="translate(46 56)" fill="#fff"/>
        <path id="Path_10772" data-name="Path 10772" d="M58,18a4,4,0,0,0-4,4v8.44a3.979,3.979,0,0,0-2.866,1.936l-7,12.124A1,1,0,0,0,44,45v7H43a1,1,0,0,0-1,1v8a1,1,0,0,0,1,1H59a1,1,0,0,0,1-1V53a1,1,0,0,0-1-1H58v-.649l3.781-4.726A1,1,0,0,0,62,46V22A4,4,0,0,0,58,18Zm0,42H44V54H58Zm2-14.351-3.781,4.726A1,1,0,0,0,56,51v1H46V45.268l6.866-11.892a2,2,0,1,1,3.464,2l-7,12.124,1.732,1,7-12.124A4.008,4.008,0,0,0,56.6,30.911a3.887,3.887,0,0,0-.6-.269V22a2,2,0,0,1,4,0Z" fill="#fff"/>
        <path id="Path_10773" data-name="Path 10773" d="M43.406,42.179l-1.624-2.167a10.855,10.855,0,0,0,.678-1.639l2.682-.383A1,1,0,0,0,46,37V33a1,1,0,0,0-.858-.99l-2.682-.383a10.855,10.855,0,0,0-.678-1.639l1.624-2.167a1,1,0,0,0-.093-1.306l-2.828-2.828a1,1,0,0,0-1.307-.093L36.5,25.606l1.2,1.6,1.99-1.492,1.6,1.6L39.793,29.3a1,1,0,0,0-.06,1.11,8.859,8.859,0,0,1,.975,2.356,1,1,0,0,0,.828.744L44,33.867v2.266l-2.463.351a1,1,0,0,0-.828.744,8.859,8.859,0,0,1-.975,2.356,1,1,0,0,0,.06,1.11l1.492,1.991-1.6,1.6L37.7,42.794a1,1,0,0,0-1.111-.061,8.923,8.923,0,0,1-2.357.977,1,1,0,0,0-.742.827L33.133,47H30.867l-.352-2.463a1,1,0,0,0-.742-.827,8.923,8.923,0,0,1-2.357-.977,1,1,0,0,0-1.111.061l-1.99,1.492-1.6-1.6,1.492-1.991a1,1,0,0,0,.06-1.11,8.859,8.859,0,0,1-.975-2.356,1,1,0,0,0-.828-.744L20,36.133V33.867l2.463-.351a1,1,0,0,0,.828-.744,8.859,8.859,0,0,1,.975-2.356,1,1,0,0,0-.06-1.11l-1.492-1.991,1.6-1.6,1.99,1.492,1.2-1.6L24.821,23.6a1,1,0,0,0-1.307.093l-2.828,2.828a1,1,0,0,0-.093,1.306l1.624,2.167a10.855,10.855,0,0,0-.678,1.639l-2.682.383A1,1,0,0,0,18,33v4a1,1,0,0,0,.858.99l2.682.383a10.855,10.855,0,0,0,.678,1.639l-1.624,2.167a1,1,0,0,0,.093,1.306l2.828,2.828a1,1,0,0,0,1.307.093l2.166-1.625a10.86,10.86,0,0,0,1.639.679l.383,2.682A1,1,0,0,0,30,49h4a1,1,0,0,0,.99-.858l.383-2.682a10.86,10.86,0,0,0,1.639-.679l2.166,1.625a1,1,0,0,0,1.307-.093l2.828-2.828a1,1,0,0,0,.093-1.306Z" fill="#fff"/>
        <path id="Path_10774" data-name="Path 10774" d="M26.5,32.6a6,6,0,1,0,11,0l-1.833.8a4,4,0,1,1-7.334,0Z" fill="#fff"/>
        <path id="Path_10775" data-name="Path 10775" d="M35.429,20.379,36.9,17.447a1,1,0,0,0-.063-1l-4-6a1.039,1.039,0,0,0-1.664,0l-4,6a1,1,0,0,0-.063,1l1.466,2.932A2.978,2.978,0,0,0,29,25.816V36a1,1,0,0,0,1,1h4a1,1,0,0,0,1-1V25.816a2.978,2.978,0,0,0,.429-5.437ZM31,14.3V18h2V14.3l1.846,2.769L33.382,20H30.618l-1.464-2.928ZM31,35V26h2v9Zm3-11H30a1,1,0,0,1,0-2h4a1,1,0,0,1,0,2Z" fill="#fff"/>
        <path id="Path_10776" data-name="Path 10776" d="M17,8a3,3,0,0,0,2.816-2h4.953a13.891,13.891,0,0,0-6.732,11.173,3,3,0,1,0,2,.023A12.086,12.086,0,0,1,29.314,6.31a2.979,2.979,0,0,0,5.372,0A12.086,12.086,0,0,1,43.963,17.2a3,3,0,1,0,2-.023A13.891,13.891,0,0,0,39.231,6h4.953a3,3,0,1,0,0-2H34.816a2.982,2.982,0,0,0-5.632,0H19.816A2.995,2.995,0,1,0,17,8Zm2,13a1,1,0,1,1,1-1A1,1,0,0,1,19,21Zm26,0a1,1,0,1,1,1-1A1,1,0,0,1,45,21ZM47,4a1,1,0,1,1-1,1A1,1,0,0,1,47,4ZM32,4a1,1,0,1,1-1,1A1,1,0,0,1,32,4ZM17,4a1,1,0,1,1-1,1A1,1,0,0,1,17,4Z" fill="#fff"/>
      </g>
    </g>
    <g id="Group_8583" data-name="Group 8583">
      <text id="Experiences" transform="translate(4480 2978)" fill="#5cbdff" font-size="20" font-family="Roboto-Medium, Roboto" font-weight="500"><tspan x="-54.438" y="0">Experiences</tspan></text>
      <g id="Group_8577" data-name="Group 8577">
        <g id="Group_8572" data-name="Group 8572" transform="translate(4419.669 2820.553)">
          <g id="drupal-logo-8" data-name="drupal-logo" transform="translate(0 0)">
            <path id="Drupal-8" data-name="Drupal" d="M85.55,23.662c-6.515-4.052-12.676-5.64-18.825-9.691C62.914,11.4,57.629,5.273,53.194,0,51.26,8.348,49.754,11.9,46.8,14.35c-6.263,4.895-10.2,6.36-15.62,9.309C26.629,25.991,1.908,40.7,1.908,72.326s26.7,54.906,56.328,54.906c29.648,0,55.367-21.451,55.367-53.929S89.488,26.109,85.55,23.662Z" transform="translate(-1.908)" fill="#57b3f1"/>
          </g>
          <g id="drupal-logo-9" data-name="drupal-logo" transform="translate(6.794 7.927)">
            <path id="Drupal-9" data-name="Drupal" d="M75.347,20.776c-5.72-3.557-11.13-4.952-16.528-8.509C55.472,10.011,50.832,4.63,46.938,0c-1.7,7.329-3.021,10.447-5.613,12.6-5.5,4.3-8.96,5.585-13.715,8.173-4,2.049-25.7,14.959-25.7,42.731s23.443,48.209,49.456,48.209c26.031,0,48.613-18.834,48.613-47.351S78.8,22.925,75.347,20.776Z" transform="translate(-1.908)" fill="#5cbdff"/>
          </g>
        </g>
        <g id="practice" transform="translate(4445 2868)">
          <path id="Path_10777" data-name="Path 10777" d="M290.063,254.156l-.046,0a3.169,3.169,0,0,0-2.952,2.4l-.973,4a13.065,13.065,0,0,1-6.975,8.67,1.2,1.2,0,0,1-1.7-1.28l.768-4.4a2.46,2.46,0,0,0-4.5-1.75l-4.971,7.766a1.824,1.824,0,0,0-2.353.188l-3.606,3.606a.908.908,0,0,0,0,1.284l10.47,10.471a.909.909,0,0,0,1.285,0l3.606-3.606a1.824,1.824,0,0,0,.1-2.465,28.461,28.461,0,0,0,3.357-2.193.908.908,0,0,0-1.1-1.447,27.666,27.666,0,0,1-3.588,2.3l-6.845-6.845,5.172-8.079a.644.644,0,0,1,1.176.458l-.768,4.4a3.012,3.012,0,0,0,4.29,3.224,14.876,14.876,0,0,0,7.942-9.872l.973-4c.313-1.286,2.164-1.346,2.055-.219A26.662,26.662,0,0,1,283.13,273.1a.908.908,0,0,0,1.279,1.29,28.482,28.482,0,0,0,8.284-17.441A2.547,2.547,0,0,0,290.063,254.156ZM273.87,283.185,264.685,274l2.971-2.965,9.178,9.186Z" transform="translate(-230.705 -223.378)" fill="#fff"/>
          <path id="Path_10778" data-name="Path 10778" d="M151.574,15.318l1.208.669a.064.064,0,0,1,.024.024l1.889,3.272a.062.062,0,0,1,.008.033L154.68,20.7a1.88,1.88,0,0,0,.939,1.66l2.737,1.58a1.879,1.879,0,0,0,1.908-.016l1.184-.711a.063.063,0,0,1,.032-.009h3.779a.063.063,0,0,1,.033.009l1.184.711a1.879,1.879,0,0,0,1.907.016l2.737-1.58a1.88,1.88,0,0,0,.939-1.66l-.024-1.381a.063.063,0,0,1,.008-.033l1.89-3.272a.063.063,0,0,1,.024-.023l1.208-.669a1.88,1.88,0,0,0,.968-1.644v-3.16a1.88,1.88,0,0,0-.968-1.644L173.956,8.2a.065.065,0,0,1-.024-.024l-.109-.189a.908.908,0,0,0-1.573.908l.109.189a1.88,1.88,0,0,0,.717.7l1.208.669a.063.063,0,0,1,.033.055v3.16a.063.063,0,0,1-.032.055l-1.208.67a1.879,1.879,0,0,0-.716.7l-1.89,3.272a1.881,1.881,0,0,0-.251.972l.024,1.381a.063.063,0,0,1-.031.056l-2.737,1.58a.063.063,0,0,1-.064,0l-1.184-.711a1.88,1.88,0,0,0-.968-.268H161.48a1.878,1.878,0,0,0-.968.268l-1.184.711a.063.063,0,0,1-.064,0l-2.737-1.58a.063.063,0,0,1-.032-.056l.024-1.381a1.881,1.881,0,0,0-.252-.973L154.379,15.1a1.88,1.88,0,0,0-.717-.7l-1.208-.669a.063.063,0,0,1-.032-.055v-3.16a.063.063,0,0,1,.032-.055l1.208-.67a1.879,1.879,0,0,0,.716-.7l1.89-3.272a1.881,1.881,0,0,0,.251-.972L156.5,3.461a.063.063,0,0,1,.031-.056l2.737-1.58a.063.063,0,0,1,.064,0l1.184.711a1.88,1.88,0,0,0,.968.268h3.779a1.881,1.881,0,0,0,.968-.268l1.184-.711a.062.062,0,0,1,.064,0l2.737,1.58a.063.063,0,0,1,.031.055l-.024,1.381a1.888,1.888,0,0,0,.184.839.908.908,0,1,0,1.64-.78.07.07,0,0,1-.008-.028l.024-1.381a1.88,1.88,0,0,0-.939-1.66L168.382.252a1.879,1.879,0,0,0-1.908.017l-1.183.711a.064.064,0,0,1-.033.009H161.48a.064.064,0,0,1-.033-.009L160.264.269a1.88,1.88,0,0,0-1.908-.017l-2.737,1.58a1.88,1.88,0,0,0-.94,1.66l.024,1.381a.063.063,0,0,1-.008.033l-1.89,3.272a.063.063,0,0,1-.024.023l-1.208.67a1.881,1.881,0,0,0-.968,1.644v3.16a1.88,1.88,0,0,0,.968,1.644Z" transform="translate(-132.368)" fill="#fff"/>
          <path id="Path_10779" data-name="Path 10779" d="M216.135,54.52a5.493,5.493,0,1,0,5.493,5.493A5.5,5.5,0,0,0,216.135,54.52Zm0,9.169a3.676,3.676,0,1,1,3.676-3.676A3.68,3.68,0,0,1,216.135,63.689Z" transform="translate(-185.135 -47.918)" fill="#fff"/>
          <path id="Path_10780" data-name="Path 10780" d="M362.785,187.826a4.087,4.087,0,1,0-4.087-4.087A4.091,4.091,0,0,0,362.785,187.826Zm0-6.357a2.27,2.27,0,1,1-2.271,2.27A2.273,2.273,0,0,1,362.785,181.468Z" transform="translate(-315.262 -157.897)" fill="#fff"/>
          <path id="Path_10781" data-name="Path 10781" d="M319.9,144.555l.016.892-1.245,2.156-.78.432a1.582,1.582,0,0,0-.815,1.383v2.191a1.582,1.582,0,0,0,.815,1.383l.78.433,1.245,2.156-.016.892a1.583,1.583,0,0,0,.791,1.4l1.9,1.1a1.582,1.582,0,0,0,1.605-.014l.765-.46h2.49l.765.46a1.583,1.583,0,0,0,1.605.014l1.9-1.1a1.582,1.582,0,0,0,.791-1.4l-.016-.892,1.245-2.156.781-.433a1.583,1.583,0,0,0,.815-1.383V149.42a1.582,1.582,0,0,0-.815-1.383l-.78-.433-1.245-2.156.016-.892a1.582,1.582,0,0,0-.79-1.4l-1.9-1.1a1.583,1.583,0,0,0-1.605.014l-.765.46h-2.49l-.765-.46a1.583,1.583,0,0,0-1.605-.014l-1.9,1.1A1.582,1.582,0,0,0,319.9,144.555Zm1.818.107,1.658-.957.7.422a1.581,1.581,0,0,0,.814.226h2.62a1.583,1.583,0,0,0,.815-.226l.7-.422,1.658.957-.014.819a1.581,1.581,0,0,0,.212.818l1.31,2.268a1.58,1.58,0,0,0,.6.593l.716.4v1.914l-.717.4a1.581,1.581,0,0,0-.6.592l-1.31,2.269a1.583,1.583,0,0,0-.212.819l.014.819-1.658.957-.7-.422a1.582,1.582,0,0,0-.815-.226h-2.62a1.584,1.584,0,0,0-.815.226l-.7.422-1.658-.957.014-.819a1.582,1.582,0,0,0-.212-.818l-1.31-2.268a1.58,1.58,0,0,0-.6-.593l-.716-.4v-1.914l.716-.4a1.579,1.579,0,0,0,.6-.593l1.31-2.268a1.581,1.581,0,0,0,.212-.819Z" transform="translate(-278.677 -124.674)" fill="#fff"/>
          <path id="Path_10782" data-name="Path 10782" d="M89.891,187.826a4.087,4.087,0,1,0-4.087-4.087A4.091,4.091,0,0,0,89.891,187.826Zm0-6.357a2.27,2.27,0,1,1-2.27,2.27A2.273,2.273,0,0,1,89.891,181.468Z" transform="translate(-75.413 -157.897)" fill="#fff"/>
          <path id="Path_10783" data-name="Path 10783" d="M44.991,152.992l.78.433,1.245,2.156-.016.892a1.583,1.583,0,0,0,.791,1.4l1.9,1.1a1.582,1.582,0,0,0,1.606-.014l.765-.46h2.49l.765.46a1.582,1.582,0,0,0,1.605.014l1.9-1.1a1.582,1.582,0,0,0,.791-1.4l-.016-.892,1.245-2.156.781-.433a1.583,1.583,0,0,0,.815-1.383v-2.191a1.582,1.582,0,0,0-.815-1.383l-.78-.433-1.245-2.156.016-.892a1.583,1.583,0,0,0-.791-1.4l-1.9-1.1a1.582,1.582,0,0,0-1.605.014l-.765.46h-2.49l-.765-.46a1.583,1.583,0,0,0-1.605-.014l-1.9,1.1a1.582,1.582,0,0,0-.791,1.4l.016.892L45.771,147.6l-.78.433a1.582,1.582,0,0,0-.815,1.383v2.191A1.583,1.583,0,0,0,44.991,152.992Zm1-3.436.716-.4a1.581,1.581,0,0,0,.6-.593l1.31-2.269a1.583,1.583,0,0,0,.212-.818l-.014-.819,1.658-.957.7.422a1.581,1.581,0,0,0,.815.226h2.62a1.583,1.583,0,0,0,.814-.226l.7-.422,1.658.957-.014.819a1.583,1.583,0,0,0,.212.818l1.31,2.269a1.582,1.582,0,0,0,.6.593l.716.4v1.914l-.716.4a1.581,1.581,0,0,0-.6.593l-1.31,2.269a1.583,1.583,0,0,0-.211.818l.014.819-1.658.957-.7-.422a1.581,1.581,0,0,0-.815-.226h-2.62a1.582,1.582,0,0,0-.814.226l-.7.422-1.658-.957.014-.819a1.583,1.583,0,0,0-.212-.818l-1.31-2.269a1.582,1.582,0,0,0-.6-.592l-.716-.4v-1.914Z" transform="translate(-38.826 -124.672)" fill="#fff"/>
          <path id="Path_10784" data-name="Path 10784" d="M26.342,269.748a1.824,1.824,0,0,0-2.353-.188l-4.971-7.766a2.46,2.46,0,0,0-4.5,1.75l.768,4.4a1.2,1.2,0,0,1-1.7,1.28,13.065,13.065,0,0,1-6.975-8.67l-.973-4a3.169,3.169,0,0,0-2.952-2.4l-.045,0a2.548,2.548,0,0,0-2.63,2.791,28.409,28.409,0,0,0,14.474,22.093,1.824,1.824,0,0,0,.1,2.466l3.606,3.606a.909.909,0,0,0,1.284,0l4.03-4.03a.908.908,0,0,0-1.284-1.284l-3.387,3.387-2.964-2.971,9.186-9.178L28.022,274l-3.231,3.231a.908.908,0,0,0,1.284,1.284l3.873-3.873a.908.908,0,0,0,0-1.285ZM1.82,256.769a.73.73,0,0,1,.754-.8l.045,0a1.328,1.328,0,0,1,1.255,1.018l.973,4a14.876,14.876,0,0,0,7.942,9.872,3.012,3.012,0,0,0,4.29-3.224l-.768-4.4a.644.644,0,0,1,1.176-.458l5.172,8.079L15.815,277.7a26.8,26.8,0,0,1-14-20.929Z" transform="translate(0 -223.375)" fill="#fff"/>
        </g>
      </g>
    </g>
    <g id="Group_8581" data-name="Group 8581">
      <text id="Web_Applications" data-name="Web Applications" transform="translate(4085 2978)" fill="#5cbdff" font-size="20" font-family="Roboto-Medium, Roboto" font-weight="500"><tspan x="-77.861" y="0">Web Applications</tspan></text>
      <g id="Group_8580" data-name="Group 8580">
        <g id="Group_8574" data-name="Group 8574" transform="translate(4029 2820.553)">
          <g id="drupal-logo-10" data-name="drupal-logo" transform="translate(0 0)">
            <path id="Drupal-10" data-name="Drupal" d="M85.55,23.662c-6.515-4.052-12.676-5.64-18.825-9.691C62.914,11.4,57.629,5.273,53.194,0,51.26,8.348,49.754,11.9,46.8,14.35c-6.263,4.895-10.2,6.36-15.62,9.309C26.629,25.991,1.908,40.7,1.908,72.326s26.7,54.906,56.328,54.906c29.648,0,55.367-21.451,55.367-53.929S89.488,26.109,85.55,23.662Z" transform="translate(-1.908)" fill="#57b3f1"/>
          </g>
          <g id="drupal-logo-11" data-name="drupal-logo" transform="translate(6.794 7.927)">
            <path id="Drupal-11" data-name="Drupal" d="M75.347,20.776c-5.72-3.557-11.13-4.952-16.528-8.509C55.472,10.011,50.832,4.63,46.938,0c-1.7,7.329-3.021,10.447-5.613,12.6-5.5,4.3-8.96,5.585-13.715,8.173-4,2.049-25.7,14.959-25.7,42.731s23.443,48.209,49.456,48.209c26.031,0,48.613-18.834,48.613-47.351S78.8,22.925,75.347,20.776Z" transform="translate(-1.908)" fill="#5cbdff"/>
          </g>
        </g>
        <g id="programming" transform="translate(4055 2863)">
          <path id="Path_10785" data-name="Path 10785" d="M164.287,400v4.287H160v2.144h21.436v-2.144h-4.287V400h-2.144v4.287h-8.574V400Zm0,0" transform="translate(-138.564 -346.41)" fill="#fff" stroke="#fff" stroke-width="1"/>
          <path id="Path_10786" data-name="Path 10786" d="M61.092,0H3.215A3.219,3.219,0,0,0,0,3.215V48.231a3.219,3.219,0,0,0,3.215,3.215H61.092a3.219,3.219,0,0,0,3.215-3.215V3.215A3.219,3.219,0,0,0,61.092,0Zm1.072,48.231A1.073,1.073,0,0,1,61.092,49.3H3.215a1.073,1.073,0,0,1-1.072-1.072V38.584h60.02ZM2.144,36.441V3.215A1.073,1.073,0,0,1,3.215,2.144H61.092a1.073,1.073,0,0,1,1.072,1.072V36.441Zm0,0" fill="#fff" stroke="#fff" stroke-width="1"/>
          <path id="Path_10787" data-name="Path 10787" d="M228.287,314.144A2.144,2.144,0,1,1,226.144,312,2.144,2.144,0,0,1,228.287,314.144Zm0,0" transform="translate(-193.99 -270.2)" fill="#fff" stroke="#fff" stroke-width="1"/>
          <path id="Path_10788" data-name="Path 10788" d="M205.359,104a5.359,5.359,0,1,0,5.359,5.359A5.359,5.359,0,0,0,205.359,104Zm0,8.574a3.215,3.215,0,1,1,3.215-3.215A3.216,3.216,0,0,1,205.359,112.574Zm0,0" transform="translate(-173.205 -90.067)" fill="#fff" stroke="#fff" stroke-width="1"/>
          <path id="Path_10789" data-name="Path 10789" d="M153.77,42.3l2.876-2.876-6.062-6.062-2.876,2.875-.416-.174V32h-8.574v4.065l-.416.174-2.876-2.875-6.062,6.062,2.876,2.876-.174.416H128v8.574h4.065l.174.416-2.876,2.876,6.062,6.062,2.876-2.875.416.174V62.01h8.574V57.944l.416-.174,2.876,2.875,6.062-6.062-2.876-2.876.174-.416h4.065V42.717h-4.065Zm2.1,6.846h-3.349l-1.278,3.059,2.376,2.376-3.031,3.031-2.377-2.377-3.058,1.279v3.349h-4.287V56.517L137.8,55.238l-2.377,2.377-3.031-3.031,2.376-2.376-1.278-3.059h-3.349V44.861h3.349l1.278-3.059-2.376-2.376,3.031-3.031,2.377,2.377,3.058-1.279V34.143h4.287v3.349l3.058,1.279,2.377-2.377,3.031,3.031L151.238,41.8l1.278,3.059h3.349Zm0,0" transform="translate(-110.851 -27.712)" fill="#fff" stroke="#fff" stroke-width="1"/>
        </g>
      </g>
    </g>
    <g id="Group_8584" data-name="Group 8584">
      <text id="Development_Technologies" data-name="Development
Technologies" transform="translate(4480 3168)" fill="#5cbdff" font-size="20" font-family="Roboto-Medium, Roboto" font-weight="500"><tspan x="-58.916" y="0">Development</tspan><tspan x="-60.039" y="29">Technologies</tspan></text>
      <g id="Group_8576" data-name="Group 8576" transform="translate(0.331)">
        <g id="Group_8573" data-name="Group 8573" transform="translate(4419.669 3010.226)">
          <g id="drupal-logo-12" data-name="drupal-logo" transform="translate(0 0)">
            <path id="Drupal-12" data-name="Drupal" d="M85.55,23.662c-6.515-4.052-12.676-5.64-18.825-9.691C62.914,11.4,57.629,5.273,53.194,0,51.26,8.348,49.754,11.9,46.8,14.35c-6.263,4.895-10.2,6.36-15.62,9.309C26.629,25.991,1.908,40.7,1.908,72.326s26.7,54.906,56.328,54.906c29.648,0,55.367-21.451,55.367-53.929S89.488,26.109,85.55,23.662Z" transform="translate(-1.908)" fill="#57b3f1"/>
          </g>
          <g id="drupal-logo-13" data-name="drupal-logo" transform="translate(6.794 7.927)">
            <path id="Drupal-13" data-name="Drupal" d="M75.347,20.776c-5.72-3.557-11.13-4.952-16.528-8.509C55.472,10.011,50.832,4.63,46.938,0c-1.7,7.329-3.021,10.447-5.613,12.6-5.5,4.3-8.96,5.585-13.715,8.173-4,2.049-25.7,14.959-25.7,42.731s23.443,48.209,49.456,48.209c26.031,0,48.613-18.834,48.613-47.351S78.8,22.925,75.347,20.776Z" transform="translate(-1.908)" fill="#5cbdff"/>
          </g>
        </g>
        <g id="seo" transform="translate(4452.316 3057.82)">
          <g id="Group_8488" data-name="Group 8488" transform="translate(23.896 8.878)">
            <g id="Group_8487" data-name="Group 8487" transform="translate(0 0)">
              <rect id="Rectangle_463" data-name="Rectangle 463" width="26" height="1" transform="translate(-0.212 0.302)" fill="#fff" stroke="#fff" stroke-width="1"/>
            </g>
          </g>
          <g id="Group_8490" data-name="Group 8490" transform="translate(23.896 10.946)">
            <g id="Group_8489" data-name="Group 8489" transform="translate(0 0)">
              <rect id="Rectangle_464" data-name="Rectangle 464" width="17" height="2" transform="translate(-0.212 0.235)" fill="#fff" stroke="#fff" stroke-width="1"/>
            </g>
          </g>
          <g id="Group_8492" data-name="Group 8492" transform="translate(23.896 16.115)">
            <g id="Group_8491" data-name="Group 8491" transform="translate(0 0)">
              <rect id="Rectangle_465" data-name="Rectangle 465" width="17" height="2" transform="translate(-0.212 0.066)" fill="#fff" stroke="#fff" stroke-width="1"/>
            </g>
          </g>
          <g id="Group_8494" data-name="Group 8494" transform="translate(32.166 4.743)">
            <g id="Group_8493" data-name="Group 8493" transform="translate(0 0)">
              <rect id="Rectangle_466" data-name="Rectangle 466" width="18" height="2" transform="translate(-0.482 0.437)" fill="#fff" stroke="#fff" stroke-width="1"/>
            </g>
          </g>
          <g id="Group_8496" data-name="Group 8496" transform="translate(28.031 4.743)">
            <g id="Group_8495" data-name="Group 8495" transform="translate(0 0)">
              <rect id="Rectangle_467" data-name="Rectangle 467" width="2" height="2" transform="translate(-0.347 0.437)" fill="#fff" stroke="#fff" stroke-width="1"/>
            </g>
          </g>
          <g id="Group_8498" data-name="Group 8498" transform="translate(26.997 37.824)">
            <g id="Group_8497" data-name="Group 8497" transform="translate(0 0)">
              <rect id="Rectangle_468" data-name="Rectangle 468" width="1" height="2" transform="translate(-0.313 0.357)" fill="#fff" stroke="#fff" stroke-width="1"/>
            </g>
          </g>
          <g id="Group_8500" data-name="Group 8500" transform="translate(11.357 5.009)">
            <g id="Group_8499" data-name="Group 8499">
              <path id="Path_10665" data-name="Path 10665" d="M107.51,43.682l-1.338-1.338-1.893,1.893a.946.946,0,0,0,0,1.338l1.893,1.893,1.338-1.338-1.224-1.224Z" transform="translate(-104.002 -42.344)" fill="#fff" stroke="#fff" stroke-width="1"/>
            </g>
          </g>
          <g id="Group_8502" data-name="Group 8502" transform="translate(19.205 5.009)">
            <g id="Group_8501" data-name="Group 8501">
              <path id="Path_10666" data-name="Path 10666" d="M173.575,44.237l-1.893-1.893-1.338,1.338,1.224,1.224-1.224,1.224,1.338,1.338,1.893-1.893A.946.946,0,0,0,173.575,44.237Z" transform="translate(-170.344 -42.344)" fill="#fff" stroke="#fff" stroke-width="1"/>
            </g>
          </g>
          <g id="Group_8504" data-name="Group 8504" transform="translate(15.19 4.432)">
            <g id="Group_8503" data-name="Group 8503" transform="translate(0 0)">
              <rect id="Rectangle_469" data-name="Rectangle 469" width="5.986" height="1.892" transform="translate(0 5.678) rotate(-71.549)" fill="#fff" stroke="#fff" stroke-width="1"/>
            </g>
          </g>
          <g id="Group_8506" data-name="Group 8506" transform="translate(29.339 19.875)">
            <g id="Group_8505" data-name="Group 8505">
              <path id="Path_10667" data-name="Path 10667" d="M274.928,177.464v-7.571h-1.893v7.571h-1.893V168H269.25v9.464h-1.893v-4.732h-1.893v4.732h-1.893v-5.678h-1.893v5.678h-1.893v-3.786h-1.893v3.786H256v1.893h20.821v-1.893Z" transform="translate(-256 -168)" fill="#fff" stroke="#fff" stroke-width="1"/>
            </g>
          </g>
          <g id="Group_8508" data-name="Group 8508" transform="translate(0)">
            <g id="Group_8507" data-name="Group 8507" transform="translate(0)">
              <path id="Path_10668" data-name="Path 10668" d="M57.213,0H13.678A5.684,5.684,0,0,0,8,5.678V37.856a5.684,5.684,0,0,0,5.678,5.678H25.4l-3.786,7.571H16.518a2.839,2.839,0,1,0,0,5.678H54.374a2.839,2.839,0,1,0,0-5.678H49.281l-3.786-7.571H57.213a5.684,5.684,0,0,0,5.678-5.678V5.678A5.684,5.684,0,0,0,57.213,0ZM9.893,13.316l2.151,2.561a.946.946,0,0,0,.725.338h2.9a.946.946,0,0,0,.725-.338l2.152-2.561,2.124.69L20.9,17.34a.947.947,0,0,0,.387.7l2.344,1.7a.952.952,0,0,0,.786.152l3.249-.807,1.314,1.807L27.21,23.734a.946.946,0,0,0-.093.794l.9,2.755a.946.946,0,0,0,.544.585l3.1,1.258v2.234l-3.1,1.258a.941.941,0,0,0-.544.586l-.284.868H22.276A8.91,8.91,0,0,0,9.893,22.45Zm0,11.385a7.03,7.03,0,0,1,10.221,9.369H9.893ZM54.374,53a.946.946,0,0,1,0,1.893H16.518a.946.946,0,0,1,0-1.893Zm-7.21-1.893H23.727l3.786-7.571H43.379ZM61,37.856a3.786,3.786,0,0,1-3.786,3.786H13.678a3.786,3.786,0,0,1-3.786-3.786V35.964H61Zm0-3.786H30.009l2.954-1.2A.946.946,0,0,0,33.553,32v-3.51a.946.946,0,0,0-.591-.877l-3.29-1.331-.623-1.916,1.876-3.01a.946.946,0,0,0-.038-1.056l-2.063-2.839a.946.946,0,0,0-.994-.362l-3.441.852-1.626-1.181-.249-3.53a.946.946,0,0,0-.652-.834l-3.336-1.085a.954.954,0,0,0-1.017.292l-2.278,2.711H13.213L10.934,11.61a.954.954,0,0,0-1.018-.292l-.023.009V5.678a3.786,3.786,0,0,1,3.786-3.786H57.213A3.786,3.786,0,0,1,61,5.678Z" transform="translate(-8)" fill="#fff" stroke="#fff" stroke-width="1"/>
            </g>
          </g>
        </g>
      </g>
    </g>
  </g>
</svg>
