<svg xmlns="http://www.w3.org/2000/svg" width="501.514" height="323.95" viewBox="0 0 501.514 323.95">
  <g id="front_end_development" transform="translate(-1117.31 -483.554)">
    <path id="Path_3396" data-name="Path 3396" d="M1569.292,1513.615v-20.361a11.491,11.491,0,0,0-11.491-11.491h-14.528V1578.6h49v-42a11.49,11.49,0,0,0-11.49-11.49h0A11.49,11.49,0,0,1,1569.292,1513.615Z" transform="translate(-331.442 -776.708)" fill="#b6d5d0"/>
    <path id="Path_3397" data-name="Path 3397" d="M2162.382,1779.108l-9.272,9.054-3.118-4.636-4.977-7.4,11.922-5.539,3.253,5.1Z" transform="translate(-799.658 -1001.44)" fill="#e9928b"/>
    <path id="Path_3398" data-name="Path 3398" d="M2160.191,1775.681a38.554,38.554,0,0,0-10.2,7.845l-4.977-7.4,11.922-5.539Z" transform="translate(-799.659 -1001.44)" fill="#de6667"/>
    <rect id="Rectangle_139" data-name="Rectangle 139" width="196.81" height="102.622" transform="translate(1193.268 506.04)" fill="#edf6f5"/>
    <rect id="Rectangle_140" data-name="Rectangle 140" width="31.698" height="29.235" transform="translate(1204.065 515.261)" fill="#dceceb"/>
    <g id="Group_1398" data-name="Group 1398" transform="translate(1272.215 538.757)">
      <path id="Path_3399" data-name="Path 3399" d="M2248.069,735.3h-1.188v-1.783H2245.1v-1.189h2.971Z" transform="translate(-2149.747 -732.328)" fill="#b6d5d0"/>
      <path id="Path_3400" data-name="Path 3400" d="M1933.354,733.517h-4.862v-1.189h4.862Zm-9.724,0h-4.862v-1.189h4.862Zm-9.724,0h-4.862v-1.189h4.862Zm-9.724,0h-4.862v-1.189h4.862Zm-9.724,0H1889.6v-1.189h4.862Zm-9.724,0h-4.862v-1.189h4.862Zm-9.724,0h-4.862v-1.189h4.862Zm-9.724,0h-4.862v-1.189h4.862Zm-9.724,0H1850.7v-1.189h4.862Z" transform="translate(-1842.865 -732.328)" fill="#b6d5d0"/>
      <path id="Path_3401" data-name="Path 3401" d="M1816.584,735.3H1815.4v-2.972h2.972v1.189h-1.783Z" transform="translate(-1815.396 -732.328)" fill="#b6d5d0"/>
      <path id="Path_3402" data-name="Path 3402" d="M1816.585,811.307H1815.4v-4.856h1.189Zm0-9.712H1815.4v-4.856h1.189Zm0-9.712H1815.4v-4.856h1.189Zm0-9.712H1815.4v-4.856h1.189Zm0-9.712H1815.4V767.6h1.189Z" transform="translate(-1815.396 -759.776)" fill="#b6d5d0"/>
      <path id="Path_3403" data-name="Path 3403" d="M1818.367,989.407H1815.4v-2.972h1.189v1.783h1.783Z" transform="translate(-1815.396 -930.049)" fill="#b6d5d0"/>
      <path id="Path_3404" data-name="Path 3404" d="M1933.354,995.659h-4.862V994.47h4.862Zm-9.724,0h-4.862V994.47h4.862Zm-9.724,0h-4.862V994.47h4.862Zm-9.724,0h-4.862V994.47h4.862Zm-9.724,0H1889.6V994.47h4.862Zm-9.724,0h-4.862V994.47h4.862Zm-9.724,0h-4.862V994.47h4.862Zm-9.724,0h-4.862V994.47h4.862Zm-9.724,0H1850.7V994.47h4.862Z" transform="translate(-1842.865 -936.301)" fill="#b6d5d0"/>
      <path id="Path_3405" data-name="Path 3405" d="M2248.069,989.407H2245.1v-1.189h1.783v-1.783h1.188Z" transform="translate(-2149.747 -930.049)" fill="#b6d5d0"/>
      <path id="Path_3406" data-name="Path 3406" d="M2254.322,811.307h-1.189v-4.856h1.189Zm0-9.712h-1.189v-4.856h1.189Zm0-9.712h-1.189v-4.856h1.189Zm0-9.712h-1.189v-4.856h1.189Zm0-9.712h-1.189V767.6h1.189Z" transform="translate(-2156 -759.776)" fill="#b6d5d0"/>
    </g>
    <rect id="Rectangle_141" data-name="Rectangle 141" width="109.542" height="56.792" rx="13.266" transform="translate(1172.176 557.416)" fill="#b2e5e0"/>
    <rect id="Rectangle_142" data-name="Rectangle 142" width="109.542" height="56.792" rx="13.266" transform="translate(1175.742 560.982)" fill="#3fb8a9"/>
    <path id="Path_3407" data-name="Path 3407" d="M1415.869,955.515h93.112s-3.1-21.726-7.99-28.33-8.981,2.51-14.4,13.339-16.641,15.717-24.83,4.887-11.887-14.264-21-8.453-16.245.924-19.283-6.6-5.613-7.4-5.613-7.4Z" transform="translate(-232.309 -341.901)" fill="#fff" opacity="0.67"/>
    <path id="Path_3408" data-name="Path 3408" d="M1415.869,970.7s4.292.2,7.726-4.556,4.358-12.019,8.057-14.264,7.132,0,12.283,9.411,13.207,4.985,16.641-4.392,5.019-13.868,10.7-14.4,9.245,6.471,11.226,13.207,7.132,8.981,12.283,6.208,14.2,8.783,14.2,8.783Z" transform="translate(-232.309 -357.086)" fill="#fff" opacity="0.28"/>
    <path id="Path_3409" data-name="Path 3409" d="M1417.652,856.887h0a1.783,1.783,0,0,1-1.783-1.783h0a1.783,1.783,0,0,1,1.783-1.783h0a1.783,1.783,0,0,1,1.783,1.783h0A1.783,1.783,0,0,1,1417.652,856.887Z" transform="translate(-232.309 -287.716)" fill="#fff"/>
    <rect id="Rectangle_143" data-name="Rectangle 143" width="37.377" height="2.113" transform="translate(1191.551 566.331)" fill="#fff"/>
    <path id="Path_3410" data-name="Path 3410" d="M1417.652,885.9h0a1.783,1.783,0,0,1-1.783-1.783h0a1.783,1.783,0,0,1,1.783-1.783h0a1.783,1.783,0,0,1,1.783,1.783h0A1.783,1.783,0,0,1,1417.652,885.9Z" transform="translate(-232.309 -310.293)" fill="#fff"/>
    <rect id="Rectangle_144" data-name="Rectangle 144" width="28.792" height="2.113" transform="translate(1191.551 572.77)" fill="#fff"/>
    <rect id="Rectangle_145" data-name="Rectangle 145" width="31.698" height="29.235" transform="translate(1207.779 518.259)" fill="#fff"/>
    <g id="Group_1399" data-name="Group 1399" transform="translate(1212.716 527.677)">
      <path id="Path_3411" data-name="Path 3411" d="M1570.306,698.242l-11.523,5.217-11.524-5.217v7.792h23.047Z" transform="translate(-1547.259 -694.725)" fill="#ffab40"/>
      <path id="Path_3412" data-name="Path 3412" d="M1570.306,682.394h-23.047v2.08l11.524,5.1,11.523-5.1Z" transform="translate(-1547.259 -682.394)" fill="#ffab40"/>
    </g>
    <g id="Group_1403" data-name="Group 1403" transform="translate(1271.361 509.468)">
      <g id="Group_1400" data-name="Group 1400" transform="translate(0 24.566)">
        <path id="Path_3413" data-name="Path 3413" d="M1875.3,714.022h-63.759v-2.977H1875.3Zm-63.363-.4h62.967v-2.184h-62.967Z" transform="translate(-1811.546 -711.045)" fill="#fff"/>
      </g>
      <g id="Group_1401" data-name="Group 1401" transform="translate(0 12.283)">
        <path id="Path_3414" data-name="Path 3414" d="M1875.3,658.668h-63.759v-2.977H1875.3Zm-63.363-.4h62.967v-2.184h-62.967Z" transform="translate(-1811.546 -655.691)" fill="#fff"/>
      </g>
      <g id="Group_1402" data-name="Group 1402" transform="translate(0)">
        <path id="Path_3415" data-name="Path 3415" d="M1875.3,603.315h-63.759v-2.977H1875.3Zm-63.363-.4h62.967v-2.185h-62.967Z" transform="translate(-1811.546 -600.338)" fill="#fff"/>
      </g>
    </g>
    <g id="Group_1404" data-name="Group 1404" transform="translate(1409.637 558.399)">
      <rect id="Rectangle_146" data-name="Rectangle 146" width="24.193" height="17.819" transform="translate(0 0)" fill="#dceceb"/>
      <path id="Path_3416" data-name="Path 3416" d="M2450.744,849.981l-5.261-3.967a.52.52,0,0,1,0-.829l5.229-4,.632.826-4.685,3.584,4.714,3.555Z" transform="translate(-2442.928 -836.672)" fill="#fff"/>
      <path id="Path_3417" data-name="Path 3417" d="M2506.3,849.981l-.626-.831,4.714-3.555-4.685-3.584.633-.826,5.229,4a.52.52,0,0,1,0,.829Z" transform="translate(-2489.925 -836.672)" fill="#fff"/>
      <rect id="Rectangle_147" data-name="Rectangle 147" width="9.638" height="1.041" transform="translate(10.428 13.46) rotate(-76.027)" fill="#fff"/>
    </g>
    <path id="Path_3418" data-name="Path 3418" d="M2315.416,1772.606l-10.191,9.5-2.543-11.389-.985-4.411,12.179-3.08.7,4.291Z" transform="translate(-921.572 -995.716)" fill="#e9928b"/>
    <path id="Path_3419" data-name="Path 3419" d="M2314.579,1767.52a16.993,16.993,0,0,0-5.036.317,62.325,62.325,0,0,0-6.861,2.883l-.985-4.411,12.179-3.08Z" transform="translate(-921.572 -995.716)" fill="#de6667"/>
    <path id="Path_3420" data-name="Path 3420" d="M2280.755,1800.786c-5.158-.079-7.008,4.15-8.741,8.08s-3.837,13.1-6.843,14.024-4.624,2.543-4.624,4.393h10.847s6.807-7.483,10.308-10.4,4.35-4.815,4.35-4.815-1.345-7.23-2.655-10.235A3.8,3.8,0,0,0,2280.755,1800.786Z" transform="translate(-889.553 -1024.938)" fill="#0c1b3c"/>
    <path id="Path_3421" data-name="Path 3421" d="M2305.118,1834.664c-3.762.78-5.146,4.817-7.458,11.521s-6.9,7.435-6.9,7.435h12.812a38.732,38.732,0,0,1,2.238-5.585c1.128-2.31,3.069-4.952,3.561-7.361C2310.529,1835.009,2306.035,1834.474,2305.118,1834.664Z" transform="translate(-913.064 -1051.276)" fill="#408c91"/>
    <path id="Path_3422" data-name="Path 3422" d="M2225.377,1633.378a47.211,47.211,0,0,0-13.686,3.566s-2.738.892-6.7-7.445-17.889-34.455-17.889-34.455l16.015.507,12.108.384s6.538,16.542,9.708,23.575A19.3,19.3,0,0,1,2225.377,1633.378Z" transform="translate(-832.406 -864.851)" fill="#376f92"/>
    <path id="Path_3423" data-name="Path 3423" d="M2211.692,1622.118c-4.854,5.813-3.229,12.576,0,14.827,0,0-2.738.892-6.7-7.445s-17.889-34.455-17.889-34.455l16.015.507,10.456,4.644s-10.3,1.319-12.612,6.736S2216.546,1616.309,2211.692,1622.118Z" transform="translate(-832.406 -864.851)" fill="#1b5175"/>
    <g id="Group_1405" data-name="Group 1405" transform="translate(1502.457 764.647)">
      <path id="Path_3424" data-name="Path 3424" d="M2969.359,1789.319s.048-29.216-31.943-15c0,0-7.03-25.15-25.454-23.961s-20.206,24.987-20.206,24.987-25.231-12.825-38.765,13.186Z" transform="translate(-2852.991 -1750.312)" fill="#adccc7"/>
      <path id="Path_3425" data-name="Path 3425" d="M3110.244,1827.348l-.785-.11a37.877,37.877,0,0,0-6.147-26.235l.629-.482A38.752,38.752,0,0,1,3110.244,1827.348Z" transform="translate(-3047.766 -1789.379)" fill="#6eab9c"/>
      <path id="Path_3426" data-name="Path 3426" d="M3133.606,1818.588l-.64-.467c.075-.1,7.556-10.393,8.834-16.861l.777.154C3141.266,1808.054,3133.918,1818.161,3133.606,1818.588Z" transform="translate(-3070.84 -1789.954)" fill="#6eab9c"/>
      <path id="Path_3427" data-name="Path 3427" d="M3094.882,1875.437c-5.843-.366-11.009-7.28-11.226-7.574l.638-.471c.051.069,5.166,6.911,10.638,7.254Z" transform="translate(-3032.471 -1841.412)" fill="#6eab9c"/>
      <path id="Path_3428" data-name="Path 3428" d="M3218.7,1891.074l1.065-.763c.1-.073,10.228-7.25,21.071-7.755l.037.792c-8.49.4-16.556,4.988-19.486,6.84l10.522-.366.028.792Z" transform="translate(-3137.551 -1853.211)" fill="#6eab9c"/>
      <path id="Path_3429" data-name="Path 3429" d="M3253.616,1867.741l-.75-.257a39.1,39.1,0,0,1,5.329-9.639l.628.484A39.05,39.05,0,0,0,3253.616,1867.741Z" transform="translate(-3164.134 -1833.984)" fill="#6eab9c"/>
      <path id="Path_3430" data-name="Path 3430" d="M2968.32,1883.551c-.079-.067-7.935-6.663-16.7-9.738l.262-.748c8.9,3.123,16.868,9.813,16.948,9.88Z" transform="translate(-2929.735 -1845.827)" fill="#6eab9c"/>
      <path id="Path_3431" data-name="Path 3431" d="M2933.535,1900.862l-.362-.7c.231-.119,5.764-2.89,15.946-1.473l-.109.785C2939.1,1898.091,2933.59,1900.834,2933.535,1900.862Z" transform="translate(-2915.381 -1865.448)" fill="#6eab9c"/>
    </g>
    <g id="Group_1407" data-name="Group 1407" transform="translate(1273.383 702.84)" opacity="0.4">
      <g id="Group_1406" data-name="Group 1406" transform="translate(0 0)">
        <path id="Path_3432" data-name="Path 3432" d="M1883.055,1508.431l-1.787-.993a3.512,3.512,0,0,1-1.81-3.121c0-.146.006-.291.006-.437s0-.291-.006-.437a3.512,3.512,0,0,1,1.81-3.121l1.787-.993a3.529,3.529,0,0,0,1.694-3.992c-.007-.017-.01-.036-.017-.053a3.523,3.523,0,0,0-3.459-2.608l-2.049.033a3.545,3.545,0,0,1-3.148-1.837c-.129-.225-.258-.45-.387-.672a3.549,3.549,0,0,1-.023-3.654l1.049-1.745a3.524,3.524,0,0,0-.529-4.3l-.043-.043a3.524,3.524,0,0,0-4.3-.53l-1.744,1.049a3.549,3.549,0,0,1-3.654-.023c-.222-.129-.447-.258-.672-.387a3.544,3.544,0,0,1-1.837-3.148l.033-2.049a3.522,3.522,0,0,0-2.608-3.459c-.016-.007-.036-.01-.053-.017a3.53,3.53,0,0,0-3.992,1.695l-.993,1.787a3.512,3.512,0,0,1-3.121,1.81c-.146,0-.291-.007-.437-.007s-.291,0-.437.007a3.512,3.512,0,0,1-3.121-1.81l-.993-1.787a3.53,3.53,0,0,0-3.992-1.695c-.017.007-.036.01-.053.017a3.523,3.523,0,0,0-2.608,3.459l.033,2.049a3.544,3.544,0,0,1-1.837,3.148c-.225.129-.45.258-.672.387a3.549,3.549,0,0,1-3.654.023l-1.744-1.049a3.524,3.524,0,0,0-4.3.53l-.043.043a3.524,3.524,0,0,0-.529,4.3l1.049,1.745a3.549,3.549,0,0,1-.023,3.654c-.129.222-.258.447-.387.672a3.544,3.544,0,0,1-3.148,1.837l-2.049-.033a3.523,3.523,0,0,0-3.459,2.608c-.007.017-.01.036-.017.053a3.529,3.529,0,0,0,1.695,3.992l1.787.993a3.512,3.512,0,0,1,1.81,3.121c0,.146-.006.291-.006.437s0,.291.006.437a3.511,3.511,0,0,1-1.81,3.121l-1.787.993a3.529,3.529,0,0,0-1.695,3.991c.007.017.01.037.017.053a3.523,3.523,0,0,0,3.459,2.608l2.049-.033a3.543,3.543,0,0,1,3.148,1.837c.129.225.258.45.387.672a3.549,3.549,0,0,1,.023,3.654l-1.049,1.744a3.524,3.524,0,0,0,.529,4.3l.043.043a3.524,3.524,0,0,0,4.3.53l1.744-1.049a3.549,3.549,0,0,1,3.654.023c.222.129.447.258.672.387a3.544,3.544,0,0,1,1.837,3.148l-.033,2.049a3.523,3.523,0,0,0,2.608,3.459c.017.007.036.01.053.017a3.529,3.529,0,0,0,3.992-1.695l.993-1.787a3.513,3.513,0,0,1,3.121-1.81c.146,0,.291.007.437.007s.291,0,.437-.007a3.512,3.512,0,0,1,3.121,1.81l.993,1.787a3.529,3.529,0,0,0,3.992,1.695c.016-.007.036-.01.053-.017a3.522,3.522,0,0,0,2.608-3.459l-.033-2.049a3.544,3.544,0,0,1,1.837-3.148c.225-.129.45-.258.672-.387a3.549,3.549,0,0,1,3.654-.023l1.744,1.049a3.524,3.524,0,0,0,4.3-.53l.043-.043a3.524,3.524,0,0,0,.529-4.3l-1.049-1.744a3.549,3.549,0,0,1,.023-3.654c.129-.222.258-.447.387-.672a3.544,3.544,0,0,1,3.148-1.837l2.049.033a3.523,3.523,0,0,0,3.459-2.608c.007-.016.01-.036.017-.053A3.529,3.529,0,0,0,1883.055,1508.431Zm-30.292,15.308a19.859,19.859,0,1,1,19.859-19.859A19.858,19.858,0,0,1,1852.764,1523.739Z" transform="translate(-1820.659 -1471.775)" fill="#f4d7c9"/>
        <circle id="Ellipse_52" data-name="Ellipse 52" cx="8.964" cy="8.964" r="8.964" transform="translate(20.392 27.419) rotate(-22.5)" fill="#f4d7c9"/>
      </g>
    </g>
    <path id="Path_3433" data-name="Path 3433" d="M2504.577,1741.71l-1.043-.58a2.049,2.049,0,0,1-1.057-1.822c0-.085,0-.17,0-.255s0-.17,0-.255a2.05,2.05,0,0,1,1.057-1.822l1.043-.579a2.06,2.06,0,0,0,.989-2.33c0-.01-.006-.021-.01-.031a2.057,2.057,0,0,0-2.019-1.522l-1.2.019a2.069,2.069,0,0,1-1.837-1.072c-.075-.131-.151-.263-.226-.392a2.072,2.072,0,0,1-.013-2.133l.613-1.018a2.057,2.057,0,0,0-.309-2.511l-.025-.025a2.058,2.058,0,0,0-2.512-.309l-1.018.613a2.071,2.071,0,0,1-2.133-.014l-.393-.226a2.069,2.069,0,0,1-1.072-1.837l.019-1.2a2.056,2.056,0,0,0-1.522-2.019l-.031-.01a2.06,2.06,0,0,0-2.33.989l-.58,1.043a2.051,2.051,0,0,1-1.822,1.057c-.085,0-.17,0-.255,0s-.17,0-.255,0a2.05,2.05,0,0,1-1.822-1.057l-.58-1.043a2.06,2.06,0,0,0-2.33-.989l-.031.01a2.056,2.056,0,0,0-1.522,2.019l.019,1.2a2.069,2.069,0,0,1-1.072,1.837l-.392.226a2.072,2.072,0,0,1-2.133.014l-1.018-.613a2.058,2.058,0,0,0-2.512.309l-.025.025a2.057,2.057,0,0,0-.309,2.511l.613,1.018a2.072,2.072,0,0,1-.013,2.133c-.075.129-.151.261-.226.392a2.069,2.069,0,0,1-1.837,1.072l-1.2-.019a2.056,2.056,0,0,0-2.019,1.522c0,.01-.006.021-.01.031a2.06,2.06,0,0,0,.989,2.33l1.044.579a2.05,2.05,0,0,1,1.057,1.822c0,.085,0,.17,0,.255s0,.17,0,.255a2.049,2.049,0,0,1-1.057,1.822l-1.044.58a2.06,2.06,0,0,0-.989,2.33c0,.01.006.021.01.031a2.056,2.056,0,0,0,2.019,1.522l1.2-.019a2.07,2.07,0,0,1,1.837,1.072c.075.131.151.263.226.392a2.072,2.072,0,0,1,.013,2.133l-.613,1.018a2.057,2.057,0,0,0,.309,2.511l.025.025a2.058,2.058,0,0,0,2.512.309l1.018-.612a2.072,2.072,0,0,1,2.133.013l.392.226a2.068,2.068,0,0,1,1.072,1.837l-.019,1.2a2.056,2.056,0,0,0,1.522,2.019l.031.01a2.06,2.06,0,0,0,2.33-.989l.58-1.043a2.049,2.049,0,0,1,1.822-1.057c.085,0,.17,0,.255,0s.17,0,.255,0a2.05,2.05,0,0,1,1.822,1.057l.58,1.043a2.06,2.06,0,0,0,2.33.989l.031-.01a2.056,2.056,0,0,0,1.522-2.019l-.019-1.2a2.068,2.068,0,0,1,1.072-1.837l.393-.226a2.071,2.071,0,0,1,2.133-.013l1.018.612a2.058,2.058,0,0,0,2.512-.309l.025-.025a2.057,2.057,0,0,0,.309-2.511l-.613-1.018a2.072,2.072,0,0,1,.013-2.133c.075-.129.151-.261.226-.392a2.07,2.07,0,0,1,1.837-1.072l1.2.019a2.057,2.057,0,0,0,2.019-1.522c0-.01.006-.021.01-.031A2.06,2.06,0,0,0,2504.577,1741.71Zm-17.682,8.935a11.592,11.592,0,1,1,11.592-11.592A11.591,11.591,0,0,1,2486.9,1750.646Z" transform="translate(-1051.093 -962.324)" fill="#f4d7c9" opacity="0.4"/>
    <g id="Group_1408" data-name="Group 1408" transform="translate(1456.662 527.677)">
      <path id="Path_3434" data-name="Path 3434" d="M2646.614,682.394h52.512v18.084h-9.358l4.881,11.5-17.451-11.5h-30.584Z" transform="translate(-2646.614 -682.394)" fill="#eb908b"/>
      <rect id="Rectangle_148" data-name="Rectangle 148" width="40.827" height="1.997" transform="translate(6.231 5.283)" fill="#fff"/>
      <rect id="Rectangle_149" data-name="Rectangle 149" width="40.827" height="1.997" transform="translate(6.231 10.83)" fill="#fff"/>
    </g>
    <rect id="Rectangle_150" data-name="Rectangle 150" width="466.605" height="5.737" transform="translate(1152.219 801.768)" fill="#aecbc7"/>
    <g id="Group_1418" data-name="Group 1418" transform="translate(1211.253 624.024)">
      <path id="Path_3435" data-name="Path 3435" d="M1729.111,1188.31v-6.225l-5.6-1.447-4.295-5.118,1.12-3.064-34.21-39.091H1543.2a2.539,2.539,0,0,0-2.537,2.537v4.421l.034.027a3.91,3.91,0,0,0,.907,2.057l37.914,45.186a14.5,14.5,0,0,0,11.106,5.178h134.519a3.974,3.974,0,0,0,3.964-3.548A4.2,4.2,0,0,0,1729.111,1188.31Z" transform="translate(-1540.667 -1129.642)" fill="#b6d5d0"/>
      <g id="Group_1417" data-name="Group 1417" transform="translate(0 0)">
        <path id="Path_3436" data-name="Path 3436" d="M1725.148,1173.5H1590.627a14.5,14.5,0,0,1-11.105-5.179l-37.915-45.185a3.982,3.982,0,0,1,3.051-6.542h134.521a14.5,14.5,0,0,1,11.106,5.178l37.914,45.185A3.982,3.982,0,0,1,1725.148,1173.5Z" transform="translate(-1540.667 -1116.59)" fill="#fff"/>
        <path id="Path_3437" data-name="Path 3437" d="M2201.717,1213.079h0a.893.893,0,0,1-.683-.318l-26.141-31.057a.893.893,0,0,1,.683-1.468h0a.892.892,0,0,1,.683.318l26.141,31.057A.893.893,0,0,1,2201.717,1213.079Z" transform="translate(-2033.994 -1166.113)" fill="#b2e5e0"/>
        <g id="Group_1411" data-name="Group 1411" transform="translate(18.342 13.847)">
          <path id="Path_3438" data-name="Path 3438" d="M1670.465,1199.162h-30.248a2.4,2.4,0,0,1-1.842-.863l-14.832-17.8a.923.923,0,0,1,.709-1.515H1654.5a2.4,2.4,0,0,1,1.842.863l14.832,17.8A.923.923,0,0,1,1670.465,1199.162Z" transform="translate(-1623.327 -1178.99)" fill="#dceceb"/>
          <path id="Path_3439" data-name="Path 3439" d="M1727.516,1298.351h-4.46a2.4,2.4,0,0,1-1.838-.858l-5.483-6.545a.923.923,0,0,1,.708-1.516h4.461a2.4,2.4,0,0,1,1.838.858l5.484,6.545A.923.923,0,0,1,1727.516,1298.351Z" transform="translate(-1695.06 -1264.925)" fill="#b2e5e0"/>
          <path id="Path_3440" data-name="Path 3440" d="M1785.617,1298.351h-4.46a2.4,2.4,0,0,1-1.838-.858l-5.484-6.545a.923.923,0,0,1,.708-1.516H1779a2.4,2.4,0,0,1,1.838.858l5.484,6.545A.923.923,0,0,1,1785.617,1298.351Z" transform="translate(-1740.268 -1264.925)" fill="#b2e5e0"/>
          <path id="Path_3441" data-name="Path 3441" d="M1843.718,1298.351h-4.46a2.4,2.4,0,0,1-1.838-.858l-5.484-6.545a.923.923,0,0,1,.708-1.516h4.46a2.4,2.4,0,0,1,1.838.858l5.484,6.545A.923.923,0,0,1,1843.718,1298.351Z" transform="translate(-1785.477 -1264.925)" fill="#b2e5e0"/>
          <g id="Group_1410" data-name="Group 1410" transform="translate(40.867)">
            <g id="Group_1409" data-name="Group 1409">
              <path id="Path_3442" data-name="Path 3442" d="M1848.835,1187.46h-34.17a2.4,2.4,0,0,1-1.837-.857l-5.116-6.1a.923.923,0,0,1,.707-1.517h34.17a2.4,2.4,0,0,1,1.837.857l5.116,6.1A.923.923,0,0,1,1848.835,1187.46Z" transform="translate(-1807.495 -1178.99)" fill="#dceceb"/>
              <path id="Path_3443" data-name="Path 3443" d="M1895.963,1243.625h-34.17a2.4,2.4,0,0,1-1.837-.856l-5.116-6.1a.923.923,0,0,1,.707-1.517h34.17a2.4,2.4,0,0,1,1.837.856l5.116,6.1A.923.923,0,0,1,1895.963,1243.625Z" transform="translate(-1844.165 -1222.692)" fill="#dceceb"/>
              <path id="Path_3444" data-name="Path 3444" d="M1943.205,1299.926h-34.17a2.4,2.4,0,0,1-1.837-.856l-5.116-6.1a.923.923,0,0,1,.707-1.517h34.17a2.4,2.4,0,0,1,1.837.857l5.116,6.1A.923.923,0,0,1,1943.205,1299.926Z" transform="translate(-1880.924 -1266.5)" fill="#dceceb"/>
            </g>
          </g>
        </g>
        <g id="Group_1413" data-name="Group 1413" transform="translate(109.512 14.123)">
          <path id="Path_3445" data-name="Path 3445" d="M2061.223,1213.079h0a.892.892,0,0,1-.683-.318L2034.4,1181.7a.893.893,0,0,1,.683-1.468h0a.893.893,0,0,1,.683.318l26.141,31.057A.893.893,0,0,1,2061.223,1213.079Z" transform="translate(-2034.187 -1180.236)" fill="#b2e5e0"/>
          <g id="Group_1412" data-name="Group 1412" transform="translate(0.555 2.278)">
            <path id="Path_3446" data-name="Path 3446" d="M2043.851,1197.944h-3.723a2.778,2.778,0,0,1-1.789-.972l-1.352-1.612c-.451-.537-.381-.973.156-.973h3.723a2.779,2.779,0,0,1,1.789.973l1.352,1.612C2044.458,1197.508,2044.388,1197.944,2043.851,1197.944Z" transform="translate(-2036.69 -1193.525)" fill="#b2e5e0"/>
            <path id="Path_3447" data-name="Path 3447" d="M2045,1194.061h-3.723a2.778,2.778,0,0,1-1.789-.973l-1.352-1.611c-.451-.537-.38-.973.157-.973h3.723a2.777,2.777,0,0,1,1.788.973l1.352,1.611C2045.61,1193.625,2045.54,1194.061,2045,1194.061Z" transform="translate(-2037.586 -1190.504)" fill="#dceceb"/>
          </g>
        </g>
        <g id="Group_1414" data-name="Group 1414" transform="translate(147.913 24.468)">
          <path id="Path_3448" data-name="Path 3448" d="M2214.407,1234.3h-3.723a2.776,2.776,0,0,1-1.788-.972l-1.352-1.612c-.451-.537-.381-.972.157-.972h3.723a2.778,2.778,0,0,1,1.789.972l1.352,1.612C2215.014,1233.862,2214.944,1234.3,2214.407,1234.3Z" transform="translate(-2207.246 -1229.879)" fill="#b2e5e0"/>
          <path id="Path_3449" data-name="Path 3449" d="M2215.56,1230.414h-3.723a2.777,2.777,0,0,1-1.788-.973l-1.352-1.611c-.451-.537-.381-.973.156-.973h3.723a2.777,2.777,0,0,1,1.789.973l1.352,1.611C2216.167,1229.978,2216.1,1230.414,2215.56,1230.414Z" transform="translate(-2208.143 -1226.857)" fill="#dceceb"/>
        </g>
        <g id="Group_1416" data-name="Group 1416" transform="translate(125.238 14.123)">
          <path id="Path_3450" data-name="Path 3450" d="M2132.1,1213.079h0a.892.892,0,0,1-.683-.318l-26.141-31.057a.893.893,0,0,1,.683-1.468h0a.893.893,0,0,1,.683.318l26.141,31.057A.893.893,0,0,1,2132.1,1213.079Z" transform="translate(-2105.061 -1180.236)" fill="#b2e5e0"/>
          <g id="Group_1415" data-name="Group 1415" transform="translate(16.153 20.867)">
            <path id="Path_3451" data-name="Path 3451" d="M2185.015,1281.714h-3.723a2.778,2.778,0,0,1-1.788-.973l-1.352-1.612c-.451-.537-.381-.972.156-.972h3.723a2.778,2.778,0,0,1,1.789.972l1.352,1.612C2185.622,1281.278,2185.552,1281.714,2185.015,1281.714Z" transform="translate(-2177.854 -1277.295)" fill="#b2e5e0"/>
            <path id="Path_3452" data-name="Path 3452" d="M2186.167,1277.83h-3.723a2.778,2.778,0,0,1-1.789-.972l-1.353-1.612c-.45-.537-.38-.973.157-.973h3.723a2.779,2.779,0,0,1,1.788.973l1.352,1.612C2186.774,1277.394,2186.7,1277.83,2186.167,1277.83Z" transform="translate(-2178.75 -1274.273)" fill="#dceceb"/>
          </g>
        </g>
      </g>
    </g>
    <path id="Path_3453" data-name="Path 3453" d="M2087.2,1468.479s-2.156,6.68-9.842,12.548a40.85,40.85,0,0,1-15.417,7.108c-20.512,4.957-36.936,3.166-38.125,3.364-1.058.175,9.173,16.344,14.93,26.048.717,1.2,1.363,2.31,1.91,3.273.067.119.131.234.194.349,4.691,8.427,2.183,10.547,2.183,10.547-4.755.594-11.292,5.943-11.292,5.943-9.906,2.575-15.849-12.877-21.4-19.415s-19.811-25.953-13.472-36.453,62.706-23.971,62.706-23.971l5.618,2.167,10.6,4.089Z" transform="translate(-683.147 -758.078)" fill="#376f92"/>
    <path id="Path_3454" data-name="Path 3454" d="M2199.762,1741.73c.067.119.131.234.194.349A1.283,1.283,0,0,1,2199.762,1741.73Z" transform="translate(-842.257 -978.988)" fill="#1b5175"/>
    <path id="Path_3455" data-name="Path 3455" d="M2121.083,1479.551c-.032.075-1.513,2.175-3.9,5.436a40.85,40.85,0,0,1-15.417,7.108c-20.513,4.957-36.936,3.166-38.125,3.364-1.058.175,9.173,16.344,14.93,26.048-3.455-4.156-8.911-4.7-12.992-13.016-4.953-10.088-16.641.381-18.777-7.94s6.1-7.726,18.183-13.075,14.066-3.17,25.026-5.353,9.242-15.626,9.242-15.626l5.771-2.549,8.031-1.038s1.141,2.266,2.567,5.127C2118.008,1472.835,2121.186,1479.3,2121.083,1479.551Z" transform="translate(-722.976 -762.038)" fill="#1b5175"/>
    <path id="Path_3456" data-name="Path 3456" d="M2146.519,1808.986s5.7,4.763,5.834,8.38-12.009,15.879-12.009,15.879h-15.4s-1.65-2.527,2.611-4.338,4.687-1.918,6.285-3.622,2.983-6.285,5.54-11.079A9.757,9.757,0,0,1,2146.519,1808.986Z" transform="translate(-783.797 -1031.32)" fill="#0c1b3c"/>
    <path id="Path_3457" data-name="Path 3457" d="M2205.209,878.256s-3.6-2.218-4.805-4.713-4.251-7.947-4.436-9.241,2.4.092,3.881,2.68a63.286,63.286,0,0,0-2.865-6.376c-1.848-3.6-4.805-5.822-4.066-7.578s6.1,4.9,6.746,6.007,1.941-.093,3.6.739,1.664-.092,3.327.924,3.095,3.082,4.828,12.168Z" transform="translate(-836.841 -287.26)" fill="#e9928b"/>
    <path id="Path_3458" data-name="Path 3458" d="M1989.981,1223.335s-1.954-.672-5.252-3.848-5.252-4.336-6.351-4.825a10.394,10.394,0,0,0-4.7-.916c-1.832.122-2.81-.733-2.382-1.344s2.138-1.038,2.138-1.038-3.359.305-2.5-1.221,5.68-.916,5.68-.916a3.179,3.179,0,0,1,2.2-1.16c1.282,0,1.161-1.038,3.725-.733s3.908,1.832,6.6,2.443,4.906,6.2,4.906,6.2Z" transform="translate(-664.091 -563.13)" fill="#e9928b"/>
    <path id="Path_3459" data-name="Path 3459" d="M2054.086,1243.7s-4.315,3.814-5.635,7.842l-.462,1.189,2.51,3.5,5.811-11.094Z" transform="translate(-724.161 -591.466)" fill="#93405e"/>
    <path id="Path_3460" data-name="Path 3460" d="M2239.341,950.3l-2.08-3.269s4.062-4.755,9.312-6.141l1.292,2.278Z" transform="translate(-871.434 -355.854)" fill="#93405e"/>
    <path id="Path_3461" data-name="Path 3461" d="M2295.322,997.346l-15.8,8.38-2.345,1.244s-.836-.42-2.207-1.137c-4.477-2.35-14.645-7.885-19.8-12.335-2.393-2.064-6.364-7.021-10.492-12.552-7.477-10.017-15.461-21.919-15.461-21.919,5.745-8.915,12.386-11.886,12.386-11.886s17.889,25.16,20.663,27.537c1.621,1.391,12.643,8.9,21.519,14.9C2290.1,993.848,2295.322,997.346,2295.322,997.346Z" transform="translate(-865.181 -360.717)" fill="#67a4c3"/>
    <path id="Path_3462" data-name="Path 3462" d="M2349.535,1115.887l-15.8,8.38c-1.4.031-2.948.067-4.553.107-4.477-2.35-14.645-7.885-19.8-12.334-2.393-2.064-6.364-7.021-10.492-12.552,3.281,1.708,6.518,3.209,8.4,4.834,4.1,3.546,2.908-.792,21.134,1.716a60.828,60.828,0,0,1,9.573,2.084C2344.313,1112.389,2349.535,1115.887,2349.535,1115.887Z" transform="translate(-919.394 -479.259)" fill="#4f91b3"/>
    <path id="Path_3463" data-name="Path 3463" d="M2368.959,1059.424s-13.67,8.388-13.7,3.106a14.379,14.379,0,0,0-.749-4.545,11.847,11.847,0,0,0-2.061-3.844.059.059,0,0,0-.008.012c-4.881,5.2-7.056,3.554-7.651,2.563s-4.624-9.311-4.029-12.085.464-4.426-.4-6.141.4-5.876.4-5.876l11.625-2.445s10.761,10.963,11.689,14.66S2368.959,1059.424,2368.959,1059.424Z" transform="translate(-951.426 -425.323)" fill="#e9928b"/>
    <path id="Path_3464" data-name="Path 3464" d="M2154.367,1193.3c-3.566,10.7-22.961,46.425-33.116,47.444-4.141.416-9.478-2.286-14.347-5.634a101.652,101.652,0,0,1-13.159-11.082c8.915-6.32,7.726-26.25,7.726-26.25a.012.012,0,0,1,0,.008c-.194.158-12.742,10.579-21.154,11.562-8.483.99-35.9-18.028-35.9-18.028s6.141-15.453,9.113-14.858,22.585,13.274,25.944,13.472,22.395-16.839,27.134-21.594,23.393-12.085,36.468-12.283c0,0,8.519,1.387,11.49,7.726S2157.933,1182.6,2154.367,1193.3Z" transform="translate(-721.381 -523.274)" fill="#67a4c3"/>
    <path id="Path_3465" data-name="Path 3465" d="M2331.7,981.642c-6.21.745-12.105,5.346-10.2,9.955s5.623,5.161,8,5.192,3.172,1.444,4.006,2.734,1.2.491,2.246-1.6,3.441-.6,3.5,2.221-.43,9.638,4.609,9.761,6.022-1.966,6.206-1.966,4.3-8.418,3.994-15.792c0,0,5.223-2.7,4.24-7.005s-6.636-5.162-10.016-1.69a9.807,9.807,0,0,1-5.469-1.629c-2.642-1.782-6.206-2.642-7.865-1.6S2333.24,981.457,2331.7,981.642Z" transform="translate(-936.701 -386.111)" fill="#0c1b3c"/>
    <g id="Group_1420" data-name="Group 1420" transform="translate(1358.93 673.077)">
      <rect id="Rectangle_151" data-name="Rectangle 151" width="5.306" height="60.286" transform="translate(35.198 64.12)" fill="#f0d1aa"/>
      <path id="Path_3466" data-name="Path 3466" d="M2379.412,1686.318h-2.653v-60.286l2.653-.164Z" transform="translate(-2338.908 -1561.912)" fill="#edbf84"/>
      <path id="Path_3467" data-name="Path 3467" d="M2324.116,1902.751h-42a4.461,4.461,0,0,1,4.46-4.457h33.084A4.458,4.458,0,0,1,2324.116,1902.751Z" transform="translate(-2265.263 -1773.887)" fill="#edbf84"/>
      <path id="Path_3468" data-name="Path 3468" d="M2310.711,1902.751h-28.6a4.461,4.461,0,0,1,4.46-4.457h16.542Z" transform="translate(-2265.263 -1773.887)" fill="#f0d1aa"/>
      <g id="Group_1419" data-name="Group 1419" transform="translate(0)">
        <path id="Path_3469" data-name="Path 3469" d="M2296.156,1338.517c-.377.175-.745.362-1.1.558-.117.064-.234.128-.347.2s-.231.132-.345.2-.224.135-.339.208-.208.128-.307.2c-.12.076-.237.155-.354.237s-.216.149-.324.225-.216.155-.321.234c-.356.263-.707.541-1.049.83-.125.105-.248.21-.368.318q-.648.57-1.259,1.2l-.012.012c-.166.169-.33.345-.493.52l-.073.082q-.241.263-.474.535c-.172.2-.339.4-.505.6a.194.194,0,0,1-.032.038c-.155.19-.307.386-.456.581s-.316.412-.468.625l-.026.035c-.152.208-.3.418-.444.631s-.3.444-.45.669c0,0,0,0-.006.006-.128.2-.257.4-.383.6-.035.056-.07.111-.1.17s-.064.1-.094.152c-.234.38-.459.768-.681,1.163-.269.479-.532.967-.783,1.461-.129.248-.254.5-.377.751s-.245.505-.365.76q-.36.767-.7,1.551-.171.39-.333.789t-.324.8c-.094.231-.184.462-.275.692q-.175.46-.351.929c-.1.272-.2.543-.3.818l-.035.1c-.087.243-.175.485-.257.73q-.293.846-.576,1.706c-.084.266-.172.532-.254.8s-.176.561-.263.841c-.166.532-.324,1.063-.482,1.6-.008.032-.017.064-.026.093q-.127.425-.246.85c0,.006,0,.009-.006.015-.079.277-.161.558-.237.836-.1.359-.2.721-.3,1.081-.055.2-.111.412-.167.616-.032.114-.061.228-.093.342-.2.733-.391,1.467-.581,2.194-.187.71-.368,1.417-.549,2.118-.076.3-.155.6-.231.894q-.359,1.4-.71,2.763c-.073.266-.14.532-.21.8-.126.482-.254.958-.38,1.428-.079.292-.158.584-.237.873-.286,1.037-.573,2.045-.871,3.017-.067.222-.134.441-.2.66l-.149.464c-.041.131-.082.263-.126.391-.137.427-.277.844-.424,1.253-.151.441-.309.873-.47,1.291-.009.023-.018.044-.023.064-.073.19-.146.374-.222.558-.064.161-.129.321-.2.479l-.052.126c-.076.181-.155.362-.234.541a.269.269,0,0,1-.02.044c-.085.193-.172.383-.26.567s-.175.368-.266.546q-.1.2-.2.394c-.029.061-.062.12-.094.178-.085.158-.169.31-.257.461-.041.073-.082.143-.123.213-.053.091-.108.181-.164.272-7.449,12.123-28.626,11.684-28.626,11.684h-31.11c-7.3,0-7.449-7.449.876-8.033s24.537-10.224,31.84-31.4c3.54-10.265,7.662-16.376,10.972-19.951a14.879,14.879,0,0,1,10.934-4.732h29.74A.456.456,0,0,1,2296.156,1338.517Z" transform="translate(-2206.182 -1337.647)" fill="#f4c8af"/>
        <path id="Path_3470" data-name="Path 3470" d="M2317.473,1344.084c-.117.064-.234.128-.348.2s-.231.131-.345.2-.225.134-.339.207-.2.129-.307.2c-.12.076-.237.155-.354.237s-.219.149-.324.225-.216.155-.321.234c-.356.263-.707.541-1.049.83-.125.105-.248.21-.368.318q-.648.569-1.259,1.2l-.012.012c-.167.169-.33.345-.494.52l-.073.082q-.241.263-.473.535c-.172.2-.339.4-.505.6a.194.194,0,0,1-.032.038c-.152.193-.307.386-.456.581s-.316.415-.468.625l-.026.035c-.149.208-.3.418-.444.631s-.3.444-.45.669c0,0,0,0-.006.006-.125.2-.254.4-.383.6-.035.055-.07.111-.105.169s-.061.1-.09.152h0c-.234.38-.459.769-.681,1.163-.269.479-.531.967-.783,1.461-.129.248-.254.5-.377.751s-.245.5-.365.76q-.36.767-.7,1.551c-.111.26-.225.523-.333.789s-.219.532-.324.8c-.094.231-.184.462-.275.692q-.175.46-.35.929c-.1.272-.2.543-.3.818l-.035.1c-.088.243-.172.485-.257.73q-.293.846-.576,1.706c-.084.266-.169.532-.254.8l-.263.841c-.163.532-.324,1.066-.482,1.6-.009.032-.018.064-.026.093l-.245.85c0,.006,0,.009-.006.015-.079.277-.157.555-.237.835-.1.359-.2.721-.3,1.081-.055.207-.111.412-.167.616-.032.114-.061.228-.093.342-.2.733-.392,1.466-.581,2.194-.187.71-.368,1.417-.549,2.118-.076.3-.152.6-.231.894q-.359,1.4-.71,2.763-.105.4-.21.8c-.126.482-.254.958-.38,1.428-.079.292-.158.584-.237.873-.286,1.037-.572,2.045-.87,3.017-.067.222-.134.441-.2.66l-.149.464c-.041.131-.082.263-.126.391q-.206.64-.424,1.253c-.152.441-.31.874-.47,1.291-.008.023-.017.044-.023.064-.073.19-.146.374-.222.558-.064.161-.128.321-.2.479-.017.041-.035.085-.052.126-.076.181-.155.362-.234.541a.274.274,0,0,1-.02.044c-.085.193-.172.383-.26.567s-.175.368-.265.546q-.1.2-.2.394c-.029.061-.062.12-.094.178-.085.158-.17.31-.257.462s-.19.327-.286.485c-7.449,12.123-28.627,11.684-28.627,11.684H2236c-2.08-1.624-1.066-4.1,4.458-4.49,8.325-.584,26.313-12.339,33.616-33.516,3.54-10.265,7.662-16.376,10.972-19.951a14.878,14.878,0,0,1,10.934-4.732Z" transform="translate(-2228.603 -1342.656)" fill="#f7dfd3"/>
        <path id="Path_3471" data-name="Path 3471" d="M2378.231,1385.1c-.234.38-.459.769-.68,1.163-.269.479-.532.967-.783,1.461-.129.248-.254.5-.377.751s-.245.5-.365.76q-.359.767-.7,1.551c-.111.26-.225.523-.333.789s-.219.532-.324.8c-.094.231-.184.461-.275.692q-.175.46-.35.929c-.1.272-.2.543-.3.818l-.035.1c-.087.243-.172.485-.257.73q-.293.846-.575,1.706c-.085.266-.169.532-.254.8l-.263.841c-.164.531-.324,1.066-.482,1.6-.009.032-.018.064-.026.093l-.245.85c0,.006,0,.009-.006.015-.079.277-.158.555-.237.835-.1.359-.2.721-.3,1.081-.056.207-.111.412-.167.616-.032.114-.061.228-.094.342-.2.733-.391,1.467-.581,2.194-.187.71-.368,1.417-.55,2.118-.076.3-.152.6-.231.894q-.359,1.4-.71,2.763-.105.4-.21.8c-.126.482-.254.958-.38,1.428-.079.292-.158.584-.237.873-.286,1.037-.573,2.045-.87,3.017-.067.222-.134.441-.2.66l-.149.464c-.041.131-.082.263-.126.391-.137.427-.277.844-.424,1.253-.152.441-.31.873-.47,1.291-.009.023-.018.044-.023.064-.073.19-.146.374-.222.558-.064.161-.128.321-.2.479-.017.041-.035.085-.053.125-.076.181-.155.362-.233.541a.327.327,0,0,1-.021.044c-.085.193-.172.383-.26.567s-.175.368-.266.546q-.1.2-.2.395c-.029.061-.061.12-.093.178-.085.158-.17.309-.257.462-.041.073-.082.143-.123.213-.052.091-.108.181-.164.272-7.449,12.123-28.626,11.684-28.626,11.684H2324.69c1.075-.064,20.968-1.02,28.062-30.754C2357.541,1387.863,2370.554,1386.669,2378.231,1385.1Z" transform="translate(-2298.393 -1374.573)" fill="#f4c8af"/>
      </g>
    </g>
    <path id="Path_3472" data-name="Path 3472" d="M1508.581,1513.615v-20.361a11.491,11.491,0,0,0-11.49-11.491h-14.528V1578.6h49v-42a11.491,11.491,0,0,0-11.491-11.49h0A11.49,11.49,0,0,1,1508.581,1513.615Z" transform="translate(-284.203 -776.708)" fill="#dceceb"/>
    <g id="Group_1421" data-name="Group 1421" transform="translate(1173.943 746.454)">
      <path id="Path_3473" data-name="Path 3473" d="M1419.864,1699.167c-4.432-8.458-9.78-14.493-18.472-21.322s-20.078-6.858-24.726-9.06-4.768,3.895-3.324,9.622-2.939,32.095,23.47,40.478S1423.137,1705.412,1419.864,1699.167Z" transform="translate(-1372.527 -1668.324)" fill="#f2d6c8"/>
      <path id="Path_3474" data-name="Path 3474" d="M1508.526,1765.594a.4.4,0,0,1-.392-.343c-1.265-9.334,3.363-18.557,3.41-18.649a.4.4,0,0,1,.706.359c-.046.09-4.562,9.1-3.33,18.183a.4.4,0,0,1-.339.446A.432.432,0,0,1,1508.526,1765.594Z" transform="translate(-1477.872 -1729.063)" fill="#f5b89b"/>
      <path id="Path_3475" data-name="Path 3475" d="M1432.752,1824.459a.4.4,0,0,1-.184-.045c-7.87-4.135-21.549-2.653-21.686-2.638a.4.4,0,0,1-.089-.788c.571-.064,14.059-1.523,22.143,2.724a.4.4,0,0,1-.185.747Z" transform="translate(-1402.028 -1786.884)" fill="#f5b89b"/>
      <path id="Path_3476" data-name="Path 3476" d="M1420.7,1727.548a.4.4,0,0,1-.385-.3c-5.672-23.424-28.147-39.975-28.374-40.14a.4.4,0,1,1,.466-.641c.229.166,22.938,16.891,28.678,40.594a.4.4,0,0,1-.385.49Z" transform="translate(-1387.509 -1682.38)" fill="#f5b89b"/>
      <path id="Path_3477" data-name="Path 3477" d="M1409.979,1758.673a.4.4,0,0,1-.247-.086c-5.134-4.107-17.534-3.036-17.659-3.025a.391.391,0,0,1-.431-.359.4.4,0,0,1,.359-.43c.522-.047,12.843-1.111,18.226,3.195a.4.4,0,0,1-.248.706Z" transform="translate(-1387.399 -1735.473)" fill="#f5b89b"/>
      <path id="Path_3478" data-name="Path 3478" d="M1451.005,1710.24a.4.4,0,0,1-.365-.243c-1.609-3.825-.761-10.293-.724-10.567a.4.4,0,1,1,.786.106c-.009.065-.855,6.529.669,10.153a.4.4,0,0,1-.365.55Z" transform="translate(-1432.545 -1692.261)" fill="#f5b89b"/>
    </g>
    <g id="Group_1426" data-name="Group 1426" transform="translate(1469.814 567.309)">
      <path id="Path_3479" data-name="Path 3479" d="M3048.859,931.682a4.432,4.432,0,0,1-1.386,1.2c-4.283,2.357-11.974-2.774-15.489-2.607-3.938.19-5.812,5.345-15.1,1.688s-7.124-18.091-6.562-23.532-2.813-8.154-8.625-7.968-11.942-3-9.3-12.188-4.8-14-9.26-12.374-2.064-6.185-2.064-6.185a12.545,12.545,0,0,1,11.324-4.632,9.626,9.626,0,0,1,5.353,2.1s0,0,.008.008a8.937,8.937,0,0,1,.84.8c0,.008.012.012.016.02,2.171,2.357,3.023,5.65,4.4,8.17,2.25,4.125,6,3.843,11.811,2.064s17.529-.959,20.061,8.753-4.216,21.059,7.877,23.872S3052.607,926.809,3048.859,931.682Z" transform="translate(-2919.513 -864.118)" fill="#0c1b3c"/>
      <path id="Path_3480" data-name="Path 3480" d="M2981.536,882.4a7.8,7.8,0,0,1,3.106,7s.006,1.353-1.537.66-2.793-5.773-2.658-6.868S2981.149,882.274,2981.536,882.4Z" transform="translate(-2919.513 -877.579)" fill="#3fb8a9"/>
      <path id="Path_3481" data-name="Path 3481" d="M2887.764,886.755c-5.377,4.687-8.011,4.359-9.581,2.06-.586-.856-2.207-2.976-4.018-5.3-3.035-3.907-6.589-8.388-6.589-8.388s-5.626-.357-5.749-4.707a6.016,6.016,0,0,1,.468-2.472c1.386-3.419,5.789-6.375,11.907-6.882,7.563-.626,14.438,3.126,16.439,8.376S2893.137,882.068,2887.764,886.755Z" transform="translate(-2827.222 -861)" fill="#0c1b3c"/>
      <path id="Path_3482" data-name="Path 3482" d="M2874.166,897.885c-3.035-3.907-6.589-8.388-6.589-8.388s-5.626-.357-5.749-4.707a6.016,6.016,0,0,1,.468-2.472c1.117-1.747,3.217-3.253,7.156-2.758,8.44,1.062,4.521,15.159,6.605,16.641C2876.821,896.748,2875.787,897.346,2874.166,897.885Z" transform="translate(-2827.222 -875.367)" fill="#1b5175" opacity="0.52"/>
      <g id="Group_1422" data-name="Group 1422" transform="translate(5.75 68.767)">
        <path id="Path_3483" data-name="Path 3483" d="M2743.1,1353.492a17.687,17.687,0,0,0-4.452,1.983c-1.466,1.108-5.032,2.823-5.1,3.4s2.995-.32,4.2-.788,1.017.684-.486,2.108a37.752,37.752,0,0,1-3.842,3.364c-1.731,1.317-1.934,1.907-1.268,2.146a1.519,1.519,0,0,0,1.278-.2s-1.554,1.178-.938,1.838,2.518-.744,2.518-.744-.54.951.772.919,1.755-.62,3.3-1.078,6.216-5.379,7.3-7.093a19.092,19.092,0,0,0,1.633-3.2Z" transform="translate(-2731.798 -1312.975)" fill="#ffac95"/>
        <path id="Path_3484" data-name="Path 3484" d="M2812.277,1170.9s2.859,14.284-4.124,22.277-22.916,22.619-22.916,22.619l-5.861-4.592s14.347-18.983,16.315-26.272c.419-1.553.811-4.54.811-4.54Z" transform="translate(-2768.818 -1170.9)" fill="#f5911f"/>
      </g>
      <path id="Path_3485" data-name="Path 3485" d="M2835.94,1332.2a5.129,5.129,0,0,1,.216-3.093c.66-1.445,3.8,2.88,3.8,2.88l.825,3.6Z" transform="translate(-2806.967 -1225.007)" fill="#ffac95"/>
      <g id="Group_1423" data-name="Group 1423" transform="translate(91.707 196.166)">
        <path id="Path_3486" data-name="Path 3486" d="M3133.823,1754.105c2.676,2.88,8.362,13.728,8.362,13.728l-4.21,3.057s-4.819-7.239-5.819-6.805-.018,11.044-1.357,12.017l-10.239,7.435a14.617,14.617,0,0,1,1.354-7.192c1.535-3.055,3.116-9.354-.9-18.85-.519-1.23-1.132-2.516-1.851-3.853l9.24-8.61s1.14,2.569,2.662,5.164A23.319,23.319,0,0,0,3133.823,1754.105Z" transform="translate(-3119.165 -1745.033)" fill="#1b5175"/>
        <path id="Path_3487" data-name="Path 3487" d="M3119.165,1753.643l9.24-8.61s1.14,2.569,2.662,5.164l-10.051,7.3C3120.5,1756.265,3119.884,1754.979,3119.165,1753.643Z" transform="translate(-3119.165 -1745.033)" fill="#e9928b"/>
      </g>
      <path id="Path_3488" data-name="Path 3488" d="M2965.466,1398.926l-20.5,14s-10.726-13.182-20.235-25.3c-6.344-8.091-12.148-15.7-13.848-18.607-3.431-5.856-8.333-29.007-10.092-37.685-.416-2.064-.658-3.312-.658-3.312l2.512-7.049,4.877-13.685.361-1.014a38.8,38.8,0,0,1,7.437-2.785,20.461,20.461,0,0,1,3.154-.551c3.2-.273,6.11.487,7.021,3.736.051.19.1.392.138.6.182.971.381,2.215.591,3.661,1.767,12.3,4.251,39.444,5.032,42.495C2932.136,1356.831,2965.466,1398.926,2965.466,1398.926Z" transform="translate(-2857.033 -1204.832)" fill="#5f6386"/>
      <path id="Path_3489" data-name="Path 3489" d="M2927.041,1415.843c-6.344-8.091-12.148-15.7-13.848-18.607-3.431-5.856-8.333-29.007-10.092-37.685a21.075,21.075,0,0,1,1.046-3.506c1.054-1.585,24.387-16.9,24.387-16.9s.971,13.685-3.653,22.422-8.586,15.139-4.886,24.55-4.228,14.83,2.112,20.112A13.748,13.748,0,0,1,2927.041,1415.843Z" transform="translate(-2859.339 -1233.049)" fill="#4a4e73"/>
      <g id="Group_1424" data-name="Group 1424" transform="translate(0 208.124)">
        <path id="Path_3490" data-name="Path 3490" d="M2733.911,1809.448c.473,3.9-1.3,16.022-1.3,16.022h-5.2s.355-8.69-.709-8.926-6.5,8.926-8.16,8.926h-12.654a14.612,14.612,0,0,1,5.322-5.024c3.037-1.57,8.018-5.738,10.35-15.78.3-1.3.563-2.7.766-4.205l12.535-1.537s-.586,2.748-.88,5.743A23.28,23.28,0,0,0,2733.911,1809.448Z" transform="translate(-2705.884 -1798.923)" fill="#1b5175"/>
        <path id="Path_3491" data-name="Path 3491" d="M2777.275,1800.46l12.535-1.537s-.586,2.748-.88,5.743h-12.422C2776.812,1803.365,2777.072,1801.965,2777.275,1800.46Z" transform="translate(-2760.837 -1798.923)" fill="#e9928b"/>
      </g>
      <path id="Path_3492" data-name="Path 3492" d="M2757.506,1289.33s-18,42.249-23.25,59.749-13.25,55.249-13.25,55.249h27.5s10.75-51.249,15.5-59.5,22.5-38.249,19.749-49S2757.506,1289.33,2757.506,1289.33Z" transform="translate(-2717.651 -1193.639)" fill="#5f6386"/>
      <path id="Path_3493" data-name="Path 3493" d="M2893.647,1309.307l-8.342,21.651-27.041-17.17,16.681-8.126,7.8-3.8,2.183-1.066.971.515,7.021,3.736c.051.19.1.392.138.6C2893.238,1306.616,2893.437,1307.861,2893.647,1309.307Z" transform="translate(-2824.451 -1203.206)" fill="#4a4e73"/>
      <path id="Path_3494" data-name="Path 3494" d="M2868.179,1035.439a32.18,32.18,0,0,0-12,10.234c-5.5,7.5-12,21.445-12.5,24.1s4.287,23.715,4.269,29.152,25.578,3.428,32.828-.072c0,0-2.848-19.928-2.848-22.678s.25-21.25-1.25-29.749A14.33,14.33,0,0,0,2868.179,1035.439Z" transform="translate(-2813.074 -996.731)" fill="#ffab40"/>
      <path id="Path_3495" data-name="Path 3495" d="M2912.1,1123.773s-1.027,6.84,0,11.991-7.006,2.016-9.792,12.5,21.057,5.4,21.057,5.4,6.573-10.105,6.62-11.822S2912.1,1123.773,2912.1,1123.773Z" transform="translate(-2858.545 -1065.464)" fill="#f5911f"/>
      <path id="Path_3496" data-name="Path 3496" d="M2902.5,988.612s-12.564,12.921-11.459,9.517c.606-1.874-.452-6.355-1.525-10-.88-2.98-1.767-5.4-1.767-5.4s2.413-2.456,4.941-4.552c2.678-2.223,5.484-4.033,5.666-2.072C2898.708,979.911,2902.5,988.612,2902.5,988.612Z" transform="translate(-2847.39 -949.904)" fill="#ffac95"/>
      <g id="Group_1425" data-name="Group 1425" transform="translate(8.455 64.738)">
        <rect id="Rectangle_152" data-name="Rectangle 152" width="33.608" height="57.993" transform="matrix(0.421, -0.907, 0.907, 0.421, 0, 30.483)" fill="#3fb8a9"/>
        <rect id="Rectangle_153" data-name="Rectangle 153" width="26.607" height="50.992" transform="matrix(0.421, -0.907, 0.907, 0.421, 4.65, 28.782)" fill="#fff"/>
        <path id="Path_3497" data-name="Path 3497" d="M2786.206,1247.465l18.97-13.329,2.059,23.093Z" transform="translate(-2776.837 -1216.075)" fill="#3fb8a9"/>
        <path id="Path_3498" data-name="Path 3498" d="M2876.574,1300.21l14.672-10.309,1.592,17.861Z" transform="translate(-2847.153 -1259.466)" fill="#3fb8a9"/>
        <circle id="Ellipse_53" data-name="Ellipse 53" cx="3.449" cy="3.449" r="3.449" transform="translate(33.789 24.849) rotate(-80.446)" fill="#3fb8a9"/>
      </g>
      <path id="Path_3499" data-name="Path 3499" d="M2846.234,1314.067s-2.445.345-4.174.79-5.138.2-5.533.988,3.829,1.482,4.854,1.581-1.593,1.546-3.075,1.959-2.667,1.005-1.136,2.389,3.9,3.458,4.891,3.606,5.83-3.508,8.5-6.225S2846.234,1314.067,2846.234,1314.067Z" transform="translate(-2807.48 -1213.532)" fill="#ffac95"/>
      <path id="Path_3500" data-name="Path 3500" d="M2894.359,1052.205c-4.716,3.609-2.875,12.875-.5,18.874s9.125,17,8.625,18-25.516,19.98-25.516,19.98l5.141,6.457s23.75-11.937,29.624-16.187,6.375-8.875,4.625-14.875S2904.484,1044.455,2894.359,1052.205Z" transform="translate(-2839.005 -1008.888)" fill="#ffab40"/>
      <path id="Path_3501" data-name="Path 3501" d="M2796.825,1478.279l-1.171-.205c.378-2.158,9.27-52.92,10.834-57.7,1.557-4.752,13.79-35.654,14.31-36.968l1.1.438c-.127.321-12.74,32.182-14.285,36.9C2806.081,1425.443,2796.917,1477.751,2796.825,1478.279Z" transform="translate(-2775.734 -1267.488)" fill="#4a4e73"/>
      <path id="Path_3502" data-name="Path 3502" d="M3006.98,1535.725c-.186-.233-18.716-23.467-28.423-35.477-9.8-12.122-13.421-29.138-13.457-29.309l1.164-.242c.035.167,3.6,16.91,13.217,28.8,9.709,12.013,28.241,35.25,28.427,35.483Z" transform="translate(-2907.581 -1335.406)" fill="#4a4e73"/>
      <path id="Path_3503" data-name="Path 3503" d="M3112.617,942.225a4.432,4.432,0,0,1-1.386,1.2c4.168-4.965,1.109-11.542-9.589-11.407s-13.6-9.113-7.263-24.435-9.64-16.511-16.376-13.075-13.606.265-13.341-7.168c.178-4.973-1.292-7.592-2.286-8.784,2.171,2.357,3.023,5.65,4.4,8.17,2.25,4.125,6,3.843,11.811,2.064s17.529-.959,20.061,8.753-4.216,21.059,7.877,23.872S3116.365,937.351,3112.617,942.225Z" transform="translate(-2983.271 -874.66)" fill="#1b5175" opacity="0.52"/>
      <path id="Path_3504" data-name="Path 3504" d="M2896.244,985.8s-1.882,6.9-6.732,10.528c-.88-2.98-1.767-5.4-1.767-5.4s2.413-2.456,4.941-4.552Z" transform="translate(-2847.39 -958.106)" fill="#e9928b"/>
      <path id="Path_3505" data-name="Path 3505" d="M2860.521,903.855s-3.375,8.375-6.562,10-1.062,2,0,3.812-3,7.437.5,10,11.625-1.625,14.187-5.937c0,0,4.437.188,5.5-3.188s-2.375-5.5-4.375-4-2.25-1.625-3.125-6.312S2860.948,902.858,2860.521,903.855Z" transform="translate(-2819.791 -894.037)" fill="#ffac95"/>
    </g>
    <g id="Group_1428" data-name="Group 1428" transform="translate(1152.166 772.121)">
      <path id="Path_3506" data-name="Path 3506" d="M1274.441,1813.642c-.754-7.914,6.412-19.825,29.416-12.076,0,0,5.812-18.161,21.794-17.556s21.067,15.551,21.067,15.551,21.471-2.6,24.538,15.566C1371.257,1815.127,1275.531,1825.076,1274.441,1813.642Z" transform="translate(-1274.388 -1783.996)" fill="#adccc7"/>
      <g id="Group_1427" data-name="Group 1427" transform="translate(36.749 8.177)">
        <path id="Path_3507" data-name="Path 3507" d="M1465.943,1843.68l-.782-.126c2.073-12.864-5.9-22.094-5.98-22.185l.595-.524C1459.858,1820.94,1468.074,1830.451,1465.943,1843.68Z" transform="translate(-1454.924 -1820.845)" fill="#6eab9c"/>
        <path id="Path_3508" data-name="Path 3508" d="M1488.721,1836.411l-.607-.51c.073-.087,7.362-8.8,8.6-14.272l.773.176C1496.206,1827.459,1489.026,1836.048,1488.721,1836.411Z" transform="translate(-1477.437 -1821.455)" fill="#6eab9c"/>
        <path id="Path_3509" data-name="Path 3509" d="M1450.947,1884.526c-5.692-.31-10.736-6.18-10.948-6.429l.6-.513c.05.059,5.038,5.86,10.387,6.151Z" transform="translate(-1439.999 -1864.994)" fill="#6eab9c"/>
      </g>
      <path id="Path_3510" data-name="Path 3510" d="M1568.443,1892.5l-.518-.6c.411-.355,10.14-8.712,15.2-8.852l.021.792C1578.368,1883.971,1568.542,1892.413,1568.443,1892.5Z" transform="translate(-1502.789 -1861.067)" fill="#6eab9c"/>
      <path id="Path_3511" data-name="Path 3511" d="M1606.544,1908.223a87.694,87.694,0,0,1-14.105-2.1l.2-.767a86.883,86.883,0,0,0,13.954,2.072Z" transform="translate(-1521.864 -1878.429)" fill="#6eab9c"/>
      <path id="Path_3512" data-name="Path 3512" d="M1339.4,1893.842c-5.123-4.259-15.928-7.662-16.036-7.7l.236-.757c.449.14,11.065,3.484,16.307,7.844Z" transform="translate(-1312.493 -1862.89)" fill="#6eab9c"/>
      <path id="Path_3513" data-name="Path 3513" d="M1373.832,1876.57" transform="translate(-1351.766 -1856.028)" fill="none" stroke="#6eab9c" stroke-miterlimit="10" stroke-width="2"/>
      <path id="Path_3514" data-name="Path 3514" d="M1368.659,1880.031l-.793-.023a16.52,16.52,0,0,0-1.775-7.75l.69-.39A17.028,17.028,0,0,1,1368.659,1880.031Z" transform="translate(-1345.743 -1852.369)" fill="#6eab9c"/>
    </g>
    <g id="Group_1436" data-name="Group 1436" transform="translate(1264.379 483.554)">
      <path id="Path_3515" data-name="Path 3515" d="M1922.326,595l-139.47,2.377L1780.083,595v-45.83h142.244l2.774,2.377Z" transform="translate(-1780.083 -534.613)" fill="#b6d5d0"/>
      <path id="Path_3516" data-name="Path 3516" d="M1922.326,493.856l-139.47,2.377-2.773-2.377v-10.3h142.244l2.774,2.377Z" transform="translate(-1780.083 -483.554)" fill="#b6d5d0"/>
      <rect id="Rectangle_154" data-name="Rectangle 154" width="142.244" height="45.83" transform="translate(2.774 16.938)" fill="#dceceb"/>
      <rect id="Rectangle_155" data-name="Rectangle 155" width="142.244" height="10.302" transform="translate(2.774 2.377)" fill="#edf6f5"/>
      <g id="Group_1434" data-name="Group 1434" transform="translate(9.547 4.803)">
        <g id="Group_1433" data-name="Group 1433" transform="translate(0 0)">
          <g id="Group_1430" data-name="Group 1430" transform="translate(17.729)">
            <g id="Group_1429" data-name="Group 1429" transform="translate(0)">
              <circle id="Ellipse_54" data-name="Ellipse 54" cx="1.927" cy="1.927" r="1.927" transform="translate(0 2.725) rotate(-45)" fill="#67a4c3"/>
            </g>
          </g>
          <g id="Group_1431" data-name="Group 1431" transform="translate(8.661)">
            <circle id="Ellipse_55" data-name="Ellipse 55" cx="1.927" cy="1.927" r="1.927" transform="translate(0 2.725) rotate(-45)" fill="#eb908b"/>
          </g>
          <g id="Group_1432" data-name="Group 1432" transform="translate(0 0.407)">
            <circle id="Ellipse_56" data-name="Ellipse 56" cx="1.927" cy="1.927" r="1.927" transform="translate(0 3.751) rotate(-76.717)" fill="#ffaa3f"/>
          </g>
        </g>
      </g>
      <g id="Group_1435" data-name="Group 1435" transform="translate(98.11 19.171)">
        <path id="Path_3517" data-name="Path 3517" d="M2240.532,569.947a18.313,18.313,0,1,0,18.313,18.313A18.312,18.312,0,0,0,2240.532,569.947Zm0,30.1a11.788,11.788,0,1,1,11.788-11.788A11.788,11.788,0,0,1,2240.532,600.048Z" transform="translate(-2222.219 -569.947)" fill="#b2e5e0"/>
        <path id="Path_3518" data-name="Path 3518" d="M2273.111,582.446a18.318,18.318,0,1,0,5.373,12.956A18.236,18.236,0,0,0,2273.111,582.446Zm-7.033,23.155a11.789,11.789,0,1,1,5.88-10.2A11.722,11.722,0,0,1,2266.078,605.6Z" transform="translate(-2237.499 -575.504)" fill="#3fb8a9"/>
        <path id="Path_3519" data-name="Path 3519" d="M2363.416,614.186a18.31,18.31,0,0,1-9.133,15.853l-3.273-5.654a11.789,11.789,0,0,0,2.421-18.543l4.612-4.612A18.24,18.24,0,0,1,2363.416,614.186Z" transform="translate(-2322.431 -594.288)" fill="#fff"/>
        <path id="Path_3520" data-name="Path 3520" d="M2270.476,683.169a18.326,18.326,0,0,1-27.173-12.429l6.411-1.228a11.786,11.786,0,0,0,17.49,8Z" transform="translate(-2238.625 -647.418)" fill="#ffc945"/>
      </g>
      <rect id="Rectangle_156" data-name="Rectangle 156" width="63.759" height="2.977" transform="translate(10.335 25.914)" fill="#fff"/>
      <rect id="Rectangle_157" data-name="Rectangle 157" width="63.759" height="2.977" transform="translate(10.335 38.197)" fill="#fff"/>
      <rect id="Rectangle_158" data-name="Rectangle 158" width="63.759" height="2.977" transform="translate(10.335 50.48)" fill="#fff"/>
    </g>
    <path id="Path_3521" data-name="Path 3521" d="M2909.963,1028.08a32.091,32.091,0,0,1-11.018,7.537l-.894,4.974s6.278-1.923,12.464-10.878Z" transform="translate(-1385.596 -423.696)" fill="#f5911f"/>
    <path id="Path_3522" data-name="Path 3522" d="M2184.869,1858.073h-7.528s6.068-3.042,8.055-9.274c1.433-4.493,3.773-8.806,6.685-7.741s.512,6.015-1.033,8.807A49.743,49.743,0,0,1,2184.869,1858.073Z" transform="translate(-824.811 -1056.147)" fill="#408c91"/>
    <path id="Path_3523" data-name="Path 3523" d="M1548.418,1287h-1.189v-48.123a7.429,7.429,0,0,1,7.42-7.42h4.906v1.189h-4.906a6.239,6.239,0,0,0-6.232,6.232Z" transform="translate(-334.52 -581.944)" fill="#3fb8a9"/>
    <path id="Path_3524" data-name="Path 3524" d="M1570.054,1303.144h-1.189v-48.123a3.462,3.462,0,0,1,3.458-3.458h8.627v1.188h-8.627a2.272,2.272,0,0,0-2.27,2.269Z" transform="translate(-351.355 -597.588)" fill="#3fb8a9"/>
    <path id="Path_3525" data-name="Path 3525" d="M2279.583,1355.46a4.806,4.806,0,0,1,.3,1.434,101.648,101.648,0,0,1-13.158-11.082c8.915-6.32,7.726-26.25,7.726-26.25s10.06-8.784,11.447-6.66-3.566,14.307,0,19.312S2276.643,1347.357,2279.583,1355.46Z" transform="translate(-894.358 -645.058)" fill="#4f91b3"/>
    <path id="Path_3526" data-name="Path 3526" d="M2397.934,1124.454a11.847,11.847,0,0,0-2.06-3.844,10.573,10.573,0,0,0,2.064-5.016S2400.343,1121.145,2397.934,1124.454Z" transform="translate(-994.851 -491.791)" fill="#de6667"/>
    <g id="Group_1438" data-name="Group 1438" transform="translate(1286.56 552.434)">
      <circle id="Ellipse_57" data-name="Ellipse 57" cx="10.04" cy="10.04" r="10.04" transform="translate(0 0)" fill="#fff"/>
      <g id="Group_1437" data-name="Group 1437" transform="translate(29.951 0.25)">
        <rect id="Rectangle_159" data-name="Rectangle 159" width="44.583" height="2.88" fill="#fff"/>
        <rect id="Rectangle_160" data-name="Rectangle 160" width="44.583" height="2.88" transform="translate(0 8.516)" fill="#fff"/>
        <rect id="Rectangle_161" data-name="Rectangle 161" width="24.671" height="2.88" transform="translate(0 16.948)" fill="#fff"/>
      </g>
    </g>
    <g id="Group_1440" data-name="Group 1440" transform="translate(1170.1 676.738)">
      <rect id="Rectangle_162" data-name="Rectangle 162" width="24.512" height="16.657" transform="translate(0)" fill="#eb908b"/>
      <g id="Group_1439" data-name="Group 1439" transform="translate(2.999 4.691)">
        <path id="Path_3527" data-name="Path 3527" d="M1374.449,1382.489a4.841,4.841,0,0,1-2.1.389,3.537,3.537,0,0,1-2.657-.994,3.63,3.63,0,0,1-.968-2.647,3.878,3.878,0,0,1,1.088-2.857,3.805,3.805,0,0,1,2.823-1.1,5.283,5.283,0,0,1,1.813.271v1.592a3.213,3.213,0,0,0-1.679-.44,2.227,2.227,0,0,0-1.669.65,2.411,2.411,0,0,0-.635,1.761,2.366,2.366,0,0,0,.6,1.7,2.116,2.116,0,0,0,1.613.632,3.439,3.439,0,0,0,1.771-.471Z" transform="translate(-1368.725 -1375.285)" fill="#fff"/>
        <path id="Path_3528" data-name="Path 3528" d="M1399.839,1382.468v-1.639a3.147,3.147,0,0,0,.968.561,3.113,3.113,0,0,0,1.055.187,2.339,2.339,0,0,0,.545-.056,1.277,1.277,0,0,0,.389-.156.681.681,0,0,0,.233-.236.589.589,0,0,0,.077-.294.636.636,0,0,0-.123-.384,1.329,1.329,0,0,0-.335-.312,3.561,3.561,0,0,0-.5-.276q-.292-.133-.63-.271a3.212,3.212,0,0,1-1.282-.876,1.912,1.912,0,0,1-.422-1.249,1.988,1.988,0,0,1,.231-.985,1.958,1.958,0,0,1,.627-.679,2.822,2.822,0,0,1,.919-.391,4.727,4.727,0,0,1,1.106-.125,6.626,6.626,0,0,1,1.016.069,4,4,0,0,1,.817.212v1.531a2.471,2.471,0,0,0-.4-.225,3.169,3.169,0,0,0-.448-.161,3.414,3.414,0,0,0-.458-.095,3.2,3.2,0,0,0-.433-.031,2.264,2.264,0,0,0-.512.054,1.319,1.319,0,0,0-.389.151.756.756,0,0,0-.246.233.551.551,0,0,0-.087.3.582.582,0,0,0,.1.33,1.113,1.113,0,0,0,.276.277,2.986,2.986,0,0,0,.435.256q.256.125.578.258a6.464,6.464,0,0,1,.791.392,2.816,2.816,0,0,1,.6.469,1.831,1.831,0,0,1,.384.6,2.383,2.383,0,0,1-.1,1.812,1.888,1.888,0,0,1-.632.676,2.736,2.736,0,0,1-.929.371,5.377,5.377,0,0,1-1.119.113,6.211,6.211,0,0,1-1.149-.1A3.473,3.473,0,0,1,1399.839,1382.468Z" transform="translate(-1392.911 -1375.285)" fill="#fff"/>
        <path id="Path_3529" data-name="Path 3529" d="M1427.507,1382.468v-1.639a3.145,3.145,0,0,0,.967.561,3.113,3.113,0,0,0,1.055.187,2.34,2.34,0,0,0,.545-.056,1.278,1.278,0,0,0,.389-.156.682.682,0,0,0,.233-.236.589.589,0,0,0,.077-.294.638.638,0,0,0-.123-.384,1.331,1.331,0,0,0-.335-.312,3.569,3.569,0,0,0-.5-.276q-.291-.133-.63-.271a3.213,3.213,0,0,1-1.282-.876,1.911,1.911,0,0,1-.423-1.249,1.987,1.987,0,0,1,.231-.985,1.957,1.957,0,0,1,.627-.679,2.819,2.819,0,0,1,.919-.391,4.724,4.724,0,0,1,1.106-.125,6.626,6.626,0,0,1,1.016.069,4,4,0,0,1,.817.212v1.531a2.475,2.475,0,0,0-.4-.225,3.176,3.176,0,0,0-.448-.161,3.416,3.416,0,0,0-.458-.095,3.2,3.2,0,0,0-.433-.031,2.265,2.265,0,0,0-.512.054,1.319,1.319,0,0,0-.389.151.756.756,0,0,0-.246.233.552.552,0,0,0-.087.3.582.582,0,0,0,.1.33,1.113,1.113,0,0,0,.276.277,2.979,2.979,0,0,0,.435.256q.256.125.578.258a6.446,6.446,0,0,1,.791.392,2.816,2.816,0,0,1,.6.469,1.833,1.833,0,0,1,.384.6,2.385,2.385,0,0,1-.1,1.812,1.889,1.889,0,0,1-.632.676,2.734,2.734,0,0,1-.929.371,5.377,5.377,0,0,1-1.119.113,6.211,6.211,0,0,1-1.149-.1A3.471,3.471,0,0,1,1427.507,1382.468Z" transform="translate(-1414.439 -1375.285)" fill="#fff"/>
      </g>
    </g>
    <g id="Group_1442" data-name="Group 1442" transform="translate(1117.31 711.337)">
      <rect id="Rectangle_163" data-name="Rectangle 163" width="39.369" height="18.095" transform="translate(0)" fill="#b2d3e4"/>
      <g id="Group_1441" data-name="Group 1441" transform="translate(3.759 4.889)">
        <path id="Path_3530" data-name="Path 3530" d="M1141.153,1540.08h-1.8v-3.248h-3.3v3.248h-1.8V1532.1h1.8v3.182h3.3V1532.1h1.8Z" transform="translate(-1134.251 -1532.104)" fill="#fff"/>
        <path id="Path_3531" data-name="Path 3531" d="M1177.867,1533.567h-2.275v6.513h-1.8v-6.513h-2.264V1532.1h6.34Z" transform="translate(-1163.255 -1532.104)" fill="#fff"/>
        <path id="Path_3532" data-name="Path 3532" d="M1215.309,1540.08h-1.774v-4.772q0-.773.067-1.708h-.044a8.425,8.425,0,0,1-.25,1.057l-1.869,5.423h-1.468l-1.9-5.367a10.427,10.427,0,0,1-.25-1.112h-.05q.073,1.179.073,2.069v4.41h-1.619V1532.1h2.631l1.63,4.728a6.652,6.652,0,0,1,.284,1.14h.033a11.5,11.5,0,0,1,.317-1.151l1.63-4.717h2.564Z" transform="translate(-1190.251 -1532.104)" fill="#fff"/>
        <path id="Path_3533" data-name="Path 3533" d="M1261.38,1540.08h-4.75V1532.1h1.8v6.519h2.953Z" transform="translate(-1229.474 -1532.104)" fill="#fff"/>
      </g>
    </g>
    <g id="Group_1446" data-name="Group 1446" transform="translate(1214.766 712.986)">
      <g id="Group_1443" data-name="Group 1443" transform="translate(0 17.752)">
        <circle id="Ellipse_58" data-name="Ellipse 58" cx="1.886" cy="1.886" r="1.886" fill="#b6d5d0"/>
      </g>
      <g id="Group_1444" data-name="Group 1444" transform="translate(0 8.876)">
        <circle id="Ellipse_59" data-name="Ellipse 59" cx="1.886" cy="1.886" r="1.886" fill="#b6d5d0"/>
      </g>
      <g id="Group_1445" data-name="Group 1445" transform="translate(0 0)">
        <circle id="Ellipse_60" data-name="Ellipse 60" cx="1.886" cy="1.886" r="1.886" fill="#b6d5d0"/>
      </g>
    </g>
  </g>
</svg>
