<svg xmlns="http://www.w3.org/2000/svg" xmlns:xlink="http://www.w3.org/1999/xlink" width="400.742" height="455.982" viewBox="0 0 400.742 455.982">
  <defs>
    <filter id="Path_2048" x="270.611" y="77.626" width="45.764" height="32.533" filterUnits="userSpaceOnUse">
      <feOffset dx="2" dy="2" input="SourceAlpha"/>
      <feGaussianBlur result="blur"/>
      <feFlood flood-color="#0c0c0c" flood-opacity="0.149"/>
      <feComposite operator="in" in2="blur"/>
      <feComposite in="SourceGraphic"/>
    </filter>
  </defs>
  <g id="mobile_app_development" transform="translate(-344.109 -81.953)">
    <path id="Path_2018" data-name="Path 2018" d="M685.371,403.971V378.379h2.552a12.4,12.4,0,0,0,12.4-12.4V263.063a12.4,12.4,0,0,0-12.4-12.4H653.328V182.741a20.464,20.464,0,0,0-20.465-20.465H586.847V159.7a20.466,20.466,0,0,0-20.466-20.466H416.2a28,28,0,0,0-28,28v99.547h-8.06a13.092,13.092,0,0,0-13.092,13.092V339.1a13.092,13.092,0,0,0,13.092,13.092h12.132a9.674,9.674,0,0,1,9.674,9.674v42.106H374.276A18.529,18.529,0,0,0,355.748,422.5v93.685H727.724V422.5A18.528,18.528,0,0,0,709.2,403.971Z" transform="translate(2.744 13.507)" fill="#e6e8ef"/>
    <g id="Group_750" data-name="Group 750" transform="translate(370.397 397.274)">
      <path id="Path_2019" data-name="Path 2019" d="M379.072,350.8H365.381v-13.69h13.691Zm-11.358-2.332h9.026v-9.026h-9.026Z" transform="translate(-365.381 -337.112)" fill="#e6e8ef"/>
    </g>
    <g id="Group_756" data-name="Group 756" transform="translate(659.458 419.729)">
      <g id="Group_751" data-name="Group 751" transform="translate(54.712 56.542)">
        <path id="Path_2020" data-name="Path 2020" d="M671.492,401.075q4.063,1.4-9.246,53.382h-9.587c4.859-13.369,9.417-26.851,13.764-40.4.235-.739-.206-.869-.474-.164q-7.695,20.114-14.54,40.566h-7.845Q667.2,399.6,671.492,401.075Z" transform="translate(-643.563 -401.037)" fill="#bbc1f9"/>
        <path id="Path_2021" data-name="Path 2021" d="M664.451,411.528c.268-.7.709-.575.474.164-4.347,13.55-8.905,27.033-13.764,40.4h-1.251Q656.74,431.655,664.451,411.528Z" transform="translate(-642.066 -398.673)" fill="#8338ea"/>
      </g>
      <g id="Group_752" data-name="Group 752" transform="translate(26.1)">
        <path id="Path_2022" data-name="Path 2022" d="M642.93,465.246H632.722l.086-3.8.179-6.682q.41-13.361.821-26.726.836-26.736,1.673-53.476c.043-1.422-.419-1.4-.5-.025q-1.613,26.687-2.516,53.446-.443,13.374-.634,26.753l-.063,6.691-.005,3.819H620.41c7.332-81.52,12.228-110.094,15.546-109.963S641.922,384.076,642.93,465.246Z" transform="translate(-620.41 -355.283)" fill="#bbc1f9"/>
        <path id="Path_2023" data-name="Path 2023" d="M632.813,371.061c.084-1.375.546-1.4.5.025q-.836,26.736-1.673,53.476-.411,13.367-.821,26.726l-.179,6.682-.087,3.8h-.961l.005-3.819.063-6.691q.187-13.378.634-26.753Q631.181,397.761,632.813,371.061Z" transform="translate(-618.244 -351.807)" fill="#8338ea"/>
      </g>
      <g id="Group_753" data-name="Group 753" transform="translate(15.309 34.466)">
        <path id="Path_2024" data-name="Path 2024" d="M626.15,458.67h-5.887c-.236-19.528-1.045-39.063-2.218-58.574-.048-.829-.509-.786-.5.018q.26,29.283,1.993,58.555h-7.86c.728-45.261,3.239-75.429,5.362-75.5Q620.408,383.067,626.15,458.67Z" transform="translate(-611.678 -383.173)" fill="#b6a6f9"/>
        <path id="Path_2025" data-name="Path 2025" d="M619.144,455.556h-.725q-1.759-29.231-1.993-58.555c-.009-.8.452-.848.5-.018C618.1,416.493,618.908,436.028,619.144,455.556Z" transform="translate(-610.559 -380.059)" fill="#8338ea"/>
      </g>
      <g id="Group_754" data-name="Group 754" transform="translate(0 59.623)">
        <path id="Path_2026" data-name="Path 2026" d="M618.193,453.87H612.5c-2.678-13.021-5.8-25.954-9.214-38.814-.159-.607-.6-.482-.489.114q3.769,19.467,8.707,38.7h-7.963q-6.516-49.621-3.052-50.33Q604.061,402.813,618.193,453.87Z" transform="translate(-599.29 -403.53)" fill="#b6a6f9"/>
        <path id="Path_2027" data-name="Path 2027" d="M611.838,451.747h-1q-4.953-19.2-8.707-38.7c-.114-.6.33-.72.489-.114C606.035,425.793,609.16,438.725,611.838,451.747Z" transform="translate(-598.624 -401.407)" fill="#8338ea"/>
      </g>
      <g id="Group_755" data-name="Group 755" transform="translate(41.175 28.045)">
        <path id="Path_2028" data-name="Path 2028" d="M666.913,377.993q3.656,1.162-17.971,81.9h-8.685q11.278-32.586,21.564-65.535c.344-1.094-.1-1.207-.477-.159q-11.608,32.651-22.212,65.694h-6.524Q663.15,376.8,666.913,377.993Z" transform="translate(-632.609 -377.976)" fill="#b6a6f9"/>
        <path id="Path_2029" data-name="Path 2029" d="M660.1,391.244c.373-1.048.821-.934.477.159q-10.349,32.91-21.564,65.535h-1.125Q648.463,423.922,660.1,391.244Z" transform="translate(-631.364 -375.019)" fill="#8338ea"/>
      </g>
    </g>
    <path id="Path_2030" data-name="Path 2030" d="M484.664,311.824h-.01a2.034,2.034,0,1,0,.01,0Zm0,12.735h-.01a2.034,2.034,0,1,0,.01,0Zm0,25.473h-.01a2.034,2.034,0,1,0,.01,0Zm0-12.737h-.01a2.034,2.034,0,1,0,.01,0Zm14.5-63.681h-.011a2.035,2.035,0,1,0,.011,0Zm-14.5,25.473h-.01a2.034,2.034,0,1,0,.01,0Zm-14.5,29.53a2.029,2.029,0,0,0,0-4.058h-.009a2.029,2.029,0,0,0,.009,4.058Zm0,12.736a2.029,2.029,0,0,0,0-4.058h-.009a2.029,2.029,0,0,0,.009,4.058Zm14.5-80.475h-.01a2.034,2.034,0,1,0,.01,0Zm0,12.736h-.01a2.034,2.034,0,1,0,.01,0Zm0,12.736h-.01a2.034,2.034,0,1,0,.01,0Zm43.509,29.531a2.029,2.029,0,1,0,0-4.057h-.01a2.029,2.029,0,1,0,.01,4.057Zm0-12.736a2.029,2.029,0,0,0,0-4.058h-.01a2.029,2.029,0,0,0,.01,4.058Zm-.791-12.9a2.032,2.032,0,0,0,.791.159,2.008,2.008,0,0,0,.827-.184c.009,0,.014-.011.022-.015a2,2,0,0,0,.641-.478h0a2.01,2.01,0,0,0-1.49-3.38h-.01a2.024,2.024,0,0,0-2.024,2.028h0A2.03,2.03,0,0,0,527.382,290.248Zm-55.788,60.378a2.067,2.067,0,0,0-.21-.141,1.987,1.987,0,0,0-1.225-.452h-.01a2.02,2.02,0,0,0-1.441,3.44v0a2.028,2.028,0,0,0,1.45.613,1.9,1.9,0,0,0,.3-.062h0l0,0a1.982,1.982,0,0,0,1.2-.643c.049-.054.078-.121.121-.179a2.03,2.03,0,0,0,.248-.4,1.941,1.941,0,0,0,.148-.732v-.009a2,2,0,0,0-.524-1.33C471.637,350.7,471.624,350.656,471.594,350.626Zm-1.435-34.744a2.029,2.029,0,1,0,0-4.057h-.009a2.029,2.029,0,1,0,.009,4.057ZM499.167,337.3h-.011a2.035,2.035,0,1,0,.011,0Zm0-38.208h-.011a2.035,2.035,0,1,0,.011,0Zm0,12.737h-.011a2.035,2.035,0,1,0,.011,0Zm0,12.735h-.011a2.035,2.035,0,1,0,.011,0Zm0-38.209h-.011a2.035,2.035,0,1,0,.011,0Zm14.5-12.736h-.01a2.034,2.034,0,1,0,.01,0Zm-14.5-8.679a2.029,2.029,0,0,0,2.029-2.028v0a1.96,1.96,0,0,0-.237-.9c-.014-.026-.032-.046-.047-.07a1.98,1.98,0,0,0-.591-.649h0a1.977,1.977,0,0,0-1.151-.4h-.011a2.029,2.029,0,1,0,.011,4.057Zm14.5,59.624h-.01a2.034,2.034,0,1,0,.01,0Zm0,12.736h-.01a2.034,2.034,0,1,0,.01,0Zm0-50.945h-.01a2.034,2.034,0,1,0,.01,0Zm0,25.474h-.01a2.034,2.034,0,1,0,.01,0ZM441.153,286.35h-.01a1.778,1.778,0,0,0-.646.13,2.022,2.022,0,0,0-.5.269h0a2,2,0,0,0-.877,1.629,1.763,1.763,0,0,0,.051.243h0l0,.005a1.992,1.992,0,0,0,.64,1.248,1.787,1.787,0,0,0,.159.106,1.775,1.775,0,0,0,1.183.424,2.029,2.029,0,1,0,0-4.057Zm72.517,12.737h-.01a2.034,2.034,0,1,0,.01,0Zm-72.517,25.472h-.01a2.344,2.344,0,0,0-1.273.487,1.965,1.965,0,0,0-.34.376c-.02.03-.04.057-.058.086a1.983,1.983,0,0,0-.247.551v0h0a1.955,1.955,0,0,0-.106.525,2.016,2.016,0,0,0,1.149,1.805h0a2.016,2.016,0,0,0,.872.22l.01,0a2.029,2.029,0,1,0,0-4.058Zm0-25.472h-.01a2.034,2.034,0,1,0,.01,0Zm0,12.737h-.01a2.034,2.034,0,1,0,.01,0Zm14.5-12.737h-.011a2.035,2.035,0,1,0,.011,0Zm14.5-34.152a2.029,2.029,0,1,0,0-4.057h-.009a2.029,2.029,0,1,0,.009,4.057Zm0,25.472a2.029,2.029,0,1,0,0-4.057h-.009a2.029,2.029,0,1,0,.009,4.057Zm0-12.736a2.029,2.029,0,1,0,0-4.057h-.009a2.029,2.029,0,0,0,.009,4.057Zm-14.5,46.888h-.011a2.035,2.035,0,1,0,.011,0Zm0-12.735h-.011a2.035,2.035,0,1,0,.011,0Zm0-38.21h-.011a2.035,2.035,0,1,0,.011,0Zm14.5,29.532a2.029,2.029,0,0,0,0-4.058h-.009a2.029,2.029,0,0,0,.009,4.058Zm-14.5,34.15h-.011a2.035,2.035,0,1,0,.011,0Zm0-50.945h-.011a2.035,2.035,0,1,0,.011,0Zm73.27,38.361a2.022,2.022,0,0,0-.64-.13c-.039,0-.073-.022-.112-.022h-.011a2.025,2.025,0,0,0-2.024,2.029,1.758,1.758,0,0,0,.445,1.207,1.638,1.638,0,0,0,.115.169,2.009,2.009,0,0,0,1.322.62l.007,0h0c.049,0,.093.03.145.03a2.024,2.024,0,0,0,.753-3.905Zm-29.76,25.321h-.011a1.981,1.981,0,0,0-1.223.452,2.175,2.175,0,0,0-.208.141,2.025,2.025,0,0,0-.56,1.277c0,.056-.032.1-.032.158h0a2.324,2.324,0,0,0,.669,1.483,2.048,2.048,0,0,0,.546.367h0a1.984,1.984,0,0,0,2.726-1.241,1.73,1.73,0,0,0,.12-.6l0-.012A2.028,2.028,0,0,0,499.167,350.032Z" transform="translate(22.402 42.188)" fill="#fff"/>
    <g id="Group_757" data-name="Group 757" transform="translate(546.457 168.668)">
      <rect id="Rectangle_85" data-name="Rectangle 85" width="15.679" height="2.162" transform="translate(0 6.21)" fill="#fff"/>
      <rect id="Rectangle_86" data-name="Rectangle 86" width="15.679" height="2.162" transform="translate(0 12.42)" fill="#fff"/>
      <rect id="Rectangle_87" data-name="Rectangle 87" width="15.679" height="2.162" transform="translate(0)" fill="#fff"/>
    </g>
    <path id="Path_2031" data-name="Path 2031" d="M417.958,281.065c.633-.685,1.238-1.37,1.778-2.056,3.578-4.546,4.642-8.62,3-11.468-1.934-3.351-7.3-4.144-14.1-2.621-2.084-6.656-5.452-10.9-9.323-10.9s-7.238,4.249-9.322,10.9c-6.805-1.522-12.168-.73-14.1,2.621-1.645,2.849-.581,6.922,3,11.468.54.686,1.144,1.372,1.778,2.056-.634.686-1.238,1.372-1.778,2.058-3.578,4.546-4.642,8.618-3,11.468,1.29,2.236,4.068,3.4,7.973,3.4a24.241,24.241,0,0,0,3.455-.264c.866-.125,1.765-.306,2.675-.513,2.084,6.653,5.451,10.9,9.32,10.9s7.237-4.246,9.322-10.9c.911.206,1.809.388,2.674.513a24.258,24.258,0,0,0,3.457.264c3.9,0,6.682-1.168,7.973-3.4,1.645-2.85.581-6.922-3-11.468C419.2,282.437,418.59,281.751,417.958,281.065ZM377.98,268.751c.813-1.409,2.907-2.159,5.872-2.159a25.962,25.962,0,0,1,5.479.669,52.155,52.155,0,0,0-1.248,7.338,52.834,52.834,0,0,0-5.728,4.739c-.56-.609-1.094-1.218-1.573-1.828C377.9,273.849,376.88,270.657,377.98,268.751Zm9.864,15.58a47.813,47.813,0,0,1-3.793-3.266,48.059,48.059,0,0,1,3.793-3.265c-.052,1.069-.083,2.158-.083,3.265S387.792,283.262,387.844,284.331Zm-.877,11c-4.611.665-7.887-.047-8.987-1.953s-.078-5.1,2.8-8.758c.479-.609,1.013-1.22,1.573-1.829a52.685,52.685,0,0,0,5.728,4.74,52.311,52.311,0,0,0,1.252,7.352C388.529,295.063,387.734,295.219,386.967,295.331Zm20.907-22.548c-.91-.587-1.835-1.164-2.793-1.717s-1.92-1.074-2.874-1.563a47.557,47.557,0,0,1,4.728-1.644A47.671,47.671,0,0,1,407.874,272.783Zm-8.566-16.344c2.5,0,5.167,3.4,6.967,9.085a52.564,52.564,0,0,0-6.967,2.583,52.3,52.3,0,0,0-6.966-2.582C394.142,259.841,396.806,256.438,399.307,256.438Zm-7.626,11.421a47.96,47.96,0,0,1,4.727,1.644q-1.431.734-2.873,1.563c-.958.552-1.883,1.13-2.793,1.717A47.671,47.671,0,0,1,391.681,267.859Zm-.939,21.489c.91.587,1.835,1.164,2.793,1.717s1.917,1.064,2.878,1.557a48.067,48.067,0,0,1-4.731,1.655A48.173,48.173,0,0,1,390.742,289.348Zm8.565,16.344c-2.5,0-5.167-3.4-6.966-9.088a52.839,52.839,0,0,0,6.966-2.591,52.918,52.918,0,0,0,6.967,2.591C404.474,302.288,401.81,305.693,399.307,305.693Zm7.626-11.416a48.072,48.072,0,0,1-4.731-1.655c.961-.493,1.922-1.006,2.878-1.557s1.883-1.13,2.793-1.717A48.173,48.173,0,0,1,406.933,294.277Zm1.289-8.066c-1.382.957-2.835,1.881-4.352,2.757s-3.044,1.672-4.562,2.39c-1.518-.718-3.045-1.515-4.561-2.39s-2.971-1.8-4.352-2.757c-.136-1.642-.21-3.36-.21-5.146s.074-3.5.21-5.145c1.382-.956,2.835-1.881,4.352-2.757q2.321-1.338,4.561-2.39c1.49.7,3.015,1.5,4.562,2.39,1.518.876,2.971,1.8,4.352,2.757.136,1.642.21,3.36.21,5.145S408.358,284.568,408.222,286.211Zm6.54-19.618c2.966,0,5.061.75,5.874,2.159,1.1,1.906.078,5.1-2.8,8.759-.479.609-1.013,1.218-1.573,1.828a52.834,52.834,0,0,0-5.728-4.739,52.159,52.159,0,0,0-1.248-7.338A25.96,25.96,0,0,1,414.762,266.593Zm-3.99,11.207a48.07,48.07,0,0,1,3.793,3.265,48.085,48.085,0,0,1-3.793,3.266c.052-1.07.083-2.158.083-3.266S410.824,278.87,410.772,277.8Zm9.864,15.578c-1.1,1.906-4.372,2.617-8.987,1.953-.767-.111-1.562-.268-2.369-.447a52.32,52.32,0,0,0,1.252-7.352,52.8,52.8,0,0,0,5.728-4.74c.56.609,1.094,1.22,1.573,1.829C420.713,288.282,421.735,291.474,420.636,293.378Z" transform="translate(7.314 40.57)" fill="#fff"/>
    <g id="Group_760" data-name="Group 760" transform="translate(650.779 216.274)">
      <g id="Group_758" data-name="Group 758" transform="translate(0 4.357)">
        <path id="Path_2032" data-name="Path 2032" d="M632.042,212.894l-2.46.14a17.469,17.469,0,0,0-2.177-7.444l2.153-1.2a19.8,19.8,0,0,0-4.165-5.189l-1.641,1.845a17.38,17.38,0,0,0-6.8-3.742l.68-2.358-.026-.014a20.029,20.029,0,0,0-5.434-.755c-.4,0-.781.012-1.165.038l.141,2.46a17.291,17.291,0,0,0-7.446,2.179l-1.2-2.166a20.115,20.115,0,0,0-5.189,4.165l1.845,1.653a17.25,17.25,0,0,0-3.742,6.792l-2.37-.68-.014.052a19.86,19.86,0,0,0-.755,5.42q0,.576.038,1.153l2.46-.141a17.465,17.465,0,0,0,2.165,7.446l-2.153,1.2a20,20,0,0,0,4.152,5.2l1.652-1.845a17.245,17.245,0,0,0,6.792,3.742l-.678,2.37.063.014a19.829,19.829,0,0,0,5.421.756c.41,0,.807-.014,1.2-.04l-.153-2.459a17.5,17.5,0,0,0,7.446-2.192l1.2,2.166a20.122,20.122,0,0,0,5.19-4.178l-1.845-1.64a17.439,17.439,0,0,0,3.728-6.8l2.372.678v-.012a20.022,20.022,0,0,0,.755-5.434C632.08,213.675,632.068,213.278,632.042,212.894Zm-8.584,4.382a11.727,11.727,0,1,1-11.29-14.93,11.722,11.722,0,0,1,11.29,14.93Z" transform="translate(-592.267 -194.172)" fill="#e6e8ef"/>
      </g>
      <g id="Group_759" data-name="Group 759" transform="translate(42.376)">
        <path id="Path_2033" data-name="Path 2033" d="M654.353,202l-1.628.308a12.2,12.2,0,0,0-1.32-3.626l1.447-.808a14.011,14.011,0,0,0-4.408-4.817l-.922,1.37a12.558,12.558,0,0,0-3.5-1.64l.461-1.589-.077-.012a13.62,13.62,0,0,0-3.832-.539,13.8,13.8,0,0,0-2.626.257l.308,1.628a12.532,12.532,0,0,0-3.627,1.306l-.807-1.448a13.934,13.934,0,0,0-4.832,4.4l1.372.935a12.467,12.467,0,0,0-1.654,3.486l-1.588-.462-.026.116a13.98,13.98,0,0,0-.539,3.819,14.719,14.719,0,0,0,.243,2.6l1.641-.308a12.5,12.5,0,0,0,1.294,3.626l-1.448.795a13.936,13.936,0,0,0,4.382,4.857l.935-1.37a11.943,11.943,0,0,0,3.486,1.652l-.461,1.589.141.052a14.079,14.079,0,0,0,3.819.525,13.674,13.674,0,0,0,2.716-.269l-.32-1.628a12.227,12.227,0,0,0,3.626-1.332l.808,1.461a14.073,14.073,0,0,0,4.8-4.434l-1.37-.923a12.177,12.177,0,0,0,1.628-3.5l1.588.449.014-.025a14.194,14.194,0,0,0,.538-3.832A13.174,13.174,0,0,0,654.353,202Zm-5.729,4.947a8.352,8.352,0,0,1-8.034,6.074,8.23,8.23,0,0,1-2.269-.32,8.345,8.345,0,0,1,2.269-16.377,8.228,8.228,0,0,1,2.268.32,8.339,8.339,0,0,1,6.074,8.021A8.8,8.8,0,0,1,648.624,206.946Z" transform="translate(-626.558 -190.646)" fill="#e6e8ef"/>
      </g>
    </g>
    <g id="Group_761" data-name="Group 761" transform="translate(495.341 198.715)">
      <rect id="Rectangle_88" data-name="Rectangle 88" width="5.03" height="27.305" transform="translate(169.883 62.567)" fill="#40207f"/>
      <path id="Path_2034" data-name="Path 2034" d="M466.486,192.8v282.62c0,9.036,6.793,16.361,15.172,16.361h142.38c8.379,0,15.172-7.324,15.172-16.361V192.8c0-9.035-6.793-16.359-15.172-16.359H481.658C473.279,176.437,466.486,183.761,466.486,192.8Z" transform="translate(-466.486 -176.437)" fill="#280c54"/>
      <rect id="Rectangle_89" data-name="Rectangle 89" width="161.341" height="296.1" rx="4.254" transform="translate(5.692 8.773)" fill="#5e60f4"/>
      <path id="Path_2035" data-name="Path 2035" d="M627.175,183.536H476.349a5.256,5.256,0,0,0-5.257,5.257v8.8h161.34v-8.8A5.257,5.257,0,0,0,627.175,183.536Z" transform="translate(-465.4 -174.763)" fill="#4f56db"/>
      <circle id="Ellipse_45" data-name="Ellipse 45" cx="4.455" cy="4.455" r="4.455" transform="translate(81.907 11.632)" fill="#280c54"/>
    </g>
    <rect id="Rectangle_90" data-name="Rectangle 90" width="125.598" height="82.843" rx="1.409" transform="translate(518.903 259.147)" fill="#4f56db"/>
    <rect id="Rectangle_91" data-name="Rectangle 91" width="125.598" height="24.758" rx="1.805" transform="translate(518.903 468.955)" fill="#9398f9"/>
    <g id="Group_763" data-name="Group 763" transform="translate(518.903 228.04)">
      <rect id="Rectangle_92" data-name="Rectangle 92" width="125.598" height="24.758" rx="1.805" fill="#9398f9"/>
      <g id="Group_762" data-name="Group 762" transform="translate(8.595 7.533)">
        <line id="Line_26" data-name="Line 26" x2="108.408" fill="none" stroke="#bbc1f9" stroke-miterlimit="10" stroke-width="1.728"/>
        <line id="Line_27" data-name="Line 27" x2="108.408" transform="translate(0 4.846)" fill="none" stroke="#bbc1f9" stroke-miterlimit="10" stroke-width="1.728"/>
        <line id="Line_28" data-name="Line 28" x2="108.408" transform="translate(0 9.693)" fill="none" stroke="#bbc1f9" stroke-miterlimit="10" stroke-width="1.728"/>
      </g>
    </g>
    <g id="Group_772" data-name="Group 772" transform="translate(518.903 351.187)">
      <g id="Group_764" data-name="Group 764" transform="translate(9.974)">
        <path id="Path_2036" data-name="Path 2036" d="M510.489,333.547a16.865,16.865,0,1,1,16.865-16.865A16.884,16.884,0,0,1,510.489,333.547Z" transform="translate(-493.624 -299.818)" fill="#9398f9"/>
        <circle id="Ellipse_46" data-name="Ellipse 46" cx="12.568" cy="12.568" r="12.568" transform="translate(4.297 4.297)" fill="#bbc1f9"/>
        <path id="Path_2037" data-name="Path 2037" d="M507.271,303.295a12.568,12.568,0,0,1,12.568,12.568H507.271Z" transform="translate(-490.406 -298.998)" fill="#8338ea"/>
      </g>
      <g id="Group_765" data-name="Group 765" transform="translate(9.974 57.961)">
        <path id="Path_2038" data-name="Path 2038" d="M510.489,380.451a16.865,16.865,0,1,1,16.865-16.865A16.884,16.884,0,0,1,510.489,380.451Z" transform="translate(-493.624 -346.72)" fill="#9398f9"/>
        <circle id="Ellipse_47" data-name="Ellipse 47" cx="12.568" cy="12.568" r="12.568" transform="translate(4.297 4.297)" fill="#fc7808"/>
        <path id="Path_2039" data-name="Path 2039" d="M509.669,350.2A12.569,12.569,0,0,0,497.1,362.766h12.568Z" transform="translate(-492.804 -345.9)" fill="#bbc1f9"/>
      </g>
      <g id="Group_766" data-name="Group 766" transform="translate(81.894)">
        <path id="Path_2040" data-name="Path 2040" d="M568.687,333.549a16.865,16.865,0,1,1,16.865-16.866A16.885,16.885,0,0,1,568.687,333.549Z" transform="translate(-551.822 -299.818)" fill="#9398f9"/>
        <circle id="Ellipse_48" data-name="Ellipse 48" cx="12.568" cy="12.568" r="12.568" transform="translate(2.44 27.25) rotate(-80.753)" fill="#ff006c"/>
        <path id="Path_2041" data-name="Path 2041" d="M567.164,315.863V303.295a12.525,12.525,0,0,0-8.886,3.681Z" transform="translate(-550.3 -298.998)" fill="#bbc1f9"/>
      </g>
      <g id="Group_767" data-name="Group 767" transform="translate(81.894 57.961)">
        <path id="Path_2042" data-name="Path 2042" d="M568.687,380.451a16.865,16.865,0,1,1,16.865-16.865A16.884,16.884,0,0,1,568.687,380.451Z" transform="translate(-551.822 -346.72)" fill="#9398f9"/>
        <circle id="Ellipse_49" data-name="Ellipse 49" cx="12.568" cy="12.568" r="12.568" transform="translate(4.297 4.297)" fill="#3887fe"/>
        <path id="Path_2043" data-name="Path 2043" d="M555.3,362.766a12.568,12.568,0,0,0,12.568,12.568V350.2A12.569,12.569,0,0,0,555.3,362.766Z" transform="translate(-551.002 -345.9)" fill="#bbc1f9"/>
      </g>
      <g id="Group_768" data-name="Group 768" transform="translate(71.92 40.7)">
        <line id="Line_29" data-name="Line 29" x2="53.678" fill="none" stroke="#9398f9" stroke-miterlimit="10" stroke-width="1.728"/>
        <line id="Line_30" data-name="Line 30" x2="53.678" transform="translate(0 4.846)" fill="none" stroke="#9398f9" stroke-miterlimit="10" stroke-width="1.728"/>
        <line id="Line_31" data-name="Line 31" x2="53.678" transform="translate(0 9.693)" fill="none" stroke="#9398f9" stroke-miterlimit="10" stroke-width="1.728"/>
      </g>
      <g id="Group_769" data-name="Group 769" transform="translate(0 40.7)">
        <line id="Line_32" data-name="Line 32" x2="53.678" fill="none" stroke="#9398f9" stroke-miterlimit="10" stroke-width="1.728"/>
        <line id="Line_33" data-name="Line 33" x2="53.678" transform="translate(0 4.846)" fill="none" stroke="#9398f9" stroke-miterlimit="10" stroke-width="1.728"/>
        <line id="Line_34" data-name="Line 34" x2="53.678" transform="translate(0 9.693)" fill="none" stroke="#9398f9" stroke-miterlimit="10" stroke-width="1.728"/>
      </g>
      <g id="Group_770" data-name="Group 770" transform="translate(71.92 97.59)">
        <line id="Line_35" data-name="Line 35" x2="53.678" fill="none" stroke="#9398f9" stroke-miterlimit="10" stroke-width="1.728"/>
        <line id="Line_36" data-name="Line 36" x2="53.678" transform="translate(0 4.846)" fill="none" stroke="#9398f9" stroke-miterlimit="10" stroke-width="1.728"/>
        <line id="Line_37" data-name="Line 37" x2="53.678" transform="translate(0 9.693)" fill="none" stroke="#9398f9" stroke-miterlimit="10" stroke-width="1.728"/>
      </g>
      <g id="Group_771" data-name="Group 771" transform="translate(0 97.59)">
        <line id="Line_38" data-name="Line 38" x2="53.678" fill="none" stroke="#9398f9" stroke-miterlimit="10" stroke-width="1.728"/>
        <line id="Line_39" data-name="Line 39" x2="53.678" transform="translate(0 4.846)" fill="none" stroke="#9398f9" stroke-miterlimit="10" stroke-width="1.728"/>
        <line id="Line_40" data-name="Line 40" x2="53.678" transform="translate(0 9.693)" fill="none" stroke="#9398f9" stroke-miterlimit="10" stroke-width="1.728"/>
      </g>
    </g>
    <g id="Group_776" data-name="Group 776" transform="translate(636.602 298.062)">
      <g id="Group_773" data-name="Group 773" transform="translate(2.472 2.472)" opacity="0.15" style="mix-blend-mode: multiply;isolation: isolate">
        <path id="Path_2044" data-name="Path 2044" d="M630.666,258.829H587.159a4.364,4.364,0,0,0-4.364,4.364v26.955a4.641,4.641,0,0,0,4.64,4.642h42.957a3.946,3.946,0,0,0,3.945-3.946V262.5A3.671,3.671,0,0,0,630.666,258.829Z" transform="translate(-582.795 -258.829)" fill="#0c0c0c"/>
        <path id="Path_2045" data-name="Path 2045" d="M596.952,283.964V267a1.268,1.268,0,0,1,1.854-1.125l16.254,8.485a1.267,1.267,0,0,1,0,2.247l-16.254,8.481A1.268,1.268,0,0,1,596.952,283.964Z" transform="translate(-579.457 -257.202)" fill="#0c0c0c"/>
      </g>
      <g id="Group_775" data-name="Group 775" transform="translate(0)">
        <g id="Group_774" data-name="Group 774">
          <path id="Path_2046" data-name="Path 2046" d="M628.666,256.829H585.159a4.364,4.364,0,0,0-4.364,4.364v26.955a4.641,4.641,0,0,0,4.64,4.642h42.957a3.946,3.946,0,0,0,3.945-3.946V260.5A3.671,3.671,0,0,0,628.666,256.829Z" transform="translate(-580.795 -256.829)" fill="#ff006c"/>
          <path id="Path_2047" data-name="Path 2047" d="M594.952,281.964V265a1.268,1.268,0,0,1,1.854-1.125l16.254,8.485a1.267,1.267,0,0,1,0,2.247l-16.254,8.481A1.268,1.268,0,0,1,594.952,281.964Z" transform="translate(-577.457 -255.202)" fill="#f0f5f7"/>
        </g>
      </g>
    </g>
    <g id="Group_777" data-name="Group 777" transform="translate(614.72 159.579)">
      <g transform="matrix(1, 0, 0, 1, -270.61, -77.63)" filter="url(#Path_2048)">
        <path id="Path_2048-2" data-name="Path 2048" d="M603.734,144.768H566.793a3.7,3.7,0,0,0-3.7,3.7V171.36a3.94,3.94,0,0,0,3.941,3.941H603.5a3.35,3.35,0,0,0,3.35-3.349V147.886A3.118,3.118,0,0,0,603.734,144.768Z" transform="translate(-292.48 -67.14)" fill="#3887fe"/>
      </g>
      <path id="Path_2049" data-name="Path 2049" d="M583.025,164.455a1.932,1.932,0,1,0,1.934,1.93A1.931,1.931,0,0,0,583.025,164.455Zm-4.516-2.781,1.7,1.775a4.062,4.062,0,0,1,5.627,0l1.7-1.777a6.516,6.516,0,0,0-9.027.007Zm4.5-12.161a16.806,16.806,0,0,0-11.658,4.7l1.7,1.776a14.4,14.4,0,0,1,19.924-.017l1.7-1.778A16.808,16.808,0,0,0,583.012,149.513Zm-8.034,8.477,1.7,1.776a9.15,9.15,0,0,1,12.683-.011l1.7-1.778a11.606,11.606,0,0,0-16.083.014Z" transform="translate(-561.139 -143.649)" fill="#f0f5f7"/>
    </g>
    <path id="Rectangle_93" data-name="Rectangle 93" d="M0,0H107.509a2.244,2.244,0,0,1,2.244,2.244V83.738a2.244,2.244,0,0,1-2.244,2.244H0a0,0,0,0,1,0,0V0A0,0,0,0,1,0,0Z" transform="translate(495.34 257.872)" fill="#bbc1f9" style="mix-blend-mode: multiply;isolation: isolate"/>
    <g id="Group_778" data-name="Group 778" transform="translate(572.581 476.488)">
      <line id="Line_41" data-name="Line 41" x2="66.38" fill="none" stroke="#bbc1f9" stroke-miterlimit="10" stroke-width="1.728"/>
      <line id="Line_42" data-name="Line 42" x2="66.38" transform="translate(0 4.847)" fill="none" stroke="#bbc1f9" stroke-miterlimit="10" stroke-width="1.728"/>
      <line id="Line_43" data-name="Line 43" x2="66.38" transform="translate(0 9.693)" fill="none" stroke="#bbc1f9" stroke-miterlimit="10" stroke-width="1.728"/>
    </g>
    <rect id="Rectangle_94" data-name="Rectangle 94" width="41.711" height="11.425" transform="translate(525.356 475.636)" fill="#bbc1f9"/>
    <g id="Group_779" data-name="Group 779" transform="translate(631.145 213.456)">
      <rect id="Rectangle_95" data-name="Rectangle 95" width="3.772" height="2.85" transform="translate(19.563)" fill="#9398f9"/>
      <rect id="Rectangle_96" data-name="Rectangle 96" width="3.772" height="2.85" transform="translate(13.042)" fill="#9398f9"/>
      <rect id="Rectangle_97" data-name="Rectangle 97" width="3.772" height="2.85" transform="translate(6.521)" fill="#9398f9"/>
      <rect id="Rectangle_98" data-name="Rectangle 98" width="3.772" height="2.85" transform="translate(0)" fill="#9398f9"/>
    </g>
    <rect id="Rectangle_99" data-name="Rectangle 99" width="3.772" height="2.85" transform="translate(631.145 213.456)" fill="#9398f9"/>
    <g id="Group_780" data-name="Group 780" transform="translate(507.085 213.456)">
      <path id="Path_2050" data-name="Path 2050" d="M477.415,191.216h.923a1.424,1.424,0,0,0,1.425-1.425h0a1.425,1.425,0,0,0-1.425-1.425h-.923a1.425,1.425,0,0,0-1.425,1.425h0A1.425,1.425,0,0,0,477.415,191.216Z" transform="translate(-475.99 -188.366)" fill="#9398f9"/>
      <path id="Path_2051" data-name="Path 2051" d="M482.3,191.216h.922a1.425,1.425,0,0,0,1.425-1.425h0a1.425,1.425,0,0,0-1.425-1.425H482.3a1.426,1.426,0,0,0-1.426,1.425h0A1.426,1.426,0,0,0,482.3,191.216Z" transform="translate(-474.838 -188.366)" fill="#9398f9"/>
      <path id="Path_2052" data-name="Path 2052" d="M487.184,191.216h.922a1.425,1.425,0,0,0,1.425-1.425h0a1.425,1.425,0,0,0-1.425-1.425h-.922a1.425,1.425,0,0,0-1.425,1.425h0A1.425,1.425,0,0,0,487.184,191.216Z" transform="translate(-473.687 -188.366)" fill="#9398f9"/>
      <path id="Path_2053" data-name="Path 2053" d="M492.068,191.216h.922a1.426,1.426,0,0,0,1.426-1.425h0a1.426,1.426,0,0,0-1.426-1.425h-.922a1.425,1.425,0,0,0-1.425,1.425h0A1.424,1.424,0,0,0,492.068,191.216Z" transform="translate(-472.535 -188.366)" fill="#9398f9"/>
    </g>
    <g id="Group_784" data-name="Group 784" transform="translate(471.843 252.798)">
      <rect id="Rectangle_100" data-name="Rectangle 100" width="125.598" height="82.843" rx="1.409" fill="#bbc1f9"/>
      <path id="Path_2054" data-name="Path 2054" d="M455.361,224.706a2.09,2.09,0,1,1-2.091-2.09A2.091,2.091,0,0,1,455.361,224.706Z" transform="translate(-446.597 -219.632)" fill="#ff006c"/>
      <path id="Path_2055" data-name="Path 2055" d="M462.7,224.706a2.09,2.09,0,1,1-2.09-2.09A2.09,2.09,0,0,1,462.7,224.706Z" transform="translate(-444.867 -219.632)" fill="#fc7808"/>
      <path id="Path_2056" data-name="Path 2056" d="M470.03,224.706a2.09,2.09,0,1,1-2.09-2.09A2.09,2.09,0,0,1,470.03,224.706Z" transform="translate(-443.138 -219.632)" fill="#3887fe"/>
      <rect id="Rectangle_101" data-name="Rectangle 101" width="67.612" height="61.049" transform="translate(50.66 14.65)" fill="#9398f9"/>
      <g id="Group_781" data-name="Group 781" transform="translate(9.735 14.65)">
        <rect id="Rectangle_102" data-name="Rectangle 102" width="23.885" height="1.559" fill="#9398f9"/>
        <rect id="Rectangle_103" data-name="Rectangle 103" width="35.755" height="1.559" transform="translate(0 7.773)" fill="#9398f9"/>
        <rect id="Rectangle_104" data-name="Rectangle 104" width="35.755" height="1.559" transform="translate(0 12.843)" fill="#9398f9"/>
        <rect id="Rectangle_105" data-name="Rectangle 105" width="35.755" height="1.559" transform="translate(0 17.912)" fill="#9398f9"/>
        <rect id="Rectangle_106" data-name="Rectangle 106" width="35.755" height="1.559" transform="translate(0 22.982)" fill="#9398f9"/>
        <rect id="Rectangle_107" data-name="Rectangle 107" width="35.755" height="1.559" transform="translate(0 28.051)" fill="#9398f9"/>
        <rect id="Rectangle_108" data-name="Rectangle 108" width="35.755" height="1.559" transform="translate(0 33.121)" fill="#9398f9"/>
        <rect id="Rectangle_109" data-name="Rectangle 109" width="35.755" height="1.559" transform="translate(0 38.19)" fill="#9398f9"/>
        <rect id="Rectangle_110" data-name="Rectangle 110" width="23.515" height="1.559" transform="translate(0 43.26)" fill="#9398f9"/>
      </g>
      <g id="Group_782" data-name="Group 782" transform="translate(56.561 22.136)">
        <rect id="Rectangle_111" data-name="Rectangle 111" width="8.397" height="46.076" fill="#bbc1f9"/>
        <rect id="Rectangle_112" data-name="Rectangle 112" width="8.397" height="46.076" transform="translate(15.804)" fill="#bbc1f9"/>
        <rect id="Rectangle_113" data-name="Rectangle 113" width="8.397" height="46.076" transform="translate(31.609)" fill="#bbc1f9"/>
        <rect id="Rectangle_114" data-name="Rectangle 114" width="8.397" height="46.076" transform="translate(47.413)" fill="#bbc1f9"/>
      </g>
      <g id="Group_783" data-name="Group 783" transform="translate(56.561 34.121)">
        <rect id="Rectangle_115" data-name="Rectangle 115" width="8.397" height="12.423" transform="translate(0 21.668)" fill="#3887fe"/>
        <rect id="Rectangle_116" data-name="Rectangle 116" width="8.397" height="18.883" transform="translate(15.804 15.208)" fill="#fc7808"/>
        <rect id="Rectangle_117" data-name="Rectangle 117" width="8.397" height="34.091" transform="translate(31.609)" fill="#8338ea"/>
        <rect id="Rectangle_118" data-name="Rectangle 118" width="8.397" height="27.121" transform="translate(47.413 6.971)" fill="#ff006c"/>
      </g>
    </g>
    <g id="Group_785" data-name="Group 785" transform="translate(354.513 450.045)">
      <path id="Path_2057" data-name="Path 2057" d="M352.828,402.986c1.539-4.544,7.15,1.657,8.528,3.224-1.951-3.431-4.994-6.235-7.31-9.2-1.649-2.113-.356-5.235,1.467-6.915,2.229-2.053,4.841.5,6.074,2.324-.685-2.7-4.329-5.692-3.516-8.458a6.378,6.378,0,0,1,6.791-4.061c2.778.528,6.116,2.847,6.212,5.745.078,2.308-3.617,3.58-4.056,6.274,1.85-2.38,5.308-3.529,7.611-.979,2.873,3.182-2.819,7.955-2.551,11.7.809-2.551,3.557-8.1,7.006-6.256,4.258,2.278-.987,9.225-2.725,11.473-2.852,3.69.08,14.617.08,14.617s-8.088-5.462-12.212-7.511C360.122,412.917,350.737,409.158,352.828,402.986Z" transform="translate(-352.528 -379.814)" fill="#b6a6f9"/>
      <path id="Path_2058" data-name="Path 2058" d="M362.409,409.024c1.354.783,2.729,1.548,4.087,2.317,1.1.62,2.2,1.262,3.306,1.913a53.292,53.292,0,0,1-4.088-10.393c-1.482-1.776-3.009-3.459-4.614-5.11-.814-.837-1.646-1.661-2.467-2.481s-2.464-2.437-2.464-2.437,1.666,1.553,2.5,2.344,1.668,1.6,2.5,2.4c1.515,1.466,2.954,3,4.357,4.579a57.869,57.869,0,0,1-1.739-11.183,14.4,14.4,0,0,0-.75-1.728c-.279-.565-.582-1.109-.887-1.647-.608-1.078-1.242-2.132-1.881-3.17.662,1,1.319,2.024,1.953,3.076.316.526.633,1.059.927,1.618.215.405.425.819.613,1.257a73.256,73.256,0,0,1,.334-8.46,73.167,73.167,0,0,0-.157,8.474,12.651,12.651,0,0,1,.572-1.514,14.382,14.382,0,0,1,.964-1.781,26.659,26.659,0,0,1,2.423-2.884,27.281,27.281,0,0,0-2.352,2.971,14.408,14.408,0,0,0-.916,1.8,13.627,13.627,0,0,0-.654,1.977,57.417,57.417,0,0,0,1.99,11.173,17.208,17.208,0,0,1,.842-2.814,19.238,19.238,0,0,1,1.545-3.052,21.008,21.008,0,0,1,1.927-2.61c.693-.8,2.212-2.185,2.212-2.185s-1.488,1.434-2.161,2.253a21.146,21.146,0,0,0-1.862,2.667A19.448,19.448,0,0,0,367,399.486a17.633,17.633,0,0,0-.85,3.283,52.66,52.66,0,0,0,4.283,10.224,22.638,22.638,0,0,1,.755-3.957,25.265,25.265,0,0,1,1.661-4.26,27.432,27.432,0,0,1,2.243-3.727c.827-1.155,2.692-3.211,2.692-3.211s-1.817,2.1-2.614,3.285a27.318,27.318,0,0,0-2.148,3.793,25.279,25.279,0,0,0-1.545,4.3,22.691,22.691,0,0,0-.678,4.432,59.445,59.445,0,0,0,13.093,15.439c-.287.347-.43.521-.716.87a60.335,60.335,0,0,1-13-16c-1.238-.769-2.485-1.524-3.725-2.258-1.349-.8-2.717-1.6-4.066-2.421-2.7-1.641-7.991-5.073-7.991-5.073S359.71,407.462,362.409,409.024Z" transform="translate(-352.089 -379.317)" fill="#8338ea"/>
    </g>
    <g id="Group_786" data-name="Group 786" transform="translate(391.961 461.607)">
      <path id="Path_2059" data-name="Path 2059" d="M387.179,395.1c4.06-1.159,2.378,6.007,1.934,7.79,1.506-3.13,2.014-6.737,3.005-9.9.7-2.249,3.612-2.877,5.741-2.4,2.6.586,2.06,3.754,1.358,5.561,1.614-1.849,1.954-5.984,4.364-6.78a5.613,5.613,0,0,1,6.34,2.884c1.008,2.276,1,5.854-1.05,7.374-1.633,1.211-4.4-.827-6.573.2,2.649.148,5.214,2.076,4.519,5.021-.866,3.674-7.171,1.941-9.748,4.009,2.253-.691,7.647-1.48,8.038,1.941.482,4.224-7.175,3.9-9.671,3.77-4.1-.219-10.545,7.375-10.545,7.375s-.094-8.591-.675-12.6C383.637,405.351,381.662,396.674,387.179,395.1Z" transform="translate(-382.698 -389.17)" fill="#b6a6f9"/>
      <path id="Path_2060" data-name="Path 2060" d="M387.595,405.13c.11,1.373.245,2.751.368,4.12.1,1.1.188,2.226.269,3.351a46.8,46.8,0,0,1,5.479-8.162c.544-1.964,1-3.911,1.389-5.9.2-1.007.379-2.023.564-3.028s.531-3,.531-3-.292,1.985-.449,2.981-.32,2.007-.488,3.014c-.3,1.83-.692,3.639-1.134,5.447a50.982,50.982,0,0,1,7.227-6.856,12.677,12.677,0,0,0,.876-1.409c.269-.484.512-.976.749-1.467.476-.98.922-1.966,1.353-2.949-.394.981-.806,1.969-1.251,2.953-.221.493-.449.987-.706,1.482-.187.357-.381.717-.6,1.071a65.025,65.025,0,0,1,6.293-3.993,64.655,64.655,0,0,0-6.214,4.129,11.18,11.18,0,0,1,1.383-.344,12.491,12.491,0,0,1,1.772-.194,23.555,23.555,0,0,1,3.3.311,23.873,23.873,0,0,0-3.329-.216,12.8,12.8,0,0,0-1.763.24,11.9,11.9,0,0,0-1.76.517,50.678,50.678,0,0,0-7.095,7.033,15.106,15.106,0,0,1,2.459-.8,16.988,16.988,0,0,1,2.984-.41,18.624,18.624,0,0,1,2.853.089c.926.1,2.69.508,2.69.508s-1.783-.36-2.714-.437a18.421,18.421,0,0,0-2.863-.012,17.045,17.045,0,0,0-2.97.484,15.476,15.476,0,0,0-2.8,1.028,46.254,46.254,0,0,0-5.258,8.219,20.022,20.022,0,0,1,3.243-1.435,22.407,22.407,0,0,1,3.916-.929,24.332,24.332,0,0,1,3.821-.241c1.251.02,3.672.341,3.672.341s-2.433-.261-3.686-.248a23.975,23.975,0,0,0-3.821.345,22.249,22.249,0,0,0-3.89,1.034,20.041,20.041,0,0,0-3.548,1.728,52.333,52.333,0,0,0-4.624,17.208l-.989-.083a53.115,53.115,0,0,1,5.077-17.425c-.064-1.28-.141-2.562-.23-3.826-.1-1.378-.2-2.768-.283-4.156-.161-2.776-.326-8.327-.326-8.327S387.375,402.394,387.595,405.13Z" transform="translate(-382.831 -388.676)" fill="#8338ea"/>
    </g>
    <g id="Group_787" data-name="Group 787" transform="translate(365.739 436.125)">
      <path id="Path_2061" data-name="Path 2061" d="M403.96,397.854c-4.147-5.952-9.689,5.416-11.032,8.272,1.391-5.8,4.632-11.158,6.747-16.446,1.5-3.762-1.687-7.753-5.042-9.427-4.1-2.045-6.819,2.763-7.845,5.931-.142-4.215,3.894-10.088,1.55-13.764-2.159-3.385-7.789-4.96-11.572-3.041-3.814,1.936-7.685,6.71-6.607,10.959.859,3.385,6.76,3.679,8.531,7.406-3.688-2.678-9.2-2.893-11.468,1.781-2.835,5.832,7.442,10.369,8.627,15.918-2.249-3.365-8.575-10.272-12.809-6.141-5.227,5.1,5.316,12.986,8.785,15.519,5.7,4.16,6.033,21.265,6.033,21.265s9.45-11.337,14.579-16.048C397.545,415.348,409.594,405.94,403.96,397.854Z" transform="translate(-361.612 -368.55)" fill="#bbc1f9"/>
      <path id="Path_2062" data-name="Path 2062" d="M391.486,410.731c-1.637,1.708-3.312,3.4-4.962,5.085-1.331,1.363-2.667,2.76-4,4.171a80.365,80.365,0,0,0,1.566-16.817c1.406-3.2,2.916-6.29,4.554-9.364.83-1.558,1.692-3.106,2.538-4.643s2.553-4.577,2.553-4.577-1.765,2.958-2.638,4.456-1.751,3.018-2.622,4.542c-1.583,2.767-3.03,5.6-4.4,8.485a87.5,87.5,0,0,0-2.179-16.975,21.851,21.851,0,0,1,.362-2.825c.169-.938.379-1.856.6-2.767.431-1.822.907-3.618,1.4-5.394-.54,1.734-1.063,3.495-1.541,5.289-.24.9-.475,1.8-.667,2.74-.141.678-.272,1.368-.361,2.082a111.146,111.146,0,0,0-4.043-12.148,110.639,110.639,0,0,1,3.791,12.242,19.008,19.008,0,0,0-1.467-1.957,21.51,21.51,0,0,0-2.15-2.181,40.162,40.162,0,0,0-4.733-3.17,41.091,41.091,0,0,1,4.666,3.324,22.012,22.012,0,0,1,2.088,2.236,20.512,20.512,0,0,1,1.782,2.6,86.947,86.947,0,0,1,1.81,17.065,26.071,26.071,0,0,0-2.406-3.732,29.033,29.033,0,0,0-3.529-3.784,31.675,31.675,0,0,0-3.9-2.981c-1.341-.867-4.133-2.243-4.133-2.243s2.766,1.455,4.088,2.362a32.055,32.055,0,0,1,3.827,3.092,29.265,29.265,0,0,1,3.426,3.869,26.474,26.474,0,0,1,2.617,4.412,79.555,79.555,0,0,1-1.922,16.651,34.29,34.29,0,0,0-2.759-5.43,38.275,38.275,0,0,0-4.207-5.488,41.611,41.611,0,0,0-4.826-4.47c-1.687-1.331-5.258-3.531-5.258-3.531s3.523,2.292,5.178,3.67a41.464,41.464,0,0,1,4.713,4.606,38.305,38.305,0,0,1,4.056,5.6,34.386,34.386,0,0,1,2.85,6.152,89.9,89.9,0,0,1-12.523,27.932l1.406.964a91.275,91.275,0,0,0,12.155-28.711c1.476-1.636,2.968-3.258,4.459-4.847,1.624-1.729,3.276-3.465,4.889-5.226,3.227-3.518,9.472-10.73,9.472-10.73S394.749,407.328,391.486,410.731Z" transform="translate(-360.943 -367.719)" fill="#8338ea"/>
    </g>
    <path id="Rectangle_119" data-name="Rectangle 119" d="M0,0H44.091a0,0,0,0,1,0,0V31.857a6.175,6.175,0,0,1-6.175,6.175H6.175A6.175,6.175,0,0,1,0,31.857V0A0,0,0,0,1,0,0Z" transform="translate(362.531 491.66)" fill="#9398f9"/>
    <g id="Group_805" data-name="Group 805" transform="translate(350.785 81.953)">
      <g id="Group_788" data-name="Group 788" transform="translate(11.159 1.661)">
        <path id="Path_2063" data-name="Path 2063" d="M358.859,99.854l-.319-1.194L416.129,83.3,567.772,97.444l-.115,1.231L416.234,84.549Z" transform="translate(-358.54 -83.297)" fill="#280c54"/>
      </g>
      <g id="Group_792" data-name="Group 792" transform="translate(73.878 102.079)">
        <g id="Group_790" data-name="Group 790" transform="translate(0 8.482)">
          <g id="Group_789" data-name="Group 789">
            <path id="Path_2064" data-name="Path 2064" d="M434.88,179.11,417.25,195.6h22.328v3.289l-4.7,4.393L417.25,219.781h22.328v3.289l-4.7,4.4L417.25,243.966h22.328v3.289l-4.7,4.394L417.25,268.142h22.328v3.29l-4.7,4.4L417.25,292.327h22.328v3.29l-4.7,4.394L417.25,316.5h22.328v3.289l-4.7,4.4L417.25,340.689h22.328v3.289l-4.7,4.394L417.25,364.865h22.328v3.305l-4.7,4.025L421.965,383.27l-5.483,4.7h-3.015l-1.269-1.48,3.752-3.219,16.9-14.489H409.293v-1.833l4.7-4.394L433.18,344.6H409.293v-1.832l4.7-4.394L433.18,320.42H409.293v-1.833l4.7-4.394,19.188-17.951H409.293V294.41l4.7-4.394,19.188-17.958H409.293v-1.833l4.7-4.393,19.188-17.951H409.293v-1.832l4.7-4.394L433.18,223.7H409.293v-1.832l4.7-4.394,19.188-17.95H409.293v-1.833l4.7-4.393,19.188-17.958H412.293v-3.916h27.286v3.289Z" transform="translate(-409.293 -171.419)" fill="#9398f9"/>
          </g>
        </g>
        <g id="Group_791" data-name="Group 791">
          <path id="Path_2065" data-name="Path 2065" d="M409.293,164.556V389.587H439.58V164.556ZM434.88,384.889H413.993V169.256H434.88Z" transform="translate(-409.293 -164.556)" fill="#9398f9"/>
        </g>
      </g>
      <g id="Group_793" data-name="Group 793" transform="translate(191.123 52.293)">
        <rect id="Rectangle_120" data-name="Rectangle 120" width="81.111" height="1.566" transform="translate(0 78.844) rotate(-76.421)" fill="#280c54"/>
      </g>
      <g id="Group_794" data-name="Group 794" transform="translate(163.444 52.553)">
        <rect id="Rectangle_121" data-name="Rectangle 121" width="1.566" height="80.919" transform="translate(0 0.374) rotate(-13.812)" fill="#280c54"/>
      </g>
      <rect id="Rectangle_122" data-name="Rectangle 122" width="67.745" height="6.266" transform="translate(55.147 98.164)" fill="#491e87"/>
      <rect id="Rectangle_123" data-name="Rectangle 123" width="67.745" height="6.266" transform="translate(55.147 104.43)" fill="#280c54"/>
      <path id="Path_2066" data-name="Path 2066" d="M453.23,163.319l-13.069-46.233H398.256V171.84h57.571Z" transform="translate(-338.018 -73.669)" fill="#fe9c0a"/>
      <g id="Group_798" data-name="Group 798" transform="translate(0 14.622)">
        <g id="Group_795" data-name="Group 795">
          <path id="Path_2067" data-name="Path 2067" d="M349.511,124.07H574.543V93.785H349.511Zm4.7-4.7V98.483H569.844v20.888Z" transform="translate(-349.511 -93.785)" fill="#9398f9"/>
        </g>
        <g id="Group_797" data-name="Group 797" transform="translate(8.482)">
          <g id="Group_796" data-name="Group 796">
            <path id="Path_2068" data-name="Path 2068" d="M364.066,119.372l16.494-17.63V124.07h3.289l4.393-4.7,16.494-17.63V124.07h3.289l4.4-4.7,16.494-17.63V124.07h3.289l4.393-4.7,16.494-17.63V124.07h3.289l4.4-4.7,16.494-17.63V124.07h3.29l4.393-4.7,16.494-17.63V124.07h3.289l4.4-4.7,16.494-17.63V124.07h3.289l4.394-4.7,16.494-17.63V124.07h3.305l4.025-4.7,11.074-12.915,4.7-5.482V97.959l-1.48-1.269-3.219,3.752-14.489,16.9V93.785H551.9l-4.393,4.7L529.56,117.672V93.785h-1.832l-4.394,4.7-17.958,19.188V93.785h-1.832l-4.394,4.7L481.2,117.672V93.785h-1.833l-4.393,4.7-17.958,19.188V93.785h-1.833l-4.393,4.7-17.951,19.188V93.785H431l-4.394,4.7-17.958,19.188V93.785H406.82l-4.394,4.7-17.95,19.188V93.785h-1.833l-4.394,4.7-17.958,19.188V96.784h-3.916V124.07h3.289Z" transform="translate(-356.375 -93.785)" fill="#9398f9"/>
          </g>
        </g>
      </g>
      <rect id="Rectangle_124" data-name="Rectangle 124" width="40.423" height="7.882" transform="translate(3.433 44.843)" fill="#491e87"/>
      <rect id="Rectangle_125" data-name="Rectangle 125" width="40.423" height="7.882" transform="translate(3.433 52.725)" fill="#280c54"/>
      <rect id="Rectangle_126" data-name="Rectangle 126" width="40.423" height="7.882" transform="translate(3.433 60.607)" fill="#491e87"/>
      <rect id="Rectangle_127" data-name="Rectangle 127" width="40.423" height="7.882" transform="translate(3.433 68.489)" fill="#280c54"/>
      <rect id="Rectangle_128" data-name="Rectangle 128" width="52.995" height="10.553" transform="translate(161.333 43.417)" fill="#280c54"/>
      <rect id="Rectangle_129" data-name="Rectangle 129" width="52.995" height="10.553" transform="translate(161.333 53.97)" fill="#280c54"/>
      <rect id="Rectangle_130" data-name="Rectangle 130" width="52.995" height="8.306" transform="translate(161.333 52.553)" fill="#fe9c0a"/>
      <g id="Group_799" data-name="Group 799" transform="translate(177.399 145.704)">
        <path id="Path_2069" data-name="Path 2069" d="M503.766,221.263a10.715,10.715,0,0,1-10.7-10.7,1.566,1.566,0,0,1,3.133,0,7.57,7.57,0,1,0,7.57-7.57,1.566,1.566,0,1,1,0-3.133,10.7,10.7,0,0,1,0,21.406Z" transform="translate(-493.063 -199.857)" fill="#6031aa"/>
      </g>
      <g id="Group_800" data-name="Group 800" transform="translate(73.878 295.842)">
        <path id="Path_2070" data-name="Path 2070" d="M413.993,321.349h-4.7v139.5h4.7v-139.5Z" transform="translate(-409.293 -321.349)" fill="#9398f9"/>
        <path id="Path_2071" data-name="Path 2071" d="M430,321.349v139.5h4.7v-139.5Z" transform="translate(-404.412 -321.349)" fill="#9398f9"/>
      </g>
      <path id="Path_2072" data-name="Path 2072" d="M438.909,453.036l.67-.626v-3.29H417.25l17.629-16.494,4.7-4.4v-3.29H417.25l17.629-16.493,4.7-4.394v-3.289H417.25l17.629-16.494,4.7-4.4v-3.289H417.25L434.88,360.08l4.7-4.393V352.4H417.25L434.88,335.9l4.7-4.4v-3.289H412.293v3.916H433.18l-19.188,17.958-4.7,4.394v1.833H433.18l-19.188,17.95-4.7,4.394v1.832H433.18l-19.188,17.958-4.7,4.394v1.833H433.18l-19.188,17.951-4.7,4.394v1.833H433.18L413.993,446.81l-4.7,4.394v1.832h29.616Z" transform="translate(-335.415 -23.889)" fill="#9398f9"/>
      <rect id="Rectangle_131" data-name="Rectangle 131" width="21.19" height="27.411" transform="translate(176.985 119.728)" fill="#fe9c0a"/>
      <path id="Path_2073" data-name="Path 2073" d="M501.563,225.25h0a1.374,1.374,0,0,1-1.374-1.374V214.37A1.374,1.374,0,0,1,501.563,213h0a1.375,1.375,0,0,1,1.375,1.374v9.506A1.375,1.375,0,0,1,501.563,225.25Z" transform="translate(-313.984 -51.055)" fill="#280c54"/>
      <g id="Group_801" data-name="Group 801" transform="translate(176.985 119.728)">
        <path id="Path_2074" data-name="Path 2074" d="M496.459,204.123h4.683l11.9-11.676v-4.6Z" transform="translate(-491.848 -176.712)" fill="#491e87"/>
        <path id="Path_2075" data-name="Path 2075" d="M509.451,202.2l1.628-1.6v-4.6l-6.311,6.194Z" transform="translate(-489.889 -174.789)" fill="#491e87"/>
        <path id="Path_2076" data-name="Path 2076" d="M492.728,190.618v4.6l16.686-16.376h-4.683Z" transform="translate(-492.728 -178.837)" fill="#491e87"/>
        <path id="Path_2077" data-name="Path 2077" d="M492.728,180.54v4.6l6.418-6.3h-4.683Z" transform="translate(-492.728 -178.837)" fill="#491e87"/>
        <path id="Path_2078" data-name="Path 2078" d="M492.728,200.493v4.6l21.19-20.8v-4.6Z" transform="translate(-492.728 -178.635)" fill="#491e87"/>
      </g>
      <g id="Group_802" data-name="Group 802" transform="translate(163.148 54.604)">
        <path id="Path_2079" data-name="Path 2079" d="M522.279,128.241a2.1,2.1,0,1,1-2.1-2.1A2.1,2.1,0,0,1,522.279,128.241Z" transform="translate(-472.914 -126.139)" fill="#280c54"/>
        <circle id="Ellipse_50" data-name="Ellipse 50" cx="2.102" cy="2.102" r="2.102" fill="#280c54"/>
      </g>
      <path id="Path_2080" data-name="Path 2080" d="M450.3,156.07l-9.554-33.8H406.488a3.047,3.047,0,0,0-3.047,3.047v27.7a3.047,3.047,0,0,0,3.047,3.047Z" transform="translate(-336.795 -72.447)" fill="#491e87"/>
      <g id="Group_803" data-name="Group 803" transform="translate(66.646 49.824)">
        <path id="Path_2081" data-name="Path 2081" d="M417.3,122.271l-13.856,27.285v3.466a3.017,3.017,0,0,0,.708,1.932l16.6-32.683Z" transform="translate(-403.441 -122.271)" fill="#6635b5"/>
        <path id="Path_2082" data-name="Path 2082" d="M408.658,156.07h11.378l17.164-33.8H425.821Z" transform="translate(-402.211 -122.271)" fill="#6635b5"/>
      </g>
      <rect id="Rectangle_132" data-name="Rectangle 132" width="2.479" height="37.929" transform="translate(83.708 48.784)" fill="#fe9c0a"/>
      <rect id="Rectangle_133" data-name="Rectangle 133" width="59.522" height="9.92" transform="translate(59.259 413.018)" fill="#fe9c0a"/>
      <rect id="Rectangle_134" data-name="Rectangle 134" width="79.362" height="24.801" transform="translate(49.338 422.939)" fill="#280c54"/>
      <g id="Group_804" data-name="Group 804" transform="translate(49.338 422.939)">
        <path id="Path_2083" data-name="Path 2083" d="M423.045,424.2h-5.488L392.287,449h5.488Z" transform="translate(-388.763 -424.196)" fill="#fe9c0a"/>
        <path id="Path_2084" data-name="Path 2084" d="M411.148,424.2H405.66l-16.224,15.923v5.386Z" transform="translate(-389.436 -424.196)" fill="#fe9c0a"/>
        <path id="Path_2085" data-name="Path 2085" d="M389.436,427.783v5.386l9.143-8.973H393.09Z" transform="translate(-389.436 -424.196)" fill="#fe9c0a"/>
        <path id="Path_2086" data-name="Path 2086" d="M433.216,424.2h-5.488L402.458,449h5.488Z" transform="translate(-386.365 -424.196)" fill="#fe9c0a"/>
        <path id="Path_2087" data-name="Path 2087" d="M456.135,439.333v-5.386L443.143,446.7h5.488Z" transform="translate(-376.772 -421.897)" fill="#fe9c0a"/>
        <path id="Path_2088" data-name="Path 2088" d="M458.533,429.3v-5.1h-.291L432.972,449h5.488Z" transform="translate(-379.171 -424.196)" fill="#fe9c0a"/>
        <path id="Path_2089" data-name="Path 2089" d="M453.558,424.2H448.07L422.8,449h5.488Z" transform="translate(-381.569 -424.196)" fill="#fe9c0a"/>
        <path id="Path_2090" data-name="Path 2090" d="M443.387,424.2H437.9L412.629,449h5.488Z" transform="translate(-383.967 -424.196)" fill="#fe9c0a"/>
      </g>
      <path id="Rectangle_135" data-name="Rectangle 135" d="M0,0H14.8a0,0,0,0,1,0,0V4.4a1.814,1.814,0,0,1-1.814,1.814H1.814A1.814,1.814,0,0,1,0,4.4V0A0,0,0,0,1,0,0Z" transform="translate(180.179 169.707)" fill="#280c54"/>
      <path id="Path_2091" data-name="Path 2091" d="M411.992,87.67a5.717,5.717,0,1,1-5.718-5.717A5.719,5.719,0,0,1,411.992,87.67Z" transform="translate(-337.475 -81.953)" fill="#280c54"/>
      <path id="Path_2092" data-name="Path 2092" d="M405.183,97.39V86.579l23.907,10.914" transform="translate(-336.384 -80.862)" fill="none" stroke="#9398f9" stroke-linecap="round" stroke-linejoin="round" stroke-width="3"/>
      <path id="Path_2093" data-name="Path 2093" d="M406.381,86.771a1.005,1.005,0,1,1-1.006-1A1,1,0,0,1,406.381,86.771Z" transform="translate(-336.576 -81.054)" fill="#491e87"/>
    </g>
    <g id="Group_810" data-name="Group 810" transform="translate(435.737 370.125)">
      <g id="Group_806" data-name="Group 806" transform="translate(2.472 2.472)" opacity="0.15" style="mix-blend-mode: multiply;isolation: isolate">
        <path id="Path_2094" data-name="Path 2094" d="M483.091,317.143H425.983a5.728,5.728,0,0,0-5.728,5.728v35.382a6.093,6.093,0,0,0,6.091,6.092h56.385a5.179,5.179,0,0,0,5.179-5.179v-37.2A4.819,4.819,0,0,0,483.091,317.143Z" transform="translate(-420.255 -317.143)" fill="#0c0c0c"/>
        <path id="Path_2095" data-name="Path 2095" d="M445.073,324.371a15.978,15.978,0,0,0-8.365,7.231h5.872A24.735,24.735,0,0,1,445.073,324.371Zm13.335,15.5h-7.072v5.909h6.576A39.739,39.739,0,0,0,458.408,339.874Zm-16.51,0h-7.16a15.784,15.784,0,0,0,1.421,5.909h6.236A40.975,40.975,0,0,1,441.9,339.874Zm.484-7.093h-6.267a15.782,15.782,0,0,0-1.368,5.911h7.147A40.653,40.653,0,0,1,442.383,332.78Zm17.219,5.911H466.6a15.962,15.962,0,0,0-1.39-5.911h-6.095A41.662,41.662,0,0,1,459.6,338.691Zm5.012-7.09a15.981,15.981,0,0,0-8.171-7.18,24.705,24.705,0,0,1,2.467,7.18Zm-9.629-7.668a16.146,16.146,0,0,0-3.649-.585V331.6h6.394A24.061,24.061,0,0,0,454.985,323.934Zm2.94,8.847h-6.589v5.911h7.08A40.637,40.637,0,0,0,457.925,332.78ZM443.763,331.6h6.39v-8.249a15.82,15.82,0,0,0-3.628.554A23.877,23.877,0,0,0,443.763,331.6Zm12.65,22.554a15.949,15.949,0,0,0,8.192-7.19h-5.7A24.115,24.115,0,0,1,456.412,354.156Zm-5.077-7.19v8.225a16.363,16.363,0,0,0,3.608-.547,23.555,23.555,0,0,0,2.762-7.678Zm7.758-1.183h6.078a15.967,15.967,0,0,0,1.412-5.909h-6.99A40.764,40.764,0,0,1,459.094,345.783Zm-15.515,0h6.574v-5.909h-7.072A40.915,40.915,0,0,0,443.579,345.783Zm2.987,8.887a15.752,15.752,0,0,0,3.587.541v-8.245h-6.367A23.436,23.436,0,0,0,446.566,354.67Zm-9.842-7.7a15.967,15.967,0,0,0,8.384,7.24,24.132,24.132,0,0,1-2.517-7.24Zm6.351-8.275h7.079V332.78h-6.586A40.622,40.622,0,0,0,443.075,338.691Z" transform="translate(-416.84 -315.68)" fill="#0c0c0c"/>
      </g>
      <g id="Group_809" data-name="Group 809">
        <g id="Group_808" data-name="Group 808">
          <path id="Path_2096" data-name="Path 2096" d="M481.091,315.143H423.983a5.728,5.728,0,0,0-5.728,5.728v35.382a6.093,6.093,0,0,0,6.091,6.092h56.385a5.179,5.179,0,0,0,5.179-5.179v-37.2A4.819,4.819,0,0,0,481.091,315.143Z" transform="translate(-418.255 -315.143)" fill="#8338ea"/>
          <g id="Group_807" data-name="Group 807" transform="translate(17.898 7.669)">
            <path id="Path_2097" data-name="Path 2097" d="M443.073,322.371a15.978,15.978,0,0,0-8.365,7.231h5.872A24.737,24.737,0,0,1,443.073,322.371Zm13.335,15.5h-7.072v5.909h6.576A39.731,39.731,0,0,0,456.408,337.874Zm-16.51,0h-7.16a15.783,15.783,0,0,0,1.421,5.909h6.236A40.975,40.975,0,0,1,439.9,337.874Zm.484-7.093h-6.267a15.782,15.782,0,0,0-1.368,5.911h7.146A40.67,40.67,0,0,1,440.383,330.78Zm17.219,5.911H464.6a15.962,15.962,0,0,0-1.39-5.911h-6.095A41.662,41.662,0,0,1,457.6,336.691Zm5.012-7.09a15.982,15.982,0,0,0-8.171-7.18,24.706,24.706,0,0,1,2.467,7.18Zm-9.629-7.668a16.143,16.143,0,0,0-3.649-.585V329.6h6.394A24.06,24.06,0,0,0,452.985,321.934Zm2.94,8.847h-6.589v5.911h7.08A40.637,40.637,0,0,0,455.925,330.78ZM441.763,329.6h6.39v-8.249a15.824,15.824,0,0,0-3.628.554A23.878,23.878,0,0,0,441.763,329.6Zm12.65,22.554a15.949,15.949,0,0,0,8.192-7.19h-5.7A24.116,24.116,0,0,1,454.412,352.156Zm-5.077-7.19v8.225a16.361,16.361,0,0,0,3.609-.547,23.557,23.557,0,0,0,2.762-7.678Zm7.758-1.183h6.078a15.968,15.968,0,0,0,1.413-5.909h-6.99A40.746,40.746,0,0,1,457.094,343.783Zm-15.515,0h6.574v-5.909h-7.072A40.916,40.916,0,0,0,441.579,343.783Zm2.987,8.887a15.751,15.751,0,0,0,3.588.541v-8.245h-6.367A23.437,23.437,0,0,0,444.566,352.67Zm-9.842-7.7a15.967,15.967,0,0,0,8.384,7.24,24.128,24.128,0,0,1-2.517-7.24Zm6.351-8.275h7.079V330.78h-6.586A40.6,40.6,0,0,0,441.075,336.691Z" transform="translate(-432.738 -321.349)" fill="#f0f5f7"/>
          </g>
        </g>
      </g>
    </g>
    <g id="Group_814" data-name="Group 814" transform="translate(385.198 232.181)">
      <g id="Group_811" data-name="Group 811" transform="translate(2.472 2.472)" opacity="0.15" style="mix-blend-mode: multiply;isolation: isolate">
        <path id="Path_2098" data-name="Path 2098" d="M442.194,205.518H385.086a5.728,5.728,0,0,0-5.728,5.728v35.382a6.092,6.092,0,0,0,6.092,6.092h56.385a5.178,5.178,0,0,0,5.178-5.178v-37.2A4.819,4.819,0,0,0,442.194,205.518Z" transform="translate(-379.358 -205.518)" fill="#0c0c0c"/>
        <path id="Path_2099" data-name="Path 2099" d="M423.713,213.2H396.465a3.973,3.973,0,0,0-3.973,3.974v17.19a3.973,3.973,0,0,0,3.973,3.974h16.952l5.146,5.146v-5.146h5.15a3.974,3.974,0,0,0,3.974-3.974V217.17A3.974,3.974,0,0,0,423.713,213.2ZM401.026,227.74A1.975,1.975,0,1,1,403,225.765,1.975,1.975,0,0,1,401.026,227.74Zm9.063,0a1.975,1.975,0,1,1,1.975-1.975A1.976,1.976,0,0,1,410.09,227.74Zm9.063,0a1.975,1.975,0,1,1,1.975-1.975A1.976,1.976,0,0,1,419.153,227.74Z" transform="translate(-376.261 -203.708)" fill="#0c0c0c"/>
      </g>
      <g id="Group_813" data-name="Group 813">
        <g id="Group_812" data-name="Group 812">
          <path id="Path_2100" data-name="Path 2100" d="M440.194,203.518H383.086a5.728,5.728,0,0,0-5.728,5.728v35.382a6.092,6.092,0,0,0,6.092,6.092h56.385a5.178,5.178,0,0,0,5.178-5.178v-37.2A4.819,4.819,0,0,0,440.194,203.518Z" transform="translate(-377.358 -203.518)" fill="#fc7808"/>
          <path id="Path_2101" data-name="Path 2101" d="M421.713,211.2H394.465a3.973,3.973,0,0,0-3.973,3.974v17.19a3.973,3.973,0,0,0,3.973,3.974h16.952l5.146,5.146v-5.146h5.15a3.974,3.974,0,0,0,3.974-3.974V215.17A3.974,3.974,0,0,0,421.713,211.2ZM399.026,225.74A1.975,1.975,0,1,1,401,223.765,1.975,1.975,0,0,1,399.026,225.74Zm9.063,0a1.975,1.975,0,1,1,1.975-1.975A1.976,1.976,0,0,1,408.09,225.74Zm9.063,0a1.975,1.975,0,1,1,1.975-1.975A1.976,1.976,0,0,1,417.153,225.74Z" transform="translate(-374.261 -201.708)" fill="#f0f5f7"/>
        </g>
      </g>
    </g>
    <g id="Group_815" data-name="Group 815" transform="translate(691.395 340.022)">
      <path id="Path_2102" data-name="Path 2102" d="M625.134,333.524c0-2.091,1.2-3.139,2.261-4.065.976-.851,1.747-1.524,1.747-2.93s-.771-2.08-1.747-2.933c-1.06-.924-2.261-1.974-2.261-4.063s1.2-3.139,2.261-4.063c.976-.851,1.747-1.524,1.747-2.93s-.771-2.08-1.747-2.933c-1.06-.926-2.261-1.975-2.261-4.066s1.2-3.141,2.261-4.068c.976-.851,1.747-1.525,1.747-2.935s-.771-2.082-1.747-2.935c-1.06-.927-2.261-1.976-2.261-4.068a.751.751,0,1,1,1.5,0c0,1.409.772,2.082,1.749,2.935,1.06.927,2.261,1.976,2.261,4.068s-1.2,3.143-2.263,4.068c-.975.853-1.747,1.526-1.747,2.935s.772,2.081,1.747,2.934c1.062.924,2.263,1.974,2.263,4.065s-1.2,3.139-2.263,4.063c-.976.851-1.747,1.524-1.747,2.93s.771,2.079,1.747,2.931c1.06.924,2.263,1.974,2.263,4.065s-1.2,3.139-2.263,4.063c-.976.851-1.747,1.524-1.747,2.931a.751.751,0,1,1-1.5,0Z" transform="translate(-625.134 -290.783)" fill="#fff"/>
    </g>
    <path id="Path_2103" data-name="Path 2103" d="M396.388,367.95h-7.936v1.281h7.936Zm-5.151,8.005.906.906,5.612-5.613-.906-.906Zm11.389-8.005v1.281h7.936V367.95Zm-11.389-6.724,5.612,5.612.906-.907-5.612-5.61Zm16.54,0-.906-.906-5.612,5.61.906.907Zm-6.518,10.022,5.612,5.613.906-.906-5.612-5.613Zm-2.392-5.777h1.281v-7.936h-1.281Zm0,14.174h1.281v-7.935h-1.281Z" transform="translate(10.455 64.978)" fill="#fff"/>
    <path id="Path_2104" data-name="Path 2104" d="M450.883,190.923h-7.937V192.2h7.937Zm-5.152,8.005.907.906,5.61-5.612-.906-.906Zm11.389-8.005V192.2h7.937v-1.282ZM445.731,184.2l5.612,5.61.906-.906-5.61-5.612Zm16.541,0-.907-.907-5.61,5.612.906.906Zm-6.518,10.022,5.61,5.612.907-.906-5.612-5.612Zm-2.394-5.779h1.282v-7.935h-1.282Zm0,14.176h1.282v-7.936h-1.282Z" transform="translate(23.304 23.238)" fill="#fff"/>
    <g id="Group_816" data-name="Group 816" transform="translate(679.941 397.352)">
      <path id="Path_2105" data-name="Path 2105" d="M618.427,350.82a2.563,2.563,0,1,0-1.812-.751,2.578,2.578,0,0,0,1.812.751" transform="translate(-615.865 -335.166)" fill="#e6e8ef"/>
      <path id="Path_2106" data-name="Path 2106" d="M639.81,350.82h.012a2.563,2.563,0,1,0,0-5.126h-.012a2.563,2.563,0,0,0,0,5.126Z" transform="translate(-610.823 -335.166)" fill="#e6e8ef"/>
      <path id="Path_2107" data-name="Path 2107" d="M629.116,350.82h.012a2.563,2.563,0,0,0,0-5.126h-.012a2.563,2.563,0,1,0,0,5.126Z" transform="translate(-613.345 -335.166)" fill="#e6e8ef"/>
      <path id="Path_2108" data-name="Path 2108" d="M618.427,342.3a2.563,2.563,0,1,0-1.812-.751,2.578,2.578,0,0,0,1.812.751" transform="translate(-615.865 -337.175)" fill="#e6e8ef"/>
      <path id="Path_2109" data-name="Path 2109" d="M639.81,342.3h.012a2.563,2.563,0,1,0,0-5.126h-.012a2.563,2.563,0,0,0,0,5.126Z" transform="translate(-610.823 -337.175)" fill="#e6e8ef"/>
      <path id="Path_2110" data-name="Path 2110" d="M629.116,342.3h.012a2.563,2.563,0,0,0,0-5.126h-.012a2.563,2.563,0,1,0,0,5.126Z" transform="translate(-613.345 -337.175)" fill="#e6e8ef"/>
      <path id="Path_2111" data-name="Path 2111" d="M618.427,359.339a2.563,2.563,0,1,0-1.812-.751,2.583,2.583,0,0,0,1.812.751" transform="translate(-615.865 -333.158)" fill="#e6e8ef"/>
      <path id="Path_2112" data-name="Path 2112" d="M639.81,359.339h.012a2.563,2.563,0,1,0,0-5.126h-.012a2.563,2.563,0,0,0,0,5.126Z" transform="translate(-610.823 -333.158)" fill="#e6e8ef"/>
      <path id="Path_2113" data-name="Path 2113" d="M629.116,359.339h.012a2.563,2.563,0,0,0,0-5.126h-.012a2.563,2.563,0,1,0,0,5.126Z" transform="translate(-613.345 -333.158)" fill="#e6e8ef"/>
    </g>
    <path id="Path_2114" data-name="Path 2114" d="M618.671,246.412v-4.09H616.4v4.09H612.31v2.27H616.4v4.091h2.27v-4.091h4.09v-2.27Z" transform="translate(63.238 37.813)" fill="#fff"/>
    <path id="Path_2115" data-name="Path 2115" d="M446,400.837a2.561,2.561,0,1,0,1.812.75A2.58,2.58,0,0,0,446,400.837Zm13.22,0H459.2a2.562,2.562,0,1,0,0,5.125h.012a2.562,2.562,0,1,0,0-5.125ZM446,387.746a2.561,2.561,0,1,0,1.812.75A2.58,2.58,0,0,0,446,387.746Zm13.208,5.126h.012a2.563,2.563,0,0,0,0-5.126H459.2a2.563,2.563,0,1,0,0,5.126Z" transform="translate(23.419 72.101)" fill="#fff"/>
    <g id="Group_818" data-name="Group 818" transform="translate(495.34 507.232)">
      <g id="Group_817" data-name="Group 817" transform="translate(24.151)">
        <rect id="Rectangle_136" data-name="Rectangle 136" width="5.865" height="18.781" transform="translate(118.556)" fill="#491e87"/>
        <rect id="Rectangle_137" data-name="Rectangle 137" width="5.865" height="18.781" fill="#491e87"/>
      </g>
      <rect id="Rectangle_138" data-name="Rectangle 138" width="172.724" height="9.058" transform="translate(0 13.402)" fill="#280c54"/>
    </g>
    <path id="Path_2116" data-name="Path 2116" d="M740.73,452.508H348.23a4.121,4.121,0,0,1-4.121-4.121h0a4.121,4.121,0,0,1,4.121-4.121h392.5a4.121,4.121,0,0,1,4.121,4.121h0A4.121,4.121,0,0,1,740.73,452.508Z" transform="translate(0 85.427)" fill="#9399aa"/>
    <g id="Group_819" data-name="Group 819" transform="translate(707.392 253.176)">
      <path id="Path_2117" data-name="Path 2117" d="M649.285,280.062a7.97,7.97,0,1,1-6.431-.019l.129-45.768a7.966,7.966,0,0,1-1.393-13.768l-.02,7.012,4.643,2.7,4.651-2.674.02-7.012a7.959,7.959,0,0,1-1.471,13.758Zm2.488,7.3-.715-.014a5.219,5.219,0,0,0-.208-1.421l.69-.2a5.612,5.612,0,0,0-.678-1.479l-.607.387a4.9,4.9,0,0,0-.928-1.074l.472-.543a5.533,5.533,0,0,0-1.373-.881l-.3.654a4.938,4.938,0,0,0-1.369-.4l.1-.717a6.118,6.118,0,0,0-.8-.056,5.946,5.946,0,0,0-.828.057l.1.717a4.885,4.885,0,0,0-1.366.4l-.3-.662a5.667,5.667,0,0,0-1.373.885l.476.545a4.93,4.93,0,0,0-.936,1.075l-.609-.391a5.686,5.686,0,0,0-.676,1.48l.693.2a5.13,5.13,0,0,0-.209,1.4l-.717.01a5.689,5.689,0,0,0,.229,1.61l.695-.2a4.86,4.86,0,0,0,.589,1.3l-.606.392a5.767,5.767,0,0,0,1.062,1.23l.473-.543a5,5,0,0,0,1.2.77l-.3.66a5.765,5.765,0,0,0,1.563.46l.1-.717a4.949,4.949,0,0,0,.711.058,5.3,5.3,0,0,0,.715-.053l.1.716a5.67,5.67,0,0,0,1.566-.456l-.3-.661a5,5,0,0,0,1.2-.762l.476.545a5.8,5.8,0,0,0,1.069-1.23l-.609-.391a5.122,5.122,0,0,0,.6-1.3l.693.208a5.783,5.783,0,0,0,.232-1.609" transform="translate(-638.079 -220.507)" fill="#e6e8ef"/>
    </g>
  </g>
</svg>
