<svg xmlns="http://www.w3.org/2000/svg" width="500" height="372.609" viewBox="0 0 500 372.609">
  <g id="quality_assurance" transform="translate(0 -54.953)">
    <g id="Background_Complete" data-name="Background Complete">
      <g id="Group_1514" data-name="Group 1514">
        <rect id="Rectangle_181" data-name="Rectangle 181" width="500" height="0.25" transform="translate(0 382.398)" fill="#ebebeb"/>
        <rect id="Rectangle_182" data-name="Rectangle 182" width="33.122" height="0.25" transform="translate(416.779 398.494)" fill="#ebebeb"/>
        <rect id="Rectangle_183" data-name="Rectangle 183" width="8.693" height="0.25" transform="translate(322.527 401.208)" fill="#ebebeb"/>
        <rect id="Rectangle_184" data-name="Rectangle 184" width="19.192" height="0.25" transform="translate(396.586 389.208)" fill="#ebebeb"/>
        <rect id="Rectangle_185" data-name="Rectangle 185" width="43.193" height="0.25" transform="translate(52.459 390.888)" fill="#ebebeb"/>
        <rect id="Rectangle_186" data-name="Rectangle 186" width="6.333" height="0.25" transform="translate(104.556 390.888)" fill="#ebebeb"/>
        <rect id="Rectangle_187" data-name="Rectangle 187" width="93.676" height="0.25" transform="translate(131.471 395.111)" fill="#ebebeb"/>
        <path id="Path_3594" data-name="Path 3594" d="M237.014,337.8H43.915a5.715,5.715,0,0,1-5.708-5.708V60.66a5.714,5.714,0,0,1,5.708-5.707h193.1a5.714,5.714,0,0,1,5.707,5.707V332.092A5.715,5.715,0,0,1,237.014,337.8ZM43.915,55.2a5.463,5.463,0,0,0-5.458,5.457V332.092a5.464,5.464,0,0,0,5.458,5.458h193.1a5.463,5.463,0,0,0,5.457-5.458V60.66a5.463,5.463,0,0,0-5.457-5.457Z" fill="#ebebeb"/>
        <path id="Path_3595" data-name="Path 3595" d="M453.31,337.8h-193.1a5.714,5.714,0,0,1-5.707-5.708V60.66a5.713,5.713,0,0,1,5.707-5.707h193.1a5.714,5.714,0,0,1,5.709,5.707V332.092A5.715,5.715,0,0,1,453.31,337.8ZM260.212,55.2a5.463,5.463,0,0,0-5.457,5.457V332.092a5.463,5.463,0,0,0,5.457,5.458h193.1a5.464,5.464,0,0,0,5.459-5.458V60.66A5.464,5.464,0,0,0,453.31,55.2Z" fill="#ebebeb"/>
      </g>
      <g id="Group_1525" data-name="Group 1525">
        <g id="Group_1515" data-name="Group 1515">
          <rect id="Rectangle_188" data-name="Rectangle 188" width="32.888" height="120.405" transform="translate(139.221 382.398) rotate(180)" fill="#e6e6e6"/>
          <path id="Path_3596" data-name="Path 3596" d="M114.091,382.4h-7.759v-22.07h15.894Z" fill="#f0f0f0"/>
          <rect id="Rectangle_189" data-name="Rectangle 189" width="32.888" height="120.405" transform="translate(344.554 382.398) rotate(180)" fill="#e6e6e6"/>
          <rect id="Rectangle_190" data-name="Rectangle 190" width="212.105" height="109.539" transform="translate(318.438 371.533) rotate(180)" fill="#f0f0f0"/>
          <path id="Path_3597" data-name="Path 3597" d="M209.031,269.18v87.35H113.1V269.18h95.929m.75-.75H112.352v88.85h97.429V268.43Z" fill="#fafafa"/>
          <path id="Path_3598" data-name="Path 3598" d="M311.669,269.18v87.35h-95.93V269.18h95.93m.75-.75h-97.43v88.85h97.43V268.43Z" fill="#fafafa"/>
          <ellipse id="Ellipse_67" data-name="Ellipse 67" cx="6.897" cy="4.127" rx="6.897" ry="4.127" transform="translate(222.986 280.777)" fill="#fafafa"/>
          <ellipse id="Ellipse_68" data-name="Ellipse 68" cx="6.897" cy="4.127" rx="6.897" ry="4.127" transform="translate(187.988 280.777)" fill="#fafafa"/>
          <path id="Path_3599" data-name="Path 3599" d="M310.679,382.4h7.759v-22.07H302.544Z" fill="#f0f0f0"/>
        </g>
        <g id="Group_1516" data-name="Group 1516">
          <path id="Path_3600" data-name="Path 3600" d="M214.164,248.01s.6,13.983,23.42,13.983,23.421-13.983,23.421-13.983Z" fill="#f5f5f5"/>
        </g>
        <g id="Group_1517" data-name="Group 1517">
          <rect id="Rectangle_191" data-name="Rectangle 191" width="177.178" height="108.138" transform="translate(450.285 183.205) rotate(180)" fill="#e6e6e6"/>
          <rect id="Rectangle_192" data-name="Rectangle 192" width="180.991" height="108.138" transform="translate(449.654 183.205) rotate(180)" fill="#f0f0f0"/>
          <rect id="Rectangle_193" data-name="Rectangle 193" width="177.178" height="4.128" transform="translate(450.285 187.333) rotate(180)" fill="#e6e6e6"/>
          <rect id="Rectangle_194" data-name="Rectangle 194" width="180.991" height="4.128" transform="translate(442.252 187.333) rotate(180)" fill="#f0f0f0"/>
          <rect id="Rectangle_195" data-name="Rectangle 195" width="95.697" height="168.55" transform="translate(443.434 81.287) rotate(90)" fill="#fafafa"/>
          <path id="Path_3601" data-name="Path 3601" d="M391.533,176.985l-9.961-95.7H364.336l9.961,95.7Z" fill="#fff"/>
          <path id="Path_3602" data-name="Path 3602" d="M440.554,149.66a.475.475,0,0,0,.475-.476V85.335a.475.475,0,1,0-.951,0v63.849A.476.476,0,0,0,440.554,149.66Z" fill="#f0f0f0"/>
          <path id="Path_3603" data-name="Path 3603" d="M370.6,176.985l-9.961-95.7h-6.719l9.962,95.7Z" fill="#fff"/>
          <rect id="Rectangle_196" data-name="Rectangle 196" width="95.697" height="0.79" transform="translate(275.674 81.287) rotate(90)" fill="#e6e6e6"/>
          <path id="Path_3604" data-name="Path 3604" d="M267.194,89.407H445.817l.572-5.7H267.766Z" fill="#e0e0e0" opacity="0.5"/>
          <path id="Path_3605" data-name="Path 3605" d="M267.194,98.778H445.817l.572-5.7H267.766Z" fill="#e0e0e0" opacity="0.5"/>
          <path id="Path_3606" data-name="Path 3606" d="M267.194,108.149H445.817l.572-5.7H267.766Z" fill="#e0e0e0" opacity="0.5"/>
          <path id="Path_3607" data-name="Path 3607" d="M267.194,117.52H445.817l.572-5.7H267.766Z" fill="#e0e0e0" opacity="0.5"/>
          <path id="Path_3608" data-name="Path 3608" d="M267.194,126.891H445.817l.572-5.7H267.766Z" fill="#e0e0e0" opacity="0.5"/>
          <path id="Path_3609" data-name="Path 3609" d="M267.194,136.262H445.817l.572-5.7H267.766Z" fill="#e0e0e0" opacity="0.5"/>
        </g>
        <g id="Group_1524" data-name="Group 1524">
          <g id="Group_1520" data-name="Group 1520">
            <g id="Group_1519" data-name="Group 1519">
              <g id="Group_1518" data-name="Group 1518">
                <rect id="Rectangle_197" data-name="Rectangle 197" width="107.936" height="71.459" transform="translate(230.632 149.358) rotate(180)" fill="#e0e0e0"/>
                <rect id="Rectangle_198" data-name="Rectangle 198" width="111.602" height="71.459" transform="translate(227.79 149.358) rotate(180)" fill="#f5f5f5"/>
                <rect id="Rectangle_199" data-name="Rectangle 199" width="46.417" height="92.902" transform="translate(125.538 136.837) rotate(-90)" fill="#fff"/>
              </g>
            </g>
          </g>
          <g id="Group_1523" data-name="Group 1523">
            <g id="Group_1522" data-name="Group 1522">
              <g id="Group_1521" data-name="Group 1521">
                <rect id="Rectangle_200" data-name="Rectangle 200" width="107.936" height="71.459" transform="translate(173.41 237.083) rotate(180)" fill="#e0e0e0"/>
                <rect id="Rectangle_201" data-name="Rectangle 201" width="111.601" height="71.459" transform="translate(170.568 237.083) rotate(180)" fill="#f5f5f5"/>
                <rect id="Rectangle_202" data-name="Rectangle 202" width="46.417" height="92.902" transform="translate(68.316 224.562) rotate(-90)" fill="#fff"/>
              </g>
            </g>
          </g>
        </g>
      </g>
    </g>
    <g id="Shadow">
      <ellipse id="_Path_" data-name="&lt;Path&gt;" cx="193.889" cy="11.323" rx="193.889" ry="11.323" transform="translate(56.111 404.915)" fill="#f5f5f5"/>
    </g>
    <g id="Smartphone">
      <g id="Group_1534" data-name="Group 1534">
        <g id="Group_1526" data-name="Group 1526">
          <rect id="Rectangle_203" data-name="Rectangle 203" width="8.282" height="1.018" transform="translate(426.271 177.036) rotate(-87.246)" fill="#407bff"/>
          <rect id="Rectangle_204" data-name="Rectangle 204" width="23.216" height="1.018" transform="translate(426.962 162.416) rotate(-87.252)" fill="#407bff"/>
          <path id="Path_3610" data-name="Path 3610" d="M289.41,126.332H413.361A12.1,12.1,0,0,1,425.528,139.1l-12.56,264.359a13.576,13.576,0,0,1-13.381,12.774H275.636a12.1,12.1,0,0,1-12.167-12.774L276.029,139.1A13.577,13.577,0,0,1,289.41,126.332Z" fill="#407bff"/>
          <path id="Path_3611" data-name="Path 3611" d="M455.7,239.679l.29-6.073-3.717-1.08a35.46,35.46,0,0,0-.91-6.037l3.181-2.438-2.057-5.61-3.907.442a34.512,34.512,0,0,0-3.182-5.116l2.062-3.427-4.089-4.294-3.515,1.9a34.482,34.482,0,0,0-4.954-3.432l.626-3.879-5.5-2.324-2.576,3.056a35.509,35.509,0,0,0-5.991-1.2l-.9-3.756h-6.073l-1.256,3.757a37.566,37.566,0,0,0-6.1,1.2l-2.287-3.058-5.721,2.324.257,3.881a39.288,39.288,0,0,0-5.28,3.431l-3.335-1.9-4.5,4.294,1.737,3.428a39.376,39.376,0,0,0-3.671,5.115l-3.864-.442-2.591,5.61,2.948,2.437a37.553,37.553,0,0,0-1.485,6.038l-3.819,1.08-.289,6.073,3.716,1.08a35.77,35.77,0,0,0,.91,6.037l-3.18,2.438,2.056,5.61,3.908-.443a34.377,34.377,0,0,0,3.183,5.115l-2.064,3.429,4.09,4.294,3.518-1.9a34.453,34.453,0,0,0,4.952,3.427l-.628,3.885,5.5,2.324,2.582-3.063a35.4,35.4,0,0,0,5.982,1.2l.9,3.765h6.073l1.258-3.764a37.332,37.332,0,0,0,6.1-1.2l2.289,3.061,5.721-2.324-.257-3.883a39.161,39.161,0,0,0,5.279-3.428l3.336,1.9,4.5-4.294-1.737-3.428a39.451,39.451,0,0,0,3.67-5.116l3.865.443,2.591-5.61L450.4,246.8a37.741,37.741,0,0,0,1.485-6.036Zm-14.114-3.04a27.527,27.527,0,0,1-27.205,25.982,24.542,24.542,0,0,1-24.745-25.982,27.54,27.54,0,0,1,27.22-25.982A24.546,24.546,0,0,1,441.588,236.639Z" fill="#407bff"/>
          <path id="Path_3612" data-name="Path 3612" d="M413.209,129.525H289.259a10.152,10.152,0,0,0-10.036,9.58L267.282,390.438a3.129,3.129,0,0,0,3.154,3.311H406.925a3.509,3.509,0,0,0,3.468-3.311L422.334,139.1A9.051,9.051,0,0,0,413.209,129.525Z" fill="#fff"/>
          <path id="Path_3613" data-name="Path 3613" d="M390.922,382.253H287.6a10.961,10.961,0,0,1-11.014-11.563l3.174-66.809a12.22,12.22,0,0,1,12.066-11.52H395.149a10.961,10.961,0,0,1,11.014,11.563l-3.174,66.809A12.221,12.221,0,0,1,390.922,382.253Zm-99.1-88.968a11.286,11.286,0,0,0-11.144,10.639L277.5,370.733a10.035,10.035,0,0,0,10.092,10.6H390.922a11.286,11.286,0,0,0,11.145-10.639l3.174-66.809a10.038,10.038,0,0,0-10.092-10.6Z" fill="#407bff" opacity="0.2"/>
          <path id="Path_3614" data-name="Path 3614" d="M309.443,298.027H270.087l-3.256,68.541h39.356a8.654,8.654,0,0,0,8.53-8.143L317.2,306.17A7.716,7.716,0,0,0,309.443,298.027Z" fill="#407bff" opacity="0.1"/>
          <path id="Path_3615" data-name="Path 3615" d="M362.168,331.226H335.406a3.951,3.951,0,0,1-3.973-4.17l1.272-26.763a4.432,4.432,0,0,1,4.369-4.17h26.762a3.951,3.951,0,0,1,3.973,4.17l-1.272,26.763A4.432,4.432,0,0,1,362.168,331.226Z" fill="#407bff" opacity="0.1"/>
          <path id="Path_3616" data-name="Path 3616" d="M404.89,310.148a6.366,6.366,0,0,0-6.275,5.99l-1.826,38.434a5.676,5.676,0,0,0,5.7,5.99h11.365l2.395-50.414Z" fill="#407bff" opacity="0.1"/>
          <path id="Path_3617" data-name="Path 3617" d="M372.987,373.456H346.224a3.952,3.952,0,0,1-3.972-4.171l1.271-26.762a4.433,4.433,0,0,1,4.369-4.171h26.763a3.951,3.951,0,0,1,3.972,4.171l-1.271,26.762A4.433,4.433,0,0,1,372.987,373.456Z" fill="#407bff" opacity="0.1"/>
          <path id="Path_3618" data-name="Path 3618" d="M344.512,404.185a6.7,6.7,0,0,1-6.628,6.327,5.978,5.978,0,0,1-6.027-6.327,6.7,6.7,0,0,1,6.628-6.328A5.978,5.978,0,0,1,344.512,404.185Z" fill="#fff" opacity="0.2"/>
        </g>
        <path id="Path_3619" data-name="Path 3619" d="M402.97,276.876H285.517a3.8,3.8,0,0,1-3.825-4.016l3.5-73.744A4.254,4.254,0,0,1,289.4,195.1H406.855a3.794,3.794,0,0,1,3.825,4.016l-3.5,73.744A4.256,4.256,0,0,1,402.97,276.876Z" fill="#407bff" opacity="0.2"/>
        <path id="Path_3620" data-name="Path 3620" d="M409.287,177.456H288.647a2.288,2.288,0,0,1-2.307-2.422l1.183-24.907a2.567,2.567,0,0,1,2.537-2.422H410.7a2.288,2.288,0,0,1,2.307,2.422l-1.183,24.907A2.568,2.568,0,0,1,409.287,177.456Z" fill="#407bff" opacity="0.6"/>
        <g id="Group_1527" data-name="Group 1527">
          <path id="Path_3621" data-name="Path 3621" d="M298.839,219.879h-6.373l-2.149,45.234h6.373Z" fill="#407bff"/>
          <path id="Path_3622" data-name="Path 3622" d="M310.873,236.521H304.5l-1.358,28.591h6.373Z" fill="#407bff"/>
          <path id="Path_3623" data-name="Path 3623" d="M323.241,246.123h-6.373l-.9,18.99h6.373Z" fill="#407bff"/>
          <path id="Path_3624" data-name="Path 3624" d="M335.615,255.618h-6.373l-.451,9.495h6.373Z" fill="#407bff"/>
          <path id="Path_3625" data-name="Path 3625" d="M349.621,230.76h-6.373l-1.632,34.352h6.373Z" fill="#407bff"/>
          <path id="Path_3626" data-name="Path 3626" d="M363.318,212.411h-6.373l-2.5,52.7h6.373Z" fill="#407bff"/>
          <path id="Path_3627" data-name="Path 3627" d="M376.406,206.863h-6.373l-2.768,58.249h6.373Z" fill="#407bff"/>
          <path id="Path_3628" data-name="Path 3628" d="M388.156,229.48h-6.373l-1.693,35.633h6.373Z" fill="#407bff"/>
          <path id="Path_3629" data-name="Path 3629" d="M400.434,241h-6.373l-1.145,24.111h6.373Z" fill="#407bff"/>
        </g>
        <g id="Group_1528" data-name="Group 1528">
          <path id="Path_3630" data-name="Path 3630" d="M300.125,352.543H247.871a7.715,7.715,0,0,1-7.757-8.143l2.482-52.255A8.656,8.656,0,0,1,251.127,284h52.255a7.717,7.717,0,0,1,7.757,8.144L308.656,344.4A8.655,8.655,0,0,1,300.125,352.543Z" fill="#407bff"/>
          <path id="Path_3631" data-name="Path 3631" d="M300.125,352.543H247.871a7.715,7.715,0,0,1-7.757-8.143l2.482-52.255A8.656,8.656,0,0,1,251.127,284h52.255a7.717,7.717,0,0,1,7.757,8.144L308.656,344.4A8.655,8.655,0,0,1,300.125,352.543Z" fill="#fff" opacity="0.8"/>
          <path id="Path_3632" data-name="Path 3632" d="M299.867,322.264l.38-7.983-3.716-2.457a20.431,20.431,0,0,0-1.467-3.889l1.01-3.792L290.7,298.5l-3.832.83a20.264,20.264,0,0,0-3.81-1.652l-2.275-3.834H272.8l-2.64,3.833a22.572,22.572,0,0,0-3.967,1.653l-3.752-.83-5.914,5.645.648,3.789a22.593,22.593,0,0,0-1.841,3.894l-3.947,2.455-.38,7.983,3.712,2.454a20.382,20.382,0,0,0,1.471,3.9l-1.009,3.789,5.376,5.645,3.834-.83a20.343,20.343,0,0,0,3.806,1.65l2.276,3.836h7.983l2.643-3.836a22.588,22.588,0,0,0,3.962-1.65l3.755.83,5.914-5.645-.649-3.792a22.61,22.61,0,0,0,1.839-3.889Zm-24.7,5.581a9.049,9.049,0,0,1-9.123-9.57,10.153,10.153,0,0,1,10.035-9.578,9.046,9.046,0,0,1,9.122,9.578A10.145,10.145,0,0,1,275.169,327.845Z" fill="#fff"/>
        </g>
        <g id="Group_1529" data-name="Group 1529">
          <path id="Path_3633" data-name="Path 3633" d="M355.618,319.105H328.856a3.953,3.953,0,0,1-3.973-4.171l1.272-26.762A4.433,4.433,0,0,1,330.524,284h26.762a3.952,3.952,0,0,1,3.973,4.171l-1.272,26.762A4.433,4.433,0,0,1,355.618,319.105Z" fill="#407bff"/>
          <path id="Path_3634" data-name="Path 3634" d="M355.618,319.105H328.856a3.953,3.953,0,0,1-3.973-4.171l1.272-26.762A4.433,4.433,0,0,1,330.524,284h26.762a3.952,3.952,0,0,1,3.973,4.171l-1.272,26.762A4.433,4.433,0,0,1,355.618,319.105Z" fill="#fff" opacity="0.6"/>
        </g>
        <g id="Group_1531" data-name="Group 1531">
          <g id="Group_1530" data-name="Group 1530">
            <path id="Path_3635" data-name="Path 3635" d="M434.379,348.441H395.944a5.676,5.676,0,0,1-5.7-5.99l1.826-38.435a6.367,6.367,0,0,1,6.275-5.99h38.434a5.676,5.676,0,0,1,5.706,5.99l-1.827,38.435A6.366,6.366,0,0,1,434.379,348.441Z" fill="#407bff"/>
            <path id="Path_3636" data-name="Path 3636" d="M434.379,348.441H395.944a5.676,5.676,0,0,1-5.7-5.99l1.826-38.435a6.367,6.367,0,0,1,6.275-5.99h38.434a5.676,5.676,0,0,1,5.706,5.99l-1.827,38.435A6.366,6.366,0,0,1,434.379,348.441Z" fill="#fff" opacity="0.4"/>
          </g>
          <path id="Path_3637" data-name="Path 3637" d="M428.957,323.233l-19.466-11.556-1.1,23.111Z" fill="#fff"/>
        </g>
        <g id="Group_1533" data-name="Group 1533">
          <g id="Group_1532" data-name="Group 1532">
            <path id="Path_3638" data-name="Path 3638" d="M366.437,361.335H339.675a3.952,3.952,0,0,1-3.973-4.171l1.271-26.762a4.433,4.433,0,0,1,4.369-4.171h26.763a3.951,3.951,0,0,1,3.972,4.171l-1.271,26.762A4.433,4.433,0,0,1,366.437,361.335Z" fill="#407bff"/>
            <path id="Path_3639" data-name="Path 3639" d="M366.437,361.335H339.675a3.952,3.952,0,0,1-3.973-4.171l1.271-26.762a4.433,4.433,0,0,1,4.369-4.171h26.763a3.951,3.951,0,0,1,3.972,4.171l-1.271,26.762A4.433,4.433,0,0,1,366.437,361.335Z" fill="#fff" opacity="0.4"/>
          </g>
          <path id="Path_3640" data-name="Path 3640" d="M350.624,354l-9.5-9.979,2.211-2.105,7.4,7.764L364.845,336.2l2.108,2.209Z" fill="#fff"/>
        </g>
      </g>
    </g>
    <g id="Character">
      <g id="Group_1543" data-name="Group 1543">
        <path id="Path_3641" data-name="Path 3641" d="M169.838,163.826c-.051,5.715-1.045,16-5.642,18.88a21.709,21.709,0,0,0,11.476,11.645c9.482-2.9,5.6-8.137,5.6-8.137-5.826-2.721-4.734-7.235-2.79-11.284Z" fill="#ffb573"/>
        <path id="Path_3642" data-name="Path 3642" d="M164.055,193.9c1.308,4.729,2.735,9.569,4.213,14.279.751,2.358,1.548,4.693,2.394,6.972a70.343,70.343,0,0,0,2.716,6.574,24.985,24.985,0,0,0,1.525,2.763c.127.184.256.4.37.528l.172.228c.056.076.2.234.289.347l1.245,1.478c1.622,1.988,3.238,3.957,4.8,5.975,3.147,4.013,6.187,8.1,9.077,12.335l-3.585,3.173c-3.842-3.369-7.55-6.861-11.179-10.407l-5.408-5.326-1.329-1.326c-.12-.122-.2-.192-.352-.358l-.445-.495c-.312-.34-.541-.653-.794-.977a32.9,32.9,0,0,1-2.407-3.749,97.372,97.372,0,0,1-6.207-14.7c-1.719-4.925-3.174-9.824-4.455-14.912Z" fill="#ffb573"/>
        <path id="Path_3643" data-name="Path 3643" d="M151.52,186.557c-3.976,5.843,1.1,20.257,1.1,20.257l17.931,0s.165-11.921-2.329-16.516C165,184.345,154.1,182.765,151.52,186.557Z" fill="#263238"/>
        <path id="Path_3644" data-name="Path 3644" d="M196.276,246.653l-6.924-2.031-3.627,1.438c.036,3.929,5.413,6.746,5.413,6.746l4.194,3.857a2.746,2.746,0,0,0,3.25.347l2.6-1.53a2.745,2.745,0,0,0,.842-3.966l-1.132-1.581A8.7,8.7,0,0,0,196.276,246.653Z" fill="#ffb573"/>
        <g id="Group_1539" data-name="Group 1539">
          <g id="Group_1535" data-name="Group 1535">
            <path id="Path_3645" data-name="Path 3645" d="M261.637,206.368l-9.225-9.225a5.177,5.177,0,0,1,0-7.3h0a5.177,5.177,0,0,1,7.3,0l9.225,9.225a5.177,5.177,0,0,1,0,7.3h0A5.177,5.177,0,0,1,261.637,206.368Z" fill="#263238"/>
            <rect id="Rectangle_205" data-name="Rectangle 205" width="9.49" height="16.815" rx="4.198" transform="translate(257.758 194.311) rotate(45)" fill="#263238"/>
            <path id="Path_3646" data-name="Path 3646" d="M169.145,298.246l-8.61-8.61a2.587,2.587,0,0,1,.033-3.691l87.654-84.575a2.586,2.586,0,0,1,3.625.033l5.531,5.53a2.588,2.588,0,0,1,.033,3.626l-84.575,87.654A2.587,2.587,0,0,1,169.145,298.246Z" fill="#263238"/>
          </g>
          <g id="Group_1537" data-name="Group 1537">
            <g id="Group_1536" data-name="Group 1536">
              <path id="Path_3647" data-name="Path 3647" d="M259.158,185.65a55.935,55.935,0,0,1-5.338-9.438l2.37-49.963c.011-.342.043-.673.075-1a24.628,24.628,0,0,1,22.569-22.078c.523-.042,1.057-.064,1.591-.064h51.906a57.06,57.06,0,0,1,13.4,9.95,56.706,56.706,0,0,1-.011,80.187c-.865.865-1.74,1.687-2.648,2.477a56.732,56.732,0,0,1-83.913-10.067Z" fill="#407bff"/>
              <path id="Path_3648" data-name="Path 3648" d="M265.532,193.24a56.689,56.689,0,0,1-6.374-7.59l2.819-59.4a18.383,18.383,0,0,1,18.17-17.359h60.939a56.709,56.709,0,0,1,4.633,84.35c-.865.865-1.74,1.687-2.648,2.477A56.687,56.687,0,0,1,265.532,193.24Z" fill="#fff"/>
            </g>
            <path id="Path_3649" data-name="Path 3649" d="M345.719,193.24c-.865.865-1.74,1.687-2.648,2.477H279.047a4.148,4.148,0,0,1-4.184-4.388l2.145-45.116a4.646,4.646,0,0,1,4.591-4.388h79.59A56.6,56.6,0,0,1,345.719,193.24Z" fill="#407bff" opacity="0.6"/>
          </g>
          <path id="Path_3650" data-name="Path 3650" d="M265.535,193.245a56.706,56.706,0,1,1,80.187,0A56.7,56.7,0,0,1,265.535,193.245Z" fill="#fff" opacity="0.5"/>
          <g id="Group_1538" data-name="Group 1538">
            <path id="Path_3651" data-name="Path 3651" d="M327.607,161.131c-8.222,8.222-17.577,7.554-23.759,1.372s-6.85-15.537,1.372-23.758,19.9-9.875,26.08-3.693S335.829,152.91,327.607,161.131Z" fill="#263238"/>
            <path id="Path_3652" data-name="Path 3652" d="M325.327,141.025c-3.261-3.261-3.917-7.892-1.465-10.344s7.083-1.8,10.344,1.465,3.916,7.892,1.464,10.344S328.587,144.286,325.327,141.025Z" fill="#263238"/>
            <path id="Path_3653" data-name="Path 3653" d="M322.724,144.894a1.263,1.263,0,0,1-1.029-.529l-10.35-14.431a1.269,1.269,0,0,1-.228-.887l1.058-8.9a1.265,1.265,0,0,1,2.513.3l-1,8.41,10.064,14.033a1.266,1.266,0,0,1-1.028,2Z" fill="#263238"/>
            <path id="Path_3654" data-name="Path 3654" d="M337.155,155.244a1.271,1.271,0,0,1-.737-.237l-14.432-10.351a1.265,1.265,0,1,1,1.475-2.056l14.033,10.064,8.409-1a1.265,1.265,0,1,1,.3,2.512l-8.9,1.058A1.079,1.079,0,0,1,337.155,155.244Z" fill="#263238"/>
            <path id="Path_3655" data-name="Path 3655" d="M314.462,153.154a1.259,1.259,0,0,1-.736-.237l-14.034-10.064-8.409,1a1.265,1.265,0,1,1-.3-2.512l8.9-1.059a1.235,1.235,0,0,1,.887.228L315.2,150.86a1.266,1.266,0,0,1-.738,2.294Z" fill="#263238"/>
            <path id="Path_3656" data-name="Path 3656" d="M323.756,176.483a1.3,1.3,0,0,1-.151-.009,1.265,1.265,0,0,1-1.106-1.406l1-8.41-10.064-14.032a1.265,1.265,0,1,1,2.056-1.475l10.351,14.432a1.268,1.268,0,0,1,.228.887l-1.059,8.9A1.265,1.265,0,0,1,323.756,176.483Z" fill="#263238"/>
            <path id="Path_3657" data-name="Path 3657" d="M337.9,168.33a1.262,1.262,0,0,1-.895-.371l-38.613-38.612a1.265,1.265,0,0,1,1.789-1.789l38.613,38.612a1.266,1.266,0,0,1-.894,2.16Z" fill="#263238"/>
            <path id="Path_3658" data-name="Path 3658" d="M332.7,134.912a1.266,1.266,0,0,1-1.163-1.763,8.987,8.987,0,0,0-3.131-10.59,1.265,1.265,0,1,1,1.531-2.014,11.5,11.5,0,0,1,3.925,13.6A1.266,1.266,0,0,1,332.7,134.912Z" fill="#263238"/>
            <path id="Path_3659" data-name="Path 3659" d="M344.8,138.44a1.262,1.262,0,0,1-1.008-.5,8.988,8.988,0,0,0-10.589-3.13,1.265,1.265,0,0,1-1-2.325,11.5,11.5,0,0,1,13.6,3.924,1.266,1.266,0,0,1-1.007,2.031Z" fill="#263238"/>
          </g>
          <path id="Path_3660" data-name="Path 3660" d="M350.591,108.189a63.581,63.581,0,1,0,0,89.925A63.586,63.586,0,0,0,350.591,108.189Zm-82.874,82.874a53.62,53.62,0,1,1,75.823,0A53.617,53.617,0,0,1,267.717,191.063Z" fill="#407bff"/>
        </g>
        <path id="Path_3661" data-name="Path 3661" d="M196.556,196.342c-.821,5.921-4.239,19.485-16.024,50.435l-37.606-7.725c3.346-13.451,5.264-22.392,5.055-47.17a9.8,9.8,0,0,1,10.667-9.855c1.785.166,3.668.386,5.548.679a122.19,122.19,0,0,1,17.076,3.508c4.286,1.3,8.846,3.03,11.833,4.221A5.545,5.545,0,0,1,196.556,196.342Z" fill="#263238"/>
        <path id="Path_3662" data-name="Path 3662" d="M197.972,198.742c.3,2.22.686,4.68,1.14,7,.47,2.346.946,4.686,1.542,6.973a66.057,66.057,0,0,0,2.082,6.659,33.9,33.9,0,0,0,2.784,5.937,18.248,18.248,0,0,0,1.712,2.351l.456.472c.163.178.23.209.343.335a6.414,6.414,0,0,0,.908.617,19.5,19.5,0,0,0,5.833,1.847,86.768,86.768,0,0,0,14.235,1.02l.7,4.736a55.451,55.451,0,0,1-15.733,1.813,25.169,25.169,0,0,1-8.682-1.744,14.514,14.514,0,0,1-2.333-1.269,13.987,13.987,0,0,1-1.108-.855l-.906-.821a26.58,26.58,0,0,1-2.956-3.52,51.66,51.66,0,0,1-6.6-15.045c-.72-2.544-1.362-5.09-1.838-7.66-.489-2.594-.914-5.08-1.187-7.834Z" fill="#ffb573"/>
        <path id="Path_3663" data-name="Path 3663" d="M193.857,190.9c7.928,5.305,7.946,18.4,7.946,18.4l-16.231,10.1s-4.5-12.2-3.244-21.434C183.063,192.559,188.981,187.634,193.857,190.9Z" fill="#263238"/>
        <path id="Path_3664" data-name="Path 3664" d="M226.858,231.97l10.227-.416-5.137,7.811s-5.32-.708-6.505-4.36Z" fill="#ffb573"/>
        <path id="Path_3665" data-name="Path 3665" d="M240.667,237.441l-.977,1.4a3.063,3.063,0,0,1-3,1.277l-4.742-.758,5.137-7.811,2.585,1.476A3.065,3.065,0,0,1,240.667,237.441Z" fill="#ffb573"/>
        <path id="Path_3666" data-name="Path 3666" d="M191.5,157.538c.04.761.475,1.357.973,1.331s.869-.664.829-1.425-.476-1.358-.973-1.332S191.462,156.776,191.5,157.538Z" fill="#263238"/>
        <path id="Path_3667" data-name="Path 3667" d="M192.113,156.166l1.8-.623S193.051,157.02,192.113,156.166Z" fill="#263238"/>
        <path id="Path_3668" data-name="Path 3668" d="M192.239,159.2a20.374,20.374,0,0,0,2.969,4.717,3.276,3.276,0,0,1-2.687.651Z" fill="#ed893e"/>
        <path id="Path_3669" data-name="Path 3669" d="M192.089,163.41c-2.33,0-4.156-3.263-4.156-7.429s1.826-7.428,4.156-7.428,4.156,3.262,4.156,7.428S194.419,163.41,192.089,163.41Zm0-14.324c-2,0-3.622,3.094-3.622,6.9s1.625,6.9,3.622,6.9,3.622-3.094,3.622-6.9S194.086,149.086,192.089,149.086Z" fill="#407bff"/>
        <path id="Path_3670" data-name="Path 3670" d="M188.6,155.69a.448.448,0,0,0,.455-.265c.836-1.9,3.447-2.441,3.473-2.446a.448.448,0,1,0-.176-.878c-.126.025-3.1.647-4.116,2.962a.448.448,0,0,0,.229.591A.475.475,0,0,0,188.6,155.69Z" fill="#263238"/>
        <path id="Path_3671" data-name="Path 3671" d="M165.592,156.1c1.064,9.321,1.315,13.289,6.29,17.841,7.482,6.847,18.7,3.5,20.44-5.949,1.568-8.507-.436-22.321-9.784-25.563A12.8,12.8,0,0,0,165.592,156.1Z" fill="#ffb573"/>
        <path id="Path_3672" data-name="Path 3672" d="M188.2,159.625c4.331-6.646,6.522-14.883,2.346-19.747s-10.464,0-10.464,0-16.844-6.109-22.3.949c-7.908,10.23,2.439,16.711-.1,19.558s-6.026,6.837-2.871,12.766c3.446,6.474,29.665,1.484,33.394,8.925C199.185,181.479,193.472,163.6,188.2,159.625Z" fill="#263238"/>
        <path id="Path_3673" data-name="Path 3673" d="M156.482,163.143a.267.267,0,0,1-.2-.445c.784-.878.112-2.24-.818-4.126-1.708-3.462-4.289-8.693.91-15.417a.264.264,0,0,1,.374-.048.267.267,0,0,1,.048.374c-4.995,6.46-2.6,11.313-.853,14.856.984,1.994,1.761,3.57.737,4.717A.271.271,0,0,1,156.482,163.143Z" fill="#263238"/>
        <path id="Path_3674" data-name="Path 3674" d="M192.063,181.011a7.444,7.444,0,0,1-1.574-.185.267.267,0,0,1,.113-.521c2.339.509,3.857-.111,4.517-1.833,1.8-4.7-3.312-16.1-7.4-18.414a.268.268,0,0,1-.1-.365.265.265,0,0,1,.363-.1c4.331,2.459,9.541,14.081,7.633,19.069A3.5,3.5,0,0,1,192.063,181.011Z" fill="#263238"/>
        <path id="Path_3675" data-name="Path 3675" d="M185.969,159.006a.267.267,0,0,1-.259-.2,1.767,1.767,0,0,1,.314-1.566c1.081-1.436,4.585-2.258,10.413-2.442a.259.259,0,0,1,.275.258.268.268,0,0,1-.259.275c-7.047.224-9.329,1.336-10,2.23a1.242,1.242,0,0,0-.222,1.114.268.268,0,0,1-.194.324A.246.246,0,0,1,185.969,159.006Z" fill="#407bff"/>
        <path id="Path_3676" data-name="Path 3676" d="M187.063,161.047a6.171,6.171,0,0,0,4.2,2.821c1.67.262,1.213-2.281.409-4.65-.724-2.132-2.466-4.838-3.978-4C186.2,156.05,186.017,159.028,187.063,161.047Z" fill="#ffb573"/>
        <path id="Path_3677" data-name="Path 3677" d="M97.674,405.954a3.548,3.548,0,0,0,2.339-.35,1.24,1.24,0,0,0,.512-1.044.722.722,0,0,0-.319-.63c-1.088-.747-5.031.79-5.476.968a.224.224,0,0,0,.018.422A16.075,16.075,0,0,0,97.674,405.954Zm1.872-1.778a.89.89,0,0,1,.407.123.274.274,0,0,1,.123.256.8.8,0,0,1-.327.688c-.622.455-2.179.389-4.229-.166A12.179,12.179,0,0,1,99.546,404.176Z" fill="#407bff"/>
        <path id="Path_3678" data-name="Path 3678" d="M94.791,405.328a.212.212,0,0,0,.093-.01c1.172-.394,3.594-2.2,3.527-3.282-.015-.257-.163-.589-.773-.713a1.625,1.625,0,0,0-1.273.26c-1.281.866-1.753,3.376-1.772,3.483a.222.222,0,0,0,.2.262Zm2.624-3.587a1.271,1.271,0,0,1,.133.021c.4.082.413.247.416.3.04.65-1.626,2.1-2.838,2.672a5.192,5.192,0,0,1,1.491-2.781A1.174,1.174,0,0,1,97.415,401.741Z" fill="#407bff"/>
        <path id="Path_3679" data-name="Path 3679" d="M83.864,407.122l9.268,1.8,10.246-22.844-9.268-1.8Z" fill="#ffb573"/>
        <path id="Path_3680" data-name="Path 3680" d="M95.514,404.882,85.5,401.337a.588.588,0,0,0-.8.4l-2.977,7.82a1.938,1.938,0,0,0,1.186,2.2c3.5,1.172,7.144,1.74,11.681,2.847a49.9,49.9,0,0,0,11.135,1.631c3.881,0,3.391-3.923,1.668-4.279-7.728-1.593-8.423-3.013-10.473-5.962A2.96,2.96,0,0,0,95.514,404.882Z" fill="#263238"/>
        <g id="Group_1540" data-name="Group 1540" opacity="0.2">
          <path id="Path_3681" data-name="Path 3681" d="M103.373,386.087l-5.28,11.775-9.272-1.8,5.28-11.775Z"/>
        </g>
        <path id="Path_3682" data-name="Path 3682" d="M142.517,238.692c-13.13,12.213-14.044,52.608-23.55,79.979-15.3,27.542-29.359,72.049-29.359,72.049l12.766,3.514s19.566-38.789,32.073-65.984c13.8-30.019,32.123-84.548,32.123-84.548Z" fill="#407bff"/>
        <path id="Path_3683" data-name="Path 3683" d="M151.738,259.506a115.137,115.137,0,0,0,1.4,22.164c2.413-6.534,4.644-12.758,6.576-18.192Z" opacity="0.2"/>
        <path id="Path_3684" data-name="Path 3684" d="M183.964,406.148a3.547,3.547,0,0,0,2.293-.582,1.241,1.241,0,0,0,.4-1.09.718.718,0,0,0-.38-.6c-1.157-.635-4.926,1.289-5.351,1.511a.224.224,0,0,0,.059.418A16.066,16.066,0,0,0,183.964,406.148Zm1.685-1.956a.879.879,0,0,1,.417.081.277.277,0,0,1,.149.243.806.806,0,0,1-.257.717c-.574.515-2.129.606-4.224.258A12.176,12.176,0,0,1,185.649,404.192Z" fill="#407bff"/>
        <path id="Path_3685" data-name="Path 3685" d="M181.033,405.814a.23.23,0,0,0,.092-.019c1.127-.509,3.356-2.548,3.181-3.619-.041-.254-.221-.569-.841-.632a1.621,1.621,0,0,0-1.24.387c-1.188.989-1.406,3.534-1.415,3.642a.222.222,0,0,0,.223.241Zm2.252-3.831q.066,0,.135.006c.408.042.435.2.444.259.1.643-1.408,2.247-2.557,2.943a5.193,5.193,0,0,1,1.2-2.917A1.176,1.176,0,0,1,183.285,401.983Z" fill="#407bff"/>
        <path id="Path_3686" data-name="Path 3686" d="M171.074,407.887l9.347,1.412,4.515-21.457-9.347-1.412Z" fill="#ffb573"/>
        <path id="Path_3687" data-name="Path 3687" d="M181.99,405.492H171.37a.748.748,0,0,0-.754.645l-1.21,8.4a1.519,1.519,0,0,0,1.515,1.681c3.7-.064,5.487-.281,10.157-.281,2.873,0,9.443.3,13.41.3,3.881,0,4.179-3.923,2.527-4.279-7.408-1.593-10.95-3.79-13.445-5.886A2.469,2.469,0,0,0,181.99,405.492Z" fill="#263238"/>
        <g id="Group_1541" data-name="Group 1541" opacity="0.2">
          <path id="Path_3688" data-name="Path 3688" d="M184.932,387.848l-2.326,11.06-9.351-1.412,2.326-11.06Z"/>
        </g>
        <path id="Path_3689" data-name="Path 3689" d="M180.532,246.777s24.467,47.34,21.759,76.046c-2.817,29.858-17.975,73.4-17.975,73.4l-11.388-2.06s8.679-55.088,14.053-75.491c-13.153-30.3-51.467-41.784-33.987-77.551C158.114,242.014,180.532,246.777,180.532,246.777Z" fill="#407bff"/>
        <path id="Path_3690" data-name="Path 3690" d="M171.12,395.427l14.829,2.24,1.615-5.722-16.346-1.288Z" fill="#263238"/>
        <path id="Path_3691" data-name="Path 3691" d="M87.919,393.376l14.4,4.206,3.2-5.6-16.467-3.192Z" fill="#263238"/>
        <path id="Path_3692" data-name="Path 3692" d="M142.816,236.73l-1.653,3.168c-.185.234.07.564.5.653l38.7,7.951c.339.07.654-.039.719-.247l1.031-3.3c.072-.228-.182-.486-.553-.562l-38.081-7.823A.7.7,0,0,0,142.816,236.73Z" fill="#fff"/>
        <g id="Group_1542" data-name="Group 1542">
          <path id="Path_3693" data-name="Path 3693" d="M147.056,242.038l-1.02-.209c-.2-.042-.336-.178-.3-.3l1.377-4.276c.04-.125.239-.193.442-.151l1.02.209c.2.042.337.178.3.3l-1.376,4.275C147.458,242.012,147.259,242.08,147.056,242.038Z" fill="#407bff"/>
          <path id="Path_3694" data-name="Path 3694" d="M177.43,248.278l-1.02-.21c-.2-.041-.336-.178-.3-.3l1.377-4.275c.04-.125.239-.193.442-.152l1.02.21c.2.042.337.178.3.3l-1.376,4.275C177.832,248.251,177.633,248.32,177.43,248.278Z" fill="#407bff"/>
          <path id="Path_3695" data-name="Path 3695" d="M162.243,245.158l-1.02-.209c-.2-.042-.336-.179-.3-.3l1.377-4.275c.04-.125.239-.193.442-.151l1.02.209c.2.042.337.178.3.3l-1.376,4.275C162.645,245.132,162.446,245.2,162.243,245.158Z" fill="#407bff"/>
        </g>
      </g>
    </g>
  </g>
</svg>
