<svg xmlns="http://www.w3.org/2000/svg" xmlns:xlink="http://www.w3.org/1999/xlink" width="502.642" height="422.556" viewBox="0 0 502.642 422.556">
  <defs>
    <linearGradient id="linear-gradient" x1="0.5" y1="1" x2="0.5" gradientUnits="objectBoundingBox">
      <stop offset="0" stop-color="#cfd8dc"/>
      <stop offset="0.539" stop-color="#e2e7ea"/>
      <stop offset="1" stop-color="#eff1f3"/>
    </linearGradient>
  </defs>
  <g id="road_digi" transform="translate(-3639.691 -332)">
    <path id="Path_9809" data-name="Path 9809" d="M172.674,217.639c4.829,10.094-49.608,19.614-98.794,31.227-46.293,10.931-59.956,26.724,7.44,47.014s145.294,31.673,143.586,72.253c-1.029,24.461-96.894,60.215-162.2,80.317H366.167c27.284-35.7,39.868-94.559-34.373-120.733C243.7,296.659,43.111,279.279,93.72,262.723c63.8-20.871,110.94-36.742,91.662-51.635-13.593-10.5-64.558-17.309-156.462-12.7C28.92,198.388,163.675,198.834,172.674,217.639Z" transform="translate(3676.015 306.107)" fill="url(#linear-gradient)" style="mix-blend-mode: multiply;isolation: isolate"/>
    <g id="Group_8477" data-name="Group 8477" transform="translate(3716.131 568.193)">
      <path id="Path_9812" data-name="Path 9812" d="M254.5,478.325c0,1.386-15.624,2.51-25.537,2.51s-10.358-1.124-10.358-2.51.447-2.51,10.358-2.51S254.5,476.939,254.5,478.325Z" transform="translate(-104.014 -303.822)" fill="#cfd8dc" opacity="0.52" style="mix-blend-mode: multiply;isolation: isolate"/>
      <path id="Path_9834" data-name="Path 9834" d="M126.1,321.109l88.94.423a21.429,21.429,0,0,1,21.429,21.429h0V493.792l-.349-1.7a4.427,4.427,0,1,1-1.883-2.062V364.391a21.429,21.429,0,0,0-21.429-21.43l-86.707-.423a10.714,10.714,0,1,1,0-21.429Z" transform="translate(-115.385 -321.109)" fill="#546e7a"/>
      <text id="High_tech_automation" data-name="High tech automation" transform="translate(54.402 14.653)" fill="#fff" font-size="10" font-family="Roboto-Bold, Roboto" font-weight="700"><tspan x="-48.372" y="0">High tech automation</tspan></text>
      <g id="automation" transform="translate(61.759 40.235)">
        <g id="Solid" transform="translate(0 0)">
          <path id="Path_9991" data-name="Path 9991" d="M108.358,255.719a2.038,2.038,0,0,1,.281-1.033l-.321-.114a.657.657,0,0,1-.387-.368c-.309-.747-.481-1.161-.762-1.84l-.1-.243a.657.657,0,0,1,.014-.534l.97-2.039-1.368-1.369-2.039.969a.657.657,0,0,1-.533.014l-2.085-.863a.656.656,0,0,1-.326-.3l-2.072-.985-1.544.64-.814,2.289a.657.657,0,0,1-.619.437H93.787a.657.657,0,0,1-.619-.437l-.459-1.291-.893.892.97,2.039a.657.657,0,0,1,.014.534l-.1.243-.762,1.84a.657.657,0,0,1-.387.368l-2.127.757v1.936l2.127.757a.657.657,0,0,1,.387.368c.309.747.481,1.161.762,1.84l.1.243a.657.657,0,0,1-.014.534l-.97,2.039,1.369,1.369,2.039-.969a.657.657,0,0,1,.533-.014l2.085.863a.657.657,0,0,1,.367.387l.756,2.127H100.9l.756-2.127a.657.657,0,0,1,.367-.387l2.085-.863a.658.658,0,0,1,.533.014l2.039.969,1.369-1.369-.97-2.039a.657.657,0,0,1-.014-.534l.1-.243.762-1.84a.657.657,0,0,1,.387-.368l1.1-.392-.46-.46A2.038,2.038,0,0,1,108.358,255.719Zm-8.425,6.49a5.913,5.913,0,1,1,5.913-5.913A5.913,5.913,0,0,1,99.934,262.21Z" transform="translate(-84.706 -228.045)" fill="#cfd8dc"/>
          <path id="Path_9992" data-name="Path 9992" d="M38.336,33.647l2.084.863a.657.657,0,0,1,.367.387l.756,2.127H43.48l.757-2.127a.657.657,0,0,1,.368-.387l2.084-.863a.656.656,0,0,1,.534.014l2.039.969,1.369-1.369-.969-2.039a.657.657,0,0,1-.014-.534l.863-2.084a.657.657,0,0,1,.386-.367l2.127-.756V25.544L50.9,24.787a.657.657,0,0,1-.387-.368l-.863-2.084a.657.657,0,0,1,.014-.534l.969-2.039-1.369-1.369-2.039.969a.656.656,0,0,1-.534.014L44.6,18.514a.657.657,0,0,1-.367-.387L43.48,16H41.544l-.757,2.127a.657.657,0,0,1-.368.387l-2.084.863a.656.656,0,0,1-.534-.014l-2.039-.969-1.369,1.369.969,2.039a.657.657,0,0,1,.014.534l-.863,2.084a.657.657,0,0,1-.387.367L32,25.544V27.48l2.127.757a.657.657,0,0,1,.387.368l.863,2.084a.657.657,0,0,1-.014.534l-.969,2.039,1.369,1.369,2.039-.969A.656.656,0,0,1,38.336,33.647ZM42.512,20.6A5.913,5.913,0,1,1,36.6,26.512,5.913,5.913,0,0,1,42.512,20.6Z" transform="translate(-32 -16)" fill="#cfd8dc"/>
          <path id="Path_9993" data-name="Path 9993" d="M321.928,301.017a2.051,2.051,0,0,1,1.971.534l.441.441v-2.356h-2.745a.657.657,0,0,1-.619-.437l-.238-.67-.3.639.64,1.544Z" transform="translate(-296.745 -275.327)" fill="#cfd8dc"/>
          <circle id="Ellipse_361" data-name="Ellipse 361" cx="4.433" cy="4.433" r="4.433" transform="translate(5.654 5.687)" fill="#cfd8dc"/>
          <circle id="Ellipse_362" data-name="Ellipse 362" cx="4.599" cy="4.599" r="4.599" transform="translate(10.628 23.652)" fill="#cfd8dc"/>
          <path id="Path_9994" data-name="Path 9994" d="M272.869,48.787a.657.657,0,0,1-.387-.367l-.1-.243-.763-1.841a.657.657,0,0,1,.014-.533l.969-2.039-1.369-1.369-2.039.969a.657.657,0,0,1-.533.014l-1.841-.763-.243-.1a.657.657,0,0,1-.368-.387L265.451,40h-1.936l-.757,2.127a.657.657,0,0,1-.367.387l-.243.1-1.841.763a.657.657,0,0,1-.533-.014l-1.822-.866-.777,1.634.64,1.544,2.289.814.031.014a5.913,5.913,0,1,1-1.534,4.622l-.787.28-.64,1.544,1.043,2.194a.657.657,0,0,1-.129.747l-1.437,1.437,1.187.491,2.194-1.043a.657.657,0,0,1,.747.129l2.024,2.024a.656.656,0,0,1,.177.6l.533,1.5h1.936l.346-.973v-1a1.969,1.969,0,0,1,3.341-1.415c.018.007.036.014.054.022l2.039.969,1.369-1.369-.969-2.039a.657.657,0,0,1-.014-.533c.309-.747.481-1.162.763-1.841l.1-.243a.657.657,0,0,1,.387-.368L275,51.48V49.544Z" transform="translate(-238.203 -38.029)" fill="#cfd8dc"/>
          <path id="Path_9995" data-name="Path 9995" d="M344.767,268.6h-2.854a.657.657,0,0,1-.657-.657v-3.285a.657.657,0,1,0-1.314,0v7.227a.657.657,0,0,1-1.122.465l-1.563-1.563a.737.737,0,0,0-1.042,1.042l3.534,3.534a.657.657,0,0,1,.192.465v1.314H345.2v-1.314a.657.657,0,0,1,.192-.465l1.539-1.539a3.06,3.06,0,0,0-2.163-5.223Z" transform="translate(-311.034 -243.633)" fill="#cfd8dc"/>
          <path id="Path_9996" data-name="Path 9996" d="M300.643,121.192a4.6,4.6,0,1,0-3.942-6.969v1.831a.657.657,0,0,1-.437.619l-.216.077A4.6,4.6,0,0,0,300.643,121.192Z" transform="translate(-274.363 -104.11)" fill="#cfd8dc"/>
          <path id="Path_9997" data-name="Path 9997" d="M368,444.6h7.884V440H368Zm5.256-3.285h1.314v1.314h-1.314Z" transform="translate(-340.406 -405.179)" fill="#cfd8dc"/>
        </g>
      </g>
    </g>
    <g id="Group_8475" data-name="Group 8475" transform="translate(3844.381 444.744)">
      <path id="Path_9810" data-name="Path 9810" d="M341.941,348.8c0,1.386-15.623,2.51-25.536,2.51s-10.358-1.124-10.358-2.51.446-2.51,10.358-2.51S341.941,347.416,341.941,348.8Z" transform="translate(-210.843 -174.869)" fill="#cfd8dc" opacity="0.52" style="mix-blend-mode: multiply;isolation: isolate"/>
      <path id="Path_9817" data-name="Path 9817" d="M231.032,191.993l70.287-.022a21.429,21.429,0,0,1,21.43,21.429h0v150.83l-.349-1.7a4.427,4.427,0,1,1-1.883-2.062V234.83A21.429,21.429,0,0,0,299.088,213.4l-68.056.022a10.715,10.715,0,0,1,0-21.43Z" transform="translate(-220.318 -191.971)" fill="#c0ca33"/>
      <text id="Custom_Software" data-name="Custom Software" transform="translate(46.217 13.051)" fill="#fff" font-size="10" font-family="Roboto-Bold, Roboto" font-weight="700"><tspan x="-38.875" y="0">Custom Software</tspan></text>
      <g id="content" transform="translate(57.424 34.683)">
        <g id="Browser-Tool-File-Pencil-Online" transform="translate(0 0)">
          <path id="Path_9998" data-name="Path 9998" d="M13,54h9.492v1.117H13Z" transform="translate(-7.975 -26.083)" fill="#cfd8dc"/>
          <path id="Path_9999" data-name="Path 9999" d="M13,50h9.492v1.117H13Z" transform="translate(-7.975 -24.316)" fill="#cfd8dc"/>
          <path id="Path_10000" data-name="Path 10000" d="M10,50h.558v3.35H10Z" transform="translate(-6.65 -24.316)" fill="#cfd8dc"/>
          <path id="Path_10001" data-name="Path 10001" d="M33.117,50.946,32,50.2v3.124l1.117-.744Z" transform="translate(-16.366 -24.405)" fill="#cfd8dc"/>
          <path id="Path_10002" data-name="Path 10002" d="M24.192,27.817a1.68,1.68,0,0,1-1.675-1.675V20H8v8.933H25.309a.558.558,0,0,1,.558.558v4.467a.558.558,0,0,1-.558.558H8v1.117H21.4a.576.576,0,0,1,.3.089l1.541,1.027h.871a1.734,1.734,0,0,1,1.72,1.34,1.675,1.675,0,0,1-1.642,2.01h-.949L21.7,41.128a.576.576,0,0,1-.3.089H8a1.125,1.125,0,0,0,1.117,1.117H33.125A1.68,1.68,0,0,0,34.8,40.659V27.817Zm-3.908,0H10.233V26.7h10.05Zm0-2.233H10.233V24.467h10.05Zm0-2.233H10.233V22.233h10.05ZM32.567,40.1H28.1V38.984h4.467Zm0-2.233H28.1V36.75h4.467Zm0-2.233H28.1V34.517h4.467Zm0-2.233H28.1V32.284h4.467Zm0-2.233H28.1V30.05h4.467Z" transform="translate(-5.767 -11.067)" fill="#cfd8dc"/>
          <path id="Path_10003" data-name="Path 10003" d="M9.675,12A1.68,1.68,0,0,0,8,13.675V15.35H22.517V12Zm1.675,2.233H10.233V13.117H11.35Zm2.233,0H12.467V13.117h1.117Zm2.233,0H14.7V13.117h1.117Z" transform="translate(-5.767 -7.533)" fill="#cfd8dc"/>
          <path id="Path_10004" data-name="Path 10004" d="M6.233,50H5.675a1.675,1.675,0,0,0,0,3.35h.558Z" transform="translate(-4 -24.316)" fill="#cfd8dc"/>
          <path id="Path_10005" data-name="Path 10005" d="M6.233,39.117H7.35V41.35H8.467V40.233H9.583V41.35H10.7V40.233h1.117V41.35h1.117V39.117H14.05V41.35h1.117V40.233h1.117V41.35H17.4V40.233h1.117V41.35h1.117V39.117H20.75V41.35h2.233V38H4v3.35H6.233Z" transform="translate(-4 -19.016)" fill="#cfd8dc"/>
          <path id="Path_10006" data-name="Path 10006" d="M47.725,7.35A1.68,1.68,0,0,1,46.05,5.675V4H36.558A.558.558,0,0,0,36,4.558V19.075a.558.558,0,0,0,.558.558H48.842a.558.558,0,0,0,.558-.558V7.35ZM38.233,6.233h5.583V7.35H38.233ZM47.167,17.4H38.233V16.284h8.933Zm0-2.233H38.233V14.05h8.933Zm0-2.233H38.233V11.817h8.933Zm0-2.233H38.233V9.583h8.933Z" transform="translate(-18.133 -4)" fill="#cfd8dc"/>
          <path id="Path_10007" data-name="Path 10007" d="M37.117,52.558A.558.558,0,0,0,36.558,52H36v1.117h.558A.558.558,0,0,0,37.117,52.558Z" transform="translate(-18.133 -25.2)" fill="#cfd8dc"/>
          <path id="Path_10008" data-name="Path 10008" d="M56.558,6.858h.886L56,5.414V6.3A.558.558,0,0,0,56.558,6.858Z" transform="translate(-26.966 -4.625)" fill="#cfd8dc"/>
        </g>
      </g>
    </g>
    <g id="Group_8473" data-name="Group 8473" transform="translate(3639.691 385.235)">
      <path id="Path_9813" data-name="Path 9813" d="M156.973,264c0,1.386-15.624,2.51-25.536,2.51s-10.358-1.124-10.358-2.51.446-2.509,10.358-2.509S156.973,262.616,156.973,264Z" transform="translate(-26.459 -89.215)" fill="#cfd8dc" opacity="0.52" style="mix-blend-mode: multiply;isolation: isolate"/>
      <path id="Path_9839" data-name="Path 9839" d="M46.52,106.171l69.692.365a21.429,21.429,0,0,1,21.429,21.43h0V280.15l-.349-3.054a4.427,4.427,0,1,1-1.883-2.062V149.4a21.429,21.429,0,0,0-21.429-21.429L46.52,127.6a10.715,10.715,0,0,1,0-21.43Z" transform="translate(-35.807 -106.171)" fill="#ab47bc"/>
      <text id="Innovations" transform="translate(47.588 14.188)" fill="#fff" font-size="10" font-family="Roboto-Bold, Roboto" font-weight="700"><tspan x="-26.233" y="0">Innovations</tspan></text>
      <g id="project-management" transform="translate(54.69 30.884)">
        <g id="Group_8131" data-name="Group 8131" transform="translate(26.093 17.447)">
          <g id="Group_8130" data-name="Group 8130">
            <path id="Path_10009" data-name="Path 10009" d="M354.993,233.586a.6.6,0,0,0-1.071.275l-.332,2.327a.585.585,0,0,1-.031.087,10.755,10.755,0,0,0,1.462-2.65Z" transform="translate(-353.559 -233.346)" fill="#cfd8dc"/>
          </g>
        </g>
        <g id="Group_8133" data-name="Group 8133" transform="translate(6.719 3.15)">
          <g id="Group_8132" data-name="Group 8132">
            <path id="Path_10010" data-name="Path 10010" d="M113.239,59.771a.662.662,0,0,1-.084-.005l-3.553-.508a.6.6,0,0,1-.507-.677h0l.332-2.327a.6.6,0,0,0-.95-.563L106.6,57.1a.6.6,0,0,1-.837-.12h0L103.6,54.11a.6.6,0,0,1,.12-.837l1.88-1.41a.6.6,0,0,0-.275-1.071L103,50.46a.6.6,0,0,1-.508-.676h0L103,46.23a.6.6,0,0,1,.676-.508h0l2.327.333a.6.6,0,0,0,.6-.288.586.586,0,0,0-.036-.664l-1.409-1.879a.6.6,0,0,1,.12-.837l.339-.254a10.969,10.969,0,0,0-1.647.044,10.766,10.766,0,0,0-4.583,19.765,3.43,3.43,0,0,1,1.622,2.873v2.417a1.794,1.794,0,0,0,1.794,1.794h4.785a1.794,1.794,0,0,0,1.794-1.794V64.864a3.524,3.524,0,0,1,1.657-2.944,10.838,10.838,0,0,0,2.5-2.237A.6.6,0,0,1,113.239,59.771Zm-7.443,7.46h-1.2V65.437h1.2Zm-1.2-2.991a3.819,3.819,0,0,0-2.452-3.565,8.374,8.374,0,0,1-1.412-14.885l.635,1.012a7.178,7.178,0,0,0,1.209,12.76,5,5,0,0,1,3.217,4.678Z" transform="translate(-94.426 -42.12)" fill="#cfd8dc"/>
          </g>
        </g>
        <g id="Group_8135" data-name="Group 8135" transform="translate(15.099 33.046)">
          <g id="Group_8134" data-name="Group 8134">
            <path id="Path_10011" data-name="Path 10011" d="M206.5,441.987v.6a1.2,1.2,0,0,0,1.2,1.2h2.393a1.2,1.2,0,0,0,1.2-1.2v-.6Z" transform="translate(-206.503 -441.987)" fill="#cfd8dc"/>
          </g>
        </g>
        <g id="Group_8137" data-name="Group 8137" transform="translate(0.585 15.497)">
          <g id="Group_8136" data-name="Group 8136" transform="translate(0)">
            <path id="Path_10012" data-name="Path 10012" d="M23.165,215.246a11.313,11.313,0,0,1-1.022-.747,3.581,3.581,0,1,1-3.617-5.2,11.392,11.392,0,0,1-.474-2.028l-.1.5a1.2,1.2,0,0,1-1.849.739l-1.244-.854-1.09,1.087.857,1.245a1.2,1.2,0,0,1-.739,1.849l-1.491.314v1.421l1.491.314a1.2,1.2,0,0,1,.738,1.85l-.856,1.239,1.09,1.087L16.1,217.2a1.2,1.2,0,0,1,1.849.739l.313,1.494h1.422L20,217.942a1.2,1.2,0,0,1,1.849-.739l1.242.854,1.283-1.283A2.92,2.92,0,0,0,23.165,215.246Z" transform="translate(-12.391 -207.267)" fill="#cfd8dc"/>
          </g>
        </g>
        <g id="Group_8139" data-name="Group 8139" transform="translate(15.099 30.654)">
          <g id="Group_8138" data-name="Group 8138">
            <rect id="Rectangle_456" data-name="Rectangle 456" width="4.785" height="1.196" fill="#cfd8dc"/>
          </g>
        </g>
        <g id="Group_8141" data-name="Group 8141" transform="translate(16.056 1.426)">
          <g id="Group_8140" data-name="Group 8140">
            <path id="Path_10013" data-name="Path 10013" d="M235.673,27.953a1.794,1.794,0,0,1-.822-3.212l1.4-1.052-1.436-1.914-1.4,1.051a1.794,1.794,0,0,1-2.854-1.687l.248-1.735-2.368-.338-.248,1.735a1.794,1.794,0,0,1-3.212.822l-1.051-1.4-1.914,1.436,1.051,1.4a1.794,1.794,0,0,1-1.69,2.853l-1.735-.248-.34,2.369,1.735.248a1.794,1.794,0,0,1,.822,3.212l-1.4,1.052,1.436,1.914,1.4-1.051a1.794,1.794,0,0,1,2.853,1.69L225.9,36.83l2.373.34.248-1.735a1.794,1.794,0,0,1,3.212-.822l1.051,1.4,1.914-1.436-1.055-1.4a1.794,1.794,0,0,1,1.687-2.853l1.735.248.338-2.368ZM228.356,31.7a3.589,3.589,0,1,1,3.589-3.589A3.589,3.589,0,0,1,228.356,31.7Z" transform="translate(-219.303 -19.067)" fill="#cfd8dc"/>
          </g>
        </g>
        <g id="Group_8143" data-name="Group 8143" transform="translate(28.856 22.28)">
          <g id="Group_8142" data-name="Group 8142">
            <rect id="Rectangle_457" data-name="Rectangle 457" width="4.187" height="1.196" fill="#cfd8dc"/>
          </g>
        </g>
        <g id="Group_8145" data-name="Group 8145" transform="translate(27.875 25.409)">
          <g id="Group_8144" data-name="Group 8144" transform="translate(0 0)">
            <rect id="Rectangle_458" data-name="Rectangle 458" width="1.196" height="4.671" transform="matrix(0.64, -0.768, 0.768, 0.64, 0, 0.919)" fill="#cfd8dc"/>
          </g>
        </g>
        <g id="Group_8147" data-name="Group 8147" transform="translate(25.267 27.065)">
          <g id="Group_8146" data-name="Group 8146">
            <rect id="Rectangle_459" data-name="Rectangle 459" width="1.196" height="4.187" fill="#cfd8dc"/>
          </g>
        </g>
        <g id="Group_8149" data-name="Group 8149" transform="translate(0 9.139)">
          <g id="Group_8148" data-name="Group 8148" transform="translate(0 0)">
            <rect id="Rectangle_460" data-name="Rectangle 460" width="4.932" height="1.196" transform="translate(0 1.196) rotate(-14.035)" fill="#cfd8dc"/>
          </g>
        </g>
        <g id="Group_8151" data-name="Group 8151" transform="translate(0.994 3.252)">
          <g id="Group_8150" data-name="Group 8150" transform="translate(0 0)">
            <rect id="Rectangle_461" data-name="Rectangle 461" width="1.196" height="5.145" transform="matrix(0.581, -0.814, 0.814, 0.581, 0, 0.973)" fill="#cfd8dc"/>
          </g>
        </g>
        <g id="Group_8153" data-name="Group 8153" transform="translate(6.118 0)">
          <g id="Group_8152" data-name="Group 8152" transform="translate(0)">
            <rect id="Rectangle_462" data-name="Rectangle 462" width="1.196" height="4.939" transform="matrix(0.969, -0.248, 0.248, 0.969, 0, 0.296)" fill="#cfd8dc"/>
          </g>
        </g>
      </g>
    </g>
    <g id="Group_8474" data-name="Group 8474" transform="translate(3795.691 332)">
      <path id="Path_9814" data-name="Path 9814" d="M190.259,200.94c0,1.386-15.624,2.509-25.536,2.509s-10.358-1.123-10.358-2.509.446-2.51,10.358-2.51S190.259,199.554,190.259,200.94Z" transform="translate(-153.19 -27.149)" fill="#cfd8dc" opacity="0.52" style="mix-blend-mode: multiply;isolation: isolate"/>
      <path id="Path_9829" data-name="Path 9829" d="M274.33,45.237l-99.536-1.128a21.429,21.429,0,0,0-21.429,21.429h0V216.02l.349-1.353A4.427,4.427,0,1,0,155.6,212.6V86.968a21.429,21.429,0,0,1,21.429-21.43l97.3,1.128a10.714,10.714,0,1,0,0-21.429Z" transform="translate(-153.365 -44.109)" fill="#ec407a"/>
      <text id="Time-Saving_Approach" data-name="Time-Saving Approach" transform="translate(64.122 14.263)" fill="#fff" font-size="10" font-family="Roboto-Bold, Roboto" font-weight="700"><tspan x="-51.384" y="0">Time-Saving Approach</tspan></text>
      <g id="save" transform="translate(19.634 30.017)">
        <path id="Path_10014" data-name="Path 10014" d="M167.335,43.758a8.292,8.292,0,1,0,8.292,8.292,8.292,8.292,0,0,0-8.292-8.292Zm3.486,9.7h-3.984a.66.66,0,0,1-.666-.658V47.568a.665.665,0,0,1,1.33,0v4.557h3.32a.665.665,0,0,1,0,1.33Zm0,0" transform="translate(-148.445 -40.845)" fill="#cfd8dc"/>
        <path id="Path_10015" data-name="Path 10015" d="M137.694,11.2a11.2,11.2,0,1,0-11.2,11.2A11.217,11.217,0,0,0,137.694,11.2Zm-11.2,9.622a9.622,9.622,0,1,1,9.622-9.622A9.622,9.622,0,0,1,126.489,20.827Zm0,0" transform="translate(-107.599)" fill="#cfd8dc"/>
        <path id="Path_10016" data-name="Path 10016" d="M399.409,160.7c0,.006,0,.012,0,.018l.123,5.046a3.747,3.747,0,0,1,.656.24.665.665,0,0,1,.315.886l-2.943,6.18a.665.665,0,1,1-1.2-.572l2.618-5.5a2.435,2.435,0,0,0-2.6,1.352l-1.79,3.76a5.652,5.652,0,0,1-1.557,1.966l-.372.3a6.236,6.236,0,0,0-2.265,5.886l5.142,2.449-.04-.532a3.27,3.27,0,0,1,.744-2.338l4.67-5.651a6.439,6.439,0,0,0,1.191-3.768l-1.791-11.293a1.669,1.669,0,0,0-.9,1.569Zm0,0" transform="translate(-364.319 -148.541)" fill="#cfd8dc"/>
        <path id="Path_10017" data-name="Path 10017" d="M338.988,486.632l1.392-2.922,7.846,3.737-1.392,2.922Zm0,0" transform="translate(-316.413 -451.516)" fill="#cfd8dc"/>
        <path id="Path_10018" data-name="Path 10018" d="M6.412,182.187l-.04.532,5.142-2.449a6.236,6.236,0,0,0-2.265-5.886l-.372-.3a5.651,5.651,0,0,1-1.557-1.967L5.53,168.36a2.436,2.436,0,0,0-2.6-1.352l2.618,5.5a.665.665,0,1,1-1.2.572L1.4,166.9a.665.665,0,0,1,.315-.887,3.746,3.746,0,0,1,.656-.24l.123-5.047c0-.005,0-.011,0-.017a1.668,1.668,0,0,0-.9-1.569l-1.79,11.293A6.439,6.439,0,0,0,1,174.2l4.67,5.651a3.27,3.27,0,0,1,.744,2.338Zm0,0" transform="translate(0.193 -148.545)" fill="#cfd8dc"/>
        <path id="Path_10019" data-name="Path 10019" d="M89.484,487.448l7.846-3.737,1.391,2.922-7.846,3.737Zm0,0" transform="translate(-83.516 -451.517)" fill="#cfd8dc"/>
      </g>
    </g>
    <g id="Group_8476" data-name="Group 8476" transform="translate(4032.281 518.902)">
      <path id="Path_9811" data-name="Path 9811" d="M411.842,438.034c0,1.386-15.623,2.51-25.536,2.51s-10.358-1.124-10.358-2.51.446-2.509,10.358-2.509S411.842,436.648,411.842,438.034Z" transform="translate(-373.463 -263.959)" fill="#cfd8dc" opacity="0.52" style="mix-blend-mode: multiply;isolation: isolate"/>
      <path id="Path_9823" data-name="Path 9823" d="M473.051,281.225l-77.909-.022a21.429,21.429,0,0,0-21.429,21.43h0v150.83l.349-1.7a4.427,4.427,0,1,0,1.883-2.062V324.062a21.429,21.429,0,0,1,21.429-21.429l75.676.022a10.715,10.715,0,0,0,0-21.43Z" transform="translate(-373.713 -281.203)" fill="#00acc1"/>
      <text id="Work_accelerations" data-name="Work accelerations" transform="translate(60.491 14.553)" fill="#fff" font-size="10" font-family="Roboto-Bold, Roboto" font-weight="700"><tspan x="-43.135" y="0">Work accelerations</tspan></text>
      <g id="speed" transform="translate(16.536 29.104)">
        <path id="Path_10020" data-name="Path 10020" d="M28.652,13.23a5.6,5.6,0,0,1,1.112-3.051L23,3.414V4.576A7.2,7.2,0,0,0,25.122,9.7Z" transform="translate(-13.34 -3.414)" fill="#cfd8dc"/>
        <path id="Path_10021" data-name="Path 10021" d="M25,13.414v1.162a7.194,7.194,0,0,0,.184,1.575l.443.443a8.835,8.835,0,0,1,2.079,3.338,8.766,8.766,0,0,1,2.6-.411h.421a5.649,5.649,0,0,1-1.072-1.454Z" transform="translate(-13.73 -5.364)" fill="#cfd8dc"/>
        <path id="Path_10022" data-name="Path 10022" d="M14.22,21.515v1.162A7.2,7.2,0,0,0,16.342,27.8l.142.142,3.549-5.767a8.855,8.855,0,0,1,3.453-3.19,7.237,7.237,0,0,0-1.727-2.812L11,5.414V6.576A7.2,7.2,0,0,0,13.122,11.7l6.5,6.5-1.138,1.138-5.871-5.87v1.162a7.2,7.2,0,0,0,2.122,5.123L17.2,22.221,16.066,23.36Z" transform="translate(-11 -3.804)" fill="#cfd8dc"/>
        <circle id="Ellipse_363" data-name="Ellipse 363" cx="4.025" cy="4.025" r="4.025" transform="translate(16.906 6.107)" fill="#cfd8dc"/>
        <path id="Path_10023" data-name="Path 10023" d="M19.419,39h-3.8l.033.065a5.708,5.708,0,0,0,10.21,0L25.894,39H19.419Z" transform="translate(-11.901 -10.352)" fill="#cfd8dc"/>
        <path id="Path_10024" data-name="Path 10024" d="M45.2,13a1.172,1.172,0,0,0-1.071.646l-2.59,5.18a4.005,4.005,0,0,1-3.6,2.224H29.135A7.3,7.3,0,0,0,22.964,24.5l-3.8,6.181a1.077,1.077,0,0,0,.918,1.641h.305a1.071,1.071,0,0,0,.909-.5L25.507,25.2a3.721,3.721,0,0,1,3.154-1.732h.976l-1.714,8.855h.738v11.27H26.023l-1.336,5.516a1.862,1.862,0,0,0-.052.438v.235a1.861,1.861,0,0,0,3.683.383l2.909-13.818h1.7l2.26,1.506a1.607,1.607,0,0,1,.717,1.34v7.62a1.61,1.61,0,1,0,3.22,0V37.2a2.419,2.419,0,0,0-1.012-1.965l-4.721-3.371,1.867-8.4h3.607A4.805,4.805,0,0,0,43.186,20.8l3.062-6.107a1.185,1.185,0,0,0,.123-.524A1.168,1.168,0,0,0,45.2,13Z" transform="translate(-12.56 -5.283)" fill="#cfd8dc"/>
        <path id="Path_10025" data-name="Path 10025" d="M26.271,41.683a7.281,7.281,0,0,1-11.27,0v5.89h11.27Z" transform="translate(-11.78 -10.875)" fill="#cfd8dc"/>
      </g>
    </g>
  </g>
</svg>
