<svg xmlns="http://www.w3.org/2000/svg" width="693.545" height="443.902" viewBox="0 0 693.545 443.902">
  <g id="sem" transform="translate(-159 -188.848)">
    <g id="Group_9312" data-name="Group 9312" transform="translate(653.683 496.41)" opacity="0.4">
      <g id="Group_9311" data-name="Group 9311">
        <path id="Path_12967" data-name="Path 12967" d="M2154.66,1426.787l-2.368-1.316a4.653,4.653,0,0,1-2.4-4.136c0-.193.009-.386.009-.579s0-.386-.009-.579a4.653,4.653,0,0,1,2.4-4.136l2.368-1.316a4.677,4.677,0,0,0,2.246-5.289c-.009-.022-.013-.048-.022-.07a4.668,4.668,0,0,0-4.583-3.456l-2.715.044a4.7,4.7,0,0,1-4.171-2.434c-.171-.3-.342-.6-.513-.89a4.7,4.7,0,0,1-.031-4.842l1.39-2.311a4.67,4.67,0,0,0-.7-5.7l-.057-.057a4.67,4.67,0,0,0-5.7-.7l-2.311,1.39a4.7,4.7,0,0,1-4.842-.031c-.294-.171-.592-.342-.89-.513a4.7,4.7,0,0,1-2.434-4.171l.044-2.715a4.668,4.668,0,0,0-3.456-4.583c-.022-.009-.048-.013-.07-.022a4.676,4.676,0,0,0-5.289,2.245l-1.316,2.368a4.653,4.653,0,0,1-4.135,2.4c-.193,0-.386-.009-.579-.009s-.386,0-.579.009a4.653,4.653,0,0,1-4.135-2.4l-1.316-2.368a4.676,4.676,0,0,0-5.289-2.245c-.022.009-.048.013-.07.022a4.668,4.668,0,0,0-3.456,4.583l.044,2.715a4.7,4.7,0,0,1-2.434,4.171c-.3.171-.6.342-.89.513a4.7,4.7,0,0,1-4.842.031l-2.311-1.39a4.67,4.67,0,0,0-5.7.7l-.057.057a4.67,4.67,0,0,0-.7,5.7l1.39,2.311a4.7,4.7,0,0,1-.031,4.842c-.171.294-.342.592-.513.89a4.7,4.7,0,0,1-4.171,2.434l-2.715-.044a4.668,4.668,0,0,0-4.583,3.456c-.009.022-.013.048-.022.07a4.676,4.676,0,0,0,2.245,5.289l2.368,1.316a4.653,4.653,0,0,1,2.4,4.136c0,.193-.009.386-.009.579s0,.386.009.579a4.653,4.653,0,0,1-2.4,4.136l-2.368,1.316a4.676,4.676,0,0,0-2.245,5.289c.009.022.013.048.022.07a4.668,4.668,0,0,0,4.583,3.456l2.715-.044a4.7,4.7,0,0,1,4.171,2.434c.171.3.342.6.513.89a4.7,4.7,0,0,1,.031,4.842l-1.39,2.311a4.671,4.671,0,0,0,.7,5.7l.057.057a4.67,4.67,0,0,0,5.7.7l2.311-1.39a4.7,4.7,0,0,1,4.842.031c.294.171.592.342.89.513a4.7,4.7,0,0,1,2.434,4.171l-.044,2.715a4.668,4.668,0,0,0,3.456,4.583c.022.009.048.013.07.022a4.676,4.676,0,0,0,5.289-2.245l1.316-2.368a4.654,4.654,0,0,1,4.135-2.4c.193,0,.386.009.579.009s.386,0,.579-.009a4.654,4.654,0,0,1,4.135,2.4l1.316,2.368a4.676,4.676,0,0,0,5.289,2.245c.022-.009.048-.013.07-.022a4.668,4.668,0,0,0,3.456-4.583l-.044-2.715a4.7,4.7,0,0,1,2.434-4.171c.3-.171.6-.342.89-.513a4.7,4.7,0,0,1,4.842-.031l2.311,1.39a4.67,4.67,0,0,0,5.7-.7l.057-.057a4.671,4.671,0,0,0,.7-5.7l-1.39-2.311a4.7,4.7,0,0,1,.031-4.842c.171-.294.342-.592.513-.89a4.7,4.7,0,0,1,4.171-2.434l2.715.044a4.669,4.669,0,0,0,4.583-3.456c.009-.022.013-.048.022-.07A4.677,4.677,0,0,0,2154.66,1426.787Zm-40.137,20.283a26.314,26.314,0,1,1,26.314-26.314A26.312,26.312,0,0,1,2114.522,1447.07Z" transform="translate(-2071.983 -1378.217)" fill="#f4d7c9"/>
        <circle id="Ellipse_502" data-name="Ellipse 502" cx="11.878" cy="11.878" r="11.878" transform="translate(27.021 36.331) rotate(-22.5)" fill="#f4d7c9"/>
      </g>
    </g>
    <g id="Group_9314" data-name="Group 9314" transform="translate(741.157 589.525)">
      <path id="Path_12968" data-name="Path 12968" d="M2410.253,1773.8s8.285-24.3,34.521-15.465c0,0,6.628-20.713,24.855-20.022s24.027,17.735,24.027,17.735,24.487-2.96,27.985,17.752Z" transform="translate(-2410.253 -1738.299)" fill="#adccc7"/>
      <g id="Group_9313" data-name="Group 9313" transform="translate(42.767 9.278)">
        <path id="Path_12969" data-name="Path 12969" d="M2602.253,1800.279l-1.037-.167c2.355-14.619-6.711-25.137-6.8-25.242l.789-.694C2595.3,1774.284,2604.689,1785.157,2602.253,1800.279Z" transform="translate(-2589.558 -1774.176)" fill="#6eab9c"/>
        <path id="Path_12970" data-name="Path 12970" d="M2623.528,1791.989l-.8-.676c.083-.1,8.385-10.028,9.8-16.245l1.025.233C2632.076,1781.766,2623.876,1791.575,2623.528,1791.989Z" transform="translate(-2610.548 -1774.837)" fill="#6eab9c"/>
        <path id="Path_12971" data-name="Path 12971" d="M2588.175,1837.744c-6.522-.355-12.3-7.073-12.538-7.358l.8-.68c.057.067,5.727,6.659,11.795,6.99Z" transform="translate(-2575.637 -1815.346)" fill="#6eab9c"/>
      </g>
      <path id="Path_12972" data-name="Path 12972" d="M2701.548,1845.858l-.686-.795c.47-.406,11.584-9.952,17.379-10.114l.029,1.05C2712.845,1836.151,2701.661,1845.761,2701.548,1845.858Z" transform="translate(-2625.713 -1809.957)" fill="#6eab9c"/>
      <path id="Path_12973" data-name="Path 12973" d="M2741.067,1860.205a100.122,100.122,0,0,1-16.1-2.391l.262-1.017a98.95,98.95,0,0,0,15.9,2.361Z" transform="translate(-2643.584 -1826.154)" fill="#6eab9c"/>
      <path id="Path_12974" data-name="Path 12974" d="M2479.886,1847.023c-5.831-4.849-18.14-8.724-18.264-8.763l.313-1c.513.161,12.633,3.978,18.622,8.958Z" transform="translate(-2448.338 -1811.668)" fill="#6eab9c"/>
      <path id="Path_12975" data-name="Path 12975" d="M2511.1,1828.9" transform="translate(-2485.022 -1805.468)" fill="none" stroke="#6eab9c" stroke-miterlimit="10" stroke-width="2"/>
      <path id="Path_12976" data-name="Path 12976" d="M2506.345,1833.5l-1.05-.031a18.781,18.781,0,0,0-2.015-8.8l.915-.516A19.5,19.5,0,0,1,2506.345,1833.5Z" transform="translate(-2479.224 -1801.955)" fill="#6eab9c"/>
    </g>
    <g id="Group_9315" data-name="Group 9315" transform="translate(458.925 594.799)">
      <path id="Path_12977" data-name="Path 12977" d="M1380.043,1815.219l.782-2.838a31.412,31.412,0,0,0-4.605-26.817l-1.233.979a30.377,30.377,0,0,1,4.871,23.076c-2.135-4.208-8.393-12.658-24.428-13.459l-.079,1.573c20.189,1.01,23.917,14.5,23.952,14.636Z" transform="translate(-1345.91 -1778.617)" fill="#f2baab"/>
      <circle id="Ellipse_503" data-name="Ellipse 503" cx="3.735" cy="3.735" r="3.735" transform="translate(0 18.593) rotate(-45)" fill="#f2baab"/>
      <circle id="Ellipse_504" data-name="Ellipse 504" cx="3.735" cy="3.735" r="3.735" transform="translate(42.428 18.593) rotate(-45)" fill="#f2baab"/>
      <circle id="Ellipse_505" data-name="Ellipse 505" cx="3.735" cy="3.735" r="3.735" transform="translate(23.87 1.716) rotate(-13.282)" fill="#f2baab"/>
      <path id="Path_12978" data-name="Path 12978" d="M1449.5,1848.384c1.827-6.977,10.276-12.892,10.362-12.951l-.9-1.3c-.367.254-9.013,6.3-10.989,13.848Z" transform="translate(-1414.584 -1814.63)" fill="#f2baab"/>
    </g>
    <g id="Group_9316" data-name="Group 9316" transform="translate(389.133 555.622)">
      <path id="Path_12979" data-name="Path 12979" d="M1052.176,1641.1c7.1-10.473,15.045-17.618,27.509-25.308s27.459-6.025,33.909-8.229,5.7,5.841,2.937,13.165-.931,42.694-36.955,49.781S1046.934,1648.836,1052.176,1641.1Z" transform="translate(-1048.943 -1607.195)" fill="#f2d6c8"/>
      <path id="Path_12980" data-name="Path 12980" d="M1137,1702.971a.525.525,0,0,1-.509-.654c2.979-11.775-1.618-24.313-1.665-24.439a.525.525,0,0,1,.983-.368c.048.128,4.76,12.964,1.7,25.063A.525.525,0,0,1,1137,1702.971Z" transform="translate(-1112.59 -1659.075)" fill="#f5b89b"/>
      <path id="Path_12981" data-name="Path 12981" d="M1140.855,1773.4a.525.525,0,0,1-.19-1.014c11.279-4.382,28.82-.443,29.561-.274a.525.525,0,1,1-.234,1.023c-.178-.041-17.97-4.035-28.946.229A.517.517,0,0,1,1140.855,1773.4Z" transform="translate(-1116.698 -1728.139)" fill="#f5b89b"/>
      <path id="Path_12982" data-name="Path 12982" d="M1123.884,1676.3a.532.532,0,0,1-.18-.032.525.525,0,0,1-.312-.674c11.1-30.348,43.5-48.97,43.829-49.154a.525.525,0,1,1,.518.914c-.323.183-32.392,18.622-43.36,48.6A.525.525,0,0,1,1123.884,1676.3Z" transform="translate(-1104.115 -1621.414)" fill="#f5b89b"/>
      <path id="Path_12983" data-name="Path 12983" d="M1190.636,1703.311a.525.525,0,0,1-.28-.969c7.732-4.863,23.793-1.619,24.474-1.48a.525.525,0,1,1-.212,1.028c-.163-.034-16.329-3.3-23.7,1.34A.526.526,0,0,1,1190.636,1703.311Z" transform="translate(-1153.605 -1675.759)" fill="#f5b89b"/>
      <path id="Path_12984" data-name="Path 12984" d="M1214.625,1647.726a.525.525,0,0,1-.457-.782c2.549-4.543,2.4-13.18,2.4-13.267a.526.526,0,0,1,.514-.536h.011a.525.525,0,0,1,.525.514c.008.366.156,9.008-2.534,13.8A.525.525,0,0,1,1214.625,1647.726Z" transform="translate(-1171.392 -1626.432)" fill="#f5b89b"/>
    </g>
    <path id="Path_12985" data-name="Path 12985" d="M657.316,1739.488s.787-20.251,17.324-29.116,28.3,2.907,28.3,2.907,8.789-25.268,33.553-24.426,26.513,21.519,26.513,21.519,28.2-7.951,43.916,7.379c16.045,15.653,12.822,22.787,12.822,22.787Z" transform="translate(-369.455 -1112.099)" fill="#adccc7"/>
    <g id="Group_9317" data-name="Group 9317" transform="translate(302.185 611.081)">
      <path id="Path_12986" data-name="Path 12986" d="M755.811,1835.552c-.1-.088-10.514-8.829-22.126-12.9l.348-.99c11.8,4.138,22.351,13,22.456,13.091Z" transform="translate(-728.261 -1821.659)" fill="#6eab9c"/>
      <path id="Path_12987" data-name="Path 12987" d="M713.19,1853.749l-.48-.934c.305-.157,7.637-3.828,21.129-1.952l-.145,1.04C720.528,1850.072,713.263,1853.712,713.19,1853.749Z" transform="translate(-712.71 -1842.916)" fill="#6eab9c"/>
    </g>
    <path id="Path_12988" data-name="Path 12988" d="M1547.021,1415.2l-1.382-.768a2.715,2.715,0,0,1-1.4-2.414c0-.113.005-.225.005-.338s0-.225-.005-.338a2.716,2.716,0,0,1,1.4-2.414l1.382-.768a2.729,2.729,0,0,0,1.311-3.087c-.005-.013-.008-.028-.013-.041a2.725,2.725,0,0,0-2.675-2.017l-1.585.026a2.742,2.742,0,0,1-2.435-1.421c-.1-.174-.2-.348-.3-.52a2.745,2.745,0,0,1-.018-2.826l.811-1.349a2.726,2.726,0,0,0-.41-3.328l-.033-.033a2.726,2.726,0,0,0-3.328-.41l-1.349.812a2.745,2.745,0,0,1-2.826-.018l-.52-.3a2.74,2.74,0,0,1-1.421-2.434l.026-1.585a2.725,2.725,0,0,0-2.017-2.675c-.013-.005-.028-.008-.041-.013a2.73,2.73,0,0,0-3.087,1.311l-.768,1.382a2.716,2.716,0,0,1-2.414,1.4c-.113,0-.225-.005-.338-.005s-.225,0-.338.005a2.717,2.717,0,0,1-2.414-1.4l-.768-1.382a2.73,2.73,0,0,0-3.087-1.311c-.013.005-.028.008-.041.013a2.725,2.725,0,0,0-2.017,2.675l.026,1.585a2.741,2.741,0,0,1-1.421,2.434c-.174.1-.348.2-.52.3a2.745,2.745,0,0,1-2.826.018l-1.349-.812a2.726,2.726,0,0,0-3.328.41l-.033.033a2.726,2.726,0,0,0-.41,3.328l.811,1.349a2.745,2.745,0,0,1-.018,2.826c-.1.171-.2.345-.3.52a2.741,2.741,0,0,1-2.434,1.421l-1.585-.026a2.725,2.725,0,0,0-2.675,2.017c-.005.013-.008.028-.013.041a2.729,2.729,0,0,0,1.311,3.087l1.382.768a2.717,2.717,0,0,1,1.4,2.414c0,.113-.005.225-.005.338s0,.225.005.338a2.717,2.717,0,0,1-1.4,2.414l-1.382.768a2.729,2.729,0,0,0-1.311,3.087c0,.013.007.028.013.041a2.725,2.725,0,0,0,2.675,2.017l1.585-.026a2.741,2.741,0,0,1,2.434,1.421c.1.174.2.348.3.52a2.745,2.745,0,0,1,.018,2.826l-.811,1.349a2.726,2.726,0,0,0,.41,3.328l.033.033a2.726,2.726,0,0,0,3.328.409l1.349-.811a2.745,2.745,0,0,1,2.826.018c.172.1.346.2.52.3a2.741,2.741,0,0,1,1.421,2.434l-.026,1.585a2.725,2.725,0,0,0,2.017,2.675c.013.005.028.008.041.013a2.73,2.73,0,0,0,3.087-1.311l.768-1.382a2.717,2.717,0,0,1,2.414-1.4c.112,0,.225.005.338.005s.225,0,.338-.005a2.716,2.716,0,0,1,2.414,1.4l.768,1.382a2.73,2.73,0,0,0,3.087,1.311c.013-.005.028-.008.041-.013a2.725,2.725,0,0,0,2.017-2.675l-.026-1.585a2.74,2.74,0,0,1,1.421-2.434l.52-.3a2.745,2.745,0,0,1,2.826-.018l1.349.811a2.726,2.726,0,0,0,3.328-.409l.033-.033a2.726,2.726,0,0,0,.41-3.328l-.811-1.349a2.745,2.745,0,0,1,.018-2.826c.1-.172.2-.346.3-.52a2.742,2.742,0,0,1,2.435-1.421l1.585.026a2.725,2.725,0,0,0,2.675-2.017c0-.013.007-.028.013-.041A2.729,2.729,0,0,0,1547.021,1415.2Zm-23.429,11.84a15.36,15.36,0,1,1,15.36-15.36A15.359,15.359,0,0,1,1523.592,1427.036Z" transform="translate(-993.309 -888.204)" fill="#f4d7c9" opacity="0.4"/>
    <path id="Path_12989" data-name="Path 12989" d="M1353.7,224.888h148.386s-8.78-17.243-29.04-8.621c0,0-11.031-19.811-33.543-8.1,0,0-8.667-22.062-32.981-19.027-23.325,2.911-27.689,23.3-27.689,23.3S1356.149,211.448,1353.7,224.888Z" transform="translate(-885.763)" fill="#edf6f5"/>
    <path id="Path_12990" data-name="Path 12990" d="M358.13,970.35H280.257s5.356-11.949,17.717-7c0,0,4.532-12.361,15.245-10.919s12.773,8.9,12.773,8.9,11.537-4.577,22.661,4.694C348.653,966.023,357.718,964.993,358.13,970.35Z" transform="translate(-89.901 -566.036)" fill="#edf6f5"/>
    <path id="Path_12991" data-name="Path 12991" d="M944.629,352.841h93.487s-7.724-14.673-27.7-9.262c0,0-5.061-15.363-23.172-15.363a26.821,26.821,0,0,0-24.5,15.363S946.227,342.841,944.629,352.841Z" transform="translate(-582.471 -103.328)" fill="#edf6f5"/>
    <path id="Path_12992" data-name="Path 12992" d="M1135.776,859.782,778.8,866.371l-8.385-6.589V651.345h365.364l8.385,6.589Z" transform="translate(-453.305 -342.898)" fill="#b6d5d0"/>
    <path id="Path_12993" data-name="Path 12993" d="M1135.776,517.88,778.8,524.468l-8.385-6.589V491.526h365.364l8.385,6.589Z" transform="translate(-453.305 -224.407)" fill="#b6d5d0"/>
    <rect id="Rectangle_845" data-name="Rectangle 845" width="365.364" height="208.437" transform="translate(325.492 315.035)" fill="#dceceb"/>
    <rect id="Rectangle_846" data-name="Rectangle 846" width="99.086" height="51.006" transform="translate(339.12 336.193)" fill="#b2e5e0"/>
    <g id="Group_9318" data-name="Group 9318" transform="translate(549.476 461.806)">
      <rect id="Rectangle_847" data-name="Rectangle 847" width="103.814" height="4.143" transform="translate(119.913 5.445) rotate(180)" fill="#fff"/>
      <rect id="Rectangle_848" data-name="Rectangle 848" width="103.814" height="4.143" transform="translate(119.913 21.899) rotate(180)" fill="#fff"/>
      <rect id="Rectangle_849" data-name="Rectangle 849" width="103.814" height="4.143" transform="translate(119.913 38.537) rotate(180)" fill="#fff"/>
      <path id="Path_12994" data-name="Path 12994" d="M1672.617,1251.147h-.237a3.374,3.374,0,0,1-3.374-3.374h0a3.374,3.374,0,0,1,3.374-3.374h.237a3.373,3.373,0,0,1,3.374,3.374h0A3.373,3.373,0,0,1,1672.617,1251.147Z" transform="translate(-1669.007 -1244.4)" fill="#fff"/>
      <path id="Path_12995" data-name="Path 12995" d="M1672.617,1314.776h-.237a3.374,3.374,0,0,1-3.374-3.374h0a3.374,3.374,0,0,1,3.374-3.374h.237a3.374,3.374,0,0,1,3.374,3.374h0A3.373,3.373,0,0,1,1672.617,1314.776Z" transform="translate(-1669.007 -1291.575)" fill="#fff"/>
      <rect id="Rectangle_850" data-name="Rectangle 850" width="6.984" height="6.747" rx="3.374" transform="translate(6.984 39.892) rotate(180)" fill="#fff"/>
    </g>
    <g id="Group_9319" data-name="Group 9319" transform="translate(338.842 401.076)">
      <rect id="Rectangle_851" data-name="Rectangle 851" width="103.814" height="4.143" transform="translate(119.913 5.445) rotate(180)" fill="#fff"/>
      <rect id="Rectangle_852" data-name="Rectangle 852" width="103.814" height="4.143" transform="translate(119.913 21.899) rotate(180)" fill="#fff"/>
      <path id="Path_12996" data-name="Path 12996" d="M858.074,1016.3h-.237a3.374,3.374,0,0,1-3.374-3.374h0a3.374,3.374,0,0,1,3.374-3.374h.237a3.374,3.374,0,0,1,3.374,3.374h0A3.374,3.374,0,0,1,858.074,1016.3Z" transform="translate(-854.464 -1009.551)" fill="#fff"/>
      <path id="Path_12997" data-name="Path 12997" d="M858.074,1079.927h-.237a3.374,3.374,0,0,1-3.374-3.374h0a3.374,3.374,0,0,1,3.374-3.374h.237a3.374,3.374,0,0,1,3.374,3.374h0A3.374,3.374,0,0,1,858.074,1079.927Z" transform="translate(-854.464 -1056.726)" fill="#fff"/>
    </g>
    <rect id="Rectangle_853" data-name="Rectangle 853" width="365.364" height="26.354" transform="translate(325.492 273.707)" fill="#c6e0dd"/>
    <g id="Group_9325" data-name="Group 9325" transform="translate(340.067 283.091)">
      <g id="Group_9324" data-name="Group 9324" transform="translate(0 0)">
        <g id="Group_9321" data-name="Group 9321" transform="translate(31.146 0)">
          <g id="Group_9320" data-name="Group 9320">
            <circle id="Ellipse_506" data-name="Ellipse 506" cx="3.793" cy="3.793" r="3.793" fill="#67b4d2"/>
          </g>
        </g>
        <g id="Group_9322" data-name="Group 9322" transform="translate(15.573 0)">
          <circle id="Ellipse_507" data-name="Ellipse 507" cx="3.793" cy="3.793" r="3.793" fill="#eb908b"/>
        </g>
        <g id="Group_9323" data-name="Group 9323">
          <circle id="Ellipse_508" data-name="Ellipse 508" cx="3.793" cy="3.793" r="3.793" fill="#ffaa3f"/>
        </g>
      </g>
    </g>
    <g id="Group_9344" data-name="Group 9344" transform="translate(532.311 336.449)">
      <rect id="Rectangle_854" data-name="Rectangle 854" width="174.353" height="103.593" rx="24.343" fill="#b2e5e0"/>
      <rect id="Rectangle_855" data-name="Rectangle 855" width="174.353" height="103.593" rx="24.343" transform="translate(5.374 4.91)" fill="#3fb8a9"/>
      <g id="Group_9332" data-name="Group 9332" transform="translate(18.925 19.864)">
        <g id="Group_9326" data-name="Group 9326" transform="translate(53.364)">
          <rect id="Rectangle_856" data-name="Rectangle 856" width="4.832" height="74.14" fill="#fff"/>
        </g>
        <g id="Group_9327" data-name="Group 9327" transform="translate(42.691)">
          <rect id="Rectangle_857" data-name="Rectangle 857" width="4.832" height="74.14" fill="#fff"/>
        </g>
        <g id="Group_9328" data-name="Group 9328" transform="translate(32.018)">
          <rect id="Rectangle_858" data-name="Rectangle 858" width="4.832" height="74.14" fill="#fff"/>
        </g>
        <g id="Group_9329" data-name="Group 9329" transform="translate(21.346)">
          <rect id="Rectangle_859" data-name="Rectangle 859" width="4.832" height="74.14" fill="#fff"/>
        </g>
        <g id="Group_9330" data-name="Group 9330" transform="translate(10.673)">
          <rect id="Rectangle_860" data-name="Rectangle 860" width="4.832" height="74.14" fill="#fff"/>
        </g>
        <g id="Group_9331" data-name="Group 9331">
          <rect id="Rectangle_861" data-name="Rectangle 861" width="4.832" height="74.14" fill="#fff"/>
        </g>
      </g>
      <g id="Group_9333" data-name="Group 9333" transform="translate(72.289 70.784)">
        <rect id="Rectangle_862" data-name="Rectangle 862" width="4.832" height="23.22" fill="#c6e0dd"/>
      </g>
      <g id="Group_9334" data-name="Group 9334" transform="translate(61.617 45.822)">
        <rect id="Rectangle_863" data-name="Rectangle 863" width="4.832" height="48.182" fill="#c6e0dd"/>
      </g>
      <g id="Group_9336" data-name="Group 9336" transform="translate(50.944 33.341)">
        <g id="Group_9335" data-name="Group 9335">
          <rect id="Rectangle_864" data-name="Rectangle 864" width="4.832" height="60.663" fill="#c6e0dd"/>
        </g>
      </g>
      <g id="Group_9338" data-name="Group 9338" transform="translate(40.271 51.797)">
        <g id="Group_9337" data-name="Group 9337">
          <rect id="Rectangle_865" data-name="Rectangle 865" width="4.832" height="42.207" fill="#c6e0dd"/>
        </g>
      </g>
      <g id="Group_9339" data-name="Group 9339" transform="translate(29.598 63.813)">
        <rect id="Rectangle_866" data-name="Rectangle 866" width="4.832" height="30.191" fill="#c6e0dd"/>
      </g>
      <g id="Group_9341" data-name="Group 9341" transform="translate(18.925 73.307)">
        <g id="Group_9340" data-name="Group 9340">
          <rect id="Rectangle_867" data-name="Rectangle 867" width="4.832" height="20.697" fill="#c6e0dd"/>
        </g>
      </g>
      <circle id="Ellipse_509" data-name="Ellipse 509" cx="9.3" cy="9.3" r="9.3" transform="translate(92.411 29.164) rotate(-45)" fill="#fff"/>
      <g id="Group_9342" data-name="Group 9342" transform="translate(124.007 20.096)">
        <rect id="Rectangle_868" data-name="Rectangle 868" width="41.299" height="2.668" fill="#fff"/>
        <rect id="Rectangle_869" data-name="Rectangle 869" width="41.299" height="2.668" transform="translate(0 7.889)" fill="#fff"/>
        <rect id="Rectangle_870" data-name="Rectangle 870" width="22.854" height="2.668" transform="translate(0 15.7)" fill="#fff"/>
      </g>
      <circle id="Ellipse_510" data-name="Ellipse 510" cx="9.3" cy="9.3" r="9.3" transform="translate(96.263 53.748)" fill="#fff"/>
      <g id="Group_9343" data-name="Group 9343" transform="translate(124.007 53.98)">
        <rect id="Rectangle_871" data-name="Rectangle 871" width="41.299" height="2.668" fill="#fff"/>
        <rect id="Rectangle_872" data-name="Rectangle 872" width="41.299" height="2.668" transform="translate(0 7.889)" fill="#fff"/>
        <rect id="Rectangle_873" data-name="Rectangle 873" width="22.854" height="2.668" transform="translate(0 15.7)" fill="#fff"/>
      </g>
    </g>
    <rect id="Rectangle_874" data-name="Rectangle 874" width="645.726" height="7.875" transform="translate(206.819 624.876)" fill="#aecbc7"/>
    <g id="Group_9345" data-name="Group 9345" transform="translate(512.876 370.469)">
      <path id="Path_12998" data-name="Path 12998" d="M1543.722,1010.448s-9.625-11.813-14.7-13.3,3.938,6.3,3.587,7.7-5.425,5.775-2.275,9.275,8.925,4.025,8.925,4.025Z" transform="translate(-1527.469 -969.609)" fill="#ffac95"/>
      <path id="Path_12999" data-name="Path 12999" d="M1824.26,1005.219h-14.874l-1.607-5.077-2.242-7.088,7.45-3.964,3.575-1.9Z" transform="translate(-1733.632 -962.366)" fill="#ffac95"/>
      <path id="Path_13000" data-name="Path 13000" d="M1812.988,994.54a24.253,24.253,0,0,1-5.208,11.052l-2.242-7.088Z" transform="translate(-1733.631 -967.815)" fill="#e9928b"/>
      <path id="Path_13001" data-name="Path 13001" d="M1957.009,1352.339l-1.75.962s-1.925,4.638-1.925,7.175-1.488,7-.525,7.35,3.413-5.687,3.763-6.825,1.312,4.2,1.662,5.688-.788,7.175,0,7.437,4.55-3.937,5.075-5.863.172-4.761.522-4.324.834,4.368,1.928,3.8c.472-.246-.35-4.9-1.4-7.787s-2.363-8.663-2.363-8.663Z" transform="translate(-1842.579 -1232.311)" fill="#ffac95"/>
      <path id="Path_13002" data-name="Path 13002" d="M1922.035,1145.039c-1.927,2.1-8.054.877-8.054.877s-2.8-27.3-4.2-29.925c-.919-1.727-5.323-9.66-8.227-14.889-1.512-2.725-2.62-4.709-2.62-4.709s-.63-2.977-1.2-6.867c-1.165-7.9-2.095-19.557,2.93-17.771h.005c5.912,2.111,14.779,20.176,19.058,31.611a54.38,54.38,0,0,1,2.31,7.376C1923.61,1118.615,1922.035,1145.039,1922.035,1145.039Z" transform="translate(-1801.302 -1024.925)" fill="#c92041"/>
      <path id="Path_13003" data-name="Path 13003" d="M2004.813,1719.485c-.987.7,2.5,12,1.265,13.367s-9.424,10.406-9.424,10.406a16.181,16.181,0,0,1-.168-8.116c.94-3.565,1.239-10.463-4.725-19.467a49.028,49.028,0,0,0-3.439-4.568l8.074-11.461a56.751,56.751,0,0,0,6.326,7.292,17.471,17.471,0,0,0,1.628,1.328c3.565,2.52,12.212,13.01,12.212,13.01l-3.875,4.279S2005.8,1718.787,2004.813,1719.485Z" transform="translate(-1869.149 -1490.585)" fill="#0c1b3c"/>
      <path id="Path_13004" data-name="Path 13004" d="M1642.066,1772.742c.525,4.331-1.444,17.782-1.444,17.782h-5.775s.394-9.644-.788-9.907-7.219,9.907-9.056,9.907h-14.044a16.218,16.218,0,0,1,5.906-5.575c3.37-1.743,8.9-6.368,11.487-17.514.336-1.444.625-3,.851-4.667l13.912-1.706s-.651,3.05-.976,6.374A25.857,25.857,0,0,0,1642.066,1772.742Z" transform="translate(-1589.369 -1536.118)" fill="#0c1b3c"/>
      <path id="Path_13005" data-name="Path 13005" d="M1679.072,1762.766l13.912-1.706s-.651,3.05-.976,6.374h-13.787C1678.557,1765.99,1678.846,1764.436,1679.072,1762.766Z" transform="translate(-1639.238 -1536.118)" fill="#e9928b"/>
      <path id="Path_13006" data-name="Path 13006" d="M2002.723,1706.938l-10.962,8.736a49.028,49.028,0,0,0-3.439-4.568l8.074-11.461A56.751,56.751,0,0,0,2002.723,1706.938Z" transform="translate(-1869.149 -1490.585)" fill="#e9928b"/>
      <path id="Path_13007" data-name="Path 13007" d="M1883.584,1379.677l-13.388,11.55s-9.6-10.038-19.084-20.711v-.005c-8.463-9.523-16.831-19.546-18.191-23.384-1.475-4.153-2.672-11.251-3.5-17.2-.793-5.712-1.229-10.364-1.229-10.364l.661-14.139,1.7-36.262.745-.446,8.442-5.066h5.823s.357.614.95,1.664c2.688,4.756,10.217,18.423,11.078,23.8,1.05,6.563-4.2,51.188-1.575,53.813S1883.584,1379.677,1883.584,1379.677Z" transform="translate(-1750.43 -1167.335)" fill="#376f92"/>
      <path id="Path_13008" data-name="Path 13008" d="M1851.112,1449.535c-8.463-9.523-16.831-19.546-18.191-23.384-2.887-8.138-4.725-27.563-4.725-27.563l.661-14.139c7.686-7.366,14.947-14.212,14.947-14.212s4.725,25.2,0,34.65,5.009,10.841,1.05,21.788C1841.185,1436.824,1853.123,1436.279,1851.112,1449.535Z" transform="translate(-1750.43 -1246.36)" fill="#1b5175"/>
      <path id="Path_13009" data-name="Path 13009" d="M1715.026,1329.927c-.914,1.648-1.622,2.877-2.016,3.549-2.625,4.463-21.526,61.688-21.526,61.688H1673.9s3.938-30.975,8.4-55.651c3.859-21.32,16.139-62.444,19.4-73.223.52-1.7.809-2.641.809-2.641h22.838s.635,1.591,1.491,4.2a91.7,91.7,0,0,1,4.284,19.688C1732.015,1297.8,1720.2,1320.582,1715.026,1329.927Z" transform="translate(-1636.032 -1167.335)" fill="#376f92"/>
      <path id="Path_13010" data-name="Path 13010" d="M1662.859,1788.807" transform="translate(-1627.848 -1556.69)" fill="none" stroke="#040707" stroke-miterlimit="10" stroke-width="1"/>
      <path id="Path_13011" data-name="Path 13011" d="M1811.838,1265.314a14.123,14.123,0,0,1-5.282,2.536,33.542,33.542,0,0,1-9.933.866,74.862,74.862,0,0,1-15.2-2.425c.52-1.7.809-2.641.809-2.641h28.66S1811.244,1264.264,1811.838,1265.314Z" transform="translate(-1715.749 -1167.335)" fill="#0c1b3c"/>
      <path id="Path_13012" data-name="Path 13012" d="M1660.293,1068.667a40.144,40.144,0,0,1-1.5,8.537c-.173.541-.352,1.124-.53,1.738-2.237,7.571-5.114,20.14-5.114,20.14a22.885,22.885,0,0,1-6.851,2.152c-10.332,1.649-21.809-2.152-21.809-2.152s2.1-11.55-2.1-16.275a24.519,24.519,0,0,1-5.25-10.852s-17.672,6.825-22.05,5.954-26.424-25.027-26.424-26.6,5.6-7.7,5.6-7.7,21.7,19.425,22.4,19.425,21.7-12.947,27.852-16.275c4.568-2.468,12.191-4.069,15.8-4.725v-.005h.01c1.244-.226,2.011-.341,2.011-.341s.494.168,1.313.478c3,1.139,10.353,4.137,13.718,7.434h.005a6.674,6.674,0,0,1,1.418,1.885C1660.33,1054.786,1660.829,1062.078,1660.293,1068.667Z" transform="translate(-1558.015 -1002.766)" fill="#c92041"/>
      <path id="Path_13013" data-name="Path 13013" d="M1782.211,931.537s-3.281,21.281,1.575,22.781,10.763-5.325,10.763-5.325,1.706-8.138,0-13.519S1788.511,935.212,1782.211,931.537Z" transform="translate(-1715.533 -921.104)" fill="#ffac95"/>
      <path id="Path_13014" data-name="Path 13014" d="M1689.829,1405.906l-1.557-.236c9.7-64.027,28.3-127.462,28.483-128.094l1.51.445C1718.079,1278.654,1699.508,1341.989,1689.829,1405.906Z" transform="translate(-1646.689 -1177.66)" fill="#1b5175"/>
      <path id="Path_13015" data-name="Path 13015" d="M1833.251,1358.146l-.213-.011c-.284-.015-6.97-.567-8.039-16.835l-.055-.839h16.121l-.022.81c-.015.533-.445,13.108-7.6,16.779Zm-6.618-16.111c1,12.412,5.384,14.243,6.317,14.49,5.17-2.889,6.257-11.757,6.47-14.49Z" transform="translate(-1748.02 -1224.282)" fill="#1b5175"/>
      <path id="Path_13016" data-name="Path 13016" d="M1785.281,1179.351c-10.332,1.649-21.809-2.152-21.809-2.152s2.1-11.55-2.1-16.275a24.519,24.519,0,0,1-5.25-10.852s9.482-5.423,8.783-1.748-3.675,16.837,8.573,16.559C1784.22,1164.635,1778.009,1176.873,1785.281,1179.351Z" transform="translate(-1696.994 -1080.884)" fill="#98192c"/>
      <path id="Path_13017" data-name="Path 13017" d="M1878.49,1082.183c-2.992-1.958-7.565-1.617-10.61-7.455a9.776,9.776,0,0,0-5.534-5.082,37.967,37.967,0,0,0-5.849-1.3,17.216,17.216,0,0,1-10.274-5.429c-8.153-8.8-3.969-19.609-3.848-19.908V1043h.01l3.323.137c3,1.139,10.353,4.137,13.718,7.434h.005C1865.344,1052.683,1874.211,1070.749,1878.49,1082.183Z" transform="translate(-1760.068 -1003.745)" fill="#98192c"/>
      <path id="Path_13018" data-name="Path 13018" d="M1871.122,960.095c-5.413,10.852-27.185,14.768-33.049,1.906-6.825-14.963-11.156-11.288-22.444-10.5s-19.294-5.25-18.375-18.113c.914-12.758-7.865-14.117-10.327-25.657-.042-.184-.063-.289-.063-.289-.845-4.2-5.229-5.292-5.229-5.292s-2.887-1.969,0-6.563,21.394-8.4,25.725,3.806,3.938,18.375,17.85,17.719,22.969,4.594,23.888,17.588,22.313,4.594,23.232,19.557A11.339,11.339,0,0,1,1871.122,960.095Z" transform="translate(-1714.958 -891.19)" fill="#ffc945"/>
    </g>
    <g id="Group_9348" data-name="Group 9348" transform="translate(698.773 328.207)">
      <g id="Group_9347" data-name="Group 9347" transform="translate(0 0)">
        <path id="Path_13019" data-name="Path 13019" d="M2560.11,871.276l-3.454-8.2s-6.39-6.736-2.763-12.176,19-6.736,22.366,13.126c0,0,5.441.173,6.39,5.441s-3.8,8.722-5.268,12.608a9.628,9.628,0,0,1-4.75,5.268l-6.131.95Z" transform="translate(-2473.538 -816.478)" fill="#0c1b3c"/>
        <path id="Path_13020" data-name="Path 13020" d="M2708.7,1366.782s-3.627,5.786-4.49,8.895-1.64,4.059-.95,4.663,2.418-2.5,3.627-4.059,1.382,4.145,1.382,6.218-1,5.786.127,5.872,4.018-4.75,5.054-6.736.571-14.853.571-14.853Z" transform="translate(-2584.909 -1201.536)" fill="#e9928b"/>
        <path id="Path_13021" data-name="Path 13021" d="M2677.737,1814.432l-2.591,1.943s-1.943,7.51-1.036,10.426h30.7a18.393,18.393,0,0,0-9.067-6.185c-6.088-1.91-7.9-2.558-8.808-4.242S2677.737,1814.432,2677.737,1814.432Z" transform="translate(-2563.315 -1533.427)" fill="#ffab40"/>
        <path id="Path_13022" data-name="Path 13022" d="M2437.219,1810.425l2.2,2.979s2.72,6.6,1.554,10.426h-25.647a8.017,8.017,0,0,1,4.663-6.184,76.2,76.2,0,0,0,8.031-4.242Z" transform="translate(-2371.631 -1530.456)" fill="#ffab40"/>
        <rect id="Rectangle_875" data-name="Rectangle 875" width="30.699" height="3.045" transform="translate(110.794 293.374)" fill="#fff"/>
        <rect id="Rectangle_876" data-name="Rectangle 876" width="25.647" height="3.045" transform="translate(43.697 293.374)" fill="#fff"/>
        <path id="Path_13023" data-name="Path 13023" d="M2685.776,1784.44h-11.792l-.819-5.507-.861-5.765,12.563-1.811.525,7.576Z" transform="translate(-2562.155 -1501.491)" fill="#e9928b"/>
        <path id="Path_13024" data-name="Path 13024" d="M2477.379,1779.377l-.777,5.5-.777,5.507h-11.4l.714-5.507.708-5.5Z" transform="translate(-2408.034 -1507.437)" fill="#e9928b"/>
        <path id="Path_13025" data-name="Path 13025" d="M2467.9,1779.377h11.529l-.777,5.5h-11.461Z" transform="translate(-2410.081 -1507.437)" fill="#de6667"/>
        <path id="Path_13026" data-name="Path 13026" d="M2685.393,1778.933h-12.227l-.861-5.765,12.563-1.811Z" transform="translate(-2562.155 -1501.491)" fill="#de6667"/>
        <path id="Path_13027" data-name="Path 13027" d="M2530.559,1439.18h-18.391s-14.249-50.779-15.8-58.034-6.909-23.226-6.909-23.226l-13.818,81.261h-16.223s-.683-39.118,0-52.075c.541-10.343,3.3-43.329,6.1-59.756a40.823,40.823,0,0,1,2.095-8.636c3.365-6.993,44.557,8.033,44.557,8.033s.283,1.6.772,4.363c1.575,8.915,5.308,29.962,8.731,48.747C2526.155,1404.461,2530.559,1439.18,2530.559,1439.18Z" transform="translate(-2404.093 -1164.521)" fill="#5f6386"/>
        <path id="Path_13028" data-name="Path 13028" d="M2539.348,1413.008l-6.174-21.848s-6.347,12.09-4.534,21.848-5.553,13.344-.326,23.748-2.3,18.344,2.772,24.846Z" transform="translate(-2453.986 -1219.61)" fill="#4a4e73"/>
        <path id="Path_13029" data-name="Path 13029" d="M2531.3,1331.107c-4.867,1.045-10.852,1.045-18.1-.966-16.454-4.562-25.153-3.89-29.322-2.793a40.823,40.823,0,0,1,2.095-8.636c3.365-6.993,44.557,8.033,44.557,8.033S2530.813,1328.341,2531.3,1331.107Z" transform="translate(-2422.454 -1164.521)" fill="#4a4e73"/>
        <path id="Path_13030" data-name="Path 13030" d="M2419.681,955.4s-1.034-5.372,1.3-8.143,7.882,1.542,7.882,1.542,3.595,3.868,1.743,7.5S2419.681,955.4,2419.681,955.4Z" transform="translate(-2374.689 -889.812)" fill="#e9928b"/>
        <path id="Path_13031" data-name="Path 13031" d="M2480.638,1035.964c-2.258,13.078-5.953,27.631-5.491,34.1.861,12.091,1.381,16.58,2.074,18.827s-10.191,4.142-21.935,0a96.013,96.013,0,0,0-18.774-3.979c-6.368-.793-11.277-1.024-11.277-1.024s3.281-17.451,4.316-26.6a106.429,106.429,0,0,0-.063-19.688l-.016.016c-.5.389-13.351,10.212-19.966,3.848a9.364,9.364,0,0,1-2.216-3.749c-4.336-12.579,3.953-42.951,3.953-42.951l9.844,1.381s-1.38,23.662-.514,23.835,10.19-8.29,14.679-11.571c2.515-1.838,6.751-2.924,11.214-3.4a51.46,51.46,0,0,1,10.2-.052,59.82,59.82,0,0,1,10,1.276c4.352.924,9.287,2.531,12.968,5.287C2483.484,1014.407,2482.607,1024.629,2480.638,1035.964Z" transform="translate(-2364.741 -925.721)" fill="#7dc4be"/>
        <path id="Path_13032" data-name="Path 13032" d="M2564.6,1190.168c.688,2.247-10.191,4.142-21.935,0a96.017,96.017,0,0,0-18.774-3.979c2.173-2.7,5.885-5.45,13.592-7.728,18.911-5.6.861-15.225,11.713-21.525s11.771-25.573,11.771-25.573l7.051,5.875c-2.258,13.078-5.953,27.631-5.491,34.1C2563.389,1183.432,2563.909,1187.921,2564.6,1190.168Z" transform="translate(-2452.122 -1026.994)" fill="#379690" opacity="0.65"/>
        <path id="Path_13033" data-name="Path 13033" d="M2582.182,1034.8c-4.788,8.957-18.349,16.79-18.349,16.79-2.341-6.767-2.079-14.816-1.853-18.013a51.46,51.46,0,0,1,10.2-.052A59.817,59.817,0,0,1,2582.182,1034.8Z" transform="translate(-2480.255 -954.284)" fill="#fff"/>
        <path id="Path_13034" data-name="Path 13034" d="M2658.783,1053.945c2.364-2.626,7.254-.345,13.3,8.463s11.226,28.324,12.262,35.06-.518,29.879-3.8,39.9l-8.822-.691s-2.231-33.16-2.577-35.406-7.427-20.035-10.363-29.706S2655.675,1057.4,2658.783,1053.945Z" transform="translate(-2550.45 -968.836)" fill="#7dc4be"/>
        <path id="Path_13035" data-name="Path 13035" d="M2585.064,991.155c0,1.3-1.9,3.539-6.562,4.4s-10.364-2.5-8.636-4.751a10.087,10.087,0,0,0,1.276-4.284,49.71,49.71,0,0,0,.367-6.164s10.1-9.414,10.017-4.578,3.539,5.7,3.539,5.7C2583.857,986.834,2585.064,989.858,2585.064,991.155Z" transform="translate(-2485.972 -910.622)" fill="#e9928b"/>
        <path id="Path_13036" data-name="Path 13036" d="M2586.09,975.783c-2.693,6.793-6.93,9.607-10.385,10.742a49.71,49.71,0,0,0,.367-6.164S2586.174,970.947,2586.09,975.783Z" transform="translate(-2490.536 -910.622)" fill="#de6667"/>
        <g id="Group_9346" data-name="Group 9346">
          <path id="Path_13037" data-name="Path 13037" d="M2406.875,946.747,2388.886,969.9a1.478,1.478,0,0,1-2.071.26,6.1,6.1,0,0,1-1.075-8.56l15.151-19.5Z" transform="translate(-2348.744 -886.673)" fill="#8fb9cf"/>
          <path id="Path_13038" data-name="Path 13038" d="M2414.341,952.548,2396.353,975.7a1.473,1.473,0,0,1-.981.558,6.094,6.094,0,0,1,.44-6.835l15.151-19.5Z" transform="translate(-2356.21 -892.474)" fill="#7a9db0"/>
          <path id="Path_13039" data-name="Path 13039" d="M2483.124,932.083c-2.646,3.405-5.516,5.6-6.412,4.905s.523-4.021,3.168-7.426,5.516-5.6,6.412-4.906S2485.77,928.677,2483.124,932.083Z" transform="translate(-2416.943 -873.646)" fill="#8fb9cf"/>
          <rect id="Rectangle_877" data-name="Rectangle 877" width="14.122" height="15.646" transform="matrix(0.79, 0.613, -0.613, 0.79, 58.216, 42.323)" fill="#8fb9cf"/>
          <path id="Path_13040" data-name="Path 13040" d="M2471.9,930.587l-6.518-5.063a.836.836,0,0,1-.147-1.172h0a.836.836,0,0,1,1.173-.147l6.517,5.063a.835.835,0,0,1,.147,1.172h0A.835.835,0,0,1,2471.9,930.587Z" transform="translate(-2408.5 -873.275)" fill="#7a9db0"/>
          <path id="Path_13041" data-name="Path 13041" d="M2481.248,916.491l-6.518-5.063a.835.835,0,0,1-.147-1.172h0a.835.835,0,0,1,1.172-.147l6.518,5.063a.836.836,0,0,1,.147,1.172h0A.835.835,0,0,1,2481.248,916.491Z" transform="translate(-2415.433 -862.824)" fill="#7a9db0"/>
          <path id="Path_13042" data-name="Path 13042" d="M2460.706,942.933l-6.518-5.063a.836.836,0,0,1-.147-1.172h0a.835.835,0,0,1,1.172-.147l6.518,5.063a.836.836,0,0,1,.147,1.172h0A.836.836,0,0,1,2460.706,942.933Z" transform="translate(-2400.203 -882.429)" fill="#7a9db0"/>
          <path id="Path_13043" data-name="Path 13043" d="M2303.665,778.631l-.012.016c-.381.491-.766.954-1.149,1.39-.442.5-.878.957-1.3,1.37-1.774,1.712-3.331,2.606-3.946,2.128l-.019.025-47.8-17.7,28.45-36.622,28.968,41.941-.019.025c.538.418.243,1.779-.65,3.537-.184.365-.4.751-.635,1.151s-.52.842-.818,1.278C2304.4,777.65,2304.046,778.14,2303.665,778.631Z" transform="translate(-2248.636 -728.857)" fill="#b2d3e4"/>
          <path id="Path_13044" data-name="Path 13044" d="M2347.311,818.51l-.012.016-39-29.282,4.829-6.216,35.244,34.023C2348.048,817.528,2347.692,818.019,2347.311,818.51Z" transform="translate(-2292.282 -768.736)" fill="#fff" opacity="0.15"/>
          <path id="Path_13045" data-name="Path 13045" d="M2319.616,848.624c-.442.5-.878.957-1.3,1.37l-45.8-23.119,7.137-5.126Z" transform="translate(-2265.749 -797.444)" fill="#fff" opacity="0.15"/>
          <path id="Path_13046" data-name="Path 13046" d="M2368.156,797.693l-34.277-36.965,2.285-2.086,32.627,37.9C2368.607,796.906,2368.392,797.293,2368.156,797.693Z" transform="translate(-2311.244 -750.656)" fill="#fff" opacity="0.15"/>
          <path id="Path_13047" data-name="Path 13047" d="M2266.188,750.2a80.94,80.94,0,0,1-6.652,7.581l0,0c-5.541,5.528-10.475,8.473-12.386,6.988-2.66-2.067,1.55-11.938,9.406-22.052s16.383-16.637,19.044-14.57c1.911,1.485.278,6.994-3.709,13.73A80.221,80.221,0,0,1,2266.188,750.2Z" transform="translate(-2246.349 -727.761)" fill="#8fb9cf"/>
          <path id="Path_13048" data-name="Path 13048" d="M2320.986,820.025a.787.787,0,0,1,.966-1.243c.674.523,3.532-.432,8.334-5.224l.384-.383a60.877,60.877,0,0,0,4.586-5.278,59.6,59.6,0,0,0,4.258-6.218c3.456-5.839,3.675-8.845,3-9.369a.787.787,0,1,1,.966-1.243c2.561,1.99-.974,8.644-2.612,11.413a64.476,64.476,0,0,1-9.469,12.193l-.5.485C2328.394,817.586,2323.377,821.882,2320.986,820.025Z" transform="translate(-2301.46 -774.574)" fill="#8fb9cf"/>
          <path id="Path_13049" data-name="Path 13049" d="M2297.777,788.224a80.94,80.94,0,0,1-6.652,7.581l0,0a10.4,10.4,0,0,1,12.355-15.9A80.221,80.221,0,0,1,2297.777,788.224Z" transform="translate(-2277.938 -765.787)" fill="#ffab40"/>
          <path id="Path_13050" data-name="Path 13050" d="M2310.846,795.9c-.789,1.016-1.985,1.406-2.672.873s-.6-1.789.185-2.8,1.985-1.406,2.672-.873S2311.635,794.884,2310.846,795.9Z" transform="translate(-2291.842 -776.023)" fill="#fff" opacity="0.15"/>
        </g>
        <path id="Path_13051" data-name="Path 13051" d="M2446.779,967.324s-.341-7.277-2.48-9.748-3.935-2.02-3.564,0,2,5.569.418,8.932Z" transform="translate(-2390.431 -896.896)" fill="#e9928b"/>
        <path id="Path_13052" data-name="Path 13052" d="M2454.509,1764.881v7.153h18.113l1.641-7.153Z" transform="translate(-2400.681 -1496.689)" fill="#4a4e73"/>
        <path id="Path_13053" data-name="Path 13053" d="M2654.878,1772.034h20.475l-.591-7.153h-22.05Z" transform="translate(-2547.63 -1496.689)" fill="#4a4e73"/>
        <path id="Path_13054" data-name="Path 13054" d="M2711.295,1827.615l-.5-.17c.023-.069.608-1.708,4.1-2.991l.181.492C2711.858,1826.13,2711.3,1827.6,2711.295,1827.615Z" transform="translate(-2590.695 -1540.857)" fill="#fff"/>
        <path id="Path_13055" data-name="Path 13055" d="M2726.513,1834.061l-.508-.134a5.186,5.186,0,0,1,3.618-3.444l.139.507A4.656,4.656,0,0,0,2726.513,1834.061Z" transform="translate(-2601.969 -1545.327)" fill="#fff"/>
        <path id="Path_13056" data-name="Path 13056" d="M2745.062,1836.752l-.523-.046a4.677,4.677,0,0,1,1.1-2.535l.381.361A4.213,4.213,0,0,0,2745.062,1836.752Z" transform="translate(-2615.711 -1548.062)" fill="#fff"/>
        <path id="Path_13057" data-name="Path 13057" d="M2464.432,1825.548a15.449,15.449,0,0,0-5.335-.949l-.016-.525a15.713,15.713,0,0,1,5.541.985Z" transform="translate(-2404.07 -1540.574)" fill="#fff"/>
        <path id="Path_13058" data-name="Path 13058" d="M2453.688,1831.739a16.409,16.409,0,0,0-5.011-1.406l.032-.524a16.6,16.6,0,0,1,5.192,1.45Z" transform="translate(-2396.356 -1544.828)" fill="#fff"/>
        <path id="Path_13059" data-name="Path 13059" d="M2441.729,1836.378a7.79,7.79,0,0,0-3.011-1.067l.079-.519a8.069,8.069,0,0,1,3.283,1.195Z" transform="translate(-2388.973 -1548.522)" fill="#fff"/>
        <path id="Path_13060" data-name="Path 13060" d="M2435.5,1108.095c-1.822,4.725-2.415,13.53-2.415,13.53l-.016.016c-.5.389-13.351,10.212-19.966,3.848a9.363,9.363,0,0,1-2.216-3.749c3.659.5,6.783,4.358,11.115-.115C2428.729,1114.678,2435.5,1108.095,2435.5,1108.095Z" transform="translate(-2368.34 -1009.743)" fill="#379690" opacity="0.65"/>
        <path id="Path_13061" data-name="Path 13061" d="M2556.974,907.945s-7.167,19.689-1.727,23.661,14.162-5.095,14.162-5.095a6.886,6.886,0,0,0,5.7-2.85c1.986-3.022-1.468-4.347-3.022-3.383s-3.368-.5-2.159-4.216.518-3.886-1.813-3.368S2557.233,908.981,2556.974,907.945Z" transform="translate(-2473.856 -861.351)" fill="#e9928b"/>
      </g>
      <path id="Path_13062" data-name="Path 13062" d="M2662.92,1474.966a757.927,757.927,0,0,0-20.391-100.815l1.511-.444a759.663,759.663,0,0,1,20.44,101.05Z" transform="translate(-2540.08 -1206.67)" fill="#4a4e73"/>
    </g>
    <g id="Group_9353" data-name="Group 9353" transform="translate(159 319.156)">
      <path id="Path_13063" data-name="Path 13063" d="M707.487,865.107s-2.451-8.169-2.451-10.783,2.4-9.966,3.731-10.13,3.948,14.214,5.092,16.175-.98,4.738-.98,4.738Z" transform="translate(-563.835 -805.034)" fill="#91415c"/>
      <g id="Group_9350" data-name="Group 9350" transform="translate(0 221.232)">
        <g id="Group_9349" data-name="Group 9349" transform="translate(1.216)">
          <path id="Path_13064" data-name="Path 13064" d="M217.868,1568.181l-8.686-9.568,3.332-3.416,6.743-6.911,8.315,9.16-6.5,7.184Z" transform="translate(-197.422 -1548.286)" fill="#91415c"/>
          <path id="Path_13065" data-name="Path 13065" d="M230.631,1564.63l-8.563-9.432,6.743-6.911,8.315,9.16Z" transform="translate(-206.976 -1548.286)" fill="#75354a"/>
          <path id="Path_13066" data-name="Path 13066" d="M177.9,1588.221l8.685,9.567s-.477,8.271,3.232,13.334,4.7,8.6,3.008,12.354l-25.833-28.456Z" transform="translate(-166.144 -1577.894)" fill="#fdab3f"/>
          <path id="Path_13067" data-name="Path 13067" d="M163.7,1617.5" transform="translate(-163.703 -1599.601)" fill="#fff"/>
          <path id="Path_13068" data-name="Path 13068" d="M263.6,1727.542" transform="translate(-237.77 -1681.188)" fill="#fff"/>
          <path id="Path_13069" data-name="Path 13069" d="M223.008,1629.061c-2.006-1.455-6.729-2.765-6.776-2.778l.14-.507c.2.054,4.862,1.35,6.945,2.859Z" transform="translate(-202.648 -1605.739)" fill="#fff"/>
          <path id="Path_13070" data-name="Path 13070" d="M226.137,1645.708c-2.385-1.007-6.111-.6-6.148-.6l-.058-.522c.158-.018,3.9-.422,6.411.636Z" transform="translate(-205.39 -1619.618)" fill="#fff"/>
          <path id="Path_13071" data-name="Path 13071" d="M227.948,1659.239l-.192-.489a18.645,18.645,0,0,1,4.887-1.135l.033.524A18.414,18.414,0,0,0,227.948,1659.239Z" transform="translate(-211.192 -1629.343)" fill="#fff"/>
        </g>
        <rect id="Rectangle_878" data-name="Rectangle 878" width="38.433" height="2.792" transform="matrix(0.672, 0.74, -0.74, 0.672, 2.067, 17.125)" fill="#fff"/>
      </g>
      <path id="Path_13072" data-name="Path 13072" d="M283.817,1187.26s-.162.9-.461,2.431c-.632,3.259-1.882,9.41-3.49,16-2.073,8.474-4.744,17.679-7.489,22.409-3.176,5.475-16.248,17.022-27.59,26.482-9.646,8.043-18.047,14.577-18.047,14.577l-17.562-18.022s36.339-32.756,37.319-34.065,5.294-20.341,6.931-35.373a89.634,89.634,0,0,1,4.735-19.218,134.394,134.394,0,0,1,5.391-13.131l16.993,6.21.167,1.593,1.647,15.974Z" transform="translate(-196.203 -1031.282)" fill="#489da2"/>
      <path id="Path_13073" data-name="Path 13073" d="M385.449,1264.409c-.632,3.259-1.882,9.41-3.49,16-2.073,8.474-4.744,17.679-7.489,22.409-3.176,5.475-16.248,17.022-27.59,26.482,2.72-14.792,20.213-13.459,17.625-24.277-2.7-11.273,8.578-15.684,4.083-30.388s2.779-24.507,2.779-24.507S377.96,1256.724,385.449,1264.409Z" transform="translate(-298.296 -1105.999)" fill="#408c91"/>
      <path id="Path_13074" data-name="Path 13074" d="M564.5,831.474a19.308,19.308,0,0,0-5.093,7.033,23.974,23.974,0,0,0-1.872,6.69c-1.225,9.313-17.4-.735-17.4-.735l7.842-16.42,6.426-3.431,5,3.4Z" transform="translate(-441.577 -790.516)" fill="#91415c"/>
      <path id="Path_13075" data-name="Path 13075" d="M540.136,880.475s1.279-4,3.09-4.142,15.045,1.785,15.657,4.863a11.088,11.088,0,0,1,0,5.038Z" transform="translate(-441.577 -828.857)" fill="#f5911f"/>
      <path id="Path_13076" data-name="Path 13076" d="M701.31,926.088l1.307-6.045s-6.045-1.57-8.332-1.275-4.411,7.32-4.411,7.32Z" transform="translate(-552.593 -860.296)" fill="#f5911f"/>
      <path id="Path_13077" data-name="Path 13077" d="M602.684,998.115s8.469,2.276,26.368-13.8-14.85-9.724-14.85-9.724Z" transform="translate(-487.951 -900.792)" fill="#f5911f"/>
      <rect id="Rectangle_879" data-name="Rectangle 879" width="54.553" height="1.575" transform="translate(91.064 245.589)" fill="#040707"/>
      <path id="Path_13078" data-name="Path 13078" d="M493.485,1641.7l-16.61-76.357-16.61,76.357-1.539-.334,17.379-79.894a.787.787,0,0,1,1.539,0l17.379,79.894Z" transform="translate(-381.219 -1336.37)" fill="#040707"/>
      <g id="Group_9352" data-name="Group 9352" transform="translate(97.458 245.747)">
        <g id="Group_9351" data-name="Group 9351">
          <path id="Path_13079" data-name="Path 13079" d="M555.187,1657.489H542.264l-.289-4.763-.585-9.638h12.371l.953,9.638Z" transform="translate(-539.965 -1643.088)" fill="#91415c"/>
          <path id="Path_13080" data-name="Path 13080" d="M554.714,1652.725H541.975l-.585-9.638h12.371Z" transform="translate(-539.965 -1643.088)" fill="#75354a"/>
          <path id="Path_13081" data-name="Path 13081" d="M538.176,1698.778H551.1s5.8,5.913,12.044,6.57,9.526,2.3,11.169,6.077H535.877Z" transform="translate(-535.877 -1684.377)" fill="#fdab3f"/>
          <path id="Path_13082" data-name="Path 13082" d="M535.877,1752.131" transform="translate(-535.877 -1723.933)" fill="#fff"/>
          <path id="Path_13083" data-name="Path 13083" d="M684.5,1752.131" transform="translate(-646.069 -1723.933)" fill="#fff"/>
          <path id="Path_13084" data-name="Path 13084" d="M577.958,1709.612l-.281-.443c.173-.11,4.268-2.693,6.785-3.221l.108.514C582.145,1706.97,578,1709.586,577.958,1709.612Z" transform="translate(-566.868 -1689.693)" fill="#fff"/>
          <path id="Path_13085" data-name="Path 13085" d="M594.346,1716.808l-.426-.307c.093-.129,2.309-3.173,4.78-4.318l.221.476C596.573,1713.747,594.368,1716.777,594.346,1716.808Z" transform="translate(-578.911 -1694.315)" fill="#fff"/>
          <path id="Path_13086" data-name="Path 13086" d="M612.375,1722.244l-.491-.187a18.651,18.651,0,0,1,2.444-4.382l.41.328A18.449,18.449,0,0,0,612.375,1722.244Z" transform="translate(-592.229 -1698.388)" fill="#fff"/>
        </g>
        <rect id="Rectangle_880" data-name="Rectangle 880" width="38.433" height="2.792" transform="translate(0 27.048)" fill="#fff"/>
      </g>
      <path id="Path_13087" data-name="Path 13087" d="M705.036,1641.7l-16.61-76.357-16.61,76.357-1.539-.334,17.38-79.894a.788.788,0,0,1,1.539,0l17.379,79.894Z" transform="translate(-538.065 -1336.37)" fill="#040707"/>
      <rect id="Rectangle_881" data-name="Rectangle 881" width="54.706" height="1.575" transform="translate(84.71 274.8)" fill="#040707"/>
      <path id="Path_13088" data-name="Path 13088" d="M480.964,1302.415H454.5s.515-44.093.515-51.935c0-5.578-5.288-14.783-10.813-26.982a173.1,173.1,0,0,1-6.509-16.312,146.529,146.529,0,0,1-5.406-20.885,82.078,82.078,0,0,1-1.456-12.935l14.219,1.593,20.747,2.328s2.274,8.038,5.1,18.41c4.5,16.572,10.386,39.1,10.587,44.328C481.8,1248.52,480.964,1302.415,480.964,1302.415Z" transform="translate(-360.535 -1049.086)" fill="#489da2"/>
      <path id="Path_13089" data-name="Path 13089" d="M447,1177.894c-5.739-2.416-11.645-4.734-17.512-4.44a35.134,35.134,0,0,1-6.686-.324,47.985,47.985,0,0,1-14.41-4.632,63.593,63.593,0,0,1-9.788-6.014A134.389,134.389,0,0,1,404,1149.353l16.993,6.21.167,1.593,20.747,2.328S444.179,1167.522,447,1177.894Z" transform="translate(-336.646 -1031.282)" fill="#408c91"/>
      <path id="Path_13090" data-name="Path 13090" d="M523.226,901.255S501.17,922.821,494.8,924.291s-29.9-6.127-33.82-5.882c-1.774.113-5.514,12.577-9.063,26.193-4.3,16.454-8.337,34.584-8.337,34.584s-11.028-4.411-28.918-5.637a40.97,40.97,0,0,1-7.166-1.113c-12.464-3.122-17.1-11.141-17.1-11.141,17.645-25.242,17.89-47.3,21.566-61.022s18.38-14.7,29.408-11.273c4.887,1.519,15.439,3.431,20.341,5.147s30.144,11.518,31.859,11.518S516.119,893.9,516.119,893.9C522.736,893.9,523.226,901.255,523.226,901.255Z" transform="translate(-330.561 -837.015)" fill="#ffab40"/>
      <path id="Path_13091" data-name="Path 13091" d="M878.15,894.157s4.248-3.752,7.842-5.223,8.5-4.488,8.5-2.9-4.411,3.835-4.411,3.835l13.438-1.221s-5.923,6-10.66,7.146-10.783,3.268-10.783,3.268Z" transform="translate(-692.183 -835.723)" fill="#91415c"/>
      <rect id="Rectangle_882" data-name="Rectangle 882" width="81.194" height="47.053" transform="translate(143.966 11.329) rotate(-4.767)" fill="#3fb8a9"/>
      <rect id="Rectangle_883" data-name="Rectangle 883" width="37.25" height="71.391" transform="matrix(0.083, 0.997, -0.997, 0.083, 220.402, 9.873)" fill="#fff"/>
      <path id="Path_13092" data-name="Path 13092" d="M777.356,812.87l13.838-29.362,18.51,26.665Z" transform="translate(-617.453 -760.041)" fill="#3fb8a9"/>
      <path id="Path_13093" data-name="Path 13093" d="M896.758,822.2l10.7-22.71,14.316,20.624Z" transform="translate(-705.98 -771.891)" fill="#3fb8a9"/>
      <circle id="Ellipse_511" data-name="Ellipse 511" cx="4.829" cy="4.829" r="4.829" transform="translate(182.973 17.072) rotate(-1.758)" fill="#3fb8a9"/>
      <path id="Path_13094" data-name="Path 13094" d="M536.943,1340.243l-1.575,0c0-.472.061-47.347-.21-58.643-.268-11.154-19.72-56.394-19.916-56.85l1.446-.624c.807,1.872,19.769,45.978,20.044,57.436C537,1292.876,536.944,1339.771,536.943,1340.243Z" transform="translate(-423.121 -1086.718)" fill="#408c91"/>
      <path id="Path_13095" data-name="Path 13095" d="M500.931,1108.81c-4.3,16.454-8.337,34.584-8.337,34.584s-11.028-4.411-28.918-5.637a40.97,40.97,0,0,1-7.166-1.113,16.488,16.488,0,0,1,1.343-1.338c14.763-13.234,20.282-4.411,27.506-13.969C490.756,1114.2,496,1113.8,500.931,1108.81Z" transform="translate(-379.576 -1001.223)" fill="#f5911f"/>
      <path id="Path_13096" data-name="Path 13096" d="M547.627,711.172l2.7-2.818s.245-5.024-4.82-11.559-8.005-4.084-5.718,0-4.577,1.96-10.7,1.143-11.19.05-8.168,4.028.408,4.141-7.107,7.245-6.372,7.679,0,8.169,2.132,4.248-2.773,9.476-1.148,8.169,4.244,5.228,6.535.327,4.738,4.9,4.574.653,7.516-2.614,2.124,2.451,6.617-4.738S547.627,711.172,547.627,711.172Z" transform="translate(-418.189 -692.761)" fill="#0c1b3c"/>
      <path id="Path_13097" data-name="Path 13097" d="M613.7,841.226a19.307,19.307,0,0,0-5.093,7.033c-3.578-3.8-1.524-10.332-1.524-10.332l1.524-.162Z" transform="translate(-490.78 -800.269)" fill="#75354a"/>
      <path id="Path_13098" data-name="Path 13098" d="M609.073,750.962s-.817,8.292.735,12.539,3.1,4.411,1.225,6.045-3.1,1.307-3.513,3.186.409,8.332-4.33,8.169-9.8-6.944-10.293-8.659c0,0-4.983-1.634-5.065-5.8s4-5.555,5.637-3.594,3.431-.572,3.513-3.676,2.042-7.516,5.391-7.27S607.276,748.8,609.073,750.962Z" transform="translate(-476.939 -735.369)" fill="#91415c"/>
    </g>
    <g id="Group_9354" data-name="Group 9354" transform="translate(355.016 579.35)">
      <path id="Path_13099" data-name="Path 13099" d="M934.626,1744.086l-.89-.558a43.086,43.086,0,0,0,2.862-5.911c2.774-6.777,6.405-18.156,5.9-38.641l1.049-.026c.508,20.682-3.17,32.2-5.981,39.065A43.127,43.127,0,0,1,934.626,1744.086Z" transform="translate(-929.411 -1698.951)" fill="#6eab9c"/>
      <path id="Path_13100" data-name="Path 13100" d="M941.617,1832.829l-.636-.835c10.757-8.2,25.705-9.014,25.855-9.021l.051,1.049C966.74,1824.029,952.11,1824.831,941.617,1832.829Z" transform="translate(-934.782 -1790.902)" fill="#6eab9c"/>
      <path id="Path_13101" data-name="Path 13101" d="M961.4,1749.611l-1.011-.285c1.008-3.574,11.767-16.962,12.225-17.531l.818.658C973.326,1732.592,962.355,1746.243,961.4,1749.611Z" transform="translate(-949.175 -1723.303)" fill="#6eab9c"/>
      <path id="Path_13102" data-name="Path 13102" d="M925.761,1770.46c-3.357-5.189-8.533-18.465-8.751-19.027l.979-.38c.053.137,5.356,13.739,8.655,18.838Z" transform="translate(-917.01 -1737.579)" fill="#6eab9c"/>
    </g>
    <g id="Group_9355" data-name="Group 9355" transform="translate(400.892 605.196)">
      <path id="Path_13103" data-name="Path 13103" d="M1094.417,1838.283l1.411-1.011c.134-.1,13.552-9.607,27.92-10.276l.049,1.049c-11.25.524-21.937,6.609-25.819,9.064l13.943-.485.036,1.049Z" transform="translate(-1094.417 -1819.73)" fill="#6eab9c"/>
      <path id="Path_13104" data-name="Path 13104" d="M1134.255,1812.013l-.993-.34a51.782,51.782,0,0,1,7.061-12.772l.832.641A51.744,51.744,0,0,0,1134.255,1812.013Z" transform="translate(-1123.217 -1798.9)" fill="#6eab9c"/>
    </g>
    <path id="Path_13105" data-name="Path 13105" d="M1889.974,1007.517c-5.413,10.852-27.185,14.768-33.049,1.906-6.825-14.963-11.156-11.288-22.444-10.5s-19.294-5.25-18.375-18.113c.914-12.758-7.865-14.117-10.327-25.657.362,1.528,2.389,8.615,9.083,10.81,7.523,2.462,14.348,9.513,10.673,17.541s10.248,6.8,20.26-2.037,17.54,5.513,15.966,18.113C1860.3,1011.292,1878.787,1018.222,1889.974,1007.517Z" transform="translate(-1220.934 -568.144)" fill="#ffab40"/>
    <g id="Group_9358" data-name="Group 9358" transform="translate(636.425 244.699)">
      <g id="Group_9357" data-name="Group 9357" transform="translate(0 0)">
        <g id="Group_9356" data-name="Group 9356">
          <circle id="Ellipse_512" data-name="Ellipse 512" cx="16.781" cy="16.781" r="16.781" transform="translate(0 6.703) rotate(-11.521)" fill="#b2e5e0"/>
        </g>
        <path id="Path_13106" data-name="Path 13106" d="M2063.177,457.369c-4.351-2.358-6.74,3.659-6.74,3.659s-2.427-6-6.763-3.615c-4.893,2.692-.511,11.386,6.8,15.157C2063.761,468.751,2068.087,460.029,2063.177,457.369Z" transform="translate(-2036.65 -443.376)" fill="#b2e5e0"/>
      </g>
    </g>
    <g id="Group_9359" data-name="Group 9359" transform="translate(643.508 250.337)">
      <circle id="Ellipse_513" data-name="Ellipse 513" cx="16.781" cy="16.781" r="16.781" fill="#fff"/>
      <path id="Path_13107" data-name="Path 13107" d="M2078.912,467.52c-4.351-2.358-6.74,3.658-6.74,3.658s-2.427-6-6.763-3.615c-4.893,2.692-.511,11.386,6.8,15.157C2079.5,478.9,2083.822,470.181,2078.912,467.52Z" transform="translate(-2055.398 -456.54)" fill="#eb908b"/>
    </g>
    <g id="Group_9363" data-name="Group 9363" transform="translate(751.799 311.433)">
      <g id="Group_9362" data-name="Group 9362" transform="translate(0 0)">
        <g id="Group_9360" data-name="Group 9360">
          <circle id="Ellipse_514" data-name="Ellipse 514" cx="13.146" cy="13.146" r="13.146" fill="#b2e5e0"/>
        </g>
        <g id="Group_9361" data-name="Group 9361" transform="translate(5.86 6.217)">
          <path id="Path_13108" data-name="Path 13108" d="M2481.354,689.3l4.5-2.367-.86,5.014,3.643,3.551-5.034.732-2.251,4.562-2.251-4.562-5.034-.732,3.643-3.551-.86-5.014Z" transform="translate(-2474.068 -686.935)" fill="#b2e5e0"/>
        </g>
      </g>
    </g>
    <g id="Group_9364" data-name="Group 9364" transform="translate(755.34 314.089)">
      <circle id="Ellipse_515" data-name="Ellipse 515" cx="13.146" cy="13.146" r="13.146" transform="translate(0 0)" fill="#edf6f5"/>
      <path id="Path_13109" data-name="Path 13109" d="M2495.046,699.572l4.5-2.367-.86,5.014,3.643,3.551-5.034.732-2.251,4.562-2.251-4.562-5.034-.732,3.643-3.551-.86-5.014Z" transform="translate(-2481.9 -690.988)" fill="#ffab40"/>
    </g>
    <path id="Path_13110" data-name="Path 13110" d="M855.541,1208.123v-41.738s14.533,3.675,18.426,16.8,17.388,18.638,24.4,14.438,6.607-15.488,15.891-19.426,14.993,5.775,25.893,16.538,25.434,12.863,36.853,3.15,22.449-12.338,31.078-3.413,12.522,9.713,22.384,7.875,16.242,5.775,16.242,5.775Z" transform="translate(-516.421 -724.753)" fill="#b2e5e0"/>
    <rect id="Rectangle_884" data-name="Rectangle 884" width="176.518" height="3.85" transform="translate(353.765 496.276)" fill="#fff"/>
    <path id="Path_13111" data-name="Path 13111" d="M863.31,1369.41h0a4.069,4.069,0,0,0-4.069,4.069h0a4.069,4.069,0,0,0,4.069,4.069h0a4.069,4.069,0,0,0,4.069-4.069h0A4.069,4.069,0,0,0,863.31,1369.41Z" transform="translate(-519.164 -875.277)" fill="#fff"/>
    <path id="Path_13112" data-name="Path 13112" d="M855.518,1195.9h191.163s-4.045-23.1-18.838-23.1-11.151,20.364-30.23,15.169-21.155-36.432-41.658-38.007-25.434,27.563-36.074,27.563-12.717-12.119-26.212-12.885-12.717,19.185-22.579,20.235S855.258,1192.229,855.518,1195.9Z" transform="translate(-516.397 -712.534)" fill="#3fb8a9" opacity="0.38"/>
    <rect id="Rectangle_885" data-name="Rectangle 885" width="50.926" height="50.926" rx="17.633" transform="translate(458.754 336.193)" fill="#b2e5e0"/>
    <rect id="Rectangle_886" data-name="Rectangle 886" width="50.926" height="50.926" rx="17.633" transform="translate(464.005 341.359)" fill="#fff"/>
    <path id="Path_13113" data-name="Path 13113" d="M1398.826,850.313l20.479-14.341-20.479-14.34Z" transform="translate(-919.216 -469.15)" fill="#67b4d2"/>
  </g>
</svg>
