<svg xmlns="http://www.w3.org/2000/svg" width="500" height="262.226" viewBox="0 0 500 262.226">
  <g id="success_excellence" transform="translate(-3767 -1261)">
    <g id="Group_8102" data-name="Group 8102" transform="translate(3785.106 1335.156)">
      <g id="Group_8101" data-name="Group 8101" transform="translate(0 0)">
        <path id="Path_9840" data-name="Path 9840" d="M1625.23,1049.376s-59.8-51.594-67.115-72.191,10.254-17.2,10.254-17.2-23.022-37.47-15.55-48.891,20.484,4.6,20.484,4.6-8.648-49.258,1.731-51.305c19.334-3.814,31.608,49.387,31.608,49.387s-.018-21.764,11.7-18.086c17.667,5.547,5.2,51.606,5.2,51.606s6.521-17.219,15.861-8.72C1656.159,953.823,1625.23,1049.376,1625.23,1049.376Z" transform="translate(-1551.327 -864.191)" fill="#50bfa5"/>
      </g>
      <path id="Path_9841" data-name="Path 9841" d="M1697.628,938.573c-9.341-8.5-15.861,8.72-15.861,8.72s12.468-46.059-5.2-51.606c-11.715-3.678-11.7,18.086-11.7,18.086s-12.274-53.2-31.608-49.387l50.158,185.011C1687.557,1038.523,1713.282,952.818,1697.628,938.573Z" transform="translate(-1609.555 -864.19)" fill="#3c8f7c"/>
    </g>
    <g id="Group_8103" data-name="Group 8103" transform="translate(3767 1423.784)">
      <path id="Path_9842" data-name="Path 9842" d="M1593.532,1267.042s-67.069,1.084-78.96-11.28c-8.677-9.022,6.768-16.356,6.768-16.356s-29.327-18.048-28.2-28.764,11.28-7.9,11.28-7.9-19.782-20.131-14.894-28.968c7.512-13.578,41.966,19.38,41.966,19.38s-7.756-15.289,1.692-16.92c14.249-2.46,25.944,38.352,25.944,38.352s-5.566-18.4,3.948-15.792C1580.146,1203.484,1593.532,1267.042,1593.532,1267.042Z" transform="translate(-1488.749 -1170.498)" fill="#42b1ff"/>
      <path id="Path_9843" data-name="Path 9843" d="M1489.526,1181.837c-4.888,8.836,14.894,28.968,14.894,28.968s-10.152-2.82-11.28,7.9,28.2,28.764,28.2,28.764-21.588,7.3-8.426,18.3c16.8,14.037,80.618,9.335,80.618,9.335Z" transform="translate(-1488.749 -1178.556)" fill="#44a6f9"/>
    </g>
    <g id="Group_8105" data-name="Group 8105" transform="translate(3802.626 1483.886)">
      <g id="Group_8104" data-name="Group 8104" transform="translate(0)">
        <path id="Path_9844" data-name="Path 9844" d="M1697.072,1414.822s-51.565,1.171-58.756.5.59-7.254.59-7.254-16.032.943-18.565-2.9,3.986-5.532,3.986-5.532-13.11-5.692-12.422-9.107c1.279-6.361,16.047-1.212,16.047-1.212s-6.211-3.194-3.613-6.212c3.918-4.551,15.947,5.8,15.947,5.8s-2.868-10.59,1.234-10.681C1651.481,1378,1697.072,1414.822,1697.072,1414.822Z" transform="translate(-1611.879 -1378.218)" fill="#50bfa5"/>
      </g>
    </g>
    <path id="Path_9845" data-name="Path 9845" d="M2314.494,1326.6l18.808-40.368s1.091-3.119,11.041,4.788,9.95,23.72,9.95,23.72,5.761-19,14.678-19c4.656,0-1.978,30.989-1.978,30.989s6.343-11.368,12.1-11.368-3.142,14.252-3.142,14.252,10.591-7.429,17.4-6.551-6.459,13.18-6.459,13.18,17.108-8.408,20.833-2.124c1.964,3.315-20.948,5.158-20.948,5.158l-78.789.2Z" transform="translate(1694.51 171.471)" fill="#50bfa5"/>
    <path id="Path_9846" data-name="Path 9846" d="M1877.685,860.679l-182.338.071c-6.086,0-11.214-3.554-11.945-8.284l-35.389-229.124c-.588-3.807,3.308-7.125,8.2-6.985l177.126,5.054c3.913.111,7.144,2.432,7.622,5.474Z" transform="translate(2165.111 648.467)" fill="#42b1ff"/>
    <path id="Path_9847" data-name="Path 9847" d="M1689.291,640.3l160.053,4.565c3.914.112,7.144,2.431,7.622,5.473l34.677,220.714-175.972.068L1681.086,647.28C1680.5,643.474,1684.4,640.158,1689.291,640.3Z" transform="translate(2141.607 631.454)" fill="#184655"/>
    <path id="Path_9848" data-name="Path 9848" d="M2055.693,635.14a1.532,1.532,0,1,1-1.531-1.5A1.514,1.514,0,0,1,2055.693,635.14Z" transform="translate(1876.67 636.178)" fill="#f47458"/>
    <g id="Group_8107" data-name="Group 8107" transform="translate(3930.573 1313.445)">
      <path id="Path_9849" data-name="Path 9849" d="M2195.482,1338.607a41.463,41.463,0,0,1-4.489,5.537c-.136.128-1.048.422-1.193.551-1.277,4.042.366,7.475,2.128,10.176.292-2.189.5-5.183.838-5.553a44.181,44.181,0,0,1,6.065-6.231C2196.881,1341.992,2196.648,1340.5,2195.482,1338.607Z" transform="translate(-2151.211 -1179.626)" fill="#f7a491"/>
      <path id="Path_9850" data-name="Path 9850" d="M2184.436,1357.986c-1.444.087-4.172.988-4.156,1.275.02.343,1.567,12.259,3.45,13.308,1.132.631,1.341-1.224,1.756-3.926C2183.723,1365.941,2183.545,1358.357,2184.436,1357.986Z" transform="translate(-2144.767 -1193.398)" fill="#f47458"/>
      <path id="Path_9851" data-name="Path 9851" d="M2081.7,1319.356a54.445,54.445,0,0,1-6.387,3.3c-.178.059-1.127-.065-1.313-.009-2.877,3.113-2.851,6.919-2.408,10.114,1.2-1.857,2.66-4.475,3.123-4.667a58.56,58.56,0,0,1,8.067-2.706C2081.485,1323.559,2081.95,1321.568,2081.7,1319.356Z" transform="translate(-2067.373 -1165.945)" fill="#f7a491"/>
      <path id="Path_9852" data-name="Path 9852" d="M2221.32,953.01s4.567-8.594,5.243-11.672,3.017-18.578,2.82-19.577-3.9-3.4-3.443-4.248,3.983-.85,4.791-.778a7.3,7.3,0,0,1,3.125,1.116c.695.573-.781,19.148-1.222,23.148s-7.137,17.1-7.137,17.1Z" transform="translate(-2173.934 -879.8)" fill="#f7a491"/>
      <path id="Path_9853" data-name="Path 9853" d="M2084.407,1085.1s-9.309,14.906-10.934,17.835-7.685,10.391-7.99,10.751-6.713.035-6.53.777,3.126.009,3.182.88-5.065,6.411-4.552,6.634c.96.418,3.263-3.271,3.674-2.991s-2.756,3.63-2.24,4.344,2.706-3.45,3.116-3.4-1.541,4.19-.644,4.231c.487.022,1.646-3.724,2.109-3.393s.017,3.331.581,3.3.038-2.563.9-3.9.806-2.746,2.8-4.473,9.7-6.993,12.494-11.645,9-14.915,9-14.915Z" transform="translate(-2057.547 -999.471)" fill="#f7a491"/>
      <path id="Path_9854" data-name="Path 9854" d="M2187.547,1161.735l-16.166,5.208s8.892,15.122,10.65,18.136,9.329,10.457,9.339,12.4c.007,1.378-7.127,10.517-11.428,16.093a17.568,17.568,0,0,0,5.31,5.162c7.163-6.791,17.611-17.5,17.8-21.007C2203.336,1192.6,2187.547,1161.735,2187.547,1161.735Z" transform="translate(-2138.444 -1053.931)" fill="#3c8f7c"/>
      <path id="Path_9855" data-name="Path 9855" d="M2067.072,1329.059c-1.344-.536-4.2-.882-4.3-.616-.129.319-3.8,11.76-2.545,13.51.756,1.052,1.735-.536,3.26-2.8C2063.04,1335.954,2066.108,1329.016,2067.072,1329.059Z" transform="translate(-2059.263 -1172.338)" fill="#f47458"/>
      <path id="Path_9856" data-name="Path 9856" d="M2135.764,1162.668c.205-1,1.538-3.921,2.226-6.25a12.776,12.776,0,0,0,.306-5.946h0l-11.891-.554-.456.884a7.154,7.154,0,0,1-2.039,2.443c-1.781,1.346-4.906,4.3-4.811,8.411.133,5.739,4.215,26.769,2.857,27.556-2.45,1.42-12.673,6.394-18.776,9.453a17.137,17.137,0,0,0,1.867,7.306c4.833-1.85,21.841-9.379,25-11.224C2131.479,1193.913,2135.414,1164.361,2135.764,1162.668Z" transform="translate(-2089.977 -1045.533)" fill="#50bfa5"/>
      <path id="Path_9857" data-name="Path 9857" d="M2112.179,942.825c.943,2.491-.549,4.349-1.586,6.8-.7,1.648.839,4.263,2.575,5.468,4.4,3.052,5.429,3.131,5.111,7.276-.766,9.984,11.171,5.727,13.09,5.41s3.369-.231,4.287-.866c2.765-1.913,5.36-7.66,4.873-12.5s-6.25-3.177-7.568-5.4,2.666-4.99-.729-8.7c-9.75-10.658-19.926-3.51-20.289.566A4.322,4.322,0,0,0,2112.179,942.825Z" transform="translate(-2095.122 -892.61)" fill="#f47458"/>
      <path id="Path_9858" data-name="Path 9858" d="M2166.12,1052.613s3.318-7.883,3.849-9.192c0,0-4.634-4.127-7.4-3.8,0,0-3.584,5.63-5.7,5.833s-9.544.519-10.847,1.294-6.831,9.1-6.831,9.1,4.967,4.977,6.966,4.966c0,0,1.358-3.361,1.822-2.748s2.3,13.67,3.228,14.664c.858.92,11.265,4.432,14.27,3.786,0,0,1.618-12.57,1.531-20.307A15.945,15.945,0,0,0,2166.12,1052.613Z" transform="translate(-2115.571 -967.134)" fill="#fae0b2"/>
      <path id="Path_9859" data-name="Path 9859" d="M2182.161,1040.839a30.526,30.526,0,0,1,1.181,5.452c.009,1.575,1.264,6.527,4.567,6.2s-.033-6.456-.5-7.953a58.831,58.831,0,0,1-1.031-6.221Z" transform="translate(-2146.104 -966.225)" fill="#f7a491"/>
      <path id="Path_9860" data-name="Path 9860" d="M2186.69,1040.686c-.185-1.289-.313-2.367-.313-2.367l-4.215,2.52s.24.792.5,1.806A3.887,3.887,0,0,0,2186.69,1040.686Z" transform="translate(-2146.105 -966.225)" fill="#f47458"/>
      <path id="Path_9861" data-name="Path 9861" d="M2167.529,1007.965a5.516,5.516,0,0,0-2.02,3.239c-.412,2.116.845,7.336,5.384,8.158s6.016-3.567,4.77-6.75S2172.012,1005.482,2167.529,1007.965Z" transform="translate(-2134.218 -944.098)" fill="#f7a491"/>
      <path id="Path_9862" data-name="Path 9862" d="M2197.625,1017.416c0,.889-.411,1.612-.929,1.615s-.942-.716-.947-1.6.412-1.612.929-1.615S2197.621,1016.527,2197.625,1017.416Z" transform="translate(-2155.762 -950.229)" fill="#f7a491"/>
      <path id="Path_9863" data-name="Path 9863" d="M2166.937,1034.805c.6.716.689,1.624.205,2.027s-1.36.151-1.958-.565-.689-1.624-.2-2.028S2166.34,1034.089,2166.937,1034.805Z" transform="translate(-2133.674 -963.189)" fill="#f7a491"/>
      <g id="Group_8106" data-name="Group 8106" transform="translate(27.658)">
        <path id="Path_9864" data-name="Path 9864" d="M2154.138,813.51l11.225,6.469a2.006,2.006,0,0,1,1,1.58l1.023,12.946a2,2,0,0,0,3.342,1.327l9.633-8.714a2.006,2.006,0,0,1,1.809-.465l12.6,3a2.014,2.014,0,0,0,2.3-2.778l-5.271-11.854a2.014,2.014,0,0,1,.121-1.867l6.767-11.1a2.006,2.006,0,0,0-1.92-3.044l-12.891,1.388a2,2,0,0,1-1.734-.689l-8.423-9.852a2.007,2.007,0,0,0-3.487.9l-2.7,12.712a2.017,2.017,0,0,1-1.194,1.442l-11.972,5.006A2.013,2.013,0,0,0,2154.138,813.51Z" transform="translate(-2153.135 -789.154)" fill="#f7cc7f"/>
      </g>
      <path id="Path_9865" data-name="Path 9865" d="M2246.254,919.654a2.043,2.043,0,0,0-.276.205l-.506.458h0a2.308,2.308,0,0,1,1.962.567S2247.291,920.292,2246.254,919.654Z" transform="translate(-2191.097 -881.894)" fill="#f47257"/>
      <path id="Path_9866" data-name="Path 9866" d="M2237.259,921.339l-.286-1.132a6.573,6.573,0,0,1-2.048-.325l-.789-.344a.487.487,0,0,0-.646.263h0a.487.487,0,0,0,.148.565s2.134,1.757,2.884,2.291c.372.264,1.54.978,1.54.978l.681-1.274Z" transform="translate(-2182.556 -881.783)" fill="#f7a491"/>
    </g>
    <g id="Group_8108" data-name="Group 8108" transform="translate(3802.243 1520.144)">
      <path id="Path_9867" data-name="Path 9867" d="M2073.919,1506.608H1611.943a1.55,1.55,0,0,1,0-3.083h461.976a1.549,1.549,0,0,1,0,3.083Z" transform="translate(-1610.553 -1503.526)" fill="#07345a"/>
    </g>
    <g id="Group_8115" data-name="Group 8115" transform="translate(3853.075 1327.094)">
      <path id="Path_9888" data-name="Path 9888" d="M1851.784,940.068a5.213,5.213,0,0,0-1.714,1.659c-.885,1.377-2.374,3.682-2.563,3.92-1.686,2.115-6.567,7.155-6.567,7.155l4.71,1.448,9.2-10.323s4.01-3.9,3.339-3.782c-.29.052-3.91,2.718-3.974,2.554-.017-.044,4.877-3.967,4.032-4.183-.227-.058-4.275,2.983-4.48,2.909-.1-.034,4.006-2.865,3.237-3.171-.382-.152-3.634,2.123-3.877,2.066-.272-.064,2.948-2.4,2.218-2.24A40.429,40.429,0,0,0,1851.784,940.068Z" transform="translate(-1825.622 -908.63)" fill="#f7a491"/>
      <g id="Group_8114" data-name="Group 8114" transform="translate(12.606)">
        <path id="Path_9889" data-name="Path 9889" d="M1833.037,864.042l12.256,3.188a1.963,1.963,0,0,1,1.351,1.231l4.321,11.94a1.959,1.959,0,0,0,3.494.386l6.823-10.712a1.965,1.965,0,0,1,1.588-.907l12.651-.443a1.968,1.968,0,0,0,1.454-3.215l-8.04-9.808a1.97,1.97,0,0,1-.37-1.793l3.5-12.213a1.961,1.961,0,0,0-2.6-2.372l-11.793,4.649a1.955,1.955,0,0,1-1.813-.2l-10.494-7.105a1.962,1.962,0,0,0-3.055,1.749l.753,12.684a1.969,1.969,0,0,1-.751,1.667l-9.994,7.826A1.965,1.965,0,0,0,1833.037,864.042Z" transform="translate(-1831.566 -836.326)" fill="#f7cc7f"/>
      </g>
      <path id="Path_9890" data-name="Path 9890" d="M1895.435,1432.017s-1.516,7.13-1.351,8.7c.238,2.26,10.956-2.8,8.6-3.564-.543-.176-2.264-.862-2.4-.96-.728-.522-.524-3.884-.524-3.884Z" transform="translate(-1863.38 -1259.657)" fill="#f7a491"/>
      <path id="Path_9891" data-name="Path 9891" d="M1891.3,1236.389c.38-2.179-6.65-27.774-10.564-35.642l-9.863-1.471,1.021,15.859c2.477.714,9.542,24.57,9.542,24.57l-3.433,28.106,5.877.349S1890.429,1241.393,1891.3,1236.389Z" transform="translate(-1846.896 -1094.259)" fill="#b75742"/>
      <path id="Path_9892" data-name="Path 9892" d="M1816.872,1206.244l-11.626-.541-3.768,1.562c-.524.233,2.182,32.644,1.513,33.575-.372.518-9.375,5.95-14.991,9.405l1.227,8.029c8.757-3.724,21.969-10.975,23.8-13.39.728-2.007,1.911-23.492,2.3-27.262.172-1.681,4.248-11.347,4.248-11.347Z" transform="translate(-1788 -1098.826)" fill="#f47458"/>
      <path id="Path_9893" data-name="Path 9893" d="M1857.622,1082.752l-6.142-.293s-4.849-.7-5.446-.793-7.432,17.81-9.675,24.6-1.673,9.548-1.673,9.548a24.639,24.639,0,0,0,10.514,4.112c5.313.9,11.172-3.2,11.172-3.2s1.469-13.412,1.161-17.761S1857.622,1082.752,1857.622,1082.752Z" transform="translate(-1821.131 -1010.678)" fill="#fff"/>
      <path id="Path_9894" data-name="Path 9894" d="M1880.286,1057.4l-.253,3.5s.677,5.215-.7,5.909-4.2-6.677-4.2-6.677l1.449-8.856Z" transform="translate(-1849.921 -989.081)" fill="#f7a491"/>
      <path id="Path_9895" data-name="Path 9895" d="M1883.551,1059.934c-1.857-.963-3.919-4-3.529-8.512l3.7,6.085Z" transform="translate(-1853.362 -989.185)" fill="#f47458"/>
      <path id="Path_9896" data-name="Path 9896" d="M1887.674,1029.591a3.182,3.182,0,0,1,2.119,3,27.857,27.857,0,0,1-.26,4.666c-.491,3.4-3.267,5.767-4.936,5.492s-5.123-2.549-4.5-7.387c.267-2.074.617-4.8,2.655-5.631A7.562,7.562,0,0,1,1887.674,1029.591Z" transform="translate(-1853.398 -973.425)" fill="#f7a491"/>
      <path id="Path_9897" data-name="Path 9897" d="M1828.636,970.72a.717.717,0,0,1-.086.926c-1.3,1.612-7.189,10.48-7.168,10.551.09.312.35,1.2.514,1.59,1.977,4.776,8.3,16.507,8.3,16.507l-.871,40.557a.4.4,0,0,1-.351.388,59.4,59.4,0,0,1-6.9.482c-5.781-.214-10.29-4.528-10.169-6.2s4.018-7.738,5.946-18.049c1.211-6.477,2.128-13.678,2.128-13.678s-1.047-3.163-1.4-4.146c-2.153-6.049-5.848-17.239-5.563-18.142.972-3.076,9.747-12.884,11.014-14.23C1824.9,966.357,1827.6,969.453,1828.636,970.72Z" transform="translate(-1804.984 -929.269)" fill="#50bfa5"/>
      <path id="Path_9898" data-name="Path 9898" d="M1906.152,1448.15l-6.788-1.53a8.869,8.869,0,0,1-6.256,1.53,6.418,6.418,0,0,0-.733,3.866,65.476,65.476,0,0,0,9.2,0,18.942,18.942,0,0,0,6.565-1.446C1911.422,1449.154,1906.152,1448.15,1906.152,1448.15Z" transform="translate(-1862.149 -1270.035)" fill="#f7cc7f"/>
      <path id="Path_9899" data-name="Path 9899" d="M1870.4,1025.754s-3.95-6.909-2.939-10.911,5.295-4.947,8.417-4.068a21.955,21.955,0,0,1,3.716,1.405c2.968,1.382,4.531,3.4,3.011,5.717-2.041,3.111-7.537-1.825-9.189-1.186-1.363.528-.281,3.194-1.59,3.659-1.231.438-.741.381-.873,1.92A32.5,32.5,0,0,1,1870.4,1025.754Z" transform="translate(-1844.349 -960.085)" fill="#f7cc7f"/>
      <path id="Path_9900" data-name="Path 9900" d="M1875.674,1040.893c-.162.985.188,1.862.782,1.959s1.207-.621,1.369-1.605-.188-1.862-.783-1.96S1875.836,1039.908,1875.674,1040.893Z" transform="translate(-1850.278 -980.555)" fill="#f7a491"/>
      <path id="Path_9901" data-name="Path 9901" d="M1878.911,951.742a1.592,1.592,0,0,0-1.571.5l-1.124,1.275a1.161,1.161,0,0,1-.818.393l-2.332.108-2.259,5.041,2.473-2.425a2.721,2.721,0,0,1,1.727-.773l1.234-.2a1.747,1.747,0,0,0,1-.643l1.915-2.706A.39.39,0,0,0,1878.911,951.742Z" transform="translate(-1846.848 -918.315)" fill="#f7a491"/>
      <path id="Path_9902" data-name="Path 9902" d="M1949.48,942.641v3.2a19.341,19.341,0,0,0,1.347,2.911,8.3,8.3,0,0,0,1.044.891,1.144,1.144,0,0,1,.4.938l-.285,4.84,4.451.807.038-6.563.651-2.607,0-2.7-6.135.207Z" transform="translate(-1902.757 -911.879)" fill="#f7a491"/>
      <path id="Path_9903" data-name="Path 9903" d="M1951.724,944.2l-2.042,2.129-1.347-2.911a29.84,29.84,0,0,1-.434-4.092.923.923,0,0,1,1.145.286,12.32,12.32,0,0,1,.767,2.489l1.911,1.229Z" transform="translate(-1901.612 -909.455)" fill="#f7a491"/>
      <path id="Path_9904" data-name="Path 9904" d="M1954.793,949.148l.888.556a3.165,3.165,0,0,1,1.265,1.59l.158.439.048-.694a2.935,2.935,0,0,0-.385-1.667l-.166-.282Z" transform="translate(-1906.532 -916.463)" fill="#f57258"/>
      <path id="Path_9905" data-name="Path 9905" d="M1884.454,957.67a2.264,2.264,0,0,1-.394.1,4.772,4.772,0,0,1-.838-.193,5.324,5.324,0,0,0,.609.449,1.082,1.082,0,0,0,.746-.014Z" transform="translate(-1855.67 -922.492)" fill="#f57258"/>
      <path id="Path_9906" data-name="Path 9906" d="M1910.233,984.952c-.372,1.154-3.317,16.9-3.317,16.9s-14.986,11.275-14.932,11.4c.034.079.067.159.1.239.232.084.8.4,1.563,1.592,1.071,1.66,2.819,4.02,2.987,10.5.011.449-.732,22.746-.732,22.746l.605,1.28,1,2.4c.688.292,2.722.528,3.04.167.655-.744.675-6.114.437-10.518-.4-7.363-1.746-18.824-1.63-20.279.291-.815,14.625-13.711,14.625-13.711a.756.756,0,0,0,.232-.441c.195-1.3,1.058-7.073,1.115-7.378a105.59,105.59,0,0,0,1.484-13.732C1915.732,983.9,1910.524,984.05,1910.233,984.952Z" transform="translate(-1861.897 -941.509)" fill="#52bea7"/>
    </g>
    <path id="Path_9907" data-name="Path 9907" d="M2268.963,737.89a4.5,4.5,0,0,1,1.99-3.3,3.481,3.481,0,0,1,4.908.962c1.253,1.833,1.126,5.1-1.765,9.847-5.47.975-8.563-.091-9.817-1.924a3.481,3.481,0,0,1,.883-4.923A4.5,4.5,0,0,1,2268.963,737.89Z" transform="translate(1726.378 564.891)" fill="#f47458"/>
    <path id="Path_9908" data-name="Path 9908" d="M2352.838,624.767a3.948,3.948,0,0,1,3.358-.4,3.051,3.051,0,0,1,1.977,3.913c-.592,1.854-2.923,3.526-7.762,4.081-3.62-3.259-4.548-5.973-3.955-7.827a3.051,3.051,0,0,1,3.881-2.04A3.949,3.949,0,0,1,2352.838,624.767Z" transform="translate(1667.508 644.215)" fill="#f47458"/>
    <path id="Path_9909" data-name="Path 9909" d="M2347.551,692.842a6.171,6.171,0,0,1,5.357-.812,4.991,4.991,0,0,1,3.11,6.449c-.965,3.118-4.7,6.006-12.418,7.13-5.735-5.289-7.185-9.78-6.22-12.9a4.991,4.991,0,0,1,6.209-3.565A6.171,6.171,0,0,1,2347.551,692.842Z" transform="translate(1674.031 596.892)" fill="#f47458"/>
    <path id="Path_9912" data-name="Path 9912" d="M2382.04,1476.554H2132.16c-7.136,0-12.921-5.03-12.921-11.233v-.111h275.85C2395.089,1471.475,2389.247,1476.554,2382.04,1476.554Z" transform="translate(1827.569 43.847)" fill="#44a6f9" opacity="0.53"/>
    <path id="Path_9913" data-name="Path 9913" d="M2035.994,1476.554H1817.187a11.274,11.274,0,0,1-11.314-11.233v-.111h241.548A11.386,11.386,0,0,1,2035.994,1476.554Z" transform="translate(2051.964 43.847)" fill="#44a6f9"/>
    <g id="Group_8116" data-name="Group 8116" transform="translate(4019.108 1310.242)">
      <path id="Path_9914" data-name="Path 9914" d="M2497.463,1000.661s-2.615-2.757-4.719.6a2.09,2.09,0,0,0-2.757.711s-2.928-.881-3.639,3.5c0,0-1.506-.284-1.706,1.506a4.43,4.43,0,0,0,.711,2.985s-.846.635-.462,2.281a2.037,2.037,0,0,0,1.486,1.614s.313,2.359,1.336,3.07a3.337,3.337,0,0,0,2.417.37,1.577,1.577,0,0,0,1.563,1.166c1.194-.114,2.672-1.251,4.009-.739s4.8-.029,4.8-.029,3.894-1.734,2.729-5.714a2.911,2.911,0,0,0,.256-4.065s1.307-3.468-1.279-5.515A6.749,6.749,0,0,0,2497.463,1000.661Z" transform="translate(-2450.17 -935.503)" fill="#07345a"/>
      <path id="Path_9915" data-name="Path 9915" d="M2418.929,910.47l-1.372,5.131-.639,9.082,4.954,1.053s.027-5.816,1.056-6.989a13.17,13.17,0,0,0,2.051-2.964C2425.573,913.827,2418.929,910.47,2418.929,910.47Z" transform="translate(-2402.062 -872.165)" fill="#f7a491"/>
      <path id="Path_9916" data-name="Path 9916" d="M2429.649,923.142l-2.932,3.6a1.4,1.4,0,0,1-2.561-.606l-.36-2.5S2427.975,921.312,2429.649,923.142Z" transform="translate(-2406.949 -880.67)" fill="#f47458"/>
      <path id="Path_9917" data-name="Path 9917" d="M2408.738,814.062l-12.725-1.252a1.979,1.979,0,0,0-1.7.679l-8.193,9.6a1.994,1.994,0,0,1-3.448-.843l-2.8-12.293a1.974,1.974,0,0,0-1.193-1.388l-11.861-4.763a1.936,1.936,0,0,1-.272-3.484l10.993-6.346a1.928,1.928,0,0,0,.965-1.537l.862-12.547a1.975,1.975,0,0,1,3.28-1.309l9.6,8.372a2.009,2.009,0,0,0,1.789.438l12.394-2.991a1.97,1.97,0,0,1,2.3,2.674l-5.062,11.52a1.924,1.924,0,0,0,.141,1.808l6.8,10.7A1.939,1.939,0,0,1,2408.738,814.062Z" transform="translate(-2365.572 -778.085)" fill="#f7cc7f"/>
      <path id="Path_9918" data-name="Path 9918" d="M2435.372,922.235l-.63-1.664s-1.321-1.746-.783-2.228c.9-.8,2.882,1.986,2.882,1.986S2436.7,922.438,2435.372,922.235Z" transform="translate(-2414.081 -877.657)" fill="#f7a491"/>
      <path id="Path_9919" data-name="Path 9919" d="M2419.127,916.865s.278-3.607.383-3.694c.585-.489,2.258-1.165,2.757-.834s-1.133,1.946-1.133,1.946a1.3,1.3,0,0,1,.771,1.047C2421.925,916.055,2419.127,916.865,2419.127,916.865Z" transform="translate(-2403.631 -873.43)" fill="#f7a491"/>
      <path id="Path_9920" data-name="Path 9920" d="M2590.09,925.276l.327,5.3-1.177,9.028-5.064.049s1.128-5.706.352-7.06a13.155,13.155,0,0,1-1.421-3.312C2582.912,927.247,2590.09,925.276,2590.09,925.276Z" transform="translate(-2520.161 -882.687)" fill="#f7a491"/>
      <path id="Path_9921" data-name="Path 9921" d="M2584.639,934.428l2.16,4.108a1.4,1.4,0,0,0,2.63-.085l.85-2.383S2586.642,932.966,2584.639,934.428Z" transform="translate(-2521.253 -888.913)" fill="#f47458"/>
      <path id="Path_9922" data-name="Path 9922" d="M2527.4,845.859l10.819,1.1a1.685,1.685,0,0,1,1.3.854l5.208,9.388a1.7,1.7,0,0,0,3.017-.121l4.411-9.774a1.679,1.679,0,0,1,1.229-.955l10.691-1.968a1.647,1.647,0,0,0,.815-2.858l-8.092-7.145a1.643,1.643,0,0,1-.544-1.444l1.4-10.6a1.679,1.679,0,0,0-2.513-1.645l-9.413,5.358a1.71,1.71,0,0,1-1.566.063l-9.826-4.585a1.675,1.675,0,0,0-2.368,1.841l2.275,10.457a1.637,1.637,0,0,1-.423,1.483l-7.473,7.77A1.649,1.649,0,0,0,2527.4,845.859Z" transform="translate(-2479.502 -808.201)" fill="#f7cc7f"/>
      <path id="Path_9923" data-name="Path 9923" d="M2457.485,1402.525a39.272,39.272,0,0,1-3.559,3.967c-.71.434.317,5.567,2.25,5.9,1.09.19,1.7-1.01,1.7-1.01l-.313-1.478,4.071-4.194Z" transform="translate(-2428.201 -1221.847)" fill="#f7a491"/>
      <path id="Path_9924" data-name="Path 9924" d="M2509.735,1405.541a39.248,39.248,0,0,1-3.023,4.389c-.649.522,1.025,5.481,2.986,5.568,1.1.049,1.553-1.218,1.553-1.218l-.5-1.426,3.5-4.68Z" transform="translate(-2465.773 -1223.99)" fill="#f7a491"/>
      <path id="Path_9925" data-name="Path 9925" d="M2496.335,1420.185a30.03,30.03,0,0,0,2.108,2.432,25.116,25.116,0,0,0,2.191,1.767s1.394,2.529,1.774,3.412c.848,1.964,1.8,4.153,1.663,5.254-.044.353-.838.727-1.5.524-2.752-.846-9.789-7.283-10.677-9.011C2490.87,1422.569,2496.335,1420.185,2496.335,1420.185Z" transform="translate(-2455.253 -1234.397)" fill="#07345a"/>
      <path id="Path_9926" data-name="Path 9926" d="M2530.892,1211.686c-.256-.715-.5-1.377-.738-2-2.927.639-6.233,1.341-9.635,2.066l-.414,12.466c0-.963,2.557,19.883,2.557,19.883s-6.013,14.484-10.532,23.013a13.278,13.278,0,0,0,5.032,4.221c7.017-8.411,15.983-23.237,16.365-25.8C2533.745,1244.067,2533.943,1220.27,2530.892,1211.686Z" transform="translate(-2469.724 -1084.806)" fill="#b75742"/>
      <path id="Path_9927" data-name="Path 9927" d="M2467.376,1220.367c.894,9.714,2.883,28.285,2.716,29.778-.5,1.862-8.983,19.047-10.575,21.548a9.987,9.987,0,0,0,5.231,4.264c.415.112,14.746-20.394,15.543-22.043.9-1.864,2.4-12.031,2.425-24.619l.414-12.466C2477.464,1218.036,2472.253,1219.221,2467.376,1220.367Z" transform="translate(-2432.335 -1089.881)" fill="#f47458"/>
      <path id="Path_9928" data-name="Path 9928" d="M2503.434,1076.022l-6.67.916s-5.347.131-6.009.131-4.851,24.332-6.064,33.489-.273,10.779-.273,10.779,8.458,1.9,14.714,1.347c6.506-.576,13.827-4.089,13.827-4.089s-7.54-17.195-8.642-22.689S2503.434,1076.022,2503.434,1076.022Z" transform="translate(-2449.784 -989.816)" fill="#fff"/>
      <path id="Path_9929" data-name="Path 9929" d="M2551.523,971.792s.428,18.142-.256,19.53c-1,2.018-12.2,16.331-12.2,16.331s5.351,22.391,7.6,30.124c.226.779,1.229,5.809,1.229,6.3,0,1.087-4.733,2.468-5.3,2.386-.5-.073-4.633-21.373-7.27-31.795a29.813,29.813,0,0,0-4.522-9.849l-1.834-2.6,14.072-14.1s1.734-15.7,1.734-17C2544.785,970.768,2550.841,970.513,2551.523,971.792Z" transform="translate(-2481.699 -915.062)" fill="#44a6f9"/>
      <path id="Path_9930" data-name="Path 9930" d="M2442.6,989.736l-17.547-17.879s-2.445-16.907-2.618-17.544-4.529-.963-6.284-1.135c-.564-.055.294,18.008,1.135,21.035.992,3.577,14.255,19.874,14.255,19.874s2.378,8.827,1.805,15.3c-.952,10.754-3.515,25.547-3.055,26.011,2.851,1.8,13.8,1.988,14.489.873C2452.428,1023.952,2442.6,989.736,2442.6,989.736Z" transform="translate(-2401.386 -902.515)" fill="#44a6f9"/>
      <path id="Path_9931" data-name="Path 9931" d="M2513.661,1054.395l.473,3.513s1.06,5.06-.3,6.036-5.8-6.18-5.8-6.18l.468-8.9Z" transform="translate(-2466.81 -970.515)" fill="#f7a491"/>
      <path id="Path_9932" data-name="Path 9932" d="M2509.125,1051.747a10.1,10.1,0,0,0,5.717,5.625l-.4-2.978-5.164-5.532Z" transform="translate(-2467.589 -970.515)" fill="#f47458"/>
      <path id="Path_9933" data-name="Path 9933" d="M2484.553,1021.929c0,1.356.771,2.454,1.721,2.454s1.722-1.1,1.722-2.454-.771-2.454-1.722-2.454S2484.553,1020.574,2484.553,1021.929Z" transform="translate(-2450.127 -949.63)" fill="#07345a"/>
      <path id="Path_9934" data-name="Path 9934" d="M2502.4,1006.26c0,.779.938,1.41,2.1,1.41s2.095-.632,2.095-1.41-.938-1.411-2.095-1.411S2502.4,1005.481,2502.4,1006.26Z" transform="translate(-2462.813 -939.236)" fill="#07345a"/>
      <path id="Path_9935" data-name="Path 9935" d="M2509.269,1015.923a4.694,4.694,0,0,1,6.143,3.741,35.4,35.4,0,0,1,.381,4.506c.074,4.1-2.049,8.1-3.912,8.1s-7.01-2.656-7.2-8.48C2504.568,1020.19,2506.363,1016.924,2509.269,1015.923Z" transform="translate(-2464.428 -946.926)" fill="#f7a491"/>
      <path id="Path_9936" data-name="Path 9936" d="M2502.858,1041.285a1.367,1.367,0,1,1-1.339-1.638A1.512,1.512,0,0,1,2502.858,1041.285Z" transform="translate(-2461.231 -963.966)" fill="#f7a491"/>
      <path id="Path_9937" data-name="Path 9937" d="M2533.738,1006.415c1.925,1.524,2.6,3.84,1.506,5.173s-3.538,1.177-5.462-.347-2.6-3.84-1.506-5.173S2531.813,1004.89,2533.738,1006.415Z" transform="translate(-2480.827 -939.458)" fill="#07345a"/>
      <path id="Path_9938" data-name="Path 9938" d="M2522.275,1010.866c0,.663-.8,1.2-1.786,1.2s-1.786-.537-1.786-1.2.8-1.2,1.786-1.2S2522.275,1010.2,2522.275,1010.866Z" transform="translate(-2474.395 -942.66)" fill="#07345a"/>
      <path id="Path_9939" data-name="Path 9939" d="M2541.932,1027.643a1.525,1.525,0,1,1-1.525-1.542A1.533,1.533,0,0,1,2541.932,1027.643Z" transform="translate(-2488.736 -954.339)" fill="#07345a"/>
      <path id="Path_9940" data-name="Path 9940" d="M2585.3,934.239l.948-1.505s1.641-1.449,1.209-2.029c-.719-.964-3.219,1.375-3.219,1.375S2583.957,934.175,2585.3,934.239Z" transform="translate(-2520.95 -886.38)" fill="#f7a491"/>
      <path id="Path_9941" data-name="Path 9941" d="M2602.423,931.087s.443-3.59.357-3.7c-.476-.6-1.981-1.589-2.536-1.365s.725,2.132.725,2.132a1.3,1.3,0,0,0-.964.873C2599.841,929.737,2602.423,931.087,2602.423,931.087Z" transform="translate(-2532.167 -883.197)" fill="#f7a491"/>
      <path id="Path_9942" data-name="Path 9942" d="M2442.677,1415.779a29.952,29.952,0,0,0,1.781,2.68,25.085,25.085,0,0,0,1.948,2.033s1.059,2.686,1.324,3.61c.59,2.057,1.256,4.54.979,5.613-.089.344-.847,1-1.472.6-2.413-1.571-8.861-8.932-9.521-10.758C2436.953,1417.445,2442.677,1415.779,2442.677,1415.779Z" transform="translate(-2416.791 -1231.266)" fill="#07345a"/>
    </g>
    <g id="Group_8118" data-name="Group 8118" transform="translate(4086.968 1335.909)">
      <path id="Path_9943" data-name="Path 9943" d="M2752.128,1067.139c-1.113-2.679-2.246-5.363-5.134-6.72a6.463,6.463,0,0,0-6.856.877c-5.885,4.425-.757,9.3-7.456,17.693-2.082,2.608-4.6,4.713-5.848,7.768-1.745,4.277.333,6.331,3.666,8.38,15.945,9.8,24.3-10.322,24-14.926C2754.279,1076.785,2752.844,1068.863,2752.128,1067.139Z" transform="translate(-2690.159 -1003.956)" fill="#13375b"/>
      <path id="Path_9944" data-name="Path 9944" d="M2841.391,1393.567a45.169,45.169,0,0,1-2.191,7.032c-.08.175-.813.8-.9.981.23,4.378,2.923,7.067,5.47,9.005-.49-2.221-1.664-4.79-1.485-5.273a62.546,62.546,0,0,1,3.723-8.692C2843.843,1396.3,2843.115,1394.953,2841.391,1393.567Z" transform="translate(-2769.822 -1241.148)" fill="#f7a491"/>
      <path id="Path_9945" data-name="Path 9945" d="M2781.633,1213.858l-13.573,10.31s6.72,6.466,9.242,8.869,18.076,13.595,18.3,14.145c.163.408-3.539,13.274-5.927,20.142a16.6,16.6,0,0,0,6.466,3.378c4.706-8.981,10.488-24.305,10.488-26.386C2806.625,1240.927,2781.633,1213.858,2781.633,1213.858Z" transform="translate(-2719.905 -1113.437)" fill="#44a6f9" opacity="0.8"/>
      <path id="Path_9946" data-name="Path 9946" d="M2666.333,1271.905a61.86,61.86,0,0,1,4.512,9.245c1.641-1.033,2.634-2.265,4.468-2.96-1.447-2.094-4.268-7.131-4.5-8.33-.551-2.845-1.2-3.264-1.2-3.264s-9.536,3.226-10.172,4.131S2664.551,1270.167,2666.333,1271.905Z" transform="translate(-2642.683 -1150.915)" fill="#f7a491"/>
      <path id="Path_9947" data-name="Path 9947" d="M2664.294,1267.112c.74,0-.064-3.342-.234-4.112a1.441,1.441,0,0,0-.818-1.157c-.338-.083-10.937,3.5-12.728,4.79a2.139,2.139,0,0,0-.372.425c-.981,1.83,7.757,2.178,9.014,1.377C2660.276,1267.725,2660.966,1267.1,2664.294,1267.112Z" transform="translate(-2636.053 -1147.537)" fill="#3c8f7c"/>
      <path id="Path_9948" data-name="Path 9948" d="M2729.275,1212.62l-11.849-4.788c.047.021-.072.482-.081.518-1.113,4.327-7.042,2.657-9.488,10.172-1.729,5.309-4.26,25.167-4.26,25.167s-1.794-3.414-7.37-9.694c-.431-.486-5.924,3.285-5.924,3.285,4.084,10.828,14.114,19.627,15.471,19,9.175-4.21,20.2-37.421,20.181-37.419C2727,1216.833,2729.275,1212.62,2729.275,1212.62Z" transform="translate(-2664.647 -1109.154)" fill="#44a6f9"/>
      <path id="Path_9949" data-name="Path 9949" d="M2826.506,1016.779s5.557-8.8,6.523-11.724.008-16.866-.084-17.857-3.45-3.7-2.921-4.477,5.166-1.413,5.944-1.262,2.291.013,2.909.64c.08.082-1.476,3.752-1.443,4.321.221,3.884,2.427,16.251,1.7,19.6-.83,3.845-9.082,16.133-9.082,16.133Z" transform="translate(-2761.44 -948.265)" fill="#f7a491"/>
      <path id="Path_9950" data-name="Path 9950" d="M2646.519,1109.469s-14.866.37-18.129.638-15.107-.718-15.566-.771-3.493-5.191-4-4.639,1.688,2.548,1.01,3.065-7.962-.642-7.865-.1c.181,1.007,4.431.88,4.426,1.365s-4.447-.273-4.749.535,4.274.33,4.457.69-4.244,1.02-3.791,1.771c.246.408,3.922-.681,3.9-.125s-2.7,1.821-2.372,2.264,2.105-1.359,3.661-1.382,2.671-.834,5.154-.152,10.951,4.1,16.251,3.845,17.012-.774,17.012-.774Z" transform="translate(-2601.634 -1035.831)" fill="#f7a491"/>
      <path id="Path_9951" data-name="Path 9951" d="M2786.122,1122.394c.2-2.452.545-9.068.434-9.882.742-2.546,3.448-6.322,4.015-7.39,0,0-3.671-4.159-6.393-4.124,0,0-2.9,3.657-5.044,4.778a5.3,5.3,0,0,1-1.081.322c-2.074-.014-9.326-.234-10.679.17l.766,11.2c.39.643.864,13.526,1.666,14.586s12.474,5.888,14.408,4.642C2784.291,1136.652,2785.713,1127.351,2786.122,1122.394Z" transform="translate(-2719.418 -1033.232)" fill="#50bfa5"/>
      <path id="Path_9952" data-name="Path 9952" d="M2751.458,1118.592c-1.338-.639-11.108-.618-11.108-.618s-1.353,6.74-.26,8.36c0,0,8.654,1.287,8.408,2Z" transform="translate(-2699.725 -1045.296)" fill="#50bfa5"/>
      <path id="Path_9953" data-name="Path 9953" d="M2787.936,1099.388a29.918,29.918,0,0,1,.6,5.42c-.151,1.534.573,6.475,3.818,6.492s.616-6.283.31-7.786a57.527,57.527,0,0,1-.378-6.153Z" transform="translate(-2734.031 -1030.647)" fill="#f7a491"/>
      <path id="Path_9954" data-name="Path 9954" d="M2792.355,1099.694c-.051-1.272-.067-2.333-.067-2.333l-4.352,2.027s.154.795.308,1.808A3.8,3.8,0,0,0,2792.355,1099.694Z" transform="translate(-2734.031 -1030.647)" fill="#f47458"/>
      <path id="Path_9955" data-name="Path 9955" d="M2776.341,1066.03a5.394,5.394,0,0,0-2.29,2.947c-.613,2.016.085,7.22,4.417,8.475s6.208-2.865,5.316-6.086S2780.951,1064.066,2776.341,1066.03Z" transform="translate(-2724.027 -1008.017)" fill="#f7a491"/>
      <path id="Path_9956" data-name="Path 9956" d="M2805.52,1077.345c-.085.865-.562,1.526-1.066,1.477s-.844-.791-.759-1.656.562-1.526,1.065-1.476S2805.6,1076.48,2805.52,1077.345Z" transform="translate(-2745.22 -1015.245)" fill="#f7a491"/>
      <path id="Path_9957" data-name="Path 9957" d="M2830.074,1417.889c-.249-.7-3.086,1.4-3.753,1.819a1.438,1.438,0,0,0-.81,1.163c.035.338,6.762,9.233,8.776,10.5a1.181,1.181,0,0,0,.72.094c1.156-.4-.457-7.544-1.907-8.995A9.088,9.088,0,0,1,2830.074,1417.889Z" transform="translate(-2760.733 -1258.333)" fill="#3c8f7c"/>
      <g id="Group_8117" data-name="Group 8117" transform="translate(43.357)">
        <path id="Path_9958" data-name="Path 9958" d="M2752.782,893.433l11.934,4.242a1.961,1.961,0,0,1,1.237,1.343l3.266,12.27a1.958,1.958,0,0,0,3.448.688L2780.4,901.9a1.958,1.958,0,0,1,1.657-.766l12.65.659a1.968,1.968,0,0,0,1.723-3.077l-7.159-10.471a1.97,1.97,0,0,1-.211-1.817l4.551-11.862a1.961,1.961,0,0,0-2.383-2.589l-12.153,3.606a1.956,1.956,0,0,1-1.789-.357l-9.837-7.991a1.962,1.962,0,0,0-3.2,1.477l-.352,12.7a1.971,1.971,0,0,1-.894,1.6l-10.631,6.924A1.968,1.968,0,0,0,2752.782,893.433Z" transform="translate(-2751.478 -866.793)" fill="#f7cc7f"/>
      </g>
      <path id="Path_9959" data-name="Path 9959" d="M2838.811,985.949c-.445.654,1.967,2.724,2.635,3.869l1.515-2.063C2842.214,987.609,2839.319,985.2,2838.811,985.949Z" transform="translate(-2770.146 -951.37)" fill="#f7a491"/>
      <path id="Path_9960" data-name="Path 9960" d="M2772.948,1066.383s-.785,5.8-2.662,6.852-1.091,3.623-1.091,3.623-1.7-5.979-.219-7.9A8.259,8.259,0,0,1,2772.948,1066.383Z" transform="translate(-2720.125 -1008.633)" fill="#13375b"/>
      <path id="Path_9961" data-name="Path 9961" d="M2773.354,1090.777c.51.756.507,1.648,0,1.992s-1.338.01-1.846-.746-.507-1.649,0-1.992S2772.845,1090.021,2773.354,1090.777Z" transform="translate(-2722.082 -1025.342)" fill="#f7a491"/>
      <path id="Path_9962" data-name="Path 9962" d="M2850.107,987.984c-.011.014-.024.026-.035.04l-.549.716a2.188,2.188,0,0,1,1.923.185A2.337,2.337,0,0,0,2850.107,987.984Z" transform="translate(-2777.798 -952.918)" fill="#f47257"/>
    </g>
    <g id="Group_8122" data-name="Group 8122" transform="translate(4177.057 1331.946)">
      <g id="Group_8119" data-name="Group 8119" transform="translate(14.703 110.651)">
        <path id="Path_9963" data-name="Path 9963" d="M3000.226,1235.52a25.02,25.02,0,0,1-4.166,4.879,18.222,18.222,0,0,0-3.885,7.494c-.844,4.233-.142,25.145-.876,26.634-6.307,6.166-10.875,21.642-12.157,26.364a5.06,5.06,0,0,1-1.458,2.395h0l.281,5.335,3.134,2.887s-.7-4.348.7-7.573c0,0,15.88-24.05,16.823-25.888,1.8-5.235,8.36-32.058,8.36-32.058l1.522-6.166Z" transform="translate(-2974.25 -1235.52)" fill="#f7a491"/>
        <path id="Path_9964" data-name="Path 9964" d="M2965.817,1471.227s1.983,3.057,2.153,4.248,1.226,3.893,2.395,4.064c.265.039,4.81.372,4.777-.2-.025-.434-1.67-1.054-2.434-1.581-1.32-.911-3.37-8.339-3.37-8.339S2965.9,1470.275,2965.817,1471.227Z" transform="translate(-2965.817 -1401.744)" fill="#f47458"/>
      </g>
      <path id="Path_9965" data-name="Path 9965" d="M3078.872,1256.16s10.229,21.871,10.294,25.716c.056,3.3-1.788,21.789-1.273,37.189.019.556.723,1.3,1.748,1.765.577.264,3.362,1.509,3.362,1.509l.383,1-9.593-.683-.136-2.619s-3.819-23.038-3.429-29.553c.061-1.023.559-7.151.559-7.151l-11.536-22.273,7.255-9.534Z" transform="translate(-3024.619 -1136.24)" fill="#f7a491"/>
      <path id="Path_9966" data-name="Path 9966" d="M3038.007,1072.7a8.854,8.854,0,0,0-9.815-5.856,9.251,9.251,0,0,0-5.8-4.142c-4.629-.992-10.89.837-10.721,5.739-1.8,3.293-1.865,8,.883,10.507-.956,4.427,3.192,8.709,8.583,8.553a9.532,9.532,0,0,0,9.011,4.662,21.532,21.532,0,0,1,2.371-.261c-.271-.051,5.714,4.538,10.785-2.518C3048.481,1082.183,3044.844,1073.467,3038.007,1072.7Z" transform="translate(-2982.794 -1001.869)" fill="#355389"/>
      <path id="Path_9967" data-name="Path 9967" d="M3077.609,1000.761a9.6,9.6,0,0,1,.921-1.688l.4-.583a2.7,2.7,0,0,0,.107-.249,9.325,9.325,0,0,0,.041-2.177l-3.5.847-.768,2.019c-.779-.359-2.109-3.068-2.595-2.417-.574.768,1.588,4.1,1.759,5s-1.859,14.895-2.445,17.673-4.546,10.537-4.546,10.537l3.622,4.6s5.806-11.828,6.188-15.438c.04-.38.085-.948.134-1.652Z" transform="translate(-3023.009 -954.697)" fill="#f7a491"/>
      <path id="Path_9968" data-name="Path 9968" d="M2945.481,1153.271l-4.3-3.645s-3.482,5.805-6.271,10.539c-2.767-1-9.916-5.661-10.269-5.875s-1.137-5.482-1.743-5.2.465,2.78-.27,2.967-6.239-3.492-6.353-3c-.211.919,3.286,2.384,3.109,2.794s-3.516-1.877-4.048-1.306,3.356,1.861,3.376,2.233-3.811-.708-3.709.095c.055.436,3.428.876,3.216,1.34s-2.841.54-2.731,1.036,2.193-.37,3.465.187,2.466.283,4.241,1.78,10.5,10.033,13.213,9.3C2938.782,1165.874,2945.481,1153.271,2945.481,1153.271Z" transform="translate(-2915.002 -1063.389)" fill="#f7a491"/>
      <g id="Group_8120" data-name="Group 8120" transform="translate(22.442 73.977)">
        <path id="Path_9969" data-name="Path 9969" d="M3021.473,1358.348s0,0,0,0Z" transform="translate(-3013.108 -1286.133)" fill="#f47458"/>
        <path id="Path_9970" data-name="Path 9970" d="M3015.56,1119.252c.274-1.682,2.877-5.89,3.287-6.922,0,0-3.016-3.834-5.466-3.544,0,0-3.292,5.456-5.162,5.64s-8.453.469-9.606,1.169-6.049,8.216-6.049,8.216,4.4,4.493,6.169,4.483a18.491,18.491,0,0,1,1.316-2.257c.267.861,4.366,14.14,4.359,17.148l.032.025a8.607,8.607,0,0,0,12.377-1.59h0a68.325,68.325,0,0,1-.151-7.957C3016.975,1127.682,3018.185,1124.5,3015.56,1119.252Z" transform="translate(-2992.564 -1108.771)" fill="#f47458"/>
        <path id="Path_9971" data-name="Path 9971" d="M3054.721,1251.3l-20.076-29a19.692,19.692,0,0,1-3.733,1.193,38.68,38.68,0,0,1-8.676.372,2.231,2.231,0,0,1-.017.285c-.335,2.391-3.507,6.093-4.16,13.35a177.526,177.526,0,0,0-.042,23.483C3031.364,1259.36,3050.934,1255.28,3054.721,1251.3Z" transform="translate(-3010.392 -1189.451)" fill="#44a6f9"/>
      </g>
      <g id="Group_8121" data-name="Group 8121" transform="translate(27.301 0)">
        <path id="Path_9972" data-name="Path 9972" d="M3095.733,1004.52a3.471,3.471,0,0,1-2.333.572,4.371,4.371,0,0,1-1.563-.67,4.4,4.4,0,0,0,1.467,1.551C3094.812,1006.783,3095.733,1004.52,3095.733,1004.52Z" transform="translate(-3067.972 -960.637)" fill="#f47458"/>
        <path id="Path_9973" data-name="Path 9973" d="M3012.226,891l11.673-2.409a1.8,1.8,0,0,1,1.645.51l8.536,8.678a1.824,1.824,0,0,0,3.114-1.149l1.393-12.339a1.92,1.92,0,0,1,.97-1.474l10.528-5.779a1.962,1.962,0,0,0-.089-3.448l-10.812-5.218a1.918,1.918,0,0,1-1.045-1.421l-2.029-12.25a1.823,1.823,0,0,0-3.169-.983l-8.076,9.115a1.8,1.8,0,0,1-1.616.6l-11.782-1.792a1.908,1.908,0,0,0-1.869,2.841l5.821,10.851a2,2,0,0,1,.046,1.79l-5.253,11.142A1.906,1.906,0,0,0,3012.226,891Z" transform="translate(-3009.358 -853.098)" fill="#f7cc7f"/>
      </g>
      <path id="Path_9974" data-name="Path 9974" d="M3034.971,1106.732a30.322,30.322,0,0,1,.564,5.3c-.141,1.5.538,6.334,3.587,6.35s.579-6.146.292-7.616a58.508,58.508,0,0,1-.355-6.02Z" transform="translate(-3000.259 -1031.935)" fill="#f7a491"/>
      <path id="Path_9975" data-name="Path 9975" d="M3039.122,1107.032c-.047-1.245-.063-2.283-.063-2.283l-4.089,1.983s.144.777.289,1.768A3.5,3.5,0,0,0,3039.122,1107.032Z" transform="translate(-3000.259 -1031.935)" fill="#f47458"/>
      <path id="Path_9976" data-name="Path 9976" d="M3024.077,1074.1a5.225,5.225,0,0,0-2.152,2.883c-.576,1.973.08,7.063,4.15,8.291s5.833-2.8,5-5.954S3028.408,1072.176,3024.077,1074.1Z" transform="translate(-2990.859 -1009.796)" fill="#f7a491"/>
      <path id="Path_9977" data-name="Path 9977" d="M3051.492,1085.167c-.079.846-.529,1.493-1,1.445s-.793-.774-.713-1.62.528-1.493,1-1.445S3051.572,1084.321,3051.492,1085.167Z" transform="translate(-3010.772 -1016.866)" fill="#f7a491"/>
      <path id="Path_9978" data-name="Path 9978" d="M3021.269,1098.308c.478.74.477,1.612,0,1.949s-1.257.01-1.735-.73-.477-1.612,0-1.949S3020.792,1097.568,3021.269,1098.308Z" transform="translate(-2989.031 -1026.745)" fill="#f7a491"/>
      <path id="Path_9979" data-name="Path 9979" d="M3097.088,988.694c-.789-.153-4.13,2.469-4.1,2.861s3.291-1.271,3.382-1c.073.21-3.649,1.185-3.455,1.559.133.255,3.472-.449,3.561-.285.14.256-2.786.365-2.6.648.219.327,3,.193,3,.193a6.289,6.289,0,0,0,.617-1.24,2.708,2.708,0,0,0,.013-.577c-.011-.186.071-.346.045-.555C3097.455,989.451,3097.524,988.779,3097.088,988.694Z" transform="translate(-3041.432 -949.456)" fill="#f7a491"/>
      <path id="Path_9980" data-name="Path 9980" d="M3086.839,995.2l-1.244,1.537-.82-.612a.408.408,0,0,1,.027-.341C3084.9,995.572,3086.811,994.632,3086.839,995.2Z" transform="translate(-3035.635 -953.956)" fill="#f7a491"/>
      <path id="Path_9981" data-name="Path 9981" d="M3118.8,1492.844h12.119c.448-.04.558-.4.4-.625-.32-.459-1.733-.8-3.323-1.527-2.787.29-8.857-1.615-9.3-2.254C3118.443,1489.717,3118.546,1492.789,3118.8,1492.844Z" transform="translate(-3059.655 -1304.606)" fill="#f47458"/>
      <path id="Path_9982" data-name="Path 9982" d="M3087.667,1000.587a7.945,7.945,0,0,1,2.325,2.178,2.83,2.83,0,0,1,.367,2.148l-2.818-3.467Z" transform="translate(-3037.618 -957.912)" fill="#f7a491"/>
    </g>
    <g id="Group_8124" data-name="Group 8124" transform="translate(3927.727 1296.958)">
      <path id="Path_9983" data-name="Path 9983" d="M2087.322,746l-18.66,4.063a4.079,4.079,0,0,1-4.854-3.118l-2.288-10.508a4.079,4.079,0,0,1,3.117-4.853l18.661-4.063a4.079,4.079,0,0,1,4.853,3.118l2.288,10.508A4.079,4.079,0,0,1,2087.322,746Z" transform="translate(-2057.355 -727.423)" fill="#50bfa5"/>
      <path id="Path_9984" data-name="Path 9984" d="M2053.46,775.8l-6.105,9.868,9.369-4.032Z" transform="translate(-2047.354 -761.801)" fill="#50bfa5"/>
      <g id="Group_8123" data-name="Group 8123" transform="translate(12.617 3.867)">
        <path id="Path_9985" data-name="Path 9985" d="M2091.344,748.165l2.377-.581s2.5-2.924,2.413-3.738-.959-2.383-.54-2.7a1.6,1.6,0,0,1,2.23.2c.625.661.876,3.53,1.2,3.653a12.911,12.911,0,0,0,2.578-.451,1.815,1.815,0,0,1,1.787.586h0a.967.967,0,0,1,.035,1.217l-.431.565.544.462a.967.967,0,0,1,.115,1.358l-.348.415.362.262a.967.967,0,0,1,.147,1.433l-.315.346.08.091a.966.966,0,0,1-.029,1.306l-.319.333-6.329,1.547a4.481,4.481,0,0,1-1.811.065l-2.316.176a.5.5,0,0,1-.53-.39l-1.27-5.56A.5.5,0,0,1,2091.344,748.165Z" transform="translate(-2090.959 -740.787)" fill="#fff"/>
      </g>
    </g>
    <g id="Group_8126" data-name="Group 8126" transform="translate(4071.063 1263.016)">
      <path id="Path_9986" data-name="Path 9986" d="M2571.779,610.766c12.85,2.393,22.075,10.731,20.6,18.625-.735,3.947-4,7.035-8.7,8.837l3.048,12.609-9.289-11.09a36.048,36.048,0,0,1-10.99-.4c-12.85-2.393-22.075-10.732-20.6-18.625S2558.93,608.373,2571.779,610.766Z" transform="translate(-2545.698 -610.119)" fill="#fae0b2"/>
      <g id="Group_8125" data-name="Group 8125" transform="translate(16.283 6.169)">
        <path id="Path_9987" data-name="Path 9987" d="M2617.655,643.264a8.247,8.247,0,1,1-3.863-11.007A8.245,8.245,0,0,1,2617.655,643.264Z" transform="translate(-2601.973 -631.442)" fill="#f7cc7f"/>
        <path id="Path_9988" data-name="Path 9988" d="M2613.719,657.429a4.409,4.409,0,1,0,7.949,3.819Z" transform="translate(-2610.011 -649.91)" fill="#efefef"/>
      </g>
    </g>
    <g id="Group_8128" data-name="Group 8128" transform="translate(4137.889 1261)">
      <path id="Path_9989" data-name="Path 9989" d="M2804.053,620.433l-24.073,0a2.2,2.2,0,0,1-2.034-3.035l5.294-12.881a2.2,2.2,0,0,1,2.034-1.363l24.073,0a2.2,2.2,0,0,1,2.033,3.034l-5.293,12.881A2.2,2.2,0,0,1,2804.053,620.433Z" transform="translate(-2777.779 -603.151)" fill="#44a6f9"/>
      <g id="Group_8127" data-name="Group 8127" transform="translate(7.507 1.684)">
        <path id="Path_9990" data-name="Path 9990" d="M2813.367,617.181l-9.315-6.765a.8.8,0,0,1,.938-1.292l8.572,6.225,12.356-5.457a.8.8,0,0,1,.645,1.461Z" transform="translate(-2803.723 -608.971)" fill="#fff"/>
      </g>
    </g>
  </g>
</svg>
