<svg xmlns="http://www.w3.org/2000/svg" xmlns:xlink="http://www.w3.org/1999/xlink" width="500" height="483.806" viewBox="0 0 500 483.806">
  <defs>
    <linearGradient id="linear-gradient" x1="-0.162" y1="0.676" x2="0.787" y2="0.205" gradientUnits="objectBoundingBox">
      <stop offset="0" stop-color="#6d6afe"/>
      <stop offset="1" stop-color="#3fb0f7"/>
    </linearGradient>
    <linearGradient id="linear-gradient-2" x1="0.455" y1="0.546" x2="0.654" y2="0.342" xlink:href="#linear-gradient"/>
    <linearGradient id="linear-gradient-3" x1="-0.119" y1="-0.24" x2="0.629" y2="0.689" gradientUnits="objectBoundingBox">
      <stop offset="0" stop-color="#fd70cb"/>
      <stop offset="1" stop-color="#6e4dfd"/>
    </linearGradient>
    <linearGradient id="linear-gradient-4" x1="0.249" y1="0.574" x2="1.129" y2="0.313" xlink:href="#linear-gradient"/>
    <linearGradient id="linear-gradient-5" x1="0.472" y1="0.045" x2="0.513" y2="0.769" gradientUnits="objectBoundingBox">
      <stop offset="0" stop-color="#fd90da"/>
      <stop offset="1" stop-color="#8e6dfd"/>
    </linearGradient>
    <linearGradient id="linear-gradient-6" x1="0.474" y1="0.042" x2="0.515" y2="0.765" xlink:href="#linear-gradient-5"/>
    <linearGradient id="linear-gradient-7" x1="0.66" y1="0.295" x2="0.434" y2="0.584" xlink:href="#linear-gradient-5"/>
    <linearGradient id="linear-gradient-8" x1="0.412" y1="0.088" x2="0.587" y2="0.799" xlink:href="#linear-gradient-3"/>
    <linearGradient id="linear-gradient-9" x1="0.424" y1="0.675" x2="0.578" y2="0.322" gradientUnits="objectBoundingBox">
      <stop offset="0" stop-color="#1c8ef4"/>
      <stop offset="1" stop-color="#00cfdd"/>
    </linearGradient>
    <linearGradient id="linear-gradient-10" x1="0.557" y1="0.466" x2="0.821" y2="0.31" xlink:href="#linear-gradient"/>
    <linearGradient id="linear-gradient-11" x1="0.468" y1="0.493" x2="-0.068" y2="0.569" gradientUnits="objectBoundingBox">
      <stop offset="0" stop-color="#ff8a78"/>
      <stop offset="1" stop-color="#ffa799"/>
    </linearGradient>
    <linearGradient id="linear-gradient-12" x1="-0.149" y1="0.728" x2="0.476" y2="0.494" gradientUnits="objectBoundingBox">
      <stop offset="0" stop-color="#ffb89e"/>
      <stop offset="0.995" stop-color="#ffa799"/>
    </linearGradient>
    <linearGradient id="linear-gradient-13" x1="0.751" y1="0.853" x2="0.05" y2="0.036" gradientUnits="objectBoundingBox">
      <stop offset="0" stop-color="#965cf2"/>
      <stop offset="1" stop-color="#ff8adc"/>
    </linearGradient>
    <linearGradient id="linear-gradient-14" x1="0.288" y1="0.763" x2="0.809" y2="0.475" xlink:href="#linear-gradient-13"/>
    <linearGradient id="linear-gradient-15" x1="0.512" y1="0.43" x2="0.577" y2="0.616" xlink:href="#linear-gradient-12"/>
    <linearGradient id="linear-gradient-16" x1="0.667" y1="0.736" x2="0.297" y2="-0.094" xlink:href="#linear-gradient-13"/>
    <linearGradient id="linear-gradient-17" x1="0.57" y1="0.86" x2="0.422" y2="0.257" xlink:href="#linear-gradient-13"/>
    <linearGradient id="linear-gradient-18" x1="0.505" y1="0.464" x2="0.611" y2="0.799" xlink:href="#linear-gradient-11"/>
    <linearGradient id="linear-gradient-19" x1="0.732" y1="0.132" x2="0.397" y2="0.819" gradientUnits="objectBoundingBox">
      <stop offset="0" stop-color="#5a2d68"/>
      <stop offset="1" stop-color="#22043d"/>
    </linearGradient>
    <linearGradient id="linear-gradient-21" x1="0.896" y1="0.617" x2="-0.347" y2="0.249" xlink:href="#linear-gradient"/>
    <linearGradient id="linear-gradient-22" x1="0.474" y1="0.042" x2="0.515" y2="0.765" xlink:href="#linear-gradient-5"/>
    <linearGradient id="linear-gradient-23" x1="0.896" y1="0.617" x2="-0.347" y2="0.249" xlink:href="#linear-gradient"/>
    <linearGradient id="linear-gradient-25" x1="0.856" y1="0.639" x2="-0.173" y2="0.237" xlink:href="#linear-gradient"/>
    <linearGradient id="linear-gradient-26" x1="0.422" y1="0.679" x2="0.58" y2="0.316" xlink:href="#linear-gradient-9"/>
  </defs>
  <g id="ui-ux-logo" transform="translate(-2899.74 -196.973)">
    <g id="Group_9403" data-name="Group 9403" transform="translate(2997.098 231.071)">
      <path id="Path_13114" data-name="Path 13114" d="M3692.438,1470.363l-120.382-68.756c-4.468-2.041-11.033-3.968-15.415-1.3l-11.212,6.831c-2.256,1.374-9.674,5.935-4.712,8.632,14.595,7.936,107.849,62.422,122.67,70.484,2.8,1.525,6.9,2.076,11.208,1.719a28.166,28.166,0,0,0,12.138-3.615l4.479-2.763c3.166-1.953,4.919-4.085,5.088-6.132C3696.465,1473.468,3695.181,1471.614,3692.438,1470.363Z" transform="translate(-3427.932 -1041.136)" fill="#5f7ffb" fill-rule="evenodd" opacity="0.2"/>
      <g id="Group_9395" data-name="Group 9395" transform="translate(0 0)">
        <path id="Path_13115" data-name="Path 13115" d="M3215.029,516.822a34.63,34.63,0,0,0,5.269,3.779l1.551-2.687a31.272,31.272,0,0,1-4.8-3.443l-2.023,2.351Zm-12.676-27.592-3.094.221-.442-6.187,3.095-.221.441,6.187Zm20.162-154.223-1.543,2.691-5.381-3.086,1.543-2.691,5.381,3.086Zm51.2,29.08-.291-.167-1.543,2.691.291.167,1.543-2.691Zm-2.982-1.711-1.543,2.691-5.382-3.086,1.543-2.691,5.382,3.087Zm-8.073-4.63-1.543,2.691-5.381-3.087,1.543-2.691,5.382,3.087Zm-8.072-4.63-1.543,2.691-5.381-3.087,1.543-2.691,5.381,3.087Zm-8.072-4.63-1.543,2.691-5.381-3.086,1.543-2.691,5.381,3.086Zm-8.072-4.629-1.543,2.691-5.381-3.086,1.543-2.691,5.381,3.086Zm-8.071-4.629-1.543,2.691-5.381-3.086,1.543-2.691,5.381,3.086Zm-17.326-8.042-.073-.008a13.066,13.066,0,0,0-6.813,1.018l1.3,2.818a10.045,10.045,0,0,1,5.245-.745l.342-3.083Zm-9.859,2.974a14.022,14.022,0,0,0-3.717,5.817l2.929,1.018.112-.307a10.763,10.763,0,0,1,2.765-4.236l-2.089-2.293Zm-4.544,9.076a26.709,26.709,0,0,0-.337,4.184l.008,2.26,3.1-.009-.008-2.251a23.589,23.589,0,0,1,.3-3.677l-3.061-.507Zm-.32,9.547,3.1-.01.021,6.2-3.1.01-.021-6.2Zm.03,9.305,3.1-.01.021,6.2-3.1.009-.021-6.2Zm.031,9.306,3.1-.01.02,6.2-3.1.01-.02-6.2Zm.031,9.305,3.1-.01.021,6.2-3.1.01-.02-6.2Zm.03,9.305,3.1-.009.02,6.2-3.1.01-.021-6.2Zm.031,9.306,3.1-.01.02,6.2-3.1.01-.02-6.2Zm.031,9.305,3.1-.009.02,6.2-3.1.01-.021-6.2Zm.031,9.306,3.1-.01.02,6.2-3.1.01-.02-6.2Zm.03,9.305,3.1-.009.02,6.2-3.1.01-.02-6.2Zm.03,9.306,3.1-.01.02,6.2-3.1.01-.02-6.2Zm.03,9.305,3.1-.01.02,6.2-3.1.01-.02-6.2Zm.03,9.305,3.1-.01.02,6.2-3.1.009-.02-6.2Zm.03,9.306,3.1-.01.02,6.2-3.1.01-.02-6.2Zm.03,9.305,3.1-.01.02,6.2-3.1.01-.02-6.2Zm.03,9.524v0Zm1.3,9.376a46.561,46.561,0,0,0,2.086,6.06l2.856-1.211a40.669,40.669,0,0,1-1.949-5.663l-2.993.815Zm3.417,8.964a43.208,43.208,0,0,0,3.187,5.541l2.584-1.714a44.392,44.392,0,0,1-2.994-5.208l-2.777,1.381Zm5.029,8.154a47.562,47.562,0,0,0,4.184,4.851l2.2-2.183a44.557,44.557,0,0,1-3.912-4.537Z" transform="translate(-3198.305 -321.46)" fill-rule="evenodd" fill="url(#linear-gradient)"/>
        <g id="Group_9394" data-name="Group 9394" transform="translate(13.808)">
          <g id="Group_9373" data-name="Group 9373" transform="translate(0 94.216)">
            <g id="Group_9372" data-name="Group 9372">
              <g id="Group_9365" data-name="Group 9365">
                <path id="Path_13116" data-name="Path 13116" d="M3246.018,592.4c1.128-.6,2.266-1.176,3.39-1.771a4.573,4.573,0,0,1,3.669.649c34.434,19.75,68.8,40.194,103.234,59.946a12.94,12.94,0,0,1,5.864,10.158l.169,136.313a4.307,4.307,0,0,1-1.457,3.6,10.025,10.025,0,0,1-4.058,2.059,2.448,2.448,0,0,1-1.543-.294c-34.436-19.751-68.162-41.951-102.591-61.7a12.928,12.928,0,0,1-5.864-10.158Z" transform="translate(-3244.268 -590.472)" fill="#d0e7ff" fill-rule="evenodd"/>
                <path id="Path_13117" data-name="Path 13117" d="M3240.649,599.394c.01-3.731,2.653-5.242,5.9-3.364,34.433,19.75,68.8,40.194,103.233,59.946a12.937,12.937,0,0,1,5.864,10.158l.169,136.313c-.011,3.73-2.657,5.238-5.9,3.363-34.435-19.751-68.8-40.2-103.233-59.946a12.928,12.928,0,0,1-5.865-10.158Z" transform="translate(-3240.649 -593.674)" fill-rule="evenodd" fill="url(#linear-gradient-2)"/>
              </g>
              <g id="Group_9371" data-name="Group 9371" transform="translate(0.073 24.311)">
                <g id="Group_9366" data-name="Group 9366" transform="translate(0.03 47.515)">
                  <path id="Path_13118" data-name="Path 13118" d="M3240.965,810.739l114.953,66.369.018,19.454-114.948-66.442Z" transform="translate(-3240.965 -810.739)" fill="#6699fd" fill-rule="evenodd"/>
                  <path id="Path_13119" data-name="Path 13119" d="M3240.965,959.682l114.953,66.369.018,19.454-114.948-66.442Z" transform="translate(-3240.965 -911.114)" fill="#6699fd" fill-rule="evenodd"/>
                </g>
                <g id="Group_9367" data-name="Group 9367" transform="translate(12.633 30.909)">
                  <path id="Path_13120" data-name="Path 13120" d="M3461.337,867.468a4.658,4.658,0,0,0-2.321-4.166,14.579,14.579,0,0,0-3.111-1.438l0,1.7,2.3,1.328c.808.467,1.151.752,1.148,1.467,0,.874-2.542,1.769-3.368,1.938l0,1.964,5.344,3.085.006-2.037-2.143-1.236C3459.805,869.769,3461.332,869.074,3461.337,867.468Z" transform="translate(-3398.416 -828.587)" fill="#fff" fill-rule="evenodd" opacity="0.8"/>
                  <path id="Path_13121" data-name="Path 13121" d="M3549.543,918.4v-.445a3.867,3.867,0,0,0-1.92-3.29c-.265-.158-.531-.314-.793-.467a9.364,9.364,0,0,0-2.58-1.158l0,1.713,2.364,1.365c.543.315.96.555.96,1.163v.107c0,.536-.25.392-.966.015l-1.662-.854,0,1.877,1.662,1.048c.667.4.946.6.944,1.136v.108c0,.553-.219.429-1-.022l-2.236-1.29,0,1.747a14.686,14.686,0,0,0,2.881,1.989c.112.063.222.126.333.192,1.226.709,2.008.353,2.01-1.059l0-.355a3.029,3.029,0,0,0-.852-2.3C3549.3,919.736,3549.541,919.28,3549.543,918.4Z" transform="translate(-3457.952 -863.077)" fill="#fff" fill-rule="evenodd" opacity="0.8"/>
                  <path id="Path_13122" data-name="Path 13122" d="M3283.174,766.943c0,.622-.236.543-.561.355l-.434-.25a1.062,1.062,0,0,1-.573-1.029l.009-3.124c0-.144-.014-.687.5-.392l.59.34a.976.976,0,0,1,.481.959l-.009,3.141Zm.11-5.821-1.662-.959c-1.289-.745-1.992-.292-2,1.244l-.012,3.963a3.747,3.747,0,0,0,1.967,3.37l1.678.969c1.211.7,1.9.239,1.9-1.136l.012-4.088A3.618,3.618,0,0,0,3283.284,761.122Z" transform="translate(-3279.614 -759.813)" fill="#fff" fill-rule="evenodd" opacity="0.8"/>
                  <path id="Path_13123" data-name="Path 13123" d="M3372.454,814.186l-1.23.256-.005,1.445,1.2.458-.018,6.41,1.989,1.148.023-8.588Z" transform="translate(-3341.348 -796.456)" fill="#fff" fill-rule="evenodd" opacity="0.8"/>
                </g>
                <g id="Group_9368" data-name="Group 9368" transform="translate(11.169)">
                  <path id="Path_13124" data-name="Path 13124" d="M3347.633,727.75l.035-12.232-7.264,1.946Z" transform="translate(-3319.118 -699.053)" fill="#fff" fill-rule="evenodd" opacity="0.8"/>
                  <path id="Path_13125" data-name="Path 13125" d="M3366.682,717.865l-.035,12.231,1.328.768.034-12.231Z" transform="translate(-3336.803 -700.635)" fill="#fff" fill-rule="evenodd" opacity="0.8"/>
                  <path id="Path_13126" data-name="Path 13126" d="M3282.493,684.057l7.252,10.325.035-12.256Z" transform="translate(-3280.091 -676.549)" fill="#fff" fill-rule="evenodd" opacity="0.8"/>
                  <path id="Path_13127" data-name="Path 13127" d="M3275.125,677.285l1.308.726.034-12.233-1.307-.754Z" transform="translate(-3275.125 -665.024)" fill="#fff" fill-rule="evenodd" opacity="0.8"/>
                  <path id="Path_13128" data-name="Path 13128" d="M3486.773,787.2l-.036,12.232,7.287-1.9Z" transform="translate(-3417.733 -747.361)" fill="#fff" fill-rule="evenodd" opacity="0.8"/>
                  <path id="Path_13129" data-name="Path 13129" d="M3478.729,794.817l1.306.751.034-12.233-1.3-.75Z" transform="translate(-3412.337 -744.25)" fill="#fff" fill-rule="evenodd" opacity="0.8"/>
                  <path id="Path_13130" data-name="Path 13130" d="M3415.478,746.034l-.035,12.26,7.265-1.945Z" transform="translate(-3369.687 -719.618)" fill="#00cedc" fill-rule="evenodd" opacity="0.8"/>
                  <path id="Path_13131" data-name="Path 13131" d="M3537.05,828.507l7.265-1.945-7.229-10.315Z" transform="translate(-3451.64 -766.935)" fill="#fff" fill-rule="evenodd" opacity="0.8"/>
                  <path id="Path_13132" data-name="Path 13132" d="M3562.555,830.961l-.034,12.231,1.329.794.035-12.261Z" transform="translate(-3468.804 -776.852)" fill="#fff" fill-rule="evenodd" opacity="0.8"/>
                </g>
                <path id="Path_13133" data-name="Path 13133" d="M3240.93,848.558l1.407-1,.469,2.549.88-1,1.583,1.5.586,1.676,1.876.758,1.583-19.252-.293,20.444.469-1.027.469.907.645-2.131.528-1.317.469,4.132,1.407,2.2s1.465,2.491,1.583,2.147,2.053-12.365,2.053-12.365l.117,11.2,2.58-15.91-.528,16.561,1.759-15.548v16.768l2.111-8.258.177,6.049,1.055-3.747.528,7.536,1.583-4.713.293,8.226,1.642-4.123-.351,5.842-.117,4.156,1.054-1.989.235,3s.939-3.051,1.056-2.106.41,3.543.41,3.543,1.056-3.807,1.114-3.276.973.874,1.054.416c.75-4.221,1.375-8.241,2.288-12.117l-.938,14.953.558,2.378.85-9.213,1.172-6.262v6.1l-.938,9.442c-.4,3.989,1.1-7.064,1.76-11.034,0,0,.469-2.786.469-1.614s-.117,5.857-.117,5.857l-.7,8.248.439.188,3.2-28.78-1.407,31.81a75.711,75.711,0,0,0,2.932-14.335l-.7,10.716-.353,4.552,1.407-7.186.938-3.11.352,2.249.7-1.6.469,2.842.938-1.468.528,1.5.058,5.045.469-1.848.118,2.118.938-1.116.117,1.414,1.349,1.723,1.231,2.126,1.641-8.813-.234,9.132,2.444-15.5-.333,15.389c2.389-8.9,3.845-36.585,3.4-27.235l-.956,20.062.251-.287.469,2.549.88-1,1.583,1.5.586,1.677,1.877.757,1.583-19.252-.293,20.444.469-1.027.469.908.645-2.131.528-1.317.469,4.132,1.408,2.2s1.465,2.491,1.583,2.147,2.052-12.366,2.052-12.366l.117,11.205,2.58-15.91-.528,16.56,1.759-15.549v16.768l2.111-8.257.176,6.049,1.055-3.748.528,7.536,1.583-4.713.293,8.226,1.642-4.123-.351,5.842-.117,4.156,1.055-1.988.234,3s.938-3.051,1.055-2.106.41,3.542.41,3.542,1.056-3.806,1.114-3.275.973.874,1.055.415c.75-4.221,1.375-8.24,2.287-12.117l-.938,14.953.557,2.378.85-9.212,1.173-6.262v6.1l-.938,9.442c-.4,3.988,1.1-7.064,1.759-11.034,0,0,.469-2.786.469-1.613s-.117,5.856-.117,5.856l-.7,8.248.439.187,3.2-28.78-1.407,31.81a75.776,75.776,0,0,0,2.932-14.335l-.7,10.717-.352,4.552,1.407-7.186.938-3.11.351,2.249.7-1.6.469,2.842.938-1.468.528,1.5.058,5.046.469-1.848.117,2.117.938-1.115.117,1.414,1.348,1.722,1.231,2.126,1.642-8.813-.234,9.132,2.444-15.5-.333,15.389c1.664-8.945,3.2-36.993,3.4-27.234l.632,30.021,1.943-1.058.351,2.728,1.248-.709L3356,938.058l-1.341-2.767-1.47-.05-1.478-1.9-2.1,23.615c-.868,9.763.238-19.458-1.47-31.154l-.694,15.723-1.326-18.33-.377,9.374-1-10.723-1.322.66-1.409.118-.206,1.269-.827-2.222-.253,1.97-.329-2.4-.389,4.956-.605.866-.8-2.573-.637,2.276-.57-2.426-.486,1.823-.7-4.209-.878-8.824.038,4.951-.031,11.508a132.577,132.577,0,0,0-1.871-17.751l-.745,33.351-1.173-32.451-.434-.334.133,9.049s-.2,4.8-.274,5.971-.344-2.162-.344-2.162c-.367-4.73-1.08-17.515-.963-13.074l.279,10.515-.4,6.074-.713-7.626-.209-10.182-.691,1.708-.085,16c-.62-4.942-.956-9.685-1.4-14.778-.048-.553-.949-1.3-1.04-.836s-.854-4.582-.854-4.582-.453,2.24-.628,3.042-.875-3.348-.875-3.348l-.423,2.715-.882-3.23-.162,4.278-.047,6.234-1.305-6.05-.824,7.845-1.209-6.568-1,6.881-.766-4.982-.568,5.817-1.483-10.725-1.105,16.7-.665-17.571-.584,17.12-1.429-18.9-.851,11.023s-1.066-14.265-1.156-14.747-1.662.263-1.662.263l-1.5.52-.722,3.561-.42-1.937-.479-2.886-.51.348-.383-1.579-1.066,20.711-.251-21.051-1.852-1.468-.673.976-1.62-.379-.778-2.04-.619,1.984-.331-.867-.528,27.6c-.189,9.841.237-19.458-1.47-31.154l-.694,15.723-1.326-18.33-.377,9.374-1-10.723-1.322.659-1.409.119-.206,1.27-.827-2.223-.253,1.97-.328-2.4-.388,4.956-.606.866-.8-2.573-.637,2.276-.57-2.427L3282.5,897l-.7-4.208-.878-8.823.038,4.951-.031,11.508a132.568,132.568,0,0,0-1.87-17.751l-.746,33.351-1.172-32.451-.435-.334.133,9.049s-.2,4.8-.274,5.972-.344-2.163-.344-2.163c-.367-4.73-1.079-17.515-.962-13.074l.279,10.516-.4,6.074-.714-7.626-.208-10.182-.692,1.707-.084,16.005c-.62-4.941-.956-9.684-1.4-14.778-.047-.553-.949-1.3-1.04-.836s-.854-4.581-.854-4.581-.453,2.239-.628,3.042-.875-3.348-.875-3.348l-.423,2.715-.882-3.231-.162,4.278-.047,6.235-1.305-6.05-.824,7.845-1.209-6.568-1,6.881-.767-4.983-.568,5.817-1.483-10.725-1.105,16.7-.665-17.571-.584,17.121-1.429-18.9-.851,11.023s-1.066-14.265-1.156-14.748-1.661.264-1.661.264l-1.5.519-.722,3.561-.42-1.937-.479-2.886-.51.348-.383-1.579-1.065,20.711-.251-21.051-1.852-1.468-.673.976-1.62-.379-.778-2.041-.619,1.984-.778-2.041Z" transform="translate(-3240.874 -778.756)" fill="#4551fb" fill-rule="evenodd"/>
                <g id="Group_9370" data-name="Group 9370" transform="translate(10.54 39.228)">
                  <path id="Path_13134" data-name="Path 13134" d="M3273.2,785.322l4.338,5.94.452.618.456-.094,4.371-.911Z" transform="translate(-3273.197 -785.322)" fill="#00cedc" fill-rule="evenodd"/>
                  <g id="Group_9369" data-name="Group 9369" transform="translate(4.174 3.87)">
                    <path id="Path_13135" data-name="Path 13135" d="M3431.677,881.247c-.029,10.569-.059,50.939-.089,90.2l1.079.622c.031-39.26.061-79.629.086-90.2l-1.076-.622Zm-27.744,74.144c.03-39.232.061-79.55.09-90.112l-1.077-.621c-.029,10.561-.059,50.874-.089,90.105l1.076.627Zm-28.744-16.785c.03-39.173.06-79.377.089-89.921l-1.076-.621c-.03,10.544-.06,50.744-.089,89.914Z" transform="translate(-3345.379 -831.475)" fill="#6bb6ff" fill-rule="evenodd"/>
                    <path id="Path_13136" data-name="Path 13136" d="M3286.086,797.19c-.03,10.535-.061,50.678-.09,89.818l1.076.62c.03-39.14.06-79.281.091-89.816C3286.768,797.584,3286.521,797.443,3286.086,797.19Z" transform="translate(-3285.996 -797.19)" fill="#00cedc" fill-rule="evenodd"/>
                  </g>
                </g>
              </g>
            </g>
            <path id="Path_13137" data-name="Path 13137" d="M3522.2,745.534q8.83,5.117,17.664,10.189a12.938,12.938,0,0,1,5.864,10.157l.169,136.313a4.305,4.305,0,0,1-1.458,3.6,10.023,10.023,0,0,1-4.058,2.059l-.041,0a4.833,4.833,0,0,1-3.255-.75q-9.353-5.365-18.7-10.791V746.581Z" transform="translate(-3427.815 -694.97)" fill-rule="evenodd" opacity="0.5" fill="url(#linear-gradient-3)" style="mix-blend-mode: multiply;isolation: isolate"/>
          </g>
          <g id="Group_9376" data-name="Group 9376" transform="translate(105.391 21.384)">
            <g id="Group_9374" data-name="Group 9374">
              <path id="Path_13138" data-name="Path 13138" d="M3721.815,721.216c-.017,5.853-2.1,9.973-5.44,11.912l-5.295,3.184c-18.162-7.751-11.422-99.793-12.528-125.96l5.577-137.323c-4.689-8.193-22.729-15.344-18.519-32.077l-53.232-24.918c-2.364-1.607-64.484-37.582-53.333-44.329,1.865-1.128,3.711-2.264,5.552-3.335,4.117-2.436,9.365-.93,13.218,1.292h0l105.924,60.756c10.4,5.99,18.551,20.485,18.52,32.076Z" transform="translate(-3573.188 -367.12)" fill="#d0e7ff" fill-rule="evenodd"/>
              <path id="Path_13139" data-name="Path 13139" d="M3564.293,390.463c.016-5.738,2-9.813,5.223-11.8,3.392-2.091,8.151-1.865,13.416,1.175l105.924,60.754c10.25,5.92,18.551,20.3,18.518,32.078l-.441,258.723c-.034,11.78-8.389,16.542-18.641,10.622L3582.37,681.263c-10.265-5.926-18.553-20.3-18.52-32.076Z" transform="translate(-3563.85 -373.975)" fill-rule="evenodd" fill="url(#linear-gradient-4)"/>
            </g>
            <g id="Group_9375" data-name="Group 9375" transform="translate(48.309 35.396)">
              <path id="Path_13140" data-name="Path 13140" d="M3948.285,612.31c2.776,1.6,5.033.315,5.042-2.874a11.043,11.043,0,0,0-5.01-8.677c-2.775-1.6-5.033-.316-5.042,2.874A11.042,11.042,0,0,0,3948.285,612.31Z" transform="translate(-3867.859 -559.503)" fill="#485af4" fill-rule="evenodd"/>
              <path id="Path_13141" data-name="Path 13141" d="M3712,476.625c0-.869.618-1.21,1.375-.761,11.007,6.22,29.045,16.373,40.053,22.592a3.073,3.073,0,0,1,1.366,2.389v1.719c0,.868-.619,1.209-1.374.76-11.008-6.219-29.046-16.372-40.053-22.592a3.074,3.074,0,0,1-1.366-2.389Z" transform="translate(-3711.998 -475.666)" fill="#485af4" fill-rule="evenodd"/>
            </g>
          </g>
          <g id="Group_9382" data-name="Group 9382" transform="translate(50.435)">
            <path id="Path_13142" data-name="Path 13142" d="M3565.757,389.148l14.305,8.236a14.029,14.029,0,0,1,6.359,11.016l-.151,88.851c-.012,4.046-3.1,5.681-6.623,3.648l-14.831-8.536Z" transform="translate(-3509.545 -360.581)" fill-rule="evenodd" opacity="0.5" fill="url(#linear-gradient-5)" style="mix-blend-mode: multiply;isolation: isolate"/>
            <g id="Group_9381" data-name="Group 9381">
              <g id="Group_9377" data-name="Group 9377">
                <path id="Path_13143" data-name="Path 13143" d="M3470.542,426.02a4.044,4.044,0,0,1-1.687,3.7c-.753.46-1.5.924-2.258,1.384-5.459-2.326-3.508-31.361-3.841-39.231l1.735-42.713c-1.459-2.548-7.07-4.773-5.76-9.977l-16.558-7.751-41.592-25.486h0c-.06-.368-.583-2.383-.363-2.528s.486-.313.751-.475l.013-.011c.563-.341,1.12-.683,1.676-1.006,1.28-.758,2.913-.29,4.111.4h0l58.15,33.237a12.711,12.711,0,0,1,5.76,9.977Z" transform="translate(-3398.584 -301.541)" fill="#d0e7ff" fill-rule="evenodd"/>
                <path id="Path_13144" data-name="Path 13144" d="M3395.455,309.858c.01-3.665,2.605-5.147,5.8-3.3l58.15,33.236a12.707,12.707,0,0,1,5.76,9.978l-.137,80.474c-.01,3.664-2.609,5.145-5.8,3.3l-58.149-33.237a12.7,12.7,0,0,1-5.761-9.977Z" transform="translate(-3395.317 -304.385)" fill-rule="evenodd" fill="url(#linear-gradient-6)"/>
              </g>
              <g id="Group_9380" data-name="Group 9380" transform="translate(5.13 8.856)">
                <g id="Group_9378" data-name="Group 9378">
                  <path id="Path_13145" data-name="Path 13145" d="M3411.065,329.188c0-.438.312-.615.692-.395l6.947,3.971a1.516,1.516,0,0,1,.688,1.192l-.016,9.614c0,.438-.311.615-.692.395l-6.947-3.97a1.516,1.516,0,0,1-.688-1.192Z" transform="translate(-3411.049 -328.698)" fill="#ffb7e8" fill-rule="evenodd"/>
                  <path id="Path_13146" data-name="Path 13146" d="M3440.919,356.426c0-.944.671-1.315,1.493-.826,11.959,6.757,31.558,17.789,43.518,24.546a3.339,3.339,0,0,1,1.484,2.6v1.868c0,.944-.673,1.314-1.493.826-11.959-6.757-31.559-17.789-43.518-24.546a3.339,3.339,0,0,1-1.484-2.6Z" transform="translate(-3431.178 -346.682)" fill="#ffb7e8" fill-rule="evenodd"/>
                </g>
                <path id="Path_13147" data-name="Path 13147" d="M3411.051,380.249c0-.944.671-1.315,1.493-.826,11.96,6.757,10.306,5.917,22.265,12.674a3.34,3.34,0,0,1,1.484,2.6v1.868c0,.944-.672,1.314-1.494.826-11.959-6.757-10.305-5.917-22.264-12.674a3.338,3.338,0,0,1-1.484-2.6Z" transform="translate(-3411.05 -362.737)" fill="#ffb7e8" fill-rule="evenodd"/>
                <path id="Path_13148" data-name="Path 13148" d="M3411.051,410.365c0-.944.671-1.315,1.493-.826,11.96,6.757,10.306,5.917,22.265,12.674a3.34,3.34,0,0,1,1.484,2.6v1.868c0,.944-.672,1.314-1.494.826-11.959-6.758-10.305-5.917-22.264-12.674a3.339,3.339,0,0,1-1.484-2.6Z" transform="translate(-3411.05 -383.033)" fill="#ffb7e8" fill-rule="evenodd"/>
                <g id="Group_9379" data-name="Group 9379" transform="translate(0 36.936)">
                  <path id="Path_13149" data-name="Path 13149" d="M3411.065,442.459c0-.438.312-.615.692-.395l6.947,3.971a1.515,1.515,0,0,1,.688,1.192l-.016,9.614c0,.438-.311.615-.692.395l-6.947-3.97a1.516,1.516,0,0,1-.688-1.192Z" transform="translate(-3411.049 -441.969)" fill="#ffb7e8" fill-rule="evenodd"/>
                  <path id="Path_13150" data-name="Path 13150" d="M3440.919,469.7c0-.944.671-1.315,1.493-.826,11.959,6.757,31.558,17.789,43.518,24.546a3.339,3.339,0,0,1,1.484,2.6v1.868c0,.944-.673,1.314-1.493.826-11.959-6.758-31.559-17.789-43.518-24.546a3.338,3.338,0,0,1-1.484-2.595Z" transform="translate(-3431.178 -459.953)" fill="#ffb7e8" fill-rule="evenodd"/>
                </g>
                <path id="Path_13151" data-name="Path 13151" d="M3411.051,493.52c0-.944.671-1.315,1.493-.826,11.96,6.757,10.306,5.917,22.265,12.674a3.34,3.34,0,0,1,1.484,2.6v1.868c0,.944-.672,1.314-1.494.826-11.959-6.758-10.305-5.917-22.264-12.674a3.338,3.338,0,0,1-1.484-2.6Z" transform="translate(-3411.05 -439.072)" fill="#ffb7e8" fill-rule="evenodd"/>
                <path id="Path_13152" data-name="Path 13152" d="M3411.051,523.635c0-.944.671-1.315,1.493-.826,11.96,6.757,10.306,5.917,22.265,12.673a3.341,3.341,0,0,1,1.484,2.6v1.868c0,.944-.672,1.314-1.494.826-11.959-6.758-10.305-5.917-22.264-12.674a3.339,3.339,0,0,1-1.484-2.6Z" transform="translate(-3411.05 -459.367)" fill="#ffb7e8" fill-rule="evenodd"/>
                <path id="Path_13153" data-name="Path 13153" d="M3411.051,554.427c0-.944.671-1.315,1.493-.826,11.96,6.757,10.306,5.917,22.265,12.674a3.34,3.34,0,0,1,1.484,2.6v1.868c0,.944-.672,1.314-1.494.826-11.959-6.758-10.305-5.917-22.264-12.674a3.338,3.338,0,0,1-1.484-2.6Z" transform="translate(-3411.05 -480.118)" fill="#ffb7e8" fill-rule="evenodd"/>
              </g>
            </g>
          </g>
          <g id="Group_9384" data-name="Group 9384" transform="translate(261.556 303.28)">
            <path id="Path_13154" data-name="Path 13154" d="M4049.856,1241.4c.009-3.057-.7-4.963.618-6.623a11.607,11.607,0,0,1,4.581-2.776c2.375-.822,5.39-.4,8.667,1.5l30.27,17.181c7.625,4.4,13.8,15.1,13.776,23.864l-.329,21.835c-.007,2.717-.576,6.2-2.66,8.1a11.852,11.852,0,0,1-6.022,2.877c-1.986.162-2.754-1.674-5.186-3.079L4063.3,1287.1c-7.636-4.409-13.8-15.1-13.777-23.864Z" transform="translate(-4047.319 -1231.602)" fill="#d0e7ff" fill-rule="evenodd"/>
            <path id="Path_13155" data-name="Path 13155" d="M4043.085,1245.38c.024-8.765,6.231-12.312,13.866-7.9l30.27,17.181c7.626,4.4,13.8,15.1,13.777,23.864l-.329,21.835c-.024,8.764-6.24,12.307-13.868,7.9l-30.268-17.181c-7.636-4.409-13.8-15.1-13.778-23.864Z" transform="translate(-4042.754 -1234.284)" fill-rule="evenodd" fill="url(#linear-gradient-7)"/>
            <g id="Group_9383" data-name="Group 9383" transform="translate(4.43 22.788)">
              <path id="Path_13156" data-name="Path 13156" d="M4150.96,1329.561l17.5,18.835-.013,4.8-17.548-1.36.015-5.661,12.263,1.53-12.232-12.506Z" transform="translate(-4120.063 -1320.406)" fill="#fff" fill-rule="evenodd"/>
              <path id="Path_13157" data-name="Path 13157" d="M4125.227,1310.154a2.938,2.938,0,0,1,.466,1.594,9.751,9.751,0,0,1-.385,2.039l-4.95,20.269c-.158.677-.313,1.193-.426,1.563a1.067,1.067,0,0,1-.579.708c-.24.112-.6.035-1.083-.245a3.134,3.134,0,0,1-1.763-2.795,13.373,13.373,0,0,1,.357-2.112l4.929-20.28a6.469,6.469,0,0,1,.737-2.095c.226-.331.69-.289,1.349.093A3.633,3.633,0,0,1,4125.227,1310.154Z" transform="translate(-4096.888 -1306.264)" fill="#fff" fill-rule="evenodd"/>
              <path id="Path_13158" data-name="Path 13158" d="M4056.339,1306.339l.014-4.854,17.556,1.388-.016,5.71-12.219-1.636,12.189,12.588-.016,5.661Z" transform="translate(-4056.339 -1301.485)" fill="#fff" fill-rule="evenodd"/>
            </g>
          </g>
          <g id="Group_9388" data-name="Group 9388" transform="translate(111.147 99.256)">
            <g id="Group_9385" data-name="Group 9385" transform="translate(40.946)">
              <path id="Path_13159" data-name="Path 13159" d="M3753.315,633.971l-10.485-5.2a7.726,7.726,0,0,1-3.7-4.852L3736.01,611.2a7.5,7.5,0,0,0-3.683-4.843c-1.564-.778-3.139-.559-3.739,1.15l-3.329,9.5c-.531,1.544-2.046,2.007-3.739,1.164l-10.486-5.232c-3.8-1.907-5.425,2.7-2.371,6.7l8.434,11.072c1.359,1.778,1.915,4.029,1.368,5.55l-3.358,9.482c-.924,2.6,1.225,6.339,3.667,7.554a3.075,3.075,0,0,0,2.3.283l8.532-2.663a3.121,3.121,0,0,1,2.306.308,6.728,6.728,0,0,1,2.288,1.977l8.418,11.1a6.682,6.682,0,0,0,2.282,1.995c2.439,1.214,4.64-.364,3.772-3.853l-3.165-12.727c-.5-2.042.093-3.721,1.474-4.136l8.56-2.617C3758.62,642.01,3757.1,635.856,3753.315,633.971Z" transform="translate(-3707.067 -605.926)" fill="#fff" fill-rule="evenodd" opacity="0.5"/>
              <path id="Path_13160" data-name="Path 13160" d="M3718.063,775.353c0-1.88,1.337-2.618,2.975-1.645l37.019,20.917a6.656,6.656,0,0,1,2.956,5.171v3.72c-.006,1.88-1.34,2.618-2.976,1.646l-37.019-20.917a6.65,6.65,0,0,1-2.957-5.17Z" transform="translate(-3714.477 -718.707)" fill="#fff" fill-rule="evenodd" opacity="0.8"/>
            </g>
            <path id="Path_13161" data-name="Path 13161" d="M3653.651,1114.783c0-1.488,1.058-2.09,2.354-1.342,17.055,9.781,63.144,36.248,80.2,46.03a5.162,5.162,0,0,1,2.339,4.052l.067,14.725c0,1.489-1.059,2.09-2.354,1.342-17.055-9.782-63.143-36.248-80.2-46.031a5.156,5.156,0,0,1-2.339-4.052Z" transform="translate(-3630.124 -947.73)" fill="#fff" fill-rule="evenodd"/>
            <g id="Group_9387" data-name="Group 9387" transform="translate(0 52.874)">
              <g id="Group_9386" data-name="Group 9386" transform="translate(7.154 16.873)">
                <path id="Path_13162" data-name="Path 13162" d="M3906.826,994.875l-9.344-5.394-4.61,7.472-4.534-12.751-9.373-5.411,9.631,24.011-9.574,12.6,9.343,5.393,4.46-7.235,4.334,12.313,9.343,5.394-9.441-23.579Z" transform="translate(-3789.121 -926.952)" fill="#fff" fill-rule="evenodd"/>
                <path id="Path_13163" data-name="Path 13163" d="M3810.747,960.1c-.012,4.484-.081,7.512-3.985,5.26-4.121-2.381-4.2-5.289-4.19-9.979l.058-20.589-8.424-4.864-.059,20.589c-.045,15.887,6.077,19.788,11.771,23.076l.821.472c5.28,3.049,12.448,7.084,12.493-9.066l.058-20.589-8.485-4.9Z" transform="translate(-3731.959 -894.021)" fill="#fff" fill-rule="evenodd"/>
                <path id="Path_13164" data-name="Path 13164" d="M3722.441,939.419l8.644,4.992,12.347-35.024-8.644-4.992Z" transform="translate(-3683.637 -876.816)" fill="#fff" fill-rule="evenodd"/>
                <path id="Path_13165" data-name="Path 13165" d="M3690.76,906.831l8.425,4.865.1-36.521-8.425-4.864Z" transform="translate(-3662.286 -853.847)" fill="#fff" fill-rule="evenodd"/>
                <path id="Path_13166" data-name="Path 13166" d="M3620.07,850.009c-.013,4.484-.111,7.5-3.984,5.26-4.142-2.392-4.2-5.289-4.191-9.979l.059-20.588-8.454-4.881-.059,20.589c-.045,15.887,6.1,19.8,11.8,23.092l.82.472c5.251,3.031,12.458,7.09,12.5-9.06l.058-20.588-8.494-4.9Z" transform="translate(-3603.44 -819.82)" fill="#fff" fill-rule="evenodd"/>
              </g>
              <path id="Path_13167" data-name="Path 13167" d="M3583.066,776.614l.015-5.846,5.047,2.913-.016,5.8-5.046-2.866Zm0,56.283.015-5.846,5.047,2.914-.016,5.8-5.046-2.866Zm123.589,14.189.015-5.846,5.047,2.914-.016,5.8-5.046-2.866Zm0,56.283.015-5.846,5.047,2.913-.016,5.8-5.046-2.866ZM3589.687,777.647l.007,4.526-4.02-2.291.121,46.931,3.883,2.22.007,4.174,115.41,66.3-.007-4.677,3.595,2.054-.121-46.93-3.459-1.972-.006-4.038-115.41-66.3Zm-5.118,1.6.121,46.929-3.189-1.823.014,9.437,8.179,4.662-.006-3.976,115.41,66.3.005,3.485,8.179,4.662-.015-9.424-3.478-1.988-.121-46.931,3.614,2.06-.015-9.424-8.179-4.675.006,4.124-115.411-66.3-.005-3.623-8.178-4.674.014,9.436Z" transform="translate(-3581.5 -768.075)" fill="#fff" fill-rule="evenodd" opacity="0.5"/>
            </g>
          </g>
          <g id="Group_9393" data-name="Group 9393" transform="translate(214.871 116.661)">
            <path id="Path_13168" data-name="Path 13168" d="M3914.631,662.35l19.1,11.2,5.395-3.713-.022,101.783-.218,49.447-5.579,2.651c-11.865-6.92-15.847-8.508-27.721-15.319a12.854,12.854,0,0,1-5.833-10.1l-.162-130.492C3899.574,657.845,3907.5,657.489,3914.631,662.35Z" transform="translate(-3899.587 -659.302)" fill-rule="evenodd" opacity="0.5" fill="url(#linear-gradient-8)" style="mix-blend-mode: multiply;isolation: isolate"/>
            <g id="Group_9392" data-name="Group 9392" transform="translate(7.86 2.463)">
              <g id="Group_9389" data-name="Group 9389">
                <path id="Path_13169" data-name="Path 13169" d="M3928.567,668.38,3931.18,667a4.153,4.153,0,0,1,3.332.59c31.268,17.934,62.472,36.5,93.743,54.435a11.749,11.749,0,0,1,5.324,9.224l.154,123.78a3.91,3.91,0,0,1-1.323,3.269c-.984.728-3.013,2.306-4.62,1.376-31.27-17.935-61.9-38.094-93.16-56.026a11.743,11.743,0,0,1-5.325-9.224Z" transform="translate(-3926.977 -666.856)" fill="#d0e7ff" fill-rule="evenodd"/>
                <path id="Path_13170" data-name="Path 13170" d="M3923.692,674.263c.01-3.388,2.409-4.76,5.36-3.055,31.268,17.934,62.472,36.5,93.743,54.435a11.746,11.746,0,0,1,5.324,9.224l.153,123.781c-.009,3.387-2.412,4.756-5.36,3.054-31.269-17.936-62.478-36.5-93.742-54.435a11.74,11.74,0,0,1-5.325-9.224Z" transform="translate(-3923.692 -669.295)" fill-rule="evenodd" fill="url(#linear-gradient-9)"/>
              </g>
              <g id="Group_9391" data-name="Group 9391" transform="translate(19.303 34.085)">
                <path id="Path_13171" data-name="Path 13171" d="M4015.683,979.524l-10.486-6.137a2.193,2.193,0,0,0-1.512-.409.887.887,0,0,0-.531.372,2.052,2.052,0,0,0-.315,1,6.265,6.265,0,0,0,1.357,3.992l8.432,11.8a9.941,9.941,0,0,1,1.595,3.416,5.77,5.77,0,0,1-.065,3.306l-3.356,9.193a4.545,4.545,0,0,0,.439,3.305,7.339,7.339,0,0,0,2.686,3.164,2.844,2.844,0,0,0,.832.34,1.591,1.591,0,0,0,.644.007l8.532-1.929a3.583,3.583,0,0,1,1.569.015,5.45,5.45,0,0,1,1.559.628,7.882,7.882,0,0,1,1.436,1.093,9.83,9.83,0,0,1,1.236,1.434l8.415,11.822a7.651,7.651,0,0,0,.944,1.1,5.136,5.136,0,0,0,.957.736,2.538,2.538,0,0,0,1.2.389,1.041,1.041,0,0,0,.674-.2,1.27,1.27,0,0,0,.423-.711,3.957,3.957,0,0,0-.078-1.888c-1.052-4.322-2.323-8.873-3.213-13.2a5.638,5.638,0,0,1,.122-3.154,2.911,2.911,0,0,1,2.078-1.9c2.724-.73,5.837-1.282,8.625-1.894a.931.931,0,0,0,.494-.273,2.023,2.023,0,0,0,.375-1.419,6.316,6.316,0,0,0-.615-2.388,6.909,6.909,0,0,0-2.651-3.074l-10.485-6.1a8.928,8.928,0,0,1-2.675-2.517,10.121,10.121,0,0,1-1.6-3.416l-3.122-13a7.45,7.45,0,0,0-1.181-2.569,6.452,6.452,0,0,0-1.929-1.823l.989-1.887a8.961,8.961,0,0,1,2.69,2.524,9.877,9.877,0,0,1,1.566,3.405l3.122,12.984a7.7,7.7,0,0,0,1.218,2.586,6.447,6.447,0,0,0,1.907,1.821l10.485,6.1a9.411,9.411,0,0,1,3.646,4.176,8.694,8.694,0,0,1,.831,3.3,3.983,3.983,0,0,1-.908,2.873,2.872,2.872,0,0,1-1.519.853l-8.606,1.889a1.022,1.022,0,0,0-.671.679,3.506,3.506,0,0,0-.044,1.917l3.2,13.145a6.125,6.125,0,0,1,.081,2.967,3.2,3.2,0,0,1-1.128,1.782,3.069,3.069,0,0,1-1.966.61,4.809,4.809,0,0,1-2.318-.71,7.6,7.6,0,0,1-1.421-1.089,10.155,10.155,0,0,1-1.242-1.454l-8.418-11.825a7.407,7.407,0,0,0-.929-1.076,5.378,5.378,0,0,0-.978-.747,3.066,3.066,0,0,0-.867-.357,1.425,1.425,0,0,0-.618-.014l-8.539,1.927a3.667,3.667,0,0,1-1.565,0,5.306,5.306,0,0,1-1.546-.616,9.906,9.906,0,0,1-3.68-4.253,6.726,6.726,0,0,1-.53-5.018l3.358-9.192a3.611,3.611,0,0,0,0-2.043,7.545,7.545,0,0,0-1.206-2.569l-8.431-11.8a8.6,8.6,0,0,1-1.8-5.569,4.05,4.05,0,0,1,.68-1.991,2.811,2.811,0,0,1,1.7-1.155,4.351,4.351,0,0,1,3.155.682l10.486,6.136Z" transform="translate(-3994.842 -903.049)" fill="#fff" fill-rule="evenodd"/>
                <g id="Group_9390" data-name="Group 9390">
                  <path id="Path_13172" data-name="Path 13172" d="M4054.225,805.2l-5.553-2.954-5.552-3.411c-.115.409-2.271,8.213-5.505,9.115,7.671,14.756,8.474,34.107,8.516,35.125l1.819,1.049-.02-26.534a7.448,7.448,0,0,1-2.575-5.172c.006-2.074,1.488-2.9,3.294-1.907a7.267,7.267,0,0,1,3.3,5.666c0,1.791-1.076,2.7-2.541,2.265l.007,26.528,1.805.979c.042-.97.836-19.4,8.485-25.342C4056.483,816.027,4054.338,805.741,4054.225,805.2Z" transform="translate(-4019.769 -789.884)" fill="#1c8df3" fill-rule="evenodd"/>
                  <path id="Path_13173" data-name="Path 13173" d="M4052.707,771.384l.014,9.486L4065,787.914l.027-9.463Z" transform="translate(-4029.94 -771.384)" fill="#485af4" fill-rule="evenodd"/>
                  <path id="Path_13174" data-name="Path 13174" d="M4038.255,862.37l-2.449-1.352.008-2.875,2.449,1.412-.008,2.815Zm-24.036-12.241-5.047-2.913-.024-5.808,5.087,2.89-.017,5.83Zm-26.83-16.875-2.462-1.421.009-2.815,2.461,1.422-.008,2.813Zm-2.936-32.186.016-5.846,5.047,2.913-.016,5.8-5.047-2.866Zm49.155,28.126.017-5.782,5.046,2.867-.016,5.83-5.047-2.915Zm.611,26.233.021,2.544L4020.289,850a13.8,13.8,0,0,0,9.17-1.473c4.431-2.573,7.2-8.012,7.318-15.7l2.681,1.549.779.449-.015-9.438-8.193-4.683.029,9.4,3.159,1.826c-.1,7.2-2.707,12.288-6.877,14.713-3.322,1.939-7.678,2.132-12.537.35l-.017-3.584-8.18-4.674,0,3.528a51.292,51.292,0,0,1-12.575-14.691c-4.186-7.217-6.807-15.278-6.9-22.619l2.174,1.24.766.444-.015-9.424-8.178-4.675.014,9.437,3.679,2.093c.1,7.836,2.885,16.432,7.329,24.146a58.25,58.25,0,0,0,9.213,11.977l-14.183-8.11.007-2.577-5.594-3.183.022,6.466,4.774,2.711.78.449.006-2.53,18.684,10.708,0,4,7.371,4.254.821.476.025-4.064,18.4,10.574.021,2.547,4.772,2.755.821.427-.023-6.421Z" transform="translate(-3982.888 -785.633)" fill="#fff" fill-rule="evenodd"/>
                </g>
              </g>
            </g>
          </g>
        </g>
        <path id="Path_13175" data-name="Path 13175" d="M3805.293,409.4l3.1-.013.024,5.659c0,1.006-3.211,1.623-3.106-1.114l-.019-4.532Zm163.652,90.053-3.1.013-.027-6.2,3.1-.013.027,6.2Zm-19.808,112.264c.478.2.966.387,1.471.562l.985-2.941a9.852,9.852,0,0,1-1.364-.533c-1.187-.26-2.139,2.221-1.092,2.912Zm4.743,1.369a13.591,13.591,0,0,0,6.892-.631l-1.106-2.9a10.521,10.521,0,0,1-5.33.46l-.456,3.068Zm10-2.406a13.452,13.452,0,0,0,4.032-5.625l-2.885-1.138a10.379,10.379,0,0,1-3.1,4.355l1.954,2.408Zm4.983-8.87a30.723,30.723,0,0,0,.457-6.479l-3.1.013a27.829,27.829,0,0,1-.4,5.872l3.044.594Zm.443-9.58-3.1.013-.028-6.2,3.1-.013.027,6.2Zm-.041-9.306-3.1.013-.027-6.2,3.1-.013.027,6.2Zm-.04-9.305-3.1.013-.027-6.2,3.1-.013.027,6.2Zm-.04-9.305-3.1.013-.027-6.2,3.1-.013.027,6.2Zm-.041-9.305-3.1.013-.027-6.2,3.1-.013.026,6.2Zm-.04-9.306-3.1.013-.027-6.2,3.1-.013.027,6.2Zm-.04-9.305-3.1.013-.027-6.2,3.1-.013.027,6.2Zm-.04-9.306-3.1.013-.027-6.2,3.1-.013.026,6.2Zm-.04-9.305-3.1.013-.026-6.2,3.1-.013.027,6.2Zm-.04-9.306-3.1.013-.027-6.2,3.1-.013.027,6.2Zm-.393-18.812a41.024,41.024,0,0,0-1.417-6.279l-2.964.915a36.221,36.221,0,0,1,1.312,5.812l3.069-.449Zm-2.465-9.312a50.518,50.518,0,0,0-2.665-5.809l-2.733,1.468a46.807,46.807,0,0,1,2.505,5.461l2.893-1.119Zm-4.26-8.58a52.19,52.19,0,0,0-3.685-5.221l-2.416,1.945a49.145,49.145,0,0,1,3.464,4.91l2.636-1.634Zm-5.777-7.649a41.612,41.612,0,0,0-4.712-4.392l-1.921,2.435a39.054,39.054,0,0,1,4.354,4.06l2.279-2.1Zm-7.352-6.289c-1.751-1.128-3.629-2.136-5.426-3.166l-1.543,2.691c1.756,1.007,3.583,1.984,5.292,3.085l1.677-2.609Zm-8.117-4.71-1.543,2.691-5.382-3.087,1.543-2.691,5.382,3.087Zm-8.073-4.631-1.543,2.691-5.382-3.087,1.543-2.691,5.382,3.087Zm-8.072-4.63-1.543,2.691-5.382-3.087,1.543-2.691,5.382,3.087Zm-8.072-4.63-1.543,2.691-5.382-3.087,1.543-2.691,5.382,3.086Zm-8.072-4.63-1.543,2.691-5.381-3.087,1.543-2.691,5.382,3.087Zm-8.073-4.63-1.543,2.691-5.382-3.087,1.543-2.691,5.381,3.087Zm-8.072-4.63-1.543,2.691-5.381-3.086,1.543-2.691,5.381,3.086Zm-8.072-4.629-1.543,2.691-5.381-3.086,1.543-2.691,5.381,3.086Zm-8.072-4.63-1.543,2.691-5.381-3.086,1.543-2.691,5.381,3.086Zm-8.072-4.629-1.543,2.691-5.381-3.086,1.543-2.691,5.381,3.086Zm-8.072-4.629-1.543,2.691-5.381-3.086,1.543-2.691,5.381,3.086Zm-8.072-4.629-1.543,2.691-5.381-3.086,1.543-2.691,5.381,3.086Zm-8.072-4.629-1.543,2.691-5.381-3.086,1.543-2.691,5.381,3.086Zm-8.072-4.629-1.543,2.691-5.381-3.086,1.543-2.691,5.381,3.086Zm-8.131-4.643a22.655,22.655,0,0,0-6.255-2.251l-.556,3.052c.441.111.877.183,1.325.308a20.652,20.652,0,0,1,4.045,1.638l1.441-2.747Zm-9.68-2.514a12.405,12.405,0,0,0-4.918,1.181c-.366.177-.713.367-1.061.579-.23.143-.457.293-.677.451l1.822,2.511c.155-.113.32-.22.483-.322a9.106,9.106,0,0,1,4.472-1.3l-.121-3.1Zm-9.19,4.681-.184.245a16.242,16.242,0,0,0-2.621,5.971l3.026.684a12.984,12.984,0,0,1,2.237-5.008l0-.006-2.462-1.886Zm-3.3,9.5c-.166,2.082-.076,4.274-.068,6.329l3.1-.013c-.009-1.956-.1-4.081.059-6.074Z" transform="translate(-3607.332 -358.313)" fill-rule="evenodd" fill="url(#linear-gradient-10)"/>
      </g>
      <g id="Group_9402" data-name="Group 9402" transform="translate(6.588 155.86)">
        <path id="Path_13176" data-name="Path 13176" d="M3332.691,1514.933l-60.541-34.48c-6.6-3.016-16.046-5.416-22.771-1.917-6.127,3.189-16.219,9.715-20.682,12.259-3.39,1.934-15.156,8.983-7.828,12.969,21.559,11.723,42.9,24.908,64.787,36.817,4.14,2.253,10.2,3.066,16.555,2.538a43.832,43.832,0,0,0,17.931-5.34q5.458-3.174,10.736-6.249c4.749-2.766,7.266-6.035,7.516-9.058C3338.639,1519.52,3336.742,1516.783,3332.691,1514.933Z" transform="translate(-3218.51 -1249.427)" fill="#5f7ffb" fill-rule="evenodd" opacity="0.2"/>
        <g id="Group_9401" data-name="Group 9401" transform="translate(24.592)">
          <path id="Path_13177" data-name="Path 13177" d="M3323.569,1200.725a17.506,17.506,0,0,1-1.02,2.475c-.724.79-1.628,1.266-2.051,2.167-2.268,4.824-2.766,9.472-1.187,34.23l5.812.123.743-8.746c.719-3.544,2.71-8.732,3.515-11.944,1.724-6.879,1.916-10.386,2.942-15.4l.059-.033c6.368-19.416,12.946-38.506,18.234-58.062l18.137-52.607.576-14.106c.094-2.279-1.12-3.951-1.839-5.735-9.342,2.752-14.569,5.719-24.607,5.365-3.01,4.478-7.136,12.855-7.289,19.187-.3,12.332.671,20.561-3.1,41.178C3321.317,1176.457,3327.811,1175.8,3323.569,1200.725Z" transform="translate(-3310.414 -977.358)" fill-rule="evenodd" fill="url(#linear-gradient-11)"/>
          <g id="Group_9396" data-name="Group 9396" transform="translate(0 225.189)">
            <path id="Path_13178" data-name="Path 13178" d="M3296.49,1524.825a9.343,9.343,0,0,1-1.967-.287c-.3-.334-.865-1.976-.453-2.285C3294.8,1521.768,3296.292,1524.351,3296.49,1524.825Z" transform="translate(-3293.925 -1505.203)" fill="#1f202b" fill-rule="evenodd"/>
            <path id="Path_13179" data-name="Path 13179" d="M3303.114,1499.91c.693,2.213-.293,4.347-.989,6.645-2.431,8.027-3.855,8.477-2.825,12.109a16.224,16.224,0,0,0,3.552,6.373c1.574,1.794,2.049,3.084,4.072,4.481,3.044,2.1,5.755,3.087,5.093-1.134a20.255,20.255,0,0,0-.994-3.915c-2.157-5.01-4.668-7.208-3.308-13.461,1.01-4.643,2.617-7.7.53-10.83Z" transform="translate(-3297.318 -1490.187)" fill="#161a40" fill-rule="evenodd"/>
            <path id="Path_13180" data-name="Path 13180" d="M3300.5,1474.81a26.163,26.163,0,0,1-6.132,12.332c.484-.129,1.723,1.137,2.405,2.539,5.024-5.775,7.468-8.583,9.013-6.1a79.269,79.269,0,0,1-1.554,8.81,8.778,8.778,0,0,0,.168,4.578c1.972,4.735,5.59,11.648,4.209,13.911a8.185,8.185,0,0,0,1.026-4.521c-.009-3.269-.564-7.7-.635-10.416-.094-3.676,1.3-6.865,1.518-11.874a40.041,40.041,0,0,0-.008-4.194c-.21-3.54-.6-8.237-3.089-9.566-.886-.473-3.191-.131-4.383.474C3301.363,1471.637,3300.849,1473.2,3300.5,1474.81Z" transform="translate(-3294.222 -1470.092)" fill="#161f69" fill-rule="evenodd"/>
          </g>
          <path id="Path_13181" data-name="Path 13181" d="M3422.888,1232.194c-.448,3.737-3.861,7.311-4.278,9.745-1,5.873,3.25,2.819,8.066,10.368,1.928-.016,6.175,6.933,11.923,7.3,1.32.084,3.678-3.119,1.069-5.385-1.163-.676-2.2-.174-3.156-1.007-1.87-1.654-4.056-14.512-3.931-19.526,5.211-27.656,8.5-54.022,13.7-81.08,2.614-13.6,3.1-22.007,2.23-32.021-.337-5.733.26-8.548-1.628-14.105a33.642,33.642,0,0,0-2.737-5.736c-8.912,2.752-15.559,5.454-25.652,5.1-2.311,4.477-4.313,10.468-3.476,16.8,1.63,12.332,7.807,21.31,9.174,42.458-6.653,23.259.255,41.826-1.315,66.954C3422.88,1232.1,3422.883,1232.149,3422.888,1232.194Z" transform="translate(-3375.402 -995.996)" fill-rule="evenodd" fill="url(#linear-gradient-12)"/>
          <path id="Path_13182" data-name="Path 13182" d="M3397.689,1047.034c1.365-8.357,2.8-16.72,4.42-25.151,2.614-13.6,3.1-22.007,2.23-32.021-.336-5.733.26-8.548-1.628-14.105-.256-.754-1.887-3.929-1.746-4.356-2.82-6.218-3.209-24.517-3.187-24.679,1.322-9.693,6.595-13.1,3.757-21.389-2.079-2.852-7.7-7.426-13.542-10.627-8.221-4.5-17.4-7.325-22.333-7.881-10.434-1.18-10.458,16.019-6.829,24.12,7.234,16.143,7.763,24.4,4.062,36.67-2.892,4.666-6.346,12.157-6.486,17.941-.3,12.332.671,20.561-3.1,41.178-1.735,5.841-3.043,10.758-4.033,14.993C3356.89,1055.606,3381.884,1054.37,3397.689,1047.034Z" transform="translate(-3331.226 -865.27)" fill-rule="evenodd" fill="url(#linear-gradient-13)"/>
          <g id="Group_9397" data-name="Group 9397" transform="translate(40.877 241.437)">
            <path id="Path_13183" data-name="Path 13183" d="M3423.742,1519.921c4.668.573,9.024,11.969,12.634,16.921,1.753,2.405,5.469-.075,3.962-.72a38.93,38.93,0,0,1,5.676.055c2.927.47,1.9,3.4-.089,4.778-4.431,3.061-8.362,4.784-12.38,2.758a19.163,19.163,0,0,1-2.463-1.639,12.332,12.332,0,0,1-1.64-1.329c-1.3-1.558-1.8-4.068-2.987-6.2-.393-.706-.714-.859-.967-.667-.488.683.017,10.926.259,12.979-.131.588-2.129,1.051-2.528.6l-3.708-18.2a6.492,6.492,0,0,1,.486-4.661C3421.113,1522.466,3423.247,1520.816,3423.742,1519.921Z" transform="translate(-3419.281 -1519.921)" fill="#161f69" fill-rule="evenodd"/>
            <path id="Path_13184" data-name="Path 13184" d="M3449.357,1572.832a8.365,8.365,0,0,1-2.378-.792,19.162,19.162,0,0,1-2.463-1.639,12.317,12.317,0,0,1-1.64-1.329c-1.407-1.687-2.1-4.822-3.66-6.971.521-.321,1.885-.287,3.251,1.963,2.055,3.775,3.463,6.554,6.175,8.385A4.155,4.155,0,0,0,3449.357,1572.832Z" transform="translate(-3432.716 -1548.249)" fill="#161a40" fill-rule="evenodd"/>
          </g>
          <path id="Path_13185" data-name="Path 13185" d="M3335.177,938.814l17.8,4.064c3.573,1.6.866,9.178-2.665,10.066l-24.845-3.214c-6.333-1.345-7.72-5.518-6.347-8.769.029-.068.061-.134.094-.2.429-2.013,13.083-20.209,14.907-22.675a26.511,26.511,0,0,1,6.29-6.3,6.885,6.885,0,0,1,6.856.19c2.56,1.57,3.414,4.173,2.417,6.565C3347.862,922.913,3340.945,931.472,3335.177,938.814Z" transform="translate(-3310.578 -868.097)" fill-rule="evenodd" fill="url(#linear-gradient-14)"/>
          <g id="Group_9398" data-name="Group 9398" transform="translate(52.998 50.547)">
            <path id="Path_13186" data-name="Path 13186" d="M3606.636,947.336c4.26-2.6,10.011-7.525,13.951-8.059,2.488-1.265,6.178-3.341,8.54-4.585,1.728-.91,2.458,2.071.975,3.052-1.453.961-5.37,3.361-5.382,3.366-.056.024-.112.046-.169.068a8.286,8.286,0,0,1,.855,5.339c-.376,2.061-4.929,4.688-7.783,6.6-2.532,1.691-5.571.422-7.281,1.76C3607.455,953.529,3606.977,950.138,3606.636,947.336Z" transform="translate(-3557.663 -934.522)" fill-rule="evenodd" fill="url(#linear-gradient-15)"/>
            <path id="Path_13187" data-name="Path 13187" d="M3485.671,964.585c4.734-3.81,10.655-7.119,15.44-10.1.767-.478,1.925-.462,2.53-.826.749-.45,1.356-.8,1.783-1.032,1.705.93,3.821,4.4,4.759,7.135-.635.549-1.271,1.129-1.907,1.732-.492.466-1,2.072-1.5,2.562-5.327,5.3-8.937,10.019-14.133,13.636a50.983,50.983,0,0,1-5.77,4.187c-2.362,1.192-5.732,0-7.315-2.4-1.37-1.234-2.6-2.589-3.374-3.315-3.528-3.3-12.3-10.788-17.1-17.226-3.525-4.727-2.94-7.32-1.556-9.781,3.223-5.729,8.093-9.4,13.474-4.207,2.559,2.47,4.279,6.6,6.47,9.452C3479.927,957.587,3483.018,961.1,3485.671,964.585Z" transform="translate(-3456.452 -939.867)" fill-rule="evenodd" fill="url(#linear-gradient-16)"/>
          </g>
          <path id="Path_13188" data-name="Path 13188" d="M3365.659,906.823a6.71,6.71,0,0,0-6.943,3.449c-.058.1-.114.2-.17.295l-.076.139-.125.242-.038.075c-.053.107-.1.215-.154.325l-.053.119-.125.294-.025.059q-.074.181-.143.366l-.036.1-.1.294-.033.1q-.062.187-.12.378l-.028.095-.091.318-.027.1q-.055.207-.107.417l0,.009c-.033.134-.063.27-.094.406l-.022.1c-.027.128-.053.254-.078.384l-.01.05c-.026.137-.05.275-.073.414l-.022.133-.058.38-.006.035-.056.423-.018.153-.037.332-.011.113-.04.448-.005.075-.025.354-.01.161-.021.414-.006.129-.011.379,0,.071-.006.425v.6c0,.33.013.661.027.992l0,.072.021.413.006.1.034.478,0,.03.035.414.011.126.044.435.013.113.048.4.006.054.063.467.012.083.061.4.016.1.072.437.015.08.071.393.016.084c.057.3.118.589.183.879l.026.117.089.378.014.056.112.442.01.04c.076.288.156.571.239.849l.032.106.1.309.036.113.119.358.035.1.11.311.027.072c.047.127.094.254.143.378l.011.028.131.323.04.094.149.345c7.234,16.143,7.763,24.4,4.062,36.67-2.892,4.666-6.346,12.157-6.486,17.941-.3,12.332.671,20.561-3.1,41.178-1.735,5.841-3.043,10.759-4.033,14.994,3.5,6.385,10.683,9.569,18.955,10.434,34.093-37.452-14.015-50.894,4.276-85.243,2.085-3.916,14.886-8.9,18.085-13.736,6.859-8.049,9.573-15.994-.784-28.8-1.719-2.126-3-3.238-5.305-6.449-3.765.888-10.775-.358-11.614-1.894-.292-.536,1.193-5.24.952-5.814C3367.392,907.379,3369.449,907.251,3365.659,906.823Z" transform="translate(-3331.226 -865.269)" fill-rule="evenodd" opacity="0.5" fill="url(#linear-gradient-17)" style="mix-blend-mode: multiply;isolation: isolate"/>
          <g id="Group_9400" data-name="Group 9400" transform="translate(4.744)">
            <g id="Group_9399" data-name="Group 9399" transform="translate(27.634 3.195)">
              <path id="Path_13189" data-name="Path 13189" d="M3401.013,874.129c-.809,3.428,11.7,7.128,15.99,5.266l.09-.83c1.106-5.112,2.192-9.457,2.957-13.048,1.993.85,6.886,1.1,7.319.415-13.189-10.534-28.614-18.322-30.6-13,1.306,3.852,4.684,6.591,6.372,9.1a7.893,7.893,0,0,1,.884,3.448h0A37.247,37.247,0,0,1,3401.013,874.129Z" transform="translate(-3395.612 -831.025)" fill-rule="evenodd" fill="url(#linear-gradient-18)"/>
              <path id="Path_13190" data-name="Path 13190" d="M3424.9,824.275c-1.137.742-9.212-1.943-9.863-1.911-6.282.311-13.042-.2-14.289-2.052-1.688-2.509-5.065-5.247-6.372-9.1-2.089-6.157-1.681-13.1,3.949-17.937,9.789-8.406,25.146-2.245,27.345,7.275.9,3.905-.216,4.229-.032,6.845.341,4.818.887,3,.443,10.628C3425.912,820.929,3425.653,823.783,3424.9,824.275Z" transform="translate(-3393.216 -789.309)" fill="#ffa698" fill-rule="evenodd"/>
              <path id="Path_13191" data-name="Path 13191" d="M3410.227,907.408c.344,3.119,9.121,5.317,14.445,4.076.57-.132.925-.241,1.129-.6a11.433,11.433,0,0,1,3.156,5.041c-4.6,4.435-19.14,1.834-20.906-3.361C3407.628,911.319,3407.239,908.975,3410.227,907.408Z" transform="translate(-3403.02 -868.898)" fill="#c758d8" fill-rule="evenodd"/>
            </g>
            <path id="Path_13192" data-name="Path 13192" d="M3319.083,810.882c-8.368,7-13.083,19.6-9.275,26.752,3.451,6.48,11.867,10.292,9.277,14.394-2.141,3.391-7.179,6.791-1.186,12.265,3.087,2.819,10.624,10.38,26.01,6.463,15-3.818,30.735-16.773,18.1-30.938-13.3-14.907-5.519-18.2,2.109-29.926,4.033-6.2,7.638-18.447,4.183-23-5.926-7.815-9.861-2.184-15.562-4.945-10.876-5.267-19.8-1.5-24.91,6.734C3323.25,796.049,3325.737,805.316,3319.083,810.882Z" transform="translate(-3308.472 -779.511)" fill-rule="evenodd" fill="url(#linear-gradient-19)"/>
          </g>
        </g>
      </g>
    </g>
    <g id="Group_9405" data-name="Group 9405" transform="translate(2899.74 196.973)">
      <path id="Path_13193" data-name="Path 13193" d="M3117.417,233c0-1.351.96-1.9,2.138-1.218,12.47,7.152,24.914,14.556,37.386,21.71a4.684,4.684,0,0,1,2.123,3.678l.062,49.366c0,1.351-.962,1.9-2.138,1.218-12.47-7.153-24.917-14.558-37.385-21.709a4.683,4.683,0,0,1-2.124-3.679Z" transform="translate(-3046.436 -220.237)" fill-rule="evenodd" opacity="0.5" fill="url(#linear-gradient-9)"/>
      <path id="Path_13194" data-name="Path 13194" d="M4355.841,1394.6c0-.815.58-1.146,1.291-.735,7.53,4.319,15.044,8.79,22.576,13.109a2.829,2.829,0,0,1,1.283,2.221l.037,29.81c0,.815-.581,1.145-1.291.735-7.531-4.319-15.047-8.79-22.576-13.109a2.829,2.829,0,0,1-1.283-2.221Z" transform="translate(-3881.026 -1003.453)" fill-rule="evenodd" opacity="0.5" fill="url(#linear-gradient-21)"/>
      <g id="Group_9404" data-name="Group 9404" transform="translate(321.443)">
        <path id="Path_13195" data-name="Path 13195" d="M3977.555,359.58c0-1.351.961-1.9,2.138-1.218,12.47,7.152,24.914,14.556,37.386,21.71a4.683,4.683,0,0,1,2.123,3.678l.061,49.366c0,1.351-.962,1.9-2.137,1.218-12.471-7.153-24.917-14.558-37.386-21.709a4.682,4.682,0,0,1-2.124-3.679Z" transform="translate(-3947.537 -305.538)" fill-rule="evenodd" opacity="0.5" fill="url(#linear-gradient-22)"/>
        <path id="Path_13196" data-name="Path 13196" d="M3885.5,198.484c0-1.351.961-1.9,2.138-1.218,12.47,7.152,24.915,14.556,37.386,21.709a4.682,4.682,0,0,1,2.123,3.678l.062,49.366c0,1.351-.962,1.9-2.138,1.218-12.471-7.153-24.917-14.558-37.387-21.71a4.684,4.684,0,0,1-2.123-3.678l-.061-49.366Zm3.224,5.685.052,41.732a3.958,3.958,0,0,0,1.795,3.11c10.542,6.046,21.063,12.306,31.606,18.353.994.574,1.8.112,1.807-1.029l-.052-41.733a3.959,3.959,0,0,0-1.795-3.11c-10.543-6.047-21.064-12.306-31.606-18.353C3889.537,202.564,3888.728,203.027,3888.724,204.169Z" transform="translate(-3885.5 -196.973)" fill-rule="evenodd" opacity="0.5" fill="url(#linear-gradient-23)"/>
      </g>
      <path id="Path_13197" data-name="Path 13197" d="M3031.117,1029.852c0-1.351.961-1.9,2.138-1.218,12.47,7.152,24.915,14.556,37.386,21.71a4.684,4.684,0,0,1,2.123,3.678l.061,49.366c0,1.351-.962,1.9-2.138,1.218-12.47-7.153-24.917-14.558-37.386-21.71a4.684,4.684,0,0,1-2.124-3.678l-.061-49.365Zm3.225,5.685.051,41.732a3.96,3.96,0,0,0,1.8,3.11c10.542,6.046,21.063,12.306,31.606,18.353.994.574,1.8.112,1.807-1.03l-.052-41.733a3.959,3.959,0,0,0-1.8-3.109c-10.543-6.047-21.063-12.306-31.605-18.353C3035.154,1033.932,3034.345,1034.395,3034.341,1035.537Z" transform="translate(-2988.276 -757.243)" fill-rule="evenodd" opacity="0.5" fill="url(#linear-gradient-22)"/>
      <path id="Path_13198" data-name="Path 13198" d="M2909.989,676.861c-7.334-6.045-11.72-18.6-9.8-28.053s9.423-12.213,16.757-6.168,11.718,18.605,9.8,28.053S2917.32,682.9,2909.989,676.861Z" transform="translate(-2899.74 -495.156)" fill-rule="evenodd" opacity="0.5" fill="url(#linear-gradient-25)"/>
      <path id="Path_13199" data-name="Path 13199" d="M4088.84,1545.437c-10.784-8.888-17.232-27.349-14.4-41.247s13.854-17.958,24.639-9.07,17.23,27.357,14.405,41.248-13.861,17.953-24.639,9.07Zm1.18-5.8c8.292,6.833,16.78,3.715,18.955-6.977s-2.79-24.9-11.082-31.732-16.782-3.709-18.955,6.978S4081.724,1532.795,4090.02,1539.633Z" transform="translate(-3690.935 -1068.639)" fill-rule="evenodd" opacity="0.5" fill="url(#linear-gradient-26)"/>
    </g>
  </g>
</svg>
