<svg id="web_deve_r" xmlns="http://www.w3.org/2000/svg" width="490" height="438.427" viewBox="0 0 490 438.427">
  <g id="Group_746" data-name="Group 746">
    <g id="Group_710" data-name="Group 710" transform="translate(0 28.83)">
      <g id="Group_690" data-name="Group 690" transform="translate(40.065 156.036)">
        <path id="Path_1813" data-name="Path 1813" d="M579.993,252.954c11.03-6.368,19.97-21.789,19.97-34.444,0-4.7-1.244-8.326-3.356-10.735,6.053.439,10.147,5.506,10.147,14.057,0,12.656-8.94,28.078-19.97,34.444-6.928,4-13.013,3.451-16.588-.636A17.337,17.337,0,0,0,579.993,252.954Z" transform="translate(-545.119 -183.662)" fill="#72b5e8"/>
        <path id="Path_1814" data-name="Path 1814" d="M567.866,254.769a39.579,39.579,0,0,1,.341-4.842l-8.072-1.021a73.037,73.037,0,0,1,3.658-12.22l9.2-2.781a64.58,64.58,0,0,1,5.725-9.874l-2.2-9.282a73.853,73.853,0,0,1,8.809-9.283l4.951,6.4a40.148,40.148,0,0,1,4.047-2.728,31,31,0,0,1,4.047-1.944l4.951-12.121a24.513,24.513,0,0,1,8.809-.889l-2.2,11.826a12.637,12.637,0,0,1,5.725,3.264l9.2-7.839a24.024,24.024,0,0,1,3.658,8l-8.072,10.342a30.672,30.672,0,0,1,.341,4.446,39.568,39.568,0,0,1-.341,4.84l8.072,1.021a73.03,73.03,0,0,1-3.658,12.22l-9.2,2.781a64.5,64.5,0,0,1-5.725,9.874l2.2,9.283a73.773,73.773,0,0,1-8.809,9.284l-4.951-6.4a40.106,40.106,0,0,1-4.047,2.729,31.378,31.378,0,0,1-4.047,1.944l-4.951,12.121a24.511,24.511,0,0,1-8.809.887l2.2-11.826a12.635,12.635,0,0,1-5.725-3.263l-9.2,7.837a24.025,24.025,0,0,1-3.658-8l8.072-10.341A30.7,30.7,0,0,1,567.866,254.769Zm26.2,7.5c11.028-6.366,19.97-21.788,19.97-34.444s-8.942-17.753-19.97-11.385S574.1,238.227,574.1,250.882,583.036,268.634,594.064,262.267Z" transform="translate(-552.4 -189.654)" fill="#a8cff0"/>
        <path id="Path_1815" data-name="Path 1815" d="M577.649,203.809l4.951-12.121,7.736,4.443-4.951,12.121Z" transform="translate(-539.42 -190.709)" fill="#72b5e8"/>
        <path id="Path_1816" data-name="Path 1816" d="M594.137,204.561a31,31,0,0,0-4.047,1.944,40.143,40.143,0,0,0-4.047,2.728l-4.951-6.4h0s.836-.525,1.26-.769a31.2,31.2,0,0,1,4.047-1.944Z" transform="translate(-548.171 -187.017)" fill="#d1ebff"/>
        <path id="Path_1817" data-name="Path 1817" d="M571.523,191.986a24.55,24.55,0,0,1,8.809-.889l7.737,4.444a24.513,24.513,0,0,0-8.809.889Z" transform="translate(-528.343 -191.007)" fill="#d1ebff"/>
        <path id="Path_1818" data-name="Path 1818" d="M590.163,208.2a73.779,73.779,0,0,1,8.81-9.284l7.735,4.444a73.862,73.862,0,0,0-8.809,9.283Z" transform="translate(-573.787 -187.544)" fill="#d1ebff"/>
        <path id="Path_1819" data-name="Path 1819" d="M602.492,209.812l2.2,9.282-7.736-4.443-2.2-9.282Z" transform="translate(-578.38 -184.717)" fill="#72b5e8"/>
        <path id="Path_1820" data-name="Path 1820" d="M608.216,216.267a64.586,64.586,0,0,0-5.725,9.874l-7.735-4.442a64.669,64.669,0,0,1,5.725-9.875Z" transform="translate(-581.9 -181.889)" fill="#72b5e8"/>
        <path id="Path_1821" data-name="Path 1821" d="M615.67,223.133l-9.2,2.781-7.735-4.443,9.2-2.781Z" transform="translate(-595.079 -178.882)" fill="#d1ebff"/>
        <path id="Path_1822" data-name="Path 1822" d="M616.527,225.066a73.048,73.048,0,0,0-3.658,12.22l-7.735-4.444a72.989,72.989,0,0,1,3.658-12.219Z" transform="translate(-605.133 -178.034)" fill="#72b5e8"/>
        <path id="Path_1823" data-name="Path 1823" d="M562.679,205.131l.641-3.44,6.544-5.578,7.737,4.443-9.2,7.839A12.637,12.637,0,0,0,562.679,205.131Z" transform="translate(-505.157 -188.771)" fill="#72b5e8"/>
        <path id="Path_1824" data-name="Path 1824" d="M612.868,247.925a24.027,24.027,0,0,0,3.658,8l-7.735-4.442a24.048,24.048,0,0,1-3.658-8Z" transform="translate(-605.133 -168.022)" fill="#72b5e8"/>
        <path id="Path_1825" data-name="Path 1825" d="M602.4,238.075a30.474,30.474,0,0,1-.341-4.446c0-.466.03-.94.055-1.412l8.021,1.014a39.579,39.579,0,0,0-.341,4.842,30.7,30.7,0,0,0,.341,4.446Z" transform="translate(-594.333 -172.957)" fill="#72b5e8"/>
        <path id="Path_1826" data-name="Path 1826" d="M617.871,240.733,609.8,251.075l-7.736-4.443,8.072-10.342Z" transform="translate(-602.064 -171.172)" fill="#d1ebff"/>
        <path id="Path_1827" data-name="Path 1827" d="M598.971,246.681a12.636,12.636,0,0,0,5.725,3.263l-2.2,11.826-7.735-4.444,1.563-8.387Z" transform="translate(-578.38 -166.62)" fill="#72b5e8"/>
        <path id="Path_1828" data-name="Path 1828" d="M560.426,215.947l7.781,4.567-8.072-1.021C560.283,218.3,560.375,217.118,560.426,215.947Z" transform="translate(-492.104 -180.083)" fill="#d1ebff"/>
        <path id="Path_1829" data-name="Path 1829" d="M580.491,244.878l4.951,6.405-7.793-4.436C578.608,246.233,579.557,245.583,580.491,244.878Z" transform="translate(-534.525 -167.41)" fill="#72b5e8"/>
        <g id="Group_689" data-name="Group 689" transform="translate(7.347 4.407)" style="mix-blend-mode: color-dodge;isolation: isolate">
          <path id="Path_1830" data-name="Path 1830" d="M571.641,202.792l.022-.119c.368.141.722.309,1.071.483C572.375,203.027,572.016,202.892,571.641,202.792Z" transform="translate(-520.525 -190.305)" fill="#fff"/>
          <path id="Path_1831" data-name="Path 1831" d="M560.446,218.508l6.7.848c-.026.129-.062.26-.089.39l-6.652-.841C560.423,218.773,560.431,218.64,560.446,218.508Z" transform="translate(-498.782 -183.368)" fill="#fff"/>
          <path id="Path_1832" data-name="Path 1832" d="M607.421,211.8l2.2,9.283a64.579,64.579,0,0,0-5.725,9.874l-9.2,2.783a73.329,73.329,0,0,0-3.569,11.829l-.91-.151a73.042,73.042,0,0,1,3.657-12.22l9.2-2.781a64.687,64.687,0,0,1,5.725-9.874l-2.2-9.282a73.648,73.648,0,0,1,8.808-9.283l.3,1.02A74.3,74.3,0,0,0,607.421,211.8Z" transform="translate(-590.223 -190.609)" fill="#fff"/>
          <path id="Path_1833" data-name="Path 1833" d="M583.179,255.538c11.028-6.368,19.97-21.788,19.97-34.444,0-5.59-1.754-9.687-4.656-11.983,3.352,2.159,5.414,6.464,5.414,12.525,0,12.655-8.94,28.076-19.97,34.444-5.568,3.214-10.6,3.5-14.221,1.372.268.082.549.135.827.2C573.986,258.9,578.382,258.308,583.179,255.538Z" transform="translate(-548.929 -187.485)" fill="#fff"/>
          <path id="Path_1834" data-name="Path 1834" d="M599.427,249.38a12.546,12.546,0,0,1-3.638-2.038l.339-.29A12.633,12.633,0,0,0,599.427,249.38Z" transform="translate(-581.944 -170.865)" fill="#fff"/>
          <path id="Path_1835" data-name="Path 1835" d="M563.086,207.261c.337.014,0-.262-.339-.535l8.857-7.548c.252.347.477.726.06.772Z" transform="translate(-506.897 -191.836)" fill="#fff"/>
          <path id="Path_1836" data-name="Path 1836" d="M597.363,249.458l-2.11,11.319c.244-.013-.237-.019-.7-.062l2.181-11.707C597.173,249.178,597.62,249.336,597.363,249.458Z" transform="translate(-578.175 -170.008)" fill="#fff" style="mix-blend-mode: color-dodge;isolation: isolate"/>
          <path id="Path_1837" data-name="Path 1837" d="M609.534,237.617a38.174,38.174,0,0,1,.3-4.445l.8.06a39.563,39.563,0,0,0-.341,4.842,30.676,30.676,0,0,0,.341,4.445l-8.072,10.342a24.674,24.674,0,0,0,2.948,6.9l-.053.64a24.025,24.025,0,0,1-3.657-8l8.072-10.342A30.457,30.457,0,0,1,609.534,237.617Z" transform="translate(-601.804 -176.945)" fill="#fff"/>
          <path id="Path_1838" data-name="Path 1838" d="M584.992,195.409l-4.95,12.121a31.092,31.092,0,0,0-4.048,1.943,39.911,39.911,0,0,0-4.045,2.729l-.155-.769a37.657,37.657,0,0,1,3.474-2.317,31.191,31.191,0,0,1,4.047-1.944l4.951-12.121a24.515,24.515,0,0,1,8.809-.889l-.095.509A28.831,28.831,0,0,0,584.992,195.409Z" transform="translate(-541.086 -194.072)" fill="#fff"/>
          <path id="Path_1839" data-name="Path 1839" d="M578.13,245.25l4.14,5.355c-.174.157-.344.324-.519.477l-4.192-5.423C577.749,245.52,577.942,245.392,578.13,245.25Z" transform="translate(-538.571 -171.655)" fill="#fff"/>
        </g>
      </g>
      <g id="Group_692" data-name="Group 692" transform="translate(25.348 26.126)">
        <path id="Path_1840" data-name="Path 1840" d="M573.557,193.849c16.591-9.577,30.039-32.774,30.039-51.811,0-7.062-1.871-12.525-5.049-16.146,9.1.659,15.263,8.28,15.263,21.145,0,19.037-13.448,42.232-30.039,51.811-10.423,6.017-19.575,5.19-24.953-.958C563.171,198.208,568.191,196.947,573.557,193.849Z" transform="translate(-521.097 -89.62)" fill="#72b5e8"/>
        <path id="Path_1841" data-name="Path 1841" d="M555.312,196.581a58.993,58.993,0,0,1,.515-7.282l-12.143-1.536a109.8,109.8,0,0,1,5.5-18.382l13.835-4.183a97.256,97.256,0,0,1,8.611-14.853l-3.315-13.962a110.866,110.866,0,0,1,13.25-13.965l7.448,9.633a60.378,60.378,0,0,1,6.087-4.1,46.814,46.814,0,0,1,6.087-2.924l7.448-18.234a36.914,36.914,0,0,1,13.251-1.336l-3.316,17.79a19,19,0,0,1,8.611,4.911l13.835-11.792a36.133,36.133,0,0,1,5.5,12.026l-12.141,15.557a45.974,45.974,0,0,1,.513,6.69,59.239,59.239,0,0,1-.513,7.281l12.141,1.536a109.8,109.8,0,0,1-5.5,18.382l-13.834,4.185a97.36,97.36,0,0,1-8.612,14.852l3.316,13.962A110.975,110.975,0,0,1,608.639,224.8l-7.448-9.633a60.12,60.12,0,0,1-6.087,4.1,46.82,46.82,0,0,1-6.087,2.925l-7.448,18.233a36.878,36.878,0,0,1-13.25,1.336l3.315-17.79a19,19,0,0,1-8.611-4.909l-13.835,11.792a36.153,36.153,0,0,1-5.5-12.028l12.143-15.557A45.768,45.768,0,0,1,555.312,196.581Zm39.409,11.28c16.589-9.579,30.039-32.774,30.039-51.811s-13.45-26.7-30.039-17.127-30.038,32.774-30.038,51.812S578.132,217.438,594.721,207.86Z" transform="translate(-532.048 -98.633)" fill="#a8cff0"/>
        <path id="Path_1842" data-name="Path 1842" d="M570.029,119.925l7.447-18.233,11.636,6.684-7.447,18.233Z" transform="translate(-512.522 -100.22)" fill="#72b5e8"/>
        <path id="Path_1843" data-name="Path 1843" d="M594.828,121.055a47.02,47.02,0,0,0-6.087,2.925,60.383,60.383,0,0,0-6.087,4.1l-7.446-9.632h0s1.258-.789,1.894-1.158a46.891,46.891,0,0,1,6.087-2.924Z" transform="translate(-525.685 -94.666)" fill="#d1ebff"/>
        <path id="Path_1844" data-name="Path 1844" d="M560.814,102.142a36.888,36.888,0,0,1,13.251-1.337l11.637,6.684a36.915,36.915,0,0,0-13.251,1.336Z" transform="translate(-495.86 -100.669)" fill="#d1ebff"/>
        <path id="Path_1845" data-name="Path 1845" d="M588.853,126.525A110.965,110.965,0,0,1,602.1,112.56l11.637,6.685a110.76,110.76,0,0,0-13.25,13.963Z" transform="translate(-564.218 -95.46)" fill="#d1ebff"/>
        <path id="Path_1846" data-name="Path 1846" d="M607.4,128.955l3.315,13.962-11.636-6.684-3.315-13.962Z" transform="translate(-571.127 -91.206)" fill="#72b5e8"/>
        <path id="Path_1847" data-name="Path 1847" d="M616.009,138.664a97.268,97.268,0,0,0-8.611,14.853l-11.636-6.684a97.221,97.221,0,0,1,8.611-14.853Z" transform="translate(-576.423 -86.953)" fill="#72b5e8"/>
        <path id="Path_1848" data-name="Path 1848" d="M627.222,148.993l-13.835,4.184-11.636-6.684,13.836-4.184Z" transform="translate(-596.247 -82.429)" fill="#d1ebff"/>
        <path id="Path_1849" data-name="Path 1849" d="M628.511,151.9a109.806,109.806,0,0,0-5.5,18.382L611.371,163.6a109.839,109.839,0,0,1,5.5-18.382Z" transform="translate(-611.371 -81.155)" fill="#72b5e8"/>
        <path id="Path_1850" data-name="Path 1850" d="M547.511,121.914l.965-5.174,9.845-8.391,11.637,6.684-13.835,11.792A19,19,0,0,0,547.511,121.914Z" transform="translate(-460.985 -97.304)" fill="#72b5e8"/>
        <path id="Path_1851" data-name="Path 1851" d="M623.007,186.286a36.154,36.154,0,0,0,5.5,12.028l-11.637-6.684a36.153,36.153,0,0,1-5.5-12.028Z" transform="translate(-611.371 -66.093)" fill="#72b5e8"/>
        <path id="Path_1852" data-name="Path 1852" d="M607.268,171.469a45.954,45.954,0,0,1-.513-6.688c0-.7.046-1.414.083-2.125l12.065,1.527a59.263,59.263,0,0,0-.513,7.282,45.97,45.97,0,0,0,.513,6.688Z" transform="translate(-595.126 -73.517)" fill="#72b5e8"/>
        <path id="Path_1853" data-name="Path 1853" d="M630.533,175.468l-12.142,15.556-11.636-6.684L618.9,168.784Z" transform="translate(-606.754 -70.832)" fill="#d1ebff"/>
        <path id="Path_1854" data-name="Path 1854" d="M602.1,184.414a19,19,0,0,0,8.611,4.909l-3.315,17.79-11.636-6.684,2.351-12.616Z" transform="translate(-571.127 -63.985)" fill="#72b5e8"/>
        <path id="Path_1855" data-name="Path 1855" d="M544.121,138.184l11.7,6.869-12.141-1.536C543.907,141.722,544.045,139.944,544.121,138.184Z" transform="translate(-441.349 -84.236)" fill="#d1ebff"/>
        <path id="Path_1856" data-name="Path 1856" d="M574.3,181.7l7.448,9.633-11.723-6.671C571.473,183.741,572.9,182.761,574.3,181.7Z" transform="translate(-505.161 -65.173)" fill="#72b5e8"/>
        <g id="Group_691" data-name="Group 691" transform="translate(11.051 6.629)" style="mix-blend-mode: color-dodge;isolation: isolate">
          <path id="Path_1857" data-name="Path 1857" d="M560.991,118.4l.033-.18c.554.213,1.084.467,1.612.728C562.094,118.748,561.556,118.544,560.991,118.4Z" transform="translate(-484.099 -99.612)" fill="#fff"/>
          <path id="Path_1858" data-name="Path 1858" d="M544.151,142.036l10.081,1.276c-.039.2-.093.393-.134.588l-10.007-1.267C544.117,142.433,544.128,142.236,544.151,142.036Z" transform="translate(-451.392 -89.178)" fill="#fff"/>
          <path id="Path_1859" data-name="Path 1859" d="M614.815,131.949l3.315,13.962a97.257,97.257,0,0,0-8.611,14.853l-13.835,4.183a110.174,110.174,0,0,0-5.37,17.794l-1.37-.226a109.85,109.85,0,0,1,5.5-18.382l13.835-4.183a97.232,97.232,0,0,1,8.611-14.853l-3.315-13.962a110.86,110.86,0,0,1,13.25-13.965l.456,1.534A111.569,111.569,0,0,0,614.815,131.949Z" transform="translate(-588.943 -100.07)" fill="#fff"/>
          <path id="Path_1860" data-name="Path 1860" d="M578.346,197.738c16.591-9.579,30.039-32.774,30.039-51.811,0-8.41-2.639-14.572-7-18.027,5.043,3.247,8.143,9.724,8.143,18.841,0,19.037-13.448,42.234-30.038,51.812-8.377,4.835-15.945,5.263-21.392,2.064.4.122.825.2,1.242.295C564.517,202.791,571.13,201.906,578.346,197.738Z" transform="translate(-526.826 -95.37)" fill="#fff"/>
          <path id="Path_1861" data-name="Path 1861" d="M602.789,188.475a18.866,18.866,0,0,1-5.473-3.066l.512-.436A19,19,0,0,0,602.789,188.475Z" transform="translate(-576.489 -70.37)" fill="#fff"/>
          <path id="Path_1862" data-name="Path 1862" d="M548.123,125.119c.506.022,0-.394-.51-.805l13.323-11.355c.378.522.719,1.093.092,1.162Z" transform="translate(-463.6 -101.914)" fill="#fff"/>
          <path id="Path_1863" data-name="Path 1863" d="M599.683,188.592l-3.172,17.026c.367-.019-.357-.027-1.057-.093l3.282-17.61C599.4,188.17,600.07,188.408,599.683,188.592Z" transform="translate(-570.819 -69.081)" fill="#fff" style="mix-blend-mode: color-dodge;isolation: isolate"/>
          <path id="Path_1864" data-name="Path 1864" d="M617.991,170.779a57.157,57.157,0,0,1,.454-6.685l1.208.092a59.243,59.243,0,0,0-.513,7.281,45.971,45.971,0,0,0,.513,6.688l-12.143,15.557a37.148,37.148,0,0,0,4.433,10.375l-.078.965a36.154,36.154,0,0,1-5.5-12.028L618.5,177.468A45.963,45.963,0,0,1,617.991,170.779Z" transform="translate(-606.363 -79.516)" fill="#fff"/>
          <path id="Path_1865" data-name="Path 1865" d="M581.077,107.29l-7.448,18.233a46.63,46.63,0,0,0-6.087,2.925,60.2,60.2,0,0,0-6.087,4.1l-.233-1.156a57.1,57.1,0,0,1,5.227-3.486,46.8,46.8,0,0,1,6.087-2.924l7.448-18.234a36.91,36.91,0,0,1,13.25-1.336l-.142.765A43.4,43.4,0,0,0,581.077,107.29Z" transform="translate(-515.029 -105.279)" fill="#fff"/>
          <path id="Path_1866" data-name="Path 1866" d="M570.752,182.262l6.228,8.054c-.263.236-.518.489-.781.72l-6.306-8.156C570.178,182.67,570.468,182.476,570.752,182.262Z" transform="translate(-511.244 -71.557)" fill="#fff"/>
        </g>
      </g>
      <path id="Path_1867" data-name="Path 1867" d="M595.471,101.44c-.092-1.924-1.414-2.764-2.951-1.875a6.036,6.036,0,0,0-2.62,5.091c.091,1.924,1.412,2.764,2.951,1.875A6.042,6.042,0,0,0,595.471,101.44Z" transform="translate(-522.104 -75.182)" fill="#eb4680"/>
      <path id="Path_1868" data-name="Path 1868" d="M587.619,261.248c-.06-1.28-.939-1.838-1.963-1.247a4.018,4.018,0,0,0-1.743,3.387c.06,1.28.94,1.838,1.963,1.247A4.018,4.018,0,0,0,587.619,261.248Z" transform="translate(-505.644 -4.854)" fill="#eb4680"/>
      <g id="Group_693" data-name="Group 693" transform="translate(18.166 155.994)">
        <path id="Path_1869" data-name="Path 1869" d="M630.09,198.328a.719.719,0,0,0,.62-1.081l-3.447-5.91a.719.719,0,1,0-1.242.723l2.519,4.32-5.086-1.566a.719.719,0,0,0-.424,1.375l6.848,2.108A.727.727,0,0,0,630.09,198.328Z" transform="translate(-622.522 -190.978)" fill="#eb4680"/>
      </g>
      <g id="Group_695" data-name="Group 695" transform="translate(64.371 188.36)">
        <path id="Path_1870" data-name="Path 1870" d="M596.518,214.53a16.492,16.492,0,0,0-6.411,7.741,17.225,17.225,0,0,1-2.125-.72,5.676,5.676,0,0,0-4.935.756,16.763,16.763,0,0,0-7.6,13.118c0,8.808,15.079,11.859,15.079,11.859s14.34-19.168,14.34-27.975c0-2.4,1.02-3.145-.351-3.933-.118-.068-2.846-1.519-2.973-1.572C600.2,213.224,598.442,213.419,596.518,214.53Z" transform="translate(-575.443 -213.486)" fill="#d62d69"/>
        <path id="Path_1871" data-name="Path 1871" d="M595.52,215.483a16.74,16.74,0,0,0-6.736,8.572c-1.271-2.049-3.808-2.485-6.736-.8a16.762,16.762,0,0,0-7.6,13.118c0,8.808,14.34,11.417,14.34,11.417s14.34-19.168,14.34-27.976C603.124,215,599.72,213.059,595.52,215.483Z" transform="translate(-571.904 -213.068)" fill="#eb4680"/>
        <g id="Group_694" data-name="Group 694" transform="translate(2.337 1.268)" style="mix-blend-mode: color-dodge;isolation: isolate">
          <path id="Path_1872" data-name="Path 1872" d="M583.567,215.7a17.352,17.352,0,0,0-7.075,8.584c-.258-.417.1-.262-.259-.541a16.593,16.593,0,0,1,6.546-8.108c2.3-1.324,4.039-1.638,5.4-.8A5.906,5.906,0,0,0,583.567,215.7Z" transform="translate(-561.871 -214.367)" fill="#fff" opacity="0.7"/>
          <path id="Path_1873" data-name="Path 1873" d="M593.218,220.885c2.289-1.322,4.077-1.349,5.217-.64a5.886,5.886,0,0,0-4.6.856,16.763,16.763,0,0,0-7.6,13.118c0,4.093,3.1,6.845,6.411,8.621-3.7-1.736-7.03-4.282-7.03-8.837A16.76,16.76,0,0,1,593.218,220.885Z" transform="translate(-585.612 -211.995)" fill="#fff" opacity="0.7"/>
        </g>
      </g>
      <g id="Group_696" data-name="Group 696" transform="translate(11.244 27.592)">
        <path id="Path_1874" data-name="Path 1874" d="M604.349,236.46l.966-1.064c-7.74-7.026-11.831-18.48-11.831-33.125,0-36.44,25.837-81,57.595-99.338l-.719-1.245c-32.153,18.564-58.314,63.686-58.314,100.583C592.047,217.332,596.3,229.155,604.349,236.46Z" transform="translate(-592.047 -101.688)" fill="#eb4680"/>
      </g>
      <g id="Group_700" data-name="Group 700" transform="translate(0 134.944)">
        <g id="Group_697" data-name="Group 697">
          <path id="Path_1875" data-name="Path 1875" d="M640.639,179.219h.012a.719.719,0,0,0,.708-.729q-.011-.71-.01-1.431a.719.719,0,1,0-1.438,0q0,.731.01,1.452A.719.719,0,0,0,640.639,179.219Z" transform="translate(-639.91 -176.34)" fill="#a8cff0"/>
        </g>
        <g id="Group_698" data-name="Group 698" transform="translate(0.174 5.722)">
          <path id="Path_1876" data-name="Path 1876" d="M647.572,227.3a.719.719,0,0,0,.006-1.438c-.936-.007-1.878-.045-2.8-.115a.72.72,0,0,0-.107,1.435c.956.072,1.933.111,2.9.118Zm4.277-.165c.022,0,.04,0,.062,0q1.421-.121,2.877-.325A.719.719,0,0,0,655.4,226a.733.733,0,0,0-.813-.613q-1.415.2-2.8.316a.719.719,0,0,0,.059,1.435Zm-11.369-.492a.719.719,0,0,0,.128-1.427c-.922-.168-1.842-.372-2.734-.607a.719.719,0,0,0-.365,1.391c.927.244,1.882.456,2.84.631A.792.792,0,0,0,640.479,226.645Zm-6.854-1.947a.719.719,0,0,0,.266-1.388c-.866-.342-1.724-.723-2.553-1.13a.718.718,0,1,0-.634,1.288c.861.426,1.757.823,2.656,1.179A.714.714,0,0,0,633.626,224.7Zm-6.314-3.282a.719.719,0,0,0,.4-1.319c-.778-.515-1.542-1.066-2.268-1.635a.719.719,0,0,0-.887,1.132c.756.594,1.552,1.166,2.363,1.7A.708.708,0,0,0,627.311,221.416Zm-5.516-4.51a.72.72,0,0,0,.508-1.228c-.656-.657-1.293-1.347-1.9-2.053a.72.72,0,0,0-1.093.936c.627.733,1.29,1.451,1.973,2.134A.718.718,0,0,0,621.795,216.907Zm-4.537-5.492a.718.718,0,0,0,.594-1.125c-.526-.768-1.031-1.565-1.506-2.367a.719.719,0,1,0-1.238.73c.489.83,1.012,1.654,1.556,2.449A.722.722,0,0,0,617.258,211.415Zm-3.529-6.191a.7.7,0,0,0,.306-.069.719.719,0,0,0,.344-.958q-.591-1.253-1.125-2.577a.719.719,0,1,0-1.334.538q.55,1.361,1.159,2.653A.718.718,0,0,0,613.729,205.224Zm-2.584-6.644a.758.758,0,0,0,.217-.033.721.721,0,0,0,.469-.9q-.416-1.327-.782-2.709a.719.719,0,0,0-1.391.367q.373,1.417.8,2.775A.718.718,0,0,0,611.145,198.581Zm-1.746-6.917a.645.645,0,0,0,.139-.014.719.719,0,0,0,.569-.843c-.178-.913-.341-1.839-.485-2.784a.719.719,0,0,0-1.422.219q.222,1.445.493,2.84A.72.72,0,0,0,609.4,191.664Zm-1.017-7.061a.563.563,0,0,0,.07,0,.717.717,0,0,0,.647-.784q-.134-1.391-.224-2.821a.7.7,0,0,0-.762-.673.72.72,0,0,0-.673.762c.06.971.138,1.927.227,2.87A.72.72,0,0,0,608.382,184.6Z" transform="translate(-607.439 -180.319)" fill="#a8cff0"/>
        </g>
        <g id="Group_699" data-name="Group 699" transform="translate(50.991 49.674)">
          <path id="Path_1877" data-name="Path 1877" d="M604.2,212.649a.814.814,0,0,0,.154-.016c.473-.105.945-.216,1.419-.334a.719.719,0,0,0-.345-1.4q-.7.175-1.382.325a.719.719,0,0,0,.154,1.421Z" transform="translate(-603.484 -210.883)" fill="#a8cff0"/>
        </g>
      </g>
      <g id="Group_704" data-name="Group 704" transform="translate(8.382)">
        <g id="Group_701" data-name="Group 701" transform="translate(134.691 69.709)">
          <path id="Path_1878" data-name="Path 1878" d="M540.973,133.833a.72.72,0,0,0,.706-.591c.086-.476.171-.952.249-1.427a.719.719,0,1,0-1.418-.237c-.079.469-.16.938-.246,1.408a.72.72,0,0,0,.58.836A.8.8,0,0,0,540.973,133.833Z" transform="translate(-540.253 -130.976)" fill="#a8cff0"/>
        </g>
        <g id="Group_702" data-name="Group 702" transform="translate(2.122)">
          <path id="Path_1879" data-name="Path 1879" d="M539.854,169.676a.723.723,0,0,0,.667-.45q.542-1.344,1.113-2.68a.719.719,0,1,0-1.323-.564q-.574,1.35-1.125,2.7a.721.721,0,0,0,.667.989Zm2.885-6.694a.721.721,0,0,0,.654-.421q.6-1.318,1.228-2.63a.719.719,0,0,0-1.3-.621q-.632,1.324-1.24,2.655a.72.72,0,0,0,.355.953A.733.733,0,0,0,542.739,162.982Zm3.168-6.563a.722.722,0,0,0,.641-.394q.656-1.292,1.336-2.577a.719.719,0,1,0-1.27-.673q-.686,1.294-1.35,2.6a.721.721,0,0,0,.316.968A.735.735,0,0,0,545.907,156.419Zm3.433-6.425a.719.719,0,0,0,.627-.367q.712-1.266,1.441-2.521a.718.718,0,1,0-1.241-.723q-.738,1.264-1.452,2.54a.718.718,0,0,0,.626,1.071Zm123.981-.663a.719.719,0,0,0,.712-.626q.192-1.458.349-2.908a.72.72,0,0,0-1.431-.155q-.155,1.434-.345,2.875a.719.719,0,0,0,.62.807A.7.7,0,0,0,673.321,149.331Zm-120.289-5.614a.721.721,0,0,0,.613-.341q.759-1.236,1.54-2.458a.718.718,0,1,0-1.211-.774q-.787,1.23-1.555,2.476a.718.718,0,0,0,.613,1.1Zm121.015-1.631a.718.718,0,0,0,.716-.67q.1-1.469.158-2.928a.721.721,0,0,0-.692-.746H674.2a.718.718,0,0,0-.719.69q-.056,1.437-.155,2.888a.719.719,0,0,0,.669.765ZM556.978,137.6a.718.718,0,0,0,.6-.316q.813-1.2,1.642-2.39a.719.719,0,0,0-1.181-.823q-.833,1.2-1.652,2.407a.719.719,0,0,0,.6,1.122Zm117.3-2.788h0a.718.718,0,0,0,.716-.722c0-.992-.022-1.97-.058-2.935a.719.719,0,0,0-.719-.692H674.2a.72.72,0,0,0-.693.745c.036.951.053,1.913.058,2.888A.72.72,0,0,0,674.279,134.812ZM561.17,131.656a.716.716,0,0,0,.578-.292q.863-1.167,1.74-2.317a.719.719,0,1,0-1.143-.873q-.884,1.158-1.753,2.335a.719.719,0,0,0,.578,1.146Zm112.791-4.113.063,0a.72.72,0,0,0,.654-.778q-.127-1.484-.3-2.922a.726.726,0,0,0-.8-.624.718.718,0,0,0-.627.8c.116.94.214,1.9.3,2.869A.719.719,0,0,0,673.961,127.543ZM565.614,125.9a.719.719,0,0,0,.559-.267q.908-1.128,1.836-2.236a.72.72,0,0,0-1.1-.923q-.934,1.12-1.852,2.258a.718.718,0,0,0,.561,1.169Zm4.687-5.557a.718.718,0,0,0,.539-.243q.958-1.087,1.931-2.15a.718.718,0,1,0-1.058-.971q-.986,1.072-1.951,2.17a.718.718,0,0,0,.539,1.194Zm102.7-.01a.66.66,0,0,0,.13-.013.719.719,0,0,0,.58-.835q-.27-1.469-.593-2.883a.719.719,0,1,0-1.4.321q.315,1.385.578,2.821A.72.72,0,0,0,673,120.331ZM575.239,115a.723.723,0,0,0,.516-.217q1.014-1.044,2.04-2.061a.719.719,0,0,0-1.012-1.022q-1.035,1.027-2.059,2.079a.717.717,0,0,0,.014,1.017A.709.709,0,0,0,575.239,115Zm96.065-1.746a.747.747,0,0,0,.209-.03.718.718,0,0,0,.479-.9q-.436-1.43-.929-2.8a.718.718,0,1,0-1.35.489q.481,1.333.9,2.728A.719.719,0,0,0,671.3,113.259Zm-90.865-3.351a.715.715,0,0,0,.49-.193q1.061-.99,2.141-1.951a.72.72,0,0,0-.959-1.073q-1.087.971-2.161,1.973a.718.718,0,0,0,.489,1.244Zm88.3-3.453a.718.718,0,0,0,.653-1.018q-.623-1.363-1.314-2.647a.719.719,0,1,0-1.267.68q.669,1.247,1.276,2.567A.716.716,0,0,0,668.738,106.456ZM585.9,105.093a.718.718,0,0,0,.462-.167q1.113-.93,2.243-1.829a.719.719,0,1,0-.9-1.125q-1.141.908-2.269,1.851a.718.718,0,0,0,.46,1.27Zm5.723-4.5a.717.717,0,0,0,.427-.141q1.169-.863,2.348-1.69a.719.719,0,1,0-.826-1.178q-1.193.837-2.377,1.711a.718.718,0,0,0,.427,1.3Zm73.574-.482a.71.71,0,0,0,.4-.122.719.719,0,0,0,.2-1c-.557-.825-1.142-1.632-1.741-2.4a.719.719,0,0,0-1.132.887c.578.738,1.143,1.516,1.68,2.312A.716.716,0,0,0,665.2,100.11ZM597.61,96.456a.712.712,0,0,0,.388-.114q1.223-.785,2.455-1.532a.718.718,0,1,0-.743-1.23q-1.249.755-2.489,1.55a.72.72,0,0,0,.39,1.324Zm63-1.976a.72.72,0,0,0,.512-1.225c-.7-.7-1.424-1.383-2.167-2.025a.719.719,0,1,0-.938,1.09c.713.615,1.414,1.27,2.082,1.946A.718.718,0,0,0,660.607,94.48Zm-56.739-1.741a.716.716,0,0,0,.345-.088q1.283-.7,2.558-1.343a.719.719,0,1,0-.649-1.284q-1.292.654-2.6,1.365a.719.719,0,0,0,.344,1.35ZM655,89.861a.719.719,0,0,0,.4-1.319c-.824-.546-1.68-1.061-2.542-1.533a.719.719,0,0,0-.689,1.263c.827.452,1.648.945,2.437,1.47A.716.716,0,0,0,655,89.861Zm-44.611-.345a.724.724,0,0,0,.292-.062q1.337-.591,2.659-1.117A.719.719,0,1,0,612.81,87q-1.344.535-2.708,1.137a.72.72,0,0,0,.291,1.378Zm6.789-2.623a.712.712,0,0,0,.224-.036q1.389-.457,2.755-.841a.719.719,0,1,0-.39-1.385q-1.4.393-2.814.86a.719.719,0,0,0,.224,1.4Zm31.378-.378a.719.719,0,0,0,.263-1.389c-.909-.357-1.851-.683-2.8-.969a.719.719,0,0,0-.413,1.378c.915.275,1.819.588,2.692.93A.729.729,0,0,0,648.559,86.515ZM624.2,85.009a.75.75,0,0,0,.147-.016q1.428-.291,2.829-.5a.72.72,0,0,0-.213-1.424q-1.439.218-2.906.518a.719.719,0,0,0,.144,1.424Zm17.363-.452a.719.719,0,0,0,.124-1.427c-.961-.17-1.947-.306-2.934-.407a.719.719,0,0,0-.145,1.431c.95.1,1.9.229,2.829.391A.637.637,0,0,0,641.568,84.557Zm-10.151-.526h.045q1.45-.093,2.865-.092a.719.719,0,1,0,0-1.438q-1.46,0-2.955.093a.719.719,0,0,0,.046,1.437Z" transform="translate(-539.134 -82.501)" fill="#a8cff0"/>
        </g>
        <g id="Group_703" data-name="Group 703" transform="translate(0 89.893)">
          <path id="Path_1880" data-name="Path 1880" d="M634.46,147.8a.719.719,0,0,0,.676-.472l.5-1.345a.72.72,0,1,0-1.349-.5l-.5,1.353a.72.72,0,0,0,.428.922A.753.753,0,0,0,634.46,147.8Z" transform="translate(-633.741 -145.012)" fill="#a8cff0"/>
        </g>
      </g>
      <g id="Group_708" data-name="Group 708" transform="translate(27.514 197.189)">
        <g id="Group_705" data-name="Group 705" transform="translate(6.949)">
          <path id="Path_1881" data-name="Path 1881" d="M616.29,222.392a.721.721,0,0,0,.667-.45q.268-.66.544-1.322a.719.719,0,0,0-1.326-.555c-.187.444-.371.892-.552,1.337a.722.722,0,0,0,.4.938A.745.745,0,0,0,616.29,222.392Z" transform="translate(-615.57 -219.625)" fill="#eb4680"/>
        </g>
        <g id="Group_706" data-name="Group 706" transform="translate(0 5.324)">
          <path id="Path_1882" data-name="Path 1882" d="M618.2,287.714h0c.959,0,1.937-.053,2.908-.145a.719.719,0,0,0,.649-.784.747.747,0,0,0-.784-.649c-.928.088-1.864.135-2.778.14a.719.719,0,0,0,0,1.438Zm-4.255-.3a.719.719,0,0,0,.1-1.431,24.548,24.548,0,0,1-2.708-.559.72.72,0,0,0-.371,1.391,26.481,26.481,0,0,0,2.866.591A.679.679,0,0,0,613.944,287.413Zm11.317-.5a.686.686,0,0,0,.151-.017c.919-.2,1.864-.437,2.808-.71a.719.719,0,1,0-.4-1.382c-.915.265-1.826.5-2.714.689a.719.719,0,0,0,.152,1.421Zm-18.112-1.537a.719.719,0,0,0,.306-1.369,22.4,22.4,0,0,1-2.414-1.327.718.718,0,1,0-.769,1.212,22.822,22.822,0,0,0,2.571,1.415A.735.735,0,0,0,607.15,285.374Zm24.914-.545a.706.706,0,0,0,.263-.05c.877-.345,1.763-.719,2.659-1.129a.719.719,0,1,0-.6-1.309q-1.3.6-2.586,1.1a.719.719,0,0,0,.262,1.389Zm-30.78-3.431a.719.719,0,0,0,.489-1.245,24.155,24.155,0,0,1-1.911-1.995.718.718,0,0,0-1.093.932,24.993,24.993,0,0,0,2.026,2.115A.711.711,0,0,0,601.284,281.4Zm-4.471-5.512a.709.709,0,0,0,.374-.1.719.719,0,0,0,.239-.989c-.473-.774-.922-1.593-1.333-2.436a.719.719,0,0,0-1.293.631c.433.883.9,1.742,1.4,2.555A.721.721,0,0,0,596.813,275.886Zm-2.994-6.441a.7.7,0,0,0,.233-.04.718.718,0,0,0,.446-.913c-.3-.863-.568-1.762-.808-2.675a.719.719,0,0,0-1.391.368c.25.945.532,1.877.84,2.774A.718.718,0,0,0,593.819,269.445Zm-1.711-6.9a.669.669,0,0,0,.119-.01.717.717,0,0,0,.591-.827q-.224-1.357-.375-2.781a.719.719,0,0,0-1.431.152q.157,1.465.388,2.865A.719.719,0,0,0,592.108,262.544Zm-.672-7.084h.024a.72.72,0,0,0,.695-.743c-.02-.644-.03-1.3-.03-1.963l.006-.853a.72.72,0,0,0-.709-.729.758.758,0,0,0-.729.71l-.006.871c0,.68.01,1.349.03,2.012A.721.721,0,0,0,591.436,255.46Zm.167-7.118a.721.721,0,0,0,.716-.664q.1-1.4.263-2.811a.719.719,0,0,0-1.429-.161q-.16,1.437-.269,2.863a.721.721,0,0,0,.663.772Zm.86-7.071a.719.719,0,0,0,.708-.6q.233-1.387.513-2.78a.719.719,0,1,0-1.411-.283c-.188.945-.364,1.885-.521,2.824a.721.721,0,0,0,.59.828A.71.71,0,0,0,592.463,241.271Zm1.46-6.97a.719.719,0,0,0,.7-.544q.341-1.37.729-2.735a.72.72,0,1,0-1.385-.391q-.39,1.389-.739,2.775a.719.719,0,0,0,.522.873A.741.741,0,0,0,593.923,234.3Zm1.984-6.842a.717.717,0,0,0,.682-.495q.442-1.34.922-2.676a.719.719,0,1,0-1.353-.486q-.485,1.355-.933,2.714a.719.719,0,0,0,.683.943Z" transform="translate(-590.687 -223.327)" fill="#eb4680"/>
        </g>
        <g id="Group_707" data-name="Group 707" transform="translate(47.142 61.624)">
          <path id="Path_1883" data-name="Path 1883" d="M587.848,264.624a.709.709,0,0,0,.345-.089q.632-.347,1.268-.713a.719.719,0,1,0-.716-1.247c-.416.239-.83.473-1.242.7a.72.72,0,0,0,.345,1.35Z" transform="translate(-587.129 -262.478)" fill="#eb4680"/>
        </g>
      </g>
      <g id="Group_709" data-name="Group 709" transform="translate(32.691 195.39)">
        <path id="Path_1884" data-name="Path 1884" d="M618.961,223.646h.046a.718.718,0,0,0,.672-.762l-.239-3.835a.718.718,0,0,0-1.145-.532l-3.236,2.4a.718.718,0,1,0,.856,1.153l2.173-1.609.155,2.515A.72.72,0,0,0,618.961,223.646Z" transform="translate(-614.768 -218.374)" fill="#eb4680"/>
      </g>
    </g>
    <path id="Path_1885" data-name="Path 1885" d="M413.205,136.037c.026-4.721,6.675-8.561,14.852-8.575s14.784,3.8,14.759,8.52c-.023,4.321-5.6,7.893-12.812,8.482l-.013,2.393c1.368.208,2.376.92,2.371,1.777l-.045,8.168c-.006,1.022-1.445,1.854-3.217,1.858l-2.426,0c-1.772,0-3.2-.824-3.2-1.846l.045-8.168c0-.857,1.021-1.573,2.391-1.786l.013-2.393C418.718,143.909,413.182,140.357,413.205,136.037Z" transform="translate(-115.358 -33.976)" fill="#fff"/>
    <g id="Group_712" data-name="Group 712" transform="translate(93.475)">
      <path id="Path_1886" data-name="Path 1886" d="M385.151,497.595,642.224,349.088c9.953-5.746,18.02-21.162,18.02-34.432V80.8c0-13.27-8.067-19.369-18.02-13.622L385.151,215.683c-9.953,5.746-18.02,21.162-18.02,34.432V483.972C367.131,497.243,375.2,503.341,385.151,497.595Z" transform="translate(-360.006 -61.331)" fill="#d1ebff"/>
      <path id="Path_1887" data-name="Path 1887" d="M389.887,213.123,646.96,64.616c3.937-2.274,7.58-2.693,10.545-1.549.377.147,7.419,3.783,7.774,3.98l.016.01c-3.07-1.491-6.964-1.212-11.209,1.24L397.012,216.8c-9.953,5.746-18.02,21.162-18.02,34.432V485.094c0,8.28,3.142,13.768,7.925,15.328a2.991,2.991,0,0,1-1.579-.538c-.229-.131-7.7-4.176-7.916-4.328-3.424-2.4-5.555-7.324-5.555-14.145V247.555C371.867,234.285,379.936,218.869,389.887,213.123Z" transform="translate(-371.867 -62.453)" fill="#3f92d1"/>
      <path id="Path_1888" data-name="Path 1888" d="M371.867,213.8,628.938,65.289c3.937-2.274,7.58-2.693,10.545-1.547.377.145,5.4,2.814,5.756,3.011l.016.01c-3.07-1.491-6.964-1.212-11.209,1.24L376.973,216.51Z" transform="translate(-351.828 -62.158)" fill="#4f9fdb"/>
      <path id="Path_1889" data-name="Path 1889" d="M390.736,215.377,647.807,66.869c4.081-2.357,7.833-2.692,10.854-1.386a13.3,13.3,0,0,0-8.691,2.035L392.9,216.026c-9.951,5.746-18.02,21.161-18.02,34.432V484.314c0,7.829,2.82,13.132,7.167,15.01-5.561-.882-9.329-6.593-9.329-15.659V249.81C372.716,236.538,380.783,221.124,390.736,215.377Z" transform="translate(-366.455 -61.457)" fill="#fff" style="mix-blend-mode: screen;isolation: isolate"/>
      <path id="Path_1890" data-name="Path 1890" d="M647.04,90.449V303.512c0,10.408-4.954,20.58-12.964,25.67L379.749,476.088l-.423.242a3.449,3.449,0,0,1-5.157-2.993V248.083Z" transform="translate(-356.923 -50.189)" fill="#03336e"/>
      <path id="Path_1891" data-name="Path 1891" d="M374.322,474.412c.183-.1.326-.187.421-.242L629.072,327.264c8.01-5.089,12.964-15.26,12.964-25.669V93.217l4.793-2.768V303.512c0,10.408-4.954,20.58-12.964,25.67L379.537,476.088l-.423.242a3.44,3.44,0,0,1-4.945-1.855C374.219,474.448,374.271,474.44,374.322,474.412Z" transform="translate(-356.711 -50.189)" fill="#001a46"/>
      <g id="Group_711" data-name="Group 711" transform="translate(21.642 153.94)">
        <path id="Path_1892" data-name="Path 1892" d="M563.886,183.345a10.928,10.928,0,0,1-4.96,8.555c-2.738,1.582-4.96.315-4.96-2.827a10.932,10.932,0,0,1,4.96-8.555C561.666,178.936,563.886,180.2,563.886,183.345Z" transform="translate(-553.967 -164.975)" fill="#fc0"/>
        <path id="Path_1893" data-name="Path 1893" d="M554.991,178.178a10.925,10.925,0,0,1-4.96,8.553c-2.739,1.582-4.96.316-4.96-2.827a10.925,10.925,0,0,1,4.96-8.553C552.77,173.769,554.991,175.034,554.991,178.178Z" transform="translate(-532.278 -167.238)" fill="#eb4680"/>
        <path id="Path_1894" data-name="Path 1894" d="M546.1,173.01a10.926,10.926,0,0,1-4.96,8.555c-2.738,1.582-4.96.316-4.96-2.827a10.932,10.932,0,0,1,4.96-8.555C543.875,168.6,546.1,169.867,546.1,173.01Z" transform="translate(-510.592 -169.502)" fill="#0fbab8"/>
      </g>
    </g>
    <path id="Path_1895" data-name="Path 1895" d="M571.011,170.425l18.653-10.769c1.885-1.087,3.412-.216,3.412,1.946a7.518,7.518,0,0,1-3.412,5.886l-18.653,10.769c-1.885,1.089-3.412.217-3.412-1.946A7.52,7.52,0,0,1,571.011,170.425ZM540.3,188.156l18.654-10.769c1.884-1.089,3.412-.217,3.412,1.946a7.517,7.517,0,0,1-3.412,5.884L540.3,195.987c-1.884,1.087-3.412.217-3.412-1.946A7.522,7.522,0,0,1,540.3,188.156Zm-30.709,17.731,18.653-10.771c1.885-1.087,3.412-.216,3.412,1.946a7.518,7.518,0,0,1-3.412,5.886l-18.653,10.769c-1.885,1.089-3.412.217-3.412-1.946A7.515,7.515,0,0,1,509.591,205.887Zm-30.709,17.729,18.653-10.769c1.885-1.089,3.413-.217,3.413,1.946a7.518,7.518,0,0,1-3.413,5.886l-18.653,10.769c-1.885,1.087-3.412.217-3.412-1.946A7.518,7.518,0,0,1,478.882,223.616Z" transform="translate(-355.156 -20.08)" fill="#72b5e8"/>
    <g id="Group_716" data-name="Group 716" transform="translate(281.087 59.782)">
      <g id="Group_713" data-name="Group 713" transform="translate(0)">
        <path id="Path_1896" data-name="Path 1896" d="M448.125,179.342v80.277l-8.781-5.14V173.974Z" transform="translate(-439.344 -73.385)" fill="#2672ab"/>
        <path id="Path_1897" data-name="Path 1897" d="M317.571,208.371v80.277L492.718,188.207V107.7Z" transform="translate(-308.823 -102.414)" fill="#3f92d1"/>
        <path id="Path_1898" data-name="Path 1898" d="M501.466,109.312,326.319,209.981l-8.748-5.368,175.2-100.588Z" transform="translate(-317.571 -104.025)" fill="#72b5e8"/>
        <path id="Path_1899" data-name="Path 1899" d="M501.466,107.7,326.319,208.371,317.571,203l8.772,4.146Z" transform="translate(-317.571 -102.414)" fill="#fff" opacity="0.7"/>
      </g>
      <g id="Group_714" data-name="Group 714" transform="translate(20.699 58.886)">
        <path id="Path_1900" data-name="Path 1900" d="M383.09,223.894v-3.409l55.278-31.424v3.408Z" transform="translate(-369.389 -125.663)" fill="#fff"/>
        <path id="Path_1901" data-name="Path 1901" d="M459.36,144.974v3.408l-92.917,53.155v-3.409Z" transform="translate(-366.443 -144.974)" fill="#fff"/>
        <path id="Path_1902" data-name="Path 1902" d="M366.443,183.563l32.716-18.889v3.409l-32.716,18.889Z" transform="translate(-306.243 -136.345)" fill="#fff"/>
        <path id="Path_1903" data-name="Path 1903" d="M418.1,196.549v3.408L404.59,207.27v-3.409Z" transform="translate(-380.044 -122.383)" fill="#fff"/>
        <path id="Path_1904" data-name="Path 1904" d="M366.443,185.285,419.2,154.825v3.408l-52.759,30.461Z" transform="translate(-326.285 -140.659)" fill="#fff"/>
        <path id="Path_1905" data-name="Path 1905" d="M366.443,170.907l19.325-11.157v3.409l-19.325,11.157Z" transform="translate(-292.851 -138.502)" fill="#fff"/>
        <path id="Path_1906" data-name="Path 1906" d="M413.554,183.72l-37.089,21.413v-3.408l37.089-21.413Z" transform="translate(-335.049 -129.495)" fill="#fff"/>
        <path id="Path_1907" data-name="Path 1907" d="M434.287,168.855v3.408l-52.072,29.573v-3.408Z" transform="translate(-364.05 -134.513)" fill="#fff"/>
        <path id="Path_1908" data-name="Path 1908" d="M417.561,179.157v3.409L391.527,197.6v-3.408Z" transform="translate(-360.717 -130.001)" fill="#fff"/>
        <path id="Path_1909" data-name="Path 1909" d="M366.443,180.908l11.056-6.383v3.408l-11.056,6.383Z" transform="translate(-284.582 -132.03)" fill="#fff"/>
        <path id="Path_1910" data-name="Path 1910" d="M442.267,180.762l-36.8,20.757v-3.408l36.8-20.757Z" transform="translate(-405.465 -130.791)" fill="#fff"/>
        <path id="Path_1911" data-name="Path 1911" d="M435.567,194.176l-14.809,8.55v-3.408l14.809-8.55Z" transform="translate(-420.759 -124.915)" fill="#fff"/>
        <path id="Path_1912" data-name="Path 1912" d="M459.36,153.308l-92.917,53.155v-3.409L459.36,149.9Z" transform="translate(-366.443 -142.817)" fill="#fff"/>
        <path id="Path_1913" data-name="Path 1913" d="M439.42,194.365l-27.455,15.361v-3.409l27.455-15.361Z" transform="translate(-411.965 -124.832)" fill="#fff"/>
        <path id="Path_1914" data-name="Path 1914" d="M366.443,191.334l20.583-11.884v3.409l-20.583,11.883Z" transform="translate(-294.109 -129.873)" fill="#fff"/>
        <path id="Path_1915" data-name="Path 1915" d="M434.208,215.669l-10.345,5.973v-3.409l10.345-5.973Z" transform="translate(-423.863 -115.501)" fill="#fff"/>
        <path id="Path_1916" data-name="Path 1916" d="M437.511,206.39l-21.19,12.234v-3.408l21.19-12.234Z" transform="translate(-416.321 -119.565)" fill="#fff"/>
        <path id="Path_1917" data-name="Path 1917" d="M459.36,173.008l-92.917,53.155v-3.409L459.36,169.6Z" transform="translate(-366.443 -134.187)" fill="#fff"/>
      </g>
      <path id="Path_1918" data-name="Path 1918" d="M334.645,141.336l30.548-17.671c5.339-3.083,9.669.19,9.669,7.311v35.358c0,7.12-4.33,15.393-9.669,18.476L334.645,202.48c-5.339,3.085-9.669-.188-9.669-7.31V159.812C324.976,152.691,329.306,144.419,334.645,141.336Z" transform="translate(-201.617 -95.93)" fill="#2672ab"/>
      <path id="Path_1919" data-name="Path 1919" d="M329.674,199.58l30.548-17.669c5.339-3.083,9.669-11.356,9.669-18.477V128.077a11.583,11.583,0,0,0-1.2-5.519c2.964.492,4.971,3.549,4.971,8.4V166.31c0,7.121-4.33,15.394-9.669,18.477l-30.548,17.669c-3.651,2.108-6.828,1.242-8.473-1.792A7.108,7.108,0,0,0,329.674,199.58Z" transform="translate(-200.42 -95.907)" fill="#084c94"/>
      <g id="Group_715" data-name="Group 715" transform="translate(142.104 33.545)">
        <path id="Path_1920" data-name="Path 1920" d="M318.145,148.211l30.548-17.671c5.339-3.083,9.669.19,9.669,7.311V173.21c0,7.12-4.33,15.393-9.669,18.476l-30.548,17.669c-5.339,3.085-9.669-.188-9.669-7.31V166.687C308.476,159.566,312.806,151.294,318.145,148.211Z" transform="translate(-303.493 -126.463)" fill="#0fbab8"/>
        <path id="Path_1921" data-name="Path 1921" d="M320.422,146.177l30.547-17.671c2.288-1.32,4.386-1.467,6.041-.653l.053-.058,5.285,3.1-.02.065c-1.7-1.014-3.93-.948-6.376.464L325.405,149.1c-5.339,3.083-9.669,11.355-9.669,18.476v35.358c0,3.461,1.028,6,2.693,7.357l-2.948-1.941c-2.476-1.419-4.728-3.627-4.728-8.338V164.653C310.753,157.534,315.081,149.261,320.422,146.177Z" transform="translate(-310.753 -127.352)" fill="#0ba19f"/>
        <path id="Path_1922" data-name="Path 1922" d="M320.517,147.9l30.547-17.669c2.653-1.533,5.055-1.493,6.8-.2a6.533,6.533,0,0,0-5.626.828L321.694,148.53c-5.341,3.083-9.671,11.355-9.671,18.476v35.358c0,3.584,1.1,6.189,2.869,7.5-2.446-.928-4.044-3.818-4.044-8.138V166.373C310.848,159.252,315.177,150.98,320.517,147.9Z" transform="translate(-306.407 -126.601)" fill="#fff" opacity="0.7"/>
        <path id="Path_1923" data-name="Path 1923" d="M347.238,136.972v40.476l-33.127,19.133V156.106Zm-31,55.932,28.88-16.683V140.65l-28.88,16.681Z" transform="translate(-300.471 -123.138)" fill="#fff"/>
        <path id="Path_1924" data-name="Path 1924" d="M326.267,157.656c0,2.652,1.874,3.719,4.185,2.386a9.221,9.221,0,0,0,4.185-7.217c0-2.652-1.874-3.72-4.185-2.386A9.219,9.219,0,0,0,326.267,157.656Z" transform="translate(-305.351 -117.491)" fill="#fff"/>
        <path id="Path_1925" data-name="Path 1925" d="M345.668,161.036l-8.625-11.146-8.758,22.16-6.369-5.175-7.033,19.108.133,1.935,30.52-16.322Z" transform="translate(-300.011 -117.48)" fill="#fff"/>
      </g>
    </g>
    <g id="Group_719" data-name="Group 719" transform="translate(63.141 102.69)">
      <g id="Group_717" data-name="Group 717" transform="translate(0 0)">
        <path id="Path_1926" data-name="Path 1926" d="M570.089,168.777c0,5.5,1.9,9.4,4.984,11.281.092.058,5.27,3.27,5.365,3.322,3.211,1.8,1.158-2.278,6.033-5.092,9.813-5.666,17.767-19.386,17.767-30.646,0-5.568,5.148-5.613,1.995-7.472-.088-.052-5.885-3.361-5.974-3.41-3.2-1.734-7.578-1.415-12.4,1.372C578.044,143.8,570.089,157.517,570.089,168.777Z" transform="translate(-568.544 -133.062)" fill="#fc0"/>
        <path id="Path_1927" data-name="Path 1927" d="M589.443,140.243c4.7-2.715,8.976-3.082,12.156-1.493-2.964-.828-6.639-.209-10.621,2.089-9.813,5.666-17.767,19.386-17.767,30.646,0,5.861,2.158,9.9,5.611,11.622-4.337-1.214-7.146-5.529-7.146-12.219C571.676,159.629,579.63,145.909,589.443,140.243Z" transform="translate(-565.169 -132.135)" fill="#fff"/>
        <ellipse id="Ellipse_43" data-name="Ellipse 43" cx="14.461" cy="25.048" rx="14.461" ry="25.048" transform="translate(24.968 57.845) rotate(-149.689)" fill="#ffd70f"/>
      </g>
      <path id="Path_1928" data-name="Path 1928" d="M573.854,150.313c0,1.582,1.119,2.22,2.5,1.424a5.5,5.5,0,0,0,2.5-4.307c0-1.582-1.119-2.219-2.5-1.422A5.5,5.5,0,0,0,573.854,150.313Z" transform="translate(-545.551 -128.693)" fill="#d99f00"/>
      <path id="Path_1929" data-name="Path 1929" d="M580.876,154.367c0,1.582,1.117,2.219,2.5,1.424a5.5,5.5,0,0,0,2.5-4.307c0-1.582-1.117-2.219-2.5-1.422A5.5,5.5,0,0,0,580.876,154.367Z" transform="translate(-562.669 -126.917)" fill="#d99f00"/>
      <path id="Path_1930" data-name="Path 1930" d="M591.4,153.428l-2.328.394a16.969,16.969,0,0,1-7.148,9.914c-3.108,1.795-5.951,1.2-7.075-1.473l-2.305,2.357c1.491,3.546,5.26,4.33,9.38,1.951C586.167,164.121,589.976,158.839,591.4,153.428Z" transform="translate(-556.213 -125.292)" fill="#d99f00"/>
      <path id="Path_1931" data-name="Path 1931" d="M575.285,151.214a5.5,5.5,0,0,0,2.5-4.305,2.091,2.091,0,0,0-.336-1.217c.643.147,1.066.756,1.066,1.726a5.5,5.5,0,0,1-2.5,4.307c-.93.536-1.731.41-2.161-.207A2,2,0,0,0,575.285,151.214Z" transform="translate(-545.215 -128.681)" fill="#b08100"/>
      <path id="Path_1932" data-name="Path 1932" d="M582.308,155.268a5.5,5.5,0,0,0,2.5-4.307,2.079,2.079,0,0,0-.337-1.215c.643.147,1.066.756,1.066,1.726a5.5,5.5,0,0,1-2.5,4.307c-.929.536-1.731.41-2.161-.207A2,2,0,0,0,582.308,155.268Z" transform="translate(-562.334 -126.905)" fill="#b08100"/>
      <g id="Group_718" data-name="Group 718" transform="translate(17.824 28.137)">
        <path id="Path_1933" data-name="Path 1933" d="M583.31,159.865l.286-.293a4.262,4.262,0,0,0,1.066,1.527A3.745,3.745,0,0,1,583.31,159.865Z" transform="translate(-582.787 -150.738)" fill="#b08100"/>
        <path id="Path_1934" data-name="Path 1934" d="M579.7,166.061c4.071-2.35,7.734-7.3,9.283-12.476l.923-.155c-1.422,5.41-5.232,10.692-9.477,13.142-3.1,1.792-6,1.788-7.885.164C574.4,167.817,576.97,167.635,579.7,166.061Z" transform="translate(-572.541 -153.429)" fill="#b08100"/>
      </g>
    </g>
    <g id="Group_727" data-name="Group 727" transform="translate(64.637 199.564)">
      <g id="Group_720" data-name="Group 720">
        <path id="Path_1935" data-name="Path 1935" d="M598.644,283.137v98.037l-8.781-5.14V277.769Z" transform="translate(-589.863 -167.701)" fill="#2672ab"/>
        <path id="Path_1936" data-name="Path 1936" d="M456.59,315.054v98.037L648.274,303.171V204.905Z" transform="translate(-447.842 -199.618)" fill="#3f92d1"/>
        <path id="Path_1937" data-name="Path 1937" d="M657.022,206.516,465.338,316.665,456.59,311.3,648.331,201.228Z" transform="translate(-456.59 -201.228)" fill="#72b5e8"/>
        <path id="Path_1938" data-name="Path 1938" d="M657.022,204.905,465.338,315.054l-8.748-5.368,8.772,4.146Z" transform="translate(-456.59 -199.618)" fill="#fff" opacity="0.7"/>
      </g>
      <ellipse id="Ellipse_44" data-name="Ellipse 44" cx="24.483" cy="42.407" rx="24.483" ry="42.407" transform="translate(50.199 189.965) rotate(-149.689)" fill="#2672ab"/>
      <path id="Path_1939" data-name="Path 1939" d="M562.071,342.291c16.614-9.59,30.081-32.819,30.081-51.881,0-7.112-1.877-12.637-5.091-16.276,4.944,3.3,7.967,9.766,7.967,18.792,0,19.063-13.467,42.291-30.081,51.881-10.414,6.014-19.59,5.237-24.989-.874C545.454,347.6,553.325,347.341,562.071,342.291Z" transform="translate(-514.482 -169.293)" fill="#084c94"/>
      <g id="Group_722" data-name="Group 722" transform="translate(97.358 51.736)">
        <path id="Path_1940" data-name="Path 1940" d="M501.861,244.594l6.468-3.733v72.885l-6.468,3.733Zm-9.314-3.654,6.468-3.735v81.837l-6.468,3.733ZM482.958,257.4l6.468-3.733v70.85l-6.468,3.735Zm44.547,5.134v39.93l-6.467,3.735V266.271Zm-16.056-11.1,6.468-3.733v60.242l-6.468,3.735Zm-37.9,26.2,6.467-3.735V330l-6.467,3.735Zm-9.224,23.131,6.467-3.735v38.354l-6.467,3.733Zm66.3-45.153,6.468-3.735v44.8l-6.468,3.735Zm25.644,2.645v27.147l-6.467,3.735V262Zm-16.056-10.647,6.467-3.735v47.008l-6.467,3.735Z" transform="translate(-464.33 -237.205)" fill="#2672ab"/>
        <path id="Path_1941" data-name="Path 1941" d="M501.861,269.507l6.468-3.733V310.05l-6.468,3.733Zm-9.314-20.13,6.468-3.735v69.7l-6.468,3.733Zm-9.589,17.268,6.468-3.735v57.914l-6.468,3.735Zm44.547,1.9v30.229l-6.467,3.735V272.277Zm-16.056-1.185,6.468-3.733V304.25l-6.468,3.735Zm19.179-11.772,6.468-3.735v41.138l-6.468,3.735Zm25.644,18.264v7.862l-6.467,3.735v-7.863Zm-16.056.016,6.467-3.735v17.059l-6.467,3.735Zm-66.664,10.516,6.467-3.733V326.3l-6.467,3.735Zm-9.224,18.38,6.467-3.733v32.663l-6.467,3.733Z" transform="translate(-464.33 -233.509)" fill="#a8cff0"/>
        <g id="Group_721" data-name="Group 721" transform="translate(0 12.135)">
          <path id="Path_1942" data-name="Path 1942" d="M510.815,262.193l6.467-3.734v-.808l-6.467,3.734Z" transform="translate(-492.186 -240.384)" fill="#fff"/>
          <path id="Path_1943" data-name="Path 1943" d="M504.148,250.185l6.468-3.734v-.808l-6.468,3.734Z" transform="translate(-475.93 -245.643)" fill="#fff"/>
          <path id="Path_1944" data-name="Path 1944" d="M523.77,287.309l6.467-3.734v-.808L523.77,286.5Z" transform="translate(-523.77 -229.382)" fill="#fff"/>
          <path id="Path_1945" data-name="Path 1945" d="M497.67,264.184l6.467-3.734v-.808l-6.467,3.734Z" transform="translate(-460.139 -239.512)" fill="#fff"/>
          <path id="Path_1946" data-name="Path 1946" d="M517.356,274.528l6.467-3.734v-.808l-6.467,3.734Z" transform="translate(-508.133 -234.981)" fill="#fff"/>
          <path id="Path_1947" data-name="Path 1947" d="M471,267.214l6.467-3.734v-.808L471,266.406Z" transform="translate(-395.11 -238.184)" fill="#fff"/>
          <path id="Path_1948" data-name="Path 1948" d="M477.665,254.5l6.467-3.734v-.808l-6.467,3.734Z" transform="translate(-411.366 -243.753)" fill="#fff"/>
          <path id="Path_1949" data-name="Path 1949" d="M464.33,268.992v.808l6.467-3.734v-.808Z" transform="translate(-378.854 -237.052)" fill="#fff"/>
          <path id="Path_1950" data-name="Path 1950" d="M491,262.689l6.468-3.734v-.808L491,261.881Z" transform="translate(-443.882 -240.167)" fill="#fff"/>
          <path id="Path_1951" data-name="Path 1951" d="M484.335,266.109l6.467-3.734v-.808l-6.467,3.734Z" transform="translate(-427.626 -238.668)" fill="#fff"/>
        </g>
      </g>
      <g id="Group_726" data-name="Group 726" transform="translate(26.792 104.843)">
        <g id="Group_723" data-name="Group 723" transform="translate(0)">
          <path id="Path_1952" data-name="Path 1952" d="M581.617,297.546c-.394-14.408-10.867-20.137-23.716-12.718-6.613,3.819-12.6,10.4-16.911,17.912l-4.74-1.192c5.4-9.8,13.1-18.434,21.651-23.368,16.169-9.336,29.342-1.956,29.539,16.432l-3.792,3.444Z" transform="translate(-528.354 -274.135)" fill="#fc0"/>
          <path id="Path_1953" data-name="Path 1953" d="M538.733,335.029c3.506.319,7.567-.659,11.908-3.165,12.172-7.026,22.219-23.391,23.584-37.731l5.8-2.923c-.01.1,1.938.5,1.928.6-1.677,17.85-16.159,37.95-31.312,46.7-5.5,3.177-9.226,4.848-13.643,4.377-.185-.019-1.8-.479-1.982-.5Z" transform="translate(-521.094 -266.657)" fill="#fc0"/>
          <path id="Path_1954" data-name="Path 1954" d="M577.468,297.416a45.381,45.381,0,0,0-4.6,18.7c0,8.612,3.509,14.265,8.962,16.116l-3.673,7.271c-6.75-2.321-11.083-9.359-11.083-20.042,0-7.455,2.114-15.571,5.682-23.234Z" transform="translate(-567.077 -264.457)" fill="#fc0"/>
        </g>
        <path id="Path_1955" data-name="Path 1955" d="M551.888,313.55a20.265,20.265,0,0,0,4.166-4.987c.689-1.153.664-2.4-.006-2.794a5.332,5.332,0,0,1-2.127-2.373c-.731.2-1.635-.066-1.635-1.067a3.96,3.96,0,0,1,1.054-2.7c.178-4.37,1.671-8.861,6.7-11.763,1.757-1.015,3.083-1.337,4.071-1.149.23.045,2.223.569,2.417.666,1.363.677.109,2.141.21,4.511.6-.134,1.056.457,1.056,1.478a4.833,4.833,0,0,1-1.637,2.957,23.77,23.77,0,0,1-2.125,4.827c-.67,1.163-.695,2.442-.006,2.8a5.492,5.492,0,0,0,4.165.178,3.123,3.123,0,0,1,1.741-.07c.145.04,1.936.5,2.069.571.935.466-.131,1.148-.131,2.734v4.507a3.041,3.041,0,0,1-1.379,2.377l-19.313,12.783c-.335.193-2.232-.482-2.471-.571a.905.905,0,0,1-.5-.929v-4.507A10.729,10.729,0,0,1,551.888,313.55Z" transform="translate(-530.495 -268.645)" fill="#fc0"/>
        <g id="Group_724" data-name="Group 724" transform="translate(1.299 0.371)">
          <path id="Path_1956" data-name="Path 1956" d="M580.714,297.806C580.32,283.4,569.847,277.667,557,285.086c-6.614,3.819-12.6,10.4-16.911,17.912l-4.74-1.192c5.4-9.8,13.1-18.434,21.651-23.368,16.169-9.336,29.342-1.956,29.539,16.432Z" transform="translate(-527.451 -274.393)" fill="#fff"/>
          <path id="Path_1957" data-name="Path 1957" d="M539.171,335.287c3.506.319,7.567-.659,11.908-3.165,12.172-7.026,22.219-23.391,23.584-37.731l5.8-2.923c-1.559,17.925-14.14,38.5-29.383,47.3-5.733,3.31-11.089,4.511-15.624,3.873Z" transform="translate(-521.532 -266.915)" fill="#fff"/>
          <path id="Path_1958" data-name="Path 1958" d="M576.565,297.674a45.38,45.38,0,0,0-4.6,18.7c0,8.612,3.509,14.265,8.962,16.116l-3.673,7.271c-6.75-2.321-11.083-9.359-11.083-20.042,0-7.455,2.114-15.571,5.682-23.234Z" transform="translate(-566.174 -264.715)" fill="#fff"/>
        </g>
        <path id="Path_1959" data-name="Path 1959" d="M551.342,313.808a20.245,20.245,0,0,0,4.166-4.989c.689-1.152.664-2.4-.006-2.793a5.332,5.332,0,0,1-2.127-2.373c-.731.2-1.635-.066-1.635-1.067a3.96,3.96,0,0,1,1.054-2.7c.178-4.37,1.671-8.861,6.7-11.763s6.52-.137,6.7,4.028c.6-.134,1.055.457,1.055,1.478a4.832,4.832,0,0,1-1.637,2.957,23.763,23.763,0,0,1-2.125,4.827c-.67,1.163-.695,2.442-.006,2.8a5.492,5.492,0,0,0,4.165.178c2.111-.638,3.68.634,3.68,3.234v4.507a3.04,3.04,0,0,1-1.379,2.377l-20.9,12.068c-.761.44-1.378.088-1.378-.785V321.29A10.729,10.729,0,0,1,551.342,313.808Z" transform="translate(-528.652 -268.532)" fill="#fff"/>
        <g id="Group_725" data-name="Group 725" transform="translate(2.041 0.557)">
          <path id="Path_1960" data-name="Path 1960" d="M580.2,297.933c-.394-14.408-10.867-20.137-23.716-12.718-6.614,3.819-12.6,10.4-16.911,17.912l-4.74-1.192c5.4-9.8,13.1-18.434,21.651-23.368,16.169-9.336,29.342-1.956,29.539,16.432Z" transform="translate(-526.935 -274.522)" fill="#ffde17"/>
          <path id="Path_1961" data-name="Path 1961" d="M538.655,335.416c3.506.319,7.567-.659,11.908-3.165,12.171-7.026,22.219-23.391,23.584-37.731l5.8-2.924c-1.559,17.924-14.14,38.5-29.383,47.3-5.734,3.31-11.089,4.511-15.624,3.873Z" transform="translate(-521.016 -267.044)" fill="#ffde17"/>
          <path id="Path_1962" data-name="Path 1962" d="M576.049,297.8a45.38,45.38,0,0,0-4.6,18.7c0,8.612,3.509,14.265,8.962,16.116l-3.673,7.271c-6.75-2.321-11.083-9.359-11.083-20.042,0-7.455,2.114-15.571,5.682-23.234Z" transform="translate(-565.658 -264.844)" fill="#ffde17"/>
        </g>
        <path id="Path_1963" data-name="Path 1963" d="M550.827,313.937a20.262,20.262,0,0,0,4.166-4.987c.689-1.153.664-2.4-.006-2.794a5.334,5.334,0,0,1-2.127-2.373c-.73.2-1.635-.066-1.635-1.067a3.96,3.96,0,0,1,1.054-2.7c.178-4.37,1.671-8.861,6.7-11.763s6.52-.135,6.7,4.028c.6-.134,1.055.457,1.055,1.478a4.833,4.833,0,0,1-1.636,2.957,23.768,23.768,0,0,1-2.125,4.827c-.67,1.163-.695,2.442-.006,2.8a5.485,5.485,0,0,0,4.165.178c2.111-.638,3.68.634,3.68,3.234v4.507a3.041,3.041,0,0,1-1.379,2.377l-20.9,12.068c-.761.44-1.378.088-1.378-.787v-4.505A10.729,10.729,0,0,1,550.827,313.937Z" transform="translate(-527.394 -268.475)" fill="#ffde17"/>
      </g>
    </g>
    <g id="Group_730" data-name="Group 730" transform="translate(257.12 198.501)">
      <g id="Group_728" data-name="Group 728" transform="translate(0 0)">
        <path id="Path_1964" data-name="Path 1964" d="M464.215,265.6v41.053l-6.885-3.784V261.583Z" transform="translate(-457.329 -173.728)" fill="#0ba19f"/>
        <path id="Path_1965" data-name="Path 1965" d="M351.709,291.159v41.053L503.627,244.5V203.223Z" transform="translate(-344.857 -199.292)" fill="#0fbab8"/>
        <path id="Path_1966" data-name="Path 1966" d="M510.48,204.421,358.562,292.356l-6.853-4.012,151.974-87.855Z" transform="translate(-351.709 -200.489)" fill="#3ecfcd"/>
        <path id="Path_1967" data-name="Path 1967" d="M510.48,203.223,358.562,291.159l-6.853-4.012,6.711,2.934Z" transform="translate(-351.709 -199.292)" fill="#fff" opacity="0.7"/>
      </g>
      <path id="Path_1968" data-name="Path 1968" d="M356.922,315.946l136.7-79.781V211.976l-136.7,79.781Z" transform="translate(-342.345 -195.458)" fill="#fff"/>
      <g id="Group_729" data-name="Group 729" transform="translate(98.941 23.355)">
        <path id="Path_1969" data-name="Path 1969" d="M374.65,216.73l-2.765,1.6-1.278,13.2-.052.03L369.2,219.876l-3.129,1.808-1.356,13.249-.053.03-1.277-11.727-2.478,1.429,1.851,16.245,3.573-2.062,1.3-11.244.052-.03,1.3,9.737,3.808-2.2Z" transform="translate(-328.045 -216.73)" fill="#084c94"/>
        <path id="Path_1970" data-name="Path 1970" d="M386.03,223.345l-2.765,1.6-1.277,13.2-.052.03-1.358-11.683-3.129,1.806-1.356,13.25-.052.029-1.278-11.727-2.478,1.431,1.851,16.244,3.574-2.062,1.3-11.244.052-.03,1.3,9.738,3.808-2.2Z" transform="translate(-355.789 -213.832)" fill="#084c94"/>
        <path id="Path_1971" data-name="Path 1971" d="M397.5,229.869l-2.765,1.6-1.277,13.2-.053.03-1.356-11.683-3.129,1.806-1.356,13.25-.053.03-1.277-11.729-2.478,1.431,1.851,16.244,3.574-2.062,1.3-11.244.052-.03,1.3,9.738,3.808-2.2Z" transform="translate(-383.756 -210.975)" fill="#084c94"/>
      </g>
    </g>
    <g id="Group_733" data-name="Group 733" transform="translate(317.517 41.257)">
      <g id="Group_731" data-name="Group 731" transform="translate(25.083 20.366)">
        <path id="Path_1972" data-name="Path 1972" d="M403.99,118.244v28.628l-4.318-2.378v-28.85Z" transform="translate(-399.672 -100.777)" fill="#fc0"/>
        <path id="Path_1973" data-name="Path 1973" d="M381.973,122v28.628l25.485-14.724v-28.85Z" transform="translate(-377.687 -104.537)" fill="#ffd70f"/>
        <path id="Path_1974" data-name="Path 1974" d="M411.743,107.827l-25.485,14.945-4.286-2.6,25.54-14.867Z" transform="translate(-381.973 -105.305)" fill="#ffde17"/>
        <path id="Path_1975" data-name="Path 1975" d="M411.743,107.059,386.259,122l-4.286-2.6,4.5,1.221Z" transform="translate(-381.973 -104.537)" fill="#fff"/>
      </g>
      <g id="Group_732" data-name="Group 732" transform="translate(0)">
        <path id="Path_1976" data-name="Path 1976" d="M422.247,112.094v46.357l-6.992-3.851V107.883Z" transform="translate(-415.255 -83.809)" fill="#d62d69"/>
        <path id="Path_1977" data-name="Path 1977" d="M434.8,95.226l-41.267,24.2-6.94-4.211,41.357-24.074Z" transform="translate(-386.594 -91.143)" fill="#f76195"/>
        <path id="Path_1978" data-name="Path 1978" d="M434.8,93.982l-41.267,24.2-6.94-4.211,6.753,3.216Z" transform="translate(-386.594 -89.899)" fill="#fff" opacity="0.7"/>
      </g>
      <path id="Path_1979" data-name="Path 1979" d="M427.861,93.982v19.227l-21.84,12.808v27.3l-19.427,11.224V118.183Z" transform="translate(-379.654 -89.899)" fill="#eb4680"/>
    </g>
    <g id="Group_739" data-name="Group 739" transform="translate(120.267 161.953)">
      <g id="Group_734" data-name="Group 734" transform="translate(111.208)">
        <path id="Path_1980" data-name="Path 1980" d="M481.421,189.539v32.005l-4.827-2.659V186.632Z" transform="translate(-476.594 -170.011)" fill="#0ba19f"/>
        <path id="Path_1981" data-name="Path 1981" d="M456.806,193.743v32.005L485.3,209.288V177.035Z" transform="translate(-452.014 -174.215)" fill="#0fbab8"/>
        <path id="Path_1982" data-name="Path 1982" d="M490.089,177.893,461.6,194.6l-4.792-2.907,28.553-16.621Z" transform="translate(-456.806 -175.074)" fill="#3ecfcd"/>
        <path id="Path_1983" data-name="Path 1983" d="M490.089,177.035,461.6,193.743l-4.792-2.907,5.033,1.365Z" transform="translate(-456.806 -174.215)" fill="#fff" opacity="0.7"/>
      </g>
      <g id="Group_735" data-name="Group 735" transform="translate(73.819 21.57)">
        <path id="Path_1984" data-name="Path 1984" d="M507.421,204.539v32.005l-4.827-2.659V201.632Z" transform="translate(-502.594 -185.011)" fill="#0ba19f"/>
        <path id="Path_1985" data-name="Path 1985" d="M482.806,208.743v32.005L511.3,224.288V192.035Z" transform="translate(-478.014 -189.215)" fill="#0fbab8"/>
        <path id="Path_1986" data-name="Path 1986" d="M516.089,192.893,487.6,209.6l-4.792-2.907,28.553-16.621Z" transform="translate(-482.806 -190.074)" fill="#3ecfcd"/>
        <path id="Path_1987" data-name="Path 1987" d="M516.089,192.035,487.6,208.743l-4.792-2.907,5.033,1.365Z" transform="translate(-482.806 -189.215)" fill="#fff" opacity="0.7"/>
      </g>
      <g id="Group_736" data-name="Group 736" transform="translate(36.67 42.901)">
        <path id="Path_1988" data-name="Path 1988" d="M533.254,219.373v32.005l-4.827-2.659V216.465Z" transform="translate(-528.427 -199.844)" fill="#0ba19f"/>
        <path id="Path_1989" data-name="Path 1989" d="M508.639,223.577v32.005l28.491-16.461V206.868Z" transform="translate(-503.848 -204.048)" fill="#0fbab8"/>
        <path id="Path_1990" data-name="Path 1990" d="M541.922,207.727l-28.491,16.709-4.792-2.907,28.553-16.621Z" transform="translate(-508.639 -204.907)" fill="#3ecfcd"/>
        <path id="Path_1991" data-name="Path 1991" d="M541.922,206.868l-28.491,16.709-4.792-2.907,5.033,1.365Z" transform="translate(-508.639 -204.048)" fill="#fff" opacity="0.7"/>
      </g>
      <g id="Group_737" data-name="Group 737" transform="translate(0 63.753)">
        <path id="Path_1992" data-name="Path 1992" d="M558.754,233.873v32.005l-4.827-2.659V230.965Z" transform="translate(-553.927 -214.344)" fill="#0ba19f"/>
        <path id="Path_1993" data-name="Path 1993" d="M534.139,238.077v32.005l28.491-16.461V221.368Z" transform="translate(-529.348 -218.548)" fill="#0fbab8"/>
        <path id="Path_1994" data-name="Path 1994" d="M567.422,222.227l-28.491,16.709-4.792-2.907,28.553-16.621Z" transform="translate(-534.139 -219.407)" fill="#3ecfcd"/>
        <path id="Path_1995" data-name="Path 1995" d="M567.422,221.368l-28.491,16.709-4.792-2.907,5.033,1.365Z" transform="translate(-534.139 -218.548)" fill="#fff" opacity="0.7"/>
      </g>
      <path id="Path_1996" data-name="Path 1996" d="M516.031,233.094a12.84,12.84,0,0,0,2.636-3.156c.436-.729.42-1.521,0-1.767a3.36,3.36,0,0,1-1.345-1.5c-.463.128-1.036-.042-1.036-.676a2.5,2.5,0,0,1,.667-1.706,8.385,8.385,0,0,1,4.238-7.445c3.182-1.836,4.126-.085,4.239,2.55.381-.085.667.289.667.936a3.055,3.055,0,0,1-1.035,1.871,15.052,15.052,0,0,1-1.344,3.054c-.424.736-.44,1.546,0,1.772a3.474,3.474,0,0,0,2.636.112c1.336-.4,2.328.4,2.328,2.046v2.853a1.926,1.926,0,0,1-.872,1.5l-13.228,7.636c-.482.279-.871.056-.871-.5V237.83A6.788,6.788,0,0,1,516.031,233.094Z" transform="translate(-466.004 -157.11)" fill="#fff"/>
      <path id="Path_1997" data-name="Path 1997" d="M556.958,246.383l-4.617,2.666v-8.28l4.617-2.665Zm-7.311,4.221-4.617,2.666V238.092l4.617-2.666Zm-7.311-17.856v22.078l-4.617,2.665V235.414Z" transform="translate(-528.823 -149.811)" fill="#fff"/>
      <path id="Path_1998" data-name="Path 1998" d="M488.574,217.215a10.7,10.7,0,0,1,.092-1.307l-2.182-.276a19.623,19.623,0,0,1,.989-3.3l2.485-.752a17.5,17.5,0,0,1,1.547-2.668l-.6-2.509a19.963,19.963,0,0,1,2.38-2.508l1.339,1.73a10.952,10.952,0,0,1,1.093-.738,8.66,8.66,0,0,1,1.094-.525l1.337-3.276a6.638,6.638,0,0,1,2.381-.24l-.6,3.2a3.415,3.415,0,0,1,1.547.881l2.485-2.118a6.5,6.5,0,0,1,.989,2.161l-2.181,2.794a8.31,8.31,0,0,1,.092,1.2,10.749,10.749,0,0,1-.092,1.309l2.181.276a19.781,19.781,0,0,1-.989,3.3l-2.485.752a17.554,17.554,0,0,1-1.547,2.669l.6,2.508a19.977,19.977,0,0,1-2.381,2.509l-1.337-1.731a10.726,10.726,0,0,1-1.094.738,8.271,8.271,0,0,1-1.093.525l-1.339,3.276a6.6,6.6,0,0,1-2.38.24l.6-3.2a3.423,3.423,0,0,1-1.547-.883l-2.485,2.118a6.472,6.472,0,0,1-.989-2.16l2.182-2.8A8.306,8.306,0,0,1,488.574,217.215Zm7.148-.833a6.324,6.324,0,0,0,2.872-4.953c0-1.819-1.286-2.552-2.872-1.636a6.33,6.33,0,0,0-2.87,4.953C492.852,216.565,494.137,217.3,495.722,216.383Z" transform="translate(-403.149 -163.797)" fill="#fff"/>
      <g id="Group_738" data-name="Group 738" transform="translate(120.152 15.509)">
        <path id="Path_1999" data-name="Path 1999" d="M478.822,185.9l-9.17,14.33-9.17-3.74-.009.011a3.511,3.511,0,0,1,1.089-1.06l16.179-9.341a1.379,1.379,0,0,1,1.089-.2Z" transform="translate(-459.764 -185.859)" fill="#fff"/>
        <path id="Path_2000" data-name="Path 2000" d="M460.669,196.515l9.2,5.245,2.6-4.492,6.566,2.679.029-.043-6.106-3.48,6.1-10.529a1.15,1.15,0,0,1,.689,1.214v10.959a3.957,3.957,0,0,1-1.8,3.1l-16.179,9.341c-.992.574-1.8.115-1.8-1.025V198.524A3.77,3.77,0,0,1,460.669,196.515Zm.029,14.021,6.566-10.26-.49-.28-6.1,10.529Z" transform="translate(-459.98 -185.844)" fill="#fff"/>
      </g>
    </g>
    <g id="Group_741" data-name="Group 741" transform="translate(373.302 207.363)">
      <g id="Group_740" data-name="Group 740" transform="translate(0 0)">
        <path id="Path_2001" data-name="Path 2001" d="M383.3,254.92v41.053l-6.482-3.687V251Z" transform="translate(-376.818 -187.224)" fill="#2672ab"/>
        <path id="Path_2002" data-name="Path 2002" d="M300.174,273.18v41.053L410.423,250.6V209.318Z" transform="translate(-293.725 -205.484)" fill="#3f92d1"/>
        <path id="Path_2003" data-name="Path 2003" d="M416.872,210.487,306.623,274.348l-6.449-3.916,110.306-63.78Z" transform="translate(-300.174 -206.652)" fill="#72b5e8"/>
        <path id="Path_2004" data-name="Path 2004" d="M416.872,209.318,306.623,273.18l-6.449-3.916,6.711,2.694Z" transform="translate(-300.174 -205.484)" fill="#fff" opacity="0.7"/>
      </g>
      <path id="Path_2005" data-name="Path 2005" d="M308.387,235.257l20.154-11.637c1.238-.715,2.24-.142,2.24,1.277v13.651a4.93,4.93,0,0,1-2.24,3.863l-12.6,7.274-6.3,10.863V253.32l-1.26.728c-1.237.715-2.239.142-2.239-1.277V239.119A4.933,4.933,0,0,1,308.387,235.257Zm14.208,2.555c.656.374,1.72-.24,2.376-1.372s.656-2.351,0-2.725-1.72.24-2.376,1.37S321.939,237.438,322.595,237.812Zm-5.459,3.151c.656.374,1.72-.24,2.376-1.37s.656-2.353,0-2.727-1.72.24-2.376,1.372S316.48,240.589,317.136,240.963Zm-5.459,3.152c.657.374,1.72-.24,2.376-1.372s.656-2.351,0-2.725-1.718.24-2.376,1.372S311.021,243.741,311.677,244.115Zm20.784-6.536V226.5l7.7-4.444c1.237-.715,2.239-.142,2.239,1.277v13.651a4.933,4.933,0,0,1-2.239,3.863l-1.26.728V248.8l-6.3-3.591L320,252.48c-1.237.715-2.239.142-2.239-1.277v-.643l10.777-6.221A8.65,8.65,0,0,0,332.461,237.579Z" transform="translate(-234.291 -200.04)" fill="#fff"/>
      <path id="Path_2006" data-name="Path 2006" d="M387.217,235.916v3.408l-52.669,30.411v-3.409Z" transform="translate(-319.95 -193.833)" fill="#fff"/>
      <path id="Path_2007" data-name="Path 2007" d="M334.548,266.578l36.012-20.811v3.408l-36.012,20.811Z" transform="translate(-303.293 -189.518)" fill="#fff"/>
      <path id="Path_2008" data-name="Path 2008" d="M387.217,244.25l-52.669,30.41v-3.409l52.669-30.41Z" transform="translate(-319.95 -191.676)" fill="#fff"/>
    </g>
    <g id="Group_745" data-name="Group 745" transform="translate(304.779 182.047)">
      <path id="Path_2009" data-name="Path 2009" d="M368.294,325.777l34.238-19.222c-2.957-2.169-4.692-4.748-4.692-7.524,0-7.659,13.072-13.867,29.195-13.867s29.193,6.208,29.193,13.867S443.158,312.9,427.035,312.9a58.687,58.687,0,0,1-9.577-.779l-36.868,20.7c-2.38,1.375-6.539,1.2-9.287-.385C368.258,330.892,364.642,327.933,368.294,325.777Z" transform="translate(-366.758 -146.944)" fill="#92b4d1" opacity="0.2"/>
      <g id="Group_744" data-name="Group 744" transform="translate(0.697)">
        <g id="Group_742" data-name="Group 742" transform="translate(0 113.39)">
          <path id="Path_2010" data-name="Path 2010" d="M418.517,312.031a7.836,7.836,0,1,0,10.616-3.181A7.836,7.836,0,0,0,418.517,312.031Z" transform="translate(-417.56 -250.371)" fill="#001a46"/>
          <path id="Path_2011" data-name="Path 2011" d="M424.537,276.511l16.966,9.142L416.2,332.338h0c-.012.023-.02.046-.033.069-1.47,2.728-6.46,2.893-11.145.37s-7.291-6.783-5.82-9.511c.012-.023.026-.043.039-.066h0Z" transform="translate(-398.784 -264.125)" fill="#084c94"/>
          <path id="Path_2012" data-name="Path 2012" d="M398.922,277.193c-1.47,2.728,1.136,6.986,5.821,9.51s9.675,2.36,11.145-.37-1.136-6.986-5.821-9.51S400.393,274.465,398.922,277.193Z" transform="translate(-373.188 -264.773)" fill="#2672ab"/>
          <path id="Path_2013" data-name="Path 2013" d="M403.281,267.9l10.091,5.437L406.2,286.651h0l-.02.042c-.874,1.622-3.842,1.721-6.629.22s-4.337-4.035-3.463-5.657l.024-.04h0Z" transform="translate(-366.419 -267.898)" fill="#001a46"/>
        </g>
        <g id="Group_743" data-name="Group 743" transform="translate(19.089)">
          <path id="Path_2014" data-name="Path 2014" d="M398.107,195.4c12.563-7.253,23.956-8.085,32.292-3.571.234.127,12.2,6.8,12.576,7.38-8.484-6.4-21.043-6.3-35.059,1.79-25.55,14.751-46.26,50.475-46.26,79.792,0,14.96,5.394,25.357,14.07,30a10.354,10.354,0,0,1-2.258-.992c-.247-.138-8.405-5.081-8.647-5.229-8.033-4.909-12.975-15.053-12.975-29.375C351.845,245.875,372.557,210.15,398.107,195.4Z" transform="translate(-351.845 -189.047)" fill="#72b5e8"/>
        </g>
        <path id="Path_2015" data-name="Path 2015" d="M390.315,199.294c25.55-14.751,46.262-2.942,46.262,26.375s-20.712,65.042-46.262,79.794-46.26,2.942-46.26-26.376S364.766,214.046,390.315,199.294Zm.695,99.167c21.681-12.517,39.257-42.833,39.257-67.711s-17.576-34.9-39.257-22.382S351.753,251.2,351.753,276.08,369.328,310.979,391.01,298.461Z" transform="translate(-315.156 -187.341)" fill="#d1ebff"/>
        <path id="Path_2016" data-name="Path 2016" d="M371.712,290.642c21.681-12.518,39.257-42.833,39.257-67.713,0-10.148-2.926-17.822-7.86-22.5,9.694,2.6,15.987,12.163,15.987,27.045,0,24.878-17.576,55.195-39.257,67.711-12.837,7.412-24.232,6.92-31.4.124C354.954,297.056,363,295.671,371.712,290.642Z" transform="translate(-303.984 -184.063)" fill="#72b5e8"/>
        <path id="Path_2017" data-name="Path 2017" d="M402.021,198.519c12.246-7.071,23.374-8.024,31.65-3.886-7.714-2.158-19.061-.991-29.431,5-25.55,14.751-46.26,50.475-46.26,79.792,0,15.265,7.4,26.211,16.386,30.706-11.294-3.159-18.607-14.4-18.607-31.815C355.759,248.994,376.471,213.271,402.021,198.519Z" transform="translate(-329.08 -187.676)" fill="#fff" style="mix-blend-mode: screen;isolation: isolate"/>
      </g>
    </g>
  </g>
</svg>
