<svg xmlns="http://www.w3.org/2000/svg" width="605" height="532" viewBox="0 0 605 532">
  <g id="wordpres_development" transform="translate(-3388 -2768)">
    <g id="wordpress-" transform="translate(3678.692 2944.838)">
      <g id="Group_8486" data-name="Group 8486" transform="translate(0 0)">
        <path id="Path_10659" data-name="Path 10659" d="M110.508,31.147C101.608,13.448,79.083-3.292,50.734.77,5.3,7.255-18.633,65.735,17.641,101.682,61.516,145.16,142.51,94.68,110.508,31.147ZM46.468,114.7C23,110.634,3.163,85.814,2.7,60.446,2.1,28.767,23.728,7.878,49.674,4.016,85.984-1.4,118.722,25.546,113.72,66.957,109.626,100.928,78.488,120.247,46.468,114.7ZM35.8,33.321c-1.44,1.8-6.062.361-7.478,2.168,5.823,17.942,10.99,36.569,18.149,53.16,6.828-17.967,14.361-35.485,3.2-53.16-1.79-1.807-7.8.692-7.478-3.258,4.769-1.944,26.179-1.944,30.954,0-.012,3.6-6.019,1.1-7.472,3.258C71.574,53,76.306,71.71,83.821,87.571c2-13.145,8.851-17.892,8.538-31.473-.337-15.475-19.43-29.044-1.067-35.809C73.413.789,25.456,6.757,17.641,31.147,24.77,32.7,34.405,27.9,35.8,33.321Zm48.03,68.361c19.43-7.252,32.989-43.142,18.143-65.115C102.289,60.477,89.613,80.363,83.827,101.682ZM35.8,103.85C28.631,81.46,21.257,59.294,12.3,38.748,2.048,65.848,15.159,95.053,35.8,103.85Zm8.526,3.252c7.073,3.763,22.575,2.61,29.887,0C69.545,92.312,66,76.395,58.2,64.782,54.455,79.784,49.306,93.365,44.323,107.1Z" transform="translate(0 -0.155)" fill="#5cbdff"/>
      </g>
    </g>
    <g id="Group_8518" data-name="Group 8518" transform="translate(3483.584 2936.939)">
      <ellipse id="Ellipse_395" data-name="Ellipse 395" cx="65.5" cy="66.5" rx="65.5" ry="66.5" transform="translate(0.416 0.061)" fill="#5cbdff" opacity="0.14"/>
      <ellipse id="Ellipse_383" data-name="Ellipse 383" cx="57.5" cy="56" rx="57.5" ry="56" transform="translate(8.416 10.061)" fill="#5cbdff"/>
      <g id="seo" transform="translate(31.749 32.246)">
        <g id="Group_8488" data-name="Group 8488" transform="translate(29.38 11.101)">
          <g id="Group_8487" data-name="Group 8487" transform="translate(0 0)">
            <rect id="Rectangle_463" data-name="Rectangle 463" width="31" height="1" transform="translate(0.287 -0.286)" fill="#fff" stroke="#fff" stroke-width="1"/>
          </g>
        </g>
        <g id="Group_8490" data-name="Group 8490" transform="translate(29.38 13.323)">
          <g id="Group_8489" data-name="Group 8489" transform="translate(0 0)">
            <rect id="Rectangle_464" data-name="Rectangle 464" width="20" height="2" transform="translate(0.287 0.492)" fill="#fff" stroke="#fff" stroke-width="1"/>
          </g>
        </g>
        <g id="Group_8492" data-name="Group 8492" transform="translate(29.38 19.992)">
          <g id="Group_8491" data-name="Group 8491" transform="translate(0 0)">
            <rect id="Rectangle_465" data-name="Rectangle 465" width="20" height="2" transform="translate(0.287 -0.177)" fill="#fff" stroke="#fff" stroke-width="1"/>
          </g>
        </g>
        <g id="Group_8494" data-name="Group 8494" transform="translate(38.272 6.655)">
          <g id="Group_8493" data-name="Group 8493" transform="translate(0 0)">
            <rect id="Rectangle_466" data-name="Rectangle 466" width="22" height="2" transform="translate(0.395 0.16)" fill="#fff" stroke="#fff" stroke-width="1"/>
          </g>
        </g>
        <g id="Group_8496" data-name="Group 8496" transform="translate(33.826 6.655)">
          <g id="Group_8495" data-name="Group 8495" transform="translate(0 0)">
            <rect id="Rectangle_467" data-name="Rectangle 467" width="2" height="2" transform="translate(-0.159 0.16)" fill="#fff" stroke="#fff" stroke-width="1"/>
          </g>
        </g>
        <g id="Group_8498" data-name="Group 8498" transform="translate(32.715 46.666)">
          <g id="Group_8497" data-name="Group 8497" transform="translate(0 0)">
            <rect id="Rectangle_468" data-name="Rectangle 468" width="1" height="2" transform="translate(-0.048 0.149)" fill="#fff" stroke="#fff" stroke-width="1"/>
          </g>
        </g>
        <g id="Group_8500" data-name="Group 8500" transform="translate(13.863 6.115)">
          <g id="Group_8499" data-name="Group 8499">
            <path id="Path_10665" data-name="Path 10665" d="M108.284,43.977l-1.633-1.633-2.31,2.31a1.155,1.155,0,0,0,0,1.633l2.31,2.31,1.633-1.633-1.494-1.494Z" transform="translate(-104.002 -42.344)" fill="#fff" stroke="#fff" stroke-width="1"/>
          </g>
        </g>
        <g id="Group_8502" data-name="Group 8502" transform="translate(23.443 6.115)">
          <g id="Group_8501" data-name="Group 8501">
            <path id="Path_10666" data-name="Path 10666" d="M174.288,44.654l-2.31-2.31-1.633,1.633,1.494,1.494-1.494,1.494,1.633,1.633,2.31-2.31A1.155,1.155,0,0,0,174.288,44.654Z" transform="translate(-170.344 -42.344)" fill="#fff" stroke="#fff" stroke-width="1"/>
          </g>
        </g>
        <g id="Group_8504" data-name="Group 8504" transform="translate(18.541 5.409)">
          <g id="Group_8503" data-name="Group 8503" transform="translate(0 0)">
            <rect id="Rectangle_469" data-name="Rectangle 469" width="7.307" height="2.309" transform="translate(0 6.931) rotate(-71.549)" fill="#fff" stroke="#fff" stroke-width="1"/>
          </g>
        </g>
        <g id="Group_8506" data-name="Group 8506" transform="translate(35.812 24.26)">
          <g id="Group_8505" data-name="Group 8505">
            <path id="Path_10667" data-name="Path 10667" d="M279.1,179.552V170.31h-2.31v9.242h-2.31V168h-2.31v11.552h-2.31v-5.776h-2.31v5.776h-2.31v-6.931h-2.311v6.931h-2.31v-4.621h-2.31v4.621H256v2.31h25.415v-2.31Z" transform="translate(-256 -168)" fill="#fff" stroke="#fff" stroke-width="1"/>
          </g>
        </g>
        <g id="Group_8508" data-name="Group 8508" transform="translate(0)">
          <g id="Group_8507" data-name="Group 8507" transform="translate(0)">
            <path id="Path_10668" data-name="Path 10668" d="M68.072,0H14.931A6.938,6.938,0,0,0,8,6.931V46.209a6.938,6.938,0,0,0,6.931,6.931h14.3l-4.621,9.242H18.4a3.466,3.466,0,1,0,0,6.931H64.606a3.466,3.466,0,1,0,0-6.931H58.389L53.768,53.14h14.3A6.938,6.938,0,0,0,75,46.209V6.931A6.938,6.938,0,0,0,68.072,0ZM10.31,16.254l2.626,3.126a1.155,1.155,0,0,0,.885.412h3.536a1.155,1.155,0,0,0,.885-.412l2.627-3.126,2.592.842.286,4.07a1.155,1.155,0,0,0,.472.854L27.082,24.1a1.162,1.162,0,0,0,.959.186l3.966-.985,1.6,2.205-2.161,3.466a1.155,1.155,0,0,0-.113.969L32.43,33.3a1.155,1.155,0,0,0,.664.714l3.787,1.535v2.726l-3.789,1.535a1.148,1.148,0,0,0-.664.715l-.347,1.059H25.425A10.876,10.876,0,0,0,10.31,27.4Zm0,13.9A8.581,8.581,0,0,1,22.787,41.588H10.31Zm54.3,34.541a1.155,1.155,0,0,1,0,2.31H18.4a1.155,1.155,0,0,1,0-2.31Zm-8.8-2.31H27.2l4.621-9.242H51.185ZM72.693,46.209a4.621,4.621,0,0,1-4.621,4.621H14.931a4.621,4.621,0,0,1-4.621-4.621V43.9H72.693Zm0-4.621H34.865l3.605-1.461a1.155,1.155,0,0,0,.721-1.07V34.772A1.155,1.155,0,0,0,38.47,33.7l-4.016-1.624-.76-2.339,2.29-3.674a1.155,1.155,0,0,0-.046-1.289L33.42,21.309a1.155,1.155,0,0,0-1.213-.442l-4.2,1.04-1.985-1.442-.3-4.309a1.155,1.155,0,0,0-.8-1.018L20.85,13.814a1.164,1.164,0,0,0-1.242.357l-2.781,3.31H14.363l-2.782-3.31a1.164,1.164,0,0,0-1.243-.357l-.028.01V6.931A4.621,4.621,0,0,1,14.931,2.31h53.14a4.621,4.621,0,0,1,4.621,4.621Z" transform="translate(-8)" fill="#fff" stroke="#fff" stroke-width="1"/>
          </g>
        </g>
      </g>
    </g>
    <g id="Group_8513" data-name="Group 8513" transform="translate(3860.363 2936.939)">
      <circle id="Ellipse_396" data-name="Ellipse 396" cx="66.5" cy="66.5" r="66.5" transform="translate(-0.363 0.061)" fill="#5cbdff" opacity="0.14"/>
      <ellipse id="Ellipse_384" data-name="Ellipse 384" cx="57.5" cy="56" rx="57.5" ry="56" transform="translate(8.637 10.061)" fill="#5cbdff"/>
      <g id="web-design" transform="translate(32.739 33.817)">
        <path id="Path_10669" data-name="Path 10669" d="M82.757,66.068V19.338A3.342,3.342,0,0,0,79.419,16H19.338A3.342,3.342,0,0,0,16,19.338v46.73a3.342,3.342,0,0,0,3.338,3.338H41.389L39.535,80.532H34.915a1.113,1.113,0,1,0,0,2.225H63.843a1.113,1.113,0,1,0,0-2.225H59.222L57.368,69.406H66.91l9.678,9.678a3.338,3.338,0,0,0,4.72,0h0a3.342,3.342,0,0,0,0-4.72l-4.958-4.958h3.068A3.342,3.342,0,0,0,82.757,66.068ZM58.494,57.842l1.573-1.574,4.72,4.72-1.574,1.574ZM56.58,56.61l-3.039-.76A3.323,3.323,0,0,1,51.1,53.363L49.75,47.525l5.837,1.347a3.323,3.323,0,0,1,2.488,2.443l.76,3.039Zm4.492-2.483-.838-3.352A5.539,5.539,0,0,0,56.088,46.7l-7.571-1.747a1.113,1.113,0,0,0-1.334,1.334l1.747,7.572a5.563,5.563,0,0,0,1.049,2.192H18.225V27.126H80.532V56.054H63Zm-41.734-35.9H79.419a1.114,1.114,0,0,1,1.113,1.113V24.9H18.225V19.338A1.114,1.114,0,0,1,19.338,18.225ZM56.966,80.532H41.791l1.854-11.126H55.112ZM19.338,67.181a1.114,1.114,0,0,1-1.113-1.113V58.28H54.083l2.268.567,8.334,8.334Zm60.4,10.33a1.113,1.113,0,0,1-1.574,0L64.788,64.136l1.574-1.573L79.736,75.938A1.114,1.114,0,0,1,79.736,77.511ZM65.225,58.28H80.532v7.788a1.114,1.114,0,0,1-1.113,1.113H74.126Z" transform="translate(-16 -16)" fill="#fff" stroke="#fff" stroke-width="1"/>
        <path id="Path_10670" data-name="Path 10670" d="M237.563,336h-4.45a1.113,1.113,0,0,0,0,2.225h4.45a1.113,1.113,0,1,0,0-2.225Z" transform="translate(-201.959 -291.495)" fill="#fff" stroke="#fff" stroke-width="1"/>
        <ellipse id="Ellipse_387" data-name="Ellipse 387" cx="1" cy="0.5" rx="1" ry="0.5" transform="translate(4.898 6.244)" fill="#fff" stroke="#fff" stroke-width="1"/>
        <ellipse id="Ellipse_388" data-name="Ellipse 388" cx="1" cy="0.5" rx="1" ry="0.5" transform="translate(7.898 6.244)" fill="#fff" stroke="#fff" stroke-width="1"/>
        <circle id="Ellipse_389" data-name="Ellipse 389" cx="0.5" cy="0.5" r="0.5" transform="translate(13.898 6.244)" fill="#fff" stroke="#fff" stroke-width="1"/>
        <path id="Path_10671" data-name="Path 10671" d="M97.113,114.225h2.225a1.113,1.113,0,1,0,0-2.225H97.113a1.113,1.113,0,1,0,0,2.225Z" transform="translate(-84.874 -98.649)" fill="#fff" stroke="#fff" stroke-width="1"/>
        <path id="Path_10672" data-name="Path 10672" d="M145.113,114.225h2.225a1.113,1.113,0,1,0,0-2.225h-2.225a1.113,1.113,0,1,0,0,2.225Z" transform="translate(-126.198 -98.649)" fill="#fff" stroke="#fff" stroke-width="1"/>
        <path id="Path_10673" data-name="Path 10673" d="M51.338,258.225H50.225v-1.113a1.113,1.113,0,1,0-2.225,0v2.225a1.113,1.113,0,0,0,1.113,1.113h2.225a1.113,1.113,0,0,0,0-2.225Z" transform="translate(-43.549 -222.621)" fill="#fff" stroke="#fff" stroke-width="1"/>
        <path id="Path_10674" data-name="Path 10674" d="M99.338,272H97.113a1.113,1.113,0,1,0,0,2.225h2.225a1.113,1.113,0,1,0,0-2.225Z" transform="translate(-84.874 -236.396)" fill="#fff" stroke="#fff" stroke-width="1"/>
        <path id="Path_10675" data-name="Path 10675" d="M147.338,272h-2.225a1.113,1.113,0,1,0,0,2.225h2.225a1.113,1.113,0,1,0,0-2.225Z" transform="translate(-126.198 -236.396)" fill="#fff" stroke="#fff" stroke-width="1"/>
        <path id="Path_10676" data-name="Path 10676" d="M195.338,112h-2.225a1.113,1.113,0,0,0,0,2.225h1.113v1.113a1.113,1.113,0,0,0,2.225,0v-2.225A1.113,1.113,0,0,0,195.338,112Z" transform="translate(-167.522 -98.649)" fill="#fff" stroke="#fff" stroke-width="1"/>
        <path id="Path_10677" data-name="Path 10677" d="M209.113,160A1.113,1.113,0,0,0,208,161.113v2.225a1.113,1.113,0,0,0,2.225,0v-2.225A1.113,1.113,0,0,0,209.113,160Z" transform="translate(-181.297 -139.973)" fill="#fff" stroke="#fff" stroke-width="1"/>
        <path id="Path_10678" data-name="Path 10678" d="M209.113,208A1.113,1.113,0,0,0,208,209.113v2.225a1.113,1.113,0,0,0,2.225,0v-2.225A1.113,1.113,0,0,0,209.113,208Z" transform="translate(-181.297 -181.297)" fill="#fff" stroke="#fff" stroke-width="1"/>
        <path id="Path_10679" data-name="Path 10679" d="M195.338,256a1.113,1.113,0,0,0-1.113,1.113v1.113h-1.113a1.113,1.113,0,0,0,0,2.225h2.225a1.113,1.113,0,0,0,1.113-1.113v-2.225A1.113,1.113,0,0,0,195.338,256Z" transform="translate(-167.522 -222.621)" fill="#fff" stroke="#fff" stroke-width="1"/>
        <path id="Path_10680" data-name="Path 10680" d="M49.113,116.45a1.113,1.113,0,0,0,1.113-1.113v-1.113h1.113a1.113,1.113,0,1,0,0-2.225H49.113A1.113,1.113,0,0,0,48,113.113v2.225A1.113,1.113,0,0,0,49.113,116.45Z" transform="translate(-43.549 -98.649)" fill="#fff" stroke="#fff" stroke-width="1"/>
        <path id="Path_10681" data-name="Path 10681" d="M49.113,164.45a1.113,1.113,0,0,0,1.113-1.113v-2.225a1.113,1.113,0,1,0-2.225,0v2.225A1.113,1.113,0,0,0,49.113,164.45Z" transform="translate(-43.549 -139.973)" fill="#fff" stroke="#fff" stroke-width="1"/>
        <path id="Path_10682" data-name="Path 10682" d="M49.113,212.45a1.113,1.113,0,0,0,1.113-1.113v-2.225a1.113,1.113,0,1,0-2.225,0v2.225A1.113,1.113,0,0,0,49.113,212.45Z" transform="translate(-43.549 -181.297)" fill="#fff" stroke="#fff" stroke-width="1"/>
        <path id="Path_10683" data-name="Path 10683" d="M247.788,192h-6.676a1.113,1.113,0,0,0,0,2.225h6.676a1.113,1.113,0,0,0,0-2.225Z" transform="translate(-208.847 -167.522)" fill="#fff" stroke="#fff" stroke-width="1"/>
        <path id="Path_10684" data-name="Path 10684" d="M338.915,192h-17.8a1.113,1.113,0,1,0,0,2.225h17.8a1.113,1.113,0,0,0,0-2.225Z" transform="translate(-277.72 -167.522)" fill="#fff" stroke="#fff" stroke-width="1"/>
        <path id="Path_10685" data-name="Path 10685" d="M352.689,224H337.113a1.113,1.113,0,0,0,0,2.225h15.577a1.113,1.113,0,0,0,0-2.225Z" transform="translate(-291.495 -195.072)" fill="#fff" stroke="#fff" stroke-width="1"/>
        <path id="Path_10686" data-name="Path 10686" d="M270.041,112H241.113A1.113,1.113,0,0,0,240,113.113v6.676a1.113,1.113,0,0,0,1.113,1.113h28.928a1.113,1.113,0,0,0,1.113-1.113v-6.676A1.113,1.113,0,0,0,270.041,112Zm-1.113,6.676h-26.7v-4.45h26.7Z" transform="translate(-208.847 -98.649)" fill="#fff" stroke="#fff" stroke-width="1"/>
        <path id="Path_10687" data-name="Path 10687" d="M95.577,145.113A1.113,1.113,0,0,0,94.464,144H81.113A1.113,1.113,0,0,0,80,145.113v13.351a1.113,1.113,0,0,0,1.113,1.113H94.464a1.113,1.113,0,0,0,1.113-1.113Zm-2.225,12.239H82.225V146.225H93.351Z" transform="translate(-71.099 -126.198)" fill="#fff" stroke="#fff" stroke-width="1"/>
      </g>
    </g>
    <g id="Group_8515" data-name="Group 8515" transform="translate(3749.219 2768)">
      <ellipse id="Ellipse_392" data-name="Ellipse 392" cx="65.5" cy="68" rx="65.5" ry="68" transform="translate(-0.219 0)" fill="#5cbdff" opacity="0.14"/>
      <ellipse id="Ellipse_386" data-name="Ellipse 386" cx="58" cy="56.5" rx="58" ry="56.5" transform="translate(7.781 11)" fill="#5cbdff"/>
      <g id="Layer_22" data-name="Layer 22" transform="translate(26.861 28.402)">
        <path id="Path_10688" data-name="Path 10688" d="M72.482,1H24.827a6.27,6.27,0,0,0-6.27,6.27v3.762H7.27A6.27,6.27,0,0,0,1,17.3V54.925A6.27,6.27,0,0,0,7.27,61.2H24.827V68.72H22.319a6.27,6.27,0,0,0-6.27,6.27V77.5A1.254,1.254,0,0,0,17.3,78.753H49.909A1.254,1.254,0,0,0,51.163,77.5V74.99a6.27,6.27,0,0,0-6.27-6.27H42.384V61.2H59.942a6.27,6.27,0,0,0,6.27-6.27V46.147h6.27a6.27,6.27,0,0,0,6.27-6.27V7.27A6.27,6.27,0,0,0,72.482,1ZM24.827,3.508H72.482A3.762,3.762,0,0,1,76.244,7.27V8.524H21.065V7.27A3.762,3.762,0,0,1,24.827,3.508ZM48.655,74.99v1.254h-30.1V74.99a3.762,3.762,0,0,1,3.762-3.762H44.893A3.762,3.762,0,0,1,48.655,74.99Zm-8.779-6.27H27.336V61.2H39.876ZM59.942,58.687H7.27a3.762,3.762,0,0,1-3.762-3.762V51.163H63.7v3.762A3.762,3.762,0,0,1,59.942,58.687ZM63.7,48.655H3.508V17.3A3.762,3.762,0,0,1,7.27,13.541H18.557V39.876a6.27,6.27,0,0,0,6.27,6.27H63.7Zm8.779-5.016H24.827a3.762,3.762,0,0,1-3.762-3.762V11.033H76.244V39.876A3.762,3.762,0,0,1,72.482,43.639Z" transform="translate(-1 -1)" fill="#fff" stroke="#fff" stroke-width="1"/>
        <path id="Path_10689" data-name="Path 10689" d="M47,43h2.508v2.508H47Z" transform="translate(10.687 9.671)" fill="#fff" stroke="#fff" stroke-width="1"/>
        <path id="Path_10690" data-name="Path 10690" d="M43,43h2.508v2.508H43Z" transform="translate(9.671 9.671)" fill="#fff" stroke="#fff" stroke-width="1"/>
        <path id="Path_10691" data-name="Path 10691" d="M39,43h2.508v2.508H39Z" transform="translate(8.655 9.671)" fill="#fff" stroke="#fff" stroke-width="1"/>
        <path id="Path_10692" data-name="Path 10692" d="M67.909,11H20.254A1.254,1.254,0,0,0,19,12.254V37.336a1.254,1.254,0,0,0,1.254,1.254H67.909a1.254,1.254,0,0,0,1.254-1.254V12.254A1.254,1.254,0,0,0,67.909,11ZM29.033,33.573h5.016V31.065H29.033V28.557h2.508V26.049H29.033V23.541h2.508V21.033H29.033V18.524h7.524V36.081H29.033Zm18.949-7.738a2.132,2.132,0,0,1-.915.213h-.953a2.132,2.132,0,0,1-.915-.213,2.019,2.019,0,0,1-1.116-1.818,1.53,1.53,0,0,1,.853-1.379A3,3,0,0,0,46.59,20.28l1.668,1.668a2.909,2.909,0,0,1,.84,2.069A2.019,2.019,0,0,1,47.982,25.836Zm-2.646,2.634a5.266,5.266,0,0,0,.778.088h.953a5.268,5.268,0,0,0,.778-.088v7.612H45.336Zm11.287-2.42H59.13V36.081H56.622Zm.489-2.508.765-2.307.765,2.307Zm9.544,12.541H61.639V24.795a1.494,1.494,0,0,0,0-.4L59.13,16.869a1.254,1.254,0,0,0-2.383,0l-2.508,7.524a1.493,1.493,0,0,0-.125.4V36.081H50.352V27.14a4.5,4.5,0,0,0,1.254-3.123,5.355,5.355,0,0,0-1.593-3.837l-3.762-3.762a1.284,1.284,0,0,0-2.17.853v2.7a.489.489,0,0,1-.263.426,4.038,4.038,0,0,0-2.245,3.624,4.5,4.5,0,0,0,1.254,3.123v8.942H39.065V17.27a1.254,1.254,0,0,0-1.254-1.254H27.779a1.254,1.254,0,0,0-1.254,1.254V36.081H21.508V13.508H66.655Z" transform="translate(3.573 1.541)" fill="#fff" stroke="#fff" stroke-width="1"/>
      </g>
    </g>
    <g id="Group_8514" data-name="Group 8514" transform="translate(3579.168 2768)">
      <ellipse id="Ellipse_390" data-name="Ellipse 390" cx="67.5" cy="68" rx="67.5" ry="68" transform="translate(-0.168 0)" fill="#5cbdff" opacity="0.14"/>
      <circle id="Ellipse_391" data-name="Ellipse 391" cx="56.5" cy="56.5" r="56.5" transform="translate(10.832 11)" fill="#5cbdff"/>
      <g id="laptop" transform="translate(29.625 29.187)">
        <g id="Group_8510" data-name="Group 8510" transform="translate(0 0)">
          <path id="Path_10693" data-name="Path 10693" d="M72.855,65.9h-.48V25.963a2.761,2.761,0,0,0-2.762-2.754H62.38v-.188a2.952,2.952,0,0,0-2.951-2.947H58.16a20.723,20.723,0,0,0-1.606-3.868l.9-.894a2.95,2.95,0,0,0,0-4.172L53.111,6.811a2.96,2.96,0,0,0-4.174,0l-.9.9a20.818,20.818,0,0,0-3.876-1.6V4.84a2.955,2.955,0,0,0-2.956-2.947H35.073A2.955,2.955,0,0,0,32.117,4.84V6.1a20.812,20.812,0,0,0-3.876,1.6l-.9-.9a2.96,2.96,0,0,0-4.174,0L18.83,11.14a2.95,2.95,0,0,0,0,4.172l.9.894a20.7,20.7,0,0,0-1.606,3.868H16.851A2.953,2.953,0,0,0,13.9,23.021v.188H6.666A2.761,2.761,0,0,0,3.9,25.963V65.9h-.48A3.428,3.428,0,0,0,0,69.327v.554a7.744,7.744,0,0,0,7.742,7.728H68.537a7.744,7.744,0,0,0,7.742-7.728v-.554A3.428,3.428,0,0,0,72.855,65.9ZM16.135,23.021a.715.715,0,0,1,.716-.712h2.118a1.117,1.117,0,0,0,1.083-.842,18.47,18.47,0,0,1,2.026-4.88,1.118,1.118,0,0,0-.171-1.362l-1.5-1.494a.715.715,0,0,1,0-1.008l4.339-4.33a.722.722,0,0,1,1.017,0l1.5,1.495a1.118,1.118,0,0,0,1.358.171A18.589,18.589,0,0,1,33.51,8.036a1.117,1.117,0,0,0,.842-1.083V4.84a.726.726,0,0,1,.721-.712h6.134a.726.726,0,0,1,.721.712V6.953a1.117,1.117,0,0,0,.842,1.083,18.592,18.592,0,0,1,4.889,2.022,1.117,1.117,0,0,0,1.358-.171l1.5-1.495a.721.721,0,0,1,1.017,0l4.339,4.329a.715.715,0,0,1,0,1.008l-1.5,1.495a1.117,1.117,0,0,0-.171,1.362,18.474,18.474,0,0,1,2.026,4.88,1.117,1.117,0,0,0,1.083.842h2.118a.715.715,0,0,1,.716.712v6.121a.726.726,0,0,1-.716.717H57.311a1.117,1.117,0,0,0-1.083.841A18.5,18.5,0,0,1,54.2,35.577a1.117,1.117,0,0,0,.171,1.362l1.5,1.494a.715.715,0,0,1,0,1.008l-4.339,4.33a.721.721,0,0,1-1.017,0l-1.5-1.495a1.118,1.118,0,0,0-1.358-.171,18.59,18.59,0,0,1-4.889,2.022,1.117,1.117,0,0,0-.842,1.083v2.113a.717.717,0,0,1-.721.712H35.073a.717.717,0,0,1-.721-.712V45.21a1.117,1.117,0,0,0-.842-1.083,18.593,18.593,0,0,1-4.889-2.022,1.118,1.118,0,0,0-1.358.171l-1.5,1.495a.721.721,0,0,1-1.017,0l-4.339-4.33a.715.715,0,0,1,0-1.008l1.5-1.495a1.117,1.117,0,0,0,.171-1.362A18.5,18.5,0,0,1,20.052,30.7a1.118,1.118,0,0,0-1.083-.841h-1.7a1.117,1.117,0,0,0-1.038-.7h-.1s0-.008,0-.012V23.021Zm22,32.686a1.9,1.9,0,1,1-1.9,1.9A1.9,1.9,0,0,1,38.138,55.708Zm-32-29.744a.53.53,0,0,1,.527-.519H13.9v3.7s0,.008,0,.012H11.694A1.829,1.829,0,0,0,9.866,30.98V65.9H6.139ZM74.045,69.881a5.506,5.506,0,0,1-5.508,5.493H7.742a5.506,5.506,0,0,1-5.507-5.493v-.554a1.191,1.191,0,0,1,1.19-1.189H18.043a1.117,1.117,0,0,0,0-2.235H12.1V31.389h2.841a2.936,2.936,0,0,0,1.909.7H18.12a20.74,20.74,0,0,0,1.605,3.864l-.9.894a2.95,2.95,0,0,0,0,4.172l4.339,4.33a2.96,2.96,0,0,0,4.174,0l.9-.9a20.817,20.817,0,0,0,3.876,1.6v1.263a2.955,2.955,0,0,0,2.955,2.947H37.02v3.358a4.149,4.149,0,0,0-2.863,2.861H25.932a4.129,4.129,0,1,0,0,2.235h8.226a4.138,4.138,0,0,0,7.964,0h8.226a4.132,4.132,0,1,0,0-2.235H42.122a4.151,4.151,0,0,0-2.867-2.861V50.27h1.952a2.955,2.955,0,0,0,2.956-2.947V46.06a20.8,20.8,0,0,0,3.876-1.6l.9.9a2.96,2.96,0,0,0,4.174,0l4.339-4.33a2.95,2.95,0,0,0,0-4.172l-.9-.894a20.725,20.725,0,0,0,1.605-3.864h1.269a2.936,2.936,0,0,0,1.909-.7h2.841V45.97a1.117,1.117,0,0,0,2.235,0V30.98a1.829,1.829,0,0,0-1.828-1.826H62.379s0-.008,0-.012v-3.7h7.234a.53.53,0,0,1,.527.519V65.9H66.413V51.777a1.117,1.117,0,1,0-2.235,0V65.9H23.3a1.117,1.117,0,0,0,0,2.235h5.628v.94a3.443,3.443,0,0,0,3.442,3.437H43.906a3.443,3.443,0,0,0,3.442-3.437v-.94H72.855a1.191,1.191,0,0,1,1.19,1.189ZM23.852,57.606a1.9,1.9,0,1,1-1.9-1.9A1.9,1.9,0,0,1,23.852,57.606Zm28.575,0a1.9,1.9,0,1,1,1.9,1.894A1.9,1.9,0,0,1,52.427,57.606ZM31.167,68.138H45.113v.94a1.206,1.206,0,0,1-1.207,1.2H32.374a1.206,1.206,0,0,1-1.207-1.2v-.94Z" transform="translate(0 -1.893)" fill="#fff"/>
          <path id="Path_10694" data-name="Path 10694" d="M160.885,88.472a1.121,1.121,0,0,0,.121.026,16.092,16.092,0,0,0,6.835,0,1.107,1.107,0,0,0,.151-.033,16.03,16.03,0,1,0-7.107,0Zm1.418-2V80.306a1.117,1.117,0,0,0-.729-1.048,7.406,7.406,0,0,1-1.61-13.105c.073-.05.14-.093.2-.129,0,.12-.013.23-.017.291-.008.109-.014.2-.014.282v5.133a4.537,4.537,0,0,0,4.218,4.512,1.122,1.122,0,0,0,.152,0,4.539,4.539,0,0,0,4.223-4.512V66.6c0-.086-.006-.173-.015-.282,0-.061-.012-.17-.017-.29.06.037.127.08.2.13a7.409,7.409,0,0,1-1.611,13.1,1.117,1.117,0,0,0-.729,1.048v6.162a13.913,13.913,0,0,1-4.253,0Zm2.124-27.363a13.759,13.759,0,0,1,4.363,26.821V81.049a9.64,9.64,0,0,0,1.363-16.742c-.409-.279-1.655-1.13-2.749-.5-1.074.619-.968,2.057-.922,2.671,0,.051.008.094.009.117v5.133a2.072,2.072,0,1,1-4.123,0V66.6c0-.032,0-.075.008-.126.046-.614.152-2.052-.922-2.671-1.094-.631-2.34.22-2.748.5a9.636,9.636,0,0,0,1.363,16.742v4.879a13.759,13.759,0,0,1,4.359-26.821Z" transform="translate(-126.289 -48.68)" fill="#fff"/>
          <path id="Path_10695" data-name="Path 10695" d="M99.62,463.309h-.009a1.122,1.122,0,1,0,.009,0Z" transform="translate(-83.823 -394.566)" fill="#fff"/>
          <path id="Path_10696" data-name="Path 10696" d="M139.609,463.309H139.6a1.122,1.122,0,1,0,.009,0Z" transform="translate(-117.855 -394.566)" fill="#fff"/>
          <path id="Path_10697" data-name="Path 10697" d="M59.615,463.309h0a1.117,1.117,0,1,0,1.122,1.117A1.115,1.115,0,0,0,59.61,463.309Z" transform="translate(-49.78 -394.566)" fill="#fff"/>
          <path id="Path_10698" data-name="Path 10698" d="M370.936,463.309H358.762a1.117,1.117,0,1,0,0,2.235h12.174a1.117,1.117,0,0,0,0-2.235Z" transform="translate(-304.362 -394.566)" fill="#fff"/>
        </g>
      </g>
    </g>
    <g id="long-arrow-pointing-up" transform="translate(3624.197 3013.746) rotate(-90)">
      <path id="Path_10699" data-name="Path 10699" d="M.215,10.565,9.735.268A.878.878,0,0,1,10.379,0,.847.847,0,0,1,11,.268l9.386,10.3a.862.862,0,0,1,.134.939.777.777,0,0,1-.778.509H13.731V45.48a.825.825,0,0,1-.858.857H7.724a.826.826,0,0,1-.858-.857V12.014H.859A.808.808,0,0,1,.082,11.5.862.862,0,0,1,.215,10.565Z" transform="translate(0 0)" fill="#5cbdff"/>
    </g>
    <g id="long-arrow-pointing-up-2" data-name="long-arrow-pointing-up" transform="matrix(0.809, -0.588, 0.588, 0.809, 3666.911, 2916.106)">
      <path id="Path_10699-2" data-name="Path 10699" d="M.215,10.565,9.735.268A.878.878,0,0,1,10.379,0,.847.847,0,0,1,11,.268l9.386,10.3a.862.862,0,0,1,.134.939.777.777,0,0,1-.778.509H13.731V45.48a.825.825,0,0,1-.858.857H7.724a.826.826,0,0,1-.858-.857V12.014H.859A.808.808,0,0,1,.082,11.5.862.862,0,0,1,.215,10.565Z" transform="translate(0 0)" fill="#5cbdff"/>
    </g>
    <g id="long-arrow-pointing-up-3" data-name="long-arrow-pointing-up" transform="translate(3782.755 2903.998) rotate(30)">
      <path id="Path_10699-3" data-name="Path 10699" d="M.215,10.565,9.735.268A.878.878,0,0,1,10.379,0,.847.847,0,0,1,11,.268l9.386,10.3a.862.862,0,0,1,.134.939.777.777,0,0,1-.778.509H13.731V45.48a.825.825,0,0,1-.858.857H7.724a.826.826,0,0,1-.858-.857V12.014H.859A.808.808,0,0,1,.082,11.5.862.862,0,0,1,.215,10.565Z" transform="translate(0 0)" fill="#5cbdff"/>
    </g>
    <g id="long-arrow-pointing-up-4" data-name="long-arrow-pointing-up" transform="translate(3851.171 2993.532) rotate(90)">
      <path id="Path_10699-4" data-name="Path 10699" d="M.215,10.565,9.735.268A.878.878,0,0,1,10.379,0,.847.847,0,0,1,11,.268l9.386,10.3a.862.862,0,0,1,.134.939.777.777,0,0,1-.778.509H13.731V45.48a.825.825,0,0,1-.858.857H7.724a.826.826,0,0,1-.858-.857V12.014H.859A.808.808,0,0,1,.082,11.5.862.862,0,0,1,.215,10.565Z" transform="translate(0 0)" fill="#5cbdff"/>
    </g>
    <g id="long-arrow-pointing-up-5" data-name="long-arrow-pointing-up" transform="translate(3801.107 3092.154) rotate(149)">
      <path id="Path_10699-5" data-name="Path 10699" d="M.215,10.565,9.735.268A.878.878,0,0,1,10.379,0,.847.847,0,0,1,11,.268l9.386,10.3a.862.862,0,0,1,.134.939.777.777,0,0,1-.778.509H13.731V45.48a.825.825,0,0,1-.858.857H7.724a.826.826,0,0,1-.858-.857V12.014H.859A.808.808,0,0,1,.082,11.5.862.862,0,0,1,.215,10.565Z" transform="translate(0 0)" fill="#5cbdff"/>
    </g>
    <g id="long-arrow-pointing-up-6" data-name="long-arrow-pointing-up" transform="translate(3690.08 3051.65) rotate(30)">
      <path id="Path_10699-6" data-name="Path 10699" d="M.215,35.772l9.52,10.3a.878.878,0,0,0,.644.268A.847.847,0,0,0,11,46.069l9.386-10.3a.862.862,0,0,0,.134-.939.777.777,0,0,0-.778-.509H13.731V.857A.825.825,0,0,0,12.873,0H7.724a.826.826,0,0,0-.858.857V34.324H.859a.808.808,0,0,0-.777.509A.862.862,0,0,0,.215,35.772Z" transform="translate(0 0)" fill="#5cbdff"/>
    </g>
    <g id="Group_8517" data-name="Group 8517" transform="translate(3579.168 3104.767)">
      <circle id="Ellipse_394" data-name="Ellipse 394" cx="67.5" cy="67.5" r="67.5" transform="translate(-0.168 0.233)" fill="#5cbdff" opacity="0.14"/>
      <ellipse id="Ellipse_381" data-name="Ellipse 381" cx="56.5" cy="56" rx="56.5" ry="56" transform="translate(10.832 11.233)" fill="#5cbdff"/>
      <g id="Group_8509" data-name="Group 8509" transform="translate(35.123 34.846)">
        <path id="puzzle" d="M29.371,23.038a3.938,3.938,0,0,0,6.553,2.83,1.691,1.691,0,0,1,1.192-.447h.794V36.045a1.229,1.229,0,0,1-1.241,1.241H26v-.794a1.959,1.959,0,0,1,.5-1.241,3.97,3.97,0,0,0,.993-2.582v-.5a.63.63,0,0,0-.05-.3.182.182,0,0,0-.05-.149c0-.1-.05-.149-.05-.248,0-.05-.05-.1-.05-.149-.05-.1-.05-.149-.1-.248,0-.05-.05-.1-.05-.149-.05-.05-.05-.149-.1-.2,0-.05-.05-.1-.05-.149-.05-.05-.1-.149-.149-.2s-.05-.1-.1-.1c-.05-.05-.1-.149-.149-.2l-.1-.1-.149-.149c-.05-.05-.1-.05-.1-.1a.685.685,0,0,0-.2-.149c-.05-.05-.1-.05-.1-.1-.05-.05-.149-.1-.2-.149s-.1-.05-.149-.1a.376.376,0,0,0-.2-.1c-.05,0-.1-.05-.149-.05-.05-.05-.149-.05-.2-.1-.05,0-.1-.05-.149-.05a.376.376,0,0,1-.2-.1.182.182,0,0,1-.149-.05c-.05,0-.149-.05-.2-.05H23.115c-.1,0-.149.05-.248.05h-.149a.7.7,0,0,0-.3.1h-.05c-.1.05-.248.1-.348.149h0a3.88,3.88,0,0,0-1.887,1.787v.05l-.149.3a.154.154,0,0,1-.05.1c-.05.1-.05.149-.1.248,0,.05-.05.1-.05.149s-.05.149-.05.2-.05.1-.05.149v1.341a.3.3,0,0,0,.05.2.182.182,0,0,0,.05.149c0,.05.05.149.05.2s.05.1.05.149.05.1.05.149.05.1.05.149.05.1.05.149.05.1.1.149.05.1.1.149.05.1.1.149.05.1.1.149.05.1.1.149l.1.1a1.959,1.959,0,0,1,.5,1.241v.794H10.406a1.229,1.229,0,0,1-1.241-1.241V25.371H8.37a1.779,1.779,0,0,0-1.192.447,3.713,3.713,0,0,1-2.482.993,3.924,3.924,0,1,1-.149-7.844,3.728,3.728,0,0,1,2.582.993,1.857,1.857,0,0,0,1.241.5h.794V9.782a1.229,1.229,0,0,1,1.241-1.241H21.08V7.746a1.779,1.779,0,0,0-.447-1.192,3.713,3.713,0,0,1-.993-2.482,3.9,3.9,0,1,1,7.795-.149,3.728,3.728,0,0,1-.993,2.582,1.857,1.857,0,0,0-.5,1.241v.794H36.669A1.229,1.229,0,0,1,37.91,9.782V20.456h-.794a1.959,1.959,0,0,1-1.241-.5,3.905,3.905,0,0,0-6.5,3.078Z" transform="translate(-0.624 0)" fill="#fff"/>
        <path id="puzzle-2" data-name="puzzle" d="M29.371,23.038a3.938,3.938,0,0,0,6.553,2.83,1.691,1.691,0,0,1,1.192-.447h.794V36.045a1.229,1.229,0,0,1-1.241,1.241H26v-.794a1.959,1.959,0,0,1,.5-1.241,3.97,3.97,0,0,0,.993-2.582v-.5a.63.63,0,0,0-.05-.3.182.182,0,0,0-.05-.149c0-.1-.05-.149-.05-.248,0-.05-.05-.1-.05-.149-.05-.1-.05-.149-.1-.248,0-.05-.05-.1-.05-.149-.05-.05-.05-.149-.1-.2,0-.05-.05-.1-.05-.149-.05-.05-.1-.149-.149-.2s-.05-.1-.1-.1c-.05-.05-.1-.149-.149-.2l-.1-.1-.149-.149c-.05-.05-.1-.05-.1-.1a.685.685,0,0,0-.2-.149c-.05-.05-.1-.05-.1-.1-.05-.05-.149-.1-.2-.149s-.1-.05-.149-.1a.376.376,0,0,0-.2-.1c-.05,0-.1-.05-.149-.05-.05-.05-.149-.05-.2-.1-.05,0-.1-.05-.149-.05a.376.376,0,0,1-.2-.1.182.182,0,0,1-.149-.05c-.05,0-.149-.05-.2-.05H23.115c-.1,0-.149.05-.248.05h-.149a.7.7,0,0,0-.3.1h-.05c-.1.05-.248.1-.348.149h0a3.88,3.88,0,0,0-1.887,1.787v.05l-.149.3a.154.154,0,0,1-.05.1c-.05.1-.05.149-.1.248,0,.05-.05.1-.05.149s-.05.149-.05.2-.05.1-.05.149v1.341a.3.3,0,0,0,.05.2.182.182,0,0,0,.05.149c0,.05.05.149.05.2s.05.1.05.149.05.1.05.149.05.1.05.149.05.1.05.149.05.1.1.149.05.1.1.149.05.1.1.149.05.1.1.149.05.1.1.149l.1.1a1.959,1.959,0,0,1,.5,1.241v.794H10.406a1.229,1.229,0,0,1-1.241-1.241V25.371H8.37a1.779,1.779,0,0,0-1.192.447,3.713,3.713,0,0,1-2.482.993,3.924,3.924,0,1,1-.149-7.844,3.728,3.728,0,0,1,2.582.993,1.857,1.857,0,0,0,1.241.5h.794V9.782a1.229,1.229,0,0,1,1.241-1.241H21.08V7.746a1.779,1.779,0,0,0-.447-1.192,3.713,3.713,0,0,1-.993-2.482,3.9,3.9,0,1,1,7.795-.149,3.728,3.728,0,0,1-.993,2.582,1.857,1.857,0,0,0-.5,1.241v.794H36.669A1.229,1.229,0,0,1,37.91,9.782V20.456h-.794a1.959,1.959,0,0,1-1.241-.5,3.905,3.905,0,0,0-6.5,3.078Z" transform="translate(-0.545 28.704)" fill="#fff"/>
        <path id="puzzle-3" data-name="puzzle" d="M29.371,23.038a3.938,3.938,0,0,0,6.553,2.83,1.691,1.691,0,0,1,1.192-.447h.794V36.045a1.229,1.229,0,0,1-1.241,1.241H26v-.794a1.959,1.959,0,0,1,.5-1.241,3.97,3.97,0,0,0,.993-2.582v-.5a.63.63,0,0,0-.05-.3.182.182,0,0,0-.05-.149c0-.1-.05-.149-.05-.248,0-.05-.05-.1-.05-.149-.05-.1-.05-.149-.1-.248,0-.05-.05-.1-.05-.149-.05-.05-.05-.149-.1-.2,0-.05-.05-.1-.05-.149-.05-.05-.1-.149-.149-.2s-.05-.1-.1-.1c-.05-.05-.1-.149-.149-.2l-.1-.1-.149-.149c-.05-.05-.1-.05-.1-.1a.685.685,0,0,0-.2-.149c-.05-.05-.1-.05-.1-.1-.05-.05-.149-.1-.2-.149s-.1-.05-.149-.1a.376.376,0,0,0-.2-.1c-.05,0-.1-.05-.149-.05-.05-.05-.149-.05-.2-.1-.05,0-.1-.05-.149-.05a.376.376,0,0,1-.2-.1.182.182,0,0,1-.149-.05c-.05,0-.149-.05-.2-.05H23.115c-.1,0-.149.05-.248.05h-.149a.7.7,0,0,0-.3.1h-.05c-.1.05-.248.1-.348.149h0a3.88,3.88,0,0,0-1.887,1.787v.05l-.149.3a.154.154,0,0,1-.05.1c-.05.1-.05.149-.1.248,0,.05-.05.1-.05.149s-.05.149-.05.2-.05.1-.05.149v1.341a.3.3,0,0,0,.05.2.182.182,0,0,0,.05.149c0,.05.05.149.05.2s.05.1.05.149.05.1.05.149.05.1.05.149.05.1.05.149.05.1.1.149.05.1.1.149.05.1.1.149.05.1.1.149.05.1.1.149l.1.1a1.959,1.959,0,0,1,.5,1.241v.794H10.406a1.229,1.229,0,0,1-1.241-1.241V25.371H8.37a1.779,1.779,0,0,0-1.192.447,3.713,3.713,0,0,1-2.482.993,3.924,3.924,0,1,1-.149-7.844,3.728,3.728,0,0,1,2.582.993,1.857,1.857,0,0,0,1.241.5h.794V9.782a1.229,1.229,0,0,1,1.241-1.241H21.08V7.746a1.779,1.779,0,0,0-.447-1.192,3.713,3.713,0,0,1-.993-2.482,3.9,3.9,0,1,1,7.795-.149,3.728,3.728,0,0,1-.993,2.582,1.857,1.857,0,0,0-.5,1.241v.794H36.669A1.229,1.229,0,0,1,37.91,9.782V20.456h-.794a1.959,1.959,0,0,1-1.241-.5,3.905,3.905,0,0,0-6.5,3.078Z" transform="translate(28.159 0)" fill="#fff"/>
      </g>
    </g>
    <text id="Plugin_Development" data-name="Plugin
Development" transform="translate(3620 3264)" fill="#5cbdff" font-size="23" font-family="Roboto-Medium, Roboto" font-weight="500"><tspan x="-32.529" y="0">Plugin</tspan><tspan x="-67.753" y="30">Development</tspan></text>
    <text id="Setup_Implementation" data-name="Setup &amp;
Implementation" transform="translate(3522 2868)" fill="#5cbdff" font-size="23" font-family="Roboto-Medium, Roboto" font-weight="500"><tspan x="-40.014" y="0">Setup &amp;</tspan><tspan x="-81.157" y="30">Implementation</tspan></text>
    <text id="Website_Development_Customization" data-name="Website
Development
&amp; Customization" transform="translate(3473 3087)" fill="#5cbdff" font-size="23" font-family="Roboto-Medium, Roboto" font-weight="500"><tspan x="-41.457" y="0">Website</tspan><tspan x="-67.753" y="30">Development</tspan><tspan x="-84.902" y="60">&amp; Customization</tspan></text>
    <g id="Group_8516" data-name="Group 8516" transform="translate(3749.219 3104.767)">
      <ellipse id="Ellipse_393" data-name="Ellipse 393" cx="65.5" cy="67.5" rx="65.5" ry="67.5" transform="translate(-0.219 0.233)" fill="#5cbdff" opacity="0.14"/>
      <ellipse id="Ellipse_382" data-name="Ellipse 382" cx="58" cy="56" rx="58" ry="56" transform="translate(7.781 11.233)" fill="#5cbdff"/>
      <g id="XMLID_83_" transform="translate(30.788 33.275)">
        <path id="XMLID_85_" d="M67.32,58.431h-.152V31.254l2.325-2.325a1.365,1.365,0,0,0,0-1.931L63.7,21.206a1.365,1.365,0,0,0-1.931,0l-1.155,1.155v-21A1.365,1.365,0,0,0,59.25,0H41.093a1.365,1.365,0,0,0,0,2.73H57.885V25.091L48.027,34.95h-30.7a1.365,1.365,0,1,0,0,2.73H45.3L39.29,43.686H17.324a1.365,1.365,0,1,0,0,2.73H36.559l-2.076,2.076h0a1.36,1.36,0,0,0-.284.415l-4.187,9.522h-18V2.73H28.806a1.365,1.365,0,0,0,0-2.73H10.649A1.365,1.365,0,0,0,9.283,1.365V22.4A6.833,6.833,0,0,0,2.73,29.215V58.431H2.579A2.582,2.582,0,0,0,0,61.01,8.9,8.9,0,0,0,8.889,69.9H61.01A8.9,8.9,0,0,0,69.9,61.01a2.582,2.582,0,0,0-2.579-2.579ZM62.735,24.1,66.6,27.964,41.241,53.319,37.38,49.458Zm1.7,9.882V58.431H60.615V37.807Zm-6.553,6.553V58.431H37.4L41.791,56.5a1.362,1.362,0,0,0,.416-.284ZM35.9,51.835,38.864,54.8l-5.3,2.33Zm-30.434-5.3V29.215A4.1,4.1,0,0,1,9.283,25.13v33.3H5.461ZM61.01,67.168H8.889a6.166,6.166,0,0,1-6.157-6.007H67.167A6.166,6.166,0,0,1,61.01,67.168Z" transform="translate(0 0)" fill="#fff" stroke="#fff" stroke-width="1"/>
        <path id="XMLID_393_" d="M118.26,192.007a1.365,1.365,0,1,0,0,2.73h11.383a1.365,1.365,0,0,0,0-2.73Z" transform="translate(-100.936 -165.794)" fill="#fff" stroke="#fff" stroke-width="1"/>
        <path id="XMLID_394_" d="M140.112,129.364A1.365,1.365,0,0,0,138.747,128H118.26a1.365,1.365,0,1,0,0,2.73h20.487A1.365,1.365,0,0,0,140.112,129.364Z" transform="translate(-100.936 -110.524)" fill="#fff" stroke="#fff" stroke-width="1"/>
        <path id="XMLID_395_" d="M332.808,129.364A1.365,1.365,0,0,0,331.443,128h-7.119a1.365,1.365,0,1,0,0,2.73h7.119A1.365,1.365,0,0,0,332.808,129.364Z" transform="translate(-278.868 -110.524)" fill="#fff" stroke="#fff" stroke-width="1"/>
        <path id="XMLID_396_" d="M118.26,66.733h5.206a1.365,1.365,0,1,0,0-2.73H118.26a1.365,1.365,0,1,0,0,2.73Z" transform="translate(-100.936 -55.265)" fill="#fff" stroke="#fff" stroke-width="1"/>
        <path id="XMLID_751_" d="M211.027,65.368a1.365,1.365,0,0,0,1.365,1.365h22.4a1.365,1.365,0,0,0,0-2.73h-22.4A1.365,1.365,0,0,0,211.027,65.368Z" transform="translate(-182.217 -55.265)" fill="#fff" stroke="#fff" stroke-width="1"/>
        <path id="XMLID_752_" d="M247.365,2.73a1.366,1.366,0,0,0,1.365-1.365,1.365,1.365,0,1,0-2.33.965A1.375,1.375,0,0,0,247.365,2.73Z" transform="translate(-212.416 0)" fill="#fff" stroke="#fff" stroke-width="1"/>
        <path id="XMLID_765_" d="M257.637,194.737H270.3a1.365,1.365,0,1,0,0-2.73H257.637a1.365,1.365,0,1,0,0,2.73Z" transform="translate(-221.285 -165.794)" fill="#fff" stroke="#fff" stroke-width="1"/>
      </g>
    </g>
    <text id="Blog_Development" data-name="Blog
Development" transform="translate(3817 3264)" fill="#5cbdff" font-size="23" font-family="Roboto-Medium, Roboto" font-weight="500"><tspan x="-23.258" y="0">Blog</tspan><tspan x="-67.753" y="30">Development</tspan></text>
    <text id="Custom_Theme_Designing" data-name="Custom
Theme
Designing" transform="translate(3931 2820)" fill="#5cbdff" font-size="23" font-family="Roboto-Medium, Roboto" font-weight="500"><tspan x="-40.042" y="0">Custom</tspan><tspan x="-35.713" y="30">Theme</tspan><tspan x="-51.323" y="60">Designing</tspan></text>
    <text id="Design_Integration" data-name="Design
Integration" transform="translate(3936 3098)" fill="#5cbdff" font-size="23" font-family="Roboto-Medium, Roboto" font-weight="500"><tspan x="-35.471" y="0">Design</tspan><tspan x="-55.956" y="30">Integration</tspan></text>
  </g>
</svg>
