<?xml version="1.0"?>
<svg xmlns="http://www.w3.org/2000/svg" height="512px" viewBox="0 0 512.003 512" width="512px"><path d="m212.523438 512h-178.710938c-18.644531 0-33.8125-15.167969-33.8125-33.808594v-178.710937c0-18.644531 15.167969-33.8125 33.8125-33.8125h178.710938c18.640624 0 33.808593 15.167969 33.808593 33.8125v178.710937c0 18.640625-15.167969 33.808594-33.808593 33.808594zm-178.710938-226.332031c-7.617188 0-13.8125 6.195312-13.8125 13.8125v178.710937c0 7.613282 6.195312 13.808594 13.8125 13.808594h178.710938c7.613281 0 13.808593-6.195312 13.808593-13.808594v-178.710937c0-7.617188-6.195312-13.8125-13.808593-13.8125zm0 0" fill="#94d8f7"/><path d="m212.523438 246.335938h-178.710938c-18.644531 0-33.8125-15.167969-33.8125-33.8125v-178.710938c0-18.644531 15.167969-33.8125 33.8125-33.8125h178.710938c18.640624 0 33.808593 15.167969 33.808593 33.8125v8.519531c0 5.523438-4.476562 10-10 10-5.519531 0-10-4.476562-10-10v-8.519531c0-7.613281-6.195312-13.8125-13.808593-13.8125h-178.710938c-7.617188 0-13.8125 6.199219-13.8125 13.8125v178.710938c0 7.617187 6.195312 13.8125 13.8125 13.8125h178.710938c7.613281 0 13.808593-6.195313 13.808593-13.8125v-89.0625c0-5.519532 4.480469-10 10-10 5.523438 0 10 4.480468 10 10v89.0625c0 18.644531-15.167969 33.8125-33.808593 33.8125zm0 0" fill="#94d8f7"/><path d="m236.328125 91.332031c-.648437 0-1.308594-.0625-1.949219-.191406s-1.269531-.320313-1.867187-.570313c-.613281-.25-1.191407-.558593-1.730469-.917968-.550781-.371094-1.0625-.789063-1.519531-1.25-.460938-.460938-.882813-.972656-1.242188-1.519532-.359375-.542968-.667969-1.121093-.917969-1.722656-.25-.609375-.441406-1.238281-.570312-1.867187-.132812-.652344-.199219-1.3125-.199219-1.960938 0-.652343.066407-1.3125.199219-1.949219.128906-.640624.320312-1.273437.570312-1.871093.25-.609375.558594-1.191407.917969-1.730469.359375-.550781.78125-1.0625 1.242188-1.519531.457031-.460938.96875-.878907 1.519531-1.238281.539062-.359376 1.117188-.671876 1.730469-.921876.597656-.25 1.226562-.4375 1.867187-.570312 1.292969-.257812 2.621094-.257812 3.910156 0 .640626.132812 1.261719.320312 1.871094.570312.601563.25 1.179688.5625 1.71875.921876.550782.359374 1.0625.777343 1.519532 1.238281.460937.460937.882812.96875 1.25 1.519531.363281.539062.671874 1.121094.921874 1.730469.25.601562.441407 1.230469.570313 1.871093.128906.640626.1875 1.296876.1875 1.949219 0 .648438-.058594 1.308594-.1875 1.960938-.128906.628906-.320313 1.257812-.570313 1.867187-.25.601563-.558593 1.179688-.921874 1.722656-.367188.546876-.789063 1.058594-1.25 1.519532-.457032.460937-.96875.878906-1.519532 1.25-.539062.359375-1.117187.667968-1.71875.917968-.601562.25-1.230468.441407-1.871094.570313-.648437.132813-1.308593.191406-1.960937.191406zm0 0" fill="#94d8f7"/><path d="m478.1875 512h-178.710938c-18.640624 0-33.808593-15.167969-33.808593-33.808594v-178.710937c0-18.644531 15.167969-33.8125 33.808593-33.8125h178.710938c18.644531 0 33.8125 15.167969 33.8125 33.8125v89.0625c0 5.519531-4.476562 10-10 10s-10-4.480469-10-10v-89.0625c0-7.617188-6.195312-13.8125-13.8125-13.8125h-178.710938c-7.613281 0-13.808593 6.195312-13.808593 13.8125v178.710937c0 7.613282 6.195312 13.808594 13.808593 13.808594h178.710938c7.617188 0 13.8125-6.195312 13.8125-13.808594v-8.519531c0-5.523437 4.476562-10 10-10s10 4.476563 10 10v8.519531c0 18.640625-15.167969 33.808594-33.8125 33.808594zm0 0" fill="#94d8f7"/><path d="m502 440.671875c-2.628906 0-5.210938-1.070313-7.070312-2.929687-.460938-.460938-.878907-.972657-1.238282-1.523438-.359375-.539062-.671875-1.117188-.921875-1.726562-.25-.601563-.449219-1.230469-.570312-1.871094-.128907-.640625-.199219-1.300782-.199219-1.949219 0-2.640625 1.070312-5.21875 2.929688-7.070313 2.320312-2.328124 5.773437-3.398437 9.023437-2.738281.640625.128907 1.269531.316407 1.878906.566407.601563.25 1.179688.5625 1.71875.921874.550781.371094 1.0625.789063 1.519531 1.25 1.863282 1.859376 2.933594 4.429688 2.933594 7.070313 0 .648437-.070312 1.308594-.199218 1.949219-.132813.640625-.320313 1.269531-.570313 1.871094-.25.609374-.5625 1.1875-.921875 1.726562-.359375.550781-.777344 1.0625-1.238281 1.523438-.460938.460937-.972657.878906-1.519531 1.238281-.542969.359375-1.121094.671875-1.722657.921875-.609375.25-1.238281.4375-1.878906.566406-.644531.132812-1.304687.203125-1.953125.203125zm0 0" fill="#94d8f7"/><path d="m478.1875 246.335938h-178.710938c-18.640624 0-33.808593-15.167969-33.808593-33.8125v-178.710938c0-18.644531 15.167969-33.8125 33.808593-33.8125h178.710938c18.644531 0 33.8125 15.167969 33.8125 33.8125v178.710938c0 18.644531-15.167969 33.8125-33.8125 33.8125zm-178.710938-226.335938c-7.613281 0-13.808593 6.199219-13.808593 13.8125v178.710938c0 7.617187 6.195312 13.8125 13.808593 13.8125h178.710938c7.617188 0 13.8125-6.195313 13.8125-13.8125v-178.710938c0-7.613281-6.195312-13.8125-13.8125-13.8125zm0 0" fill="#94d8f7"/><path d="m142.371094 195.679688h-38.410156c-5.519532 0-10-4.476563-10-10v-33.308594h-33.304688c-5.523438 0-10-4.476563-10-10v-38.40625c0-5.523438 4.476562-10 10-10h33.304688v-33.308594c0-5.523438 4.480468-10 10-10h38.410156c5.523437 0 10 4.476562 10 10v33.308594h33.308594c5.519531 0 10 4.476562 10 10v38.40625c0 5.523437-4.480469 10-10 10h-33.308594v33.308594c0 5.523437-4.476563 10-10 10zm-28.410156-20h18.410156v-33.308594c0-5.519532 4.476562-10 10-10h33.308594v-18.40625h-33.308594c-5.523438 0-10-4.480469-10-10v-33.308594h-18.410156v33.308594c0 5.519531-4.476563 10-10 10h-33.304688v18.40625h33.304688c5.523437 0 10 4.480468 10 10zm0 0" fill="#94d8f7"/><path d="m151.375 454.84375c-2.652344 0-5.195312-1.054688-7.070312-2.929688l-23.550782-23.550781-23.554687 23.550781c-3.90625 3.90625-10.234375 3.902344-14.140625 0l-27.160156-27.160156c-1.875-1.875-2.929688-4.417968-2.929688-7.070312s1.054688-5.195313 2.929688-7.070313l23.550781-23.550781-23.550781-23.550781c-3.90625-3.90625-3.90625-10.238281 0-14.144531l27.160156-27.160157c1.875-1.875 4.417968-2.925781 7.070312-2.925781s5.195313 1.050781 7.070313 2.925781l23.554687 23.554688 23.550782-23.554688c1.875-1.875 4.417968-2.925781 7.070312-2.925781s5.195312 1.050781 7.070312 2.925781l27.160157 27.160157c3.902343 3.90625 3.902343 10.238281 0 14.144531l-23.554688 23.550781 23.554688 23.550781c3.902343 3.90625 3.902343 10.238281 0 14.144531l-27.160157 27.160157c-1.875 1.871093-4.417968 2.925781-7.070312 2.925781zm-30.621094-50.621094c2.558594 0 5.117188.976563 7.070313 2.929688l23.550781 23.550781 13.019531-13.019531-23.554687-23.550782c-3.902344-3.90625-3.902344-10.234374 0-14.140624l23.554687-23.554688-13.019531-13.015625-23.550781 23.550781c-1.875 1.875-4.417969 2.929688-7.070313 2.929688s-5.195312-1.054688-7.070312-2.929688l-23.554688-23.550781-13.015625 13.019531 23.550781 23.550782c1.875 1.875 2.929688 4.417968 2.929688 7.070312s-1.054688 5.195312-2.929688 7.070312l-23.550781 23.550782 13.015625 13.019531 23.554688-23.554687c1.953125-1.949219 4.511718-2.925782 7.070312-2.925782zm0 0" fill="#94d8f7"/><path d="m451.34375 343.074219h-125.023438c-5.519531 0-10 4.476562-10 10v76.816406c0 5.523437 4.480469 10 10 10h125.023438c5.523438 0 10-4.476563 10-10v-76.816406c0-5.523438-4.476562-10-10-10zm-115.023438 20h105.023438v18.410156h-105.023438zm105.023438 56.816406h-105.023438v-18.40625h105.023438zm0 0" fill="#94d8f7"/><path d="m451.34375 156.941406h-125.023438c-5.519531 0-10-4.476562-10-10v-38.410156c0-5.523438 4.480469-10 10-10h125.023438c5.523438 0 10 4.476562 10 10v38.410156c0 5.523438-4.476562 10-10 10zm-115.023438-20h105.023438v-18.410156h-105.023438zm0 0" fill="#94d8f7"/></svg>
