<?xml version="1.0"?>
<svg xmlns="http://www.w3.org/2000/svg" height="512px" viewBox="-74 0 512 512" width="512px"><path d="m267.878906 419.886719c-2.988281 2.867187-3.082031 7.617187-.214844 10.601562 2.867188 2.992188 7.617188 3.085938 10.605469.21875 27.582031-26.484375 42.769531-62.117187 42.769531-100.339843 0-76.691407-62.394531-139.085938-139.085937-139.085938-76.695313 0-139.089844 62.394531-139.089844 139.085938 0 76.695312 62.398438 139.089843 139.089844 139.089843 25.644531 0 50.710937-7.042969 72.488281-20.363281 3.53125-2.164062 4.644532-6.78125 2.480469-10.3125-2.160156-3.535156-6.777344-4.644531-10.3125-2.484375-19.417969 11.878906-41.777344 18.160156-64.65625 18.160156-68.421875 0-124.089844-55.667969-124.089844-124.089843 0-68.421876 55.667969-124.085938 124.089844-124.085938s124.085937 55.664062 124.085937 124.085938c0 34.097656-13.550781 65.890624-38.160156 89.519531zm0 0" fill="#97dcfc"/><path d="m101.578125 320.253906v13.1875c0 4.144532 3.359375 7.5 7.5 7.5 4.144531 0 7.5-3.355468 7.5-7.5v-13.1875c0-4.140625-3.355469-7.5-7.5-7.5-4.140625 0-7.5 3.359375-7.5 7.5zm0 0" fill="#97dcfc"/><path d="m247.324219 320.253906v13.1875c0 4.144532 3.359375 7.5 7.5 7.5 4.144531 0 7.5-3.355468 7.5-7.5v-13.1875c0-4.140625-3.355469-7.5-7.5-7.5-4.140625 0-7.5 3.359375-7.5 7.5zm0 0" fill="#97dcfc"/><path d="m194.292969 327.589844c-2.996094 3.425781-7.492188 5.394531-12.339844 5.394531s-9.34375-1.96875-12.339844-5.394531c-2.722656-3.117188-7.460937-3.4375-10.582031-.710938-3.121094 2.726563-3.4375 7.464844-.710938 10.582032 5.84375 6.6875 14.457032 10.519531 23.632813 10.519531 9.171875 0 17.789063-3.832031 23.632813-10.519531 2.726562-3.117188 2.40625-7.855469-.710938-10.582032-3.117188-2.726562-7.855469-2.40625-10.582031.710938zm0 0" fill="#97dcfc"/><path d="m343.699219 38.46875-50.9375-37.035156c-1.269531-.921875-2.84375-1.433594-4.410157-1.433594 0 0-212.777343 0-212.796874 0-1.527344 0-3.191407.492188-4.410157 1.433594l-50.9375 37.035156c-21.132812 15.363281-26.507812 44.542969-12.230469 66.425781l56.613282 86.804688c-9.546875 8.117187-18.351563 17.289062-26.234375 27.457031-2.539063 3.273438-1.945313 7.984375 1.328125 10.519531 3.273437 2.542969 7.984375 1.945313 10.523437-1.328125 8.46875-10.921875 18.09375-20.589844 28.621094-28.921875.125-.085937.257813-.152343.375-.246093 33.558594-26.414063 76.839844-38.832032 119.308594-34.621094.265625.027344.53125.050781.796875.082031 83.753906 8.707031 149.273437 79.707031 149.273437 165.726563 0 91.882812-74.75 166.632812-166.628906 166.632812-91.882813 0-166.632813-74.75-166.632813-166.632812 0-27.171876 6.699219-54.148438 19.367188-78.007813 1.941406-3.660156.550781-8.199219-3.109375-10.140625s-8.199219-.554688-10.140625 3.105469c-13.8125 26.019531-21.117188 55.429687-21.117188 85.042969 0 100.152343 81.480469 181.632812 181.632813 181.632812s181.628906-81.480469 181.628906-181.632812c0-55.476563-25.007812-105.214844-64.335937-138.558594l56.683594-86.914063c14.273437-21.882812 8.902343-51.0625-12.230469-66.425781zm-69.195313-23.46875-43.894531 67.300781h-97.3125l-43.894531-67.300781zm-253.964844 81.699219c-9.90625-15.1875-6.179687-35.4375 8.488282-46.097657l44.554687-32.394531 86.027344 131.890625c-.125.015625-9.265625 1.359375-11.152344 1.71875-.023437.003906-.046875.007813-.066406.011719-26.070313 4.835937-50.542969 15.273437-71.941406 30.597656zm156.140626 52.113281-33.601563-51.511719h77.75l-33.605469 51.519531c-1.75-.050781-8.789062-.058593-10.542968-.007812zm166.6875-52.113281-55.945313 85.78125c-20.753906-14.839844-44.132813-24.996094-68.898437-30.042969-.007813-.003906-.019532-.003906-.027344-.007812-4.695313-.988282-9.4375-1.746094-14.199219-2.332032l86.023437-131.890625 44.558594 32.394531c14.664063 10.660157 18.394532 30.910157 8.488282 46.097657zm0 0" fill="#97dcfc"/></svg>
