<svg xmlns="http://www.w3.org/2000/svg" width="15.308" height="22.262" viewBox="0 0 15.308 22.262">
  <g id="pin_1_" data-name="pin (1)" transform="translate(0 0)">
    <path id="Path_27" data-name="Path 27" d="M94.212,3.812A7.555,7.555,0,0,0,87.793,0c-.114,0-.229,0-.343,0a7.555,7.555,0,0,0-6.419,3.81,7.75,7.75,0,0,0-.1,7.658l5.52,10.1.008.013a1.342,1.342,0,0,0,2.328,0l.008-.013,5.52-10.1a7.75,7.75,0,0,0-.1-7.658Zm-6.591,6.275a3.131,3.131,0,1,1,3.131-3.131A3.134,3.134,0,0,1,87.622,10.087Z" transform="translate(-79.968 0)" fill="#3d5a80"/>
  </g>
</svg>
